<svg version="1.1" viewBox="0.0 0.0 462.7769028871391 447.93700787401576" fill="none" stroke="none" stroke-linecap="square" stroke-miterlimit="10" xmlns:xlink="http://www.w3.org/1999/xlink" xmlns="http://www.w3.org/2000/svg"><clipPath id="p.0"><path d="m0 0l462.77692 0l0 447.937l-462.77692 0l0 -447.937z" clip-rule="nonzero"/></clipPath><g clip-path="url(#p.0)"><path fill="#000000" fill-opacity="0.0" d="m0 0l462.77692 0l0 447.937l-462.77692 0z" fill-rule="evenodd"/><path fill="#000000" fill-opacity="0.0" d="m9.574803 56.51706l214.80316 0l0 132.50394l-214.80316 0z" fill-rule="evenodd"/><path fill="#000000" d="m23.637302 90.42591q-1.296875 0 -2.234375 -0.828125q-0.921875 -0.84375 -1.375 -2.265625q-0.4375 -1.421875 -0.4375 -2.984375q0 -1.5625 0.4375 -2.984375q0.453125 -1.421875 1.390625 -2.25q0.9375 -0.84375 2.21875 -0.84375q1.296875 0 2.234375 0.84375q0.9375 0.828125 1.375 2.25q0.4375 1.40625 0.4375 2.984375q0 1.5625 -0.4375 2.96875q-0.4375 1.40625 -1.375 2.265625q-0.921875 0.84375 -2.234375 0.84375zm0 -1.171875q1.265625 0 1.84375 -1.34375q0.578125 -1.359375 0.578125 -3.5625q0 -2.21875 -0.578125 -3.5625q-0.578125 -1.359375 -1.84375 -1.359375q-1.265625 0 -1.84375 1.359375q-0.5625 1.34375 -0.5625 3.5625q0 2.203125 0.5625 3.5625q0.578125 1.34375 1.84375 1.34375zm9.2421875 0.875l0 -10.40625l-1.828125 0l0 -0.96875l3.375 -0.296875l0 11.671875l-1.546875 0zm7.6953125 0l0 -1.546875l1.53125 0l0 1.546875l-1.53125 0zm0 -6.9375l0 -1.546875l1.53125 0l0 1.546875l-1.53125 0zm11.65625 6.9375l-3.15625 -8.484375l1.546875 0l2.46875 6.59375l2.59375 -6.59375l1.4375 0l-3.34375 8.484375l-1.546875 0zm9.90625 0.203125q-1.21875 0 -2.109375 -0.5q-0.890625 -0.5 -1.421875 -1.5625q-0.515625 -1.078125 -0.515625 -2.390625q0 -1.234375 0.46875 -2.28125q0.484375 -1.0625 1.390625 -1.59375q0.90625 -0.546875 2.1875 -0.546875q1.203125 0 2.0937538 0.5q0.90625 0.484375 1.421875 1.5625q0.53125 1.0625 0.53125 2.359375q0 1.25 -0.484375 2.3125q-0.484375 1.0625 -1.390625 1.609375q-0.9062538 0.53125 -2.1718788 0.53125zm0 -1.171875q1.140625 0 1.765625 -0.84375q0.6406288 -0.859375 0.6406288 -2.4375q0 -1.578125 -0.6406288 -2.421875q-0.625 -0.84375 -1.765625 -0.84375q-1.140625 0 -1.78125 0.84375q-0.625 0.84375 -0.625 2.421875q0 1.578125 0.625 2.4375q0.640625 0.84375 1.78125 0.84375zm6.453129 0.96875l0 -8.484375l1.53125 0l0 8.484375l-1.53125 0zm0 -10.03125l0 -1.53125l1.53125 0l0 1.53125l-1.53125 0zm10.0625 10.03125l0 -1.59375q-0.46875 0.890625 -1.171875 1.34375q-0.703125 0.453125 -1.65625 0.453125q-1.5625 0 -2.421875 -1.15625q-0.859375 -1.15625 -0.859375 -3.03125q0 -2.015625 0.96875 -3.34375q0.96875 -1.34375 2.640625 -1.34375q0.5 0 0.9375 0.125q0.453125 0.109375 0.796875 0.328125q0.34375 0.203125 0.765625 0.703125l0 -4.828125l1.546875 0l0 12.34375l-1.546875 0zm0 -6.46875q-0.796875 -0.703125 -1.265625 -0.875q-0.453125 -0.171875 -1.0 -0.171875q-1.125 0 -1.671875 0.953125q-0.53125 0.9375 -0.53125 2.421875q0 1.390625 0.46875 2.1875q0.484375 0.796875 1.5 0.796875q0.640625 0 1.265625 -0.34375q0.625 -0.359375 1.234375 -1.0625l0 -3.90625zm9.9765625 6.46875l0 -7.328125l-1.203125 0l0 -1.15625l1.203125 0l0 -1.015625q0 -1.046875 0.265625 -1.640625q0.28125 -0.609375 0.890625 -1.0q0.609375 -0.390625 1.609375 -0.390625q0.78125 0 1.765625 0.25l0 1.21875q-1.046875 -0.3125 -1.671875 -0.3125q-0.359375 0 -0.65625 0.109375q-0.296875 0.109375 -0.484375 0.40625q-0.171875 0.28125 -0.171875 1.1875l0 1.1875l2.125 0l0 1.15625l-2.125 0l0 7.328125l-1.546875 0zm10.8984375 0l0 -1.59375q-0.59375 0.859375 -1.375 1.328125q-0.765625 0.46875 -1.59375 0.46875q-1.078125 0 -1.75 -0.6875q-0.671875 -0.6875 -0.671875 -1.90625l0 -6.09375l1.53125 0l0 5.59375q0 0.875 0.15625 1.15625q0.15625 0.28125 0.4375 0.4375q0.28125 0.15625 0.609375 0.15625q0.5625 0 1.21875 -0.34375q0.671875 -0.359375 1.4375 -1.5l0 -5.5l1.546875 0l0 8.484375l-1.546875 0zm4.6328125 0l0 -8.484375l1.53125 0l0 1.59375q0.59375 -0.859375 1.359375 -1.3125q0.78125 -0.46875 1.625 -0.46875q1.078125 0 1.75 0.6875q0.671875 0.671875 0.671875 1.890625l0 6.09375l-1.546875 0l0 -5.59375q0 -0.890625 -0.15625 -1.171875q-0.15625 -0.28125 -0.4375 -0.421875q-0.28125 -0.15625 -0.59375 -0.15625q-0.578125 0 -1.234375 0.359375q-0.65625 0.34375 -1.4375 1.484375l0 5.5l-1.53125 0zm15.8203125 -0.265625q-1.5 0.46875 -2.578125 0.46875q-1.140625 0 -2.09375 -0.609375q-0.9375 -0.625 -1.421875 -1.625q-0.46875 -1.0 -0.46875 -2.265625q0 -1.875 1.03125 -3.125q1.046875 -1.25 3.21875 -1.25q1.0 0 2.21875 0.265625l0 1.296875q-1.3125 -0.390625 -2.125 -0.390625q-1.296875 0 -1.953125 0.96875q-0.65625 0.96875 -0.65625 2.28125q0 1.4375 0.734375 2.328125q0.734375 0.875 1.921875 0.875q1.046875 0 2.171875 -0.546875l0 1.328125zm5.3828125 1.515625l0 1.0625q-1.265625 -0.859375 -2.0625 -2.078125q-0.78125 -1.203125 -1.1875 -2.5625q-0.40625 -1.375 -0.40625 -2.6875q0 -1.3125 0.40625 -2.671875q0.40625 -1.375 1.1875 -2.578125q0.796875 -1.203125 2.0625 -2.078125l0 1.0625q-0.875 0.953125 -1.296875 1.859375q-0.421875 0.90625 -0.625 2.03125q-0.203125 1.125 -0.203125 2.375q0 1.25 0.203125 2.375q0.203125 1.125 0.625 2.03125q0.421875 0.90625 1.296875 1.859375zm1.15625 -12.53125l0 -1.0625q1.28125 0.875 2.0624924 2.078125q0.796875 1.203125 1.203125 2.578125q0.40625 1.359375 0.40625 2.671875q0 1.3125 -0.40625 2.6875q-0.40625 1.359375 -1.203125 2.5625q-0.7812424 1.21875 -2.0624924 2.078125l0 -1.0625q0.890625 -0.953125 1.3125 -1.859375q0.42186737 -0.90625 0.6093674 -2.03125q0.203125 -1.140625 0.203125 -2.375q0 -1.234375 -0.203125 -2.359375q-0.1875 -1.140625 -0.6093674 -2.046875q-0.421875 -0.90625 -1.3125 -1.859375z" fill-rule="nonzero"/><path fill="#000000" d="m23.637302 109.62591q-1.296875 0 -2.234375 -0.828125q-0.921875 -0.84375 -1.375 -2.265625q-0.4375 -1.421875 -0.4375 -2.984375q0 -1.5625 0.4375 -2.984375q0.453125 -1.421875 1.390625 -2.25q0.9375 -0.84375 2.21875 -0.84375q1.296875 0 2.234375 0.84375q0.9375 0.828125 1.375 2.25q0.4375 1.40625 0.4375 2.984375q0 1.5625 -0.4375 2.96875q-0.4375 1.40625 -1.375 2.265625q-0.921875 0.84375 -2.234375 0.84375zm0 -1.171875q1.265625 0 1.84375 -1.34375q0.578125 -1.359375 0.578125 -3.5625q0 -2.21875 -0.578125 -3.5625q-0.578125 -1.359375 -1.84375 -1.359375q-1.265625 0 -1.84375 1.359375q-0.5625 1.34375 -0.5625 3.5625q0 2.203125 0.5625 3.5625q0.578125 1.34375 1.84375 1.34375zm6.3828125 0.875l0 -1.359375q0.671875 -1.5625 2.71875 -3.421875l0.890625 -0.78125q0.953125 -0.875 1.328125 -1.578125q0.375 -0.71875 0.375 -1.484375q0 -0.96875 -0.59375 -1.515625q-0.59375 -0.5625 -1.59375 -0.5625q-0.4375 0 -0.828125 0.09375q-0.390625 0.078125 -0.84375 0.265625q-0.453125 0.171875 -1.15625 0.578125l0 -1.359375q1.53125 -0.734375 3.0625 -0.734375q1.65625 0 2.609375 0.921875q0.96875 0.90625 0.96875 2.28125q0 0.890625 -0.390625 1.6875q-0.390625 0.78125 -1.953125 2.109375l-0.59375 0.5q-0.640625 0.546875 -1.296875 1.34375q-0.65625 0.78125 -0.84375 1.65625l5.03125 0l0 1.359375l-6.890625 0zm10.5546875 0l0 -1.546875l1.53125 0l0 1.546875l-1.53125 0zm0 -6.9375l0 -1.546875l1.53125 0l0 1.546875l-1.53125 0zm8.5625 1.34375l0.375 0q1.203125 0 1.203125 -1.265625q0 -0.53125 -0.125 -1.09375l-0.15625 -0.671875q-0.140625 -0.671875 -0.140625 -1.3125q0 -0.609375 0.328125 -1.15625q0.328125 -0.5625 0.875 -0.875q0.5625 -0.3125 1.59375 -0.375l0 1.15625l-0.21875 0q-0.421875 0 -0.828125 0.25q-0.40625 0.234375 -0.40625 0.71875q0 0.1875 0.09375 0.75l0.140625 0.796875q0.078125 0.5 0.078125 1.21875q0 0.828125 -0.28125 1.390625q-0.265625 0.546875 -0.859375 1.046875q0.59375 0.5 0.859375 1.0625q0.28125 0.546875 0.28125 1.390625q0 0.703125 -0.078125 1.203125l-0.140625 0.796875q-0.09375 0.578125 -0.09375 0.765625q0 0.46875 0.390625 0.703125q0.40625 0.25 0.84375 0.25l0.21875 0l0 1.15625q-1.03125 -0.0625 -1.59375 -0.375q-0.546875 -0.3125 -0.875 -0.859375q-0.328125 -0.546875 -0.328125 -1.171875q0 -0.640625 0.140625 -1.3125l0.15625 -0.671875q0.125 -0.5625 0.125 -1.109375q0 -1.25 -1.203125 -1.25l-0.375 0l0 -1.15625z" fill-rule="nonzero"/><path fill="#000000" d="m23.637302 128.82591q-1.296875 0 -2.234375 -0.8281326q-0.921875 -0.84375 -1.375 -2.265625q-0.4375 -1.421875 -0.4375 -2.984375q0 -1.5625 0.4375 -2.984375q0.453125 -1.421875 1.390625 -2.25q0.9375 -0.84375 2.21875 -0.84375q1.296875 0 2.234375 0.84375q0.9375 0.828125 1.375 2.25q0.4375 1.40625 0.4375 2.984375q0 1.5625 -0.4375 2.96875q-0.4375 1.40625 -1.375 2.265625q-0.921875 0.8437576 -2.234375 0.8437576zm0 -1.1718826q1.265625 0 1.84375 -1.34375q0.578125 -1.359375 0.578125 -3.5625q0 -2.21875 -0.578125 -3.5625q-0.578125 -1.359375 -1.84375 -1.359375q-1.265625 0 -1.84375 1.359375q-0.5625 1.34375 -0.5625 3.5625q0 2.203125 0.5625 3.5625q0.578125 1.34375 1.84375 1.34375zm6.6796875 0.7812576l0 -1.4375076q1.65625 0.65625 2.59375 0.65625q1.109375 0 1.796875 -0.640625q0.703125 -0.640625 0.703125 -1.671875q0 -1.0 -0.71875 -1.71875q-0.703125 -0.71875 -2.6875 -0.71875l-0.609375 0l0 -1.03125l0.53125 -0.015625q1.859375 0 2.53125 -0.671875q0.671875 -0.671875 0.671875 -1.578125q0 -0.8125 -0.53125 -1.296875q-0.53125 -0.484375 -1.59375 -0.484375q-1.140625 0 -2.53125 0.65625l0 -1.34375q1.0 -0.34375 1.546875 -0.40625q0.5625 -0.0625 1.09375 -0.0625q1.828125 0 2.6875 0.734375q0.875 0.734375 0.875 1.953125q0 0.671875 -0.25 1.1875q-0.25 0.515625 -0.765625 0.953125q-0.5 0.4375 -1.390625 0.765625q1.125 0.265625 1.671875 0.6875q0.5625 0.40625 0.84375 1.03125q0.28125 0.625 0.28125 1.34375q0 1.359375 -0.9375 2.4375q-0.921875 1.0625076 -3.109375 1.0625076q-1.078125 0 -2.703125 -0.390625zm10.2578125 0.09375l0 -1.5468826l1.53125 0l0 1.5468826l-1.53125 0zm0 -6.9375076l0 -1.546875l1.53125 0l0 1.546875l-1.53125 0zm30.156254 6.9375076l0 -8.484383l1.53125 0l0 8.484383l-1.53125 0zm0 -10.031258l0 -1.53125l1.53125 0l0 1.53125l-1.53125 0zm4.625 10.031258l0 -8.484383l1.53125 0l0 1.59375q0.59375 -0.859375 1.359375 -1.3125q0.78125 -0.46875 1.625 -0.46875q1.078125 0 1.75 0.6875q0.671875 0.671875 0.671875 1.890625l0 6.0937576l-1.546875 0l0 -5.5937576q0 -0.890625 -0.15625 -1.171875q-0.15625 -0.28125 -0.4375 -0.421875q-0.28125 -0.15625 -0.59375 -0.15625q-0.578125 0 -1.234375 0.359375q-0.65625 0.34375 -1.4375 1.484375l0 5.5000076l-1.53125 0zm13.7109375 0q-0.71875 0.203125 -1.234375 0.203125q-1.140625 0 -1.8125 -0.65625q-0.671875 -0.6718826 -0.671875 -1.8906326l0 -4.984375l-1.0625 0l0 -1.15625l1.0625 0l0 -1.546875l1.53125 -0.140625l0 1.6875l2.21875 0l0 1.15625l-2.21875 0l0 4.703125q0 0.890625 0.34375 1.28125q0.34375 0.375 1.09375 0.375q0.3125 0 0.75 -0.09375l0 1.0625076zm7.265625 0l0 -8.484383l1.53125 0l0 1.59375q0.59375 -0.859375 1.359375 -1.3125q0.78125 -0.46875 1.625 -0.46875q1.078125 0 1.75 0.6875q0.671875 0.671875 0.671875 1.890625l0 6.0937576l-1.546875 0l0 -5.5937576q0 -0.890625 -0.15625 -1.171875q-0.15625 -0.28125 -0.4375 -0.421875q-0.28125 -0.15625 -0.59375 -0.15625q-0.578125 0 -1.234375 0.359375q-0.65625 0.34375 -1.4375 1.484375l0 5.5000076l-1.53125 0zm19.335938 -2.7031326l0 -1.15625l8.484375 0l0 1.15625l-8.484375 0zm0 -2.703125l0 -1.15625l8.484375 0l0 1.15625l-8.484375 0zm18.539055 5.4062576l0 -10.406258l-1.828125 0l0 -0.96875l3.375 -0.296875l0 11.671883l-1.546875 0zm7.2578125 0l0 -1.3593826q0.671875 -1.5625 2.71875 -3.421875l0.890625 -0.78125q0.953125 -0.875 1.328125 -1.578125q0.375 -0.71875 0.375 -1.484375q0 -0.96875 -0.59375 -1.515625q-0.59375 -0.5625 -1.59375 -0.5625q-0.4375 0 -0.828125 0.09375q-0.390625 0.078125 -0.84375 0.265625q-0.453125 0.171875 -1.15625 0.578125l0 -1.359375q1.53125 -0.734375 3.0625 -0.734375q1.65625 0 2.609375 0.921875q0.96875 0.90625 0.96875 2.28125q0 0.890625 -0.390625 1.6875q-0.390625 0.78125 -1.953125 2.109375l-0.59375 0.5q-0.640625 0.546875 -1.296875 1.34375q-0.65625 0.78125 -0.84375 1.65625l5.03125 0l0 1.3593826l-6.890625 0zm10.4140625 -0.09375l0 -1.4375076q1.65625 0.65625 2.59375 0.65625q1.109375 0 1.796875 -0.640625q0.703125 -0.640625 0.703125 -1.671875q0 -1.0 -0.71875 -1.71875q-0.703125 -0.71875 -2.6875 -0.71875l-0.609375 0l0 -1.03125l0.53125 -0.015625q1.859375 0 2.53125 -0.671875q0.671875 -0.671875 0.671875 -1.578125q0 -0.8125 -0.53125 -1.296875q-0.53125 -0.484375 -1.59375 -0.484375q-1.140625 0 -2.53125 0.65625l0 -1.34375q1.0 -0.34375 1.546875 -0.40625q0.5625 -0.0625 1.09375 -0.0625q1.828125 0 2.6875 0.734375q0.875 0.734375 0.875 1.953125q0 0.671875 -0.25 1.1875q-0.25 0.515625 -0.765625 0.953125q-0.5 0.4375 -1.390625 0.765625q1.125 0.265625 1.671875 0.6875q0.5625 0.40625 0.84375 1.03125q0.28125 0.625 0.28125 1.34375q0 1.359375 -0.9375 2.4375q-0.921875 1.0625076 -3.109375 1.0625076q-1.078125 0 -2.703125 -0.390625zm10.2578125 2.609375l0 -0.578125q0.296875 -0.15625 0.421875 -0.515625q0.125 -0.34375 0.125 -1.234375l0 -0.1875l-0.546875 0l0 -1.5468826l1.53125 0l0 1.2968826q0 1.015625 -0.171875 1.46875q-0.171875 0.453125 -0.546875 0.8125q-0.375 0.375 -0.8125 0.484375zm0 -9.453133l0 -1.546875l1.53125 0l0 1.546875l-1.53125 0z" fill-rule="nonzero"/><path fill="#000000" d="m23.637302 148.02591q-1.296875 0 -2.234375 -0.828125q-0.921875 -0.84375 -1.375 -2.265625q-0.4375 -1.421875 -0.4375 -2.984375q0 -1.5625 0.4375 -2.984375q0.453125 -1.421875 1.390625 -2.25q0.9375 -0.84375 2.21875 -0.84375q1.296875 0 2.234375 0.84375q0.9375 0.828125 1.375 2.25q0.4375 1.40625 0.4375 2.984375q0 1.5625 -0.4375 2.96875q-0.4375 1.40625 -1.375 2.265625q-0.921875 0.84375 -2.234375 0.84375zm0 -1.171875q1.265625 0 1.84375 -1.34375q0.578125 -1.359375 0.578125 -3.5625q0 -2.21875 -0.578125 -3.5625q-0.578125 -1.359375 -1.84375 -1.359375q-1.265625 0 -1.84375 1.359375q-0.5625 1.34375 -0.5625 3.5625q0 2.203125 0.5625 3.5625q0.578125 1.34375 1.84375 1.34375zm11.0859375 0.875l0 -3.28125l-5.203125 0l0 -1.15625l5.203125 -7.125l1.4375 0l0 7.03125l1.546875 0l0 1.25l-1.546875 0l0 3.28125l-1.4375 0zm-3.703125 -4.53125l3.796875 0l0 -5.140625l-3.796875 5.140625zm9.5546875 4.53125l0 -1.546875l1.53125 0l0 1.546875l-1.53125 0zm0 -6.9375l0 -1.546875l1.53125 0l0 1.546875l-1.53125 0zm30.156254 6.9375l0 -8.484375l1.53125 0l0 8.484375l-1.53125 0zm0 -10.03125l0 -1.53125l1.53125 0l0 1.53125l-1.53125 0zm4.625 10.03125l0 -8.484375l1.53125 0l0 1.59375q0.59375 -0.859375 1.359375 -1.3125q0.78125 -0.46875 1.625 -0.46875q1.078125 0 1.75 0.6875q0.671875 0.671875 0.671875 1.890625l0 6.09375l-1.546875 0l0 -5.59375q0 -0.890625 -0.15625 -1.171875q-0.15625 -0.28125 -0.4375 -0.421875q-0.28125 -0.15625 -0.59375 -0.15625q-0.578125 0 -1.234375 0.359375q-0.65625 0.34375 -1.4375 1.484375l0 5.5l-1.53125 0zm13.7109375 0q-0.71875 0.203125 -1.234375 0.203125q-1.140625 0 -1.8125 -0.65625q-0.671875 -0.671875 -0.671875 -1.890625l0 -4.984375l-1.0625 0l0 -1.15625l1.0625 0l0 -1.546875l1.53125 -0.140625l0 1.6875l2.21875 0l0 1.15625l-2.21875 0l0 4.703125q0 0.890625 0.34375 1.28125q0.34375 0.375 1.09375 0.375q0.3125 0 0.75 -0.09375l0 1.0625zm7.265625 0l0 -8.484375l1.53125 0l0 1.59375q0.46875 -0.75 1.203125 -1.265625q0.734375 -0.515625 1.6875 -0.515625q0.5625 0 0.96875 0.1875q0.421875 0.171875 0.75 0.5q0.34375 0.328125 0.609375 1.09375q0.46875 -0.765625 1.1875 -1.28125q0.71875 -0.515625 1.65625 -0.515625q0.90625 0 1.625 0.5625q0.734375 0.5625 0.734375 1.953125l0 6.171875l-1.546875 0l0 -5.9375q0 -0.84375 -0.359375 -1.140625q-0.359375 -0.3125 -0.796875 -0.3125q-0.546875 0 -1.140625 0.34375q-0.578125 0.34375 -1.359375 1.359375l0 5.6875l-1.546875 0l0 -5.9375q0 -0.84375 -0.359375 -1.140625q-0.359375 -0.3125 -0.8125 -0.3125q-0.5625 0 -1.125 0.34375q-0.5625 0.328125 -1.375 1.359375l0 5.6875l-1.53125 0zm19.28125 -2.703125l0 -1.15625l8.484375 0l0 1.15625l-8.484375 0zm0 -2.703125l0 -1.15625l8.484375 0l0 1.15625l-8.484375 0zm20.382805 5.40625l0 -3.28125l-5.203125 0l0 -1.15625l5.203125 -7.125l1.4375 0l0 7.03125l1.546875 0l0 1.25l-1.546875 0l0 3.28125l-1.4375 0zm-3.703125 -4.53125l3.796875 0l0 -5.140625l-3.796875 5.140625zm9.7421875 4.578125l0 -1.375q1.140625 0.453125 2.1875 0.453125q1.25 0 1.84375 -0.734375q0.59375 -0.734375 0.59375 -1.78125q0 -1.1875 -0.875 -1.890625q-0.859375 -0.71875 -2.703125 -0.71875q-0.421875 0 -0.859375 0.0625l0 -5.625l5.859375 0l0 1.34375l-4.5 0l0 3.046875q2.4375 0 3.578125 1.109375q1.140625 1.109375 1.140625 2.75q0 1.5 -1.03125 2.5625q-1.03125 1.046875 -3.234375 1.046875q-0.890625 0 -2.0 -0.25zm10.9140625 -6.046875q0.453125 -0.578125 0.859375 -0.84375q0.40625 -0.28125 0.890625 -0.421875q0.484375 -0.15625 1.03125 -0.15625q0.984375 0 1.78125 0.46875q0.8125 0.46875 1.234375 1.28125q0.421875 0.8125 0.421875 1.828125q0 1.109375 -0.5 2.078125q-0.484375 0.96875 -1.3125 1.515625q-0.8125 0.546875 -2.015625 0.546875q-2.0625 0 -3.0625 -1.671875q-1.0 -1.6875 -1.0 -4.15625q0 -1.625 0.484375 -3.109375q0.484375 -1.5 1.484375 -2.359375q1.0 -0.859375 2.734375 -0.859375q0.546875 0 1.046875 0.078125q0.5 0.0625 1.546875 0.359375l0 1.34375q-1.625 -0.625 -2.6875 -0.625q-1.546875 0 -2.25 1.3125q-0.6875 1.296875 -0.6875 3.390625zm4.671875 2.453125q0 -1.375 -0.640625 -2.0625q-0.625 -0.703125 -1.578125 -0.703125q-0.78125 0 -1.59375 0.578125q-0.796875 0.5625 -0.796875 1.65625q0 1.109375 0.5625 2.15625q0.5625 1.046875 1.875 1.046875q0.953125 0 1.5625 -0.6875q0.609375 -0.703125 0.609375 -1.984375zm4.4609375 6.0625l0 -0.578125q0.296875 -0.15625 0.421875 -0.515625q0.125 -0.34375 0.125 -1.234375l0 -0.1875l-0.546875 0l0 -1.546875l1.53125 0l0 1.296875q0 1.015625 -0.171875 1.46875q-0.171875 0.453125 -0.546875 0.8125q-0.375 0.375 -0.8125 0.484375zm0 -9.453125l0 -1.546875l1.53125 0l0 1.546875l-1.53125 0z" fill-rule="nonzero"/><path fill="#000000" d="m23.637302 167.2259q-1.296875 0 -2.234375 -0.828125q-0.921875 -0.84375 -1.375 -2.265625q-0.4375 -1.421875 -0.4375 -2.984375q0 -1.5625 0.4375 -2.984375q0.453125 -1.421875 1.390625 -2.25q0.9375 -0.84375 2.21875 -0.84375q1.296875 0 2.234375 0.84375q0.9375 0.828125 1.375 2.25q0.4375 1.40625 0.4375 2.984375q0 1.5625 -0.4375 2.96875q-0.4375 1.40625 -1.375 2.265625q-0.921875 0.84375 -2.234375 0.84375zm0 -1.171875q1.265625 0 1.84375 -1.34375q0.578125 -1.359375 0.578125 -3.5625q0 -2.21875 -0.578125 -3.5625q-0.578125 -1.359375 -1.84375 -1.359375q-1.265625 0 -1.84375 1.359375q-0.5625 1.34375 -0.5625 3.5625q0 2.203125 0.5625 3.5625q0.578125 1.34375 1.84375 1.34375zm7.0078125 0.921875l0 -1.375q1.140625 0.453125 2.1875 0.453125q1.25 0 1.84375 -0.734375q0.59375 -0.734375 0.59375 -1.78125q0 -1.1875 -0.875 -1.890625q-0.859375 -0.71875 -2.703125 -0.71875q-0.421875 0 -0.859375 0.0625l0 -5.625l5.859375 0l0 1.34375l-4.5 0l0 3.046875q2.4375 0 3.578125 1.109375q1.140625 1.109375 1.140625 2.75q0 1.5 -1.03125 2.5625q-1.03125 1.046875 -3.234375 1.046875q-0.890625 0 -2.0 -0.25zm9.9296875 -0.046875l0 -1.546875l1.53125 0l0 1.546875l-1.53125 0zm0 -6.9375l0 -1.546875l1.53125 0l0 1.546875l-1.53125 0zm13.375 2.5l-0.390625 0q-1.1875 0 -1.1875 1.265625q0 0.53125 0.125 1.09375l0.15625 0.671875q0.140625 0.671875 0.140625 1.3125q0 0.625 -0.328125 1.171875q-0.328125 0.546875 -0.890625 0.859375q-0.546875 0.3125 -1.578125 0.375l0 -1.15625l0.21875 0q0.4375 0 0.828125 -0.25q0.40625 -0.234375 0.40625 -0.703125q0 -0.21875 -0.09375 -0.765625l-0.140625 -0.796875q-0.09375 -0.5 -0.09375 -1.234375q0 -0.796875 0.265625 -1.34375q0.28125 -0.5625 0.890625 -1.078125q-0.609375 -0.515625 -0.890625 -1.0625q-0.265625 -0.546875 -0.265625 -1.375q0 -0.71875 0.09375 -1.21875l0.140625 -0.796875q0.09375 -0.546875 0.09375 -0.765625q0 -0.453125 -0.40625 -0.703125q-0.40625 -0.25 -0.828125 -0.25l-0.21875 0l0 -1.15625q1.03125 0.0625 1.578125 0.375q0.5625 0.3125 0.890625 0.875q0.328125 0.546875 0.328125 1.15625q0 0.640625 -0.140625 1.3125l-0.15625 0.671875q-0.125 0.5625 -0.125 1.109375q0 1.25 1.1875 1.25l0.390625 0l0 1.15625z" fill-rule="nonzero"/><path fill="#000000" fill-opacity="0.0" d="m279.99738 7.8293962l176.25195 0l0 398.64566l-176.25195 0z" fill-rule="evenodd"/><path stroke="#000000" stroke-width="3.0" stroke-linejoin="round" stroke-linecap="butt" d="m279.99738 7.8293962l176.25195 0l0 398.64566l-176.25195 0z" fill-rule="evenodd"/><path fill="#b7b7b7" d="m279.99738 292.42783l176.25195 0l0 114.04724l-176.25195 0z" fill-rule="evenodd"/><path stroke="#000000" stroke-width="3.0" stroke-linejoin="round" stroke-linecap="butt" d="m279.99738 292.42783l176.25195 0l0 114.04724l-176.25195 0z" fill-rule="evenodd"/><path fill="#000000" fill-opacity="0.0" d="m279.99738 211.29396l176.25195 0l0 40.566925l-176.25195 0z" fill-rule="evenodd"/><path stroke="#000000" stroke-width="3.0" stroke-linejoin="round" stroke-linecap="butt" d="m279.99738 211.29396l176.25195 0l0 40.566925l-176.25195 0z" fill-rule="evenodd"/><path fill="#000000" d="m357.4438 238.49742l0 -3.8125l-6.0625 0l0 -1.359375l6.0625 -8.3125l1.6875 0l0 8.203125l1.8125 0l0 1.46875l-1.8125 0l0 3.8125l-1.6875 0zm-4.296875 -5.28125l4.421875 0l0 -6.0l-4.421875 6.0zm11.343658 5.328125l0 -1.59375q1.34375 0.53125 2.546875 0.53125q1.46875 0 2.15625 -0.859375q0.703125 -0.859375 0.703125 -2.0625q0 -1.390625 -1.015625 -2.21875q-1.015625 -0.828125 -3.171875 -0.828125q-0.484375 0 -0.984375 0.0625l0 -6.5625l6.8125 0l0 1.5625l-5.234375 0l0 3.5625q2.84375 0 4.171875 1.296875q1.328125 1.296875 1.328125 3.203125q0 1.75 -1.203125 2.984375q-1.203125 1.21875 -3.78125 1.21875q-1.03125 0 -2.328125 -0.296875zm12.734314 -7.03125q0.515625 -0.671875 0.984375 -1.0q0.484375 -0.328125 1.046875 -0.5q0.578125 -0.171875 1.203125 -0.171875q1.15625 0 2.09375 0.546875q0.9375 0.546875 1.421875 1.5q0.5 0.953125 0.5 2.125q0 1.296875 -0.578125 2.4375q-0.5625 1.125 -1.53125 1.765625q-0.953125 0.625 -2.359375 0.625q-2.40625 0 -3.578125 -1.953125q-1.15625 -1.96875 -1.15625 -4.828125q0 -1.890625 0.5625 -3.625q0.5625 -1.75 1.71875 -2.75q1.171875 -1.015625 3.203125 -1.015625q0.640625 0 1.21875 0.078125q0.578125 0.078125 1.8125 0.4375l0 1.5625q-1.90625 -0.734375 -3.140625 -0.734375q-1.796875 0 -2.609375 1.53125q-0.8125 1.515625 -0.8125 3.96875zm5.453125 2.859375q0 -1.609375 -0.75 -2.421875q-0.734375 -0.8125 -1.84375 -0.8125q-0.90625 0 -1.84375 0.671875q-0.9375 0.65625 -0.9375 1.9375q0 1.296875 0.640625 2.515625q0.65625 1.21875 2.203125 1.21875q1.109375 0 1.8125 -0.8125q0.71875 -0.8125 0.71875 -2.296875z" fill-rule="nonzero"/><path fill="#000000" fill-opacity="0.0" d="m279.99738 251.86089l176.25195 0l0 40.56694l-176.25195 0z" fill-rule="evenodd"/><path stroke="#000000" stroke-width="3.0" stroke-linejoin="round" stroke-linecap="butt" d="m279.99738 251.86089l176.25195 0l0 40.56694l-176.25195 0z" fill-rule="evenodd"/><path fill="#000000" d="m355.30316 279.06436l0 -12.140625l-2.125 0l0 -1.125l3.9375 -0.328125l0 13.59375l-1.8125 0zm8.468658 0l0 -1.578125q0.78125 -1.828125 3.171875 -3.984375l1.03125 -0.921875q1.125 -1.015625 1.546875 -1.84375q0.4375 -0.828125 0.4375 -1.71875q0 -1.140625 -0.703125 -1.78125q-0.6875 -0.640625 -1.84375 -0.640625q-0.5 0 -0.96875 0.09375q-0.453125 0.09375 -0.984375 0.3125q-0.515625 0.203125 -1.34375 0.671875l0 -1.578125q1.796875 -0.84375 3.5625 -0.84375q1.9375 0 3.0625 1.0625q1.125 1.0625 1.125 2.65625q0 1.03125 -0.46875 1.953125q-0.453125 0.921875 -2.265625 2.46875l-0.6875 0.59375q-0.765625 0.640625 -1.53125 1.5625q-0.765625 0.90625 -0.96875 1.9375l5.859375 0l0 1.578125l-8.03125 0zm12.140564 -0.09375l0 -1.6875q1.921875 0.765625 3.03125 0.765625q1.28125 0 2.09375 -0.75q0.8125 -0.75 0.8125 -1.9375q0 -1.171875 -0.828125 -2.0q-0.828125 -0.84375 -3.140625 -0.84375l-0.71875 0l0 -1.21875l0.625 0q2.171875 0 2.953125 -0.78125q0.78125 -0.796875 0.78125 -1.859375q0 -0.9375 -0.625 -1.5q-0.609375 -0.5625 -1.84375 -0.5625q-1.328125 0 -2.953125 0.75l0 -1.5625q1.15625 -0.390625 1.796875 -0.453125q0.65625 -0.078125 1.265625 -0.078125q2.140625 0 3.15625 0.859375q1.015625 0.84375 1.015625 2.265625q0 0.78125 -0.296875 1.390625q-0.28125 0.59375 -0.875 1.109375q-0.59375 0.515625 -1.640625 0.875q1.3125 0.3125 1.953125 0.796875q0.640625 0.484375 0.96875 1.21875q0.328125 0.71875 0.328125 1.5625q0 1.578125 -1.078125 2.828125q-1.078125 1.25 -3.625 1.25q-1.25 0 -3.15625 -0.4375z" fill-rule="nonzero"/><path fill="#000000" fill-opacity="0.0" d="m279.99738 406.47507l176.25195 0l0 42.015747l-176.25195 0z" fill-rule="evenodd"/><path fill="#000000" d="m346.10645 429.08255l1.75 -0.171875l-0.015625 0.46875q0 0.765625 0.34375 1.421875q0.359375 0.640625 1.171875 1.0q0.828125 0.34375 1.953125 0.34375q1.609375 0 2.453125 -0.703125q0.84375 -0.703125 0.84375 -1.609375q0 -0.625 -0.453125 -1.140625q-0.453125 -0.515625 -2.484375 -1.390625q-1.578125 -0.6875 -2.140625 -1.046875q-0.90625 -0.59375 -1.34375 -1.28125q-0.421875 -0.703125 -0.421875 -1.59375q0 -1.03125 0.5625 -1.859375q0.5625 -0.828125 1.65625 -1.265625q1.09375 -0.4375 2.453125 -0.4375q1.640625 0 2.75 0.546875q1.125 0.546875 1.625 1.453125q0.515625 0.90625 0.515625 1.734375q0 0.09375 -0.015625 0.28125l-1.71875 0.140625q0 -0.578125 -0.109375 -0.890625q-0.171875 -0.5625 -0.5625 -0.9375q-0.375 -0.390625 -1.046875 -0.609375q-0.671875 -0.234375 -1.5 -0.234375q-1.453125 0 -2.265625 0.65625q-0.625 0.5 -0.625 1.328125q0 0.484375 0.25 0.875q0.265625 0.390625 0.921875 0.765625q0.484375 0.265625 2.25 1.046875q1.453125 0.640625 2.0 1.0q0.71875 0.484375 1.109375 1.171875q0.390625 0.6875 0.390625 1.5625q0 1.078125 -0.65625 2.0q-0.65625 0.90625 -1.828125 1.421875q-1.15625 0.5 -2.671875 0.5q-2.265625 0 -3.703125 -0.984375q-1.421875 -1.0 -1.4375 -3.5625zm15.599823 2.96875l-0.265625 1.359375q-0.59375 0.140625 -1.15625 0.140625q-0.984375 0 -1.5625 -0.46875q-0.4375 -0.375 -0.4375 -1.0q0 -0.3125 0.234375 -1.46875l1.171875 -5.625l-1.296875 0l0.265625 -1.265625l1.296875 0l0.5 -2.375l1.890625 -1.140625l-0.734375 3.515625l1.625 0l-0.28125 1.265625l-1.609375 0l-1.125 5.359375q-0.203125 1.015625 -0.203125 1.21875q0 0.28125 0.15625 0.4375q0.171875 0.15625 0.5625 0.15625q0.546875 0 0.96875 -0.109375zm7.8551636 0.140625q-0.859375 0.734375 -1.65625 1.078125q-0.78125 0.34375 -1.6875 0.34375q-1.34375 0 -2.171875 -0.78125q-0.8125 -0.796875 -0.8125 -2.03125q0 -0.796875 0.375 -1.421875q0.375 -0.625 0.984375 -1.0q0.609375 -0.390625 1.484375 -0.546875q0.5625 -0.109375 2.109375 -0.171875q1.5625 -0.0625 2.234375 -0.328125q0.1875 -0.671875 0.1875 -1.125q0 -0.578125 -0.421875 -0.90625q-0.5625 -0.453125 -1.671875 -0.453125q-1.03125 0 -1.703125 0.46875q-0.65625 0.453125 -0.953125 1.296875l-1.671875 -0.140625q0.515625 -1.4375 1.609375 -2.203125q1.109375 -0.765625 2.796875 -0.765625q1.796875 0 2.84375 0.859375q0.796875 0.625 0.796875 1.65625q0 0.765625 -0.21875 1.796875l-0.53125 2.40625q-0.265625 1.140625 -0.265625 1.859375q0 0.453125 0.203125 1.3125l-1.671875 0q-0.125 -0.46875 -0.1875 -1.203125zm0.609375 -3.703125q-0.34375 0.140625 -0.75 0.21875q-0.390625 0.0625 -1.3125 0.15625q-1.4375 0.125 -2.03125 0.328125q-0.59375 0.1875 -0.90625 0.625q-0.296875 0.421875 -0.296875 0.9375q0 0.6875 0.484375 1.140625q0.484375 0.4375 1.359375 0.4375q0.828125 0 1.578125 -0.421875q0.75 -0.4375 1.1875 -1.203125q0.4375 -0.78125 0.6875 -2.21875zm9.922607 1.375l1.65625 0.171875q-0.625 1.8125 -1.765625 2.703125q-1.140625 0.875 -2.609375 0.875q-1.578125 0 -2.5625 -1.015625q-0.96875 -1.03125 -0.96875 -2.859375q0 -1.578125 0.625 -3.109375q0.640625 -1.53125 1.796875 -2.328125q1.171875 -0.796875 2.6875 -0.796875q1.546875 0 2.453125 0.875q0.921875 0.875 0.921875 2.328125l-1.625 0.109375q-0.015625 -0.921875 -0.546875 -1.4375q-0.515625 -0.515625 -1.359375 -0.515625q-1.0 0 -1.734375 0.625q-0.71875 0.625 -1.140625 1.90625q-0.40625 1.28125 -0.40625 2.46875q0 1.234375 0.546875 1.859375q0.546875 0.609375 1.34375 0.609375q0.796875 0 1.53125 -0.609375q0.734375 -0.609375 1.15625 -1.859375zm2.671875 3.53125l2.796875 -13.359375l1.640625 0l-1.734375 8.28125l4.8125 -4.59375l2.171875 0l-4.125 3.609375l2.5 6.0625l-1.8125 0l-1.921875 -4.96875l-2.015625 1.734375l-0.671875 3.234375l-1.640625 0z" fill-rule="nonzero"/><path fill="#000000" fill-opacity="0.0" d="m238.51706 210.56955l41.480316 0l0 42.015747l-41.480316 0z" fill-rule="evenodd"/><path fill="#000000" d="m261.21606 237.48955l0 -9.890625l1.796875 0l0 1.859375q0.671875 -1.0 1.578125 -1.53125q0.90625 -0.546875 1.890625 -0.546875q1.25 0 2.03125 0.796875q0.796875 0.796875 0.796875 2.203125l0 7.109375l-1.796875 0l0 -6.515625q0 -1.03125 -0.1875 -1.359375q-0.1875 -0.328125 -0.515625 -0.5q-0.328125 -0.1875 -0.6875 -0.1875q-0.671875 0 -1.453125 0.40625q-0.765625 0.40625 -1.65625 1.75l0 6.40625l-1.796875 0z" fill-rule="nonzero"/><path fill="#000000" fill-opacity="0.0" d="m238.51706 251.13649l41.480316 0l0 42.01573l-41.480316 0z" fill-rule="evenodd"/><path fill="#000000" d="m255.37689 278.0565l0 -9.890625l1.796875 0l0 1.859375q0.546875 -0.875 1.390625 -1.46875q0.859375 -0.609375 1.96875 -0.609375q0.65625 0 1.140625 0.21875q0.484375 0.203125 0.875 0.59375q0.390625 0.375 0.703125 1.265625q0.546875 -0.890625 1.375 -1.484375q0.84375 -0.609375 1.9375 -0.609375q1.046875 0 1.890625 0.65625q0.859375 0.65625 0.859375 2.265625l0 7.203125l-1.8125 0l0 -6.921875q0 -0.96875 -0.421875 -1.328125q-0.40625 -0.359375 -0.90625 -0.359375q-0.640625 0 -1.328125 0.40625q-0.6875 0.390625 -1.59375 1.578125l0 6.625l-1.8125 0l0 -6.921875q0 -0.984375 -0.421875 -1.34375q-0.421875 -0.359375 -0.9375 -0.359375q-0.65625 0 -1.3125 0.40625q-0.65625 0.390625 -1.59375 1.59375l0 6.625l-1.796875 0z" fill-rule="nonzero"/></g></svg>