<svg version="1.1" viewBox="0.0 0.0 408.06299212598424 450.4724409448819" fill="none" stroke="none" stroke-linecap="square" stroke-miterlimit="10" xmlns:xlink="http://www.w3.org/1999/xlink" xmlns="http://www.w3.org/2000/svg"><clipPath id="p.0"><path d="m0 0l408.063 0l0 450.47244l-408.063 0l0 -450.47244z" clip-rule="nonzero"/></clipPath><g clip-path="url(#p.0)"><path fill="#000000" fill-opacity="0.0" d="m0 0l408.063 0l0 450.47244l-408.063 0z" fill-rule="evenodd"/><path fill="#000000" fill-opacity="0.0" d="m8.060368 6.664042l207.68504 0l0 271.49606l-207.68504 0z" fill-rule="evenodd"/><path fill="#000000" d="m20.638493 32.304043l-3.421875 -9.187502l1.65625 0l2.6875 7.140625l2.8125 -7.140625l1.546875 0l-3.625 9.187502l-1.65625 0zm10.718658 0.21875q-1.3125 0 -2.28125 -0.5312519q-0.96875 -0.546875 -1.546875 -1.703125q-0.5625 -1.15625 -0.5625 -2.578125q0 -1.34375 0.515625 -2.484375q0.515625 -1.140625 1.5 -1.71875q0.984375 -0.59375 2.375 -0.59375q1.3125 0 2.28125 0.53125q0.96875 0.53125 1.53125 1.703125q0.5625 1.15625 0.5625 2.5625q0 1.359375 -0.53125 2.5q-0.515625 1.140625 -1.5 1.734375q-0.96875 0.5781269 -2.34375 0.5781269zm0 -1.2656269q1.234375 0 1.921875 -0.921875q0.6875 -0.921875 0.6875 -2.625q0 -1.703125 -0.6875 -2.625q-0.6875 -0.921875 -1.921875 -0.921875q-1.234375 0 -1.921875 0.921875q-0.6875 0.921875 -0.6875 2.625q0 1.703125 0.6875 2.625q0.6875 0.921875 1.921875 0.921875zm6.987686 1.0468769l0 -9.187502l1.65625 0l0 9.187502l-1.65625 0zm0 -10.859377l0 -1.65625l1.65625 0l0 1.65625l-1.65625 0zm10.899536 10.859377l0 -1.7187519q-0.5 0.953125 -1.265625 1.4531269q-0.765625 0.484375 -1.796875 0.484375q-1.6875 0 -2.625 -1.2500019q-0.9375 -1.25 -0.9375 -3.28125q0 -2.171875 1.046875 -3.625q1.046875 -1.453125 2.875 -1.453125q0.53125 0 1.015625 0.125q0.484375 0.125 0.859375 0.359375q0.375 0.234375 0.828125 0.765625l0 -5.21875l1.671875 0l0 13.359377l-1.671875 0zm0 -7.000002q-0.859375 -0.765625 -1.375 -0.953125q-0.5 -0.1875 -1.078125 -0.1875q-1.21875 0 -1.8125 1.03125q-0.578125 1.015625 -0.578125 2.640625q0 1.484375 0.515625 2.359375q0.515625 0.859375 1.609375 0.859375q0.703125 0 1.375 -0.375q0.6875 -0.390625 1.34375 -1.140625l0 -4.234375zm10.498337 7.000002l0 -9.187502l1.65625 0l0 1.71875q0.515625 -0.796875 1.296875 -1.359375q0.796875 -0.5625 1.8437462 -0.5625q0.59375 0 1.046875 0.203125q0.453125 0.1875 0.8125 0.546875q0.359375 0.34375 0.65625 1.171875q0.5 -0.828125 1.28125 -1.375q0.78125 -0.5625 1.796875 -0.5625q0.96875 0 1.75 0.609375q0.796875 0.609375 0.796875 2.109375l0 6.687502l-1.671875 0l0 -6.421877q0 -0.90625 -0.390625 -1.234375q-0.375 -0.34375 -0.859375 -0.34375q-0.59375 0 -1.234375 0.375q-0.625 0.359375 -1.46875 1.46875l0 6.156252l-1.6875 0l0 -6.421877q0 -0.921875 -0.390625 -1.25q-0.390625 -0.328125 -0.875 -0.328125q-0.5937462 0 -1.2187462 0.359375q-0.609375 0.359375 -1.484375 1.484375l0 6.156252l-1.65625 0zm20.9118 -1.1718769q-0.75 0.6875 -1.46875 1.0468769q-0.71875 0.34375 -1.421875 0.34375q-0.96875 0 -1.8125 -0.6406269q-0.828125 -0.65625 -0.828125 -1.890625q0 -1.34375 1.15625 -2.234375q1.171875 -0.890625 3.734375 -0.890625l0.390625 0l0 -1.109375q0 -0.65625 -0.1875 -0.953125q-0.171875 -0.296875 -0.546875 -0.46875q-0.375 -0.171875 -0.921875 -0.171875q-1.296875 0 -2.828125 0.8125l0 -1.375q1.671875 -0.6875 3.171875 -0.6875q0.8125 0 1.484375 0.265625q0.6875 0.25 1.09375 0.8125q0.40625 0.546875 0.40625 1.765625l0 4.171875q0 0.6875 0.109375 0.9375q0.109375 0.234375 0.296875 0.359375q0.203125 0.125 0.46875 0.125q0.109375 0 0.328125 -0.03125l0.109375 0.9218769q-0.5625 0.28125 -1.25 0.28125q-0.453125 0 -0.875 -0.296875q-0.421875 -0.2968769 -0.609375 -1.0937519zm-0.25 -0.90625l0 -2.375l-0.53125 -0.015625q-1.3125 0 -2.203125 0.515625q-0.890625 0.5 -0.890625 1.375q0 0.59375 0.4375 1.015625q0.4375 0.40625 1.03125 0.40625q0.515625 0 1.046875 -0.21875q0.546875 -0.234375 1.109375 -0.703125zm5.085022 2.078127l0 -13.359377l1.65625 0l0 13.359377l-1.65625 0zm4.133911 0l0 -1.4218769l6.734375 -9.765625l-6.3125 0l0 -1.328125l8.4375 0l0 1.328125l-6.71875 9.765625l6.71875 0l0 1.4218769l-8.859375 0zm12.412216 0l-2.640625 -9.187502l1.640625 0l2.015625 7.109375l2.171875 -7.109375l1.671875 0l1.90625 7.109375l2.296875 -7.109375l1.4375 0l-3.0 9.187502l-1.671875 0l-1.953125 -7.109377l-2.1875 7.109377l-1.6875 0zm19.02333 -0.296875q-1.6875 0.515625 -2.875 0.515625q-2.140625 0 -3.375 -1.4375019q-1.21875 -1.453125 -1.21875 -3.421875q0 -1.296875 0.53125 -2.453125q0.546875 -1.171875 1.421875 -1.734375q0.890625 -0.578125 2.0625 -0.578125q1.59375 0 2.53125 1.15625q0.953125 1.140625 0.953125 3.40625l0 0.515625l-5.796875 0q0.140625 1.21875 0.515625 1.875q0.390625 0.65625 1.03125 1.03125q0.65625 0.359375 1.65625 0.359375q0.515625 0 1.015625 -0.078125q0.5 -0.09375 1.546875 -0.46875l0 1.3125019zm-5.6875 -5.281252l4.046875 0q0 -1.390625 -0.546875 -1.96875q-0.53125 -0.59375 -1.359375 -0.59375q-0.953125 0 -1.5 0.640625q-0.53125 0.625 -0.640625 1.921875zm8.607132 5.578127l0 -9.187502l1.65625 0l0 9.187502l-1.65625 0zm0 -10.859377l0 -1.65625l1.65625 0l0 1.65625l-1.65625 0zm8.352661 12.218752l0 1.140625q-1.390625 -0.9375 -2.25 -2.25q-0.84375 -1.2968769 -1.28125 -2.765627q-0.4375 -1.484375 -0.4375 -2.921875q0 -1.421875 0.4375 -2.890625q0.4375 -1.484375 1.28125 -2.78125q0.859375 -1.3125 2.25 -2.25l0 1.15625q-0.96875 1.03125 -1.421875 2.015625q-0.453125 0.96875 -0.671875 2.1875q-0.21875 1.21875 -0.21875 2.5625q0 1.359375 0.21875 2.578125q0.21875 1.21875 0.671875 2.203125q0.453125 0.9687519 1.421875 2.015627zm2.291275 -1.359375l0 -9.187502l1.65625 0l0 9.187502l-1.65625 0zm0 -10.859377l0 -1.65625l1.65625 0l0 1.65625l-1.65625 0zm5.008911 10.859377l0 -9.187502l1.65625 0l0 1.71875q0.640625 -0.921875 1.484375 -1.421875q0.84375 -0.5 1.75 -0.5q1.15625 0 1.890625 0.75q0.734375 0.734375 0.734375 2.046875l0 6.593752l-1.671875 0l0 -6.062502q0 -0.953125 -0.171875 -1.25q-0.171875 -0.3125 -0.484375 -0.46875q-0.296875 -0.171875 -0.640625 -0.171875q-0.625 0 -1.34375 0.390625q-0.703125 0.375 -1.546875 1.609375l0 5.953127l-1.65625 0zm14.847687 0q-0.78125 0.21875 -1.34375 0.21875q-1.234375 0 -1.96875 -0.7187519q-0.71875 -0.71875 -0.71875 -2.03125l0 -5.40625l-1.15625 0l0 -1.25l1.15625 0l0 -1.671875l1.671875 -0.15625l0 1.828125l2.390625 0l0 1.25l-2.390625 0l0 5.09375q0 0.96875 0.359375 1.390625q0.375 0.40625 1.1875 0.40625q0.328125 0 0.8125 -0.109375l0 1.1562519zm7.870102 0l0 -9.187502l1.65625 0l0 1.71875q0.640625 -0.921875 1.484375 -1.421875q0.84375 -0.5 1.75 -0.5q1.15625 0 1.890625 0.75q0.734375 0.734375 0.734375 2.046875l0 6.593752l-1.671875 0l0 -6.062502q0 -0.953125 -0.171875 -1.25q-0.171875 -0.3125 -0.484375 -0.46875q-0.296875 -0.171875 -0.640625 -0.171875q-0.625 0 -1.34375 0.390625q-0.703125 0.375 -1.546875 1.609375l0 5.953127l-1.65625 0zm9.707062 -12.203127l0 -1.15625q1.375 0.9375 2.234375 2.25q0.859375 1.296875 1.296875 2.78125q0.4375 1.484375 0.4375 2.890625q0 1.421875 -0.4375 2.90625q-0.4375 1.484375 -1.296875 2.796877q-0.859375 1.3125 -2.234375 2.234375l0 -1.140625q0.953125 -1.046875 1.40625 -2.015627q0.46875 -0.984375 0.671875 -2.203125q0.21875 -1.234375 0.21875 -2.578125q0 -1.328125 -0.21875 -2.546875q-0.203125 -1.234375 -0.671875 -2.203125q-0.453125 -0.984375 -1.40625 -2.015625z" fill-rule="nonzero"/><path fill="#000000" d="m17.279118 47.041542l0.40625 0q1.296875 0 1.296875 -1.359375q0 -0.578125 -0.140625 -1.1875l-0.15625 -0.734375q-0.15625 -0.71875 -0.15625 -1.421875q0 -0.65625 0.359375 -1.25q0.359375 -0.59375 0.953125 -0.9375q0.609375 -0.34375 1.71875 -0.40625l0 1.25l-0.25 0q-0.4375 0 -0.890625 0.265625q-0.4375 0.265625 -0.4375 0.78125q0 0.203125 0.109375 0.8125l0.140625 0.859375q0.09375 0.546875 0.09375 1.328125q0 0.890625 -0.296875 1.5q-0.296875 0.59375 -0.953125 1.125q0.65625 0.5625 0.953125 1.15625q0.296875 0.59375 0.296875 1.5q0 0.765625 -0.09375 1.3125l-0.140625 0.875q-0.109375 0.609375 -0.109375 0.8125q0 0.5 0.4375 0.765625q0.4375 0.265625 0.890625 0.265625l0.25 0l0 1.25q-1.109375 -0.0625 -1.71875 -0.40625q-0.59375 -0.34375 -0.953125 -0.9375q-0.359375 -0.59375 -0.359375 -1.25q0 -0.703125 0.15625 -1.421875l0.15625 -0.734375q0.140625 -0.609375 0.140625 -1.203125q0 -1.359375 -1.296875 -1.359375l-0.40625 0l0 -1.25z" fill-rule="nonzero"/><path fill="#000000" d="m40.66315 73.90404l0 -9.1875l1.65625 0l0 1.71875q0.640625 -0.921875 1.484375 -1.421875q0.84375 -0.5 1.75 -0.5q1.15625 0 1.890625 0.75q0.734375 0.734375 0.734375 2.046875l0 6.59375l-1.671875 0l0 -6.0625q0 -0.953125 -0.171875 -1.25q-0.171875 -0.3125 -0.484375 -0.46875q-0.296875 -0.171875 -0.640625 -0.171875q-0.625 0 -1.34375 0.390625q-0.703125 0.375 -1.546875 1.609375l0 5.953125l-1.65625 0zm15.455414 -2.921875l0 -1.25l9.187496 0l0 1.25l-9.187496 0zm0 -2.921875l0 -1.25l9.187496 0l0 1.25l-9.187496 0zm16.986599 5.84375l0 -1.46875q0.734375 -1.703125 2.9375 -3.703125l0.96875 -0.859375q1.03125 -0.9375 1.4375 -1.703125q0.40625 -0.765625 0.40625 -1.59375q0 -1.0624962 -0.65625 -1.6562462q-0.640625 -0.59375 -1.71875 -0.59375q-0.46875 0 -0.890625 0.09375q-0.421875 0.078125 -0.921875 0.28125q-0.484375 0.1875 -1.25 0.625l0 -1.46875q1.671875 -0.78125 3.3125 -0.78125q1.8125 0 2.84375 0.984375q1.046875 0.984375 1.046875 2.4687462q0 0.96875 -0.4375 1.828125q-0.421875 0.84375 -2.109375 2.28125l-0.640625 0.546875q-0.703125 0.59375 -1.421875 1.453125q-0.703125 0.84375 -0.890625 1.796875l5.4375 0l0 1.46875l-7.453125 0zm22.049103 -10.906246l0.375 1.1874962l-2.5625 0.5625l0.015625 -0.125q0 -0.34375 -0.234375 -0.5625l2.40625 -1.0624962zm-0.46875 3.8124962l-1.015625 0.734375l-1.328125 -2.25q0.171875 -0.015625 0.34375 -0.140625q0.171875 -0.125 0.25 -0.296875l1.75 1.953125zm-3.78125 0.734375l-1.015625 -0.734375l1.75 -1.953125q0.078125 0.1875 0.25 0.3125q0.171875 0.109375 0.34375 0.125l-1.328125 2.25zm-1.859375 -3.359375l0.375 -1.1874962l2.40625 1.0624962q-0.234375 0.203125 -0.234375 0.5625l0.015625 0.125l-2.5625 -0.5625zm2.609375 -2.7968712l1.265625 0l-0.265625 2.59375q-0.15625 -0.09375 -0.359375 -0.09375q-0.21875 0 -0.375 0.09375l-0.265625 -2.59375zm11.95874 12.515621l0 -9.1875l1.65625 0l0 1.71875q0.640625 -0.921875 1.484375 -1.421875q0.84375 -0.5 1.75 -0.5q1.15625 0 1.890625 0.75q0.734375 0.734375 0.734375 2.046875l0 6.59375l-1.671875 0l0 -6.0625q0 -0.953125 -0.171875 -1.25q-0.171875 -0.3125 -0.484375 -0.46875q-0.296875 -0.171875 -0.640625 -0.171875q-0.625 0 -1.34375 0.390625q-0.703125 0.375 -1.546875 1.609375l0 5.953125l-1.65625 0zm10.988312 2.71875l0 -0.625q0.3125 -0.171875 0.453125 -0.546875q0.140625 -0.375 0.140625 -1.359375l0 -0.1875l-0.59375 0l0 -1.671875l1.671875 0l0 1.40625q0 1.09375 -0.1875 1.578125q-0.1875 0.5 -0.59375 0.890625q-0.40625 0.390625 -0.890625 0.515625zm0 -10.234375l0 -1.671875l1.671875 0l0 1.671875l-1.671875 0z" fill-rule="nonzero"/><path fill="#000000" d="m22.497868 89.89153l-0.421875 0q-1.296875 0 -1.296875 1.375q0 0.578125 0.140625 1.1875l0.15625 0.734375q0.171875 0.71875 0.171875 1.421875q0 0.65625 -0.375 1.25q-0.359375 0.59375 -0.953125 0.9375q-0.59375 0.34375 -1.703125 0.40625l0 -1.25l0.234375 0q0.46875 0 0.890625 -0.265625q0.4375 -0.265625 0.4375 -0.765625q0 -0.234375 -0.109375 -0.8125l-0.140625 -0.875q-0.09375 -0.53125 -0.09375 -1.328125q0 -0.875 0.28125 -1.46875q0.296875 -0.59375 0.953125 -1.171875q-0.640625 -0.546875 -0.9375 -1.140625q-0.296875 -0.59375 -0.296875 -1.5q0 -0.765625 0.09375 -1.3125l0.140625 -0.859375q0.109375 -0.59375 0.109375 -0.828125q0 -0.5 -0.4375 -0.765625q-0.4375 -0.265625 -0.890625 -0.265625l-0.234375 0l0 -1.25q1.109375 0.0625 1.703125 0.40625q0.59375 0.34375 0.953125 0.9375q0.375 0.59375 0.375 1.265625q0 0.6875 -0.171875 1.40625l-0.15625 0.734375q-0.140625 0.609375 -0.140625 1.203125q0 1.34375 1.296875 1.34375l0.421875 0l0 1.25z" fill-rule="nonzero"/><path fill="#000000" d="m20.638493 136.30405l-3.421875 -9.187508l1.65625 0l2.6875 7.1406326l2.8125 -7.1406326l1.546875 0l-3.625 9.187508l-1.65625 0zm10.718658 0.21875q-1.3125 0 -2.28125 -0.53125q-0.96875 -0.546875 -1.546875 -1.703125q-0.5625 -1.15625 -0.5625 -2.578125q0 -1.34375 0.515625 -2.484375q0.515625 -1.140625 1.5 -1.7187576q0.984375 -0.59375 2.375 -0.59375q1.3125 0 2.28125 0.53125q0.96875 0.53125 1.53125 1.7031326q0.5625 1.15625 0.5625 2.5625q0 1.359375 -0.53125 2.5q-0.515625 1.140625 -1.5 1.734375q-0.96875 0.578125 -2.34375 0.578125zm0 -1.265625q1.234375 0 1.921875 -0.921875q0.6875 -0.921875 0.6875 -2.625q0 -1.703125 -0.6875 -2.625q-0.6875 -0.921875 -1.921875 -0.921875q-1.234375 0 -1.921875 0.921875q-0.6875 0.921875 -0.6875 2.625q0 1.703125 0.6875 2.625q0.6875 0.921875 1.921875 0.921875zm6.987686 1.046875l0 -9.187508l1.65625 0l0 9.187508l-1.65625 0zm0 -10.859383l0 -1.65625l1.65625 0l0 1.65625l-1.65625 0zm10.899536 10.859383l0 -1.71875q-0.5 0.953125 -1.265625 1.453125q-0.765625 0.484375 -1.796875 0.484375q-1.6875 0 -2.625 -1.25q-0.9375 -1.25 -0.9375 -3.28125q0 -2.171875 1.046875 -3.625q1.046875 -1.4531326 2.875 -1.4531326q0.53125 0 1.015625 0.125q0.484375 0.125 0.859375 0.359375q0.375 0.234375 0.828125 0.7656326l0 -5.2187576l1.671875 0l0 13.359383l-1.671875 0zm0 -7.0q-0.859375 -0.765625 -1.375 -0.953125q-0.5 -0.1875 -1.078125 -0.1875q-1.21875 0 -1.8125 1.03125q-0.578125 1.015625 -0.578125 2.640625q0 1.484375 0.515625 2.359375q0.515625 0.859375 1.609375 0.859375q0.703125 0 1.375 -0.375q0.6875 -0.390625 1.34375 -1.140625l0 -4.234375zm10.498337 7.0l0 -9.187508l1.65625 0l0 1.7187576q0.515625 -0.796875 1.296875 -1.3593826q0.796875 -0.5625 1.8437462 -0.5625q0.59375 0 1.046875 0.203125q0.453125 0.1875 0.8125 0.546875q0.359375 0.34375763 0.65625 1.1718826q0.5 -0.828125 1.28125 -1.3750076q0.78125 -0.5625 1.796875 -0.5625q0.96875 0 1.75 0.609375q0.796875 0.6093826 0.796875 2.1093826l0 6.6875l-1.671875 0l0 -6.421875q0 -0.90625 -0.390625 -1.234375q-0.375 -0.34375 -0.859375 -0.34375q-0.59375 0 -1.234375 0.375q-0.625 0.359375 -1.46875 1.46875l0 6.15625l-1.6875 0l0 -6.421875q0 -0.921875 -0.390625 -1.25q-0.390625 -0.328125 -0.875 -0.328125q-0.5937462 0 -1.2187462 0.359375q-0.609375 0.359375 -1.484375 1.484375l0 6.15625l-1.65625 0zm20.9118 -1.171875q-0.75 0.6875 -1.46875 1.046875q-0.71875 0.34375 -1.421875 0.34375q-0.96875 0 -1.8125 -0.640625q-0.828125 -0.65625 -0.828125 -1.890625q0 -1.34375 1.15625 -2.234375q1.171875 -0.890625 3.734375 -0.890625l0.390625 0l0 -1.109375q0 -0.65625 -0.1875 -0.953125q-0.171875 -0.296875 -0.546875 -0.46875q-0.375 -0.171875 -0.921875 -0.171875q-1.296875 0 -2.828125 0.8125l0 -1.3750076q1.671875 -0.6875 3.171875 -0.6875q0.8125 0 1.484375 0.265625q0.6875 0.25 1.09375 0.8125q0.40625 0.5468826 0.40625 1.7656326l0 4.171875q0 0.6875 0.109375 0.9375q0.109375 0.234375 0.296875 0.359375q0.203125 0.125 0.46875 0.125q0.109375 0 0.328125 -0.03125l0.109375 0.921875q-0.5625 0.28125 -1.25 0.28125q-0.453125 0 -0.875 -0.296875q-0.421875 -0.296875 -0.609375 -1.09375zm-0.25 -0.90625l0 -2.375l-0.53125 -0.015625q-1.3125 0 -2.203125 0.515625q-0.890625 0.5 -0.890625 1.375q0 0.59375 0.4375 1.015625q0.4375 0.40625 1.03125 0.40625q0.515625 0 1.046875 -0.21875q0.546875 -0.234375 1.109375 -0.703125zm5.085022 2.078125l0 -9.187508l1.65625 0l0 9.187508l-1.65625 0zm0 -10.859383l0 -1.65625l1.65625 0l0 1.65625l-1.65625 0zm5.008911 10.859383l0 -9.187508l1.65625 0l0 1.7187576q0.640625 -0.9218826 1.484375 -1.4218826q0.84375 -0.5 1.75 -0.5q1.15625 0 1.890625 0.75q0.734375 0.7343826 0.734375 2.0468826l0 6.59375l-1.671875 0l0 -6.0625q0 -0.953125 -0.171875 -1.25q-0.171875 -0.3125 -0.484375 -0.46875q-0.296875 -0.171875 -0.640625 -0.171875q-0.625 0 -1.34375 0.390625q-0.703125 0.375 -1.546875 1.609375l0 5.953125l-1.65625 0zm14.097687 1.359375l0 1.140625q-1.390625 -0.9375 -2.25 -2.25q-0.84375 -1.296875 -1.28125 -2.765625q-0.4375 -1.484375 -0.4375 -2.921875q0 -1.421875 0.4375 -2.8906326q0.4375 -1.484375 1.28125 -2.78125q0.859375 -1.3125 2.25 -2.25l0 1.15625q-0.96875 1.03125 -1.421875 2.015625q-0.453125 0.96875 -0.671875 2.1875076q-0.21875 1.21875 -0.21875 2.5625q0 1.359375 0.21875 2.578125q0.21875 1.21875 0.671875 2.203125q0.453125 0.96875 1.421875 2.015625zm1.2444 -13.562508l0 -1.15625q1.375 0.9375 2.234375 2.25q0.859375 1.296875 1.296875 2.78125q0.4375 1.4843826 0.4375 2.8906326q0 1.421875 -0.4375 2.90625q-0.4375 1.484375 -1.296875 2.796875q-0.859375 1.3125 -2.234375 2.234375l0 -1.140625q0.953125 -1.046875 1.40625 -2.015625q0.46875 -0.984375 0.671875 -2.203125q0.21875 -1.234375 0.21875 -2.578125q0 -1.328125 -0.21875 -2.546875q-0.203125 -1.2343826 -0.671875 -2.2031326q-0.453125 -0.984375 -1.40625 -2.015625z" fill-rule="nonzero"/><path fill="#000000" d="m17.279118 151.04155l0.40625 0q1.296875 0 1.296875 -1.359375q0 -0.578125 -0.140625 -1.1875l-0.15625 -0.734375q-0.15625 -0.71875 -0.15625 -1.421875q0 -0.65625 0.359375 -1.25q0.359375 -0.59375 0.953125 -0.9375q0.609375 -0.34375 1.71875 -0.40625l0 1.25l-0.25 0q-0.4375 0 -0.890625 0.265625q-0.4375 0.265625 -0.4375 0.78125q0 0.203125 0.109375 0.8125l0.140625 0.859375q0.09375 0.546875 0.09375 1.328125q0 0.890625 -0.296875 1.5q-0.296875 0.59375 -0.953125 1.125q0.65625 0.5625 0.953125 1.15625q0.296875 0.59375 0.296875 1.5q0 0.765625 -0.09375 1.3125l-0.140625 0.875q-0.109375 0.609375 -0.109375 0.8125q0 0.5 0.4375 0.765625q0.4375 0.265625 0.890625 0.265625l0.25 0l0 1.25q-1.109375 -0.0625 -1.71875 -0.40625q-0.59375 -0.34375 -0.953125 -0.9375q-0.359375 -0.59375 -0.359375 -1.25q0 -0.703125 0.15625 -1.421875l0.15625 -0.734375q0.140625 -0.609375 0.140625 -1.203125q0 -1.359375 -1.296875 -1.359375l-0.40625 0l0 -1.25z" fill-rule="nonzero"/><path fill="#000000" d="m40.66315 177.90405l0 -9.1875l1.65625 0l0 9.1875l-1.65625 0zm0 -10.859375l0 -1.65625l1.65625 0l0 1.65625l-1.65625 0zm5.008911 10.859375l0 -9.1875l1.65625 0l0 1.71875q0.640625 -0.921875 1.484375 -1.421875q0.84375 -0.5 1.75 -0.5q1.15625 0 1.890625 0.75q0.734375 0.734375 0.734375 2.046875l0 6.59375l-1.671875 0l0 -6.0625q0 -0.953125 -0.171875 -1.25q-0.171875 -0.3125 -0.484375 -0.46875q-0.296875 -0.171875 -0.640625 -0.171875q-0.625 0 -1.34375 0.390625q-0.703125 0.375 -1.546875 1.609375l0 5.953125l-1.65625 0zm14.847687 0q-0.78125 0.21875 -1.34375 0.21875q-1.234375 0 -1.96875 -0.71875q-0.71875 -0.71875 -0.71875 -2.03125l0 -5.40625l-1.15625 0l0 -1.25l1.15625 0l0 -1.671875l1.671875 -0.15625l0 1.828125l2.390625 0l0 1.25l-2.390625 0l0 5.09375q0 0.96875 0.359375 1.390625q0.375 0.40625 1.1875 0.40625q0.328125 0 0.8125 -0.109375l0 1.15625zm12.604473 -1.171875q-0.75 0.6875 -1.46875 1.046875q-0.71875 0.34375 -1.421875 0.34375q-0.96875 0 -1.8125 -0.640625q-0.828125 -0.65625 -0.828125 -1.890625q0 -1.34375 1.15625 -2.234375q1.171875 -0.890625 3.734375 -0.890625l0.390625 0l0 -1.109375q0 -0.65625 -0.1875 -0.953125q-0.171875 -0.296875 -0.546875 -0.46875q-0.375 -0.171875 -0.921875 -0.171875q-1.296875 0 -2.828125 0.8125l0 -1.375q1.671875 -0.6875 3.171875 -0.6875q0.8125 0 1.484375 0.265625q0.6875 0.25 1.09375 0.8125q0.40625 0.546875 0.40625 1.765625l0 4.171875q0 0.6875 0.109375 0.9375q0.109375 0.234375 0.296875 0.359375q0.203125 0.125 0.46875 0.125q0.109375 0 0.328125 -0.03125l0.109375 0.921875q-0.5625 0.28125 -1.25 0.28125q-0.453125 0 -0.875 -0.296875q-0.421875 -0.296875 -0.609375 -1.09375zm-0.25 -0.90625l0 -2.375l-0.53125 -0.015625q-1.3125 0 -2.203125 0.515625q-0.890625 0.5 -0.890625 1.375q0 0.59375 0.4375 1.015625q0.4375 0.40625 1.03125 0.40625q0.515625 0 1.046875 -0.21875q0.546875 -0.234375 1.109375 -0.703125zm9.786499 -0.84375l0 -1.25l9.1875 0l0 1.25l-9.1875 0zm0 -2.921875l0 -1.25l9.1875 0l0 1.25l-9.1875 0zm20.080353 5.84375l0 -11.265625l-1.96875 0l0 -1.046875l3.640625 -0.3125l0 12.625l-1.671875 0zm7.8632507 0l0 -1.46875q0.734375 -1.703125 2.9375 -3.703125l0.96875 -0.859375q1.03125 -0.9375 1.4375 -1.703125q0.40625 -0.765625 0.40625 -1.59375q0 -1.0625 -0.65625 -1.65625q-0.640625 -0.59375 -1.71875 -0.59375q-0.46875 0 -0.890625 0.09375q-0.421875 0.078125 -0.921875 0.28125q-0.484375 0.1875 -1.25 0.625l0 -1.46875q1.671875 -0.78125 3.3125 -0.78125q1.8125 0 2.84375 0.984375q1.046875 0.984375 1.046875 2.46875q0 0.96875 -0.4375 1.828125q-0.421875 0.84375 -2.109375 2.28125l-0.640625 0.546875q-0.703125 0.59375 -1.421875 1.453125q-0.703125 0.84375 -0.890625 1.796875l5.4375 0l0 1.46875l-7.453125 0zm11.285126 -0.09375l0 -1.5625q1.78125 0.71875 2.796875 0.71875q1.203125 0 1.953125 -0.6875q0.765625 -0.703125 0.765625 -1.8125q0 -1.09375 -0.78125 -1.859375q-0.765625 -0.78125 -2.921875 -0.78125l-0.65625 0l0 -1.125l0.578125 -0.015625q2.015625 0 2.734375 -0.734375q0.734375 -0.734375 0.734375 -1.703125q0 -0.875 -0.578125 -1.390625q-0.578125 -0.53125 -1.71875 -0.53125q-1.234375 0 -2.75 0.703125l0 -1.46875q1.078125 -0.359375 1.671875 -0.421875q0.609375 -0.0625 1.1875 -0.0625q1.984375 0 2.921875 0.796875q0.9375 0.78125 0.9375 2.09375q0 0.734375 -0.265625 1.296875q-0.265625 0.546875 -0.828125 1.03125q-0.546875 0.484375 -1.515625 0.828125q1.234375 0.28125 1.828125 0.734375q0.59375 0.453125 0.890625 1.125q0.3125 0.671875 0.3125 1.453125q0 1.46875 -1.015625 2.625q-1.0 1.15625 -3.359375 1.15625q-1.171875 0 -2.921875 -0.40625zm11.097626 2.8125l0 -0.625q0.3125 -0.171875 0.453125 -0.546875q0.140625 -0.375 0.140625 -1.359375l0 -0.1875l-0.59375 0l0 -1.671875l1.671875 0l0 1.40625q0 1.09375 -0.1875 1.578125q-0.1875 0.5 -0.59375 0.890625q-0.40625 0.390625 -0.890625 0.515625zm0 -10.234375l0 -1.671875l1.671875 0l0 1.671875l-1.671875 0z" fill-rule="nonzero"/><path fill="#000000" d="m40.3194 198.37593l0 -1.53125q1.640625 0.8125 2.84375 0.8125q0.703125 0 1.1875 -0.375q0.484375 -0.390625 0.484375 -0.984375q0 -0.359375 -0.25 -0.703125q-0.234375 -0.34375 -1.078125 -0.703125l-0.984375 -0.421875q-1.125 -0.46875 -1.640625 -1.078125q-0.515625 -0.609375 -0.515625 -1.5q0 -1.109375 0.796875 -1.84375q0.8125 -0.734375 2.390625 -0.734375q0.765625 0 1.90625 0.203125l0.34375 0.078125l0 1.390625q-1.390625 -0.421875 -2.234375 -0.421875q-0.796875 0 -1.203125 0.34375q-0.390625 0.34375 -0.390625 0.828125q0 0.375 0.265625 0.671875q0.265625 0.296875 0.953125 0.59375l0.8125 0.34375q1.609375 0.6875 2.046875 1.34375q0.4375 0.671875 0.4375 1.453125q0 0.765625 -0.40625 1.40625q-0.40625 0.640625 -1.21875 1.015625q-0.796875 0.359375 -1.765625 0.359375q-1.140625 0 -2.78125 -0.546875zm13.270782 0.328125q-0.78125 0.21875 -1.34375 0.21875q-1.234375 0 -1.96875 -0.71875q-0.71875 -0.71875 -0.71875 -2.03125l0 -5.40625l-1.15625 0l0 -1.25l1.15625 0l0 -1.671875l1.671875 -0.15625l0 1.828125l2.390625 0l0 1.25l-2.390625 0l0 5.09375q0 0.96875 0.359375 1.390625q0.375 0.40625 1.1875 0.40625q0.328125 0 0.8125 -0.109375l0 1.15625zm8.278 0l0 -1.71875q-0.5 0.953125 -1.265625 1.453125q-0.765625 0.484375 -1.796875 0.484375q-1.6875 0 -2.625 -1.25q-0.9375 -1.25 -0.9375 -3.28125q0 -2.171875 1.046875 -3.625q1.046875 -1.453125 2.875 -1.453125q0.53125 0 1.015625 0.125q0.484375 0.125 0.859375 0.359375q0.375 0.234375 0.828125 0.765625l0 -5.21875l1.671875 0l0 13.359375l-1.671875 0zm0 -7.0q-0.859375 -0.765625 -1.375 -0.953125q-0.5 -0.1875 -1.078125 -0.1875q-1.21875 0 -1.8125 1.03125q-0.578125 1.015625 -0.578125 2.640625q0 1.484375 0.515625 2.359375q0.515625 0.859375 1.609375 0.859375q0.703125 0 1.375 -0.375q0.6875 -0.390625 1.34375 -1.140625l0 -4.234375zm5.249981 7.0l0 -1.671875l1.671875 0l0 1.671875l-1.671875 0zm0 -7.515625l0 -1.671875l1.671875 0l0 1.671875l-1.671875 0zm5.482727 7.515625l0 -1.671875l1.671875 0l0 1.671875l-1.671875 0zm0 -7.515625l0 -1.671875l1.671875 0l0 1.671875l-1.671875 0zm11.623352 7.234375q-1.609375 0.5 -2.796875 0.5q-1.21875 0 -2.25 -0.65625q-1.015625 -0.671875 -1.546875 -1.75q-0.515625 -1.09375 -0.515625 -2.453125q0 -2.03125 1.125 -3.390625q1.125 -1.359375 3.484375 -1.359375q1.078125 0 2.390625 0.296875l0 1.390625q-1.40625 -0.40625 -2.296875 -0.40625q-1.40625 0 -2.125 1.046875q-0.703125 1.03125 -0.703125 2.46875q0 1.546875 0.796875 2.5q0.8125 0.953125 2.078125 0.953125q1.15625 0 2.359375 -0.578125l0 1.4375zm6.156845 0.5q-1.3125 0 -2.28125 -0.53125q-0.96875 -0.546875 -1.546875 -1.703125q-0.5625 -1.15625 -0.5625 -2.578125q0 -1.34375 0.515625 -2.484375q0.515625 -1.140625 1.5 -1.71875q0.984375 -0.59375 2.375 -0.59375q1.3125 0 2.28125 0.53125q0.96875 0.53125 1.53125 1.703125q0.5625 1.15625 0.5625 2.5625q0 1.359375 -0.53125 2.5q-0.515625 1.140625 -1.5 1.734375q-0.96875 0.578125 -2.34375 0.578125zm0 -1.265625q1.234375 0 1.921875 -0.921875q0.6875 -0.921875 0.6875 -2.625q0 -1.703125 -0.6875 -2.625q-0.6875 -0.921875 -1.921875 -0.921875q-1.234375 0 -1.921875 0.921875q-0.6875 0.921875 -0.6875 2.625q0 1.703125 0.6875 2.625q0.6875 0.921875 1.921875 0.921875zm12.722061 1.046875l0 -1.71875q-0.640625 0.921875 -1.484375 1.4375q-0.828125 0.5 -1.734375 0.5q-1.15625 0 -1.890625 -0.734375q-0.734375 -0.75 -0.734375 -2.078125l0 -6.59375l1.671875 0l0 6.0625q0 0.953125 0.171875 1.265625q0.171875 0.296875 0.46875 0.46875q0.3125 0.15625 0.65625 0.15625q0.609375 0 1.328125 -0.375q0.71875 -0.375 1.546875 -1.625l0 -5.953125l1.671875 0l0 9.1875l-1.671875 0zm9.113312 0q-0.78125 0.21875 -1.34375 0.21875q-1.234375 0 -1.96875 -0.71875q-0.71875 -0.71875 -0.71875 -2.03125l0 -5.40625l-1.15625 0l0 -1.25l1.15625 0l0 -1.671875l1.671875 -0.15625l0 1.828125l2.390625 0l0 1.25l-2.390625 0l0 5.09375q0 0.96875 0.359375 1.390625q0.375 0.40625 1.1875 0.40625q0.328125 0 0.8125 -0.109375l0 1.15625zm16.276352 -0.421875l-9.1875 -4.59375l9.1875 -4.59375l0 1.46875l-6.390625 3.125l6.390625 3.140625l0 1.453125zm10.957001 0l-9.1875 -4.59375l9.1875 -4.59375l0 1.46875l-6.390625 3.125l6.390625 3.140625l0 1.453125zm12.767853 -0.75q-0.75 0.6875 -1.46875 1.046875q-0.71875 0.34375 -1.421875 0.34375q-0.96875 0 -1.8125 -0.640625q-0.828125 -0.65625 -0.828125 -1.890625q0 -1.34375 1.15625 -2.234375q1.171875 -0.890625 3.734375 -0.890625l0.390625 0l0 -1.109375q0 -0.65625 -0.1875 -0.953125q-0.171875 -0.296875 -0.546875 -0.46875q-0.375 -0.171875 -0.921875 -0.171875q-1.296875 0 -2.828125 0.8125l0 -1.375q1.671875 -0.6875 3.171875 -0.6875q0.8125 0 1.484375 0.265625q0.6875 0.25 1.09375 0.8125q0.40625 0.546875 0.40625 1.765625l0 4.171875q0 0.6875 0.109375 0.9375q0.109375 0.234375 0.296875 0.359375q0.203125 0.125 0.46875 0.125q0.109375 0 0.328125 -0.03125l0.109375 0.921875q-0.5625 0.28125 -1.25 0.28125q-0.453125 0 -0.875 -0.296875q-0.421875 -0.296875 -0.609375 -1.09375zm-0.25 -0.90625l0 -2.375l-0.53125 -0.015625q-1.3125 0 -2.203125 0.515625q-0.890625 0.5 -0.890625 1.375q0 0.59375 0.4375 1.015625q0.4375 0.40625 1.03125 0.40625q0.515625 0 1.046875 -0.21875q0.546875 -0.234375 1.109375 -0.703125zm5.319397 4.796875l0 -0.625q0.3125 -0.171875 0.453125 -0.546875q0.140625 -0.375 0.140625 -1.359375l0 -0.1875l-0.59375 0l0 -1.671875l1.671875 0l0 1.40625q0 1.09375 -0.1875 1.578125q-0.1875 0.5 -0.59375 0.890625q-0.40625 0.390625 -0.890625 0.515625zm0 -10.234375l0 -1.671875l1.671875 0l0 1.671875l-1.671875 0z" fill-rule="nonzero"/><path fill="#000000" d="m40.66315 219.50406l0 -9.1875l1.65625 0l0 1.71875q0.515625 -0.796875 1.296875 -1.359375q0.796875 -0.5625 1.84375 -0.5625q0.59375 0 1.046875 0.203125q0.453125 0.1875 0.8125 0.546875q0.359375 0.34375 0.65625 1.171875q0.5 -0.828125 1.28125 -1.375q0.78125 -0.5625 1.796875 -0.5625q0.96875 0 1.75 0.609375q0.796875 0.609375 0.796875 2.109375l0 6.6875l-1.671875 0l0 -6.421875q0 -0.90625 -0.390625 -1.234375q-0.375 -0.34375 -0.859375 -0.34375q-0.59375 0 -1.234375 0.375q-0.625 0.359375 -1.46875 1.46875l0 6.15625l-1.6875 0l0 -6.421875q0 -0.921875 -0.390625 -1.25q-0.390625 -0.328125 -0.875 -0.328125q-0.59375 0 -1.21875 0.359375q-0.609375 0.359375 -1.484375 1.484375l0 6.15625l-1.65625 0zm20.911804 -1.171875q-0.75 0.6875 -1.46875 1.046875q-0.71875 0.34375 -1.421875 0.34375q-0.96875 0 -1.8125 -0.640625q-0.828125 -0.65625 -0.828125 -1.890625q0 -1.34375 1.15625 -2.234375q1.171875 -0.890625 3.734375 -0.890625l0.390625 0l0 -1.109375q0 -0.65625 -0.1875 -0.953125q-0.171875 -0.296875 -0.546875 -0.46875q-0.375 -0.171875 -0.921875 -0.171875q-1.296875 0 -2.828125 0.8125l0 -1.375q1.671875 -0.6875 3.171875 -0.6875q0.8125 0 1.484375 0.265625q0.6875 0.25 1.09375 0.8125q0.40625 0.546875 0.40625 1.765625l0 4.171875q0 0.6875 0.109375 0.9375q0.109375 0.234375 0.296875 0.359375q0.203125 0.125 0.46875 0.125q0.109375 0 0.3281212 -0.03125l0.109375 0.921875q-0.5624962 0.28125 -1.2499962 0.28125q-0.453125 0 -0.875 -0.296875q-0.421875 -0.296875 -0.609375 -1.09375zm-0.25 -0.90625l0 -2.375l-0.53125 -0.015625q-1.3125 0 -2.203125 0.515625q-0.890625 0.5 -0.890625 1.375q0 0.59375 0.4375 1.015625q0.4375 0.40625 1.03125 0.40625q0.515625 0 1.046875 -0.21875q0.546875 -0.234375 1.109375 -0.703125zm5.085018 2.078125l0 -13.359375l1.65625 0l0 13.359375l-1.65625 0zm4.133911 0l0 -1.421875l6.734375 -9.765625l-6.3125 0l0 -1.328125l8.4375 0l0 1.328125l-6.71875 9.765625l6.71875 0l0 1.421875l-8.859375 0zm12.412216 0l-2.640625 -9.1875l1.640625 0l2.015625 7.109375l2.171875 -7.109375l1.671875 0l1.90625 7.109375l2.296875 -7.109375l1.4375 0l-3.0 9.1875l-1.671875 0l-1.953125 -7.109375l-2.1875 7.109375l-1.6875 0zm19.02333 -0.296875q-1.6875 0.515625 -2.875 0.515625q-2.140625 0 -3.375 -1.4375q-1.21875 -1.453125 -1.21875 -3.421875q0 -1.296875 0.53125 -2.453125q0.546875 -1.171875 1.421875 -1.734375q0.890625 -0.578125 2.0625 -0.578125q1.59375 0 2.53125 1.15625q0.953125 1.140625 0.953125 3.40625l0 0.515625l-5.796875 0q0.140625 1.21875 0.515625 1.875q0.390625 0.65625 1.03125 1.03125q0.65625 0.359375 1.65625 0.359375q0.515625 0 1.015625 -0.078125q0.5 -0.09375 1.546875 -0.46875l0 1.3125zm-5.6875 -5.28125l4.046875 0q0 -1.390625 -0.546875 -1.96875q-0.53125 -0.59375 -1.359375 -0.59375q-0.953125 0 -1.5 0.640625q-0.53125 0.625 -0.640625 1.921875zm8.607132 5.578125l0 -9.1875l1.65625 0l0 9.1875l-1.65625 0zm0 -10.859375l0 -1.65625l1.65625 0l0 1.65625l-1.65625 0zm13.835388 12.21875l0 1.140625q-1.390625 -0.9375 -2.25 -2.25q-0.84375 -1.296875 -1.28125 -2.765625q-0.4375 -1.484375 -0.4375 -2.921875q0 -1.421875 0.4375 -2.890625q0.4375 -1.484375 1.28125 -2.78125q0.859375 -1.3125 2.25 -2.25l0 1.15625q-0.96875 1.03125 -1.421875 2.015625q-0.453125 0.96875 -0.671875 2.1875q-0.21875 1.21875 -0.21875 2.5625q0 1.359375 0.21875 2.578125q0.21875 1.21875 0.671875 2.203125q0.453125 0.96875 1.421875 2.015625zm7.02565 -2.53125q-0.75 0.6875 -1.46875 1.046875q-0.71875 0.34375 -1.421875 0.34375q-0.96875 0 -1.8125 -0.640625q-0.828125 -0.65625 -0.828125 -1.890625q0 -1.34375 1.15625 -2.234375q1.171875 -0.890625 3.734375 -0.890625l0.390625 0l0 -1.109375q0 -0.65625 -0.1875 -0.953125q-0.171875 -0.296875 -0.546875 -0.46875q-0.375 -0.171875 -0.921875 -0.171875q-1.296875 0 -2.828125 0.8125l0 -1.375q1.671875 -0.6875 3.171875 -0.6875q0.8125 0 1.484375 0.265625q0.6875 0.25 1.09375 0.8125q0.40625 0.546875 0.40625 1.765625l0 4.171875q0 0.6875 0.109375 0.9375q0.109375 0.234375 0.296875 0.359375q0.203125 0.125 0.46875 0.125q0.109375 0 0.328125 -0.03125l0.109375 0.921875q-0.5625 0.28125 -1.25 0.28125q-0.453125 0 -0.875 -0.296875q-0.421875 -0.296875 -0.609375 -1.09375zm-0.25 -0.90625l0 -2.375l-0.53125 -0.015625q-1.3125 0 -2.203125 0.515625q-0.890625 0.5 -0.890625 1.375q0 0.59375 0.4375 1.015625q0.4375 0.40625 1.03125 0.40625q0.515625 0 1.046875 -0.21875q0.546875 -0.234375 1.109375 -0.703125zm4.038147 -10.125l0 -1.15625q1.375 0.9375 2.234375 2.25q0.859375 1.296875 1.296875 2.78125q0.4375 1.484375 0.4375 2.890625q0 1.421875 -0.4375 2.90625q-0.4375 1.484375 -1.296875 2.796875q-0.859375 1.3125 -2.234375 2.234375l0 -1.140625q0.953125 -1.046875 1.40625 -2.015625q0.46875 -0.984375 0.671875 -2.203125q0.21875 -1.234375 0.21875 -2.578125q0 -1.328125 -0.21875 -2.546875q-0.203125 -1.234375 -0.671875 -2.203125q-0.453125 -0.984375 -1.40625 -2.015625zm6.916275 14.921875l0 -0.625q0.3125 -0.171875 0.453125 -0.546875q0.140625 -0.375 0.140625 -1.359375l0 -0.1875l-0.59375 0l0 -1.671875l1.671875 0l0 1.40625q0 1.09375 -0.1875 1.578125q-0.1875 0.5 -0.59375 0.890625q-0.40625 0.390625 -0.890625 0.515625zm0 -10.234375l0 -1.671875l1.671875 0l0 1.671875l-1.671875 0z" fill-rule="nonzero"/><path fill="#000000" d="m40.3194 239.97594l0 -1.53125q1.640625 0.8125 2.84375 0.8125q0.703125 0 1.1875 -0.375q0.484375 -0.390625 0.484375 -0.984375q0 -0.359375 -0.25 -0.703125q-0.234375 -0.34375 -1.078125 -0.703125l-0.984375 -0.421875q-1.125 -0.46875 -1.640625 -1.078125q-0.515625 -0.609375 -0.515625 -1.5q0 -1.109375 0.796875 -1.84375q0.8125 -0.734375 2.390625 -0.734375q0.765625 0 1.90625 0.203125l0.34375 0.078125l0 1.390625q-1.390625 -0.421875 -2.234375 -0.421875q-0.796875 0 -1.203125 0.34375q-0.390625 0.34375 -0.390625 0.828125q0 0.375 0.265625 0.671875q0.265625 0.296875 0.953125 0.59375l0.8125 0.34375q1.609375 0.6875 2.046875 1.34375q0.4375 0.671875 0.4375 1.453125q0 0.765625 -0.40625 1.40625q-0.40625 0.640625 -1.21875 1.015625q-0.796875 0.359375 -1.765625 0.359375q-1.140625 0 -2.78125 -0.546875zm13.270782 0.328125q-0.78125 0.21875 -1.34375 0.21875q-1.234375 0 -1.96875 -0.71875q-0.71875 -0.71875 -0.71875 -2.03125l0 -5.40625l-1.15625 0l0 -1.25l1.15625 0l0 -1.671875l1.671875 -0.15625l0 1.828125l2.390625 0l0 1.25l-2.390625 0l0 5.09375q0 0.96875 0.359375 1.390625q0.375 0.40625 1.1875 0.40625q0.328125 0 0.8125 -0.109375l0 1.15625zm8.278 0l0 -1.71875q-0.5 0.953125 -1.265625 1.453125q-0.765625 0.484375 -1.796875 0.484375q-1.6875 0 -2.625 -1.25q-0.9375 -1.25 -0.9375 -3.28125q0 -2.171875 1.046875 -3.625q1.046875 -1.453125 2.875 -1.453125q0.53125 0 1.015625 0.125q0.484375 0.125 0.859375 0.359375q0.375 0.234375 0.828125 0.765625l0 -5.21875l1.671875 0l0 13.359375l-1.671875 0zm0 -7.0q-0.859375 -0.765625 -1.375 -0.953125q-0.5 -0.1875 -1.078125 -0.1875q-1.21875 0 -1.8125 1.03125q-0.578125 1.015625 -0.578125 2.640625q0 1.484375 0.515625 2.359375q0.515625 0.859375 1.609375 0.859375q0.703125 0 1.375 -0.375q0.6875 -0.390625 1.34375 -1.140625l0 -4.234375zm5.249981 7.0l0 -1.671875l1.671875 0l0 1.671875l-1.671875 0zm0 -7.515625l0 -1.671875l1.671875 0l0 1.671875l-1.671875 0zm5.482727 7.515625l0 -1.671875l1.671875 0l0 1.671875l-1.671875 0zm0 -7.515625l0 -1.671875l1.671875 0l0 1.671875l-1.671875 0zm11.623352 7.234375q-1.609375 0.5 -2.796875 0.5q-1.21875 0 -2.25 -0.65625q-1.015625 -0.671875 -1.546875 -1.75q-0.515625 -1.09375 -0.515625 -2.453125q0 -2.03125 1.125 -3.390625q1.125 -1.359375 3.484375 -1.359375q1.078125 0 2.390625 0.296875l0 1.390625q-1.40625 -0.40625 -2.296875 -0.40625q-1.40625 0 -2.125 1.046875q-0.703125 1.03125 -0.703125 2.46875q0 1.546875 0.796875 2.5q0.8125 0.953125 2.078125 0.953125q1.15625 0 2.359375 -0.578125l0 1.4375zm6.156845 0.5q-1.3125 0 -2.28125 -0.53125q-0.96875 -0.546875 -1.546875 -1.703125q-0.5625 -1.15625 -0.5625 -2.578125q0 -1.34375 0.515625 -2.484375q0.515625 -1.140625 1.5 -1.71875q0.984375 -0.59375 2.375 -0.59375q1.3125 0 2.28125 0.53125q0.96875 0.53125 1.53125 1.703125q0.5625 1.15625 0.5625 2.5625q0 1.359375 -0.53125 2.5q-0.515625 1.140625 -1.5 1.734375q-0.96875 0.578125 -2.34375 0.578125zm0 -1.265625q1.234375 0 1.921875 -0.921875q0.6875 -0.921875 0.6875 -2.625q0 -1.703125 -0.6875 -2.625q-0.6875 -0.921875 -1.921875 -0.921875q-1.234375 0 -1.921875 0.921875q-0.6875 0.921875 -0.6875 2.625q0 1.703125 0.6875 2.625q0.6875 0.921875 1.921875 0.921875zm12.722061 1.046875l0 -1.71875q-0.640625 0.921875 -1.484375 1.4375q-0.828125 0.5 -1.734375 0.5q-1.15625 0 -1.890625 -0.734375q-0.734375 -0.75 -0.734375 -2.078125l0 -6.59375l1.671875 0l0 6.0625q0 0.953125 0.171875 1.265625q0.171875 0.296875 0.46875 0.46875q0.3125 0.15625 0.65625 0.15625q0.609375 0 1.328125 -0.375q0.71875 -0.375 1.546875 -1.625l0 -5.953125l1.671875 0l0 9.1875l-1.671875 0zm9.113312 0q-0.78125 0.21875 -1.34375 0.21875q-1.234375 0 -1.96875 -0.71875q-0.71875 -0.71875 -0.71875 -2.03125l0 -5.40625l-1.15625 0l0 -1.25l1.15625 0l0 -1.671875l1.671875 -0.15625l0 1.828125l2.390625 0l0 1.25l-2.390625 0l0 5.09375q0 0.96875 0.359375 1.390625q0.375 0.40625 1.1875 0.40625q0.328125 0 0.8125 -0.109375l0 1.15625zm16.276352 -0.421875l-9.1875 -4.59375l9.1875 -4.59375l0 1.46875l-6.390625 3.125l6.390625 3.140625l0 1.453125zm10.957001 0l-9.1875 -4.59375l9.1875 -4.59375l0 1.46875l-6.390625 3.125l6.390625 3.140625l0 1.453125zm12.767853 -0.75q-0.75 0.6875 -1.46875 1.046875q-0.71875 0.34375 -1.421875 0.34375q-0.96875 0 -1.8125 -0.640625q-0.828125 -0.65625 -0.828125 -1.890625q0 -1.34375 1.15625 -2.234375q1.171875 -0.890625 3.734375 -0.890625l0.390625 0l0 -1.109375q0 -0.65625 -0.1875 -0.953125q-0.171875 -0.296875 -0.546875 -0.46875q-0.375 -0.171875 -0.921875 -0.171875q-1.296875 0 -2.828125 0.8125l0 -1.375q1.671875 -0.6875 3.171875 -0.6875q0.8125 0 1.484375 0.265625q0.6875 0.25 1.09375 0.8125q0.40625 0.546875 0.40625 1.765625l0 4.171875q0 0.6875 0.109375 0.9375q0.109375 0.234375 0.296875 0.359375q0.203125 0.125 0.46875 0.125q0.109375 0 0.328125 -0.03125l0.109375 0.921875q-0.5625 0.28125 -1.25 0.28125q-0.453125 0 -0.875 -0.296875q-0.421875 -0.296875 -0.609375 -1.09375zm-0.25 -0.90625l0 -2.375l-0.53125 -0.015625q-1.3125 0 -2.203125 0.515625q-0.890625 0.5 -0.890625 1.375q0 0.59375 0.4375 1.015625q0.4375 0.40625 1.03125 0.40625q0.515625 0 1.046875 -0.21875q0.546875 -0.234375 1.109375 -0.703125zm5.319397 4.796875l0 -0.625q0.3125 -0.171875 0.453125 -0.546875q0.140625 -0.375 0.140625 -1.359375l0 -0.1875l-0.59375 0l0 -1.671875l1.671875 0l0 1.40625q0 1.09375 -0.1875 1.578125q-0.1875 0.5 -0.59375 0.890625q-0.40625 0.390625 -0.890625 0.515625zm0 -10.234375l0 -1.671875l1.671875 0l0 1.671875l-1.671875 0z" fill-rule="nonzero"/><path fill="#000000" d="m22.497868 256.29156l-0.421875 0q-1.296875 0 -1.296875 1.375q0 0.578125 0.140625 1.1875l0.15625 0.734375q0.171875 0.71875 0.171875 1.421875q0 0.65625 -0.375 1.25q-0.359375 0.5937195 -0.953125 0.9374695q-0.59375 0.34375 -1.703125 0.40625l0 -1.2499695l0.234375 0q0.46875 0 0.890625 -0.265625q0.4375 -0.265625 0.4375 -0.765625q0 -0.234375 -0.109375 -0.8125l-0.140625 -0.875q-0.09375 -0.53125 -0.09375 -1.328125q0 -0.875 0.28125 -1.46875q0.296875 -0.59375 0.953125 -1.171875q-0.640625 -0.546875 -0.9375 -1.140625q-0.296875 -0.59375 -0.296875 -1.5q0 -0.765625 0.09375 -1.3125l0.140625 -0.859375q0.109375 -0.59375 0.109375 -0.828125q0 -0.5 -0.4375 -0.765625q-0.4375 -0.265625 -0.890625 -0.265625l-0.234375 0l0 -1.25q1.109375 0.0625 1.703125 0.40625q0.59375 0.34375 0.953125 0.9375q0.375 0.59375 0.375 1.265625q0 0.6875 -0.171875 1.40625l-0.15625 0.734375q-0.140625 0.609375 -0.140625 1.203125q0 1.34375 1.296875 1.34375l0.421875 0l0 1.25z" fill-rule="nonzero"/><path fill="#000000" fill-opacity="0.0" d="m215.7454 6.664042l176.25197 0l0 398.6457l-176.25197 0z" fill-rule="evenodd"/><path stroke="#000000" stroke-width="3.0" stroke-linejoin="round" stroke-linecap="butt" d="m215.7454 6.664042l176.25197 0l0 398.6457l-176.25197 0z" fill-rule="evenodd"/><path fill="#b7b7b7" d="m215.7454 291.26248l176.25197 0l0 114.04724l-176.25197 0z" fill-rule="evenodd"/><path stroke="#000000" stroke-width="3.0" stroke-linejoin="round" stroke-linecap="butt" d="m215.7454 291.26248l176.25197 0l0 114.04724l-176.25197 0z" fill-rule="evenodd"/><path fill="#000000" fill-opacity="0.0" d="m215.7454 210.12862l176.25197 0l0 40.566925l-176.25197 0z" fill-rule="evenodd"/><path stroke="#000000" stroke-width="3.0" stroke-linejoin="round" stroke-linecap="butt" d="m215.7454 210.12862l176.25197 0l0 40.566925l-176.25197 0z" fill-rule="evenodd"/><path fill="#000000" d="m258.52118 237.33208l0 -12.140625l-2.125 0l0 -1.125l3.9375 -0.328125l0 13.59375l-1.8125 0zm8.468658 0l0 -1.578125q0.78125 -1.828125 3.171875 -3.984375l1.03125 -0.921875q1.125 -1.015625 1.546875 -1.84375q0.4375 -0.828125 0.4375 -1.71875q0 -1.140625 -0.703125 -1.78125q-0.6875 -0.640625 -1.84375 -0.640625q-0.5 0 -0.96875 0.09375q-0.453125 0.09375 -0.984375 0.3125q-0.515625 0.203125 -1.34375 0.671875l0 -1.578125q1.796875 -0.84375 3.5625 -0.84375q1.9375 0 3.0625 1.0625q1.125 1.0625 1.125 2.65625q0 1.03125 -0.46875 1.953125q-0.453125 0.921875 -2.265625 2.46875l-0.6875 0.59375q-0.765625 0.640625 -1.53125 1.5625q-0.765625 0.90625 -0.96875 1.9375l5.859375 0l0 1.578125l-8.03125 0zm12.140564 -0.09375l0 -1.6875q1.921875 0.765625 3.03125 0.765625q1.28125 0 2.09375 -0.75q0.8125 -0.75 0.8125 -1.9375q0 -1.171875 -0.828125 -2.0q-0.828125 -0.84375 -3.140625 -0.84375l-0.71875 0l0 -1.21875l0.625 0q2.171875 0 2.953125 -0.78125q0.78125 -0.796875 0.78125 -1.859375q0 -0.9375 -0.625 -1.5q-0.609375 -0.5625 -1.84375 -0.5625q-1.328125 0 -2.953125 0.75l0 -1.5625q1.15625 -0.390625 1.796875 -0.453125q0.65625 -0.078125 1.265625 -0.078125q2.140625 0 3.15625 0.859375q1.015625 0.84375 1.015625 2.265625q0 0.78125 -0.296875 1.390625q-0.28125 0.59375 -0.875 1.109375q-0.59375 0.515625 -1.640625 0.875q1.3125 0.3125 1.953125 0.796875q0.640625 0.484375 0.96875 1.21875q0.328125 0.71875 0.328125 1.5625q0 1.578125 -1.078125 2.828125q-1.078125 1.25 -3.625 1.25q-1.25 0 -3.15625 -0.4375zm16.824738 -4.859375l0 -1.34375l4.046875 0l0 1.34375l-4.046875 0zm6.004425 -5.390625l9.890625 4.953125l-9.890625 4.9375l0 -1.5625l6.875 -3.375l-6.875 -3.375l0 -1.578125zm18.293518 10.34375l0 -1.578125q0.78125 -1.828125 3.171875 -3.984375l1.03125 -0.921875q1.125 -1.015625 1.546875 -1.84375q0.4375 -0.828125 0.4375 -1.71875q0 -1.140625 -0.703125 -1.78125q-0.6875 -0.640625 -1.84375 -0.640625q-0.5 0 -0.96875 0.09375q-0.453125 0.09375 -0.984375 0.3125q-0.515625 0.203125 -1.34375 0.671875l0 -1.578125q1.796875 -0.84375 3.5625 -0.84375q1.9375 0 3.0625 1.0625q1.125 1.0625 1.125 2.65625q0 1.03125 -0.46875 1.953125q-0.453125 0.921875 -2.265625 2.46875l-0.6875 0.59375q-0.765625 0.640625 -1.53125 1.5625q-0.765625 0.90625 -0.96875 1.9375l5.859375 0l0 1.578125l-8.03125 0zm17.265533 0l0 -3.8125l-6.0625 0l0 -1.359375l6.0625 -8.3125l1.6875 0l0 8.203125l1.8125 0l0 1.46875l-1.8125 0l0 3.8125l-1.6875 0zm-4.296875 -5.28125l4.421875 0l0 -6.0l-4.421875 6.0zm12.281189 -1.703125q0.515625 -0.671875 0.984375 -1.0q0.484375 -0.328125 1.046875 -0.5q0.578125 -0.171875 1.203125 -0.171875q1.15625 0 2.09375 0.546875q0.9375 0.546875 1.421875 1.5q0.5 0.953125 0.5 2.125q0 1.296875 -0.578125 2.4375q-0.5625 1.125 -1.53125 1.765625q-0.953125 0.625 -2.359375 0.625q-2.40625 0 -3.578125 -1.953125q-1.15625 -1.96875 -1.15625 -4.828125q0 -1.890625 0.5625 -3.625q0.5625 -1.75 1.71875 -2.75q1.171875 -1.015625 3.203125 -1.015625q0.640625 0 1.21875 0.078125q0.578125 0.078125 1.8125 0.4375l0 1.5625q-1.90625 -0.734375 -3.140625 -0.734375q-1.796875 0 -2.609375 1.53125q-0.8125 1.515625 -0.8125 3.96875zm5.453125 2.859375q0 -1.609375 -0.75 -2.421875q-0.734375 -0.8125 -1.84375 -0.8125q-0.90625 0 -1.84375 0.671875q-0.9375 0.65625 -0.9375 1.9375q0 1.296875 0.640625 2.515625q0.65625 1.21875 2.203125 1.21875q1.109375 0 1.8125 -0.8125q0.71875 -0.8125 0.71875 -2.296875z" fill-rule="nonzero"/><path fill="#000000" fill-opacity="0.0" d="m215.7454 250.69554l176.25197 0l0 40.56694l-176.25197 0z" fill-rule="evenodd"/><path stroke="#000000" stroke-width="3.0" stroke-linejoin="round" stroke-linecap="butt" d="m215.7454 250.69554l176.25197 0l0 40.56694l-176.25197 0z" fill-rule="evenodd"/><path fill="#000000" d="m291.05118 277.899l0 -12.140625l-2.125 0l0 -1.125l3.9375 -0.328125l0 13.59375l-1.8125 0zm8.468689 0l0 -1.578125q0.78125 -1.828125 3.171875 -3.984375l1.03125 -0.921875q1.125 -1.015625 1.546875 -1.84375q0.4375 -0.828125 0.4375 -1.71875q0 -1.140625 -0.703125 -1.78125q-0.6875 -0.640625 -1.84375 -0.640625q-0.5 0 -0.96875 0.09375q-0.453125 0.09375 -0.984375 0.3125q-0.515625 0.203125 -1.34375 0.671875l0 -1.578125q1.796875 -0.84375 3.5625 -0.84375q1.9375 0 3.0625 1.0625q1.125 1.0625 1.125 2.65625q0 1.03125 -0.46875 1.953125q-0.453125 0.921875 -2.265625 2.46875l-0.6875 0.59375q-0.765625 0.640625 -1.53125 1.5625q-0.765625 0.90625 -0.96875 1.9375l5.859375 0l0 1.578125l-8.03125 0zm12.140533 -0.09375l0 -1.6875q1.921875 0.765625 3.03125 0.765625q1.28125 0 2.09375 -0.75q0.8125 -0.75 0.8125 -1.9375q0 -1.171875 -0.828125 -2.0q-0.828125 -0.84375 -3.140625 -0.84375l-0.71875 0l0 -1.21875l0.625 0q2.171875 0 2.953125 -0.78125q0.78125 -0.796875 0.78125 -1.859375q0 -0.9375 -0.625 -1.5q-0.609375 -0.5625 -1.84375 -0.5625q-1.328125 0 -2.953125 0.75l0 -1.5625q1.15625 -0.390625 1.796875 -0.453125q0.65625 -0.078125 1.265625 -0.078125q2.140625 0 3.15625 0.859375q1.015625 0.84375 1.015625 2.265625q0 0.78125 -0.296875 1.390625q-0.28125 0.59375 -0.875 1.109375q-0.59375 0.515625 -1.640625 0.875q1.3125 0.3125 1.953125 0.796875q0.640625 0.484375 0.96875 1.21875q0.328125 0.71875 0.328125 1.5625q0 1.578125 -1.078125 2.828125q-1.078125 1.25 -3.625 1.25q-1.25 0 -3.15625 -0.4375z" fill-rule="nonzero"/><path fill="#000000" fill-opacity="0.0" d="m215.7454 405.30972l176.25197 0l0 42.015747l-176.25197 0z" fill-rule="evenodd"/><path fill="#000000" d="m281.85446 427.9172l1.75 -0.171875l-0.015625 0.46875q0 0.765625 0.34375 1.421875q0.359375 0.640625 1.171875 1.0q0.828125 0.34375 1.953125 0.34375q1.609375 0 2.453125 -0.703125q0.84375 -0.703125 0.84375 -1.609375q0 -0.625 -0.453125 -1.140625q-0.453125 -0.515625 -2.484375 -1.390625q-1.578125 -0.6875 -2.140625 -1.046875q-0.90625 -0.59375 -1.34375 -1.28125q-0.421875 -0.703125 -0.421875 -1.59375q0 -1.03125 0.5625 -1.859375q0.5625 -0.828125 1.65625 -1.265625q1.09375 -0.4375 2.453125 -0.4375q1.640625 0 2.75 0.546875q1.125 0.546875 1.625 1.453125q0.515625 0.90625 0.515625 1.734375q0 0.09375 -0.015625 0.28125l-1.71875 0.140625q0 -0.578125 -0.109375 -0.890625q-0.171875 -0.5625 -0.5625 -0.9375q-0.375 -0.390625 -1.046875 -0.609375q-0.671875 -0.234375 -1.5 -0.234375q-1.453125 0 -2.265625 0.65625q-0.625 0.5 -0.625 1.328125q0 0.484375 0.25 0.875q0.265625 0.390625 0.921875 0.765625q0.484375 0.265625 2.25 1.046875q1.453125 0.640625 2.0 1.0q0.71875 0.484375 1.109375 1.171875q0.390625 0.6875 0.390625 1.5625q0 1.078125 -0.65625 2.0q-0.65625 0.90625 -1.828125 1.421875q-1.15625 0.5 -2.671875 0.5q-2.265625 0 -3.703125 -0.984375q-1.421875 -1.0 -1.4375 -3.5625zm15.599823 2.96875l-0.265625 1.359375q-0.59375 0.140625 -1.15625 0.140625q-0.984375 0 -1.5625 -0.46875q-0.4375 -0.375 -0.4375 -1.0q0 -0.3125 0.234375 -1.46875l1.171875 -5.625l-1.296875 0l0.265625 -1.265625l1.296875 0l0.5 -2.375l1.890625 -1.140625l-0.734375 3.515625l1.625 0l-0.28125 1.265625l-1.609375 0l-1.125 5.359375q-0.203125 1.015625 -0.203125 1.21875q0 0.28125 0.15625 0.4375q0.171875 0.15625 0.5625 0.15625q0.546875 0 0.96875 -0.109375zm7.855194 0.140625q-0.859375 0.734375 -1.65625 1.078125q-0.78125 0.34375 -1.6875 0.34375q-1.34375 0 -2.171875 -0.78125q-0.8125 -0.796875 -0.8125 -2.03125q0 -0.796875 0.375 -1.421875q0.375 -0.625 0.984375 -1.0q0.609375 -0.390625 1.484375 -0.546875q0.5625 -0.109375 2.109375 -0.171875q1.5625 -0.0625 2.234375 -0.328125q0.1875 -0.671875 0.1875 -1.125q0 -0.578125 -0.421875 -0.90625q-0.5625 -0.453125 -1.671875 -0.453125q-1.03125 0 -1.703125 0.46875q-0.65625 0.453125 -0.953125 1.296875l-1.671875 -0.140625q0.515625 -1.4375 1.609375 -2.203125q1.109375 -0.765625 2.796875 -0.765625q1.796875 0 2.84375 0.859375q0.796875 0.625 0.796875 1.65625q0 0.765625 -0.21875 1.796875l-0.53125 2.40625q-0.265625 1.140625 -0.265625 1.859375q0 0.453125 0.203125 1.3125l-1.671875 0q-0.125 -0.46875 -0.1875 -1.203125zm0.609375 -3.703125q-0.34375 0.140625 -0.75 0.21875q-0.390625 0.0625 -1.3125 0.15625q-1.4375 0.125 -2.03125 0.328125q-0.59375 0.1875 -0.90625 0.625q-0.296875 0.421875 -0.296875 0.9375q0 0.6875 0.484375 1.140625q0.484375 0.4375 1.359375 0.4375q0.828125 0 1.578125 -0.421875q0.75 -0.4375 1.1875 -1.203125q0.4375 -0.78125 0.6875 -2.21875zm9.922577 1.375l1.65625 0.171875q-0.625 1.8125 -1.765625 2.703125q-1.140625 0.875 -2.609375 0.875q-1.578125 0 -2.5625 -1.015625q-0.96875 -1.03125 -0.96875 -2.859375q0 -1.578125 0.625 -3.109375q0.640625 -1.53125 1.796875 -2.328125q1.171875 -0.796875 2.6875 -0.796875q1.546875 0 2.453125 0.875q0.921875 0.875 0.921875 2.328125l-1.625 0.109375q-0.015625 -0.921875 -0.546875 -1.4375q-0.515625 -0.515625 -1.359375 -0.515625q-1.0 0 -1.734375 0.625q-0.71875 0.625 -1.140625 1.90625q-0.40625 1.28125 -0.40625 2.46875q0 1.234375 0.546875 1.859375q0.546875 0.609375 1.34375 0.609375q0.796875 0 1.53125 -0.609375q0.734375 -0.609375 1.15625 -1.859375zm2.671875 3.53125l2.796875 -13.359375l1.640625 0l-1.734375 8.28125l4.8125 -4.59375l2.171875 0l-4.125 3.609375l2.5 6.0625l-1.8125 0l-1.921875 -4.96875l-2.015625 1.734375l-0.671875 3.234375l-1.640625 0z" fill-rule="nonzero"/><path fill="#000000" fill-opacity="0.0" d="m118.01312 209.4042l97.732285 0l0 42.015747l-97.732285 0z" fill-rule="evenodd"/><path fill="#000000" d="m196.96411 236.3242l0 -9.890625l1.796875 0l0 1.859375q0.671875 -1.0 1.578125 -1.53125q0.90625 -0.546875 1.890625 -0.546875q1.25 0 2.03125 0.796875q0.796875 0.796875 0.796875 2.203125l0 7.109375l-1.796875 0l0 -6.515625q0 -1.03125 -0.1875 -1.359375q-0.1875 -0.328125 -0.515625 -0.5q-0.328125 -0.1875 -0.6875 -0.1875q-0.671875 0 -1.453125 0.40625q-0.765625 0.40625 -1.65625 1.75l0 6.40625l-1.796875 0z" fill-rule="nonzero"/><path fill="#000000" fill-opacity="0.0" d="m118.01312 249.97113l97.732285 0l0 42.015747l-97.732285 0z" fill-rule="evenodd"/><path fill="#000000" d="m203.33319 275.6411q-0.796875 0.734375 -1.578125 1.109375q-0.78125 0.375 -1.515625 0.375q-1.0625 0 -1.96875 -0.6875q-0.890625 -0.703125 -0.890625 -2.03125q0 -1.453125 1.25 -2.40625q1.265625 -0.953125 4.03125 -0.953125l0.40625 0l0 -1.203125q0 -0.703125 -0.1875 -1.03125q-0.1875 -0.328125 -0.59375 -0.5q-0.40625 -0.1875 -1.0 -0.1875q-1.40625 0 -3.046875 0.875l0 -1.484375q1.8125 -0.734375 3.40625 -0.734375q0.875 0 1.609375 0.28125q0.734375 0.265625 1.171875 0.875q0.4375 0.59375 0.4375 1.90625l0 4.484375q0 0.75 0.109375 1.015625q0.125 0.25 0.34375 0.390625q0.21875 0.140625 0.5 0.140625q0.109375 0 0.34375 -0.046875l0.125 1.0q-0.609375 0.296875 -1.34375 0.296875q-0.5 0 -0.953125 -0.3125q-0.453125 -0.328125 -0.65625 -1.171875zm-0.265625 -0.984375l0 -2.5625l-0.5625 -0.015625q-1.421875 0 -2.375 0.546875q-0.953125 0.546875 -0.953125 1.484375q0 0.65625 0.46875 1.109375q0.46875 0.4375 1.09375 0.4375q0.5625 0 1.140625 -0.25q0.59375 -0.25 1.1875 -0.75z" fill-rule="nonzero"/></g></svg>