<svg version="1.1" viewBox="0.0 0.0 691.1994750656168 256.3989501312336" fill="none" stroke="none" stroke-linecap="square" stroke-miterlimit="10" xmlns:xlink="http://www.w3.org/1999/xlink" xmlns="http://www.w3.org/2000/svg"><clipPath id="p.0"><path d="m0 0l691.19946 0l0 256.39896l-691.19946 0l0 -256.39896z" clip-rule="nonzero"/></clipPath><g clip-path="url(#p.0)"><path fill="#ffffff" d="m0 0l691.19946 0l0 256.39896l-691.19946 0z" fill-rule="evenodd"/><path fill="#000000" fill-opacity="0.0" d="m60.272964 6.1154857l153.22835 0l0 42.015747l-153.22835 0z" fill-rule="evenodd"/><path stroke="#000000" stroke-width="2.0" stroke-linejoin="round" stroke-linecap="butt" d="m60.272964 6.1154857l153.22835 0l0 42.015747l-153.22835 0z" fill-rule="evenodd"/><path fill="#000000" d="m82.679214 33.035484l-2.9375 0l-1.171875 -3.03125l-5.328125 0l-1.109375 3.03125l-2.859375 0l5.203125 -13.359375l2.84375 0l5.359375 13.359375zm-4.96875 -5.28125l-1.84375 -4.953125l-1.796875 4.953125l3.640625 0zm15.254196 5.28125l-2.390625 0l0 -1.421875q-0.59375 0.828125 -1.40625 1.234375q-0.796875 0.40625 -1.609375 0.40625q-1.671875 0 -2.859375 -1.34375q-1.1875 -1.34375 -1.1875 -3.75q0 -2.453125 1.15625 -3.734375q1.15625 -1.28125 2.921875 -1.28125q1.625 0 2.8125 1.34375l0 -4.8125l2.5625 0l0 13.359375zm-6.84375 -5.046875q0 1.546875 0.4375 2.234375q0.609375 1.015625 1.71875 1.015625q0.890625 0 1.5 -0.75q0.625 -0.765625 0.625 -2.25q0 -1.671875 -0.609375 -2.40625q-0.59375 -0.734375 -1.53125 -0.734375q-0.90625 0 -1.53125 0.734375q-0.609375 0.71875 -0.609375 2.15625zm11.817856 5.046875l-2.5625 0l0 -9.671875l2.375 0l0 1.375q0.609375 -0.984375 1.09375 -1.28125q0.484375 -0.3125 1.109375 -0.3125q0.875 0 1.6875 0.484375l-0.796875 2.234375q-0.640625 -0.421875 -1.203125 -0.421875q-0.53125 0 -0.90625 0.296875q-0.375 0.296875 -0.59375 1.078125q-0.203125 0.765625 -0.203125 3.234375l0 2.984375zm10.400894 -3.078125l2.546875 0.421875q-0.484375 1.40625 -1.546875 2.140625q-1.0625 0.734375 -2.65625 0.734375q-2.515625 0 -3.734375 -1.65625q-0.953125 -1.3125 -0.953125 -3.328125q0 -2.40625 1.25 -3.765625q1.265625 -1.359375 3.1875 -1.359375q2.15625 0 3.40625 1.421875q1.25 1.421875 1.1875 4.375l-6.40625 0q0.03125 1.140625 0.609375 1.78125q0.59375 0.625 1.484375 0.625q0.59375 0 1.0 -0.328125q0.421875 -0.328125 0.625 -1.0625zm0.15625 -2.59375q-0.03125 -1.109375 -0.578125 -1.6875q-0.546875 -0.578125 -1.328125 -0.578125q-0.84375 0 -1.390625 0.609375q-0.546875 0.609375 -0.53125 1.65625l3.828125 0zm3.7194672 2.90625l2.5625 -0.390625q0.171875 0.75 0.671875 1.140625q0.5 0.390625 1.40625 0.390625q0.984375 0 1.484375 -0.375q0.34375 -0.25 0.34375 -0.671875q0 -0.296875 -0.1875 -0.484375q-0.1875 -0.1875 -0.859375 -0.34375q-3.09375 -0.6875 -3.921875 -1.25q-1.140625 -0.78125 -1.140625 -2.171875q0 -1.265625 0.984375 -2.109375q1.0 -0.859375 3.078125 -0.859375q1.984375 0 2.953125 0.65625q0.96875 0.640625 1.328125 1.90625l-2.40625 0.4375q-0.15625 -0.5625 -0.59375 -0.859375q-0.421875 -0.296875 -1.234375 -0.296875q-1.0 0 -1.4375 0.28125q-0.296875 0.203125 -0.296875 0.515625q0 0.265625 0.25 0.46875q0.34375 0.25 2.390625 0.71875q2.046875 0.453125 2.859375 1.140625q0.796875 0.671875 0.796875 1.890625q0 1.34375 -1.109375 2.296875q-1.109375 0.953125 -3.28125 0.953125q-1.984375 0 -3.140625 -0.796875q-1.140625 -0.8125 -1.5 -2.1875zm10.375717 0l2.5625 -0.390625q0.171875 0.75 0.671875 1.140625q0.5 0.390625 1.40625 0.390625q0.984375 0 1.484375 -0.375q0.34375 -0.25 0.34375 -0.671875q0 -0.296875 -0.1875 -0.484375q-0.1875 -0.1875 -0.859375 -0.34375q-3.09375 -0.6875 -3.921875 -1.25q-1.140625 -0.78125 -1.140625 -2.171875q0 -1.265625 0.984375 -2.109375q1.0 -0.859375 3.078125 -0.859375q1.984375 0 2.953125 0.65625q0.96875 0.640625 1.328125 1.90625l-2.40625 0.4375q-0.15625 -0.5625 -0.59375 -0.859375q-0.421875 -0.296875 -1.234375 -0.296875q-1.0 0 -1.4375 0.28125q-0.296875 0.203125 -0.296875 0.515625q0 0.265625 0.25 0.46875q0.34375 0.25 2.390625 0.71875q2.046875 0.453125 2.859375 1.140625q0.796875 0.671875 0.796875 1.890625q0 1.34375 -1.109375 2.296875q-1.109375 0.953125 -3.28125 0.953125q-1.984375 0 -3.140625 -0.796875q-1.140625 -0.8125 -1.5 -2.1875zm16.875717 -0.3125l2.546875 0.421875q-0.484375 1.40625 -1.546875 2.140625q-1.0625 0.734375 -2.65625 0.734375q-2.515625 0 -3.734375 -1.65625q-0.953125 -1.3125 -0.953125 -3.328125q0 -2.40625 1.25 -3.765625q1.265625 -1.359375 3.1875 -1.359375q2.15625 0 3.40625 1.421875q1.25 1.421875 1.1875 4.375l-6.40625 0q0.03125 1.140625 0.609375 1.78125q0.59375 0.625 1.484375 0.625q0.59375 0 1.0 -0.328125q0.421875 -0.328125 0.625 -1.0625zm0.15625 -2.59375q-0.03125 -1.109375 -0.578125 -1.6875q-0.546875 -0.578125 -1.328125 -0.578125q-0.84375 0 -1.390625 0.609375q-0.546875 0.609375 -0.53125 1.65625l3.828125 0z" fill-rule="nonzero"/><path fill="#000000" fill-opacity="0.0" d="m241.15749 6.1141734l234.29921 0l0 42.015747l-234.29921 0z" fill-rule="evenodd"/><path stroke="#000000" stroke-width="2.0" stroke-linejoin="round" stroke-linecap="butt" d="m241.15749 6.1141734l234.29921 0l0 42.015747l-234.29921 0z" fill-rule="evenodd"/><path fill="#000000" d="m251.54811 33.034172l0 -13.359375l2.625 0l5.4531097 8.921875l0 -8.921875l2.515625 0l0 13.359375l-2.703125 0l-5.3906097 -8.703125l0 8.703125l-2.5 0zm15.332321 -6.71875l-2.328125 -0.421875q0.40625 -1.40625 1.359375 -2.078125q0.953125 -0.671875 2.84375 -0.671875q1.703125 0 2.546875 0.40625q0.84375 0.40625 1.171875 1.03125q0.34375 0.625 0.34375 2.28125l-0.015625 3.0q0 1.265625 0.109375 1.875q0.125 0.609375 0.46875 1.296875l-2.53125 0q-0.109375 -0.25 -0.25 -0.75q-0.0625 -0.234375 -0.09375 -0.3125q-0.65625 0.640625 -1.40625 0.96875q-0.734375 0.3125 -1.59375 0.3125q-1.484375 0 -2.34375 -0.8125q-0.859375 -0.8125 -0.859375 -2.046875q0 -0.828125 0.390625 -1.46875q0.390625 -0.640625 1.09375 -0.96875q0.703125 -0.34375 2.03125 -0.609375q1.796875 -0.328125 2.484375 -0.625l0 -0.25q0 -0.75 -0.359375 -1.0625q-0.359375 -0.3125 -1.375 -0.3125q-0.6875 0 -1.078125 0.28125q-0.375 0.265625 -0.609375 0.9375zm3.421875 2.078125q-0.484375 0.15625 -1.5625 0.390625q-1.0625 0.21875 -1.390625 0.4375q-0.5 0.359375 -0.5 0.90625q0 0.53125 0.40625 0.9375q0.40625 0.390625 1.015625 0.390625q0.703125 0 1.328125 -0.46875q0.46875 -0.34375 0.609375 -0.84375q0.09375 -0.328125 0.09375 -1.25l0 -0.5zm4.844452 -5.03125l2.359375 0l0 1.3125q1.265625 -1.53125 3.015625 -1.53125q0.9375 0 1.609375 0.390625q0.6875 0.375 1.125 1.140625q0.640625 -0.765625 1.375 -1.140625q0.75 -0.390625 1.578125 -0.390625q1.0625 0 1.796875 0.4375q0.75 0.421875 1.109375 1.265625q0.265625 0.625 0.265625 2.0l0 6.1875l-2.5625 0l0 -5.53125q0 -1.4375 -0.265625 -1.859375q-0.34375 -0.546875 -1.09375 -0.546875q-0.53125 0 -1.015625 0.328125q-0.46875 0.328125 -0.671875 0.96875q-0.203125 0.625 -0.203125 2.0l0 4.640625l-2.5625 0l0 -5.296875q0 -1.421875 -0.140625 -1.828125q-0.140625 -0.40625 -0.421875 -0.609375q-0.28125 -0.203125 -0.78125 -0.203125q-0.59375 0 -1.0625 0.328125q-0.46875 0.3125 -0.6875 0.921875q-0.203125 0.59375 -0.203125 1.984375l0 4.703125l-2.5625 0l0 -9.671875zm22.385284 6.59375l2.546875 0.421875q-0.484375 1.40625 -1.546875 2.140625q-1.0625 0.734375 -2.65625 0.734375q-2.515625 0 -3.734375 -1.65625q-0.953125 -1.3125 -0.953125 -3.328125q0 -2.40625 1.25 -3.765625q1.265625 -1.359375 3.1875 -1.359375q2.15625 0 3.40625 1.421875q1.25 1.421875 1.1875 4.375l-6.40625 0q0.03125 1.140625 0.609375 1.78125q0.59375 0.625 1.484375 0.625q0.59375 0 1.0 -0.328125q0.421875 -0.328125 0.625 -1.0625zm0.15625 -2.59375q-0.03125 -1.109375 -0.578125 -1.6875q-0.546875 -0.578125 -1.328125 -0.578125q-0.84375 0 -1.390625 0.609375q-0.546875 0.609375 -0.53125 1.65625l3.828125 0z" fill-rule="nonzero"/><path fill="#000000" fill-opacity="0.0" d="m501.62827 8.018373l153.22836 0l0 42.01575l-153.22836 0z" fill-rule="evenodd"/><path stroke="#000000" stroke-width="2.0" stroke-linejoin="round" stroke-linecap="butt" d="m501.62827 8.018373l153.22836 0l0 42.01575l-153.22836 0z" fill-rule="evenodd"/><path fill="#000000" d="m513.8783 34.93837l-3.1875305 -13.359373l2.7656555 0l2.015625 9.171875l2.4375 -9.171875l3.203125 0l2.34375 9.328125l2.046875 -9.328125l2.71875 0l-3.25 13.359373l-2.859375 0l-2.65625 -9.984373l-2.65625 9.984373l-2.921875 0zm20.958923 -3.078123l2.546875 0.4218731q-0.484375 1.40625 -1.546875 2.140625q-1.0625 0.734375 -2.65625 0.734375q-2.515625 0 -3.734375 -1.65625q-0.953125 -1.3125 -0.953125 -3.328123q0 -2.40625 1.25 -3.765625q1.265625 -1.359375 3.1875 -1.359375q2.15625 0 3.40625 1.421875q1.25 1.421875 1.1875 4.375l-6.40625 0q0.03125 1.140625 0.609375 1.7812481q0.59375 0.625 1.484375 0.625q0.59375 0 1.0 -0.328125q0.421875 -0.328125 0.625 -1.0624981zm0.15625 -2.59375q-0.03125 -1.109375 -0.578125 -1.6875q-0.546875 -0.578125 -1.328125 -0.578125q-0.84375 0 -1.390625 0.609375q-0.546875 0.609375 -0.53125 1.65625l3.828125 0zm7.0787964 5.671873l-2.5625 0l0 -9.671873l2.375 0l0 1.375q0.609375 -0.984375 1.09375 -1.28125q0.484375 -0.3125 1.109375 -0.3125q0.875 0 1.6875 0.484375l-0.796875 2.234375q-0.640625 -0.421875 -1.203125 -0.421875q-0.53125 0 -0.90625 0.296875q-0.375 0.296875 -0.59375 1.078125q-0.203125 0.765625 -0.203125 3.234375l0 2.984373zm9.24469 -9.671873l0 2.03125l-1.75 0l0 3.90625q0 1.1874981 0.046875 1.3906231q0.046875 0.1875 0.21875 0.3125q0.1875 0.125 0.4375 0.125q0.359375 0 1.03125 -0.25l0.21875 2.0q-0.890625 0.375 -2.015625 0.375q-0.703125 0 -1.265625 -0.234375q-0.546875 -0.234375 -0.8125 -0.59375q-0.25 -0.375 -0.34375 -1.0q-0.09375 -0.453125 -0.09375 -1.8124981l0 -4.21875l-1.171875 0l0 -2.03125l1.171875 0l0 -1.921875l2.578125 -1.5l0 3.421875l1.75 0z" fill-rule="nonzero"/><path fill="#000000" fill-opacity="0.0" d="m57.743145 66.48294l153.22835 0l0 42.015747l-153.22835 0z" fill-rule="evenodd"/><path stroke="#000000" stroke-width="2.0" stroke-linejoin="round" stroke-linecap="butt" d="m57.743145 66.48294l153.22835 0l0 42.015747l-153.22835 0z" fill-rule="evenodd"/><path fill="#000000" d="m72.64939 93.74669q-1.515625 0 -2.609375 -0.96875q-1.078125 -0.984375 -1.59375 -2.625q-0.515625 -1.65625 -0.515625 -3.484375q0 -1.828125 0.515625 -3.484375q0.515625 -1.65625 1.609375 -2.625q1.09375 -0.96875 2.59375 -0.96875q1.515625 0 2.59375 0.96875q1.09375 0.96875 1.609375 2.625q0.515625 1.640625 0.515625 3.484375q0 1.8125 -0.515625 3.46875q-0.515625 1.640625 -1.609375 2.625q-1.078125 0.984375 -2.59375 0.984375zm0 -1.359375q1.46875 0 2.140625 -1.5625q0.671875 -1.578125 0.671875 -4.15625q0 -2.578125 -0.671875 -4.15625q-0.671875 -1.578125 -2.140625 -1.578125q-1.484375 0 -2.15625 1.578125q-0.65625 1.578125 -0.65625 4.15625q0 2.578125 0.65625 4.15625q0.671875 1.5625 2.15625 1.5625zm6.6874237 1.015625l3.765625 -5.109375l-3.65625 -4.78125l2.140625 0l2.890625 3.8125l2.609375 -3.8125l1.75 0l-3.421875 5.015625l3.71875 4.875l-2.125 0l-2.984375 -3.921875l-2.875 3.921875l-1.8125 0zm16.550903 0.34375q-1.515625 0 -2.609375 -0.96875q-1.078125 -0.984375 -1.59375 -2.625q-0.515625 -1.65625 -0.515625 -3.484375q0 -1.828125 0.515625 -3.484375q0.515625 -1.65625 1.609375 -2.625q1.09375 -0.96875 2.59375 -0.96875q1.515625 0 2.59375 0.96875q1.09375 0.96875 1.609375 2.625q0.515625 1.640625 0.515625 3.484375q0 1.8125 -0.515625 3.46875q-0.515625 1.640625 -1.609375 2.625q-1.078125 0.984375 -2.59375 0.984375zm0 -1.359375q1.46875 0 2.140625 -1.5625q0.671875 -1.578125 0.671875 -4.15625q0 -2.578125 -0.671875 -4.15625q-0.671875 -1.578125 -2.140625 -1.578125q-1.484375 0 -2.15625 1.578125q-0.65625 1.578125 -0.65625 4.15625q0 2.578125 0.65625 4.15625q0.671875 1.5625 2.15625 1.5625zm11.796799 1.359375q-1.515625 0 -2.609375 -0.96875q-1.078125 -0.984375 -1.59375 -2.625q-0.515625 -1.65625 -0.515625 -3.484375q0 -1.828125 0.515625 -3.484375q0.515625 -1.65625 1.609375 -2.625q1.09375 -0.96875 2.59375 -0.96875q1.515625 0 2.59375 0.96875q1.09375 0.96875 1.609375 2.625q0.515625 1.640625 0.515625 3.484375q0 1.8125 -0.515625 3.46875q-0.515625 1.640625 -1.609375 2.625q-1.078125 0.984375 -2.59375 0.984375zm0 -1.359375q1.46875 0 2.140625 -1.5625q0.671875 -1.578125 0.671875 -4.15625q0 -2.578125 -0.671875 -4.15625q-0.671875 -1.578125 -2.140625 -1.578125q-1.484375 0 -2.15625 1.578125q-0.65625 1.578125 -0.65625 4.15625q0 2.578125 0.65625 4.15625q0.671875 1.5625 2.15625 1.5625zm11.796799 1.359375q-1.515625 0 -2.609375 -0.96875q-1.078125 -0.984375 -1.59375 -2.625q-0.515625 -1.65625 -0.515625 -3.484375q0 -1.828125 0.515625 -3.484375q0.515625 -1.65625 1.609375 -2.625q1.09375 -0.96875 2.59375 -0.96875q1.515625 0 2.59375 0.96875q1.09375 0.96875 1.609375 2.625q0.515625 1.640625 0.515625 3.484375q0 1.8125 -0.515625 3.46875q-0.515625 1.640625 -1.609375 2.625q-1.078125 0.984375 -2.59375 0.984375zm0 -1.359375q1.46875 0 2.140625 -1.5625q0.671875 -1.578125 0.671875 -4.15625q0 -2.578125 -0.671875 -4.15625q-0.671875 -1.578125 -2.140625 -1.578125q-1.484375 0 -2.15625 1.578125q-0.65625 1.578125 -0.65625 4.15625q0 2.578125 0.65625 4.15625q0.671875 1.5625 2.15625 1.5625zm11.796806 1.359375q-1.515625 0 -2.609375 -0.96875q-1.0781326 -0.984375 -1.5937576 -2.625q-0.515625 -1.65625 -0.515625 -3.484375q0 -1.828125 0.515625 -3.484375q0.515625 -1.65625 1.6093826 -2.625q1.09375 -0.96875 2.59375 -0.96875q1.515625 0 2.59375 0.96875q1.09375 0.96875 1.609375 2.625q0.515625 1.640625 0.515625 3.484375q0 1.8125 -0.515625 3.46875q-0.515625 1.640625 -1.609375 2.625q-1.078125 0.984375 -2.59375 0.984375zm0 -1.359375q1.46875 0 2.140625 -1.5625q0.671875 -1.578125 0.671875 -4.15625q0 -2.578125 -0.671875 -4.15625q-0.671875 -1.578125 -2.140625 -1.578125q-1.484375 0 -2.15625 1.578125q-0.65625 1.578125 -0.65625 4.15625q0 2.578125 0.65625 4.15625q0.671875 1.5625 2.15625 1.5625zm10.765549 1.015625l0 -12.140625l-2.125 0l0 -1.125l3.9375 -0.328125l0 13.59375l-1.8125 0zm12.828049 0.34375q-1.515625 0 -2.609375 -0.96875q-1.078125 -0.984375 -1.59375 -2.625q-0.515625 -1.65625 -0.515625 -3.484375q0 -1.828125 0.515625 -3.484375q0.515625 -1.65625 1.609375 -2.625q1.09375 -0.96875 2.59375 -0.96875q1.515625 0 2.59375 0.96875q1.09375 0.96875 1.609375 2.625q0.515625 1.640625 0.515625 3.484375q0 1.8125 -0.515625 3.46875q-0.515625 1.640625 -1.609375 2.625q-1.078125 0.984375 -2.59375 0.984375zm0 -1.359375q1.46875 0 2.140625 -1.5625q0.671875 -1.578125 0.671875 -4.15625q0 -2.578125 -0.671875 -4.15625q-0.671875 -1.578125 -2.140625 -1.578125q-1.484375 0 -2.15625 1.578125q-0.65625 1.578125 -0.65625 4.15625q0 2.578125 0.65625 4.15625q0.671875 1.5625 2.15625 1.5625zm7.4374237 1.015625l0 -1.578125q0.78125 -1.828125 3.171875 -3.984375l1.03125 -0.921875q1.125 -1.015625 1.546875 -1.84375q0.4375 -0.828125 0.4375 -1.71875q0 -1.140625 -0.703125 -1.78125q-0.6875 -0.640625 -1.84375 -0.640625q-0.5 0 -0.96875 0.09375q-0.453125 0.09375 -0.984375 0.3125q-0.515625 0.203125 -1.34375 0.671875l0 -1.578125q1.796875 -0.84375 3.5625 -0.84375q1.9375 0 3.0625 1.0625q1.125 1.0625 1.125 2.65625q0 1.03125 -0.46875 1.953125q-0.453125 0.921875 -2.265625 2.46875l-0.6875 0.59375q-0.765625 0.640625 -1.53125 1.5625q-0.765625 0.90625 -0.96875 1.9375l5.859375 0l0 1.578125l-8.03125 0zm17.265549 0l0 -3.8125l-6.0625 0l0 -1.359375l6.0625 -8.3125l1.6875 0l0 8.203125l1.8125 0l0 1.46875l-1.8125 0l0 3.8125l-1.6875 0zm-4.296875 -5.28125l4.421875 0l0 -6.0l-4.421875 6.0z" fill-rule="nonzero"/><path fill="#000000" fill-opacity="0.0" d="m239.1483 66.48163l234.29921 0l0 42.015747l-234.29921 0z" fill-rule="evenodd"/><path stroke="#000000" stroke-width="2.0" stroke-linejoin="round" stroke-linecap="butt" d="m239.1483 66.48163l234.29921 0l0 42.015747l-234.29921 0z" fill-rule="evenodd"/><path fill="#000000" d="m248.50768 93.40163l0.265625 -1.28125l5.203125 -5.84375q0.5625 -0.625 1.234375 -1.296875q-1.171875 0.125 -1.671875 0.125l-3.609375 0l0.296875 -1.375l7.4843597 0l-0.21875 1.03125l-5.2499847 5.90625q-0.453125 0.5 -1.328125 1.375q1.375 -0.09375 1.875 -0.09375l3.8124847 0l-0.296875 1.453125l-7.7968597 0zm16.10936 -1.203125q-0.859375 0.734375 -1.65625 1.078125q-0.78125 0.34375 -1.6875 0.34375q-1.34375 0 -2.171875 -0.78125q-0.8125 -0.796875 -0.8125 -2.03125q0 -0.796875 0.375 -1.421875q0.375 -0.625 0.984375 -1.0q0.609375 -0.390625 1.484375 -0.546875q0.5625 -0.109375 2.109375 -0.171875q1.5625 -0.0625 2.234375 -0.328125q0.1875 -0.671875 0.1875 -1.125q0 -0.578125 -0.421875 -0.90625q-0.5625 -0.453125 -1.671875 -0.453125q-1.03125 0 -1.703125 0.46875q-0.65625 0.453125 -0.953125 1.296875l-1.671875 -0.140625q0.515625 -1.4375 1.609375 -2.203125q1.109375 -0.765625 2.796875 -0.765625q1.796875 0 2.84375 0.859375q0.796875 0.625 0.796875 1.65625q0 0.765625 -0.21875 1.796875l-0.53125 2.40625q-0.265625 1.140625 -0.265625 1.859375q0 0.453125 0.203125 1.3125l-1.671875 0q-0.125 -0.46875 -0.1875 -1.203125zm0.609375 -3.703125q-0.34375 0.140625 -0.75 0.21875q-0.390625 0.0625 -1.3125 0.15625q-1.4375 0.125 -2.03125 0.328125q-0.59375 0.1875 -0.90625 0.625q-0.296875 0.421875 -0.296875 0.9375q0 0.6875 0.484375 1.140625q0.484375 0.4375 1.359375 0.4375q0.828125 0 1.578125 -0.421875q0.75 -0.4375 1.1875 -1.203125q0.4375 -0.78125 0.6875 -2.21875zm3.2507324 4.90625l2.78125 -13.359375l1.65625 0l-1.078125 5.140625q0.921875 -0.90625 1.71875 -1.28125q0.796875 -0.390625 1.625 -0.390625q1.203125 0 1.859375 0.640625q0.671875 0.625 0.671875 1.65625q0 0.515625 -0.28125 1.875l-1.203125 5.71875l-1.640625 0l1.234375 -5.859375q0.25 -1.265625 0.25 -1.59375q0 -0.484375 -0.328125 -0.78125q-0.328125 -0.296875 -0.9375 -0.296875q-0.890625 0 -1.703125 0.46875q-0.8125 0.46875 -1.28125 1.28125q-0.453125 0.8125 -0.828125 2.625l-0.875 4.15625l-1.640625 0zm10.235077 0l2.796875 -13.359375l1.640625 0l-2.78125 13.359375l-1.65625 0z" fill-rule="nonzero"/><path fill="#000000" fill-opacity="0.0" d="m501.62827 66.48294l153.22836 0l0 42.015747l-153.22836 0z" fill-rule="evenodd"/><path stroke="#000000" stroke-width="2.0" stroke-linejoin="round" stroke-linecap="butt" d="m501.62827 66.48294l153.22836 0l0 42.015747l-153.22836 0z" fill-rule="evenodd"/><path fill="#000000" d="m512.8939 93.449814l0 -1.59375q1.34375 0.53125 2.546875 0.53125q1.46875 0 2.15625 -0.859375q0.703125 -0.859375 0.703125 -2.0625q0 -1.390625 -1.015625 -2.21875q-1.015625 -0.828125 -3.171875 -0.828125q-0.484375 0 -0.984375 0.0625l0 -6.5625l6.8125 0l0 1.5625l-5.234375 0l0 3.5625q2.84375 0 4.171875 1.296875q1.328125 1.296875 1.328125 3.203125q0 1.75 -1.203125 2.984375q-1.203125 1.21875 -3.78125 1.21875q-1.03125 0 -2.328125 -0.296875z" fill-rule="nonzero"/><path fill="#000000" fill-opacity="0.0" d="m57.743145 124.31233l153.22835 0l0 42.015747l-153.22835 0z" fill-rule="evenodd"/><path stroke="#000000" stroke-width="2.0" stroke-linejoin="round" stroke-linecap="butt" d="m57.743145 124.31233l153.22835 0l0 42.015747l-153.22835 0z" fill-rule="evenodd"/><path fill="#000000" d="m72.64939 151.57608q-1.515625 0 -2.609375 -0.96875q-1.078125 -0.984375 -1.59375 -2.625q-0.515625 -1.65625 -0.515625 -3.484375q0 -1.828125 0.515625 -3.484375q0.515625 -1.65625 1.609375 -2.625q1.09375 -0.96875 2.59375 -0.96875q1.515625 0 2.59375 0.96875q1.09375 0.96875 1.609375 2.625q0.515625 1.640625 0.515625 3.484375q0 1.8125 -0.515625 3.46875q-0.515625 1.640625 -1.609375 2.625q-1.078125 0.984375 -2.59375 0.984375zm0 -1.359375q1.46875 0 2.140625 -1.5625q0.671875 -1.578125 0.671875 -4.15625q0 -2.578125 -0.671875 -4.15625q-0.671875 -1.578125 -2.140625 -1.578125q-1.484375 0 -2.15625 1.578125q-0.65625 1.578125 -0.65625 4.15625q0 2.578125 0.65625 4.15625q0.671875 1.5625 2.15625 1.5625zm6.6874237 1.015625l3.765625 -5.109375l-3.65625 -4.78125l2.140625 0l2.890625 3.8125l2.609375 -3.8125l1.75 0l-3.421875 5.015625l3.71875 4.875l-2.125 0l-2.984375 -3.921875l-2.875 3.921875l-1.8125 0zm16.550903 0.34375q-1.515625 0 -2.609375 -0.96875q-1.078125 -0.984375 -1.59375 -2.625q-0.515625 -1.65625 -0.515625 -3.484375q0 -1.828125 0.515625 -3.484375q0.515625 -1.65625 1.609375 -2.625q1.09375 -0.96875 2.59375 -0.96875q1.515625 0 2.59375 0.96875q1.09375 0.96875 1.609375 2.625q0.515625 1.640625 0.515625 3.484375q0 1.8125 -0.515625 3.46875q-0.515625 1.640625 -1.609375 2.625q-1.078125 0.984375 -2.59375 0.984375zm0 -1.359375q1.46875 0 2.140625 -1.5625q0.671875 -1.578125 0.671875 -4.15625q0 -2.578125 -0.671875 -4.15625q-0.671875 -1.578125 -2.140625 -1.578125q-1.484375 0 -2.15625 1.578125q-0.65625 1.578125 -0.65625 4.15625q0 2.578125 0.65625 4.15625q0.671875 1.5625 2.15625 1.5625zm11.796799 1.359375q-1.515625 0 -2.609375 -0.96875q-1.078125 -0.984375 -1.59375 -2.625q-0.515625 -1.65625 -0.515625 -3.484375q0 -1.828125 0.515625 -3.484375q0.515625 -1.65625 1.609375 -2.625q1.09375 -0.96875 2.59375 -0.96875q1.515625 0 2.59375 0.96875q1.09375 0.96875 1.609375 2.625q0.515625 1.640625 0.515625 3.484375q0 1.8125 -0.515625 3.46875q-0.515625 1.640625 -1.609375 2.625q-1.078125 0.984375 -2.59375 0.984375zm0 -1.359375q1.46875 0 2.140625 -1.5625q0.671875 -1.578125 0.671875 -4.15625q0 -2.578125 -0.671875 -4.15625q-0.671875 -1.578125 -2.140625 -1.578125q-1.484375 0 -2.15625 1.578125q-0.65625 1.578125 -0.65625 4.15625q0 2.578125 0.65625 4.15625q0.671875 1.5625 2.15625 1.5625zm11.796799 1.359375q-1.515625 0 -2.609375 -0.96875q-1.078125 -0.984375 -1.59375 -2.625q-0.515625 -1.65625 -0.515625 -3.484375q0 -1.828125 0.515625 -3.484375q0.515625 -1.65625 1.609375 -2.625q1.09375 -0.96875 2.59375 -0.96875q1.515625 0 2.59375 0.96875q1.09375 0.96875 1.609375 2.625q0.515625 1.640625 0.515625 3.484375q0 1.8125 -0.515625 3.46875q-0.515625 1.640625 -1.609375 2.625q-1.078125 0.984375 -2.59375 0.984375zm0 -1.359375q1.46875 0 2.140625 -1.5625q0.671875 -1.578125 0.671875 -4.15625q0 -2.578125 -0.671875 -4.15625q-0.671875 -1.578125 -2.140625 -1.578125q-1.484375 0 -2.15625 1.578125q-0.65625 1.578125 -0.65625 4.15625q0 2.578125 0.65625 4.15625q0.671875 1.5625 2.15625 1.5625zm11.796806 1.359375q-1.515625 0 -2.609375 -0.96875q-1.0781326 -0.984375 -1.5937576 -2.625q-0.515625 -1.65625 -0.515625 -3.484375q0 -1.828125 0.515625 -3.484375q0.515625 -1.65625 1.6093826 -2.625q1.09375 -0.96875 2.59375 -0.96875q1.515625 0 2.59375 0.96875q1.09375 0.96875 1.609375 2.625q0.515625 1.640625 0.515625 3.484375q0 1.8125 -0.515625 3.46875q-0.515625 1.640625 -1.609375 2.625q-1.078125 0.984375 -2.59375 0.984375zm0 -1.359375q1.46875 0 2.140625 -1.5625q0.671875 -1.578125 0.671875 -4.15625q0 -2.578125 -0.671875 -4.15625q-0.671875 -1.578125 -2.140625 -1.578125q-1.484375 0 -2.15625 1.578125q-0.65625 1.578125 -0.65625 4.15625q0 2.578125 0.65625 4.15625q0.671875 1.5625 2.15625 1.5625zm10.765549 1.015625l0 -12.140625l-2.125 0l0 -1.125l3.9375 -0.328125l0 13.59375l-1.8125 0zm12.828049 0.34375q-1.515625 0 -2.609375 -0.96875q-1.078125 -0.984375 -1.59375 -2.625q-0.515625 -1.65625 -0.515625 -3.484375q0 -1.828125 0.515625 -3.484375q0.515625 -1.65625 1.609375 -2.625q1.09375 -0.96875 2.59375 -0.96875q1.515625 0 2.59375 0.96875q1.09375 0.96875 1.609375 2.625q0.515625 1.640625 0.515625 3.484375q0 1.8125 -0.515625 3.46875q-0.515625 1.640625 -1.609375 2.625q-1.078125 0.984375 -2.59375 0.984375zm0 -1.359375q1.46875 0 2.140625 -1.5625q0.671875 -1.578125 0.671875 -4.15625q0 -2.578125 -0.671875 -4.15625q-0.671875 -1.578125 -2.140625 -1.578125q-1.484375 0 -2.15625 1.578125q-0.65625 1.578125 -0.65625 4.15625q0 2.578125 0.65625 4.15625q0.671875 1.5625 2.15625 1.5625zm7.4374237 1.015625l0 -1.578125q0.78125 -1.828125 3.171875 -3.984375l1.03125 -0.921875q1.125 -1.015625 1.546875 -1.84375q0.4375 -0.828125 0.4375 -1.71875q0 -1.140625 -0.703125 -1.78125q-0.6875 -0.640625 -1.84375 -0.640625q-0.5 0 -0.96875 0.09375q-0.453125 0.09375 -0.984375 0.3125q-0.515625 0.203125 -1.34375 0.671875l0 -1.578125q1.796875 -0.84375 3.5625 -0.84375q1.9375 0 3.0625 1.0625q1.125 1.0625 1.125 2.65625q0 1.03125 -0.46875 1.953125q-0.453125 0.921875 -2.265625 2.46875l-0.6875 0.59375q-0.765625 0.640625 -1.53125 1.5625q-0.765625 0.90625 -0.96875 1.9375l5.859375 0l0 1.578125l-8.03125 0zm14.546799 -7.34375q-1.296875 -0.890625 -1.640625 -1.5625q-0.34375 -0.6875 -0.34375 -1.484375q0 -1.484375 1.09375 -2.453125q1.109375 -0.984375 2.953125 -0.984375q1.671875 0 2.703125 0.8125q1.03125 0.8125 1.03125 2.109375q0 0.890625 -0.53125 1.765625q-0.53125 0.859375 -1.984375 1.796875q1.703125 0.828125 2.375 1.75q0.671875 0.90625 0.671875 2.109375q0 1.5625 -1.21875 2.703125q-1.21875 1.125 -3.328125 1.125q-2.171875 0 -3.328125 -1.078125q-1.140625 -1.09375 -1.140625 -2.578125q0 -1.0625 0.625 -2.125q0.640625 -1.0625 2.0625 -1.90625zm2.28125 -0.5625q0.890625 -0.59375 1.390625 -1.296875q0.5 -0.71875 0.5 -1.46875q0 -0.78125 -0.625 -1.28125q-0.625 -0.515625 -1.671875 -0.515625q-1.0625 0 -1.65625 0.53125q-0.578125 0.515625 -0.578125 1.21875q0 0.65625 0.46875 1.265625q0.484375 0.59375 2.171875 1.546875zm-1.3125 1.296875q-1.28125 0.984375 -1.578125 1.625q-0.28125 0.640625 -0.28125 1.375q0 1.1875 0.765625 1.890625q0.78125 0.703125 1.953125 0.703125q1.09375 0 1.875 -0.578125q0.78125 -0.578125 0.78125 -1.609375q0 -0.734375 -0.421875 -1.265625q-0.40625 -0.546875 -1.8125 -1.390625l-1.28125 -0.75z" fill-rule="nonzero"/><path fill="#000000" fill-opacity="0.0" d="m239.1483 124.31102l234.29921 0l0 42.015747l-234.29921 0z" fill-rule="evenodd"/><path stroke="#000000" stroke-width="2.0" stroke-linejoin="round" stroke-linecap="butt" d="m239.1483 124.31102l234.29921 0l0 42.015747l-234.29921 0z" fill-rule="evenodd"/><path fill="#000000" d="m248.50768 151.23102l0.265625 -1.28125l5.203125 -5.84375q0.5625 -0.625 1.234375 -1.296875q-1.171875 0.125 -1.671875 0.125l-3.609375 0l0.296875 -1.375l7.4843597 0l-0.21875 1.03125l-5.2499847 5.90625q-0.453125 0.5 -1.328125 1.375q1.375 -0.09375 1.875 -0.09375l3.8124847 0l-0.296875 1.453125l-7.7968597 0zm16.687485 -3.28125l1.609375 0.15625q-0.34375 1.1875 -1.59375 2.265625q-1.234375 1.078125 -2.96875 1.078125q-1.0625 0 -1.96875 -0.5q-0.890625 -0.5 -1.359375 -1.4375q-0.46875 -0.953125 -0.46875 -2.15625q0 -1.59375 0.734375 -3.078125q0.734375 -1.484375 1.890625 -2.203125q1.171875 -0.734375 2.53125 -0.734375q1.734375 0 2.765625 1.078125q1.03125 1.0625 1.03125 2.921875q0 0.71875 -0.125 1.46875l-7.125 0q-0.046875 0.28125 -0.046875 0.5q0 1.359375 0.625 2.078125q0.625 0.71875 1.53125 0.71875q0.84375 0 1.65625 -0.546875q0.828125 -0.5625 1.28125 -1.609375zm-4.78125 -2.40625l5.421875 0q0.015625 -0.25 0.015625 -0.359375q0 -1.234375 -0.625 -1.890625q-0.625 -0.671875 -1.59375 -0.671875q-1.0625 0 -1.9375 0.734375q-0.859375 0.71875 -1.28125 2.1875zm10.391357 -5.796875l0.40625 -1.875l1.625 0l-0.390625 1.875l-1.640625 0zm-2.390625 11.484375l2.015625 -9.671875l1.65625 0l-2.03125 9.671875l-1.640625 0zm4.113556 0.875l1.671875 0.15625q-0.03125 0.5625 0.125 0.84375q0.15625 0.28125 0.5 0.4375q0.4375 0.203125 1.15625 0.203125q1.484375 0 2.140625 -0.78125q0.4375 -0.515625 0.796875 -2.25l0.171875 -0.78125q-1.296875 1.296875 -2.734375 1.296875q-1.46875 0 -2.46875 -1.078125q-0.984375 -1.078125 -0.984375 -3.0625q0 -1.625 0.78125 -2.984375q0.78125 -1.375 1.859375 -2.0625q1.078125 -0.703125 2.203125 -0.703125q1.90625 0 2.9375 1.796875l0.328125 -1.578125l1.515625 0l-1.953125 9.328125q-0.3125 1.546875 -0.84375 2.40625q-0.515625 0.859375 -1.4375 1.328125q-0.921875 0.484375 -2.140625 0.484375q-1.15625 0 -2.0 -0.3125q-0.84375 -0.296875 -1.265625 -0.875q-0.40625 -0.578125 -0.40625 -1.328125q0 -0.21875 0.046875 -0.484375zm2.0625 -5.15625q0 1.0 0.1875 1.5q0.265625 0.6875 0.765625 1.0625q0.515625 0.375 1.140625 0.375q0.8125 0 1.609375 -0.5625q0.796875 -0.578125 1.296875 -1.765625q0.5 -1.203125 0.5 -2.28125q0 -1.203125 -0.671875 -1.90625q-0.65625 -0.703125 -1.625 -0.703125q-0.609375 0 -1.171875 0.328125q-0.5625 0.3125 -1.046875 0.984375q-0.484375 0.65625 -0.734375 1.578125q-0.25 0.921875 -0.25 1.390625zm15.500732 1.0l1.609375 0.15625q-0.34375 1.1875 -1.59375 2.265625q-1.234375 1.078125 -2.96875 1.078125q-1.0625 0 -1.96875 -0.5q-0.890625 -0.5 -1.359375 -1.4375q-0.46875 -0.953125 -0.46875 -2.15625q0 -1.59375 0.734375 -3.078125q0.734375 -1.484375 1.890625 -2.203125q1.171875 -0.734375 2.53125 -0.734375q1.734375 0 2.765625 1.078125q1.03125 1.0625 1.03125 2.921875q0 0.71875 -0.125 1.46875l-7.125 0q-0.046875 0.28125 -0.046875 0.5q0 1.359375 0.625 2.078125q0.625 0.71875 1.53125 0.71875q0.84375 0 1.65625 -0.546875q0.828125 -0.5625 1.28125 -1.609375zm-4.78125 -2.40625l5.421875 0q0.015625 -0.25 0.015625 -0.359375q0 -1.234375 -0.625 -1.890625q-0.625 -0.671875 -1.59375 -0.671875q-1.0625 0 -1.9375 0.734375q-0.859375 0.71875 -1.28125 2.1875zm8.063202 5.6875l2.015625 -9.671875l1.453125 0l-0.40625 1.96875q0.75 -1.109375 1.453125 -1.640625q0.71875 -0.546875 1.46875 -0.546875q0.5 0 1.21875 0.359375l-0.671875 1.53125q-0.4375 -0.3125 -0.9375 -0.3125q-0.875 0 -1.78125 0.96875q-0.90625 0.953125 -1.4375 3.46875l-0.8125 3.875l-1.5625 0zm4.400177 3.703125l0 -1.1875l10.875 0l0 1.1875l-10.875 0zm18.703857 -4.90625q-0.859375 0.734375 -1.65625 1.078125q-0.78125 0.34375 -1.6875 0.34375q-1.34375 0 -2.171875 -0.78125q-0.8125 -0.796875 -0.8125 -2.03125q0 -0.796875 0.375 -1.421875q0.375 -0.625 0.984375 -1.0q0.609375 -0.390625 1.484375 -0.546875q0.5625 -0.109375 2.109375 -0.171875q1.5625 -0.0625 2.234375 -0.328125q0.1875 -0.671875 0.1875 -1.125q0 -0.578125 -0.421875 -0.90625q-0.5625 -0.453125 -1.671875 -0.453125q-1.03125 0 -1.703125 0.46875q-0.65625 0.453125 -0.953125 1.296875l-1.671875 -0.140625q0.515625 -1.4375 1.609375 -2.203125q1.109375 -0.765625 2.796875 -0.765625q1.796875 0 2.84375 0.859375q0.796875 0.625 0.796875 1.65625q0 0.765625 -0.21875 1.796875l-0.53125 2.40625q-0.265625 1.140625 -0.265625 1.859375q0 0.453125 0.203125 1.3125l-1.671875 0q-0.125 -0.46875 -0.1875 -1.203125zm0.609375 -3.703125q-0.34375 0.140625 -0.75 0.21875q-0.390625 0.0625 -1.3125 0.15625q-1.4375 0.125 -2.03125 0.328125q-0.59375 0.1875 -0.90625 0.625q-0.296875 0.421875 -0.296875 0.9375q0 0.6875 0.484375 1.140625q0.484375 0.4375 1.359375 0.4375q0.828125 0 1.578125 -0.421875q0.75 -0.4375 1.1875 -1.203125q0.4375 -0.78125 0.6875 -2.21875zm9.844452 3.15625q-1.734375 1.96875 -3.5625 1.96875q-1.109375 0 -1.796875 -0.640625q-0.6875 -0.640625 -0.6875 -1.578125q0 -0.609375 0.296875 -2.09375l1.171875 -5.578125l1.65625 0l-1.296875 6.1875q-0.171875 0.765625 -0.171875 1.203125q0 0.546875 0.328125 0.859375q0.34375 0.296875 0.984375 0.296875q0.703125 0 1.359375 -0.328125q0.65625 -0.34375 1.125 -0.921875q0.484375 -0.578125 0.796875 -1.359375q0.1875 -0.5 0.453125 -1.765625l0.875 -4.171875l1.65625 0l-2.03125 9.671875l-1.515625 0l0.359375 -1.75zm4.0007324 1.75l1.765625 -8.40625l-1.484375 0l0.265625 -1.265625l1.484375 0l0.28125 -1.375q0.21875 -1.03125 0.4375 -1.484375q0.234375 -0.453125 0.75 -0.75q0.53125 -0.296875 1.4375 -0.296875q0.625 0 1.828125 0.265625l-0.296875 1.4375q-0.84375 -0.21875 -1.40625 -0.21875q-0.484375 0 -0.734375 0.25q-0.25 0.234375 -0.4375 1.125l-0.21875 1.046875l1.84375 0l-0.265625 1.265625l-1.84375 0l-1.75 8.40625l-1.65625 0zm3.1520386 3.703125l0 -1.1875l10.875 0l0 1.1875l-10.875 0zm14.516357 -15.1875l0.40625 -1.875l1.625 0l-0.390625 1.875l-1.640625 0zm-2.390625 11.484375l2.015625 -9.671875l1.65625 0l-2.03125 9.671875l-1.640625 0zm4.207306 0l2.015625 -9.671875l1.5 0l-0.359375 1.6875q0.96875 -1.0 1.8125 -1.453125q0.859375 -0.453125 1.734375 -0.453125q1.1875 0 1.84375 0.640625q0.671875 0.625 0.671875 1.703125q0 0.53125 -0.234375 1.6875l-1.234375 5.859375l-1.640625 0l1.28125 -6.125q0.1875 -0.890625 0.1875 -1.328125q0 -0.484375 -0.328125 -0.78125q-0.328125 -0.296875 -0.953125 -0.296875q-1.28125 0 -2.265625 0.90625q-0.984375 0.90625 -1.453125 3.125l-0.9375 4.5l-1.640625 0zm14.219482 -1.34375l-0.265625 1.359375q-0.59375 0.140625 -1.15625 0.140625q-0.984375 0 -1.5625 -0.46875q-0.4375 -0.375 -0.4375 -1.0q0 -0.3125 0.234375 -1.46875l1.171875 -5.625l-1.296875 0l0.265625 -1.265625l1.296875 0l0.5 -2.375l1.890625 -1.140625l-0.734375 3.515625l1.625 0l-0.28125 1.265625l-1.609375 0l-1.125 5.359375q-0.203125 1.015625 -0.203125 1.21875q0 0.28125 0.15625 0.4375q0.171875 0.15625 0.5625 0.15625q0.546875 0 0.96875 -0.109375zm-0.47296143 5.046875l0 -1.1875l10.875 0l0 1.1875l-10.875 0zm14.625732 -3.703125l-1.59375 -9.671875l1.609375 0l0.828125 5.328125q0.140625 0.875 0.34375 2.84375q0.46875 -1.015625 1.203125 -2.359375l3.234375 -5.8125l1.75 0l-5.546875 9.671875l-1.828125 0zm13.40625 -1.203125q-0.859375 0.734375 -1.65625 1.078125q-0.78125 0.34375 -1.6875 0.34375q-1.34375 0 -2.171875 -0.78125q-0.8125 -0.796875 -0.8125 -2.03125q0 -0.796875 0.375 -1.421875q0.375 -0.625 0.984375 -1.0q0.609375 -0.390625 1.484375 -0.546875q0.5625 -0.109375 2.109375 -0.171875q1.5625 -0.0625 2.234375 -0.328125q0.1875 -0.671875 0.1875 -1.125q0 -0.578125 -0.421875 -0.90625q-0.5625 -0.453125 -1.671875 -0.453125q-1.03125 0 -1.703125 0.46875q-0.65625 0.453125 -0.953125 1.296875l-1.671875 -0.140625q0.515625 -1.4375 1.609375 -2.203125q1.109375 -0.765625 2.796875 -0.765625q1.796875 0 2.84375 0.859375q0.796875 0.625 0.796875 1.65625q0 0.765625 -0.21875 1.796875l-0.53125 2.40625q-0.265625 1.140625 -0.265625 1.859375q0 0.453125 0.203125 1.3125l-1.671875 0q-0.125 -0.46875 -0.1875 -1.203125zm0.609375 -3.703125q-0.34375 0.140625 -0.75 0.21875q-0.390625 0.0625 -1.3125 0.15625q-1.4375 0.125 -2.03125 0.328125q-0.59375 0.1875 -0.90625 0.625q-0.296875 0.421875 -0.296875 0.9375q0 0.6875 0.484375 1.140625q0.484375 0.4375 1.359375 0.4375q0.828125 0 1.578125 -0.421875q0.75 -0.4375 1.1875 -1.203125q0.4375 -0.78125 0.6875 -2.21875zm3.250702 4.90625l2.015625 -9.671875l1.453125 0l-0.40625 1.96875q0.75 -1.109375 1.453125 -1.640625q0.71875 -0.546875 1.46875 -0.546875q0.5 0 1.21875 0.359375l-0.671875 1.53125q-0.4375 -0.3125 -0.9375 -0.3125q-0.875 0 -1.78125 0.96875q-0.90625 0.953125 -1.4375 3.46875l-0.8125 3.875l-1.5625 0zm8.540802 -11.484375l0.40625 -1.875l1.625 0l-0.390625 1.875l-1.640625 0zm-2.390625 11.484375l2.015625 -9.671875l1.65625 0l-2.03125 9.671875l-1.640625 0zm10.722961 -1.203125q-0.859375 0.734375 -1.65625 1.078125q-0.78125 0.34375 -1.6875 0.34375q-1.34375 0 -2.171875 -0.78125q-0.8125 -0.796875 -0.8125 -2.03125q0 -0.796875 0.375 -1.421875q0.375 -0.625 0.984375 -1.0q0.609375 -0.390625 1.484375 -0.546875q0.5625 -0.109375 2.109375 -0.171875q1.5625 -0.0625 2.234375 -0.328125q0.1875 -0.671875 0.1875 -1.125q0 -0.578125 -0.421875 -0.90625q-0.5625 -0.453125 -1.671875 -0.453125q-1.03125 0 -1.703125 0.46875q-0.65625 0.453125 -0.953125 1.296875l-1.671875 -0.140625q0.515625 -1.4375 1.609375 -2.203125q1.109375 -0.765625 2.796875 -0.765625q1.796875 0 2.84375 0.859375q0.796875 0.625 0.796875 1.65625q0 0.765625 -0.21875 1.796875l-0.53125 2.40625q-0.265625 1.140625 -0.265625 1.859375q0 0.453125 0.203125 1.3125l-1.671875 0q-0.125 -0.46875 -0.1875 -1.203125zm0.609375 -3.703125q-0.34375 0.140625 -0.75 0.21875q-0.390625 0.0625 -1.3125 0.15625q-1.4375 0.125 -2.03125 0.328125q-0.59375 0.1875 -0.90625 0.625q-0.296875 0.421875 -0.296875 0.9375q0 0.6875 0.484375 1.140625q0.484375 0.4375 1.359375 0.4375q0.828125 0 1.578125 -0.421875q0.75 -0.4375 1.1875 -1.203125q0.4375 -0.78125 0.6875 -2.21875zm3.250702 4.90625l2.78125 -13.359375l1.65625 0l-1.0 4.78125q0.78125 -0.71875 1.421875 -1.015625q0.640625 -0.296875 1.328125 -0.296875q1.359375 0 2.265625 1.015625q0.90625 1.0 0.90625 2.9375q0 1.28125 -0.375 2.359375q-0.359375 1.0625 -0.890625 1.78125q-0.53125 0.71875 -1.109375 1.15625q-0.578125 0.4375 -1.1875 0.640625q-0.59375 0.21875 -1.140625 0.21875q-0.96875 0 -1.703125 -0.5q-0.71875 -0.515625 -1.125 -1.546875l-0.390625 1.828125l-1.4375 0zm2.4375 -3.96875l-0.015625 0.3125q0 1.234375 0.59375 1.890625q0.59375 0.640625 1.484375 0.640625q0.859375 0 1.578125 -0.609375q0.734375 -0.609375 1.1875 -1.890625q0.46875 -1.28125 0.46875 -2.375q0 -1.21875 -0.59375 -1.890625q-0.578125 -0.671875 -1.4375 -0.671875q-0.90625 0 -1.65625 0.6875q-0.734375 0.6875 -1.234375 2.125q-0.375 1.0625 -0.375 1.78125zm7.7976074 3.96875l2.796875 -13.359375l1.640625 0l-2.78125 13.359375l-1.65625 0zm11.379181 -3.28125l1.609375 0.15625q-0.34375 1.1875 -1.59375 2.265625q-1.234375 1.078125 -2.96875 1.078125q-1.0625 0 -1.96875 -0.5q-0.890625 -0.5 -1.359375 -1.4375q-0.46875 -0.953125 -0.46875 -2.15625q0 -1.59375 0.734375 -3.078125q0.734375 -1.484375 1.890625 -2.203125q1.171875 -0.734375 2.53125 -0.734375q1.734375 0 2.765625 1.078125q1.03125 1.0625 1.03125 2.921875q0 0.71875 -0.125 1.46875l-7.125 0q-0.046875 0.28125 -0.046875 0.5q0 1.359375 0.625 2.078125q0.625 0.71875 1.53125 0.71875q0.84375 0 1.65625 -0.546875q0.828125 -0.5625 1.28125 -1.609375zm-4.78125 -2.40625l5.421875 0q0.015625 -0.25 0.015625 -0.359375q0 -1.234375 -0.625 -1.890625q-0.625 -0.671875 -1.59375 -0.671875q-1.0625 0 -1.9375 0.734375q-0.859375 0.71875 -1.28125 2.1875z" fill-rule="nonzero"/><path fill="#000000" fill-opacity="0.0" d="m501.62827 124.94751l153.22836 0l0 42.015747l-153.22836 0z" fill-rule="evenodd"/><path stroke="#000000" stroke-width="2.0" stroke-linejoin="round" stroke-linecap="butt" d="m501.62827 124.94751l153.22836 0l0 42.015747l-153.22836 0z" fill-rule="evenodd"/><path fill="#000000" d="m516.53455 152.21126q-1.515625 0 -2.609375 -0.96875q-1.078125 -0.984375 -1.59375 -2.625q-0.5156555 -1.65625 -0.5156555 -3.484375q0 -1.828125 0.5156555 -3.484375q0.515625 -1.65625 1.609375 -2.625q1.09375 -0.96875 2.59375 -0.96875q1.515625 0 2.59375 0.96875q1.09375 0.96875 1.609375 2.625q0.515625 1.640625 0.515625 3.484375q0 1.8125 -0.515625 3.46875q-0.515625 1.640625 -1.609375 2.625q-1.078125 0.984375 -2.59375 0.984375zm0 -1.359375q1.46875 0 2.140625 -1.5625q0.671875 -1.578125 0.671875 -4.15625q0 -2.578125 -0.671875 -4.15625q-0.671875 -1.578125 -2.140625 -1.578125q-1.484375 0 -2.15625 1.578125q-0.65625 1.578125 -0.65625 4.15625q0 2.578125 0.65625 4.15625q0.671875 1.5625 2.15625 1.5625zm6.687378 1.015625l3.765625 -5.109375l-3.65625 -4.78125l2.140625 0l2.890625 3.8125l2.609375 -3.8125l1.75 0l-3.421875 5.015625l3.71875 4.875l-2.125 0l-2.984375 -3.921875l-2.875 3.921875l-1.8125 0zm16.550903 0.34375q-1.515625 0 -2.609375 -0.96875q-1.078125 -0.984375 -1.59375 -2.625q-0.515625 -1.65625 -0.515625 -3.484375q0 -1.828125 0.515625 -3.484375q0.515625 -1.65625 1.609375 -2.625q1.09375 -0.96875 2.59375 -0.96875q1.515625 0 2.59375 0.96875q1.09375 0.96875 1.609375 2.625q0.515625 1.640625 0.515625 3.484375q0 1.8125 -0.515625 3.46875q-0.515625 1.640625 -1.609375 2.625q-1.078125 0.984375 -2.59375 0.984375zm0 -1.359375q1.46875 0 2.140625 -1.5625q0.671875 -1.578125 0.671875 -4.15625q0 -2.578125 -0.671875 -4.15625q-0.671875 -1.578125 -2.140625 -1.578125q-1.484375 0 -2.15625 1.578125q-0.65625 1.578125 -0.65625 4.15625q0 2.578125 0.65625 4.15625q0.671875 1.5625 2.15625 1.5625zm11.796814 1.359375q-1.515625 0 -2.609375 -0.96875q-1.078125 -0.984375 -1.59375 -2.625q-0.515625 -1.65625 -0.515625 -3.484375q0 -1.828125 0.515625 -3.484375q0.515625 -1.65625 1.609375 -2.625q1.09375 -0.96875 2.59375 -0.96875q1.515625 0 2.59375 0.96875q1.09375 0.96875 1.609375 2.625q0.515625 1.640625 0.515625 3.484375q0 1.8125 -0.515625 3.46875q-0.515625 1.640625 -1.609375 2.625q-1.078125 0.984375 -2.59375 0.984375zm0 -1.359375q1.46875 0 2.140625 -1.5625q0.671875 -1.578125 0.671875 -4.15625q0 -2.578125 -0.671875 -4.15625q-0.671875 -1.578125 -2.140625 -1.578125q-1.484375 0 -2.15625 1.578125q-0.65625 1.578125 -0.65625 4.15625q0 2.578125 0.65625 4.15625q0.671875 1.5625 2.15625 1.5625zm11.796814 1.359375q-1.515625 0 -2.609375 -0.96875q-1.078125 -0.984375 -1.59375 -2.625q-0.515625 -1.65625 -0.515625 -3.484375q0 -1.828125 0.515625 -3.484375q0.515625 -1.65625 1.609375 -2.625q1.09375 -0.96875 2.59375 -0.96875q1.515625 0 2.59375 0.96875q1.09375 0.96875 1.609375 2.625q0.515625 1.640625 0.515625 3.484375q0 1.8125 -0.515625 3.46875q-0.515625 1.640625 -1.609375 2.625q-1.078125 0.984375 -2.59375 0.984375zm0 -1.359375q1.46875 0 2.140625 -1.5625q0.671875 -1.578125 0.671875 -4.15625q0 -2.578125 -0.671875 -4.15625q-0.671875 -1.578125 -2.140625 -1.578125q-1.484375 0 -2.15625 1.578125q-0.65625 1.578125 -0.65625 4.15625q0 2.578125 0.65625 4.15625q0.671875 1.5625 2.15625 1.5625zm11.796814 1.359375q-1.515625 0 -2.609375 -0.96875q-1.078125 -0.984375 -1.59375 -2.625q-0.515625 -1.65625 -0.515625 -3.484375q0 -1.828125 0.515625 -3.484375q0.515625 -1.65625 1.609375 -2.625q1.09375 -0.96875 2.59375 -0.96875q1.515625 0 2.59375 0.96875q1.09375 0.96875 1.609375 2.625q0.515625 1.640625 0.515625 3.484375q0 1.8125 -0.515625 3.46875q-0.515625 1.640625 -1.609375 2.625q-1.078125 0.984375 -2.59375 0.984375zm0 -1.359375q1.46875 0 2.140625 -1.5625q0.671875 -1.578125 0.671875 -4.15625q0 -2.578125 -0.671875 -4.15625q-0.671875 -1.578125 -2.140625 -1.578125q-1.484375 0 -2.15625 1.578125q-0.65625 1.578125 -0.65625 4.15625q0 2.578125 0.65625 4.15625q0.671875 1.5625 2.15625 1.5625zm10.765503 1.015625l0 -12.140625l-2.125 0l0 -1.125l3.9375 -0.328125l0 13.59375l-1.8125 0zm12.828064 0.34375q-1.515625 0 -2.609375 -0.96875q-1.078125 -0.984375 -1.59375 -2.625q-0.515625 -1.65625 -0.515625 -3.484375q0 -1.828125 0.515625 -3.484375q0.515625 -1.65625 1.609375 -2.625q1.09375 -0.96875 2.59375 -0.96875q1.515625 0 2.59375 0.96875q1.09375 0.96875 1.609375 2.625q0.515625 1.640625 0.515625 3.484375q0 1.8125 -0.515625 3.46875q-0.515625 1.640625 -1.609375 2.625q-1.078125 0.984375 -2.59375 0.984375zm0 -1.359375q1.46875 0 2.140625 -1.5625q0.671875 -1.578125 0.671875 -4.15625q0 -2.578125 -0.671875 -4.15625q-0.671875 -1.578125 -2.140625 -1.578125q-1.484375 0 -2.15625 1.578125q-0.65625 1.578125 -0.65625 4.15625q0 2.578125 0.65625 4.15625q0.671875 1.5625 2.15625 1.5625zm7.437439 1.015625l0 -1.578125q0.78125 -1.828125 3.171875 -3.984375l1.03125 -0.921875q1.125 -1.015625 1.546875 -1.84375q0.4375 -0.828125 0.4375 -1.71875q0 -1.140625 -0.703125 -1.78125q-0.6875 -0.640625 -1.84375 -0.640625q-0.5 0 -0.96875 0.09375q-0.453125 0.09375 -0.984375 0.3125q-0.515625 0.203125 -1.34375 0.671875l0 -1.578125q1.796875 -0.84375 3.5625 -0.84375q1.9375 0 3.0625 1.0625q1.125 1.0625 1.125 2.65625q0 1.03125 -0.46875 1.953125q-0.453125 0.921875 -2.265625 2.46875l-0.6875 0.59375q-0.765625 0.640625 -1.53125 1.5625q-0.765625 0.90625 -0.96875 1.9375l5.859375 0l0 1.578125l-8.03125 0zm17.265564 0l0 -3.8125l-6.0625 0l0 -1.359375l6.0625 -8.3125l1.6875 0l0 8.203125l1.8125 0l0 1.46875l-1.8125 0l0 3.8125l-1.6875 0zm-4.296875 -5.28125l4.421875 0l0 -6.0l-4.421875 6.0z" fill-rule="nonzero"/><path fill="#000000" fill-opacity="0.0" d="m56.480713 183.41208l153.22835 0l0 42.015747l-153.22835 0z" fill-rule="evenodd"/><path stroke="#000000" stroke-width="2.0" stroke-linejoin="round" stroke-linecap="butt" d="m56.480713 183.41208l153.22835 0l0 42.015747l-153.22835 0z" fill-rule="evenodd"/><path fill="#000000" d="m67.73071 210.33208l0 -1.796875l1.796875 0l0 1.796875l-1.796875 0zm6.1875 0l0 -1.796875l1.796875 0l0 1.796875l-1.796875 0zm6.171875 0l0 -1.796875l1.796875 0l0 1.796875l-1.796875 0z" fill-rule="nonzero"/><path fill="#000000" fill-opacity="0.0" d="m238.14568 183.41077l234.29921 0l0 42.015747l-234.29921 0z" fill-rule="evenodd"/><path stroke="#000000" stroke-width="2.0" stroke-linejoin="round" stroke-linecap="butt" d="m238.14568 183.41077l234.29921 0l0 42.015747l-234.29921 0z" fill-rule="evenodd"/><path fill="#000000" d="m249.31755 210.33076l0 -1.875l1.875 0l0 1.875l-1.875 0zm6.234375 0l0 -1.875l1.8593597 0l0 1.875l-1.8593597 0zm6.2031097 0l0 -1.875l1.875 0l0 1.875l-1.875 0z" fill-rule="nonzero"/><path fill="#000000" fill-opacity="0.0" d="m501.62827 183.41208l153.22836 0l0 42.015747l-153.22836 0z" fill-rule="evenodd"/><path stroke="#000000" stroke-width="2.0" stroke-linejoin="round" stroke-linecap="butt" d="m501.62827 183.41208l153.22836 0l0 42.015747l-153.22836 0z" fill-rule="evenodd"/><path fill="#000000" d="m512.8783 210.33208l0 -1.796875l1.796875 0l0 1.796875l-1.796875 0zm6.1875 0l0 -1.796875l1.796875 0l0 1.796875l-1.796875 0zm6.171875 0l0 -1.796875l1.796875 0l0 1.796875l-1.796875 0z" fill-rule="nonzero"/><path fill="#000000" fill-opacity="0.0" d="m636.1496 147.3202l44.251953 -0.37794495" fill-rule="evenodd"/><path stroke="#000000" stroke-width="2.0" stroke-linejoin="round" stroke-linecap="butt" d="m643.7293 147.25548l36.67224 -0.31321716" fill-rule="evenodd"/><path fill="#000000" stroke="#000000" stroke-width="2.0" stroke-linecap="butt" d="m637.1496 147.31168c-0.015563965 -1.8169556 1.4448242 -3.3024597 3.2617798 -3.317978c1.8168945 -0.0155181885 3.3024292 1.4448242 3.3179321 3.2617798c0.015563965 1.8169403 -1.4448242 3.3024597 -3.2617798 3.317978c-1.8169556 0.0155181885 -3.3024292 -1.4448395 -3.3179321 -3.2617798z" fill-rule="nonzero"/><path fill="#000000" fill-opacity="0.0" d="m680.40155 146.94226l0.37799072 95.74803" fill-rule="evenodd"/><path stroke="#000000" stroke-width="2.0" stroke-linejoin="round" stroke-linecap="butt" d="m680.40155 146.94226l0.37799072 95.74803" fill-rule="evenodd"/><path fill="#000000" fill-opacity="0.0" d="m679.9239 242.88977l-667.874 -0.3779602" fill-rule="evenodd"/><path stroke="#000000" stroke-width="2.0" stroke-linejoin="round" stroke-linecap="butt" d="m679.9239 242.88977l-667.874 -0.3779602" fill-rule="evenodd"/><path fill="#000000" fill-opacity="0.0" d="m12.049869 88.29396l0.56692886 152.91339" fill-rule="evenodd"/><path stroke="#000000" stroke-width="2.0" stroke-linejoin="round" stroke-linecap="butt" d="m12.049869 88.29396l0.56692886 152.91339" fill-rule="evenodd"/><path fill="#000000" fill-opacity="0.0" d="m55.860893 88.29396l-43.811024 0.37795258" fill-rule="evenodd"/><path stroke="#000000" stroke-width="2.0" stroke-linejoin="round" stroke-linecap="butt" d="m43.86134 88.397484l-31.81147 0.27442932" fill-rule="evenodd"/><path fill="#000000" stroke="#000000" stroke-width="2.0" stroke-linecap="butt" d="m43.889835 91.70082l9.047359 -3.3816376l-9.104355 -3.2250443z" fill-rule="evenodd"/></g></svg>