<svg version="1.1" viewBox="0.0 0.0 656.0 381.0" fill="none" stroke="none" stroke-linecap="square" stroke-miterlimit="10" xmlns:xlink="http://www.w3.org/1999/xlink" xmlns="http://www.w3.org/2000/svg"><clipPath id="p.0"><path d="m0 0l656.0 0l0 381.0l-656.0 0l0 -381.0z" clip-rule="nonzero"/></clipPath><g clip-path="url(#p.0)"><path fill="#000000" fill-opacity="0.0" d="m0 0l656.0 0l0 381.0l-656.0 0z" fill-rule="evenodd"/><path fill="#d9d9d9" d="m7.8293962 23.677166l221.44882 0l0 100.85039l-221.44882 0z" fill-rule="evenodd"/><path stroke="#000000" stroke-width="2.0" stroke-linejoin="round" stroke-linecap="butt" d="m7.8293962 23.677166l221.44882 0l0 100.85039l-221.44882 0z" fill-rule="evenodd"/><path fill="#ffffff" d="m22.902887 37.811024l91.40157 0l0 32.031498l-91.40157 0z" fill-rule="evenodd"/><path stroke="#000000" stroke-width="2.0" stroke-linejoin="round" stroke-linecap="butt" d="m22.902887 37.811024l91.40157 0l0 32.031498l-91.40157 0z" fill-rule="evenodd"/><path fill="#000000" d="m33.934135 51.233646l-1.296875 0l0 8.453125l1.375 0l0 -6.734375q0.046875 -0.125 0.109375 -0.234375q0.078125 -0.109375 0.1875 -0.1875q0.125 -0.109375 0.3125 -0.171875q0.203125 -0.0625 0.453125 -0.0625q0.234375 0 0.40625 0.0625q0.1875 0.0625 0.296875 0.1875q0.125 0.125 0.1875 0.328125q0.0625 0.203125 0.0625 0.46875l0 6.34375l1.375 0l0 -6.328125q0 -0.046875 0 -0.078125q0 -0.046875 0 -0.078125q0.015625 -0.203125 0.078125 -0.359375q0.078125 -0.15625 0.203125 -0.28125q0.125 -0.125 0.3125 -0.1875q0.1875 -0.078125 0.453125 -0.078125q0.234375 0 0.421875 0.0625q0.1875 0.0625 0.3125 0.1875q0.109375 0.140625 0.171875 0.34375q0.0625 0.203125 0.0625 0.46875l0 6.328125l1.375 0l0 -6.3125q0 -0.609375 -0.140625 -1.0625q-0.140625 -0.453125 -0.40625 -0.734375q-0.234375 -0.25 -0.59375 -0.375q-0.34375 -0.125 -0.78125 -0.125q-0.328125 0 -0.59375 0.078125q-0.265625 0.078125 -0.484375 0.21875q-0.171875 0.109375 -0.328125 0.265625q-0.140625 0.15625 -0.25 0.34375q-0.09375 -0.203125 -0.21875 -0.359375q-0.109375 -0.15625 -0.265625 -0.265625q-0.203125 -0.140625 -0.46875 -0.203125q-0.265625 -0.078125 -0.609375 -0.078125q-0.59375 0 -1.015625 0.25q-0.40625 0.25 -0.671875 0.703125l-0.03125 -0.796875zm15.9453125 9.640625l0 -1.1875l-7.15625 0l0 1.1875l7.15625 0zm8.2109375 -3.4375q0 0.203125 -0.078125 0.390625q-0.078125 0.171875 -0.234375 0.328125q-0.234375 0.234375 -0.671875 0.375q-0.421875 0.140625 -1.0 0.140625q-0.375 0 -0.75 -0.078125q-0.375 -0.078125 -0.671875 -0.265625q-0.3125 -0.1875 -0.53125 -0.484375q-0.203125 -0.3125 -0.234375 -0.765625l-1.4375 0q0 0.546875 0.234375 1.046875q0.25 0.5 0.71875 0.875q0.46875 0.375 1.140625 0.609375q0.671875 0.234375 1.53125 0.234375q0.75 0 1.375 -0.171875q0.640625 -0.1875 1.09375 -0.515625q0.453125 -0.328125 0.703125 -0.78125q0.25 -0.46875 0.25 -1.03125q0 -0.53125 -0.21875 -0.921875q-0.21875 -0.40625 -0.640625 -0.703125q-0.421875 -0.296875 -1.046875 -0.515625q-0.609375 -0.21875 -1.390625 -0.375q-0.59375 -0.125 -0.984375 -0.25q-0.390625 -0.125 -0.609375 -0.28125q-0.234375 -0.15625 -0.328125 -0.34375q-0.09375 -0.203125 -0.09375 -0.453125q0 -0.234375 0.109375 -0.453125q0.125 -0.234375 0.359375 -0.40625q0.21875 -0.171875 0.5625 -0.265625q0.359375 -0.109375 0.8125 -0.109375q0.453125 0 0.796875 0.125q0.359375 0.125 0.609375 0.328125q0.25 0.203125 0.390625 0.46875q0.140625 0.25 0.140625 0.53125l1.453125 0q0 -0.5625 -0.25 -1.03125q-0.234375 -0.484375 -0.671875 -0.84375q-0.4375 -0.359375 -1.0625 -0.5625q-0.625 -0.203125 -1.40625 -0.203125q-0.71875 0 -1.328125 0.203125q-0.609375 0.1875 -1.046875 0.515625q-0.4375 0.34375 -0.6875 0.796875q-0.234375 0.4375 -0.234375 0.953125q0 0.53125 0.234375 0.921875q0.234375 0.390625 0.671875 0.6875q0.421875 0.296875 1.015625 0.515625q0.59375 0.203125 1.328125 0.34375q0.59375 0.125 0.984375 0.265625q0.40625 0.140625 0.640625 0.3125q0.25 0.171875 0.34375 0.390625q0.109375 0.203125 0.109375 0.453125zm4.2109375 -6.203125l0 1.25l2.875 0l0 5.953125l-2.875 0l0 1.25l7.078125 0l0 -1.25l-2.765625 0l0 -7.203125l-4.3125 0zm2.6875 -2.21875q0 0.34375 0.203125 0.578125q0.21875 0.234375 0.65625 0.234375q0.4375 0 0.65625 -0.234375q0.21875 -0.234375 0.21875 -0.578125q0 -0.203125 -0.0625 -0.359375q-0.0625 -0.171875 -0.1875 -0.28125q-0.109375 -0.09375 -0.265625 -0.15625q-0.15625 -0.0625 -0.359375 -0.0625q-0.203125 0 -0.359375 0.0625q-0.15625 0.0625 -0.265625 0.15625q-0.125 0.125 -0.1875 0.296875q-0.046875 0.15625 -0.046875 0.34375zm8.4140625 9.484375l5.109375 -6.25l0 -1.015625l-6.875 0l0 1.1875l4.96875 0l-5.046875 6.203125l0 1.0625l7.234375 0l0 -1.1875l-5.390625 0zm11.6015625 1.34375q1.234375 0 2.078125 -0.5q0.84375 -0.5 1.265625 -1.140625l-0.890625 -0.6875q-0.390625 0.515625 -1.0 0.828125q-0.59375 0.3125 -1.375 0.3125q-0.578125 0 -1.0625 -0.21875q-0.484375 -0.21875 -0.828125 -0.59375q-0.34375 -0.359375 -0.53125 -0.828125q-0.1875 -0.46875 -0.25 -1.09375l0 -0.046875l6.046875 0l0 -0.65625q0 -0.875 -0.234375 -1.625q-0.21875 -0.765625 -0.671875 -1.328125q-0.453125 -0.5625 -1.140625 -0.875q-0.671875 -0.3125 -1.59375 -0.3125q-0.71875 0 -1.421875 0.296875q-0.6875 0.296875 -1.21875 0.84375q-0.546875 0.5625 -0.875 1.375q-0.328125 0.8125 -0.328125 1.828125l0 0.328125q0 0.890625 0.296875 1.640625q0.296875 0.75 0.828125 1.296875q0.53125 0.546875 1.265625 0.859375q0.75 0.296875 1.640625 0.296875zm-0.1875 -7.578125q0.5625 0 0.953125 0.203125q0.40625 0.203125 0.671875 0.53125q0.265625 0.328125 0.40625 0.78125q0.15625 0.4375 0.15625 0.828125l0 0.078125l-4.546875 0q0.09375 -0.59375 0.296875 -1.03125q0.21875 -0.453125 0.53125 -0.765625q0.3125 -0.3125 0.703125 -0.46875q0.390625 -0.15625 0.828125 -0.15625z" fill-rule="nonzero"/><path fill="#ffffff" d="m22.902887 69.84252l91.40157 0l0 32.031494l-91.40157 0z" fill-rule="evenodd"/><path stroke="#000000" stroke-width="2.0" stroke-linejoin="round" stroke-linecap="butt" d="m22.902887 69.84252l91.40157 0l0 32.031494l-91.40157 0z" fill-rule="evenodd"/><path fill="#000000" d="m33.934135 83.265144l-1.296875 0l0 8.453125l1.375 0l0 -6.734375q0.046875 -0.125 0.109375 -0.234375q0.078125 -0.109375 0.1875 -0.1875q0.125 -0.109375 0.3125 -0.171875q0.203125 -0.0625 0.453125 -0.0625q0.234375 0 0.40625 0.0625q0.1875 0.0625 0.296875 0.1875q0.125 0.125 0.1875 0.328125q0.0625 0.203125 0.0625 0.46875l0 6.34375l1.375 0l0 -6.328125q0 -0.046875 0 -0.078125q0 -0.046875 0 -0.078125q0.015625 -0.203125 0.078125 -0.359375q0.078125 -0.15625 0.203125 -0.28125q0.125 -0.125 0.3125 -0.1875q0.1875 -0.078125 0.453125 -0.078125q0.234375 0 0.421875 0.0625q0.1875 0.0625 0.3125 0.1875q0.109375 0.140625 0.171875 0.34375q0.0625 0.203125 0.0625 0.46875l0 6.328125l1.375 0l0 -6.3125q0 -0.609375 -0.140625 -1.0625q-0.140625 -0.453125 -0.40625 -0.734375q-0.234375 -0.25 -0.59375 -0.375q-0.34375 -0.125 -0.78125 -0.125q-0.328125 0 -0.59375 0.078125q-0.265625 0.078125 -0.484375 0.21875q-0.171875 0.109375 -0.328125 0.265625q-0.140625 0.15625 -0.25 0.34375q-0.09375 -0.203125 -0.21875 -0.359375q-0.109375 -0.15625 -0.265625 -0.265625q-0.203125 -0.140625 -0.46875 -0.203125q-0.265625 -0.078125 -0.609375 -0.078125q-0.59375 0 -1.015625 0.25q-0.40625 0.25 -0.671875 0.703125l-0.03125 -0.796875zm15.9453125 9.640625l0 -1.1875l-7.15625 0l0 1.1875l7.15625 0zm2.3203125 -5.484375l0 0.15625q0 0.90625 0.234375 1.703125q0.25 0.78125 0.6875 1.359375q0.4375 0.578125 1.046875 0.90625q0.625 0.328125 1.390625 0.328125q0.78125 0 1.359375 -0.265625q0.59375 -0.265625 1.015625 -0.78125l0.0625 0.890625l1.328125 0l0 -12.0l-1.4375 0l0 4.375q-0.421875 -0.484375 -0.984375 -0.734375q-0.5625 -0.25 -1.328125 -0.25q-0.765625 0 -1.390625 0.328125q-0.625 0.3125 -1.0625 0.875q-0.453125 0.578125 -0.6875 1.375q-0.234375 0.78125 -0.234375 1.734375zm1.4375 0.15625l0 -0.15625q0 -0.625 0.125 -1.171875q0.140625 -0.5625 0.421875 -1.0q0.28125 -0.421875 0.703125 -0.671875q0.4375 -0.25 1.046875 -0.25q0.71875 0 1.1875 0.34375q0.484375 0.328125 0.765625 0.84375l0 3.921875q-0.28125 0.546875 -0.765625 0.875q-0.46875 0.328125 -1.203125 0.328125q-0.59375 0 -1.03125 -0.234375q-0.421875 -0.25 -0.703125 -0.671875q-0.28125 -0.421875 -0.421875 -0.96875q-0.125 -0.5625 -0.125 -1.1875zm13.9921875 4.140625l1.5 0l0 -0.125q-0.140625 -0.359375 -0.21875 -0.828125q-0.078125 -0.46875 -0.078125 -0.890625l0 -3.9375q0 -0.703125 -0.265625 -1.234375q-0.25 -0.53125 -0.6875 -0.890625q-0.453125 -0.359375 -1.078125 -0.53125q-0.609375 -0.171875 -1.328125 -0.171875q-0.796875 0 -1.421875 0.21875q-0.609375 0.21875 -1.046875 0.5625q-0.4375 0.359375 -0.671875 0.8125q-0.21875 0.4375 -0.234375 0.90625l1.453125 0q0 -0.265625 0.125 -0.515625q0.140625 -0.25 0.375 -0.421875q0.234375 -0.1875 0.5625 -0.296875q0.34375 -0.109375 0.78125 -0.109375q0.453125 0 0.828125 0.125q0.375 0.109375 0.625 0.328125q0.265625 0.21875 0.40625 0.53125q0.140625 0.296875 0.140625 0.671875l0 0.671875l-1.578125 0q-0.890625 0 -1.609375 0.171875q-0.703125 0.171875 -1.21875 0.515625q-0.5 0.34375 -0.78125 0.875q-0.28125 0.515625 -0.28125 1.21875q0 0.53125 0.203125 0.984375q0.21875 0.453125 0.59375 0.78125q0.375 0.34375 0.921875 0.546875q0.546875 0.1875 1.21875 0.1875q0.40625 0 0.765625 -0.09375q0.375 -0.078125 0.703125 -0.234375q0.328125 -0.140625 0.59375 -0.328125q0.265625 -0.203125 0.484375 -0.421875q0.03125 0.265625 0.078125 0.515625q0.046875 0.234375 0.140625 0.40625zm-2.5625 -1.109375q-0.421875 0 -0.75 -0.109375q-0.3125 -0.109375 -0.515625 -0.296875q-0.21875 -0.1875 -0.328125 -0.453125q-0.09375 -0.265625 -0.09375 -0.578125q0 -0.328125 0.109375 -0.578125q0.125 -0.265625 0.359375 -0.453125q0.328125 -0.265625 0.890625 -0.390625q0.5625 -0.140625 1.3125 -0.140625l1.34375 0l0 1.71875q-0.125 0.25 -0.34375 0.484375q-0.21875 0.21875 -0.515625 0.40625q-0.3125 0.171875 -0.6875 0.28125q-0.359375 0.109375 -0.78125 0.109375zm10.0234375 -9.390625l-1.453125 0l0 2.046875l-2.21875 0l0 1.109375l2.21875 0l0 4.59375q0 0.78125 0.203125 1.34375q0.21875 0.546875 0.578125 0.890625q0.359375 0.34375 0.84375 0.515625q0.484375 0.15625 1.046875 0.15625q0.34375 0 0.671875 -0.03125q0.34375 -0.03125 0.65625 -0.09375q0.296875 -0.0625 0.546875 -0.140625q0.265625 -0.078125 0.453125 -0.1875l-0.203125 -1.03125q-0.140625 0.03125 -0.34375 0.078125q-0.203125 0.046875 -0.4375 0.078125q-0.25 0.046875 -0.5 0.078125q-0.25 0.015625 -0.484375 0.015625q-0.3125 0 -0.609375 -0.078125q-0.28125 -0.078125 -0.5 -0.265625q-0.21875 -0.1875 -0.34375 -0.5q-0.125 -0.328125 -0.125 -0.828125l0 -4.59375l3.21875 0l0 -1.109375l-3.21875 0l0 -2.046875zm11.7421875 10.5l1.5 0l0 -0.125q-0.140625 -0.359375 -0.21875 -0.828125q-0.078125 -0.46875 -0.078125 -0.890625l0 -3.9375q0 -0.703125 -0.265625 -1.234375q-0.25 -0.53125 -0.6875 -0.890625q-0.453125 -0.359375 -1.078125 -0.53125q-0.609375 -0.171875 -1.328125 -0.171875q-0.796875 0 -1.421875 0.21875q-0.609375 0.21875 -1.046875 0.5625q-0.4375 0.359375 -0.671875 0.8125q-0.21875 0.4375 -0.234375 0.90625l1.453125 0q0 -0.265625 0.125 -0.515625q0.140625 -0.25 0.375 -0.421875q0.234375 -0.1875 0.5625 -0.296875q0.34375 -0.109375 0.78125 -0.109375q0.453125 0 0.828125 0.125q0.375 0.109375 0.625 0.328125q0.265625 0.21875 0.40625 0.53125q0.140625 0.296875 0.140625 0.671875l0 0.671875l-1.578125 0q-0.890625 0 -1.609375 0.171875q-0.703125 0.171875 -1.21875 0.515625q-0.5 0.34375 -0.78125 0.875q-0.28125 0.515625 -0.28125 1.21875q0 0.53125 0.203125 0.984375q0.21875 0.453125 0.59375 0.78125q0.375 0.34375 0.921875 0.546875q0.546875 0.1875 1.21875 0.1875q0.40625 0 0.765625 -0.09375q0.375 -0.078125 0.703125 -0.234375q0.328125 -0.140625 0.59375 -0.328125q0.265625 -0.203125 0.484375 -0.421875q0.03125 0.265625 0.078125 0.515625q0.046875 0.234375 0.140625 0.40625zm-2.5625 -1.109375q-0.421875 0 -0.75 -0.109375q-0.3125 -0.109375 -0.515625 -0.296875q-0.21875 -0.1875 -0.328125 -0.453125q-0.09375 -0.265625 -0.09375 -0.578125q0 -0.328125 0.109375 -0.578125q0.125 -0.265625 0.359375 -0.453125q0.328125 -0.265625 0.890625 -0.390625q0.5625 -0.140625 1.3125 -0.140625l1.34375 0l0 1.71875q-0.125 0.25 -0.34375 0.484375q-0.21875 0.21875 -0.515625 0.40625q-0.3125 0.171875 -0.6875 0.28125q-0.359375 0.109375 -0.78125 0.109375z" fill-rule="nonzero"/><path fill="#ffffff" d="m114.30446 37.811024l91.40158 0l0 32.031498l-91.40158 0z" fill-rule="evenodd"/><path stroke="#000000" stroke-width="2.0" stroke-linejoin="round" stroke-linecap="butt" d="m114.30446 37.811024l91.40158 0l0 32.031498l-91.40158 0z" fill-rule="evenodd"/><path fill="#000000" d="m157.07947 53.983646l1.15625 0.296875q0.203125 -0.171875 0.375 -0.296875q0.1875 -0.140625 0.40625 -0.234375q0.203125 -0.09375 0.46875 -0.140625q0.265625 -0.0625 0.625 -0.0625q0.546875 0 0.96875 0.203125q0.421875 0.1875 0.703125 0.53125q0.296875 0.34375 0.4375 0.8125q0.15625 0.453125 0.15625 0.984375q0 0.578125 -0.140625 1.0625q-0.125 0.46875 -0.390625 0.8125q-0.28125 0.34375 -0.6875 0.53125q-0.390625 0.171875 -0.90625 0.171875q-0.90625 0 -1.5 -0.5q-0.578125 -0.5 -0.703125 -1.46875l-1.375 0q0.078125 0.796875 0.375 1.390625q0.3125 0.59375 0.796875 0.984375q0.484375 0.390625 1.09375 0.59375q0.625 0.1875 1.3125 0.1875q0.90625 0 1.578125 -0.28125q0.671875 -0.296875 1.125 -0.796875q0.4375 -0.5 0.65625 -1.1875q0.21875 -0.703125 0.21875 -1.515625q0 -0.859375 -0.234375 -1.5625q-0.234375 -0.703125 -0.671875 -1.203125q-0.4375 -0.5 -1.0625 -0.765625q-0.625 -0.28125 -1.421875 -0.28125q-0.609375 0 -1.078125 0.15625q-0.46875 0.140625 -0.8125 0.34375l0.328125 -3.03125l4.609375 0l0 -1.40625l-5.828125 0l-0.578125 5.671875z" fill-rule="nonzero"/><path fill="#ffffff" d="m114.30446 69.84252l91.40158 0l0 32.031494l-91.40158 0z" fill-rule="evenodd"/><path stroke="#000000" stroke-width="2.0" stroke-linejoin="round" stroke-linecap="butt" d="m114.30446 69.84252l91.40158 0l0 32.031494l-91.40158 0z" fill-rule="evenodd"/><path fill="#000000" fill-opacity="0.0" d="m96.490326 122.84252l144.66142 0l0 38.771645l-144.66142 0z" fill-rule="evenodd"/><path fill="#000000" d="m108.67518 147.20251l3.640625 0q0.734375 -0.015625 1.40625 -0.234375q0.6875 -0.21875 1.21875 -0.625q0.515625 -0.40625 0.828125 -1.015625q0.3125 -0.609375 0.3125 -1.40625q0 -0.515625 -0.15625 -0.953125q-0.15625 -0.4375 -0.421875 -0.78125q-0.265625 -0.328125 -0.671875 -0.59375q-0.390625 -0.265625 -0.8125 -0.359375l0 -0.03125q0.40625 -0.171875 0.703125 -0.375q0.296875 -0.203125 0.53125 -0.5q0.234375 -0.296875 0.375 -0.65625q0.140625 -0.375 0.140625 -0.8125q0.015625 -0.796875 -0.296875 -1.359375q-0.3125 -0.578125 -0.84375 -0.953125q-0.515625 -0.359375 -1.1875 -0.53125q-0.671875 -0.1875 -1.375 -0.1875l-3.390625 0l0 11.375zm1.453125 -5.328125l2.3125 0q0.453125 0.015625 0.84375 0.15625q0.40625 0.140625 0.703125 0.40625q0.296875 0.265625 0.46875 0.640625q0.171875 0.375 0.15625 0.859375q0 0.46875 -0.1875 0.84375q-0.171875 0.375 -0.484375 0.640625q-0.3125 0.25 -0.71875 0.40625q-0.40625 0.140625 -0.859375 0.140625l-2.234375 0l0 -4.09375zm0 -1.203125l0 -3.609375l1.984375 0q0.421875 0 0.8125 0.109375q0.40625 0.09375 0.71875 0.3125q0.3125 0.21875 0.484375 0.5625q0.1875 0.328125 0.1875 0.796875q0 0.453125 -0.1875 0.796875q-0.1875 0.328125 -0.484375 0.546875q-0.3125 0.234375 -0.703125 0.359375q-0.390625 0.125 -0.796875 0.125l-2.015625 0zm8.3984375 -1.921875l0 1.25l2.875 0l0 5.953125l-2.875 0l0 1.25l7.078125 0l0 -1.25l-2.765625 0l0 -7.203125l-4.3125 0zm2.6875 -2.21875q0 0.34375 0.203125 0.578125q0.21875 0.234375 0.65625 0.234375q0.4375 0 0.65625 -0.234375q0.21875 -0.234375 0.21875 -0.578125q0 -0.203125 -0.0625 -0.359375q-0.0625 -0.171875 -0.1875 -0.28125q-0.109375 -0.09375 -0.265625 -0.15625q-0.15625 -0.0625 -0.359375 -0.0625q-0.203125 0 -0.359375 0.0625q-0.15625 0.0625 -0.265625 0.15625q-0.125 0.125 -0.1875 0.296875q-0.046875 0.15625 -0.046875 0.34375zm6.4140625 6.375l0 0.15625q0 0.90625 0.234375 1.703125q0.23436737 0.78125 0.6718674 1.359375q0.4375 0.578125 1.0625 0.90625q0.625 0.328125 1.390625 0.328125q0.46875 0 0.859375 -0.109375q0.40625 -0.09375 0.734375 -0.265625q0.203125 -0.125 0.390625 -0.28125q0.1875 -0.15625 0.34375 -0.34375l0 0.734375q0 0.546875 -0.15625 0.96875q-0.15625 0.421875 -0.4375 0.703125q-0.296875 0.296875 -0.71875 0.4375q-0.40625 0.15625 -0.921875 0.15625q-0.296875 0 -0.59375 -0.0625q-0.28125 -0.0625 -0.5625 -0.1875q-0.296875 -0.140625 -0.578125 -0.359375q-0.28125 -0.21875 -0.546875 -0.546875l-0.75 0.875q0.296875 0.40625 0.6875 0.6875q0.40625 0.28125 0.84375 0.453125q0.4375 0.171875 0.859375 0.234375q0.421875 0.078125 0.75 0.078125q0.796875 0 1.453125 -0.234375q0.65625 -0.234375 1.125 -0.6875q0.46875 -0.453125 0.734375 -1.109375q0.265625 -0.640625 0.265625 -1.484375l0 -8.265625l-1.3125 0l-0.078125 0.921875q-0.140625 -0.1875 -0.3125 -0.34375q-0.171875 -0.15625 -0.359375 -0.28125q-0.34375 -0.21875 -0.765625 -0.328125q-0.421875 -0.125 -0.9375 -0.125q-0.78125 0 -1.40625 0.328125q-0.625 0.3125 -1.0625 0.875q-0.4375 0.578125 -0.6718674 1.375q-0.234375 0.78125 -0.234375 1.734375zm1.4531174 0.15625l0 -0.15625q0 -0.625 0.125 -1.171875q0.125 -0.5625 0.40625 -1.0q0.28125 -0.421875 0.703125 -0.671875q0.4375 -0.25 1.046875 -0.25q0.359375 0 0.65625 0.09375q0.296875 0.09375 0.546875 0.25q0.234375 0.15625 0.421875 0.375q0.1875 0.21875 0.328125 0.484375l0 3.875q-0.140625 0.28125 -0.328125 0.515625q-0.1875 0.21875 -0.421875 0.375q-0.234375 0.171875 -0.546875 0.265625q-0.296875 0.078125 -0.671875 0.078125q-0.59375 0 -1.03125 -0.234375q-0.421875 -0.25 -0.703125 -0.671875q-0.28125 -0.421875 -0.40625 -0.96875q-0.125 -0.5625 -0.125 -1.1875zm8.2734375 4.140625l2.625 0q0.828125 -0.015625 1.53125 -0.203125q0.703125 -0.1875 1.265625 -0.53125q0.53125 -0.34375 0.953125 -0.8125q0.4375 -0.484375 0.71875 -1.0625q0.28125 -0.5625 0.421875 -1.234375q0.140625 -0.671875 0.140625 -1.421875l0 -0.84375q0 -0.78125 -0.15625 -1.46875q-0.15625 -0.6875 -0.4375 -1.265625q-0.328125 -0.671875 -0.859375 -1.1875q-0.53125 -0.53125 -1.234375 -0.84375q-0.5 -0.234375 -1.09375 -0.359375q-0.578125 -0.140625 -1.25 -0.140625l-2.625 0l0 11.375zm1.46875 -10.1875l1.15625 0q0.546875 0 1.0 0.125q0.453125 0.109375 0.8125 0.3125q0.515625 0.265625 0.875 0.71875q0.359375 0.4375 0.5625 0.984375q0.171875 0.421875 0.25 0.90625q0.078125 0.484375 0.09375 1.015625l0 0.859375q-0.015625 0.515625 -0.09375 1.0q-0.078125 0.484375 -0.234375 0.890625q-0.171875 0.515625 -0.484375 0.921875q-0.3125 0.40625 -0.734375 0.6875q-0.390625 0.28125 -0.90625 0.4375q-0.515625 0.140625 -1.140625 0.140625l-1.15625 0l0 -9.0zm13.8359375 10.1875l1.5 0l0 -0.125q-0.140625 -0.359375 -0.21875 -0.828125q-0.078125 -0.46875 -0.078125 -0.890625l0 -3.9375q0 -0.703125 -0.265625 -1.234375q-0.25 -0.53125 -0.6875 -0.890625q-0.453125 -0.359375 -1.078125 -0.53125q-0.609375 -0.171875 -1.328125 -0.171875q-0.796875 0 -1.421875 0.21875q-0.609375 0.21875 -1.046875 0.5625q-0.4375 0.359375 -0.671875 0.8125q-0.21875 0.4375 -0.234375 0.90625l1.453125 0q0 -0.265625 0.125 -0.515625q0.140625 -0.25 0.375 -0.421875q0.234375 -0.1875 0.5625 -0.296875q0.34375 -0.109375 0.78125 -0.109375q0.453125 0 0.828125 0.125q0.375 0.109375 0.625 0.328125q0.265625 0.21875 0.40625 0.53125q0.140625 0.296875 0.140625 0.671875l0 0.671875l-1.578125 0q-0.890625 0 -1.609375 0.171875q-0.703125 0.171875 -1.21875 0.515625q-0.5 0.34375 -0.78125 0.875q-0.28125 0.515625 -0.28125 1.21875q0 0.53125 0.203125 0.984375q0.21875 0.453125 0.59375 0.78125q0.375 0.34375 0.921875 0.546875q0.546875 0.1875 1.21875 0.1875q0.40625 0 0.765625 -0.09375q0.375 -0.078125 0.703125 -0.234375q0.328125 -0.140625 0.59375 -0.328125q0.265625 -0.203125 0.484375 -0.421875q0.03125 0.265625 0.078125 0.515625q0.046875 0.234375 0.140625 0.40625zm-2.5625 -1.109375q-0.421875 0 -0.75 -0.109375q-0.3125 -0.109375 -0.515625 -0.296875q-0.21875 -0.1875 -0.328125 -0.453125q-0.09375 -0.265625 -0.09375 -0.578125q0 -0.328125 0.109375 -0.578125q0.125 -0.265625 0.359375 -0.453125q0.328125 -0.265625 0.890625 -0.390625q0.5625 -0.140625 1.3125 -0.140625l1.34375 0l0 1.71875q-0.125 0.25 -0.34375 0.484375q-0.21875 0.21875 -0.515625 0.40625q-0.3125 0.171875 -0.6875 0.28125q-0.359375 0.109375 -0.78125 0.109375zm10.0234375 -9.390625l-1.453125 0l0 2.046875l-2.21875 0l0 1.109375l2.21875 0l0 4.59375q0 0.78125 0.203125 1.34375q0.21875 0.546875 0.578125 0.890625q0.359375 0.34375 0.84375 0.515625q0.484375 0.15625 1.046875 0.15625q0.34375 0 0.671875 -0.03125q0.34375 -0.03125 0.65625 -0.09375q0.296875 -0.0625 0.546875 -0.140625q0.265625 -0.078125 0.453125 -0.1875l-0.203125 -1.03125q-0.140625 0.03125 -0.34375 0.078125q-0.203125 0.046875 -0.4375 0.078125q-0.25 0.046875 -0.5 0.078125q-0.25 0.015625 -0.484375 0.015625q-0.3125 0 -0.609375 -0.078125q-0.28125 -0.078125 -0.5 -0.265625q-0.21875 -0.1875 -0.34375 -0.5q-0.125 -0.328125 -0.125 -0.828125l0 -4.59375l3.21875 0l0 -1.109375l-3.21875 0l0 -2.046875zm11.7421875 10.5l1.5 0l0 -0.125q-0.140625 -0.359375 -0.21875 -0.828125q-0.078125 -0.46875 -0.078125 -0.890625l0 -3.9375q0 -0.703125 -0.265625 -1.234375q-0.25 -0.53125 -0.6875 -0.890625q-0.453125 -0.359375 -1.078125 -0.53125q-0.609375 -0.171875 -1.328125 -0.171875q-0.796875 0 -1.421875 0.21875q-0.609375 0.21875 -1.046875 0.5625q-0.4375 0.359375 -0.671875 0.8125q-0.21875 0.4375 -0.234375 0.90625l1.453125 0q0 -0.265625 0.125 -0.515625q0.140625 -0.25 0.375 -0.421875q0.234375 -0.1875 0.5625 -0.296875q0.34375 -0.109375 0.78125 -0.109375q0.453125 0 0.828125 0.125q0.375 0.109375 0.625 0.328125q0.265625 0.21875 0.40625 0.53125q0.140625 0.296875 0.140625 0.671875l0 0.671875l-1.578125 0q-0.890625 0 -1.609375 0.171875q-0.703125 0.171875 -1.21875 0.515625q-0.5 0.34375 -0.78125 0.875q-0.28125 0.515625 -0.28125 1.21875q0 0.53125 0.203125 0.984375q0.21875 0.453125 0.59375 0.78125q0.375 0.34375 0.921875 0.546875q0.546875 0.1875 1.21875 0.1875q0.40625 0 0.765625 -0.09375q0.375 -0.078125 0.703125 -0.234375q0.328125 -0.140625 0.59375 -0.328125q0.265625 -0.203125 0.484375 -0.421875q0.03125 0.265625 0.078125 0.515625q0.046875 0.234375 0.140625 0.40625zm-2.5625 -1.109375q-0.421875 0 -0.75 -0.109375q-0.3125 -0.109375 -0.515625 -0.296875q-0.21875 -0.1875 -0.328125 -0.453125q-0.09375 -0.265625 -0.09375 -0.578125q0 -0.328125 0.109375 -0.578125q0.125 -0.265625 0.359375 -0.453125q0.328125 -0.265625 0.890625 -0.390625q0.5625 -0.140625 1.3125 -0.140625l1.34375 0l0 1.71875q-0.125 0.25 -0.34375 0.484375q-0.21875 0.21875 -0.515625 0.40625q-0.3125 0.171875 -0.6875 0.28125q-0.359375 0.109375 -0.78125 0.109375zm15.9375 -3.1875l0 0.15625q0 0.90625 0.234375 1.703125q0.25 0.78125 0.6875 1.359375q0.4375 0.578125 1.046875 0.90625q0.625 0.328125 1.390625 0.328125q0.78125 0 1.359375 -0.265625q0.59375 -0.265625 1.015625 -0.78125l0.0625 0.890625l1.328125 0l0 -12.0l-1.4375 0l0 4.375q-0.421875 -0.484375 -0.984375 -0.734375q-0.5625 -0.25 -1.328125 -0.25q-0.765625 0 -1.390625 0.328125q-0.625 0.3125 -1.0625 0.875q-0.453125 0.578125 -0.6875 1.375q-0.234375 0.78125 -0.234375 1.734375zm1.4375 0.15625l0 -0.15625q0 -0.625 0.125 -1.171875q0.140625 -0.5625 0.421875 -1.0q0.28125 -0.421875 0.703125 -0.671875q0.4375 -0.25 1.046875 -0.25q0.71875 0 1.1875 0.34375q0.484375 0.328125 0.765625 0.84375l0 3.921875q-0.28125 0.546875 -0.765625 0.875q-0.46875 0.328125 -1.203125 0.328125q-0.59375 0 -1.03125 -0.234375q-0.421875 -0.25 -0.703125 -0.671875q-0.28125 -0.421875 -0.421875 -0.96875q-0.125 -0.5625 -0.125 -1.1875zm13.9921875 4.140625l1.5 0l0 -0.125q-0.140625 -0.359375 -0.21875 -0.828125q-0.078125 -0.46875 -0.078125 -0.890625l0 -3.9375q0 -0.703125 -0.265625 -1.234375q-0.25 -0.53125 -0.6875 -0.890625q-0.453125 -0.359375 -1.078125 -0.53125q-0.609375 -0.171875 -1.328125 -0.171875q-0.796875 0 -1.421875 0.21875q-0.609375 0.21875 -1.046875 0.5625q-0.4375 0.359375 -0.671875 0.8125q-0.21875 0.4375 -0.234375 0.90625l1.453125 0q0 -0.265625 0.125 -0.515625q0.140625 -0.25 0.375 -0.421875q0.234375 -0.1875 0.5625 -0.296875q0.34375 -0.109375 0.78125 -0.109375q0.453125 0 0.828125 0.125q0.375 0.109375 0.625 0.328125q0.265625 0.21875 0.40625 0.53125q0.140625 0.296875 0.140625 0.671875l0 0.671875l-1.578125 0q-0.890625 0 -1.609375 0.171875q-0.703125 0.171875 -1.21875 0.515625q-0.5 0.34375 -0.78125 0.875q-0.28125 0.515625 -0.28125 1.21875q0 0.53125 0.203125 0.984375q0.21875 0.453125 0.59375 0.78125q0.375 0.34375 0.921875 0.546875q0.546875 0.1875 1.21875 0.1875q0.40625 0 0.765625 -0.09375q0.375 -0.078125 0.703125 -0.234375q0.328125 -0.140625 0.59375 -0.328125q0.265625 -0.203125 0.484375 -0.421875q0.03125 0.265625 0.078125 0.515625q0.046875 0.234375 0.140625 0.40625zm-2.5625 -1.109375q-0.421875 0 -0.75 -0.109375q-0.3125 -0.109375 -0.515625 -0.296875q-0.21875 -0.1875 -0.328125 -0.453125q-0.09375 -0.265625 -0.09375 -0.578125q0 -0.328125 0.109375 -0.578125q0.125 -0.265625 0.359375 -0.453125q0.328125 -0.265625 0.890625 -0.390625q0.5625 -0.140625 1.3125 -0.140625l1.34375 0l0 1.71875q-0.125 0.25 -0.34375 0.484375q-0.21875 0.21875 -0.515625 0.40625q-0.3125 0.171875 -0.6875 0.28125q-0.359375 0.109375 -0.78125 0.109375zm10.0234375 -9.390625l-1.453125 0l0 2.046875l-2.21875 0l0 1.109375l2.21875 0l0 4.59375q0 0.78125 0.203125 1.34375q0.21875 0.546875 0.578125 0.890625q0.359375 0.34375 0.84375 0.515625q0.484375 0.15625 1.046875 0.15625q0.34375 0 0.671875 -0.03125q0.34375 -0.03125 0.65625 -0.09375q0.296875 -0.0625 0.546875 -0.140625q0.265625 -0.078125 0.453125 -0.1875l-0.203125 -1.03125q-0.140625 0.03125 -0.34375 0.078125q-0.203125 0.046875 -0.4375 0.078125q-0.25 0.046875 -0.5 0.078125q-0.25 0.015625 -0.484375 0.015625q-0.3125 0 -0.609375 -0.078125q-0.28125 -0.078125 -0.5 -0.265625q-0.21875 -0.1875 -0.34375 -0.5q-0.125 -0.328125 -0.125 -0.828125l0 -4.59375l3.21875 0l0 -1.109375l-3.21875 0l0 -2.046875zm11.7421875 10.5l1.5 0l0 -0.125q-0.140625 -0.359375 -0.21875 -0.828125q-0.078125 -0.46875 -0.078125 -0.890625l0 -3.9375q0 -0.703125 -0.265625 -1.234375q-0.25 -0.53125 -0.6875 -0.890625q-0.453125 -0.359375 -1.078125 -0.53125q-0.609375 -0.171875 -1.328125 -0.171875q-0.796875 0 -1.421875 0.21875q-0.609375 0.21875 -1.046875 0.5625q-0.4375 0.359375 -0.671875 0.8125q-0.21875 0.4375 -0.234375 0.90625l1.453125 0q0 -0.265625 0.125 -0.515625q0.140625 -0.25 0.375 -0.421875q0.234375 -0.1875 0.5625 -0.296875q0.34375 -0.109375 0.78125 -0.109375q0.453125 0 0.828125 0.125q0.375 0.109375 0.625 0.328125q0.265625 0.21875 0.40625 0.53125q0.140625 0.296875 0.140625 0.671875l0 0.671875l-1.578125 0q-0.890625 0 -1.609375 0.171875q-0.703125 0.171875 -1.21875 0.515625q-0.5 0.34375 -0.78125 0.875q-0.28125 0.515625 -0.28125 1.21875q0 0.53125 0.203125 0.984375q0.21875 0.453125 0.59375 0.78125q0.375 0.34375 0.921875 0.546875q0.546875 0.1875 1.21875 0.1875q0.40625 0 0.765625 -0.09375q0.375 -0.078125 0.703125 -0.234375q0.328125 -0.140625 0.59375 -0.328125q0.265625 -0.203125 0.484375 -0.421875q0.03125 0.265625 0.078125 0.515625q0.046875 0.234375 0.140625 0.40625zm-2.5625 -1.109375q-0.421875 0 -0.75 -0.109375q-0.3125 -0.109375 -0.515625 -0.296875q-0.21875 -0.1875 -0.328125 -0.453125q-0.09375 -0.265625 -0.09375 -0.578125q0 -0.328125 0.109375 -0.578125q0.125 -0.265625 0.359375 -0.453125q0.328125 -0.265625 0.890625 -0.390625q0.5625 -0.140625 1.3125 -0.140625l1.34375 0l0 1.71875q-0.125 0.25 -0.34375 0.484375q-0.21875 0.21875 -0.515625 0.40625q-0.3125 0.171875 -0.6875 0.28125q-0.359375 0.109375 -0.78125 0.109375zm11.2890625 1.109375l0 -11.375l-0.109375 0l-4.3125 1.65625l0 1.3125l2.984375 -1.125l0 9.53125l1.4375 0z" fill-rule="nonzero"/><path fill="#ffffff" d="m481.22046 9.220472l32.125977 0l0 32.031494l-32.125977 0z" fill-rule="evenodd"/><path stroke="#000000" stroke-width="2.0" stroke-linejoin="round" stroke-linecap="butt" d="m481.22046 9.220472l32.125977 0l0 32.031494l-32.125977 0z" fill-rule="evenodd"/><path fill="#000000" d="m498.52957 31.09622l0 -11.375l-0.109375 0l-4.3125 1.65625l0 1.3125l2.984375 -1.125l0 9.53125l1.4375 0z" fill-rule="nonzero"/><path fill="#ffffff" d="m513.34644 9.220472l32.125977 0l0 32.031494l-32.125977 0z" fill-rule="evenodd"/><path stroke="#000000" stroke-width="2.0" stroke-linejoin="round" stroke-linecap="butt" d="m513.34644 9.220472l32.125977 0l0 32.031494l-32.125977 0z" fill-rule="evenodd"/><path fill="#000000" d="m532.9524 31.09622l0 -1.1875l-5.71875 0l3.0625 -3.3125q0.421875 -0.46875 0.8125 -0.9375q0.390625 -0.46875 0.6875 -0.953125q0.28125 -0.484375 0.453125 -0.984375q0.171875 -0.5 0.171875 -1.0q0 -0.6875 -0.234375 -1.265625q-0.234375 -0.578125 -0.6875 -1.0q-0.4375 -0.421875 -1.09375 -0.65625q-0.640625 -0.234375 -1.4375 -0.234375q-0.875 0 -1.5625 0.28125q-0.6875 0.28125 -1.15625 0.75q-0.46875 0.484375 -0.71875 1.125q-0.25 0.625 -0.25 1.34375l1.453125 0q0 -0.53125 0.125 -0.953125q0.140625 -0.4375 0.421875 -0.734375q0.28125 -0.296875 0.6875 -0.453125q0.421875 -0.171875 1.0 -0.171875q0.46875 0 0.828125 0.15625q0.375 0.15625 0.640625 0.4375q0.265625 0.265625 0.390625 0.640625q0.140625 0.375 0.140625 0.796875q0 0.34375 -0.09375 0.671875q-0.078125 0.3125 -0.28125 0.671875q-0.203125 0.375 -0.546875 0.8125q-0.328125 0.421875 -0.828125 0.96875l-3.71875 4.140625l0 1.046875l7.453125 0z" fill-rule="nonzero"/><path fill="#ffffff" d="m545.4724 9.220472l32.126038 0l0 32.031494l-32.126038 0z" fill-rule="evenodd"/><path stroke="#000000" stroke-width="2.0" stroke-linejoin="round" stroke-linecap="butt" d="m545.4724 9.220472l32.126038 0l0 32.031494l-32.126038 0z" fill-rule="evenodd"/><path fill="#000000" d="m559.78156 24.705595l0 1.171875l1.03125 0q0.546875 0 0.984375 0.125q0.453125 0.125 0.78125 0.390625q0.3125 0.25 0.484375 0.640625q0.171875 0.390625 0.171875 0.921875q0 0.53125 -0.15625 0.9375q-0.140625 0.390625 -0.421875 0.65625q-0.28125 0.265625 -0.6875 0.390625q-0.390625 0.125 -0.890625 0.125q-0.484375 0 -0.890625 -0.140625q-0.40625 -0.140625 -0.6875 -0.390625q-0.28125 -0.265625 -0.4375 -0.625q-0.140625 -0.375 -0.140625 -0.8125l-1.453125 0q0 0.75 0.28125 1.34375q0.296875 0.578125 0.78125 0.984375q0.484375 0.40625 1.140625 0.625q0.65625 0.203125 1.40625 0.203125q0.765625 0 1.421875 -0.21875q0.671875 -0.234375 1.15625 -0.65625q0.484375 -0.421875 0.75 -1.03125q0.28125 -0.625 0.28125 -1.421875q0 -0.390625 -0.09375 -0.78125q-0.09375 -0.40625 -0.3125 -0.765625q-0.21875 -0.359375 -0.59375 -0.640625q-0.375 -0.296875 -0.921875 -0.484375q0.453125 -0.1875 0.78125 -0.484375q0.34375 -0.296875 0.546875 -0.625q0.21875 -0.328125 0.3125 -0.671875q0.109375 -0.359375 0.109375 -0.6875q0 -0.796875 -0.25 -1.390625q-0.25 -0.609375 -0.703125 -1.015625q-0.453125 -0.40625 -1.09375 -0.609375q-0.625 -0.203125 -1.390625 -0.203125q-0.796875 0 -1.4375 0.25q-0.640625 0.234375 -1.109375 0.65625q-0.453125 0.4375 -0.71875 1.015625q-0.25 0.5625 -0.25 1.21875l1.453125 0q0 -0.453125 0.140625 -0.8125q0.15625 -0.359375 0.4375 -0.609375q0.265625 -0.265625 0.640625 -0.390625q0.375 -0.140625 0.84375 -0.140625q0.46875 0 0.84375 0.125q0.375 0.109375 0.625 0.359375q0.25 0.25 0.375 0.625q0.140625 0.375 0.140625 0.890625q0 0.421875 -0.15625 0.78125q-0.140625 0.359375 -0.421875 0.625q-0.28125 0.25 -0.703125 0.40625q-0.421875 0.140625 -0.96875 0.140625l-1.03125 0z" fill-rule="nonzero"/><path fill="#ffffff" d="m577.59845 9.220472l32.125977 0l0 32.031494l-32.125977 0z" fill-rule="evenodd"/><path stroke="#000000" stroke-width="2.0" stroke-linejoin="round" stroke-linecap="butt" d="m577.59845 9.220472l32.125977 0l0 32.031494l-32.125977 0z" fill-rule="evenodd"/><path fill="#000000" d="m596.0794 27.268095l0 -7.546875l-1.53125 0l-5.09375 7.875l0 0.859375l5.1875 0l0 2.640625l1.4375 0l0 -2.640625l1.59375 0l0 -1.1875l-1.59375 0zm-5.03125 0l3.359375 -5.1875l0.234375 -0.4375l0 5.625l-3.59375 0z" fill-rule="nonzero"/><path fill="#ffffff" d="m609.7244 9.220472l32.125977 0l0 32.031494l-32.125977 0z" fill-rule="evenodd"/><path stroke="#000000" stroke-width="2.0" stroke-linejoin="round" stroke-linecap="butt" d="m609.7244 9.220472l32.125977 0l0 32.031494l-32.125977 0z" fill-rule="evenodd"/><path fill="#000000" d="m622.86163 25.393095l1.15625 0.296875q0.203125 -0.171875 0.375 -0.296875q0.1875 -0.140625 0.40625 -0.234375q0.203125 -0.09375 0.46875 -0.140625q0.265625 -0.0625 0.625 -0.0625q0.546875 0 0.96875 0.203125q0.421875 0.1875 0.703125 0.53125q0.296875 0.34375 0.4375 0.8125q0.15625 0.453125 0.15625 0.984375q0 0.578125 -0.140625 1.0625q-0.125 0.46875 -0.390625 0.8125q-0.28125 0.34375 -0.6875 0.53125q-0.390625 0.171875 -0.90625 0.171875q-0.90625 0 -1.5 -0.5q-0.578125 -0.5 -0.703125 -1.46875l-1.375 0q0.078125 0.796875 0.375 1.390625q0.3125 0.59375 0.796875 0.984375q0.484375 0.390625 1.09375 0.59375q0.625 0.1875 1.3125 0.1875q0.90625 0 1.578125 -0.28125q0.671875 -0.296875 1.125 -0.796875q0.4375 -0.5 0.65625 -1.1875q0.21875 -0.703125 0.21875 -1.515625q0 -0.859375 -0.234375 -1.5625q-0.234375 -0.703125 -0.671875 -1.203125q-0.4375 -0.5 -1.0625 -0.765625q-0.625 -0.28125 -1.421875 -0.28125q-0.609375 0 -1.078125 0.15625q-0.46875 0.140625 -0.8125 0.34375l0.328125 -3.03125l4.609375 0l0 -1.40625l-5.828125 0l-0.578125 5.671875z" fill-rule="nonzero"/><path fill="#000000" fill-opacity="0.0" d="m157.0 85.0l193.33267 0l0 -75.779526l130.88779 0" fill-rule="evenodd"/><path stroke="#000000" stroke-width="2.0" stroke-linejoin="round" stroke-linecap="butt" d="m164.58 85.0l185.75267 0l0 -75.779526l118.88779 0" fill-rule="evenodd"/><path fill="#000000" stroke="#000000" stroke-width="2.0" stroke-linecap="butt" d="m158.0 85.0c0 -1.8170166 1.4729767 -3.290001 3.2899933 -3.290001c1.8170166 0 3.2900085 1.4729843 3.2900085 3.290001c0 1.8170166 -1.472992 3.290001 -3.2900085 3.290001c-1.8170166 0 -3.2899933 -1.4729843 -3.2899933 -3.290001z" fill-rule="nonzero"/><path fill="#000000" stroke="#000000" stroke-width="2.0" stroke-linecap="butt" d="m469.22046 12.523937l9.076202 -3.303465l-9.076202 -3.303465z" fill-rule="evenodd"/><path fill="#d9d9d9" d="m7.8293962 197.17323l221.44882 0l0 100.85039l-221.44882 0z" fill-rule="evenodd"/><path stroke="#000000" stroke-width="2.0" stroke-linejoin="round" stroke-linecap="butt" d="m7.8293962 197.17323l221.44882 0l0 100.85039l-221.44882 0z" fill-rule="evenodd"/><path fill="#ffffff" d="m22.902887 211.30708l91.40157 0l0 32.031494l-91.40157 0z" fill-rule="evenodd"/><path stroke="#000000" stroke-width="2.0" stroke-linejoin="round" stroke-linecap="butt" d="m22.902887 211.30708l91.40157 0l0 32.031494l-91.40157 0z" fill-rule="evenodd"/><path fill="#000000" d="m33.934135 224.7297l-1.296875 0l0 8.453125l1.375 0l0 -6.734375q0.046875 -0.125 0.109375 -0.234375q0.078125 -0.109375 0.1875 -0.1875q0.125 -0.109375 0.3125 -0.171875q0.203125 -0.0625 0.453125 -0.0625q0.234375 0 0.40625 0.0625q0.1875 0.0625 0.296875 0.1875q0.125 0.125 0.1875 0.328125q0.0625 0.203125 0.0625 0.46875l0 6.34375l1.375 0l0 -6.328125q0 -0.046875 0 -0.078125q0 -0.046875 0 -0.078125q0.015625 -0.203125 0.078125 -0.359375q0.078125 -0.15625 0.203125 -0.28125q0.125 -0.125 0.3125 -0.1875q0.1875 -0.078125 0.453125 -0.078125q0.234375 0 0.421875 0.0625q0.1875 0.0625 0.3125 0.1875q0.109375 0.140625 0.171875 0.34375q0.0625 0.203125 0.0625 0.46875l0 6.328125l1.375 0l0 -6.3125q0 -0.609375 -0.140625 -1.0625q-0.140625 -0.453125 -0.40625 -0.734375q-0.234375 -0.25 -0.59375 -0.375q-0.34375 -0.125 -0.78125 -0.125q-0.328125 0 -0.59375 0.078125q-0.265625 0.078125 -0.484375 0.21875q-0.171875 0.109375 -0.328125 0.265625q-0.140625 0.15625 -0.25 0.34375q-0.09375 -0.203125 -0.21875 -0.359375q-0.109375 -0.15625 -0.265625 -0.265625q-0.203125 -0.140625 -0.46875 -0.203125q-0.265625 -0.078125 -0.609375 -0.078125q-0.59375 0 -1.015625 0.25q-0.40625 0.25 -0.671875 0.703125l-0.03125 -0.796875zm15.9453125 9.640625l0 -1.1875l-7.15625 0l0 1.1875l7.15625 0zm8.2109375 -3.4375q0 0.203125 -0.078125 0.390625q-0.078125 0.171875 -0.234375 0.328125q-0.234375 0.234375 -0.671875 0.375q-0.421875 0.140625 -1.0 0.140625q-0.375 0 -0.75 -0.078125q-0.375 -0.078125 -0.671875 -0.265625q-0.3125 -0.1875 -0.53125 -0.484375q-0.203125 -0.3125 -0.234375 -0.765625l-1.4375 0q0 0.546875 0.234375 1.046875q0.25 0.5 0.71875 0.875q0.46875 0.375 1.140625 0.609375q0.671875 0.234375 1.53125 0.234375q0.75 0 1.375 -0.171875q0.640625 -0.1875 1.09375 -0.515625q0.453125 -0.328125 0.703125 -0.78125q0.25 -0.46875 0.25 -1.03125q0 -0.53125 -0.21875 -0.921875q-0.21875 -0.40625 -0.640625 -0.703125q-0.421875 -0.296875 -1.046875 -0.515625q-0.609375 -0.21875 -1.390625 -0.375q-0.59375 -0.125 -0.984375 -0.25q-0.390625 -0.125 -0.609375 -0.28125q-0.234375 -0.15625 -0.328125 -0.34375q-0.09375 -0.203125 -0.09375 -0.453125q0 -0.234375 0.109375 -0.453125q0.125 -0.234375 0.359375 -0.40625q0.21875 -0.171875 0.5625 -0.265625q0.359375 -0.109375 0.8125 -0.109375q0.453125 0 0.796875 0.125q0.359375 0.125 0.609375 0.328125q0.25 0.203125 0.390625 0.46875q0.140625 0.25 0.140625 0.53125l1.453125 0q0 -0.5625 -0.25 -1.03125q-0.234375 -0.484375 -0.671875 -0.84375q-0.4375 -0.359375 -1.0625 -0.5625q-0.625 -0.203125 -1.40625 -0.203125q-0.71875 0 -1.328125 0.203125q-0.609375 0.1875 -1.046875 0.515625q-0.4375 0.34375 -0.6875 0.796875q-0.234375 0.4375 -0.234375 0.953125q0 0.53125 0.234375 0.921875q0.234375 0.390625 0.671875 0.6875q0.421875 0.296875 1.015625 0.515625q0.59375 0.203125 1.328125 0.34375q0.59375 0.125 0.984375 0.265625q0.40625 0.140625 0.640625 0.3125q0.25 0.171875 0.34375 0.390625q0.109375 0.203125 0.109375 0.453125zm4.2109375 -6.203125l0 1.25l2.875 0l0 5.953125l-2.875 0l0 1.25l7.078125 0l0 -1.25l-2.765625 0l0 -7.203125l-4.3125 0zm2.6875 -2.21875q0 0.34375 0.203125 0.578125q0.21875 0.234375 0.65625 0.234375q0.4375 0 0.65625 -0.234375q0.21875 -0.234375 0.21875 -0.578125q0 -0.203125 -0.0625 -0.359375q-0.0625 -0.171875 -0.1875 -0.28125q-0.109375 -0.09375 -0.265625 -0.15625q-0.15625 -0.0625 -0.359375 -0.0625q-0.203125 0 -0.359375 0.0625q-0.15625 0.0625 -0.265625 0.15625q-0.125 0.125 -0.1875 0.296875q-0.046875 0.15625 -0.046875 0.34375zm8.4140625 9.484375l5.109375 -6.25l0 -1.015625l-6.875 0l0 1.1875l4.96875 0l-5.046875 6.203125l0 1.0625l7.234375 0l0 -1.1875l-5.390625 0zm11.6015625 1.34375q1.234375 0 2.078125 -0.5q0.84375 -0.5 1.265625 -1.140625l-0.890625 -0.6875q-0.390625 0.515625 -1.0 0.828125q-0.59375 0.3125 -1.375 0.3125q-0.578125 0 -1.0625 -0.21875q-0.484375 -0.21875 -0.828125 -0.59375q-0.34375 -0.359375 -0.53125 -0.828125q-0.1875 -0.46875 -0.25 -1.09375l0 -0.046875l6.046875 0l0 -0.65625q0 -0.875 -0.234375 -1.625q-0.21875 -0.765625 -0.671875 -1.328125q-0.453125 -0.5625 -1.140625 -0.875q-0.671875 -0.3125 -1.59375 -0.3125q-0.71875 0 -1.421875 0.296875q-0.6875 0.296875 -1.21875 0.84375q-0.546875 0.5625 -0.875 1.375q-0.328125 0.8125 -0.328125 1.828125l0 0.328125q0 0.890625 0.296875 1.640625q0.296875 0.75 0.828125 1.296875q0.53125 0.546875 1.265625 0.859375q0.75 0.296875 1.640625 0.296875zm-0.1875 -7.578125q0.5625 0 0.953125 0.203125q0.40625 0.203125 0.671875 0.53125q0.265625 0.328125 0.40625 0.78125q0.15625 0.4375 0.15625 0.828125l0 0.078125l-4.546875 0q0.09375 -0.59375 0.296875 -1.03125q0.21875 -0.453125 0.53125 -0.765625q0.3125 -0.3125 0.703125 -0.46875q0.390625 -0.15625 0.828125 -0.15625z" fill-rule="nonzero"/><path fill="#ffffff" d="m22.902887 243.33858l91.40157 0l0 32.03151l-91.40157 0z" fill-rule="evenodd"/><path stroke="#000000" stroke-width="2.0" stroke-linejoin="round" stroke-linecap="butt" d="m22.902887 243.33858l91.40157 0l0 32.03151l-91.40157 0z" fill-rule="evenodd"/><path fill="#000000" d="m33.934135 256.7612l-1.296875 0l0 8.453125l1.375 0l0 -6.734375q0.046875 -0.125 0.109375 -0.234375q0.078125 -0.109375 0.1875 -0.1875q0.125 -0.109375 0.3125 -0.171875q0.203125 -0.0625 0.453125 -0.0625q0.234375 0 0.40625 0.0625q0.1875 0.0625 0.296875 0.1875q0.125 0.125 0.1875 0.328125q0.0625 0.203125 0.0625 0.46875l0 6.34375l1.375 0l0 -6.328125q0 -0.046875 0 -0.078125q0 -0.046875 0 -0.078125q0.015625 -0.203125 0.078125 -0.359375q0.078125 -0.15625 0.203125 -0.28125q0.125 -0.125 0.3125 -0.1875q0.1875 -0.078125 0.453125 -0.078125q0.234375 0 0.421875 0.0625q0.1875 0.0625 0.3125 0.1875q0.109375 0.140625 0.171875 0.34375q0.0625 0.203125 0.0625 0.46875l0 6.328125l1.375 0l0 -6.3125q0 -0.609375 -0.140625 -1.0625q-0.140625 -0.453125 -0.40625 -0.734375q-0.234375 -0.25 -0.59375 -0.375q-0.34375 -0.125 -0.78125 -0.125q-0.328125 0 -0.59375 0.078125q-0.265625 0.078125 -0.484375 0.21875q-0.171875 0.109375 -0.328125 0.265625q-0.140625 0.15625 -0.25 0.34375q-0.09375 -0.203125 -0.21875 -0.359375q-0.109375 -0.15625 -0.265625 -0.265625q-0.203125 -0.140625 -0.46875 -0.203125q-0.265625 -0.078125 -0.609375 -0.078125q-0.59375 0 -1.015625 0.25q-0.40625 0.25 -0.671875 0.703125l-0.03125 -0.796875zm15.9453125 9.640625l0 -1.1875l-7.15625 0l0 1.1875l7.15625 0zm2.3203125 -5.484375l0 0.15625q0 0.90625 0.234375 1.703125q0.25 0.78125 0.6875 1.359375q0.4375 0.578125 1.046875 0.90625q0.625 0.328125 1.390625 0.328125q0.78125 0 1.359375 -0.265625q0.59375 -0.265625 1.015625 -0.78125l0.0625 0.890625l1.328125 0l0 -12.0l-1.4375 0l0 4.375q-0.421875 -0.484375 -0.984375 -0.734375q-0.5625 -0.25 -1.328125 -0.25q-0.765625 0 -1.390625 0.328125q-0.625 0.3125 -1.0625 0.875q-0.453125 0.578125 -0.6875 1.375q-0.234375 0.78125 -0.234375 1.734375zm1.4375 0.15625l0 -0.15625q0 -0.625 0.125 -1.171875q0.140625 -0.5625 0.421875 -1.0q0.28125 -0.421875 0.703125 -0.671875q0.4375 -0.25 1.046875 -0.25q0.71875 0 1.1875 0.34375q0.484375 0.328125 0.765625 0.84375l0 3.921875q-0.28125 0.546875 -0.765625 0.875q-0.46875 0.328125 -1.203125 0.328125q-0.59375 0 -1.03125 -0.234375q-0.421875 -0.25 -0.703125 -0.671875q-0.28125 -0.421875 -0.421875 -0.96875q-0.125 -0.5625 -0.125 -1.1875zm13.9921875 4.140625l1.5 0l0 -0.125q-0.140625 -0.359375 -0.21875 -0.828125q-0.078125 -0.46875 -0.078125 -0.890625l0 -3.9375q0 -0.703125 -0.265625 -1.234375q-0.25 -0.53125 -0.6875 -0.890625q-0.453125 -0.359375 -1.078125 -0.53125q-0.609375 -0.171875 -1.328125 -0.171875q-0.796875 0 -1.421875 0.21875q-0.609375 0.21875 -1.046875 0.5625q-0.4375 0.359375 -0.671875 0.8125q-0.21875 0.4375 -0.234375 0.90625l1.453125 0q0 -0.265625 0.125 -0.515625q0.140625 -0.25 0.375 -0.421875q0.234375 -0.1875 0.5625 -0.296875q0.34375 -0.109375 0.78125 -0.109375q0.453125 0 0.828125 0.125q0.375 0.109375 0.625 0.328125q0.265625 0.21875 0.40625 0.53125q0.140625 0.296875 0.140625 0.671875l0 0.671875l-1.578125 0q-0.890625 0 -1.609375 0.171875q-0.703125 0.171875 -1.21875 0.515625q-0.5 0.34375 -0.78125 0.875q-0.28125 0.515625 -0.28125 1.21875q0 0.53125 0.203125 0.984375q0.21875 0.453125 0.59375 0.78125q0.375 0.34375 0.921875 0.546875q0.546875 0.1875 1.21875 0.1875q0.40625 0 0.765625 -0.09375q0.375 -0.078125 0.703125 -0.234375q0.328125 -0.140625 0.59375 -0.328125q0.265625 -0.203125 0.484375 -0.421875q0.03125 0.265625 0.078125 0.515625q0.046875 0.234375 0.140625 0.40625zm-2.5625 -1.109375q-0.421875 0 -0.75 -0.109375q-0.3125 -0.109375 -0.515625 -0.296875q-0.21875 -0.1875 -0.328125 -0.453125q-0.09375 -0.265625 -0.09375 -0.578125q0 -0.328125 0.109375 -0.578125q0.125 -0.265625 0.359375 -0.453125q0.328125 -0.265625 0.890625 -0.390625q0.5625 -0.140625 1.3125 -0.140625l1.34375 0l0 1.71875q-0.125 0.25 -0.34375 0.484375q-0.21875 0.21875 -0.515625 0.40625q-0.3125 0.171875 -0.6875 0.28125q-0.359375 0.109375 -0.78125 0.109375zm10.0234375 -9.390625l-1.453125 0l0 2.046875l-2.21875 0l0 1.109375l2.21875 0l0 4.59375q0 0.78125 0.203125 1.34375q0.21875 0.546875 0.578125 0.890625q0.359375 0.34375 0.84375 0.515625q0.484375 0.15625 1.046875 0.15625q0.34375 0 0.671875 -0.03125q0.34375 -0.03125 0.65625 -0.09375q0.296875 -0.0625 0.546875 -0.140625q0.265625 -0.078125 0.453125 -0.1875l-0.203125 -1.03125q-0.140625 0.03125 -0.34375 0.078125q-0.203125 0.046875 -0.4375 0.078125q-0.25 0.046875 -0.5 0.078125q-0.25 0.015625 -0.484375 0.015625q-0.3125 0 -0.609375 -0.078125q-0.28125 -0.078125 -0.5 -0.265625q-0.21875 -0.1875 -0.34375 -0.5q-0.125 -0.328125 -0.125 -0.828125l0 -4.59375l3.21875 0l0 -1.109375l-3.21875 0l0 -2.046875zm11.7421875 10.5l1.5 0l0 -0.125q-0.140625 -0.359375 -0.21875 -0.828125q-0.078125 -0.46875 -0.078125 -0.890625l0 -3.9375q0 -0.703125 -0.265625 -1.234375q-0.25 -0.53125 -0.6875 -0.890625q-0.453125 -0.359375 -1.078125 -0.53125q-0.609375 -0.171875 -1.328125 -0.171875q-0.796875 0 -1.421875 0.21875q-0.609375 0.21875 -1.046875 0.5625q-0.4375 0.359375 -0.671875 0.8125q-0.21875 0.4375 -0.234375 0.90625l1.453125 0q0 -0.265625 0.125 -0.515625q0.140625 -0.25 0.375 -0.421875q0.234375 -0.1875 0.5625 -0.296875q0.34375 -0.109375 0.78125 -0.109375q0.453125 0 0.828125 0.125q0.375 0.109375 0.625 0.328125q0.265625 0.21875 0.40625 0.53125q0.140625 0.296875 0.140625 0.671875l0 0.671875l-1.578125 0q-0.890625 0 -1.609375 0.171875q-0.703125 0.171875 -1.21875 0.515625q-0.5 0.34375 -0.78125 0.875q-0.28125 0.515625 -0.28125 1.21875q0 0.53125 0.203125 0.984375q0.21875 0.453125 0.59375 0.78125q0.375 0.34375 0.921875 0.546875q0.546875 0.1875 1.21875 0.1875q0.40625 0 0.765625 -0.09375q0.375 -0.078125 0.703125 -0.234375q0.328125 -0.140625 0.59375 -0.328125q0.265625 -0.203125 0.484375 -0.421875q0.03125 0.265625 0.078125 0.515625q0.046875 0.234375 0.140625 0.40625zm-2.5625 -1.109375q-0.421875 0 -0.75 -0.109375q-0.3125 -0.109375 -0.515625 -0.296875q-0.21875 -0.1875 -0.328125 -0.453125q-0.09375 -0.265625 -0.09375 -0.578125q0 -0.328125 0.109375 -0.578125q0.125 -0.265625 0.359375 -0.453125q0.328125 -0.265625 0.890625 -0.390625q0.5625 -0.140625 1.3125 -0.140625l1.34375 0l0 1.71875q-0.125 0.25 -0.34375 0.484375q-0.21875 0.21875 -0.515625 0.40625q-0.3125 0.171875 -0.6875 0.28125q-0.359375 0.109375 -0.78125 0.109375z" fill-rule="nonzero"/><path fill="#ffffff" d="m114.30446 211.30708l91.40158 0l0 32.031494l-91.40158 0z" fill-rule="evenodd"/><path stroke="#000000" stroke-width="2.0" stroke-linejoin="round" stroke-linecap="butt" d="m114.30446 211.30708l91.40158 0l0 32.031494l-91.40158 0z" fill-rule="evenodd"/><path fill="#000000" d="m157.07947 227.4797l1.15625 0.296875q0.203125 -0.171875 0.375 -0.296875q0.1875 -0.140625 0.40625 -0.234375q0.203125 -0.09375 0.46875 -0.140625q0.265625 -0.0625 0.625 -0.0625q0.546875 0 0.96875 0.203125q0.421875 0.1875 0.703125 0.53125q0.296875 0.34375 0.4375 0.8125q0.15625 0.453125 0.15625 0.984375q0 0.578125 -0.140625 1.0625q-0.125 0.46875 -0.390625 0.8125q-0.28125 0.34375 -0.6875 0.53125q-0.390625 0.171875 -0.90625 0.171875q-0.90625 0 -1.5 -0.5q-0.578125 -0.5 -0.703125 -1.46875l-1.375 0q0.078125 0.796875 0.375 1.390625q0.3125 0.59375 0.796875 0.984375q0.484375 0.390625 1.09375 0.59375q0.625 0.1875 1.3125 0.1875q0.90625 0 1.578125 -0.28125q0.671875 -0.296875 1.125 -0.796875q0.4375 -0.5 0.65625 -1.1875q0.21875 -0.703125 0.21875 -1.515625q0 -0.859375 -0.234375 -1.5625q-0.234375 -0.703125 -0.671875 -1.203125q-0.4375 -0.5 -1.0625 -0.765625q-0.625 -0.28125 -1.421875 -0.28125q-0.609375 0 -1.078125 0.15625q-0.46875 0.140625 -0.8125 0.34375l0.328125 -3.03125l4.609375 0l0 -1.40625l-5.828125 0l-0.578125 5.671875z" fill-rule="nonzero"/><path fill="#ffffff" d="m114.30446 243.33858l91.40158 0l0 32.03151l-91.40158 0z" fill-rule="evenodd"/><path stroke="#000000" stroke-width="2.0" stroke-linejoin="round" stroke-linecap="butt" d="m114.30446 243.33858l91.40158 0l0 32.03151l-91.40158 0z" fill-rule="evenodd"/><path fill="#000000" fill-opacity="0.0" d="m96.49084 298.02362l144.6614 0l0 38.771667l-144.6614 0z" fill-rule="evenodd"/><path fill="#000000" d="m108.67569 322.38364l3.640625 0q0.734375 -0.015625 1.40625 -0.234375q0.6875 -0.21875 1.21875 -0.625q0.515625 -0.40625 0.828125 -1.015625q0.3125 -0.609375 0.3125 -1.40625q0 -0.515625 -0.15625 -0.953125q-0.15625 -0.4375 -0.421875 -0.78125q-0.265625 -0.328125 -0.671875 -0.59375q-0.390625 -0.265625 -0.8125 -0.359375l0 -0.03125q0.40625 -0.171875 0.703125 -0.375q0.296875 -0.203125 0.53125 -0.5q0.234375 -0.296875 0.375 -0.65625q0.140625 -0.375 0.140625 -0.8125q0.015625 -0.796875 -0.296875 -1.359375q-0.3125 -0.578125 -0.84375 -0.953125q-0.515625 -0.359375 -1.1875 -0.53125q-0.671875 -0.1875 -1.375 -0.1875l-3.390625 0l0 11.375zm1.453125 -5.328125l2.3125 0q0.453125 0.015625 0.84375 0.15625q0.40625 0.140625 0.703125 0.40625q0.296875 0.265625 0.46875 0.640625q0.171875 0.375 0.15625 0.859375q0 0.46875 -0.1875 0.84375q-0.171875 0.375 -0.484375 0.640625q-0.3125 0.25 -0.71875 0.40625q-0.40625 0.140625 -0.859375 0.140625l-2.234375 0l0 -4.09375zm0 -1.203125l0 -3.609375l1.984375 0q0.421875 0 0.8125 0.109375q0.40625 0.09375 0.71875 0.3125q0.3125 0.21875 0.484375 0.5625q0.1875 0.328125 0.1875 0.796875q0 0.453125 -0.1875 0.796875q-0.1875 0.328125 -0.484375 0.546875q-0.3125 0.234375 -0.703125 0.359375q-0.390625 0.125 -0.796875 0.125l-2.015625 0zm8.3984375 -1.921875l0 1.25l2.875 0l0 5.953125l-2.875 0l0 1.25l7.078125 0l0 -1.25l-2.765625 0l0 -7.203125l-4.3125 0zm2.6875 -2.21875q0 0.34375 0.203125 0.578125q0.21875 0.234375 0.65625 0.234375q0.4375 0 0.65625 -0.234375q0.21875 -0.234375 0.21875 -0.578125q0 -0.203125 -0.0625 -0.359375q-0.0625 -0.171875 -0.1875 -0.28125q-0.109375 -0.09375 -0.265625 -0.15625q-0.15625 -0.0625 -0.359375 -0.0625q-0.203125 0 -0.359375 0.0625q-0.15625 0.0625 -0.265625 0.15625q-0.125 0.125 -0.1875 0.296875q-0.046875 0.15625 -0.046875 0.34375zm6.4140625 6.375l0 0.15625q0 0.90625 0.234375 1.703125q0.234375 0.78125 0.671875 1.359375q0.4375 0.578125 1.0625 0.90625q0.625 0.328125 1.390625 0.328125q0.46875 0 0.859375 -0.109375q0.40625 -0.09375 0.734375 -0.265625q0.203125 -0.125 0.390625 -0.28125q0.1875 -0.15625 0.34375 -0.34375l0 0.734375q0 0.546875 -0.15625 0.96875q-0.15625 0.421875 -0.4375 0.703125q-0.296875 0.296875 -0.71875 0.4375q-0.40625 0.15625 -0.921875 0.15625q-0.296875 0 -0.59375 -0.0625q-0.28125 -0.0625 -0.5625 -0.1875q-0.296875 -0.140625 -0.578125 -0.359375q-0.28125 -0.21875 -0.546875 -0.546875l-0.75 0.875q0.296875 0.40625 0.6875 0.6875q0.40625 0.28125 0.84375 0.453125q0.4375 0.171875 0.859375 0.234375q0.421875 0.078125 0.75 0.078125q0.796875 0 1.453125 -0.234375q0.65625 -0.234375 1.125 -0.6875q0.46875 -0.453125 0.734375 -1.109375q0.265625 -0.640625 0.265625 -1.484375l0 -8.265625l-1.3125 0l-0.078125 0.921875q-0.140625 -0.1875 -0.3125 -0.34375q-0.171875 -0.15625 -0.359375 -0.28125q-0.34375 -0.21875 -0.765625 -0.328125q-0.421875 -0.125 -0.9375 -0.125q-0.78125 0 -1.40625 0.328125q-0.625 0.3125 -1.0625 0.875q-0.4375 0.578125 -0.671875 1.375q-0.234375 0.78125 -0.234375 1.734375zm1.453125 0.15625l0 -0.15625q0 -0.625 0.125 -1.171875q0.125 -0.5625 0.40625 -1.0q0.28125 -0.421875 0.703125 -0.671875q0.4375 -0.25 1.046875 -0.25q0.359375 0 0.65625 0.09375q0.296875 0.09375 0.546875 0.25q0.234375 0.15625 0.421875 0.375q0.1875 0.21875 0.328125 0.484375l0 3.875q-0.140625 0.28125 -0.328125 0.515625q-0.1875 0.21875 -0.421875 0.375q-0.234375 0.171875 -0.546875 0.265625q-0.296875 0.078125 -0.671875 0.078125q-0.59375 0 -1.03125 -0.234375q-0.421875 -0.25 -0.703125 -0.671875q-0.28125 -0.421875 -0.40625 -0.96875q-0.125 -0.5625 -0.125 -1.1875zm8.2734375 4.140625l2.625 0q0.828125 -0.015625 1.53125 -0.203125q0.703125 -0.1875 1.265625 -0.53125q0.53125 -0.34375 0.953125 -0.8125q0.4375 -0.484375 0.71875 -1.0625q0.28125 -0.5625 0.421875 -1.234375q0.140625 -0.671875 0.140625 -1.421875l0 -0.84375q0 -0.78125 -0.15625 -1.46875q-0.15625 -0.6875 -0.4375 -1.265625q-0.328125 -0.671875 -0.859375 -1.1875q-0.53125 -0.53125 -1.234375 -0.84375q-0.5 -0.234375 -1.09375 -0.359375q-0.578125 -0.140625 -1.25 -0.140625l-2.625 0l0 11.375zm1.46875 -10.1875l1.15625 0q0.546875 0 1.0 0.125q0.453125 0.109375 0.8125 0.3125q0.515625 0.265625 0.875 0.71875q0.359375 0.4375 0.5625 0.984375q0.171875 0.421875 0.25 0.90625q0.078125 0.484375 0.09375 1.015625l0 0.859375q-0.015625 0.515625 -0.09375 1.0q-0.078125 0.484375 -0.234375 0.890625q-0.171875 0.515625 -0.484375 0.921875q-0.3125 0.40625 -0.734375 0.6875q-0.390625 0.28125 -0.90625 0.4375q-0.515625 0.140625 -1.140625 0.140625l-1.15625 0l0 -9.0zm13.8359375 10.1875l1.5 0l0 -0.125q-0.140625 -0.359375 -0.21875 -0.828125q-0.078125 -0.46875 -0.078125 -0.890625l0 -3.9375q0 -0.703125 -0.265625 -1.234375q-0.25 -0.53125 -0.6875 -0.890625q-0.453125 -0.359375 -1.078125 -0.53125q-0.609375 -0.171875 -1.328125 -0.171875q-0.796875 0 -1.421875 0.21875q-0.609375 0.21875 -1.046875 0.5625q-0.4375 0.359375 -0.671875 0.8125q-0.21875 0.4375 -0.234375 0.90625l1.453125 0q0 -0.265625 0.125 -0.515625q0.140625 -0.25 0.375 -0.421875q0.234375 -0.1875 0.5625 -0.296875q0.34375 -0.109375 0.78125 -0.109375q0.453125 0 0.828125 0.125q0.375 0.109375 0.625 0.328125q0.265625 0.21875 0.40625 0.53125q0.140625 0.296875 0.140625 0.671875l0 0.671875l-1.578125 0q-0.890625 0 -1.609375 0.171875q-0.703125 0.171875 -1.21875 0.515625q-0.5 0.34375 -0.78125 0.875q-0.28125 0.515625 -0.28125 1.21875q0 0.53125 0.203125 0.984375q0.21875 0.453125 0.59375 0.78125q0.375 0.34375 0.921875 0.546875q0.546875 0.1875 1.21875 0.1875q0.40625 0 0.765625 -0.09375q0.375 -0.078125 0.703125 -0.234375q0.328125 -0.140625 0.59375 -0.328125q0.265625 -0.203125 0.484375 -0.421875q0.03125 0.265625 0.078125 0.515625q0.046875 0.234375 0.140625 0.40625zm-2.5625 -1.109375q-0.421875 0 -0.75 -0.109375q-0.3125 -0.109375 -0.515625 -0.296875q-0.21875 -0.1875 -0.328125 -0.453125q-0.09375 -0.265625 -0.09375 -0.578125q0 -0.328125 0.109375 -0.578125q0.125 -0.265625 0.359375 -0.453125q0.328125 -0.265625 0.890625 -0.390625q0.5625 -0.140625 1.3125 -0.140625l1.34375 0l0 1.71875q-0.125 0.25 -0.34375 0.484375q-0.21875 0.21875 -0.515625 0.40625q-0.3125 0.171875 -0.6875 0.28125q-0.359375 0.109375 -0.78125 0.109375zm10.0234375 -9.390625l-1.453125 0l0 2.046875l-2.21875 0l0 1.109375l2.21875 0l0 4.59375q0 0.78125 0.203125 1.34375q0.21875 0.546875 0.578125 0.890625q0.359375 0.34375 0.84375 0.515625q0.484375 0.15625 1.046875 0.15625q0.34375 0 0.671875 -0.03125q0.34375 -0.03125 0.65625 -0.09375q0.296875 -0.0625 0.546875 -0.140625q0.265625 -0.078125 0.453125 -0.1875l-0.203125 -1.03125q-0.140625 0.03125 -0.34375 0.078125q-0.203125 0.046875 -0.4375 0.078125q-0.25 0.046875 -0.5 0.078125q-0.25 0.015625 -0.484375 0.015625q-0.3125 0 -0.609375 -0.078125q-0.28125 -0.078125 -0.5 -0.265625q-0.21875 -0.1875 -0.34375 -0.5q-0.125 -0.328125 -0.125 -0.828125l0 -4.59375l3.21875 0l0 -1.109375l-3.21875 0l0 -2.046875zm11.7421875 10.5l1.5 0l0 -0.125q-0.140625 -0.359375 -0.21875 -0.828125q-0.078125 -0.46875 -0.078125 -0.890625l0 -3.9375q0 -0.703125 -0.265625 -1.234375q-0.25 -0.53125 -0.6875 -0.890625q-0.453125 -0.359375 -1.078125 -0.53125q-0.609375 -0.171875 -1.328125 -0.171875q-0.796875 0 -1.421875 0.21875q-0.609375 0.21875 -1.046875 0.5625q-0.4375 0.359375 -0.671875 0.8125q-0.21875 0.4375 -0.234375 0.90625l1.453125 0q0 -0.265625 0.125 -0.515625q0.140625 -0.25 0.375 -0.421875q0.234375 -0.1875 0.5625 -0.296875q0.34375 -0.109375 0.78125 -0.109375q0.453125 0 0.828125 0.125q0.375 0.109375 0.625 0.328125q0.265625 0.21875 0.40625 0.53125q0.140625 0.296875 0.140625 0.671875l0 0.671875l-1.578125 0q-0.890625 0 -1.609375 0.171875q-0.703125 0.171875 -1.21875 0.515625q-0.5 0.34375 -0.78125 0.875q-0.28125 0.515625 -0.28125 1.21875q0 0.53125 0.203125 0.984375q0.21875 0.453125 0.59375 0.78125q0.375 0.34375 0.921875 0.546875q0.546875 0.1875 1.21875 0.1875q0.40625 0 0.765625 -0.09375q0.375 -0.078125 0.703125 -0.234375q0.328125 -0.140625 0.59375 -0.328125q0.265625 -0.203125 0.484375 -0.421875q0.03125 0.265625 0.078125 0.515625q0.046875 0.234375 0.140625 0.40625zm-2.5625 -1.109375q-0.421875 0 -0.75 -0.109375q-0.3125 -0.109375 -0.515625 -0.296875q-0.21875 -0.1875 -0.328125 -0.453125q-0.09375 -0.265625 -0.09375 -0.578125q0 -0.328125 0.109375 -0.578125q0.125 -0.265625 0.359375 -0.453125q0.328125 -0.265625 0.890625 -0.390625q0.5625 -0.140625 1.3125 -0.140625l1.34375 0l0 1.71875q-0.125 0.25 -0.34375 0.484375q-0.21875 0.21875 -0.515625 0.40625q-0.3125 0.171875 -0.6875 0.28125q-0.359375 0.109375 -0.78125 0.109375zm15.9375 -3.1875l0 0.15625q0 0.90625 0.234375 1.703125q0.25 0.78125 0.6875 1.359375q0.4375 0.578125 1.046875 0.90625q0.625 0.328125 1.390625 0.328125q0.78125 0 1.359375 -0.265625q0.59375 -0.265625 1.015625 -0.78125l0.0625 0.890625l1.328125 0l0 -12.0l-1.4375 0l0 4.375q-0.421875 -0.484375 -0.984375 -0.734375q-0.5625 -0.25 -1.328125 -0.25q-0.765625 0 -1.390625 0.328125q-0.625 0.3125 -1.0625 0.875q-0.453125 0.578125 -0.6875 1.375q-0.234375 0.78125 -0.234375 1.734375zm1.4375 0.15625l0 -0.15625q0 -0.625 0.125 -1.171875q0.140625 -0.5625 0.421875 -1.0q0.28125 -0.421875 0.703125 -0.671875q0.4375 -0.25 1.046875 -0.25q0.71875 0 1.1875 0.34375q0.484375 0.328125 0.765625 0.84375l0 3.921875q-0.28125 0.546875 -0.765625 0.875q-0.46875 0.328125 -1.203125 0.328125q-0.59375 0 -1.03125 -0.234375q-0.421875 -0.25 -0.703125 -0.671875q-0.28125 -0.421875 -0.421875 -0.96875q-0.125 -0.5625 -0.125 -1.1875zm13.9921875 4.140625l1.5 0l0 -0.125q-0.140625 -0.359375 -0.21875 -0.828125q-0.078125 -0.46875 -0.078125 -0.890625l0 -3.9375q0 -0.703125 -0.265625 -1.234375q-0.25 -0.53125 -0.6875 -0.890625q-0.453125 -0.359375 -1.078125 -0.53125q-0.609375 -0.171875 -1.328125 -0.171875q-0.796875 0 -1.421875 0.21875q-0.609375 0.21875 -1.046875 0.5625q-0.4375 0.359375 -0.671875 0.8125q-0.21875 0.4375 -0.234375 0.90625l1.453125 0q0 -0.265625 0.125 -0.515625q0.140625 -0.25 0.375 -0.421875q0.234375 -0.1875 0.5625 -0.296875q0.34375 -0.109375 0.78125 -0.109375q0.453125 0 0.828125 0.125q0.375 0.109375 0.625 0.328125q0.265625 0.21875 0.40625 0.53125q0.140625 0.296875 0.140625 0.671875l0 0.671875l-1.578125 0q-0.890625 0 -1.609375 0.171875q-0.703125 0.171875 -1.21875 0.515625q-0.5 0.34375 -0.78125 0.875q-0.28125 0.515625 -0.28125 1.21875q0 0.53125 0.203125 0.984375q0.21875 0.453125 0.59375 0.78125q0.375 0.34375 0.921875 0.546875q0.546875 0.1875 1.21875 0.1875q0.40625 0 0.765625 -0.09375q0.375 -0.078125 0.703125 -0.234375q0.328125 -0.140625 0.59375 -0.328125q0.265625 -0.203125 0.484375 -0.421875q0.03125 0.265625 0.078125 0.515625q0.046875 0.234375 0.140625 0.40625zm-2.5625 -1.109375q-0.421875 0 -0.75 -0.109375q-0.3125 -0.109375 -0.515625 -0.296875q-0.21875 -0.1875 -0.328125 -0.453125q-0.09375 -0.265625 -0.09375 -0.578125q0 -0.328125 0.109375 -0.578125q0.125 -0.265625 0.359375 -0.453125q0.328125 -0.265625 0.890625 -0.390625q0.5625 -0.140625 1.3125 -0.140625l1.34375 0l0 1.71875q-0.125 0.25 -0.34375 0.484375q-0.21875 0.21875 -0.515625 0.40625q-0.3125 0.171875 -0.6875 0.28125q-0.359375 0.109375 -0.78125 0.109375zm10.0234375 -9.390625l-1.453125 0l0 2.046875l-2.21875 0l0 1.109375l2.21875 0l0 4.59375q0 0.78125 0.203125 1.34375q0.21875 0.546875 0.578125 0.890625q0.359375 0.34375 0.84375 0.515625q0.484375 0.15625 1.046875 0.15625q0.34375 0 0.671875 -0.03125q0.34375 -0.03125 0.65625 -0.09375q0.296875 -0.0625 0.546875 -0.140625q0.265625 -0.078125 0.453125 -0.1875l-0.203125 -1.03125q-0.140625 0.03125 -0.34375 0.078125q-0.203125 0.046875 -0.4375 0.078125q-0.25 0.046875 -0.5 0.078125q-0.25 0.015625 -0.484375 0.015625q-0.3125 0 -0.609375 -0.078125q-0.28125 -0.078125 -0.5 -0.265625q-0.21875 -0.1875 -0.34375 -0.5q-0.125 -0.328125 -0.125 -0.828125l0 -4.59375l3.21875 0l0 -1.109375l-3.21875 0l0 -2.046875zm11.7421875 10.5l1.5 0l0 -0.125q-0.140625 -0.359375 -0.21875 -0.828125q-0.078125 -0.46875 -0.078125 -0.890625l0 -3.9375q0 -0.703125 -0.265625 -1.234375q-0.25 -0.53125 -0.6875 -0.890625q-0.453125 -0.359375 -1.078125 -0.53125q-0.609375 -0.171875 -1.328125 -0.171875q-0.796875 0 -1.421875 0.21875q-0.609375 0.21875 -1.046875 0.5625q-0.4375 0.359375 -0.671875 0.8125q-0.21875 0.4375 -0.234375 0.90625l1.453125 0q0 -0.265625 0.125 -0.515625q0.140625 -0.25 0.375 -0.421875q0.234375 -0.1875 0.5625 -0.296875q0.34375 -0.109375 0.78125 -0.109375q0.453125 0 0.828125 0.125q0.375 0.109375 0.625 0.328125q0.265625 0.21875 0.40625 0.53125q0.140625 0.296875 0.140625 0.671875l0 0.671875l-1.578125 0q-0.890625 0 -1.609375 0.171875q-0.703125 0.171875 -1.21875 0.515625q-0.5 0.34375 -0.78125 0.875q-0.28125 0.515625 -0.28125 1.21875q0 0.53125 0.203125 0.984375q0.21875 0.453125 0.59375 0.78125q0.375 0.34375 0.921875 0.546875q0.546875 0.1875 1.21875 0.1875q0.40625 0 0.765625 -0.09375q0.375 -0.078125 0.703125 -0.234375q0.328125 -0.140625 0.59375 -0.328125q0.265625 -0.203125 0.484375 -0.421875q0.03125 0.265625 0.078125 0.515625q0.046875 0.234375 0.140625 0.40625zm-2.5625 -1.109375q-0.421875 0 -0.75 -0.109375q-0.3125 -0.109375 -0.515625 -0.296875q-0.21875 -0.1875 -0.328125 -0.453125q-0.09375 -0.265625 -0.09375 -0.578125q0 -0.328125 0.109375 -0.578125q0.125 -0.265625 0.359375 -0.453125q0.328125 -0.265625 0.890625 -0.390625q0.5625 -0.140625 1.3125 -0.140625l1.34375 0l0 1.71875q-0.125 0.25 -0.34375 0.484375q-0.21875 0.21875 -0.515625 0.40625q-0.3125 0.171875 -0.6875 0.28125q-0.359375 0.109375 -0.78125 0.109375zm13.585922 1.109375l0 -1.1875l-5.71875 0l3.0625 -3.3125q0.421875 -0.46875 0.8125 -0.9375q0.390625 -0.46875 0.6875 -0.953125q0.28125 -0.484375 0.453125 -0.984375q0.171875 -0.5 0.171875 -1.0q0 -0.6875 -0.234375 -1.265625q-0.234375 -0.578125 -0.6875 -1.0q-0.4375 -0.421875 -1.09375 -0.65625q-0.640625 -0.234375 -1.4375 -0.234375q-0.875 0 -1.5625 0.28125q-0.6875 0.28125 -1.1562347 0.75q-0.46875 0.484375 -0.71875 1.125q-0.25 0.625 -0.25 1.34375l1.4531097 0q0 -0.53125 0.125 -0.953125q0.140625 -0.4375 0.421875 -0.734375q0.28125 -0.296875 0.6875 -0.453125q0.421875 -0.171875 1.0 -0.171875q0.46875 0 0.828125 0.15625q0.375 0.15625 0.640625 0.4375q0.265625 0.265625 0.390625 0.640625q0.140625 0.375 0.140625 0.796875q0 0.34375 -0.09375 0.671875q-0.078125 0.3125 -0.28125 0.671875q-0.203125 0.375 -0.546875 0.8125q-0.328125 0.421875 -0.828125 0.96875l-3.7187347 4.140625l0 1.046875l7.4531097 0z" fill-rule="nonzero"/><path fill="#000000" fill-opacity="0.0" d="m157.0 260.00787l224.66534 0l0 -234.77165l99.555115 0" fill-rule="evenodd"/><path stroke="#000000" stroke-width="2.0" stroke-linejoin="round" stroke-linecap="butt" d="m164.58 260.00787l217.08534 0l0 -234.77165l87.555115 0" fill-rule="evenodd"/><path fill="#000000" stroke="#000000" stroke-width="2.0" stroke-linecap="butt" d="m158.0 260.00787c0 -1.8170166 1.4729767 -3.2900085 3.2899933 -3.2900085c1.8170166 0 3.2900085 1.472992 3.2900085 3.2900085c0 1.8170166 -1.472992 3.2900085 -3.2900085 3.2900085c-1.8170166 0 -3.2899933 -1.472992 -3.2899933 -3.2900085z" fill-rule="nonzero"/><path fill="#000000" stroke="#000000" stroke-width="2.0" stroke-linecap="butt" d="m469.22046 28.539686l9.076202 -3.303465l-9.076202 -3.303465z" fill-rule="evenodd"/><path fill="#000000" fill-opacity="0.0" d="m295.66666 8.666667l-0.3779297 361.32285" fill-rule="evenodd"/><path stroke="#000000" stroke-width="3.0" stroke-linejoin="round" stroke-linecap="butt" stroke-dasharray="24.0,9.0" d="m295.66666 8.666667l-0.3779297 361.32285" fill-rule="evenodd"/><path fill="#000000" fill-opacity="0.0" d="m7.8293962 333.58267l88.661415 0l0 42.015747l-88.661415 0z" fill-rule="evenodd"/><path fill="#000000" fill-opacity="0.0" d="m16.829397 343.61368l46.658844 0l0 21.45285l-46.658844 0l0 -21.45285z" fill-rule="nonzero"/><path fill="#000000" d="m17.673147 356.2058l1.65625 -0.140625q0.125 1.0 0.546875 1.640625q0.4375 0.640625 1.34375 1.046875q0.921875 0.390625 2.0625 0.390625q1.0 0 1.78125 -0.296875q0.78125 -0.296875 1.15625 -0.8125q0.375 -0.53125 0.375 -1.15625q0 -0.625 -0.375 -1.09375q-0.359375 -0.46875 -1.1875 -0.796875q-0.546875 -0.203125 -2.390625 -0.640625q-1.828125 -0.453125 -2.5625 -0.84375q-0.96875 -0.5 -1.4375 -1.234375q-0.46875 -0.75 -0.46875 -1.671875q0 -1.0 0.578125 -1.875q0.578125 -0.890625 1.671875 -1.34375q1.109375 -0.453125 2.453125 -0.453125q1.484375 0 2.609375 0.484375q1.140625 0.46875 1.75 1.40625q0.609375 0.921875 0.65625 2.09375l-1.6875 0.125q-0.140625 -1.265625 -0.9375 -1.90625q-0.78125 -0.65625 -2.3125 -0.65625q-1.609375 0 -2.34375 0.59375q-0.734375 0.59375 -0.734375 1.421875q0 0.71875 0.53125 1.171875q0.5 0.46875 2.65625 0.96875q2.15625 0.484375 2.953125 0.84375q1.171875 0.53125 1.71875 1.359375q0.5625 0.828125 0.5625 1.90625q0 1.0625 -0.609375 2.015625q-0.609375 0.9375 -1.75 1.46875q-1.140625 0.515625 -2.578125 0.515625q-1.8125 0 -3.046875 -0.53125q-1.21875 -0.53125 -1.921875 -1.59375q-0.6875 -1.0625 -0.71875 -2.40625zm16.412321 2.828125l0.234375 1.453125q-0.6875 0.140625 -1.234375 0.140625q-0.890625 0 -1.3906231 -0.28125q-0.484375 -0.28125 -0.6875 -0.734375q-0.203125 -0.46875 -0.203125 -1.9375l0 -5.578125l-1.203125 0l0 -1.265625l1.203125 0l0 -2.390625l1.6249981 -0.984375l0 3.375l1.65625 0l0 1.265625l-1.65625 0l0 5.671875q0 0.6875 0.078125 0.890625q0.09375 0.203125 0.28125 0.328125q0.203125 0.109375 0.578125 0.109375q0.265625 0 0.71875 -0.0625zm7.917679 0.28125q-0.921875 0.765625 -1.765625 1.09375q-0.828125 0.3125 -1.796875 0.3125q-1.59375 0 -2.453125 -0.78125q-0.859375 -0.78125 -0.859375 -1.984375q0 -0.71875 0.328125 -1.296875q0.328125 -0.59375 0.84375 -0.9375q0.53125 -0.359375 1.1875 -0.546875q0.46875 -0.125 1.453125 -0.25q1.984375 -0.234375 2.921875 -0.5625q0.015625 -0.34375 0.015625 -0.421875q0 -1.0 -0.46875 -1.421875q-0.625 -0.546875 -1.875 -0.546875q-1.15625 0 -1.703125 0.40625q-0.546875 0.40625 -0.8125 1.421875l-1.609375 -0.21875q0.21875 -1.015625 0.71875 -1.640625q0.5 -0.640625 1.453125 -0.984375q0.953125 -0.34375 2.1875 -0.34375q1.25 0 2.015625 0.296875q0.78125 0.28125 1.140625 0.734375q0.375 0.4375 0.515625 1.109375q0.078125 0.421875 0.078125 1.515625l0 2.1875q0 2.28125 0.109375 2.890625q0.109375 0.59375 0.40625 1.15625l-1.703125 0q-0.265625 -0.515625 -0.328125 -1.1875zm-0.140625 -3.671875q-0.890625 0.375 -2.671875 0.625q-1.015625 0.140625 -1.4375 0.328125q-0.421875 0.1875 -0.65625 0.53125q-0.21875 0.34375 -0.21875 0.78125q0 0.65625 0.5 1.09375q0.5 0.4375 1.453125 0.4375q0.9375 0 1.671875 -0.40625q0.75 -0.421875 1.09375 -1.140625q0.265625 -0.5625 0.265625 -1.640625l0 -0.609375zm10.516342 1.3125l1.609375 0.21875q-0.265625 1.65625 -1.359375 2.609375q-1.078125 0.9375 -2.671875 0.9375q-1.984375 0 -3.1875 -1.296875q-1.203125 -1.296875 -1.203125 -3.71875q0 -1.578125 0.515625 -2.75q0.515625 -1.171875 1.578125 -1.75q1.0625 -0.59375 2.3125 -0.59375q1.578125 0 2.578125 0.796875q1.0 0.796875 1.28125 2.265625l-1.59375 0.234375q-0.234375 -0.96875 -0.8125 -1.453125q-0.578125 -0.5 -1.390625 -0.5q-1.234375 0 -2.015625 0.890625q-0.78125 0.890625 -0.78125 2.8125q0 1.953125 0.75 2.84375q0.75 0.875 1.953125 0.875q0.96875 0 1.609375 -0.59375q0.65625 -0.59375 0.828125 -1.828125zm3.015625 3.546875l0 -13.359375l1.640625 0l0 7.625l3.890625 -3.9375l2.109375 0l-3.6875 3.59375l4.0625 6.078125l-2.015625 0l-3.203125 -4.953125l-1.15625 1.125l0 3.828125l-1.640625 0z" fill-rule="nonzero"/><path fill="#000000" fill-opacity="0.0" d="m63.48824 343.61368l0 0l0 21.45285l0 0l0 -21.45285z" fill-rule="nonzero"/><path fill="#000000" d="m16.829397 361.716l46.658844 0l0 1.6799927l-46.658844 0l0 -1.6799927z" fill-rule="nonzero"/><path fill="#000000" fill-opacity="0.0" d="m309.88715 333.58267l88.66141 0l0 42.015747l-88.66141 0z" fill-rule="evenodd"/><path fill="#000000" fill-opacity="0.0" d="m318.88715 343.61368l44.600098 0l0 21.45285l-44.600098 0l0 -21.45285z" fill-rule="nonzero"/><path fill="#000000" d="m320.38715 360.5027l0 -13.359375l1.765625 0l0 5.484375l6.9375 0l0 -5.484375l1.765625 0l0 13.359375l-1.765625 0l0 -6.296875l-6.9375 0l0 6.296875l-1.765625 0zm19.832306 -3.109375l1.6875 0.203125q-0.40625 1.484375 -1.484375 2.3125q-1.078125 0.8125 -2.765625 0.8125q-2.125 0 -3.375 -1.296875q-1.234375 -1.3125 -1.234375 -3.671875q0 -2.453125 1.25 -3.796875q1.265625 -1.34375 3.265625 -1.34375q1.9375 0 3.15625 1.328125q1.234375 1.3125 1.234375 3.703125q0 0.15625 0 0.4375l-7.21875 0q0.09375 1.59375 0.90625 2.453125q0.8125 0.84375 2.015625 0.84375q0.90625 0 1.546875 -0.46875q0.640625 -0.484375 1.015625 -1.515625zm-5.390625 -2.65625l5.40625 0q-0.109375 -1.21875 -0.625 -1.828125q-0.78125 -0.953125 -2.03125 -0.953125q-1.125 0 -1.90625 0.765625q-0.765625 0.75 -0.84375 2.015625zm15.453857 4.578125q-0.921875 0.765625 -1.765625 1.09375q-0.828125 0.3125 -1.796875 0.3125q-1.59375 0 -2.453125 -0.78125q-0.859375 -0.78125 -0.859375 -1.984375q0 -0.71875 0.328125 -1.296875q0.328125 -0.59375 0.84375 -0.9375q0.53125 -0.359375 1.1875 -0.546875q0.46875 -0.125 1.453125 -0.25q1.984375 -0.234375 2.921875 -0.5625q0.015625 -0.34375 0.015625 -0.421875q0 -1.0 -0.46875 -1.421875q-0.625 -0.546875 -1.875 -0.546875q-1.15625 0 -1.703125 0.40625q-0.546875 0.40625 -0.8125 1.421875l-1.609375 -0.21875q0.21875 -1.015625 0.71875 -1.640625q0.5 -0.640625 1.453125 -0.984375q0.953125 -0.34375 2.1875 -0.34375q1.25 0 2.015625 0.296875q0.78125 0.28125 1.140625 0.734375q0.375 0.4375 0.515625 1.109375q0.078125 0.421875 0.078125 1.515625l0 2.1875q0 2.28125 0.109375 2.890625q0.109375 0.59375 0.40625 1.15625l-1.703125 0q-0.265625 -0.515625 -0.328125 -1.1875zm-0.140625 -3.671875q-0.890625 0.375 -2.671875 0.625q-1.015625 0.140625 -1.4375 0.328125q-0.421875 0.1875 -0.65625 0.53125q-0.21875 0.34375 -0.21875 0.78125q0 0.65625 0.5 1.09375q0.5 0.4375 1.453125 0.4375q0.9375 0 1.671875 -0.40625q0.75 -0.421875 1.09375 -1.140625q0.265625 -0.5625 0.265625 -1.640625l0 -0.609375zm4.203827 8.5625l0 -13.375l1.484375 0l0 1.25q0.53125 -0.734375 1.1875 -1.09375q0.671875 -0.375 1.625 -0.375q1.234375 0 2.171875 0.640625q0.953125 0.625 1.4375 1.796875q0.484375 1.15625 0.484375 2.546875q0 1.484375 -0.53125 2.671875q-0.53125 1.1875 -1.546875 1.828125q-1.015625 0.625 -2.140625 0.625q-0.8125 0 -1.46875 -0.34375q-0.65625 -0.34375 -1.0625 -0.875l0 4.703125l-1.640625 0zm1.484375 -8.484375q0 1.859375 0.75 2.765625q0.765625 0.890625 1.828125 0.890625q1.09375 0 1.875 -0.921875q0.78125 -0.9375 0.78125 -2.875q0 -1.84375 -0.765625 -2.765625q-0.75 -0.921875 -1.8125 -0.921875q-1.046875 0 -1.859375 0.984375q-0.796875 0.96875 -0.796875 2.84375z" fill-rule="nonzero"/><path fill="#010000" fill-opacity="0.0" d="m363.48724 343.61368l0 0l0 21.45285l0 0l0 -21.45285z" fill-rule="nonzero"/><path fill="#000000" d="m318.88715 361.716l44.600098 0l0 1.6799927l-44.600098 0l0 -1.6799927z" fill-rule="nonzero"/></g></svg>