<svg version="1.1" viewBox="0.0 0.0 362.501312335958 135.501312335958" fill="none" stroke="none" stroke-linecap="square" stroke-miterlimit="10" xmlns:xlink="http://www.w3.org/1999/xlink" xmlns="http://www.w3.org/2000/svg"><clipPath id="p.0"><path d="m0 0l362.5013 0l0 135.50131l-362.5013 0l0 -135.50131z" clip-rule="nonzero"/></clipPath><g clip-path="url(#p.0)"><path fill="#000000" fill-opacity="0.0" d="m0 0l362.5013 0l0 135.50131l-362.5013 0z" fill-rule="evenodd"/><path fill="#000000" fill-opacity="0.0" d="m9.0026245 34.464565l196.59842 0l0 89.51181l-196.59842 0z" fill-rule="evenodd"/><path stroke="#000000" stroke-width="2.0" stroke-linejoin="round" stroke-linecap="butt" d="m9.0026245 34.464565l196.59842 0l0 89.51181l-196.59842 0z" fill-rule="evenodd"/><path fill="#000000" fill-opacity="0.0" d="m0 0l145.88977 0l0 38.771652l-145.88977 0z" fill-rule="evenodd"/><path fill="#000000" d="m16.3125 21.485q0 0.46875 -0.203125 0.8125q-0.203125 0.328125 -0.515625 0.546875q-0.328125 0.234375 -0.734375 0.34375q-0.40625 0.09375 -0.828125 0.09375q-0.53125 0 -0.984375 -0.140625q-0.453125 -0.140625 -0.796875 -0.4375q-0.34375 -0.28125 -0.5625 -0.6875q-0.21875 -0.40625 -0.28125 -0.9375l-1.484375 0q0.03125 0.734375 0.328125 1.328125q0.296875 0.59375 0.8125 1.046875q0.578125 0.515625 1.359375 0.796875q0.796875 0.265625 1.609375 0.265625q0.671875 0 1.34375 -0.1875q0.6875 -0.203125 1.234375 -0.578125q0.53125 -0.375 0.875 -0.9375q0.34375 -0.578125 0.34375 -1.34375q0 -0.765625 -0.328125 -1.34375q-0.3125 -0.578125 -0.828125 -0.96875q-0.515625 -0.4375 -1.15625 -0.703125q-0.625 -0.28125 -1.265625 -0.484375q-0.375 -0.109375 -0.8125 -0.265625q-0.4375 -0.15625 -0.796875 -0.390625q-0.375 -0.234375 -0.625 -0.578125q-0.234375 -0.34375 -0.25 -0.828125q0 -0.453125 0.1875 -0.796875q0.1875 -0.34375 0.5 -0.578125q0.296875 -0.234375 0.6875 -0.34375q0.40625 -0.125 0.8125 -0.125q0.515625 0 0.921875 0.15625q0.421875 0.15625 0.71875 0.453125q0.296875 0.28125 0.46875 0.6875q0.1875 0.40625 0.25 0.890625l1.484375 0q-0.015625 -0.78125 -0.34375 -1.40625q-0.3125 -0.640625 -0.84375 -1.078125q-0.53125 -0.453125 -1.21875 -0.6875q-0.6875 -0.25 -1.4375 -0.25q-0.671875 0 -1.34375 0.203125q-0.65625 0.203125 -1.171875 0.609375q-0.53125 0.390625 -0.859375 0.96875q-0.3125 0.578125 -0.3125 1.3125q0 0.734375 0.3125 1.28125q0.328125 0.546875 0.84375 0.9375q0.515625 0.390625 1.125 0.671875q0.625 0.28125 1.234375 0.46875q0.40625 0.140625 0.859375 0.3125q0.453125 0.15625 0.828125 0.390625q0.375 0.25 0.609375 0.609375q0.234375 0.359375 0.234375 0.890625zm7.0703125 -7.625l-1.453125 0l0 2.046875l-2.21875 0l0 1.109375l2.21875 0l0 4.59375q0 0.78125 0.203125 1.34375q0.21875 0.546875 0.578125 0.890625q0.359375 0.34375 0.84375 0.515625q0.484375 0.15625 1.046875 0.15625q0.34375 0 0.671875 -0.03125q0.34375 -0.03125 0.65625 -0.09375q0.296875 -0.0625 0.546875 -0.140625q0.265625 -0.078125 0.453125 -0.1875l-0.203125 -1.03125q-0.140625 0.03125 -0.34375 0.078125q-0.203125 0.046875 -0.4375 0.078125q-0.25 0.046875 -0.5 0.078125q-0.25 0.015625 -0.484375 0.015625q-0.3125 0 -0.609375 -0.078125q-0.28125 -0.078125 -0.5 -0.265625q-0.21875 -0.1875 -0.34375 -0.5q-0.125 -0.328125 -0.125 -0.828125l0 -4.59375l3.21875 0l0 -1.109375l-3.21875 0l0 -2.046875zm11.7265625 1.890625q-0.921875 0 -1.65625 0.40625q-0.71875 0.390625 -1.234375 1.09375l0 -0.21875l-0.0625 -1.125l-1.375 0l0 8.453125l1.453125 0l0 -5.421875q0.140625 -0.390625 0.34375 -0.703125q0.21875 -0.328125 0.515625 -0.546875q0.3125 -0.25 0.734375 -0.375q0.4375 -0.125 0.96875 -0.125q0.421875 0 0.796875 0.046875q0.375 0.03125 0.796875 0.125l0.203125 -1.40625q-0.21875 -0.09375 -0.65625 -0.140625q-0.4375 -0.0625 -0.828125 -0.0625zm4.2890625 0.15625l0 1.25l2.875 0l0 5.953125l-2.875 0l0 1.25l7.078125 0l0 -1.25l-2.765625 0l0 -7.203125l-4.3125 0zm2.6875 -2.21875q0 0.34375 0.203125 0.578125q0.21875 0.234375 0.65625 0.234375q0.4375 0 0.65625 -0.234375q0.21875 -0.234375 0.21875 -0.578125q0 -0.203125 -0.0625 -0.359375q-0.0625 -0.171875 -0.1875 -0.28125q-0.109375 -0.09375 -0.265625 -0.15625q-0.15625 -0.0625 -0.359375 -0.0625q-0.203125 0 -0.359375 0.0625q-0.15625 0.0625 -0.265625 0.15625q-0.125 0.125 -0.1875 0.296875q-0.046875 0.15625 -0.046875 0.34375zm6.6796875 10.671875l1.453125 0l0 -6.0625q0.140625 -0.28125 0.34375 -0.5q0.203125 -0.234375 0.4375 -0.40625q0.28125 -0.1875 0.625 -0.296875q0.34375 -0.125 0.75 -0.125q0.453125 0 0.8125 0.109375q0.359375 0.109375 0.609375 0.359375q0.234375 0.234375 0.359375 0.625q0.125 0.390625 0.125 0.953125l0 5.34375l1.453125 0l0 -5.375q0 -0.84375 -0.21875 -1.453125q-0.203125 -0.609375 -0.578125 -1.015625q-0.390625 -0.390625 -0.9375 -0.578125q-0.53125 -0.1875 -1.203125 -0.1875q-0.484375 0 -0.9375 0.140625q-0.4375 0.140625 -0.8125 0.390625q-0.25 0.15625 -0.46875 0.390625q-0.21875 0.21875 -0.40625 0.484375l-0.109375 -1.25l-1.296875 0l0 8.453125zm9.3359375 -4.296875l0 0.15625q0 0.90625 0.234375 1.703125q0.234375 0.78125 0.671875 1.359375q0.4375 0.578125 1.0625 0.90625q0.625 0.328125 1.390625 0.328125q0.46875 0 0.859375 -0.109375q0.40625 -0.09375 0.734375 -0.265625q0.203125 -0.125 0.390625 -0.28125q0.1875 -0.15625 0.34375 -0.34375l0 0.734375q0 0.546875 -0.15625 0.96875q-0.15625 0.421875 -0.4375 0.703125q-0.296875 0.296875 -0.71875 0.4375q-0.40625 0.15625 -0.921875 0.15625q-0.296875 0 -0.59375 -0.0625q-0.28125 -0.0625 -0.5625 -0.1875q-0.296875 -0.140625 -0.578125 -0.359375q-0.28125 -0.21875 -0.546875 -0.546875l-0.75 0.875q0.296875 0.40625 0.6875 0.6875q0.40625 0.28125 0.84375 0.453125q0.4375 0.171875 0.859375 0.234375q0.421875 0.078125 0.75 0.078125q0.796875 0 1.453125 -0.234375q0.65625 -0.234375 1.125 -0.6875q0.46875 -0.453125 0.734375 -1.109375q0.265625 -0.640625 0.265625 -1.484375l0 -8.265625l-1.3125 0l-0.078125 0.921875q-0.140625 -0.1875 -0.3125 -0.34375q-0.171875 -0.15625 -0.359375 -0.28125q-0.34375 -0.21875 -0.765625 -0.328125q-0.421875 -0.125 -0.9375 -0.125q-0.78125 0 -1.40625 0.328125q-0.625 0.3125 -1.0625 0.875q-0.4375 0.578125 -0.671875 1.375q-0.234375 0.78125 -0.234375 1.734375zm1.453125 0.15625l0 -0.15625q0 -0.625 0.125 -1.171875q0.125 -0.5625 0.40625 -1.0q0.28125 -0.421875 0.703125 -0.671875q0.4375 -0.25 1.046875 -0.25q0.359375 0 0.65625 0.09375q0.296875 0.09375 0.546875 0.25q0.234375 0.15625 0.421875 0.375q0.1875 0.21875 0.328125 0.484375l0 3.875q-0.140625 0.28125 -0.328125 0.515625q-0.1875 0.21875 -0.421875 0.375q-0.234375 0.171875 -0.546875 0.265625q-0.296875 0.078125 -0.671875 0.078125q-0.59375 0 -1.03125 -0.234375q-0.421875 -0.25 -0.703125 -0.671875q-0.28125 -0.421875 -0.40625 -0.96875q-0.125 -0.5625 -0.125 -1.1875z" fill-rule="nonzero"/><path fill="#efefef" d="m76.826775 49.165356l108.472435 0l0 30.929134l-108.472435 0z" fill-rule="evenodd"/><path stroke="#000000" stroke-width="2.0" stroke-linejoin="round" stroke-linecap="butt" d="m76.826775 49.165356l108.472435 0l0 30.929134l-108.472435 0z" fill-rule="evenodd"/><path fill="#efefef" d="m76.826775 80.08662l108.472435 0l0 30.92913l-108.472435 0z" fill-rule="evenodd"/><path stroke="#000000" stroke-width="2.0" stroke-linejoin="round" stroke-linecap="butt" d="m76.826775 80.08662l108.472435 0l0 30.92913l-108.472435 0z" fill-rule="evenodd"/><path fill="#000000" d="m127.28565 98.37993l1.4062424 -0.1875q0.25 1.203125 0.828125 1.734375q0.578125 0.515625 1.421875 0.515625q0.984375 0 1.671875 -0.6875q0.6875 -0.6875 0.6875 -1.703125q0 -0.96875 -0.640625 -1.59375q-0.625 -0.625 -1.609375 -0.625q-0.390625 0 -0.984375 0.15625l0.15625 -1.234375q0.140625 0.015625 0.21875 0.015625q0.90625 0 1.625 -0.46875q0.71875 -0.46875 0.71875 -1.453125q0 -0.765625 -0.53125 -1.265625q-0.515625 -0.515625 -1.34375 -0.515625q-0.828125 0 -1.375 0.515625q-0.546875 0.515625 -0.703125 1.546875l-1.4062424 -0.25q0.265625 -1.421875 1.1718674 -2.1875q0.921875 -0.78125 2.28125 -0.78125q0.9375 0 1.71875 0.40625q0.796875 0.390625 1.203125 1.09375q0.421875 0.6875 0.421875 1.46875q0 0.75 -0.40625 1.359375q-0.390625 0.609375 -1.171875 0.96875q1.015625 0.234375 1.578125 0.96875q0.5625 0.734375 0.5625 1.84375q0 1.5 -1.09375 2.546875q-1.09375 1.046875 -2.765625 1.046875q-1.5 0 -2.5 -0.890625q-0.9999924 -0.90625 -1.1406174 -2.34375z" fill-rule="nonzero"/><path fill="#000000" fill-opacity="0.0" d="m9.015748 48.295277l67.81103 0l0 30.929134l-67.81103 0z" fill-rule="evenodd"/><path fill="#000000" d="m20.046999 61.166718l-1.296875 0l0 8.453125l1.375 0l0 -6.734375q0.046875 -0.125 0.109375 -0.234375q0.078125 -0.109375 0.1875 -0.1875q0.125 -0.109375 0.3125 -0.171875q0.203125 -0.0625 0.453125 -0.0625q0.234375 0 0.40625 0.0625q0.1875 0.0625 0.296875 0.1875q0.125 0.125 0.1875 0.328125q0.0625 0.203125 0.0625 0.46875l0 6.34375l1.375 0l0 -6.328125q0 -0.046875 0 -0.078125q0 -0.046875 0 -0.078125q0.015625 -0.203125 0.078125 -0.359375q0.078125 -0.15625 0.203125 -0.28125q0.125 -0.125 0.3125 -0.1875q0.1875 -0.078125 0.453125 -0.078125q0.234375 0 0.421875 0.0625q0.1875 0.0625 0.3125 0.1875q0.109375 0.140625 0.171875 0.34375q0.0625 0.203125 0.0625 0.46875l0 6.328125l1.375 0l0 -6.3125q0 -0.609375 -0.140625 -1.0625q-0.140625 -0.453125 -0.40625 -0.734375q-0.234375 -0.25 -0.59375 -0.375q-0.34375 -0.125 -0.78125 -0.125q-0.328125 0 -0.59375 0.078125q-0.265625 0.078125 -0.484375 0.21875q-0.171875 0.109375 -0.328125 0.265625q-0.140625 0.15625 -0.25 0.34375q-0.09375 -0.203125 -0.21875 -0.359375q-0.109375 -0.15625 -0.265625 -0.265625q-0.203125 -0.140625 -0.46875 -0.203125q-0.265625 -0.078125 -0.609375 -0.078125q-0.59375 0 -1.015625 0.25q-0.40625 0.25 -0.671875 0.703125l-0.03125 -0.796875zm15.945311 9.640625l0 -1.1875l-7.156248 0l0 1.1875l7.156248 0zm2.5859375 2.0625l1.4375 0l0 -4.0625q0.15625 0.171875 0.328125 0.3125q0.1875 0.140625 0.390625 0.265625q0.34375 0.1875 0.75 0.28125q0.421875 0.109375 0.90625 0.109375q0.796875 0 1.421875 -0.328125q0.625 -0.328125 1.046875 -0.90625q0.421875 -0.578125 0.640625 -1.359375q0.21875 -0.796875 0.21875 -1.703125l0 -0.15625q0 -0.953125 -0.21875 -1.734375q-0.21875 -0.796875 -0.640625 -1.375q-0.421875 -0.5625 -1.046875 -0.875q-0.625 -0.328125 -1.4375 -0.328125q-0.46875 0 -0.875 0.09375q-0.390625 0.09375 -0.71875 0.28125q-0.234375 0.125 -0.4375 0.3125q-0.203125 0.171875 -0.375 0.390625l-0.078125 -0.921875l-1.3125 0l0 11.703125zm5.6875 -7.546875l0 0.15625q0 0.625 -0.140625 1.1875q-0.125 0.5625 -0.40625 0.984375q-0.28125 0.4375 -0.71875 0.6875q-0.4375 0.25 -1.046875 0.25q-0.375 0 -0.6875 -0.09375q-0.296875 -0.09375 -0.546875 -0.25q-0.21875 -0.140625 -0.390625 -0.34375q-0.171875 -0.203125 -0.3125 -0.4375l0 -4.078125q0.15625 -0.265625 0.34375 -0.484375q0.203125 -0.21875 0.453125 -0.359375q0.21875 -0.15625 0.5 -0.234375q0.296875 -0.078125 0.625 -0.078125q0.609375 0 1.046875 0.25q0.4375 0.25 0.734375 0.671875q0.28125 0.4375 0.40625 1.0q0.140625 0.546875 0.140625 1.171875zm7.3359375 -6.203125l-1.453125 0l0 2.046875l-2.21875 0l0 1.109375l2.21875 0l0 4.59375q0 0.78125 0.203125 1.34375q0.21875 0.546875 0.578125 0.890625q0.359375 0.34375 0.84375 0.515625q0.484375 0.15625 1.046875 0.15625q0.34375 0 0.671875 -0.03125q0.34375 -0.03125 0.65625 -0.09375q0.296875 -0.0625 0.546875 -0.140625q0.265625 -0.078125 0.453125 -0.1875l-0.203125 -1.03125q-0.140625 0.03125 -0.34375 0.078125q-0.203125 0.046875 -0.4375 0.078125q-0.25 0.046875 -0.5 0.078125q-0.25 0.015625 -0.484375 0.015625q-0.3125 0 -0.609375 -0.078125q-0.28125 -0.078125 -0.5 -0.265625q-0.21875 -0.1875 -0.34375 -0.5q-0.125 -0.328125 -0.125 -0.828125l0 -4.59375l3.21875 0l0 -1.109375l-3.21875 0l0 -2.046875zm11.7265625 1.890625q-0.921875 0 -1.65625 0.40625q-0.71875 0.390625 -1.234375 1.09375l0 -0.21875l-0.0625 -1.125l-1.375 0l0 8.453125l1.453125 0l0 -5.421875q0.140625 -0.390625 0.34375 -0.703125q0.21875 -0.328125 0.515625 -0.546875q0.3125 -0.25 0.734375 -0.375q0.4375 -0.125 0.96875 -0.125q0.421875 0 0.796875 0.046875q0.375 0.03125 0.796875 0.125l0.203125 -1.40625q-0.21875 -0.09375 -0.65625 -0.140625q-0.4375 -0.0625 -0.828125 -0.0625z" fill-rule="nonzero"/><path fill="#000000" fill-opacity="0.0" d="m9.0026245 79.21654l67.81103 0l0 30.92913l-67.81103 0z" fill-rule="evenodd"/><path fill="#000000" d="m20.033875 92.087975l-1.296875 0l0 8.453125l1.375 0l0 -6.734375q0.046875 -0.125 0.109375 -0.234375q0.078125 -0.109375 0.1875 -0.1875q0.125 -0.109375 0.3125 -0.171875q0.203125 -0.0625 0.453125 -0.0625q0.234375 0 0.40625 0.0625q0.1875 0.0625 0.296875 0.1875q0.125 0.125 0.1875 0.328125q0.0625 0.203125 0.0625 0.46875l0 6.34375l1.375 0l0 -6.328125q0 -0.046875 0 -0.078125q0 -0.046875 0 -0.078125q0.015625 -0.203125 0.078125 -0.359375q0.078125 -0.15625 0.203125 -0.28125q0.125 -0.125 0.3125 -0.1875q0.1875 -0.078125 0.453125 -0.078125q0.234375 0 0.421875 0.0625q0.1875 0.0625 0.3125 0.1875q0.109375 0.140625 0.171875 0.34375q0.0625 0.203125 0.0625 0.46875l0 6.328125l1.375 0l0 -6.3125q0 -0.609375 -0.140625 -1.0625q-0.140625 -0.453125 -0.40625 -0.734375q-0.234375 -0.25 -0.59375 -0.375q-0.34375 -0.125 -0.78125 -0.125q-0.328125 0 -0.59375 0.078125q-0.265625 0.078125 -0.484375 0.21875q-0.171875 0.109375 -0.328125 0.265625q-0.140625 0.15625 -0.25 0.34375q-0.09375 -0.203125 -0.21875 -0.359375q-0.109375 -0.15625 -0.265625 -0.265625q-0.203125 -0.140625 -0.46875 -0.203125q-0.265625 -0.078125 -0.609375 -0.078125q-0.59375 0 -1.015625 0.25q-0.40625 0.25 -0.671875 0.703125l-0.03125 -0.796875zm15.9453125 9.640625l0 -1.1875l-7.15625 0l0 1.1875l7.15625 0zm2.8203125 -13.1875l0 1.25l2.875 0l0 9.5l-2.875 0l0 1.25l7.078125 0l0 -1.25l-2.765625 0l0 -10.75l-4.3125 0zm13.1015625 12.15625q1.234375 0 2.078125 -0.5q0.84375 -0.5 1.265625 -1.140625l-0.890625 -0.6875q-0.390625 0.515625 -1.0 0.828125q-0.59375 0.3125 -1.375 0.3125q-0.578125 0 -1.0625 -0.21875q-0.484375 -0.21875 -0.828125 -0.59375q-0.34375 -0.359375 -0.53125 -0.828125q-0.1875 -0.46875 -0.25 -1.09375l0 -0.046875l6.046875 0l0 -0.65625q0 -0.875 -0.234375 -1.625q-0.21875 -0.765625 -0.671875 -1.328125q-0.453125 -0.5625 -1.140625 -0.875q-0.671875 -0.3125 -1.59375 -0.3125q-0.71875 0 -1.421875 0.296875q-0.6875 0.296875 -1.21875 0.84375q-0.546875 0.5625 -0.875 1.375q-0.328125 0.8125 -0.328125 1.828125l0 0.328125q0 0.890625 0.296875 1.640625q0.296875 0.75 0.828125 1.296875q0.53125 0.546875 1.265625 0.859375q0.75 0.296875 1.640625 0.296875zm-0.1875 -7.578125q0.5625 0 0.953125 0.203125q0.40625 0.203125 0.671875 0.53125q0.265625 0.328125 0.40625 0.78125q0.15625 0.4375 0.15625 0.828125l0 0.078125l-4.546875 0q0.09375 -0.59375 0.296875 -1.03125q0.21875 -0.453125 0.53125 -0.765625q0.3125 -0.3125 0.703125 -0.46875q0.390625 -0.15625 0.828125 -0.15625zm6.0546875 7.421875l1.453125 0l0 -6.0625q0.140625 -0.28125 0.34375 -0.5q0.203125 -0.234375 0.4375 -0.40625q0.28125 -0.1875 0.625 -0.296875q0.34375 -0.125 0.75 -0.125q0.453125 0 0.8125 0.109375q0.359375 0.109375 0.609375 0.359375q0.234375 0.234375 0.359375 0.625q0.125 0.390625 0.125 0.953125l0 5.34375l1.453125 0l0 -5.375q0 -0.84375 -0.21875 -1.453125q-0.203125 -0.609375 -0.578125 -1.015625q-0.390625 -0.390625 -0.9375 -0.578125q-0.53125 -0.1875 -1.203125 -0.1875q-0.484375 0 -0.9375 0.140625q-0.4375 0.140625 -0.8125 0.390625q-0.25 0.15625 -0.46875 0.390625q-0.21875 0.21875 -0.40625 0.484375l-0.109375 -1.25l-1.296875 0l0 8.453125z" fill-rule="nonzero"/><path fill="#efefef" d="m260.71652 51.175854l30.992126 0l0 30.929134l-30.992126 0z" fill-rule="evenodd"/><path stroke="#000000" stroke-width="2.0" stroke-linejoin="round" stroke-linecap="butt" d="m260.71652 51.175854l30.992126 0l0 30.929134l-30.992126 0z" fill-rule="evenodd"/><path fill="#000000" d="m278.20868 69.547295l0.890625 2.953125l1.4375 0l-3.609375 -11.375l-1.203125 0l-3.671875 11.375l1.4375 0l0.921875 -2.953125l3.796875 0zm-3.40625 -1.25l1.515625 -4.9375l1.5 4.9375l-3.015625 0z" fill-rule="nonzero"/><path fill="#efefef" d="m291.70865 51.175854l30.992126 0l0 30.929134l-30.992126 0z" fill-rule="evenodd"/><path stroke="#000000" stroke-width="2.0" stroke-linejoin="round" stroke-linecap="butt" d="m291.70865 51.175854l30.992126 0l0 30.929134l-30.992126 0z" fill-rule="evenodd"/><path fill="#000000" d="m303.74768 72.50042l3.640625 0q0.734375 -0.015625 1.40625 -0.234375q0.6875 -0.21875 1.21875 -0.625q0.515625 -0.40625 0.828125 -1.015625q0.3125 -0.609375 0.3125 -1.40625q0 -0.515625 -0.15625 -0.953125q-0.15625 -0.4375 -0.421875 -0.78125q-0.265625 -0.328125 -0.671875 -0.59375q-0.390625 -0.265625 -0.8125 -0.359375l0 -0.03125q0.40625 -0.171875 0.703125 -0.375q0.296875 -0.203125 0.53125 -0.5q0.234375 -0.296875 0.375 -0.65625q0.140625 -0.375 0.140625 -0.8125q0.015625 -0.796875 -0.296875 -1.359375q-0.3125 -0.578125 -0.84375 -0.953125q-0.515625 -0.359375 -1.1875 -0.53125q-0.671875 -0.1875 -1.375 -0.1875l-3.390625 0l0 11.375zm1.453125 -5.328125l2.3125 0q0.453125 0.015625 0.84375 0.15625q0.40625 0.140625 0.703125 0.40625q0.296875 0.265625 0.46875 0.640625q0.171875 0.375 0.15625 0.859375q0 0.46875 -0.1875 0.84375q-0.171875 0.375 -0.484375 0.640625q-0.3125 0.25 -0.71875 0.40625q-0.40625 0.140625 -0.859375 0.140625l-2.234375 0l0 -4.09375zm0 -1.203125l0 -3.609375l1.984375 0q0.421875 0 0.8125 0.109375q0.40625 0.09375 0.71875 0.3125q0.3125 0.21875 0.484375 0.5625q0.1875 0.328125 0.1875 0.796875q0 0.453125 -0.1875 0.796875q-0.1875 0.328125 -0.484375 0.546875q-0.3125 0.234375 -0.703125 0.359375q-0.390625 0.125 -0.796875 0.125l-2.015625 0z" fill-rule="nonzero"/><path fill="#efefef" d="m322.70078 51.175854l30.992126 0l0 30.929134l-30.992126 0z" fill-rule="evenodd"/><path stroke="#000000" stroke-width="2.0" stroke-linejoin="round" stroke-linecap="butt" d="m322.70078 51.175854l30.992126 0l0 30.929134l-30.992126 0z" fill-rule="evenodd"/><path fill="#000000" d="m342.13043 69.078545l-1.453125 0q-0.0625 0.515625 -0.234375 0.953125q-0.171875 0.4375 -0.46875 0.765625q-0.28125 0.328125 -0.703125 0.515625q-0.421875 0.171875 -0.984375 0.171875q-0.53125 0 -0.921875 -0.171875q-0.390625 -0.171875 -0.671875 -0.46875q-0.296875 -0.28125 -0.484375 -0.65625q-0.1875 -0.390625 -0.296875 -0.828125q-0.125 -0.4375 -0.171875 -0.875q-0.046875 -0.453125 -0.046875 -0.875l0 -1.609375q0 -0.421875 0.046875 -0.859375q0.046875 -0.453125 0.171875 -0.890625q0.109375 -0.421875 0.296875 -0.796875q0.203125 -0.390625 0.484375 -0.6875q0.28125 -0.28125 0.671875 -0.453125q0.40625 -0.171875 0.921875 -0.171875q0.5625 0 0.984375 0.203125q0.421875 0.1875 0.703125 0.515625q0.296875 0.34375 0.46875 0.796875q0.171875 0.4375 0.234375 0.953125l1.453125 0q-0.09375 -0.8125 -0.390625 -1.484375q-0.296875 -0.671875 -0.78125 -1.15625q-0.484375 -0.484375 -1.15625 -0.734375q-0.671875 -0.265625 -1.515625 -0.265625q-0.71875 0 -1.296875 0.203125q-0.5625 0.1875 -1.0 0.546875q-0.453125 0.34375 -0.78125 0.828125q-0.328125 0.484375 -0.53125 1.046875q-0.21875 0.5625 -0.328125 1.1875q-0.109375 0.609375 -0.109375 1.234375l0 1.59375q0 0.625 0.109375 1.25q0.109375 0.609375 0.328125 1.171875q0.203125 0.5625 0.53125 1.046875q0.328125 0.46875 0.78125 0.828125q0.4375 0.34375 1.015625 0.546875q0.578125 0.203125 1.28125 0.203125q0.8125 0 1.484375 -0.265625q0.671875 -0.265625 1.15625 -0.734375q0.484375 -0.46875 0.78125 -1.125q0.3125 -0.671875 0.421875 -1.453125z" fill-rule="nonzero"/><path fill="#000000" fill-opacity="0.0" d="m126.88976 66.81365l133.82675 -0.34645844" fill-rule="evenodd"/><path stroke="#000000" stroke-width="2.0" stroke-linejoin="round" stroke-linecap="butt" d="m134.46974 66.79402l119.392654 -0.30908966" fill-rule="evenodd"/><path fill="#000000" stroke="#000000" stroke-width="2.0" stroke-linecap="butt" d="m127.88976 66.81106c-0.0047073364 -1.817009 1.4644547 -3.2938004 3.2814713 -3.2985039c1.8170013 -0.0047035217 3.2937927 1.4644585 3.2985077 3.2814674c0.004699707 1.8170166 -1.4644623 3.293808 -3.281479 3.2985077c-1.8170013 0.0047073364 -3.2938004 -1.4644623 -3.2985 -3.2814713z" fill-rule="nonzero"/><path fill="#000000" stroke="#000000" stroke-width="2.0" stroke-linecap="butt" d="m253.86238 66.48494l-2.243332 2.254982l6.173706 -2.2651596l-6.1853485 -2.233162z" fill-rule="evenodd"/></g></svg>