<svg version="1.1" viewBox="0.0 0.0 458.65879265091866 380.62729658792654" fill="none" stroke="none" stroke-linecap="square" stroke-miterlimit="10" xmlns:xlink="http://www.w3.org/1999/xlink" xmlns="http://www.w3.org/2000/svg"><clipPath id="p.0"><path d="m0 0l458.65878 0l0 380.6273l-458.65878 0l0 -380.6273z" clip-rule="nonzero"/></clipPath><g clip-path="url(#p.0)"><path fill="#000000" fill-opacity="0.0" d="m0 0l458.65878 0l0 380.6273l-458.65878 0z" fill-rule="evenodd"/><path fill="#000000" fill-opacity="0.0" d="m6.5879264 209.93439l214.80316 0l0 132.50394l-214.80316 0z" fill-rule="evenodd"/><path fill="#000000" d="m20.541052 238.10635l1.28125 0l4.015625 -9.859375l-1.71875 0l-2.765625 7.4375l-0.15625 0.609375l-0.15625 -0.609375l-2.828125 -7.4375l-1.734375 0l4.0625 9.859375zm7.351822 -5.015625l0 0.203125q0 1.0625 0.3125 1.96875q0.3125 0.90625 0.890625 1.59375q0.578125 0.671875 1.40625 1.0625q0.84375 0.375 1.8906231 0.375q1.03125 0 1.859375 -0.375q0.828125 -0.390625 1.40625 -1.0625q0.578125 -0.6875 0.890625 -1.59375q0.3125 -0.90625 0.3125 -1.96875l0 -0.203125q0 -1.0625 -0.3125 -1.984375q-0.3125 -0.921875 -0.890625 -1.59375q-0.578125 -0.671875 -1.421875 -1.046875q-0.828125 -0.390625 -1.875 -0.390625q-1.0312481 0 -1.8593731 0.390625q-0.828125 0.375 -1.40625 1.046875q-0.578125 0.671875 -0.890625 1.59375q-0.3125 0.921875 -0.3125 1.984375zm1.6875 0.203125l0 -0.203125q0 -0.71875 0.171875 -1.375q0.171875 -0.671875 0.53125 -1.171875q0.34375 -0.5 0.859375 -0.796875q0.515625 -0.296875 1.2187481 -0.296875q0.703125 0 1.21875 0.296875q0.53125 0.296875 0.890625 0.796875q0.34375 0.5 0.515625 1.171875q0.1875 0.65625 0.1875 1.375l0 0.203125q0 0.71875 -0.171875 1.390625q-0.171875 0.65625 -0.515625 1.15625q-0.359375 0.5 -0.890625 0.796875q-0.515625 0.28125 -1.203125 0.28125q-0.7031231 0 -1.2343731 -0.28125q-0.53125 -0.296875 -0.875 -0.796875q-0.359375 -0.5 -0.53125 -1.15625q-0.171875 -0.671875 -0.171875 -1.390625zm10.242445 -5.046875l0 1.46875l3.359375 0l0 6.9375l-3.359375 0l0 1.453125l8.265625 0l0 -1.453125l-3.21875 0l0 -8.40625l-5.046875 0zm3.140625 -2.578125q0 0.40625 0.25 0.6875q0.25 0.265625 0.765625 0.265625q0.5 0 0.75 -0.265625q0.25 -0.28125 0.25 -0.6875q0 -0.234375 -0.078125 -0.421875q-0.0625 -0.1875 -0.203125 -0.328125q-0.125 -0.109375 -0.3125 -0.171875q-0.171875 -0.078125 -0.40625 -0.078125q-0.25 0 -0.4375 0.078125q-0.171875 0.0625 -0.296875 0.171875q-0.140625 0.140625 -0.21875 0.34375q-0.0625 0.1875 -0.0625 0.40625zm7.476822 7.421875l0 0.203125q0 1.046875 0.28125 1.96875q0.28125 0.90625 0.796875 1.59375q0.5 0.671875 1.21875 1.0625q0.734375 0.375 1.625 0.375q0.921875 0 1.59375 -0.3125q0.6875 -0.3125 1.1875 -0.90625l0.0625 1.03125l1.546875 0l0 -14.0l-1.6875 0l0 5.125q-0.46875 -0.578125 -1.140625 -0.859375q-0.65625 -0.296875 -1.546875 -0.296875q-0.890625 0 -1.625 0.375q-0.734375 0.359375 -1.234375 1.03125q-0.515625 0.65625 -0.796875 1.59375q-0.28125 0.921875 -0.28125 2.015625zm1.6875 0.203125l0 -0.203125q0 -0.71875 0.15625 -1.359375q0.15625 -0.65625 0.484375 -1.15625q0.3125 -0.5 0.8125 -0.78125q0.515625 -0.296875 1.21875 -0.296875q0.828125 0 1.375 0.390625q0.5625 0.390625 0.890625 0.984375l0 4.578125q-0.328125 0.640625 -0.890625 1.03125q-0.546875 0.375 -1.390625 0.375q-0.703125 0 -1.203125 -0.28125q-0.5 -0.296875 -0.8125 -0.78125q-0.328125 -0.5 -0.484375 -1.140625q-0.15625 -0.640625 -0.15625 -1.359375zm23.531773 4.8125l1.703125 0l0 -8.546875l3.796875 0l0 -1.3125l-3.796875 0l0 -0.6875q0 -0.625 0.15625 -1.078125q0.15625 -0.46875 0.46875 -0.765625q0.296875 -0.28125 0.734375 -0.421875q0.4375 -0.140625 1.015625 -0.140625q0.5625 0 1.0625 0.09375q0.5 0.09375 0.875 0.21875l0.1875 -1.390625q-0.234375 -0.0625 -0.46875 -0.109375q-0.21875 -0.046875 -0.453125 -0.09375q-0.34375 -0.0625 -0.703125 -0.109375q-0.34375 -0.046875 -0.703125 -0.046875q-0.875 0 -1.59375 0.25q-0.703125 0.25 -1.203125 0.734375q-0.515625 0.484375 -0.796875 1.203125q-0.28125 0.703125 -0.28125 1.65625l0 0.6875l-2.703125 0l0 1.3125l2.703125 0l0 8.546875zm15.179947 0l1.53125 0l0 -9.859375l-1.6875 0l0 7.078125q-0.140625 0.3125 -0.34375 0.578125q-0.203125 0.265625 -0.484375 0.46875q-0.328125 0.234375 -0.78125 0.375q-0.4375 0.125 -1.0 0.125q-0.484375 0 -0.859375 -0.125q-0.359375 -0.140625 -0.625 -0.453125q-0.25 -0.3125 -0.375 -0.828125q-0.125 -0.53125 -0.125 -1.34375l0 -5.875l-1.6875 0l0 5.859375q0 1.109375 0.234375 1.890625q0.25 0.78125 0.6875 1.296875q0.453125 0.515625 1.078125 0.765625q0.625 0.234375 1.40625 0.234375q0.96875 0 1.703125 -0.40625q0.734375 -0.40625 1.234375 -1.140625l0.09375 1.359375zm4.695572 0l1.6875 0l0 -7.0625q0.171875 -0.328125 0.40625 -0.59375q0.234375 -0.265625 0.515625 -0.453125q0.328125 -0.234375 0.71875 -0.359375q0.40625 -0.140625 0.875 -0.140625q0.546875 0 0.953125 0.125q0.421875 0.125 0.703125 0.40625q0.28125 0.296875 0.421875 0.75q0.15625 0.453125 0.15625 1.109375l0 6.21875l1.6875 0l0 -6.265625q0 -0.96875 -0.25 -1.6875q-0.234375 -0.71875 -0.6875 -1.1875q-0.4375 -0.453125 -1.078125 -0.671875q-0.625 -0.21875 -1.40625 -0.21875q-0.5625 0 -1.078125 0.171875q-0.515625 0.15625 -0.953125 0.4375q-0.296875 0.1875 -0.5625 0.453125q-0.25 0.265625 -0.46875 0.5625l-0.125 -1.453125l-1.515625 0l0 9.859375zm15.398697 -1.1875q-0.796875 0 -1.328125 -0.3125q-0.53125 -0.3125 -0.84375 -0.828125q-0.328125 -0.5 -0.46875 -1.125q-0.140625 -0.640625 -0.140625 -1.28125l0 -0.390625q0 -0.625 0.140625 -1.25q0.140625 -0.640625 0.46875 -1.15625q0.328125 -0.5 0.859375 -0.8125q0.53125 -0.3125 1.3125 -0.3125q0.515625 0 0.953125 0.171875q0.4375 0.171875 0.765625 0.484375q0.3125 0.296875 0.5 0.6875q0.1875 0.390625 0.203125 0.84375l1.59375 0q0 -0.75 -0.3125 -1.40625q-0.296875 -0.65625 -0.828125 -1.140625q-0.53125 -0.46875 -1.265625 -0.734375q-0.734375 -0.28125 -1.609375 -0.28125q-1.109375 0 -1.953125 0.40625q-0.84375 0.390625 -1.390625 1.0625q-0.5625 0.6875 -0.859375 1.578125q-0.28125 0.890625 -0.28125 1.859375l0 0.390625q0 0.984375 0.28125 1.875q0.296875 0.875 0.859375 1.5625q0.546875 0.671875 1.390625 1.078125q0.84375 0.40625 1.953125 0.40625q0.78125 0 1.5 -0.265625q0.71875 -0.28125 1.28125 -0.734375q0.5625 -0.4375 0.890625 -1.03125q0.328125 -0.609375 0.34375 -1.265625l-1.59375 0q-0.015625 0.40625 -0.21875 0.765625q-0.203125 0.34375 -0.546875 0.609375q-0.328125 0.265625 -0.765625 0.40625q-0.4375 0.140625 -0.890625 0.140625zm8.664322 -4.203125l0 0.09375q0 1.3125 0.203125 2.46875q0.203125 1.140625 0.5625 2.109375q0.328125 0.984375 0.78125 1.78125q0.453125 0.8125 0.953125 1.4375q0.484375 0.640625 0.984375 1.078125q0.515625 0.453125 0.96875 0.703125l0.359375 -1.03125q-0.375 -0.296875 -0.75 -0.71875q-0.359375 -0.421875 -0.703125 -0.96875q-0.34375 -0.578125 -0.65625 -1.3125q-0.3125 -0.71875 -0.546875 -1.5625q-0.21875 -0.84375 -0.34375 -1.828125q-0.125 -1.0 -0.125 -2.140625l0 -0.125q0 -1.1875 0.125 -2.203125q0.140625 -1.03125 0.390625 -1.890625q0.265625 -0.953125 0.640625 -1.75q0.390625 -0.796875 0.796875 -1.390625q0.28125 -0.375 0.578125 -0.6875q0.296875 -0.3125 0.59375 -0.53125l-0.359375 -1.109375q-0.453125 0.25 -0.953125 0.703125q-0.5 0.453125 -1.0 1.078125q-0.5 0.625 -0.953125 1.4375q-0.4375 0.8125 -0.78125 1.78125q-0.359375 0.984375 -0.5625 2.140625q-0.203125 1.140625 -0.203125 2.4375zm15.679939 0.09375l0 -0.09375q0 -1.390625 -0.21875 -2.5q-0.203125 -1.125 -0.53125 -2.078125q-0.34375 -0.984375 -0.796875 -1.78125q-0.4375 -0.796875 -0.953125 -1.4375q-0.484375 -0.625 -1.0 -1.078125q-0.515625 -0.453125 -0.96875 -0.703125l-0.34375 1.03125q0.296875 0.25 0.609375 0.609375q0.328125 0.34375 0.625 0.796875q0.390625 0.59375 0.765625 1.390625q0.375 0.796875 0.640625 1.796875q0.171875 0.703125 0.328125 1.71875q0.15625 1.0 0.15625 2.21875l0 0.125q0 1.09375 -0.125 2.046875q-0.109375 0.953125 -0.3125 1.765625q-0.203125 0.890625 -0.53125 1.625q-0.3125 0.75 -0.640625 1.34375q-0.359375 0.578125 -0.75 1.015625q-0.390625 0.453125 -0.765625 0.734375l0.34375 1.03125q0.453125 -0.25 0.953125 -0.703125q0.515625 -0.4375 1.015625 -1.078125q0.5 -0.625 0.9375 -1.4375q0.453125 -0.796875 0.8125 -1.78125q0.34375 -0.96875 0.546875 -2.109375q0.203125 -1.15625 0.203125 -2.46875z" fill-rule="nonzero"/><path fill="#000000" d="m24.494177 263.83447l0.1875 -1.046875q-0.5625 -0.015625 -0.9375 -0.3125q-0.359375 -0.28125 -0.578125 -0.734375q-0.234375 -0.453125 -0.328125 -1.015625q-0.078125 -0.5625 -0.078125 -1.125l0 -1.53125q-0.015625 -1.09375 -0.515625 -1.90625q-0.5 -0.828125 -1.5625 -1.25q1.0625 -0.421875 1.5625 -1.25q0.515625 -0.828125 0.515625 -1.921875l0 -1.546875q0 -0.5625 0.046875 -1.125q0.0625 -0.5625 0.265625 -1.015625q0.1875 -0.453125 0.5625 -0.734375q0.390625 -0.296875 1.046875 -0.3125l-0.1875 -1.046875q-0.921875 0.03125 -1.5625 0.40625q-0.640625 0.359375 -1.046875 0.9375q-0.4375 0.609375 -0.640625 1.390625q-0.1875 0.765625 -0.1875 1.5l0 1.546875q0 1.328125 -0.625 1.921875q-0.609375 0.578125 -1.90625 0.578125l0 1.3125q1.296875 0.015625 1.90625 0.609375q0.625 0.59375 0.625 1.90625l0 1.53125q0 0.734375 0.203125 1.46875q0.21875 0.75 0.625 1.34375q0.4375 0.640625 1.078125 1.015625q0.65625 0.390625 1.53125 0.40625z" fill-rule="nonzero"/><path fill="#000000" d="m62.213963 273.04697l0 1.46875l3.3593788 0l0 6.9375l-3.3593788 0l0 1.453125l8.265629 0l0 -1.453125l-3.21875 0l0 -8.40625l-5.046879 0zm3.1406288 -2.578125q0 0.40625 0.25 0.6875q0.25 0.265625 0.765625 0.265625q0.5 0 0.75 -0.265625q0.25 -0.28125 0.25 -0.6875q0 -0.234375 -0.078125 -0.421875q-0.0625 -0.1875 -0.203125 -0.328125q-0.125 -0.109375 -0.3125 -0.171875q-0.171875 -0.078125 -0.40625 -0.078125q-0.25 0 -0.4375 0.078125q-0.171875 0.0625 -0.296875 0.171875q-0.140625 0.140625 -0.21875 0.34375q-0.0625 0.1875 -0.0625 0.40625zm7.789322 12.4375l1.6875 0l0 -7.0625q0.171875 -0.328125 0.40625 -0.59375q0.234375 -0.265625 0.515625 -0.453125q0.328125 -0.234375 0.71875 -0.359375q0.40625 -0.140625 0.875 -0.140625q0.546875 0 0.953125 0.125q0.421875 0.125 0.703125 0.40625q0.28125 0.296875 0.421875 0.75q0.15625 0.453125 0.15625 1.109375l0 6.21875l1.6875 0l0 -6.265625q0 -0.96875 -0.25 -1.6875q-0.234375 -0.71875 -0.6875 -1.1875q-0.4375 -0.453125 -1.078125 -0.671875q-0.625 -0.21875 -1.40625 -0.21875q-0.5625 0 -1.078125 0.171875q-0.515625 0.15625 -0.953125 0.4375q-0.296875 0.1875 -0.5625 0.453125q-0.25 0.265625 -0.46875 0.5625l-0.125 -1.453125l-1.515625 0l0 9.859375zm15.195572 -12.25l-1.703125 0l0 2.390625l-2.578125 0l0 1.3125l2.578125 0l0 5.34375q0 0.921875 0.234375 1.5625q0.25 0.640625 0.671875 1.046875q0.421875 0.40625 0.984375 0.59375q0.578125 0.1875 1.234375 0.1875q0.390625 0 0.78125 -0.046875q0.40625 -0.03125 0.75 -0.109375q0.359375 -0.0625 0.65625 -0.15625q0.296875 -0.09375 0.515625 -0.21875l-0.234375 -1.203125q-0.15625 0.046875 -0.40625 0.09375q-0.234375 0.046875 -0.515625 0.09375q-0.28125 0.046875 -0.578125 0.078125q-0.28125 0.03125 -0.546875 0.03125q-0.375 0 -0.71875 -0.09375q-0.328125 -0.09375 -0.578125 -0.3125q-0.265625 -0.21875 -0.40625 -0.59375q-0.140625 -0.375 -0.140625 -0.953125l0 -5.34375l3.75 0l0 -1.3125l-3.75 0l0 -2.390625zm18.391144 12.25l1.6875 0l0 -7.0625q0.171875 -0.328125 0.40625 -0.59375q0.234375 -0.265625 0.515625 -0.453125q0.328125 -0.234375 0.71875 -0.359375q0.40625 -0.140625 0.875 -0.140625q0.546875 0 0.953125 0.125q0.421875 0.125 0.703125 0.40625q0.28125 0.296875 0.421875 0.75q0.15625 0.453125 0.15625 1.109375l0 6.21875l1.6875 0l0 -6.265625q0 -0.96875 -0.25 -1.6875q-0.234375 -0.71875 -0.6875 -1.1875q-0.4375 -0.453125 -1.078125 -0.671875q-0.625 -0.21875 -1.40625 -0.21875q-0.5625 0 -1.078125 0.171875q-0.515625 0.15625 -0.953125 0.4375q-0.296875 0.1875 -0.5625 0.453125q-0.25 0.265625 -0.46875 0.5625l-0.125 -1.453125l-1.515625 0l0 9.859375zm30.516136 -7.109375l0 -1.46875l-8.125 0l0 1.46875l8.125 0zm0 3.78125l0 -1.453125l-8.125 0l0 1.453125l8.125 0zm19.734894 3.328125l0 -13.265625l-0.125 0l-5.03125 1.9375l0 1.53125l3.46875 -1.3125l0 11.109375l1.6875 0zm13.867447 0l0 -1.375l-6.65625 0l3.5625 -3.859375q0.5 -0.546875 0.953125 -1.09375q0.453125 -0.5625 0.796875 -1.125q0.328125 -0.5625 0.53125 -1.140625q0.203125 -0.578125 0.203125 -1.171875q0 -0.796875 -0.28125 -1.46875q-0.28125 -0.671875 -0.796875 -1.15625q-0.515625 -0.5 -1.265625 -0.78125q-0.75 -0.28125 -1.6875 -0.28125q-1.03125 0 -1.828125 0.328125q-0.796875 0.328125 -1.34375 0.890625q-0.546875 0.5625 -0.84375 1.3125q-0.28125 0.734375 -0.28125 1.5625l1.6875 0q0 -0.609375 0.15625 -1.109375q0.15625 -0.515625 0.484375 -0.859375q0.328125 -0.34375 0.8125 -0.53125q0.484375 -0.203125 1.15625 -0.203125q0.546875 0 0.96875 0.1875q0.4375 0.1875 0.75 0.5q0.296875 0.328125 0.453125 0.765625q0.171875 0.421875 0.171875 0.921875q0 0.390625 -0.109375 0.78125q-0.09375 0.375 -0.328125 0.796875q-0.25 0.421875 -0.640625 0.921875q-0.390625 0.5 -0.96875 1.140625l-4.34375 4.828125l0 1.21875l8.6875 0zm5.023697 -7.4375l0 1.359375l1.203125 0q0.640625 0 1.15625 0.15625q0.53125 0.140625 0.90625 0.4375q0.359375 0.296875 0.5625 0.75q0.203125 0.453125 0.203125 1.078125q0 0.625 -0.1875 1.09375q-0.171875 0.453125 -0.5 0.765625q-0.328125 0.296875 -0.796875 0.453125q-0.453125 0.15625 -1.03125 0.15625q-0.578125 0 -1.046875 -0.15625q-0.46875 -0.171875 -0.796875 -0.484375q-0.328125 -0.296875 -0.5 -0.71875q-0.171875 -0.4375 -0.171875 -0.953125l-1.6875 0q0 0.875 0.328125 1.5625q0.328125 0.6875 0.90625 1.15625q0.5625 0.46875 1.328125 0.71875q0.765625 0.25 1.640625 0.25q0.890625 0 1.65625 -0.265625q0.78125 -0.265625 1.34375 -0.765625q0.5625 -0.484375 0.875 -1.203125q0.328125 -0.71875 0.328125 -1.65625q0 -0.453125 -0.109375 -0.90625q-0.09375 -0.46875 -0.359375 -0.890625q-0.265625 -0.421875 -0.703125 -0.75q-0.421875 -0.34375 -1.078125 -0.5625q0.546875 -0.21875 0.921875 -0.5625q0.390625 -0.34375 0.640625 -0.734375q0.25 -0.375 0.359375 -0.78125q0.125 -0.421875 0.125 -0.796875q0 -0.921875 -0.296875 -1.625q-0.28125 -0.703125 -0.8125 -1.171875q-0.53125 -0.484375 -1.265625 -0.71875q-0.734375 -0.25 -1.625 -0.25q-0.921875 0 -1.6875 0.296875q-0.75 0.28125 -1.28125 0.78125q-0.53125 0.5 -0.828125 1.171875q-0.296875 0.65625 -0.296875 1.421875l1.6875 0q0 -0.515625 0.171875 -0.9375q0.171875 -0.421875 0.5 -0.71875q0.3125 -0.296875 0.75 -0.453125q0.4375 -0.171875 0.984375 -0.171875q0.546875 0 0.984375 0.140625q0.4375 0.140625 0.71875 0.421875q0.296875 0.296875 0.453125 0.734375q0.15625 0.4375 0.15625 1.03125q0 0.5 -0.171875 0.921875q-0.171875 0.421875 -0.5 0.71875q-0.328125 0.3125 -0.828125 0.484375q-0.484375 0.171875 -1.125 0.171875l-1.203125 0zm12.539322 -1.640625q0 0.53125 0.328125 0.90625q0.34375 0.359375 1.0 0.359375q0.640625 0 0.984375 -0.359375q0.34375 -0.375 0.34375 -0.90625q0 -0.546875 -0.34375 -0.921875q-0.328125 -0.375 -0.984375 -0.375q-0.671875 0 -1.0 0.390625q-0.328125 0.375 -0.328125 0.90625zm2.171875 8.6875l0 -1.609375l-1.828125 0l0 1.640625q0 0.765625 -0.1875 1.484375q-0.1875 0.71875 -0.625 1.359375l1.046875 0.578125q0.734375 -0.65625 1.15625 -1.609375q0.4375 -0.9375 0.4375 -1.84375z" fill-rule="nonzero"/><path fill="#000000" d="m62.213963 295.44696l0 1.46875l3.3593788 0l0 6.9375l-3.3593788 0l0 1.453125l8.265629 0l0 -1.453125l-3.21875 0l0 -8.40625l-5.046879 0zm3.1406288 -2.578125q0 0.40625 0.25 0.6875q0.25 0.265625 0.765625 0.265625q0.5 0 0.75 -0.265625q0.25 -0.28125 0.25 -0.6875q0 -0.234375 -0.078125 -0.421875q-0.0625 -0.1875 -0.203125 -0.328125q-0.125 -0.109375 -0.3125 -0.171875q-0.171875 -0.078125 -0.40625 -0.078125q-0.25 0 -0.4375 0.078125q-0.171875 0.0625 -0.296875 0.171875q-0.140625 0.140625 -0.21875 0.34375q-0.0625 0.1875 -0.0625 0.40625zm7.789322 12.4375l1.6875 0l0 -7.0625q0.171875 -0.328125 0.40625 -0.59375q0.234375 -0.265625 0.515625 -0.453125q0.328125 -0.234375 0.71875 -0.359375q0.40625 -0.140625 0.875 -0.140625q0.546875 0 0.953125 0.125q0.421875 0.125 0.703125 0.40625q0.28125 0.296875 0.421875 0.75q0.15625 0.453125 0.15625 1.109375l0 6.21875l1.6875 0l0 -6.265625q0 -0.96875 -0.25 -1.6875q-0.234375 -0.71875 -0.6875 -1.1875q-0.4375 -0.453125 -1.078125 -0.671875q-0.625 -0.21875 -1.40625 -0.21875q-0.5625 0 -1.078125 0.171875q-0.515625 0.15625 -0.953125 0.4375q-0.296875 0.1875 -0.5625 0.453125q-0.25 0.265625 -0.46875 0.5625l-0.125 -1.453125l-1.515625 0l0 9.859375zm15.195572 -12.25l-1.703125 0l0 2.390625l-2.578125 0l0 1.3125l2.578125 0l0 5.34375q0 0.921875 0.234375 1.5625q0.25 0.640625 0.671875 1.046875q0.421875 0.40625 0.984375 0.59375q0.578125 0.1875 1.234375 0.1875q0.390625 0 0.78125 -0.046875q0.40625 -0.03125 0.75 -0.109375q0.359375 -0.0625 0.65625 -0.15625q0.296875 -0.09375 0.515625 -0.21875l-0.234375 -1.203125q-0.15625 0.046875 -0.40625 0.09375q-0.234375 0.046875 -0.515625 0.09375q-0.28125 0.046875 -0.578125 0.078125q-0.28125 0.03125 -0.546875 0.03125q-0.375 0 -0.71875 -0.09375q-0.328125 -0.09375 -0.578125 -0.3125q-0.265625 -0.21875 -0.40625 -0.59375q-0.140625 -0.375 -0.140625 -0.953125l0 -5.34375l3.75 0l0 -1.3125l-3.75 0l0 -2.390625zm19.172394 2.390625l-1.515625 0l0 9.859375l1.609375 0l0 -7.84375q0.046875 -0.140625 0.125 -0.265625q0.09375 -0.140625 0.21875 -0.234375q0.15625 -0.125 0.375 -0.1875q0.21875 -0.078125 0.53125 -0.078125q0.265625 0 0.46875 0.078125q0.203125 0.0625 0.34375 0.203125q0.15625 0.15625 0.21875 0.390625q0.0625 0.234375 0.0625 0.546875l0 7.390625l1.609375 0l0 -7.375q0 -0.0625 0 -0.09375q0 -0.046875 0 -0.09375q0.03125 -0.21875 0.109375 -0.40625q0.078125 -0.1875 0.21875 -0.34375q0.15625 -0.125 0.375 -0.203125q0.21875 -0.09375 0.515625 -0.09375q0.28125 0 0.484375 0.078125q0.21875 0.0625 0.375 0.21875q0.140625 0.15625 0.203125 0.390625q0.078125 0.234375 0.078125 0.546875l0 7.375l1.59375 0l0 -7.359375q0 -0.71875 -0.171875 -1.234375q-0.15625 -0.53125 -0.453125 -0.859375q-0.28125 -0.28125 -0.703125 -0.421875q-0.40625 -0.15625 -0.921875 -0.15625q-0.359375 0 -0.6875 0.09375q-0.3125 0.09375 -0.5625 0.25q-0.203125 0.125 -0.375 0.3125q-0.171875 0.1875 -0.296875 0.390625q-0.109375 -0.21875 -0.25 -0.40625q-0.140625 -0.1875 -0.3125 -0.3125q-0.234375 -0.15625 -0.546875 -0.234375q-0.3125 -0.09375 -0.703125 -0.09375q-0.6875 0 -1.1875 0.296875q-0.484375 0.28125 -0.78125 0.8125l-0.046875 -0.9375zm29.734886 2.75l0 -1.46875l-8.125 0l0 1.46875l8.125 0zm0 3.78125l0 -1.453125l-8.125 0l0 1.453125l8.125 0zm21.109894 -1.125l0 -8.8125l-1.796875 0l-5.9375 9.1875l0 1.0l6.046875 0l0 3.078125l1.6875 0l0 -3.078125l1.84375 0l0 -1.375l-1.84375 0zm-5.875 0l3.90625 -6.0625l0.28125 -0.5l0 6.5625l-4.1875 0zm10.836197 -2.203125l1.34375 0.359375q0.234375 -0.203125 0.4375 -0.359375q0.21875 -0.15625 0.46875 -0.265625q0.25 -0.109375 0.546875 -0.171875q0.3125 -0.0625 0.734375 -0.0625q0.625 0 1.109375 0.234375q0.5 0.21875 0.84375 0.625q0.328125 0.390625 0.5 0.9375q0.1875 0.53125 0.1875 1.15625q0 0.671875 -0.15625 1.234375q-0.15625 0.5625 -0.46875 0.953125q-0.3125 0.390625 -0.78125 0.609375q-0.46875 0.21875 -1.0625 0.21875q-1.078125 0 -1.75 -0.578125q-0.671875 -0.59375 -0.828125 -1.71875l-1.609375 0q0.09375 0.921875 0.453125 1.609375q0.359375 0.6875 0.921875 1.140625q0.5625 0.46875 1.28125 0.703125q0.71875 0.21875 1.53125 0.21875q1.046875 0 1.828125 -0.328125q0.796875 -0.34375 1.3125 -0.9375q0.5 -0.578125 0.75 -1.390625q0.265625 -0.8125 0.265625 -1.765625q0 -1.0 -0.28125 -1.8125q-0.265625 -0.828125 -0.78125 -1.40625q-0.5 -0.578125 -1.234375 -0.890625q-0.734375 -0.3125 -1.640625 -0.3125q-0.71875 0 -1.265625 0.171875q-0.546875 0.171875 -0.9375 0.390625l0.359375 -3.53125l5.390625 0l0 -1.640625l-6.8125 0l-0.65625 6.609375zm16.804947 -6.609375l-0.140625 0q-1.421875 0 -2.546875 0.390625q-1.125 0.390625 -1.90625 1.171875q-1.140625 1.140625 -1.53125 2.75q-0.390625 1.609375 -0.390625 3.265625l0 0.78125q0 0.96875 0.296875 1.9375q0.296875 0.953125 0.875 1.671875q0.53125 0.65625 1.296875 1.078125q0.78125 0.40625 1.8125 0.40625q1.0 0 1.765625 -0.359375q0.78125 -0.359375 1.296875 -0.96875q0.515625 -0.625 0.78125 -1.4375q0.265625 -0.8125 0.265625 -1.75q0 -0.8125 -0.21875 -1.59375q-0.21875 -0.78125 -0.6875 -1.40625q-0.46875 -0.609375 -1.1875 -0.984375q-0.71875 -0.390625 -1.71875 -0.390625q-0.453125 0 -0.875 0.109375q-0.40625 0.109375 -0.75 0.28125q-0.375 0.171875 -0.6875 0.421875q-0.296875 0.234375 -0.546875 0.515625q0.0625 -0.875 0.359375 -1.703125q0.296875 -0.828125 0.875 -1.421875q0.53125 -0.578125 1.375 -0.921875q0.84375 -0.34375 2.046875 -0.34375l0.140625 0l0 -1.5zm-2.203125 5.96875q0.609375 0 1.0625 0.265625q0.453125 0.25 0.765625 0.671875q0.296875 0.421875 0.4375 0.984375q0.140625 0.546875 0.140625 1.125q0 0.65625 -0.15625 1.21875q-0.15625 0.5625 -0.46875 0.96875q-0.3125 0.390625 -0.765625 0.625q-0.453125 0.21875 -1.046875 0.21875q-0.515625 0 -0.984375 -0.234375q-0.453125 -0.234375 -0.8125 -0.703125q-0.359375 -0.46875 -0.578125 -1.140625q-0.203125 -0.6875 -0.203125 -1.5625l0 -0.5625q0.15625 -0.421875 0.421875 -0.765625q0.265625 -0.34375 0.609375 -0.59375q0.34375 -0.234375 0.75 -0.375q0.40625 -0.140625 0.828125 -0.140625zm10.492447 -1.78125q0 0.53125 0.328125 0.90625q0.34375 0.359375 1.0 0.359375q0.640625 0 0.984375 -0.359375q0.34375 -0.375 0.34375 -0.90625q0 -0.546875 -0.34375 -0.921875q-0.328125 -0.375 -0.984375 -0.375q-0.671875 0 -1.0 0.390625q-0.328125 0.375 -0.328125 0.90625zm2.171875 8.6875l0 -1.609375l-1.828125 0l0 1.640625q0 0.765625 -0.1875 1.484375q-0.1875 0.71875 -0.625 1.359375l1.046875 0.578125q0.734375 -0.65625 1.15625 -1.609375q0.4375 -0.9375 0.4375 -1.84375z" fill-rule="nonzero"/><path fill="#000000" d="m18.525427 329.98758l0.203125 1.046875q0.890625 -0.015625 1.53125 -0.40625q0.640625 -0.390625 1.078125 -1.0q0.421875 -0.609375 0.609375 -1.359375q0.203125 -0.734375 0.203125 -1.46875l0 -1.53125q0 -0.640625 0.140625 -1.109375q0.15625 -0.46875 0.453125 -0.765625q0.3125 -0.328125 0.796875 -0.46875q0.484375 -0.15625 1.140625 -0.171875l0 -1.3125q-0.734375 0 -1.28125 -0.1875q-0.53125 -0.203125 -0.828125 -0.640625q-0.203125 -0.296875 -0.3125 -0.703125q-0.109375 -0.421875 -0.109375 -0.96875l0 -1.546875q0 -0.765625 -0.203125 -1.546875q-0.203125 -0.78125 -0.671875 -1.40625q-0.40625 -0.5625 -1.046875 -0.90625q-0.625 -0.34375 -1.5 -0.375l-0.1875 1.046875q0.65625 0.015625 1.03125 0.3125q0.390625 0.28125 0.59375 0.734375q0.1875 0.453125 0.234375 1.015625q0.0625 0.5625 0.0625 1.125l0 1.546875q0 0.71875 0.203125 1.328125q0.21875 0.59375 0.65625 1.046875q0.234375 0.25 0.53125 0.453125q0.3125 0.203125 0.671875 0.34375q-0.34375 0.140625 -0.640625 0.34375q-0.296875 0.1875 -0.546875 0.421875q-0.4375 0.453125 -0.65625 1.0625q-0.21875 0.609375 -0.21875 1.328125l0 1.53125q0 0.5625 -0.09375 1.125q-0.09375 0.5625 -0.3125 1.015625q-0.21875 0.453125 -0.59375 0.734375q-0.375 0.296875 -0.9375 0.3125z" fill-rule="nonzero"/><path fill="#000000" fill-opacity="0.0" d="m275.8189 7.4435697l176.25195 0l0 334.99213l-176.25195 0z" fill-rule="evenodd"/><path stroke="#000000" stroke-width="3.0" stroke-linejoin="round" stroke-linecap="butt" d="m275.8189 7.4435697l176.25195 0l0 334.99213l-176.25195 0z" fill-rule="evenodd"/><path fill="#b7b7b7" d="m275.8189 228.39108l176.25195 0l0 114.04724l-176.25195 0z" fill-rule="evenodd"/><path stroke="#000000" stroke-width="3.0" stroke-linejoin="round" stroke-linecap="butt" d="m275.8189 228.39108l176.25195 0l0 114.04724l-176.25195 0z" fill-rule="evenodd"/><path fill="#000000" fill-opacity="0.0" d="m275.8189 147.25722l176.25195 0l0 40.566925l-176.25195 0z" fill-rule="evenodd"/><path stroke="#000000" stroke-width="3.0" stroke-linejoin="round" stroke-linecap="butt" d="m275.8189 147.25722l176.25195 0l0 40.566925l-176.25195 0z" fill-rule="evenodd"/><path fill="#000000" d="m355.5734 170.00755l0 -8.8125l-1.796875 0l-5.9375 9.1875l0 1.0l6.046875 0l0 3.078125l1.6875 0l0 -3.078125l1.84375 0l0 -1.375l-1.84375 0zm-5.875 0l3.90625 -6.0625l0.28125 -0.5l0 6.5625l-4.1875 0zm10.836212 -2.203125l1.34375 0.359375q0.234375 -0.203125 0.4375 -0.359375q0.21875 -0.15625 0.46875 -0.265625q0.25 -0.109375 0.546875 -0.171875q0.3125 -0.0625 0.734375 -0.0625q0.625 0 1.109375 0.234375q0.5 0.21875 0.84375 0.625q0.328125 0.390625 0.5 0.9375q0.1875 0.53125 0.1875 1.15625q0 0.671875 -0.15625 1.234375q-0.15625 0.5625 -0.46875 0.953125q-0.3125 0.390625 -0.78125 0.609375q-0.46875 0.21875 -1.0625 0.21875q-1.078125 0 -1.75 -0.578125q-0.671875 -0.59375 -0.828125 -1.71875l-1.609375 0q0.09375 0.921875 0.453125 1.609375q0.359375 0.6875 0.921875 1.140625q0.5625 0.46875 1.28125 0.703125q0.71875 0.21875 1.53125 0.21875q1.046875 0 1.828125 -0.328125q0.796875 -0.34375 1.3125 -0.9375q0.5 -0.578125 0.75 -1.390625q0.265625 -0.8125 0.265625 -1.765625q0 -1.0 -0.28125 -1.8125q-0.265625 -0.828125 -0.78125 -1.40625q-0.5 -0.578125 -1.234375 -0.890625q-0.734375 -0.3125 -1.640625 -0.3125q-0.71875 0 -1.265625 0.171875q-0.546875 0.171875 -0.9375 0.390625l0.359375 -3.53125l5.390625 0l0 -1.640625l-6.8125 0l-0.65625 6.609375zm16.804932 -6.609375l-0.140625 0q-1.421875 0 -2.546875 0.390625q-1.125 0.390625 -1.90625 1.171875q-1.140625 1.140625 -1.53125 2.75q-0.390625 1.609375 -0.390625 3.265625l0 0.78125q0 0.96875 0.296875 1.9375q0.296875 0.953125 0.875 1.671875q0.53125 0.65625 1.296875 1.078125q0.78125 0.40625 1.8125 0.40625q1.0 0 1.765625 -0.359375q0.78125 -0.359375 1.296875 -0.96875q0.515625 -0.625 0.78125 -1.4375q0.265625 -0.8125 0.265625 -1.75q0 -0.8125 -0.21875 -1.59375q-0.21875 -0.78125 -0.6875 -1.40625q-0.46875 -0.609375 -1.1875 -0.984375q-0.71875 -0.390625 -1.71875 -0.390625q-0.453125 0 -0.875 0.109375q-0.40625 0.109375 -0.75 0.28125q-0.375 0.171875 -0.6875 0.421875q-0.296875 0.234375 -0.546875 0.515625q0.0625 -0.875 0.359375 -1.703125q0.296875 -0.828125 0.875 -1.421875q0.53125 -0.578125 1.375 -0.921875q0.84375 -0.34375 2.046875 -0.34375l0.140625 0l0 -1.5zm-2.203125 5.96875q0.609375 0 1.0625 0.265625q0.453125 0.25 0.765625 0.671875q0.296875 0.421875 0.4375 0.984375q0.140625 0.546875 0.140625 1.125q0 0.65625 -0.15625 1.21875q-0.15625 0.5625 -0.46875 0.96875q-0.3125 0.390625 -0.765625 0.625q-0.453125 0.21875 -1.046875 0.21875q-0.515625 0 -0.984375 -0.234375q-0.453125 -0.234375 -0.8125 -0.703125q-0.359375 -0.46875 -0.578125 -1.140625q-0.203125 -0.6875 -0.203125 -1.5625l0 -0.5625q0.15625 -0.421875 0.421875 -0.765625q0.265625 -0.34375 0.609375 -0.59375q0.34375 -0.234375 0.75 -0.375q0.40625 -0.140625 0.828125 -0.140625z" fill-rule="nonzero"/><path fill="#000000" fill-opacity="0.0" d="m275.8189 187.82414l176.25195 0l0 40.56694l-176.25195 0z" fill-rule="evenodd"/><path stroke="#000000" stroke-width="3.0" stroke-linejoin="round" stroke-linecap="butt" d="m275.8189 187.82414l176.25195 0l0 40.56694l-176.25195 0z" fill-rule="evenodd"/><path fill="#000000" d="m354.1984 215.0276l0 -13.265625l-0.125 0l-5.03125 1.9375l0 1.53125l3.46875 -1.3125l0 11.109375l1.6875 0zm13.867462 0l0 -1.375l-6.65625 0l3.5625 -3.859375q0.5 -0.546875 0.953125 -1.09375q0.453125 -0.5625 0.796875 -1.125q0.328125 -0.5625 0.53125 -1.140625q0.203125 -0.578125 0.203125 -1.171875q0 -0.796875 -0.28125 -1.46875q-0.28125 -0.671875 -0.796875 -1.15625q-0.515625 -0.5 -1.265625 -0.78125q-0.75 -0.28125 -1.6875 -0.28125q-1.03125 0 -1.828125 0.328125q-0.796875 0.328125 -1.34375 0.890625q-0.546875 0.5625 -0.84375 1.3125q-0.28125 0.734375 -0.28125 1.5625l1.6875 0q0 -0.609375 0.15625 -1.109375q0.15625 -0.515625 0.484375 -0.859375q0.328125 -0.34375 0.8125 -0.53125q0.484375 -0.203125 1.15625 -0.203125q0.546875 0 0.96875 0.1875q0.4375 0.1875 0.75 0.5q0.296875 0.328125 0.453125 0.765625q0.171875 0.421875 0.171875 0.921875q0 0.390625 -0.109375 0.78125q-0.09375 0.375 -0.328125 0.796875q-0.25 0.421875 -0.640625 0.921875q-0.390625 0.5 -0.96875 1.140625l-4.34375 4.828125l0 1.21875l8.6875 0zm5.0236816 -7.4375l0 1.359375l1.203125 0q0.640625 0 1.15625 0.15625q0.53125 0.140625 0.90625 0.4375q0.359375 0.296875 0.5625 0.75q0.203125 0.453125 0.203125 1.078125q0 0.625 -0.1875 1.09375q-0.171875 0.453125 -0.5 0.765625q-0.328125 0.296875 -0.796875 0.453125q-0.453125 0.15625 -1.03125 0.15625q-0.578125 0 -1.046875 -0.15625q-0.46875 -0.171875 -0.796875 -0.484375q-0.328125 -0.296875 -0.5 -0.71875q-0.171875 -0.4375 -0.171875 -0.953125l-1.6875 0q0 0.875 0.328125 1.5625q0.328125 0.6875 0.90625 1.15625q0.5625 0.46875 1.328125 0.71875q0.765625 0.25 1.640625 0.25q0.890625 0 1.65625 -0.265625q0.78125 -0.265625 1.34375 -0.765625q0.5625 -0.484375 0.875 -1.203125q0.328125 -0.71875 0.328125 -1.65625q0 -0.453125 -0.109375 -0.90625q-0.09375 -0.46875 -0.359375 -0.890625q-0.265625 -0.421875 -0.703125 -0.75q-0.421875 -0.34375 -1.078125 -0.5625q0.546875 -0.21875 0.921875 -0.5625q0.390625 -0.34375 0.640625 -0.734375q0.25 -0.375 0.359375 -0.78125q0.125 -0.421875 0.125 -0.796875q0 -0.921875 -0.296875 -1.625q-0.28125 -0.703125 -0.8125 -1.171875q-0.53125 -0.484375 -1.265625 -0.71875q-0.734375 -0.25 -1.625 -0.25q-0.921875 0 -1.6875 0.296875q-0.75 0.28125 -1.28125 0.78125q-0.53125 0.5 -0.828125 1.171875q-0.296875 0.65625 -0.296875 1.421875l1.6875 0q0 -0.515625 0.171875 -0.9375q0.171875 -0.421875 0.5 -0.71875q0.3125 -0.296875 0.75 -0.453125q0.4375 -0.171875 0.984375 -0.171875q0.546875 0 0.984375 0.140625q0.4375 0.140625 0.71875 0.421875q0.296875 0.296875 0.453125 0.734375q0.15625 0.4375 0.15625 1.03125q0 0.5 -0.171875 0.921875q-0.171875 0.421875 -0.5 0.71875q-0.328125 0.3125 -0.828125 0.484375q-0.484375 0.171875 -1.125 0.171875l-1.203125 0z" fill-rule="nonzero"/><path fill="#000000" fill-opacity="0.0" d="m275.8189 342.43832l176.25195 0l0 42.015747l-176.25195 0z" fill-rule="evenodd"/><path fill="#000000" d="m341.92795 365.0458l1.75 -0.171875l-0.015625 0.46875q0 0.765625 0.34375 1.421875q0.359375 0.640625 1.171875 1.0q0.828125 0.34375 1.953125 0.34375q1.609375 0 2.453125 -0.703125q0.84375 -0.703125 0.84375 -1.609375q0 -0.625 -0.453125 -1.140625q-0.453125 -0.515625 -2.484375 -1.390625q-1.578125 -0.6875 -2.140625 -1.046875q-0.90625 -0.59375 -1.34375 -1.28125q-0.421875 -0.703125 -0.421875 -1.59375q0 -1.03125 0.5625 -1.859375q0.5625 -0.828125 1.65625 -1.265625q1.09375 -0.4375 2.453125 -0.4375q1.640625 0 2.75 0.546875q1.125 0.546875 1.625 1.453125q0.515625 0.90625 0.515625 1.734375q0 0.09375 -0.015625 0.28125l-1.71875 0.140625q0 -0.578125 -0.109375 -0.890625q-0.171875 -0.5625 -0.5625 -0.9375q-0.375 -0.390625 -1.046875 -0.609375q-0.671875 -0.234375 -1.5 -0.234375q-1.453125 0 -2.265625 0.65625q-0.625 0.5 -0.625 1.328125q0 0.484375 0.25 0.875q0.265625 0.390625 0.921875 0.765625q0.484375 0.265625 2.25 1.046875q1.453125 0.640625 2.0 1.0q0.71875 0.484375 1.109375 1.171875q0.390625 0.6875 0.390625 1.5625q0 1.078125 -0.65625 2.0q-0.65625 0.90625 -1.828125 1.421875q-1.15625 0.5 -2.671875 0.5q-2.265625 0 -3.703125 -0.984375q-1.421875 -1.0 -1.4375 -3.5625zm15.599823 2.96875l-0.265625 1.359375q-0.59375 0.140625 -1.15625 0.140625q-0.984375 0 -1.5625 -0.46875q-0.4375 -0.375 -0.4375 -1.0q0 -0.3125 0.234375 -1.46875l1.171875 -5.625l-1.296875 0l0.265625 -1.265625l1.296875 0l0.5 -2.375l1.890625 -1.140625l-0.734375 3.515625l1.625 0l-0.28125 1.265625l-1.609375 0l-1.125 5.359375q-0.203125 1.015625 -0.203125 1.21875q0 0.28125 0.15625 0.4375q0.171875 0.15625 0.5625 0.15625q0.546875 0 0.96875 -0.109375zm7.855194 0.140625q-0.859375 0.734375 -1.65625 1.078125q-0.78125 0.34375 -1.6875 0.34375q-1.34375 0 -2.171875 -0.78125q-0.8125 -0.796875 -0.8125 -2.03125q0 -0.796875 0.375 -1.421875q0.375 -0.625 0.984375 -1.0q0.609375 -0.390625 1.484375 -0.546875q0.5625 -0.109375 2.109375 -0.171875q1.5625 -0.0625 2.234375 -0.328125q0.1875 -0.671875 0.1875 -1.125q0 -0.578125 -0.421875 -0.90625q-0.5625 -0.453125 -1.671875 -0.453125q-1.03125 0 -1.703125 0.46875q-0.65625 0.453125 -0.953125 1.296875l-1.671875 -0.140625q0.515625 -1.4375 1.609375 -2.203125q1.109375 -0.765625 2.796875 -0.765625q1.796875 0 2.84375 0.859375q0.796875 0.625 0.796875 1.65625q0 0.765625 -0.21875 1.796875l-0.53125 2.40625q-0.265625 1.140625 -0.265625 1.859375q0 0.453125 0.203125 1.3125l-1.671875 0q-0.125 -0.46875 -0.1875 -1.203125zm0.609375 -3.703125q-0.34375 0.140625 -0.75 0.21875q-0.390625 0.0625 -1.3125 0.15625q-1.4375 0.125 -2.03125 0.328125q-0.59375 0.1875 -0.90625 0.625q-0.296875 0.421875 -0.296875 0.9375q0 0.6875 0.484375 1.140625q0.484375 0.4375 1.359375 0.4375q0.828125 0 1.578125 -0.421875q0.75 -0.4375 1.1875 -1.203125q0.4375 -0.78125 0.6875 -2.21875zm9.922577 1.375l1.65625 0.171875q-0.625 1.8125 -1.765625 2.703125q-1.140625 0.875 -2.609375 0.875q-1.578125 0 -2.5625 -1.015625q-0.96875 -1.03125 -0.96875 -2.859375q0 -1.578125 0.625 -3.109375q0.640625 -1.53125 1.796875 -2.328125q1.171875 -0.796875 2.6875 -0.796875q1.546875 0 2.453125 0.875q0.921875 0.875 0.921875 2.328125l-1.625 0.109375q-0.015625 -0.921875 -0.546875 -1.4375q-0.515625 -0.515625 -1.359375 -0.515625q-1.0 0 -1.734375 0.625q-0.71875 0.625 -1.140625 1.90625q-0.40625 1.28125 -0.40625 2.46875q0 1.234375 0.546875 1.859375q0.546875 0.609375 1.34375 0.609375q0.796875 0 1.53125 -0.609375q0.734375 -0.609375 1.15625 -1.859375zm2.671875 3.53125l2.796875 -13.359375l1.640625 0l-1.734375 8.28125l4.8125 -4.59375l2.171875 0l-4.125 3.609375l2.5 6.0625l-1.8125 0l-1.921875 -4.96875l-2.015625 1.734375l-0.671875 3.234375l-1.640625 0z" fill-rule="nonzero"/><path fill="#000000" fill-opacity="0.0" d="m234.33858 146.5328l41.48033 0l0 42.015747l-41.48033 0z" fill-rule="evenodd"/><path fill="#000000" d="m251.84033 163.59343l-1.515625 0l0 9.859375l1.609375 0l0 -7.84375q0.046875 -0.140625 0.125 -0.265625q0.09375 -0.140625 0.21875 -0.234375q0.15625 -0.125 0.375 -0.1875q0.21875 -0.078125 0.53125 -0.078125q0.265625 0 0.46875 0.078125q0.203125 0.0625 0.34375 0.203125q0.15625 0.15625 0.21875 0.390625q0.0625 0.234375 0.0625 0.546875l0 7.390625l1.609375 0l0 -7.375q0 -0.0625 0 -0.09375q0 -0.046875 0 -0.09375q0.03125 -0.21875 0.109375 -0.40625q0.078125 -0.1875 0.21875 -0.34375q0.15625 -0.125 0.375 -0.203125q0.21875 -0.09375 0.515625 -0.09375q0.28125 0 0.484375 0.078125q0.21875 0.0625 0.375 0.21875q0.140625 0.15625 0.203125 0.390625q0.078125 0.234375 0.078125 0.546875l0 7.375l1.59375 0l0 -7.359375q0 -0.71875 -0.171875 -1.234375q-0.15625 -0.53125 -0.453125 -0.859375q-0.28125 -0.28125 -0.703125 -0.421875q-0.40625 -0.15625 -0.921875 -0.15625q-0.359375 0 -0.6875 0.09375q-0.3125 0.09375 -0.5625 0.25q-0.203125 0.125 -0.375 0.3125q-0.171875 0.1875 -0.296875 0.390625q-0.109375 -0.21875 -0.25 -0.40625q-0.140625 -0.1875 -0.3125 -0.3125q-0.234375 -0.15625 -0.546875 -0.234375q-0.3125 -0.09375 -0.703125 -0.09375q-0.6875 0 -1.1875 0.296875q-0.484375 0.28125 -0.78125 0.8125l-0.046875 -0.9375z" fill-rule="nonzero"/><path fill="#000000" fill-opacity="0.0" d="m234.33858 187.09973l41.48033 0l0 42.015747l-41.48033 0z" fill-rule="evenodd"/><path fill="#000000" d="m251.05908 214.01973l1.6875 0l0 -7.0625q0.171875 -0.328125 0.40625 -0.59375q0.234375 -0.265625 0.515625 -0.453125q0.328125 -0.234375 0.71875 -0.359375q0.40625 -0.140625 0.875 -0.140625q0.546875 0 0.953125 0.125q0.421875 0.125 0.703125 0.40625q0.28125 0.296875 0.421875 0.75q0.15625 0.453125 0.15625 1.109375l0 6.21875l1.6875 0l0 -6.265625q0 -0.96875 -0.25 -1.6875q-0.234375 -0.71875 -0.6875 -1.1875q-0.4375 -0.453125 -1.078125 -0.671875q-0.625 -0.21875 -1.40625 -0.21875q-0.5625 0 -1.078125 0.171875q-0.515625 0.15625 -0.953125 0.4375q-0.296875 0.1875 -0.5625 0.453125q-0.25 0.265625 -0.46875 0.5625l-0.125 -1.453125l-1.515625 0l0 9.859375z" fill-rule="nonzero"/></g></svg>