<svg version="1.1" viewBox="0.0 0.0 579.501312335958 291.0" fill="none" stroke="none" stroke-linecap="square" stroke-miterlimit="10" xmlns:xlink="http://www.w3.org/1999/xlink" xmlns="http://www.w3.org/2000/svg"><clipPath id="p.0"><path d="m0 0l579.50134 0l0 291.0l-579.50134 0l0 -291.0z" clip-rule="nonzero"/></clipPath><g clip-path="url(#p.0)"><path fill="#000000" fill-opacity="0.0" d="m0 0l579.50134 0l0 291.0l-579.50134 0z" fill-rule="evenodd"/><path fill="#d9d9d9" d="m9.112861 136.50131l210.89764 0l0 117.00787l-210.89764 0z" fill-rule="evenodd"/><path stroke="#000000" stroke-width="2.0" stroke-linejoin="round" stroke-linecap="butt" d="m9.112861 136.50131l210.89764 0l0 117.00787l-210.89764 0z" fill-rule="evenodd"/><path fill="#ffffff" d="m18.377953 146.80052l99.90551 0l0 32.031494l-99.90551 0z" fill-rule="evenodd"/><path stroke="#000000" stroke-width="2.0" stroke-linejoin="round" stroke-linecap="butt" d="m18.377953 146.80052l99.90551 0l0 32.031494l-99.90551 0z" fill-rule="evenodd"/><path fill="#000000" d="m28.924828 168.67627l0 -8.484375l1.53125 0l0 1.59375q0.46875 -0.75 1.203125 -1.265625q0.734375 -0.515625 1.6875 -0.515625q0.5625 0 0.96875 0.1875q0.421875 0.171875 0.75 0.5q0.34375 0.328125 0.609375 1.09375q0.46875 -0.765625 1.1875 -1.28125q0.71875 -0.515625 1.65625 -0.515625q0.90625 0 1.625 0.5625q0.734375 0.5625 0.734375 1.953125l0 6.171875l-1.546875 0l0 -5.9375q0 -0.84375 -0.359375 -1.140625q-0.359375 -0.3125 -0.796875 -0.3125q-0.546875 0 -1.140625 0.34375q-0.578125 0.34375 -1.359375 1.359375l0 5.6875l-1.546875 0l0 -5.9375q0 -0.84375 -0.359375 -1.140625q-0.359375 -0.3125 -0.8125 -0.3125q-0.5625 0 -1.125 0.34375q-0.5625 0.328125 -1.375 1.359375l0 5.6875l-1.53125 0zm14.0625 1.15625l0 -1.15625l6.65625 0l0 1.15625l-6.65625 0zm8.875 -1.15625l0 -12.34375l1.53125 0l0 5.453125q0.59375 -0.859375 1.359375 -1.3125q0.78125 -0.46875 1.625 -0.46875q1.078125 0 1.75 0.6875q0.671875 0.671875 0.671875 1.890625l0 6.09375l-1.546875 0l0 -5.59375q0 -0.890625 -0.15625 -1.171875q-0.15625 -0.28125 -0.4375 -0.421875q-0.28125 -0.15625 -0.59375 -0.15625q-0.578125 0 -1.234375 0.359375q-0.65625 0.34375 -1.4375 1.484375l0 5.5l-1.53125 0zm13.3046875 0.203125q-1.21875 0 -2.109375 -0.5q-0.890625 -0.5 -1.421875 -1.5625q-0.515625 -1.078125 -0.515625 -2.390625q0 -1.234375 0.46875 -2.28125q0.484375 -1.0625 1.390625 -1.59375q0.90625 -0.546875 2.1875 -0.546875q1.203125 0 2.09375 0.5q0.90625 0.484375 1.421875 1.5625q0.53125 1.0625 0.53125 2.359375q0 1.25 -0.484375 2.3125q-0.484375 1.0625 -1.390625 1.609375q-0.90625 0.53125 -2.171875 0.53125zm0 -1.171875q1.140625 0 1.765625 -0.84375q0.640625 -0.859375 0.640625 -2.4375q0 -1.578125 -0.640625 -2.421875q-0.625 -0.84375 -1.765625 -0.84375q-1.140625 0 -1.78125 0.84375q-0.625 0.84375 -0.625 2.421875q0 1.578125 0.625 2.4375q0.640625 0.84375 1.78125 0.84375zm11.75 0.96875l0 -1.59375q-0.59375 0.859375 -1.375 1.328125q-0.765625 0.46875 -1.59375 0.46875q-1.078125 0 -1.75 -0.6875q-0.671875 -0.6875 -0.671875 -1.90625l0 -6.09375l1.53125 0l0 5.59375q0 0.875 0.15625 1.15625q0.15625 0.28125 0.4375 0.4375q0.28125 0.15625 0.609375 0.15625q0.5625 0 1.21875 -0.34375q0.671875 -0.359375 1.4375 -1.5l0 -5.5l1.546875 0l0 8.484375l-1.546875 0zm4.6328125 0l0 -8.484375l1.53125 0l0 1.59375q0.4375 -0.859375 1.140625 -1.3125q0.703125 -0.46875 1.515625 -0.46875q0.234375 0 0.5 0.03125l0 1.4375q-0.390625 -0.125 -0.703125 -0.125q-0.734375 0 -1.34375 0.4375q-0.609375 0.421875 -1.109375 1.296875l0 5.59375l-1.53125 0z" fill-rule="nonzero"/><path fill="#ffffff" d="m18.377953 178.83202l99.90551 0l0 32.031494l-99.90551 0z" fill-rule="evenodd"/><path stroke="#000000" stroke-width="2.0" stroke-linejoin="round" stroke-linecap="butt" d="m18.377953 178.83202l99.90551 0l0 32.031494l-99.90551 0z" fill-rule="evenodd"/><path fill="#000000" d="m28.924828 200.70776l0 -8.484375l1.53125 0l0 1.59375q0.46875 -0.75 1.203125 -1.265625q0.734375 -0.515625 1.6875 -0.515625q0.5625 0 0.96875 0.1875q0.421875 0.171875 0.75 0.5q0.34375 0.328125 0.609375 1.09375q0.46875 -0.765625 1.1875 -1.28125q0.71875 -0.515625 1.65625 -0.515625q0.90625 0 1.625 0.5625q0.734375 0.5625 0.734375 1.953125l0 6.171875l-1.546875 0l0 -5.9375q0 -0.84375 -0.359375 -1.140625q-0.359375 -0.3125 -0.796875 -0.3125q-0.546875 0 -1.140625 0.34375q-0.578125 0.34375 -1.359375 1.359375l0 5.6875l-1.546875 0l0 -5.9375q0 -0.84375 -0.359375 -1.140625q-0.359375 -0.3125 -0.8125 -0.3125q-0.5625 0 -1.125 0.34375q-0.5625 0.328125 -1.375 1.359375l0 5.6875l-1.53125 0zm14.0625 1.15625l0 -1.15625l6.65625 0l0 1.15625l-6.65625 0zm8.875 -1.15625l0 -8.484375l1.53125 0l0 1.59375q0.46875 -0.75 1.203125 -1.265625q0.734375 -0.515625 1.6875 -0.515625q0.5625 0 0.96875 0.1875q0.421875 0.171875 0.75 0.5q0.34375 0.328125 0.609375 1.09375q0.46875 -0.765625 1.1875 -1.28125q0.71875 -0.515625 1.65625 -0.515625q0.90625 0 1.625 0.5625q0.734375 0.5625 0.734375 1.953125l0 6.171875l-1.546875 0l0 -5.9375q0 -0.84375 -0.359375 -1.140625q-0.359375 -0.3125 -0.796875 -0.3125q-0.546875 0 -1.140625 0.34375q-0.578125 0.34375 -1.359375 1.359375l0 5.6875l-1.546875 0l0 -5.9375q0 -0.84375 -0.359375 -1.140625q-0.359375 -0.3125 -0.8125 -0.3125q-0.5625 0 -1.125 0.34375q-0.5625 0.328125 -1.375 1.359375l0 5.6875l-1.53125 0zm14.9375 0l0 -8.484375l1.53125 0l0 8.484375l-1.53125 0zm0 -10.03125l0 -1.53125l1.53125 0l0 1.53125l-1.53125 0zm4.625 10.03125l0 -8.484375l1.53125 0l0 1.59375q0.59375 -0.859375 1.359375 -1.3125q0.78125 -0.46875 1.625 -0.46875q1.078125 0 1.75 0.6875q0.671875 0.671875 0.671875 1.890625l0 6.09375l-1.546875 0l0 -5.59375q0 -0.890625 -0.15625 -1.171875q-0.15625 -0.28125 -0.4375 -0.421875q-0.28125 -0.15625 -0.59375 -0.15625q-0.578125 0 -1.234375 0.359375q-0.65625 0.34375 -1.4375 1.484375l0 5.5l-1.53125 0zm15.2265625 0l0 -1.59375q-0.59375 0.859375 -1.375 1.328125q-0.765625 0.46875 -1.59375 0.46875q-1.078125 0 -1.75 -0.6875q-0.671875 -0.6875 -0.671875 -1.90625l0 -6.09375l1.53125 0l0 5.59375q0 0.875 0.15625 1.15625q0.15625 0.28125 0.4375 0.4375q0.28125 0.15625 0.609375 0.15625q0.5625 0 1.21875 -0.34375q0.671875 -0.359375 1.4375 -1.5l0 -5.5l1.546875 0l0 8.484375l-1.546875 0zm8.4140625 0q-0.71875 0.203125 -1.234375 0.203125q-1.140625 0 -1.8125 -0.65625q-0.671875 -0.671875 -0.671875 -1.890625l0 -4.984375l-1.0625 0l0 -1.15625l1.0625 0l0 -1.546875l1.53125 -0.140625l0 1.6875l2.21875 0l0 1.15625l-2.21875 0l0 4.703125q0 0.890625 0.34375 1.28125q0.34375 0.375 1.09375 0.375q0.3125 0 0.75 -0.09375l0 1.0625zm8.421875 -0.28125q-1.546875 0.484375 -2.65625 0.484375q-1.96875 0 -3.109375 -1.328125q-1.125 -1.34375 -1.125 -3.15625q0 -1.203125 0.5 -2.28125q0.5 -1.078125 1.296875 -1.59375q0.8125 -0.53125 1.90625 -0.53125q1.46875 0 2.34375 1.0625q0.875 1.046875 0.875 3.15625l0 0.46875l-5.359375 0q0.125 1.125 0.484375 1.734375q0.359375 0.609375 0.953125 0.953125q0.609375 0.328125 1.53125 0.328125q0.46875 0 0.921875 -0.078125q0.46875 -0.078125 1.4375 -0.4375l0 1.21875zm-5.25 -4.875l3.734375 0q0 -1.28125 -0.5 -1.828125q-0.484375 -0.546875 -1.265625 -0.546875q-0.875 0 -1.375 0.59375q-0.5 0.59375 -0.59375 1.78125z" fill-rule="nonzero"/><path fill="#ffffff" d="m118.296585 146.80052l91.40158 0l0 32.031494l-91.40158 0z" fill-rule="evenodd"/><path stroke="#000000" stroke-width="2.0" stroke-linejoin="round" stroke-linecap="butt" d="m118.296585 146.80052l91.40158 0l0 32.031494l-91.40158 0z" fill-rule="evenodd"/><path fill="#000000" d="m158.06769 168.67627l0 -10.40625l-1.828125 0l0 -0.96875l3.375 -0.296875l0 11.671875l-1.546875 0zm10.9921875 0.296875q-1.296875 0 -2.234375 -0.828125q-0.921875 -0.84375 -1.375 -2.265625q-0.4375 -1.421875 -0.4375 -2.984375q0 -1.5625 0.4375 -2.984375q0.453125 -1.421875 1.390625 -2.25q0.9375 -0.84375 2.21875 -0.84375q1.296875 0 2.234375 0.84375q0.9375 0.828125 1.375 2.25q0.4375 1.40625 0.4375 2.984375q0 1.5625 -0.4375 2.96875q-0.4375 1.40625 -1.375 2.265625q-0.921875 0.84375 -2.234375 0.84375zm0 -1.171875q1.265625 0 1.84375 -1.34375q0.578125 -1.359375 0.578125 -3.5625q0 -2.21875 -0.578125 -3.5625q-0.578125 -1.359375 -1.84375 -1.359375q-1.265625 0 -1.84375 1.359375q-0.5625 1.34375 -0.5625 3.5625q0 2.203125 0.5625 3.5625q0.578125 1.34375 1.84375 1.34375z" fill-rule="nonzero"/><path fill="#ffffff" d="m118.296585 178.83202l91.40158 0l0 32.031494l-91.40158 0z" fill-rule="evenodd"/><path stroke="#000000" stroke-width="2.0" stroke-linejoin="round" stroke-linecap="butt" d="m118.296585 178.83202l91.40158 0l0 32.031494l-91.40158 0z" fill-rule="evenodd"/><path fill="#000000" d="m155.50519 200.61401l0 -1.4375q1.65625 0.65625 2.59375 0.65625q1.109375 0 1.796875 -0.640625q0.703125 -0.640625 0.703125 -1.671875q0 -1.0 -0.71875 -1.71875q-0.703125 -0.71875 -2.6875 -0.71875l-0.609375 0l0 -1.03125l0.53125 -0.015625q1.859375 0 2.53125 -0.671875q0.671875 -0.671875 0.671875 -1.578125q0 -0.8125 -0.53125 -1.296875q-0.53125 -0.484375 -1.59375 -0.484375q-1.140625 0 -2.53125 0.65625l0 -1.34375q1.0 -0.34375 1.546875 -0.40625q0.5625 -0.0625 1.09375 -0.0625q1.828125 0 2.6875 0.734375q0.875 0.734375 0.875 1.953125q0 0.671875 -0.25 1.1875q-0.25 0.515625 -0.765625 0.953125q-0.5 0.4375 -1.390625 0.765625q1.125 0.265625 1.671875 0.6875q0.5625 0.40625 0.84375 1.03125q0.28125 0.625 0.28125 1.34375q0 1.359375 -0.9375 2.4375q-0.921875 1.0625 -3.109375 1.0625q-1.078125 0 -2.703125 -0.390625zm13.5546875 0.390625q-1.296875 0 -2.234375 -0.828125q-0.921875 -0.84375 -1.375 -2.265625q-0.4375 -1.421875 -0.4375 -2.984375q0 -1.5625 0.4375 -2.984375q0.453125 -1.421875 1.390625 -2.25q0.9375 -0.84375 2.21875 -0.84375q1.296875 0 2.234375 0.84375q0.9375 0.828125 1.375 2.25q0.4375 1.40625 0.4375 2.984375q0 1.5625 -0.4375 2.96875q-0.4375 1.40625 -1.375 2.265625q-0.921875 0.84375 -2.234375 0.84375zm0 -1.171875q1.265625 0 1.84375 -1.34375q0.578125 -1.359375 0.578125 -3.5625q0 -2.21875 -0.578125 -3.5625q-0.578125 -1.359375 -1.84375 -1.359375q-1.265625 0 -1.84375 1.359375q-0.5625 1.34375 -0.5625 3.5625q0 2.203125 0.5625 3.5625q0.578125 1.34375 1.84375 1.34375z" fill-rule="nonzero"/><path fill="#000000" fill-opacity="0.0" d="m118.27821 253.50919l101.732285 0l0 35.55905l-101.732285 0z" fill-rule="evenodd"/><path fill="#000000" d="m141.0418 275.30917l0 -8.609375l-3.421875 0l0 -1.015625l8.203125 0l0 1.015625l-3.40625 0l0 8.609375l-1.375 0zm6.177704 0l0 -7.0625l1.28125 0l0 7.0625l-1.28125 0zm0 -8.34375l0 -1.28125l1.28125 0l0 1.28125l-1.28125 0zm3.8526611 8.34375l0 -7.0625l1.28125 0l0 1.328125q0.390625 -0.625 1.0 -1.046875q0.609375 -0.4375 1.40625 -0.4375q0.46875 0 0.8125 0.15625q0.34375 0.140625 0.625 0.421875q0.28125 0.265625 0.5 0.90625q0.390625 -0.640625 0.984375 -1.0625q0.609375 -0.4375 1.390625 -0.4375q0.75 0 1.34375 0.46875q0.609375 0.46875 0.609375 1.625l0 5.140625l-1.28125 0l0 -4.9375q0 -0.703125 -0.296875 -0.953125q-0.296875 -0.265625 -0.65625 -0.265625q-0.46875 0 -0.953125 0.296875q-0.484375 0.28125 -1.140625 1.125l0 4.734375l-1.296875 0l0 -4.9375q0 -0.71875 -0.296875 -0.96875q-0.296875 -0.25 -0.671875 -0.25q-0.46875 0 -0.9375 0.28125q-0.46875 0.28125 -1.140625 1.140625l0 4.734375l-1.28125 0zm17.630554 -0.234375q-1.296875 0.390625 -2.21875 0.390625q-1.640625 0 -2.59375 -1.109375q-0.9375 -1.109375 -0.9375 -2.609375q0 -1.0 0.421875 -1.890625q0.421875 -0.90625 1.09375 -1.34375q0.671875 -0.4375 1.578125 -0.4375q1.21875 0 1.953125 0.890625q0.734375 0.875 0.734375 2.625l-0.015625 0.390625l-4.453125 0q0.109375 0.9375 0.40625 1.453125q0.296875 0.5 0.796875 0.78125q0.5 0.28125 1.265625 0.28125q0.390625 0 0.765625 -0.0625q0.390625 -0.078125 1.203125 -0.375l0 1.015625zm-4.375 -4.0625l3.109375 0q0 -1.0625 -0.421875 -1.515625q-0.40625 -0.453125 -1.046875 -0.453125q-0.734375 0 -1.15625 0.5q-0.40625 0.484375 -0.484375 1.46875zm13.986343 4.296875q-0.59375 0.15625 -1.03125 0.15625q-0.953125 0 -1.515625 -0.546875q-0.5625 -0.546875 -0.5625 -1.5625l0 -4.15625l-0.875 0l0 -0.953125l0.875 0l0 -1.28125l1.28125 -0.125l0 1.40625l1.859375 0l0 0.953125l-1.859375 0l0 3.921875q0 0.75 0.28125 1.078125q0.296875 0.3125 0.921875 0.3125q0.25 0 0.625 -0.09375l0 0.890625zm1.8287811 0l0 -7.0625l1.28125 0l0 7.0625l-1.28125 0zm0 -8.34375l0 -1.28125l1.28125 0l0 1.28125l-1.28125 0zm3.8526611 8.34375l0 -7.0625l1.28125 0l0 1.328125q0.390625 -0.625 1.0 -1.046875q0.609375 -0.4375 1.40625 -0.4375q0.46875 0 0.8125 0.15625q0.34375 0.140625 0.625 0.421875q0.28125 0.265625 0.5 0.90625q0.390625 -0.640625 0.984375 -1.0625q0.609375 -0.4375 1.390625 -0.4375q0.75 0 1.34375 0.46875q0.609375 0.46875 0.609375 1.625l0 5.140625l-1.28125 0l0 -4.9375q0 -0.703125 -0.296875 -0.953125q-0.296875 -0.265625 -0.65625 -0.265625q-0.46875 0 -0.953125 0.296875q-0.484375 0.28125 -1.140625 1.125l0 4.734375l-1.296875 0l0 -4.9375q0 -0.71875 -0.296875 -0.96875q-0.296875 -0.25 -0.671875 -0.25q-0.46875 0 -0.9375 0.28125q-0.46875 0.28125 -1.140625 1.140625l0 4.734375l-1.28125 0zm17.630554 -0.234375q-1.296875 0.390625 -2.21875 0.390625q-1.640625 0 -2.59375 -1.109375q-0.9375 -1.109375 -0.9375 -2.609375q0 -1.0 0.421875 -1.890625q0.421875 -0.90625 1.09375 -1.34375q0.671875 -0.4375 1.578125 -0.4375q1.21875 0 1.953125 0.890625q0.734375 0.875 0.734375 2.625l-0.015625 0.390625l-4.453125 0q0.109375 0.9375 0.40625 1.453125q0.296875 0.5 0.796875 0.78125q0.5 0.28125 1.265625 0.28125q0.390625 0 0.765625 -0.0625q0.390625 -0.078125 1.203125 -0.375l0 1.015625zm-4.375 -4.0625l3.109375 0q0 -1.0625 -0.421875 -1.515625q-0.40625 -0.453125 -1.046875 -0.453125q-0.734375 0 -1.15625 0.5q-0.40625 0.484375 -0.484375 1.46875zm8.816116 4.296875l0 -8.671875l-1.515625 0l0 -0.796875l2.8125 -0.25l0 9.71875l-1.296875 0z" fill-rule="nonzero"/><path fill="#ffffff" d="m18.377953 210.86351l99.90551 0l0 32.03151l-99.90551 0z" fill-rule="evenodd"/><path stroke="#000000" stroke-width="2.0" stroke-linejoin="round" stroke-linecap="butt" d="m18.377953 210.86351l99.90551 0l0 32.03151l-99.90551 0z" fill-rule="evenodd"/><path fill="#000000" d="m28.924828 232.73926l0 -8.484375l1.53125 0l0 1.59375q0.46875 -0.75 1.203125 -1.265625q0.734375 -0.515625 1.6875 -0.515625q0.5625 0 0.96875 0.1875q0.421875 0.171875 0.75 0.5q0.34375 0.328125 0.609375 1.09375q0.46875 -0.765625 1.1875 -1.28125q0.71875 -0.515625 1.65625 -0.515625q0.90625 0 1.625 0.5625q0.734375 0.5625 0.734375 1.953125l0 6.171875l-1.546875 0l0 -5.9375q0 -0.84375 -0.359375 -1.140625q-0.359375 -0.3125 -0.796875 -0.3125q-0.546875 0 -1.140625 0.34375q-0.578125 0.34375 -1.359375 1.359375l0 5.6875l-1.546875 0l0 -5.9375q0 -0.84375 -0.359375 -1.140625q-0.359375 -0.3125 -0.8125 -0.3125q-0.5625 0 -1.125 0.34375q-0.5625 0.328125 -1.375 1.359375l0 5.6875l-1.53125 0zm14.0625 1.15625l0 -1.15625l6.65625 0l0 1.15625l-6.65625 0zm8.5625 -1.453125l0 -1.421875q1.5 0.75 2.625 0.75q0.65625 0 1.09375 -0.359375q0.4375 -0.359375 0.4375 -0.890625q0 -0.34375 -0.21875 -0.65625q-0.21875 -0.328125 -1.0 -0.65625l-0.90625 -0.375q-1.03125 -0.4375 -1.515625 -1.0q-0.46875 -0.5625 -0.46875 -1.390625q0 -1.015625 0.734375 -1.6875q0.75 -0.6875 2.203125 -0.6875q0.703125 0 1.75 0.1875l0.328125 0.0625l0 1.28125q-1.296875 -0.375 -2.0625 -0.375q-0.734375 0 -1.109375 0.328125q-0.359375 0.3125 -0.359375 0.75q0 0.34375 0.25 0.609375q0.234375 0.28125 0.875 0.5625l0.734375 0.3125q1.5 0.625 1.90625 1.25q0.40625 0.609375 0.40625 1.34375q0 0.6875 -0.390625 1.28125q-0.375 0.59375 -1.109375 0.9375q-0.734375 0.34375 -1.640625 0.34375q-1.0625 0 -2.5625 -0.5zm14.6875 0.015625q-1.546875 0.484375 -2.65625 0.484375q-1.96875 0 -3.109375 -1.328125q-1.125 -1.34375 -1.125 -3.15625q0 -1.203125 0.5 -2.28125q0.5 -1.078125 1.296875 -1.59375q0.8125 -0.53125 1.90625 -0.53125q1.46875 0 2.34375 1.0625q0.875 1.046875 0.875 3.15625l0 0.46875l-5.359375 0q0.125 1.125 0.484375 1.734375q0.359375 0.609375 0.953125 0.953125q0.609375 0.328125 1.53125 0.328125q0.46875 0 0.921875 -0.078125q0.46875 -0.078125 1.4375 -0.4375l0 1.21875zm-5.25 -4.875l3.734375 0q0 -1.28125 -0.5 -1.828125q-0.484375 -0.546875 -1.265625 -0.546875q-0.875 0 -1.375 0.59375q-0.5 0.59375 -0.59375 1.78125zm13.8359375 4.890625q-1.5 0.46875 -2.578125 0.46875q-1.140625 0 -2.09375 -0.609375q-0.9375 -0.625 -1.421875 -1.625q-0.46875 -1.0 -0.46875 -2.265625q0 -1.875 1.03125 -3.125q1.046875 -1.25 3.21875 -1.25q1.0 0 2.21875 0.265625l0 1.296875q-1.3125 -0.390625 -2.125 -0.390625q-1.296875 0 -1.953125 0.96875q-0.65625 0.96875 -0.65625 2.28125q0 1.4375 0.734375 2.328125q0.734375 0.875 1.921875 0.875q1.046875 0 2.171875 -0.546875l0 1.328125zm5.6796875 0.46875q-1.21875 0 -2.109375 -0.5q-0.890625 -0.5 -1.421875 -1.5625q-0.515625 -1.078125 -0.515625 -2.390625q0 -1.234375 0.46875 -2.28125q0.484375 -1.0625 1.390625 -1.59375q0.90625 -0.546875 2.1875 -0.546875q1.203125 0 2.09375 0.5q0.90625 0.484375 1.421875 1.5625q0.53125 1.0625 0.53125 2.359375q0 1.25 -0.484375 2.3125q-0.484375 1.0625 -1.390625 1.609375q-0.90625 0.53125 -2.171875 0.53125zm0 -1.171875q1.140625 0 1.765625 -0.84375q0.640625 -0.859375 0.640625 -2.4375q0 -1.578125 -0.640625 -2.421875q-0.625 -0.84375 -1.765625 -0.84375q-1.140625 0 -1.78125 0.84375q-0.625 0.84375 -0.625 2.421875q0 1.578125 0.625 2.4375q0.640625 0.84375 1.78125 0.84375zm6.453125 0.96875l0 -8.484375l1.53125 0l0 1.59375q0.59375 -0.859375 1.359375 -1.3125q0.78125 -0.46875 1.625 -0.46875q1.078125 0 1.75 0.6875q0.671875 0.671875 0.671875 1.890625l0 6.09375l-1.546875 0l0 -5.59375q0 -0.890625 -0.15625 -1.171875q-0.15625 -0.28125 -0.4375 -0.421875q-0.28125 -0.15625 -0.59375 -0.15625q-0.578125 0 -1.234375 0.359375q-0.65625 0.34375 -1.4375 1.484375l0 5.5l-1.53125 0zm15.3671875 0l0 -1.59375q-0.46875 0.890625 -1.171875 1.34375q-0.703125 0.453125 -1.65625 0.453125q-1.5625 0 -2.421875 -1.15625q-0.859375 -1.15625 -0.859375 -3.03125q0 -2.015625 0.96875 -3.34375q0.96875 -1.34375 2.640625 -1.34375q0.5 0 0.9375 0.125q0.453125 0.109375 0.796875 0.328125q0.34375 0.203125 0.765625 0.703125l0 -4.828125l1.546875 0l0 12.34375l-1.546875 0zm0 -6.46875q-0.796875 -0.703125 -1.265625 -0.875q-0.453125 -0.171875 -1.0 -0.171875q-1.125 0 -1.671875 0.953125q-0.53125 0.9375 -0.53125 2.421875q0 1.390625 0.46875 2.1875q0.484375 0.796875 1.5 0.796875q0.640625 0 1.265625 -0.34375q0.625 -0.359375 1.234375 -1.0625l0 -3.90625z" fill-rule="nonzero"/><path fill="#ffffff" d="m118.296585 210.86351l91.40158 0l0 32.03151l-91.40158 0z" fill-rule="evenodd"/><path stroke="#000000" stroke-width="2.0" stroke-linejoin="round" stroke-linecap="butt" d="m118.296585 210.86351l91.40158 0l0 32.03151l-91.40158 0z" fill-rule="evenodd"/><path fill="#000000" d="m155.83331 232.78613l0 -1.375q1.140625 0.453125 2.1875 0.453125q1.25 0 1.84375 -0.734375q0.59375 -0.734375 0.59375 -1.78125q0 -1.1875 -0.875 -1.890625q-0.859375 -0.71875 -2.703125 -0.71875q-0.421875 0 -0.859375 0.0625l0 -5.625l5.859375 0l0 1.34375l-4.5 0l0 3.046875q2.4375 0 3.578125 1.109375q1.140625 1.109375 1.140625 2.75q0 1.5 -1.03125 2.5625q-1.03125 1.046875 -3.234375 1.046875q-0.890625 0 -2.0 -0.25zm9.9921875 -0.125l0 -1.296875q1.46875 0.5 2.5 0.5q0.953125 0 1.625 -0.5q0.671875 -0.5 1.046875 -1.640625q0.375 -1.140625 0.375 -2.484375q-0.515625 0.640625 -0.890625 0.90625q-0.375 0.265625 -0.828125 0.40625q-0.4375 0.140625 -0.9375 0.140625q-0.96875 0 -1.78125 -0.515625q-0.8125 -0.515625 -1.265625 -1.34375q-0.453125 -0.828125 -0.453125 -1.84375q0 -1.0625 0.5 -2.046875q0.5 -1.0 1.3125 -1.53125q0.828125 -0.53125 2.0 -0.53125q2.0625 0 3.046875 1.671875q1.0 1.65625 1.0 3.984375q0 1.765625 -0.59375 3.34375q-0.578125 1.5625 -1.640625 2.359375q-1.046875 0.796875 -2.671875 0.796875q-0.90625 0 -2.34375 -0.375zm0.9375 -7.9375q0 1.296875 0.59375 2.078125q0.59375 0.78125 1.640625 0.78125q0.84375 0 1.59375 -0.609375q0.765625 -0.625 0.765625 -1.65625q0 -0.890625 -0.34375 -1.734375q-0.328125 -0.84375 -0.84375 -1.1875q-0.515625 -0.359375 -1.234375 -0.359375q-1.03125 0 -1.609375 0.734375q-0.5625 0.71875 -0.5625 1.953125z" fill-rule="nonzero"/><path fill="#d9d9d9" d="m345.9134 136.50131l210.89764 0l0 117.00787l-210.89764 0z" fill-rule="evenodd"/><path stroke="#000000" stroke-width="2.0" stroke-linejoin="round" stroke-linecap="butt" d="m345.9134 136.50131l210.89764 0l0 117.00787l-210.89764 0z" fill-rule="evenodd"/><path fill="#ffffff" d="m355.17847 146.80052l99.90552 0l0 32.031494l-99.90552 0z" fill-rule="evenodd"/><path stroke="#000000" stroke-width="2.0" stroke-linejoin="round" stroke-linecap="butt" d="m355.17847 146.80052l99.90552 0l0 32.031494l-99.90552 0z" fill-rule="evenodd"/><path fill="#000000" d="m365.72534 168.67627l0 -8.484375l1.53125 0l0 1.59375q0.46875 -0.75 1.203125 -1.265625q0.734375 -0.515625 1.6875 -0.515625q0.5625 0 0.96875 0.1875q0.421875 0.171875 0.75 0.5q0.34375 0.328125 0.609375 1.09375q0.46875 -0.765625 1.1875 -1.28125q0.71875 -0.515625 1.65625 -0.515625q0.90625 0 1.625 0.5625q0.734375 0.5625 0.734375 1.953125l0 6.171875l-1.546875 0l0 -5.9375q0 -0.84375 -0.359375 -1.140625q-0.359375 -0.3125 -0.796875 -0.3125q-0.546875 0 -1.140625 0.34375q-0.578125 0.34375 -1.359375 1.359375l0 5.6875l-1.546875 0l0 -5.9375q0 -0.84375 -0.359375 -1.140625q-0.359375 -0.3125 -0.8125 -0.3125q-0.5625 0 -1.125 0.34375q-0.5625 0.328125 -1.375 1.359375l0 5.6875l-1.53125 0zm14.0625 1.15625l0 -1.15625l6.65625 0l0 1.15625l-6.65625 0zm8.875 -1.15625l0 -12.34375l1.53125 0l0 5.453125q0.59375 -0.859375 1.359375 -1.3125q0.78125 -0.46875 1.625 -0.46875q1.078125 0 1.75 0.6875q0.671875 0.671875 0.671875 1.890625l0 6.09375l-1.546875 0l0 -5.59375q0 -0.890625 -0.15625 -1.171875q-0.15625 -0.28125 -0.4375 -0.421875q-0.28125 -0.15625 -0.59375 -0.15625q-0.578125 0 -1.234375 0.359375q-0.65625 0.34375 -1.4375 1.484375l0 5.5l-1.53125 0zm13.3046875 0.203125q-1.21875 0 -2.109375 -0.5q-0.890625 -0.5 -1.421875 -1.5625q-0.515625 -1.078125 -0.515625 -2.390625q0 -1.234375 0.46875 -2.28125q0.484375 -1.0625 1.390625 -1.59375q0.90625 -0.546875 2.1875 -0.546875q1.203125 0 2.09375 0.5q0.90625 0.484375 1.421875 1.5625q0.53125 1.0625 0.53125 2.359375q0 1.25 -0.484375 2.3125q-0.484375 1.0625 -1.390625 1.609375q-0.90625 0.53125 -2.171875 0.53125zm0 -1.171875q1.140625 0 1.765625 -0.84375q0.640625 -0.859375 0.640625 -2.4375q0 -1.578125 -0.640625 -2.421875q-0.625 -0.84375 -1.765625 -0.84375q-1.140625 0 -1.78125 0.84375q-0.625 0.84375 -0.625 2.421875q0 1.578125 0.625 2.4375q0.640625 0.84375 1.78125 0.84375zm11.75 0.96875l0 -1.59375q-0.59375 0.859375 -1.375 1.328125q-0.765625 0.46875 -1.59375 0.46875q-1.078125 0 -1.75 -0.6875q-0.671875 -0.6875 -0.671875 -1.90625l0 -6.09375l1.53125 0l0 5.59375q0 0.875 0.15625 1.15625q0.15625 0.28125 0.4375 0.4375q0.28125 0.15625 0.609375 0.15625q0.5625 0 1.21875 -0.34375q0.671875 -0.359375 1.4375 -1.5l0 -5.5l1.546875 0l0 8.484375l-1.546875 0zm4.6328125 0l0 -8.484375l1.53125 0l0 1.59375q0.4375 -0.859375 1.140625 -1.3125q0.703125 -0.46875 1.515625 -0.46875q0.234375 0 0.5 0.03125l0 1.4375q-0.390625 -0.125 -0.703125 -0.125q-0.734375 0 -1.34375 0.4375q-0.609375 0.421875 -1.109375 1.296875l0 5.59375l-1.53125 0z" fill-rule="nonzero"/><path fill="#ffffff" d="m355.17847 178.83202l99.90552 0l0 32.031494l-99.90552 0z" fill-rule="evenodd"/><path stroke="#000000" stroke-width="2.0" stroke-linejoin="round" stroke-linecap="butt" d="m355.17847 178.83202l99.90552 0l0 32.031494l-99.90552 0z" fill-rule="evenodd"/><path fill="#000000" d="m365.72534 200.70776l0 -8.484375l1.53125 0l0 1.59375q0.46875 -0.75 1.203125 -1.265625q0.734375 -0.515625 1.6875 -0.515625q0.5625 0 0.96875 0.1875q0.421875 0.171875 0.75 0.5q0.34375 0.328125 0.609375 1.09375q0.46875 -0.765625 1.1875 -1.28125q0.71875 -0.515625 1.65625 -0.515625q0.90625 0 1.625 0.5625q0.734375 0.5625 0.734375 1.953125l0 6.171875l-1.546875 0l0 -5.9375q0 -0.84375 -0.359375 -1.140625q-0.359375 -0.3125 -0.796875 -0.3125q-0.546875 0 -1.140625 0.34375q-0.578125 0.34375 -1.359375 1.359375l0 5.6875l-1.546875 0l0 -5.9375q0 -0.84375 -0.359375 -1.140625q-0.359375 -0.3125 -0.8125 -0.3125q-0.5625 0 -1.125 0.34375q-0.5625 0.328125 -1.375 1.359375l0 5.6875l-1.53125 0zm14.0625 1.15625l0 -1.15625l6.65625 0l0 1.15625l-6.65625 0zm8.875 -1.15625l0 -8.484375l1.53125 0l0 1.59375q0.46875 -0.75 1.203125 -1.265625q0.734375 -0.515625 1.6875 -0.515625q0.5625 0 0.96875 0.1875q0.421875 0.171875 0.75 0.5q0.34375 0.328125 0.609375 1.09375q0.46875 -0.765625 1.1875 -1.28125q0.71875 -0.515625 1.65625 -0.515625q0.90625 0 1.625 0.5625q0.734375 0.5625 0.734375 1.953125l0 6.171875l-1.546875 0l0 -5.9375q0 -0.84375 -0.359375 -1.140625q-0.359375 -0.3125 -0.796875 -0.3125q-0.546875 0 -1.140625 0.34375q-0.578125 0.34375 -1.359375 1.359375l0 5.6875l-1.546875 0l0 -5.9375q0 -0.84375 -0.359375 -1.140625q-0.359375 -0.3125 -0.8125 -0.3125q-0.5625 0 -1.125 0.34375q-0.5625 0.328125 -1.375 1.359375l0 5.6875l-1.53125 0zm14.9375 0l0 -8.484375l1.53125 0l0 8.484375l-1.53125 0zm0 -10.03125l0 -1.53125l1.53125 0l0 1.53125l-1.53125 0zm4.625 10.03125l0 -8.484375l1.53125 0l0 1.59375q0.59375 -0.859375 1.359375 -1.3125q0.78125 -0.46875 1.625 -0.46875q1.078125 0 1.75 0.6875q0.671875 0.671875 0.671875 1.890625l0 6.09375l-1.546875 0l0 -5.59375q0 -0.890625 -0.15625 -1.171875q-0.15625 -0.28125 -0.4375 -0.421875q-0.28125 -0.15625 -0.59375 -0.15625q-0.578125 0 -1.234375 0.359375q-0.65625 0.34375 -1.4375 1.484375l0 5.5l-1.53125 0zm15.2265625 0l0 -1.59375q-0.59375 0.859375 -1.375 1.328125q-0.765625 0.46875 -1.59375 0.46875q-1.078125 0 -1.75 -0.6875q-0.671875 -0.6875 -0.671875 -1.90625l0 -6.09375l1.53125 0l0 5.59375q0 0.875 0.15625 1.15625q0.15625 0.28125 0.4375 0.4375q0.28125 0.15625 0.609375 0.15625q0.5625 0 1.21875 -0.34375q0.671875 -0.359375 1.4375 -1.5l0 -5.5l1.546875 0l0 8.484375l-1.546875 0zm8.4140625 0q-0.71875 0.203125 -1.234375 0.203125q-1.140625 0 -1.8125 -0.65625q-0.671875 -0.671875 -0.671875 -1.890625l0 -4.984375l-1.0625 0l0 -1.15625l1.0625 0l0 -1.546875l1.53125 -0.140625l0 1.6875l2.21875 0l0 1.15625l-2.21875 0l0 4.703125q0 0.890625 0.34375 1.28125q0.34375 0.375 1.09375 0.375q0.3125 0 0.75 -0.09375l0 1.0625zm8.421875 -0.28125q-1.546875 0.484375 -2.65625 0.484375q-1.96875 0 -3.109375 -1.328125q-1.125 -1.34375 -1.125 -3.15625q0 -1.203125 0.5 -2.28125q0.5 -1.078125 1.296875 -1.59375q0.8125 -0.53125 1.90625 -0.53125q1.46875 0 2.34375 1.0625q0.875 1.046875 0.875 3.15625l0 0.46875l-5.359375 0q0.125 1.125 0.484375 1.734375q0.359375 0.609375 0.953125 0.953125q0.609375 0.328125 1.53125 0.328125q0.46875 0 0.921875 -0.078125q0.46875 -0.078125 1.4375 -0.4375l0 1.21875zm-5.25 -4.875l3.734375 0q0 -1.28125 -0.5 -1.828125q-0.484375 -0.546875 -1.265625 -0.546875q-0.875 0 -1.375 0.59375q-0.5 0.59375 -0.59375 1.78125z" fill-rule="nonzero"/><path fill="#ffffff" d="m455.0971 146.80052l91.40155 0l0 32.031494l-91.40155 0z" fill-rule="evenodd"/><path stroke="#000000" stroke-width="2.0" stroke-linejoin="round" stroke-linecap="butt" d="m455.0971 146.80052l91.40155 0l0 32.031494l-91.40155 0z" fill-rule="evenodd"/><path fill="#000000" d="m494.86823 168.67627l0 -10.40625l-1.828125 0l0 -0.96875l3.375 -0.296875l0 11.671875l-1.546875 0zm10.9921875 0.296875q-1.296875 0 -2.234375 -0.828125q-0.921875 -0.84375 -1.375 -2.265625q-0.4375 -1.421875 -0.4375 -2.984375q0 -1.5625 0.4375 -2.984375q0.453125 -1.421875 1.390625 -2.25q0.9375 -0.84375 2.21875 -0.84375q1.296875 0 2.234375 0.84375q0.9375 0.828125 1.375 2.25q0.4375 1.40625 0.4375 2.984375q0 1.5625 -0.4375 2.96875q-0.4375 1.40625 -1.375 2.265625q-0.921875 0.84375 -2.234375 0.84375zm0 -1.171875q1.265625 0 1.84375 -1.34375q0.578125 -1.359375 0.578125 -3.5625q0 -2.21875 -0.578125 -3.5625q-0.578125 -1.359375 -1.84375 -1.359375q-1.265625 0 -1.84375 1.359375q-0.5625 1.34375 -0.5625 3.5625q0 2.203125 0.5625 3.5625q0.578125 1.34375 1.84375 1.34375z" fill-rule="nonzero"/><path fill="#ffffff" d="m455.0971 178.83202l91.40155 0l0 32.031494l-91.40155 0z" fill-rule="evenodd"/><path stroke="#000000" stroke-width="2.0" stroke-linejoin="round" stroke-linecap="butt" d="m455.0971 178.83202l91.40155 0l0 32.031494l-91.40155 0z" fill-rule="evenodd"/><path fill="#000000" d="m492.30573 200.61401l0 -1.4375q1.65625 0.65625 2.59375 0.65625q1.109375 0 1.796875 -0.640625q0.703125 -0.640625 0.703125 -1.671875q0 -1.0 -0.71875 -1.71875q-0.703125 -0.71875 -2.6875 -0.71875l-0.609375 0l0 -1.03125l0.53125 -0.015625q1.859375 0 2.53125 -0.671875q0.671875 -0.671875 0.671875 -1.578125q0 -0.8125 -0.53125 -1.296875q-0.53125 -0.484375 -1.59375 -0.484375q-1.140625 0 -2.53125 0.65625l0 -1.34375q1.0 -0.34375 1.546875 -0.40625q0.5625 -0.0625 1.09375 -0.0625q1.828125 0 2.6875 0.734375q0.875 0.734375 0.875 1.953125q0 0.671875 -0.25 1.1875q-0.25 0.515625 -0.765625 0.953125q-0.5 0.4375 -1.390625 0.765625q1.125 0.265625 1.671875 0.6875q0.5625 0.40625 0.84375 1.03125q0.28125 0.625 0.28125 1.34375q0 1.359375 -0.9375 2.4375q-0.921875 1.0625 -3.109375 1.0625q-1.078125 0 -2.703125 -0.390625zm13.5546875 0.390625q-1.296875 0 -2.234375 -0.828125q-0.921875 -0.84375 -1.375 -2.265625q-0.4375 -1.421875 -0.4375 -2.984375q0 -1.5625 0.4375 -2.984375q0.453125 -1.421875 1.390625 -2.25q0.9375 -0.84375 2.21875 -0.84375q1.296875 0 2.234375 0.84375q0.9375 0.828125 1.375 2.25q0.4375 1.40625 0.4375 2.984375q0 1.5625 -0.4375 2.96875q-0.4375 1.40625 -1.375 2.265625q-0.921875 0.84375 -2.234375 0.84375zm0 -1.171875q1.265625 0 1.84375 -1.34375q0.578125 -1.359375 0.578125 -3.5625q0 -2.21875 -0.578125 -3.5625q-0.578125 -1.359375 -1.84375 -1.359375q-1.265625 0 -1.84375 1.359375q-0.5625 1.34375 -0.5625 3.5625q0 2.203125 0.5625 3.5625q0.578125 1.34375 1.84375 1.34375z" fill-rule="nonzero"/><path fill="#000000" fill-opacity="0.0" d="m455.07874 253.50919l101.7323 0l0 35.55905l-101.7323 0z" fill-rule="evenodd"/><path fill="#000000" d="m477.84232 275.30917l0 -8.609375l-3.421875 0l0 -1.015625l8.203125 0l0 1.015625l-3.40625 0l0 8.609375l-1.375 0zm6.177704 0l0 -7.0625l1.28125 0l0 7.0625l-1.28125 0zm0 -8.34375l0 -1.28125l1.28125 0l0 1.28125l-1.28125 0zm3.8526611 8.34375l0 -7.0625l1.28125 0l0 1.328125q0.390625 -0.625 1.0 -1.046875q0.609375 -0.4375 1.40625 -0.4375q0.46875 0 0.8125 0.15625q0.34375 0.140625 0.625 0.421875q0.28125 0.265625 0.5 0.90625q0.390625 -0.640625 0.984375 -1.0625q0.609375 -0.4375 1.390625 -0.4375q0.75 0 1.34375 0.46875q0.609375 0.46875 0.609375 1.625l0 5.140625l-1.28125 0l0 -4.9375q0 -0.703125 -0.296875 -0.953125q-0.296875 -0.265625 -0.65625 -0.265625q-0.46875 0 -0.953125 0.296875q-0.484375 0.28125 -1.140625 1.125l0 4.734375l-1.296875 0l0 -4.9375q0 -0.71875 -0.296875 -0.96875q-0.296875 -0.25 -0.671875 -0.25q-0.46875 0 -0.9375 0.28125q-0.46875 0.28125 -1.140625 1.140625l0 4.734375l-1.28125 0zm17.630554 -0.234375q-1.296875 0.390625 -2.21875 0.390625q-1.640625 0 -2.59375 -1.109375q-0.9375 -1.109375 -0.9375 -2.609375q0 -1.0 0.421875 -1.890625q0.421875 -0.90625 1.09375 -1.34375q0.671875 -0.4375 1.578125 -0.4375q1.21875 0 1.953125 0.890625q0.734375 0.875 0.734375 2.625l-0.015625 0.390625l-4.453125 0q0.109375 0.9375 0.40625 1.453125q0.296875 0.5 0.796875 0.78125q0.5 0.28125 1.265625 0.28125q0.390625 0 0.765625 -0.0625q0.390625 -0.078125 1.203125 -0.375l0 1.015625zm-4.375 -4.0625l3.109375 0q0 -1.0625 -0.421875 -1.515625q-0.40625 -0.453125 -1.046875 -0.453125q-0.734375 0 -1.15625 0.5q-0.40625 0.484375 -0.484375 1.46875zm13.986328 4.296875q-0.59375 0.15625 -1.03125 0.15625q-0.953125 0 -1.515625 -0.546875q-0.5625 -0.546875 -0.5625 -1.5625l0 -4.15625l-0.8749695 0l0 -0.953125l0.8749695 0l0 -1.28125l1.28125 -0.125l0 1.40625l1.859375 0l0 0.953125l-1.859375 0l0 3.921875q0 0.75 0.28125 1.078125q0.296875 0.3125 0.921875 0.3125q0.25 0 0.625 -0.09375l0 0.890625zm1.8287964 0l0 -7.0625l1.28125 0l0 7.0625l-1.28125 0zm0 -8.34375l0 -1.28125l1.28125 0l0 1.28125l-1.28125 0zm3.8526611 8.34375l0 -7.0625l1.28125 0l0 1.328125q0.390625 -0.625 1.0 -1.046875q0.609375 -0.4375 1.40625 -0.4375q0.46875 0 0.8125 0.15625q0.34375 0.140625 0.625 0.421875q0.28125 0.265625 0.5 0.90625q0.390625 -0.640625 0.984375 -1.0625q0.609375 -0.4375 1.390625 -0.4375q0.75 0 1.34375 0.46875q0.609375 0.46875 0.609375 1.625l0 5.140625l-1.28125 0l0 -4.9375q0 -0.703125 -0.296875 -0.953125q-0.296875 -0.265625 -0.65625 -0.265625q-0.46875 0 -0.953125 0.296875q-0.484375 0.28125 -1.140625 1.125l0 4.734375l-1.296875 0l0 -4.9375q0 -0.71875 -0.296875 -0.96875q-0.296875 -0.25 -0.671875 -0.25q-0.46875 0 -0.9375 0.28125q-0.46875 0.28125 -1.140625 1.140625l0 4.734375l-1.28125 0zm17.630554 -0.234375q-1.296875 0.390625 -2.21875 0.390625q-1.640625 0 -2.59375 -1.109375q-0.9375 -1.109375 -0.9375 -2.609375q0 -1.0 0.421875 -1.890625q0.421875 -0.90625 1.09375 -1.34375q0.671875 -0.4375 1.578125 -0.4375q1.21875 0 1.953125 0.890625q0.734375 0.875 0.734375 2.625l-0.015625 0.390625l-4.453125 0q0.109375 0.9375 0.40625 1.453125q0.296875 0.5 0.796875 0.78125q0.5 0.28125 1.265625 0.28125q0.390625 0 0.765625 -0.0625q0.390625 -0.078125 1.203125 -0.375l0 1.015625zm-4.375 -4.0625l3.109375 0q0 -1.0625 -0.421875 -1.515625q-0.40625 -0.453125 -1.046875 -0.453125q-0.734375 0 -1.15625 0.5q-0.40625 0.484375 -0.484375 1.46875zm6.441101 4.296875l0 -1.125q0.5625 -1.3125 2.265625 -2.84375l0.734375 -0.671875q0.796875 -0.71875 1.109375 -1.3125q0.3125 -0.59375 0.3125 -1.21875q0 -0.8125 -0.5 -1.265625q-0.5 -0.46875 -1.328125 -0.46875q-0.359375 0 -0.6875 0.078125q-0.328125 0.0625 -0.703125 0.21875q-0.375 0.140625 -0.96875 0.46875l0 -1.125q1.28125 -0.609375 2.546875 -0.609375q1.390625 0 2.1875 0.765625q0.8125 0.765625 0.8125 1.90625q0 0.734375 -0.328125 1.390625q-0.328125 0.65625 -1.625 1.765625l-0.5 0.421875q-0.546875 0.453125 -1.09375 1.109375q-0.53125 0.65625 -0.6875 1.390625l4.1875 0l0 1.125l-5.734375 0z" fill-rule="nonzero"/><path fill="#ffffff" d="m355.17847 210.86351l99.90552 0l0 32.03151l-99.90552 0z" fill-rule="evenodd"/><path stroke="#000000" stroke-width="2.0" stroke-linejoin="round" stroke-linecap="butt" d="m355.17847 210.86351l99.90552 0l0 32.03151l-99.90552 0z" fill-rule="evenodd"/><path fill="#000000" d="m365.72534 232.73926l0 -8.484375l1.53125 0l0 1.59375q0.46875 -0.75 1.203125 -1.265625q0.734375 -0.515625 1.6875 -0.515625q0.5625 0 0.96875 0.1875q0.421875 0.171875 0.75 0.5q0.34375 0.328125 0.609375 1.09375q0.46875 -0.765625 1.1875 -1.28125q0.71875 -0.515625 1.65625 -0.515625q0.90625 0 1.625 0.5625q0.734375 0.5625 0.734375 1.953125l0 6.171875l-1.546875 0l0 -5.9375q0 -0.84375 -0.359375 -1.140625q-0.359375 -0.3125 -0.796875 -0.3125q-0.546875 0 -1.140625 0.34375q-0.578125 0.34375 -1.359375 1.359375l0 5.6875l-1.546875 0l0 -5.9375q0 -0.84375 -0.359375 -1.140625q-0.359375 -0.3125 -0.8125 -0.3125q-0.5625 0 -1.125 0.34375q-0.5625 0.328125 -1.375 1.359375l0 5.6875l-1.53125 0zm14.0625 1.15625l0 -1.15625l6.65625 0l0 1.15625l-6.65625 0zm8.5625 -1.453125l0 -1.421875q1.5 0.75 2.625 0.75q0.65625 0 1.09375 -0.359375q0.4375 -0.359375 0.4375 -0.890625q0 -0.34375 -0.21875 -0.65625q-0.21875 -0.328125 -1.0 -0.65625l-0.90625 -0.375q-1.03125 -0.4375 -1.515625 -1.0q-0.46875 -0.5625 -0.46875 -1.390625q0 -1.015625 0.734375 -1.6875q0.75 -0.6875 2.203125 -0.6875q0.703125 0 1.75 0.1875l0.328125 0.0625l0 1.28125q-1.296875 -0.375 -2.0625 -0.375q-0.734375 0 -1.109375 0.328125q-0.359375 0.3125 -0.359375 0.75q0 0.34375 0.25 0.609375q0.234375 0.28125 0.875 0.5625l0.734375 0.3125q1.5 0.625 1.90625 1.25q0.40625 0.609375 0.40625 1.34375q0 0.6875 -0.390625 1.28125q-0.375 0.59375 -1.109375 0.9375q-0.734375 0.34375 -1.640625 0.34375q-1.0625 0 -2.5625 -0.5zm14.6875 0.015625q-1.546875 0.484375 -2.65625 0.484375q-1.96875 0 -3.109375 -1.328125q-1.125 -1.34375 -1.125 -3.15625q0 -1.203125 0.5 -2.28125q0.5 -1.078125 1.296875 -1.59375q0.8125 -0.53125 1.90625 -0.53125q1.46875 0 2.34375 1.0625q0.875 1.046875 0.875 3.15625l0 0.46875l-5.359375 0q0.125 1.125 0.484375 1.734375q0.359375 0.609375 0.953125 0.953125q0.609375 0.328125 1.53125 0.328125q0.46875 0 0.921875 -0.078125q0.46875 -0.078125 1.4375 -0.4375l0 1.21875zm-5.25 -4.875l3.734375 0q0 -1.28125 -0.5 -1.828125q-0.484375 -0.546875 -1.265625 -0.546875q-0.875 0 -1.375 0.59375q-0.5 0.59375 -0.59375 1.78125zm13.8359375 4.890625q-1.5 0.46875 -2.578125 0.46875q-1.140625 0 -2.09375 -0.609375q-0.9375 -0.625 -1.421875 -1.625q-0.46875 -1.0 -0.46875 -2.265625q0 -1.875 1.03125 -3.125q1.046875 -1.25 3.21875 -1.25q1.0 0 2.21875 0.265625l0 1.296875q-1.3125 -0.390625 -2.125 -0.390625q-1.296875 0 -1.953125 0.96875q-0.65625 0.96875 -0.65625 2.28125q0 1.4375 0.734375 2.328125q0.734375 0.875 1.921875 0.875q1.046875 0 2.171875 -0.546875l0 1.328125zm5.6796875 0.46875q-1.21875 0 -2.109375 -0.5q-0.890625 -0.5 -1.421875 -1.5625q-0.515625 -1.078125 -0.515625 -2.390625q0 -1.234375 0.46875 -2.28125q0.484375 -1.0625 1.390625 -1.59375q0.90625 -0.546875 2.1875 -0.546875q1.203125 0 2.09375 0.5q0.90625 0.484375 1.421875 1.5625q0.53125 1.0625 0.53125 2.359375q0 1.25 -0.484375 2.3125q-0.484375 1.0625 -1.390625 1.609375q-0.90625 0.53125 -2.171875 0.53125zm0 -1.171875q1.140625 0 1.765625 -0.84375q0.640625 -0.859375 0.640625 -2.4375q0 -1.578125 -0.640625 -2.421875q-0.625 -0.84375 -1.765625 -0.84375q-1.140625 0 -1.78125 0.84375q-0.625 0.84375 -0.625 2.421875q0 1.578125 0.625 2.4375q0.640625 0.84375 1.78125 0.84375zm6.453125 0.96875l0 -8.484375l1.53125 0l0 1.59375q0.59375 -0.859375 1.359375 -1.3125q0.78125 -0.46875 1.625 -0.46875q1.078125 0 1.75 0.6875q0.671875 0.671875 0.671875 1.890625l0 6.09375l-1.546875 0l0 -5.59375q0 -0.890625 -0.15625 -1.171875q-0.15625 -0.28125 -0.4375 -0.421875q-0.28125 -0.15625 -0.59375 -0.15625q-0.578125 0 -1.234375 0.359375q-0.65625 0.34375 -1.4375 1.484375l0 5.5l-1.53125 0zm15.3671875 0l0 -1.59375q-0.46875 0.890625 -1.171875 1.34375q-0.703125 0.453125 -1.65625 0.453125q-1.5625 0 -2.421875 -1.15625q-0.859375 -1.15625 -0.859375 -3.03125q0 -2.015625 0.96875 -3.34375q0.96875 -1.34375 2.640625 -1.34375q0.5 0 0.9375 0.125q0.453125 0.109375 0.796875 0.328125q0.34375 0.203125 0.765625 0.703125l0 -4.828125l1.546875 0l0 12.34375l-1.546875 0zm0 -6.46875q-0.796875 -0.703125 -1.265625 -0.875q-0.453125 -0.171875 -1.0 -0.171875q-1.125 0 -1.671875 0.953125q-0.53125 0.9375 -0.53125 2.421875q0 1.390625 0.46875 2.1875q0.484375 0.796875 1.5 0.796875q0.640625 0 1.265625 -0.34375q0.625 -0.359375 1.234375 -1.0625l0 -3.90625z" fill-rule="nonzero"/><path fill="#ffffff" d="m455.0971 210.86351l91.40155 0l0 32.03151l-91.40155 0z" fill-rule="evenodd"/><path stroke="#000000" stroke-width="2.0" stroke-linejoin="round" stroke-linecap="butt" d="m455.0971 210.86351l91.40155 0l0 32.03151l-91.40155 0z" fill-rule="evenodd"/><path fill="#000000" d="m492.63385 232.78613l0 -1.375q1.140625 0.453125 2.1875 0.453125q1.25 0 1.84375 -0.734375q0.59375 -0.734375 0.59375 -1.78125q0 -1.1875 -0.875 -1.890625q-0.859375 -0.71875 -2.703125 -0.71875q-0.421875 0 -0.859375 0.0625l0 -5.625l5.859375 0l0 1.34375l-4.5 0l0 3.046875q2.4375 0 3.578125 1.109375q1.140625 1.109375 1.140625 2.75q0 1.5 -1.03125 2.5625q-1.03125 1.046875 -3.234375 1.046875q-0.890625 0 -2.0 -0.25zm9.9921875 -0.125l0 -1.296875q1.46875 0.5 2.5 0.5q0.953125 0 1.625 -0.5q0.671875 -0.5 1.046875 -1.640625q0.375 -1.140625 0.375 -2.484375q-0.515625 0.640625 -0.890625 0.90625q-0.375 0.265625 -0.828125 0.40625q-0.4375 0.140625 -0.9375 0.140625q-0.96875 0 -1.78125 -0.515625q-0.8125 -0.515625 -1.265625 -1.34375q-0.453125 -0.828125 -0.453125 -1.84375q0 -1.0625 0.5 -2.046875q0.5 -1.0 1.3125 -1.53125q0.828125 -0.53125 2.0 -0.53125q2.0625 0 3.046875 1.671875q1.0 1.65625 1.0 3.984375q0 1.765625 -0.59375 3.34375q-0.578125 1.5625 -1.640625 2.359375q-1.046875 0.796875 -2.671875 0.796875q-0.90625 0 -2.34375 -0.375zm0.9375 -7.9375q0 1.296875 0.59375 2.078125q0.59375 0.78125 1.640625 0.78125q0.84375 0 1.59375 -0.609375q0.765625 -0.625 0.765625 -1.65625q0 -0.890625 -0.34375 -1.734375q-0.328125 -0.84375 -0.84375 -1.1875q-0.515625 -0.359375 -1.234375 -0.359375q-1.03125 0 -1.609375 0.734375q-0.5625 0.71875 -0.5625 1.953125z" fill-rule="nonzero"/><g filter="url(#shadowFilter-p.1)"><use xlink:href="#p.1" transform="matrix(1.0 0.0 0.0 1.0 11.114533858267716 11.50943674540682)"/></g><defs><filter id="shadowFilter-p.1" filterUnits="userSpaceOnUse"><feGaussianBlur in="SourceAlpha" stdDeviation="0.0" result="blur"/><feComponentTransfer in="blur" color-interpolation-filters="sRGB"><feFuncR type="linear" slope="0" intercept="0.8"/><feFuncG type="linear" slope="0" intercept="0.8"/><feFuncB type="linear" slope="0" intercept="0.8"/><feFuncA type="linear" slope="1.0" intercept="0"/></feComponentTransfer></filter></defs><g id="p.1"><path fill="#ffffff" d="m9.112861 11.0l547.68506 0l0 94.99213l-547.68506 0z" fill-rule="evenodd"/><path stroke="#000000" stroke-width="2.0" stroke-linejoin="round" stroke-linecap="butt" d="m9.112861 11.0l547.68506 0l0 94.99213l-547.68506 0z" fill-rule="evenodd"/><path fill="#000000" d="m22.362862 35.856064l0 -10.34375l-4.109375 0l0 -1.21875l9.84375 0l0 1.21875l-4.09375 0l0 10.34375l-1.640625 0zm7.4140625 0l0 -8.484375l1.53125 0l0 8.484375l-1.53125 0zm0 -10.03125l0 -1.53125l1.53125 0l0 1.53125l-1.53125 0zm4.625 10.03125l0 -8.484375l1.53125 0l0 1.59375q0.46875 -0.75 1.203125 -1.265625q0.734375 -0.515625 1.6875 -0.515625q0.5625 0 0.96875 0.1875q0.421875 0.171875 0.75 0.5q0.34375 0.328125 0.609375 1.09375q0.46875 -0.765625 1.1875 -1.28125q0.71875 -0.515625 1.65625 -0.515625q0.90625 0 1.625 0.5625q0.734375 0.5625 0.734375 1.953125l0 6.171875l-1.546875 0l0 -5.9375q0 -0.84375 -0.359375 -1.140625q-0.359375 -0.3125 -0.796875 -0.3125q-0.546875 0 -1.140625 0.34375q-0.578125 0.34375 -1.359375 1.359375l0 5.6875l-1.546875 0l0 -5.9375q0 -0.84375 -0.359375 -1.140625q-0.359375 -0.3125 -0.8125 -0.3125q-0.5625 0 -1.125 0.34375q-0.5625 0.328125 -1.375 1.359375l0 5.6875l-1.53125 0zm21.15625 -0.28125q-1.546875 0.484375 -2.65625 0.484375q-1.96875 0 -3.109375 -1.328125q-1.125 -1.34375 -1.125 -3.15625q0 -1.203125 0.5 -2.28125q0.5 -1.078125 1.296875 -1.59375q0.8125 -0.53125 1.90625 -0.53125q1.46875 0 2.34375 1.0625q0.875 1.046875 0.875 3.15625l0 0.46875l-5.359375 0q0.125 1.125 0.484375 1.734375q0.359375 0.609375 0.953125 0.953125q0.609375 0.328125 1.53125 0.328125q0.46875 0 0.921875 -0.078125q0.46875 -0.078125 1.4375 -0.4375l0 1.21875zm-5.25 -4.875l3.734375 0q0 -1.28125 -0.5 -1.828125q-0.484375 -0.546875 -1.265625 -0.546875q-0.875 0 -1.375 0.59375q-0.5 0.59375 -0.59375 1.78125zm16.789062 5.15625q-0.71875 0.203125 -1.234375 0.203125q-1.140625 0 -1.8125 -0.65625q-0.671875 -0.671875 -0.671875 -1.890625l0 -4.984375l-1.0625 0l0 -1.15625l1.0625 0l0 -1.546875l1.53125 -0.140625l0 1.6875l2.21875 0l0 1.15625l-2.21875 0l0 4.703125q0 0.890625 0.34375 1.28125q0.34375 0.375 1.09375 0.375q0.3125 0 0.75 -0.09375l0 1.0625zm2.203125 0l0 -8.484375l1.53125 0l0 8.484375l-1.53125 0zm0 -10.03125l0 -1.53125l1.53125 0l0 1.53125l-1.53125 0zm4.625 10.03125l0 -8.484375l1.53125 0l0 1.59375q0.46875 -0.75 1.203125 -1.265625q0.734375 -0.515625 1.6875 -0.515625q0.5625 0 0.96875 0.1875q0.421875 0.171875 0.75 0.5q0.34375 0.328125 0.609375 1.09375q0.46875 -0.765625 1.1875 -1.28125q0.71875 -0.515625 1.65625 -0.515625q0.90625 0 1.625 0.5625q0.734375 0.5625 0.734375 1.953125l0 6.171875l-1.546875 0l0 -5.9375q0 -0.84375 -0.359375 -1.140625q-0.359375 -0.3125 -0.796875 -0.3125q-0.546875 0 -1.140625 0.34375q-0.578125 0.34375 -1.359375 1.359375l0 5.6875l-1.546875 0l0 -5.9375q0 -0.84375 -0.359375 -1.140625q-0.359375 -0.3125 -0.8125 -0.3125q-0.5625 0 -1.125 0.34375q-0.5625 0.328125 -1.375 1.359375l0 5.6875l-1.53125 0zm21.15625 -0.28125q-1.546875 0.484375 -2.65625 0.484375q-1.96875 0 -3.109375 -1.328125q-1.125 -1.34375 -1.125 -3.15625q0 -1.203125 0.5 -2.28125q0.5 -1.078125 1.296875 -1.59375q0.8125 -0.53125 1.90625 -0.53125q1.46875 0 2.34375 1.0625q0.875 1.046875 0.875 3.15625l0 0.46875l-5.359375 0q0.125 1.125 0.484375 1.734375q0.359375 0.609375 0.953125 0.953125q0.609375 0.328125 1.53125 0.328125q0.46875 0 0.921875 -0.078125q0.46875 -0.078125 1.4375 -0.4375l0 1.21875zm-5.25 -4.875l3.734375 0q0 -1.28125 -0.5 -1.828125q-0.484375 -0.546875 -1.265625 -0.546875q-0.875 0 -1.375 0.59375q-0.5 0.59375 -0.59375 1.78125zm10.5859375 5.15625l0 -10.40625l-1.828125 0l0 -0.96875l3.375 -0.296875l0 11.671875l-1.546875 0zm7.6953125 2.515625l0 -0.578125q0.296875 -0.15625 0.421875 -0.515625q0.125 -0.34375 0.125 -1.234375l0 -0.1875l-0.546875 0l0 -1.546875l1.53125 0l0 1.296875q0 1.015625 -0.171875 1.46875q-0.171875 0.453125 -0.546875 0.8125q-0.375 0.375 -0.8125 0.484375zm0 -9.453125l0 -1.546875l1.53125 0l0 1.546875l-1.53125 0z" fill-rule="nonzero"/><path fill="#000000" d="m22.362862 54.856064l0 -10.34375l-4.109375 0l0 -1.21875l9.84375 0l0 1.21875l-4.09375 0l0 10.34375l-1.640625 0zm7.4140625 0l0 -8.484375l1.53125 0l0 8.484375l-1.53125 0zm0 -10.03125l0 -1.53125l1.53125 0l0 1.53125l-1.53125 0zm4.625 10.03125l0 -8.484375l1.53125 0l0 1.59375q0.46875 -0.75 1.203125 -1.265625q0.734375 -0.515625 1.6875 -0.515625q0.5625 0 0.96875 0.1875q0.421875 0.171875 0.75 0.5q0.34375 0.328125 0.609375 1.09375q0.46875 -0.765625 1.1875 -1.28125q0.71875 -0.515625 1.65625 -0.515625q0.90625 0 1.625 0.5625q0.734375 0.5625 0.734375 1.953125l0 6.171875l-1.546875 0l0 -5.9375q0 -0.84375 -0.359375 -1.140625q-0.359375 -0.3125 -0.796875 -0.3125q-0.546875 0 -1.140625 0.34375q-0.578125 0.34375 -1.359375 1.359375l0 5.6875l-1.546875 0l0 -5.9375q0 -0.84375 -0.359375 -1.140625q-0.359375 -0.3125 -0.8125 -0.3125q-0.5625 0 -1.125 0.34375q-0.5625 0.328125 -1.375 1.359375l0 5.6875l-1.53125 0zm21.15625 -0.28125q-1.546875 0.484375 -2.65625 0.484375q-1.96875 0 -3.109375 -1.328125q-1.125 -1.34375 -1.125 -3.15625q0 -1.203125 0.5 -2.28125q0.5 -1.078125 1.296875 -1.59375q0.8125 -0.53125 1.90625 -0.53125q1.46875 0 2.34375 1.0625q0.875 1.046875 0.875 3.15625l0 0.46875l-5.359375 0q0.125 1.125 0.484375 1.734375q0.359375 0.609375 0.953125 0.953125q0.609375 0.328125 1.53125 0.328125q0.46875 0 0.921875 -0.078125q0.46875 -0.078125 1.4375 -0.4375l0 1.21875zm-5.25 -4.875l3.734375 0q0 -1.28125 -0.5 -1.828125q-0.484375 -0.546875 -1.265625 -0.546875q-0.875 0 -1.375 0.59375q-0.5 0.59375 -0.59375 1.78125zm16.789062 5.15625q-0.71875 0.203125 -1.234375 0.203125q-1.140625 0 -1.8125 -0.65625q-0.671875 -0.671875 -0.671875 -1.890625l0 -4.984375l-1.0625 0l0 -1.15625l1.0625 0l0 -1.546875l1.53125 -0.140625l0 1.6875l2.21875 0l0 1.15625l-2.21875 0l0 4.703125q0 0.890625 0.34375 1.28125q0.34375 0.375 1.09375 0.375q0.3125 0 0.75 -0.09375l0 1.0625zm2.203125 0l0 -8.484375l1.53125 0l0 8.484375l-1.53125 0zm0 -10.03125l0 -1.53125l1.53125 0l0 1.53125l-1.53125 0zm4.625 10.03125l0 -8.484375l1.53125 0l0 1.59375q0.46875 -0.75 1.203125 -1.265625q0.734375 -0.515625 1.6875 -0.515625q0.5625 0 0.96875 0.1875q0.421875 0.171875 0.75 0.5q0.34375 0.328125 0.609375 1.09375q0.46875 -0.765625 1.1875 -1.28125q0.71875 -0.515625 1.65625 -0.515625q0.90625 0 1.625 0.5625q0.734375 0.5625 0.734375 1.953125l0 6.171875l-1.546875 0l0 -5.9375q0 -0.84375 -0.359375 -1.140625q-0.359375 -0.3125 -0.796875 -0.3125q-0.546875 0 -1.140625 0.34375q-0.578125 0.34375 -1.359375 1.359375l0 5.6875l-1.546875 0l0 -5.9375q0 -0.84375 -0.359375 -1.140625q-0.359375 -0.3125 -0.8125 -0.3125q-0.5625 0 -1.125 0.34375q-0.5625 0.328125 -1.375 1.359375l0 5.6875l-1.53125 0zm21.15625 -0.28125q-1.546875 0.484375 -2.65625 0.484375q-1.96875 0 -3.109375 -1.328125q-1.125 -1.34375 -1.125 -3.15625q0 -1.203125 0.5 -2.28125q0.5 -1.078125 1.296875 -1.59375q0.8125 -0.53125 1.90625 -0.53125q1.46875 0 2.34375 1.0625q0.875 1.046875 0.875 3.15625l0 0.46875l-5.359375 0q0.125 1.125 0.484375 1.734375q0.359375 0.609375 0.953125 0.953125q0.609375 0.328125 1.53125 0.328125q0.46875 0 0.921875 -0.078125q0.46875 -0.078125 1.4375 -0.4375l0 1.21875zm-5.25 -4.875l3.734375 0q0 -1.28125 -0.5 -1.828125q-0.484375 -0.546875 -1.265625 -0.546875q-0.875 0 -1.375 0.59375q-0.5 0.59375 -0.59375 1.78125zm7.7265625 5.15625l0 -1.359375q0.671875 -1.5625 2.71875 -3.421875l0.890625 -0.78125q0.953125 -0.875 1.328125 -1.578125q0.375 -0.71875 0.375 -1.484375q0 -0.96875 -0.59375 -1.515625q-0.59375 -0.5625 -1.59375 -0.5625q-0.4375 0 -0.828125 0.09375q-0.390625 0.078125 -0.84375 0.265625q-0.453125 0.171875 -1.15625 0.578125l0 -1.359375q1.53125 -0.734375 3.0625 -0.734375q1.65625 0 2.609375 0.921875q0.96875 0.90625 0.96875 2.28125q0 0.890625 -0.390625 1.6875q-0.390625 0.78125 -1.953125 2.109375l-0.59375 0.5q-0.640625 0.546875 -1.296875 1.34375q-0.65625 0.78125 -0.84375 1.65625l5.03125 0l0 1.359375l-6.890625 0zm10.5546875 2.515625l0 -0.578125q0.296875 -0.15625 0.421875 -0.515625q0.125 -0.34375 0.125 -1.234375l0 -0.1875l-0.546875 0l0 -1.546875l1.53125 0l0 1.296875q0 1.015625 -0.171875 1.46875q-0.171875 0.453125 -0.546875 0.8125q-0.375 0.375 -0.8125 0.484375zm0 -9.453125l0 -1.546875l1.53125 0l0 1.546875l-1.53125 0z" fill-rule="nonzero"/><path fill="#000000" d="m20.050362 73.856064l0 -1.546875l1.53125 0l0 1.546875l-1.53125 0zm5.296875 0l0 -1.546875l1.546875 0l0 1.546875l-1.546875 0zm5.296875 0l0 -1.546875l1.546875 0l0 1.546875l-1.546875 0z" fill-rule="nonzero"/><path fill="#000000" d="m23.440987 92.856064q-0.71875 0.203125 -1.234375 0.203125q-1.140625 0 -1.8125 -0.65625q-0.671875 -0.671875 -0.671875 -1.890625l0 -4.984375l-1.0625 0l0 -1.15625l1.0625 0l0 -1.546875l1.53125 -0.140625l0 1.6875l2.21875 0l0 1.15625l-2.21875 0l0 4.703125q0 0.890625 0.34375 1.28125q0.34375 0.375 1.09375 0.375q0.3125 0 0.75 -0.09375l0 1.0625zm2.203125 0l0 -8.484375l1.53125 0l0 8.484375l-1.53125 0zm0 -10.03125l0 -1.53125l1.53125 0l0 1.53125l-1.53125 0zm4.625 10.03125l0 -8.484375l1.53125 0l0 1.59375q0.46875 -0.75 1.203125 -1.265625q0.734375 -0.515625 1.6875 -0.515625q0.5625 0 0.96875 0.1875q0.421875 0.171875 0.75 0.5q0.34375 0.328125 0.609375 1.09375q0.46875 -0.765625 1.1875 -1.28125q0.71875 -0.515625 1.65625 -0.515625q0.90625 0 1.625 0.5625q0.734375 0.5625 0.734375 1.953125l0 6.171875l-1.546875 0l0 -5.9375q0 -0.84375 -0.359375 -1.140625q-0.359375 -0.3125 -0.796875 -0.3125q-0.546875 0 -1.140625 0.34375q-0.578125 0.34375 -1.359375 1.359375l0 5.6875l-1.546875 0l0 -5.9375q0 -0.84375 -0.359375 -1.140625q-0.359375 -0.3125 -0.8125 -0.3125q-0.5625 0 -1.125 0.34375q-0.5625 0.328125 -1.375 1.359375l0 5.6875l-1.53125 0zm21.15625 -0.28125q-1.546875 0.484375 -2.65625 0.484375q-1.96875 0 -3.109375 -1.328125q-1.125 -1.34375 -1.125 -3.15625q0 -1.203125 0.5 -2.28125q0.5 -1.078125 1.296875 -1.59375q0.8125 -0.53125 1.90625 -0.53125q1.46875 0 2.34375 1.0625q0.875 1.046875 0.875 3.15625l0 0.46875l-5.359375 0q0.125 1.125 0.484375 1.734375q0.359375 0.609375 0.953125 0.953125q0.609375 0.328125 1.53125 0.328125q0.46875 0 0.921875 -0.078125q0.46875 -0.078125 1.4375 -0.4375l0 1.21875zm-5.25 -4.875l3.734375 0q0 -1.28125 -0.5 -1.828125q-0.484375 -0.546875 -1.265625 -0.546875q-0.875 0 -1.375 0.59375q-0.5 0.59375 -0.59375 1.78125zm7.7265625 5.15625l0 -1.359375q0.671875 -1.5625 2.71875 -3.421875l0.890625 -0.78125q0.953125 -0.875 1.328125 -1.578125q0.375 -0.71875 0.375 -1.484375q0 -0.96875 -0.59375 -1.515625q-0.59375 -0.5625 -1.59375 -0.5625q-0.4375 0 -0.828125 0.09375q-0.390625 0.078125 -0.84375 0.265625q-0.453125 0.171875 -1.15625 0.578125l0 -1.359375q1.53125 -0.734375 3.0625 -0.734375q1.65625 0 2.609375 0.921875q0.96875 0.90625 0.96875 2.28125q0 0.890625 -0.390625 1.6875q-0.390625 0.78125 -1.953125 2.109375l-0.59375 0.5q-0.640625 0.546875 -1.296875 1.34375q-0.65625 0.78125 -0.84375 1.65625l5.03125 0l0 1.359375l-6.890625 0zm14.6796875 -2.703125l0 -1.15625l8.484375 0l0 1.15625l-8.484375 0zm0 -2.703125l0 -1.15625l8.484375 0l0 1.15625l-8.484375 0zm19.679688 5.40625q-0.71875 0.203125 -1.234375 0.203125q-1.140625 0 -1.8125 -0.65625q-0.671875 -0.671875 -0.671875 -1.890625l0 -4.984375l-1.0625 0l0 -1.15625l1.0625 0l0 -1.546875l1.53125 -0.140625l0 1.6875l2.21875 0l0 1.15625l-2.21875 0l0 4.703125q0 0.890625 0.34375 1.28125q0.34375 0.375 1.09375 0.375q0.3125 0 0.75 -0.09375l0 1.0625zm2.203125 0l0 -8.484375l1.53125 0l0 8.484375l-1.53125 0zm0 -10.03125l0 -1.53125l1.53125 0l0 1.53125l-1.53125 0zm4.625 10.03125l0 -8.484375l1.53125 0l0 1.59375q0.46875 -0.75 1.203125 -1.265625q0.734375 -0.515625 1.6875 -0.515625q0.5625 0 0.96875 0.1875q0.421875 0.171875 0.75 0.5q0.34375 0.328125 0.609375 1.09375q0.46875 -0.765625 1.1875 -1.28125q0.71875 -0.515625 1.65625 -0.515625q0.90625 0 1.625 0.5625q0.734375 0.5625 0.734375 1.953125l0 6.171875l-1.546875 0l0 -5.9375q0 -0.84375 -0.359375 -1.140625q-0.359375 -0.3125 -0.796875 -0.3125q-0.546875 0 -1.140625 0.34375q-0.578125 0.34375 -1.359375 1.359375l0 5.6875l-1.546875 0l0 -5.9375q0 -0.84375 -0.359375 -1.140625q-0.359375 -0.3125 -0.8125 -0.3125q-0.5625 0 -1.125 0.34375q-0.5625 0.328125 -1.375 1.359375l0 5.6875l-1.53125 0zm21.15625 -0.28125q-1.546875 0.484375 -2.65625 0.484375q-1.96875 0 -3.109375 -1.328125q-1.125 -1.34375 -1.125 -3.15625q0 -1.203125 0.5 -2.28125q0.5 -1.078125 1.296875 -1.59375q0.8125 -0.53125 1.90625 -0.53125q1.46875 0 2.34375 1.0625q0.875 1.046875 0.875 3.15625l0 0.46875l-5.359375 0q0.125 1.125 0.484375 1.734375q0.359375 0.609375 0.953125 0.953125q0.609375 0.328125 1.53125 0.328125q0.46875 0 0.921875 -0.078125q0.46875 -0.078125 1.4375 -0.4375l0 1.21875zm-5.25 -4.875l3.734375 0q0 -1.28125 -0.5 -1.828125q-0.484375 -0.546875 -1.265625 -0.546875q-0.875 0 -1.375 0.59375q-0.5 0.59375 -0.59375 1.78125zm10.5859375 5.15625l0 -10.40625l-1.828125 0l0 -0.96875l3.375 -0.296875l0 11.671875l-1.546875 0zm7.695305 2.515625l0 -0.578125q0.296875 -0.15625 0.421875 -0.515625q0.125 -0.34375 0.125 -1.234375l0 -0.1875l-0.546875 0l0 -1.546875l1.53125 0l0 1.296875q0 1.015625 -0.171875 1.46875q-0.171875 0.453125 -0.546875 0.8125q-0.375 0.375 -0.8125 0.484375zm0 -9.453125l0 -1.546875l1.53125 0l0 1.546875l-1.53125 0z" fill-rule="nonzero"/></g><path fill="#999999" d="m244.60892 194.84776l17.779541 -17.779526l0 8.8897705l48.614166 0l0 17.779526l-48.614166 0l0 8.8897705z" fill-rule="evenodd"/><path stroke="#000000" stroke-width="2.0" stroke-linejoin="round" stroke-linecap="butt" d="m244.60892 194.84776l17.779541 -17.779526l0 8.8897705l48.614166 0l0 17.779526l-48.614166 0l0 8.8897705z" fill-rule="evenodd"/></g></svg>