<svg version="1.1" viewBox="0.0 0.0 359.0 246.0" fill="none" stroke="none" stroke-linecap="square" stroke-miterlimit="10" xmlns:xlink="http://www.w3.org/1999/xlink" xmlns="http://www.w3.org/2000/svg"><clipPath id="p.0"><path d="m0 0l359.0 0l0 246.0l-359.0 0l0 -246.0z" clip-rule="nonzero"/></clipPath><g clip-path="url(#p.0)"><path fill="#000000" fill-opacity="0.0" d="m0 0l359.0 0l0 246.0l-359.0 0z" fill-rule="evenodd"/><path fill="#000000" fill-opacity="0.0" d="m190.01968 4.007874l33.984253 0l0 42.015747l-33.984253 0z" fill-rule="evenodd"/><path fill="#000000" d="m200.25406 30.927872l0 -9.671875l1.46875 0l0 1.375q1.0625 -1.59375 3.078125 -1.59375q0.875 0 1.609375 0.3125q0.734375 0.3125 1.09375 0.828125q0.375 0.5 0.515625 1.203125q0.09375 0.453125 0.09375 1.59375l0 5.953125l-1.640625 0l0 -5.890625q0 -1.0 -0.203125 -1.484375q-0.1875 -0.5 -0.671875 -0.796875q-0.484375 -0.296875 -1.140625 -0.296875q-1.046875 0 -1.8125 0.671875q-0.75 0.65625 -0.75 2.515625l0 5.28125l-1.640625 0z" fill-rule="nonzero"/><path fill="#cccccc" d="m115.14173 38.630913l178.74017 0l0 32.62992l-178.74017 0z" fill-rule="evenodd"/><path stroke="#000000" stroke-width="2.0" stroke-linejoin="round" stroke-linecap="butt" d="m115.14173 38.630913l178.74017 0l0 32.62992l-178.74017 0z" fill-rule="evenodd"/><path fill="#000000" d="m195.90137 61.86587l-1.640625 0l0 -10.453125q-0.59375 0.5625 -1.5625 1.140625q-0.953125 0.5625 -1.71875 0.84375l0 -1.59375q1.375 -0.640625 2.40625 -1.5625q1.03125 -0.921875 1.453125 -1.78125l1.0625 0l0 13.40625zm12.813217 -1.578125l0 1.578125l-8.828125 0q-0.015625 -0.59375 0.1875 -1.140625q0.34375 -0.90625 1.078125 -1.78125q0.75 -0.875 2.15625 -2.015625q2.171875 -1.78125 2.9375 -2.828125q0.765625 -1.046875 0.765625 -1.96875q0 -0.984375 -0.703125 -1.640625q-0.6875 -0.671875 -1.8125 -0.671875q-1.1875 0 -1.90625 0.71875q-0.703125 0.703125 -0.703125 1.953125l-1.6875 -0.171875q0.171875 -1.890625 1.296875 -2.875q1.140625 -0.984375 3.03125 -0.984375q1.921875 0 3.046875 1.0625q1.125 1.0625 1.125 2.640625q0 0.796875 -0.328125 1.578125q-0.328125 0.78125 -1.09375 1.640625q-0.75 0.84375 -2.53125 2.34375q-1.46875 1.234375 -1.890625 1.6875q-0.421875 0.4375 -0.6875 0.875l6.546875 0zm1.7663422 -1.953125l1.640625 -0.21875q0.28125 1.40625 0.953125 2.015625q0.6875 0.609375 1.65625 0.609375q1.15625 0 1.953125 -0.796875q0.796875 -0.796875 0.796875 -1.984375q0 -1.125 -0.734375 -1.859375q-0.734375 -0.734375 -1.875 -0.734375q-0.46875 0 -1.15625 0.171875l0.1875 -1.4375q0.15625 0.015625 0.265625 0.015625q1.046875 0 1.875 -0.546875q0.84375 -0.546875 0.84375 -1.671875q0 -0.90625 -0.609375 -1.5q-0.609375 -0.59375 -1.578125 -0.59375q-0.953125 0 -1.59375 0.609375q-0.640625 0.59375 -0.8125 1.796875l-1.640625 -0.296875q0.296875 -1.640625 1.359375 -2.546875q1.0625 -0.90625 2.65625 -0.90625q1.09375 0 2.0 0.46875q0.921875 0.46875 1.40625 1.28125q0.5 0.8125 0.5 1.71875q0 0.859375 -0.46875 1.578125q-0.46875 0.703125 -1.375 1.125q1.1875 0.28125 1.84375 1.140625q0.65625 0.859375 0.65625 2.15625q0 1.734375 -1.28125 2.953125q-1.265625 1.21875 -3.21875 1.21875q-1.765625 0 -2.921875 -1.046875q-1.15625 -1.046875 -1.328125 -2.71875z" fill-rule="nonzero"/><path fill="#000000" fill-opacity="0.0" d="m190.021 135.4357l33.984253 0l0 42.015747l-33.984253 0z" fill-rule="evenodd"/><path fill="#000000" d="m200.25537 150.88695l0 -1.890625l1.640625 0l0 1.890625l-1.640625 0zm0 11.46875l0 -9.671875l1.640625 0l0 9.671875l-1.640625 0zm4.144821 3.703125l0 -13.375l1.484375 0l0 1.25q0.53125 -0.734375 1.1875 -1.09375q0.671875 -0.375 1.625 -0.375q1.234375 0 2.171875 0.640625q0.953125 0.625 1.4375 1.796875q0.484375 1.15625 0.484375 2.546875q0 1.484375 -0.53125 2.671875q-0.53125 1.1875 -1.546875 1.828125q-1.015625 0.625 -2.140625 0.625q-0.8125 0 -1.46875 -0.34375q-0.65625 -0.34375 -1.0625 -0.875l0 4.703125l-1.640625 0zm1.484375 -8.484375q0 1.859375 0.75 2.765625q0.765625 0.890625 1.828125 0.890625q1.09375 0 1.875 -0.921875q0.78125 -0.9375 0.78125 -2.875q0 -1.84375 -0.765625 -2.765625q-0.75 -0.921875 -1.8125 -0.921875q-1.046875 0 -1.859375 0.984375q-0.796875 0.96875 -0.796875 2.84375z" fill-rule="nonzero"/><path fill="#cccccc" d="m115.14173 171.35432l178.74017 0l0 32.62993l-178.74017 0z" fill-rule="evenodd"/><path stroke="#000000" stroke-width="2.0" stroke-linejoin="round" stroke-linecap="butt" d="m115.14173 171.35432l178.74017 0l0 32.62993l-178.74017 0z" fill-rule="evenodd"/><path fill="#000000" d="m161.60947 189.76367q0 -1.453125 0.421875 -2.953125q0.4375 -1.5 0.96875 -2.390625q0.53125 -0.90625 1.09375 -1.40625q0.578125 -0.515625 1.125 -0.75q0.5625 -0.234375 1.234375 -0.234375q1.3125 0 2.1875 0.984375q0.875 0.96875 0.875 2.8125q0 1.890625 -0.609375 3.75q-0.71875 2.203125 -2.0 3.3125q-0.984375 0.84375 -2.234375 0.84375q-1.296875 0 -2.1875 -1.015625q-0.875 -1.015625 -0.875 -2.953125zm1.359375 0.359375q0 1.0625 0.359375 1.65625q0.46875 0.8125 1.40625 0.8125q0.828125 0 1.5 -0.734375q0.96875 -1.046875 1.453125 -3.0625q0.484375 -2.03125 0.484375 -3.3125q0 -1.234375 -0.46875 -1.78125q-0.46875 -0.546875 -1.25 -0.546875q-0.5625 0 -1.046875 0.296875q-0.484375 0.28125 -0.9375 0.984375q-0.625 1.0 -1.09375 2.96875q-0.40625 1.6875 -0.40625 2.71875zm6.3671875 3.40625l3.625 -4.21875l-2.078125 -4.078125l1.5625 0l0.703125 1.46875q0.390625 0.828125 0.703125 1.59375l2.390625 -3.0625l1.734375 0l-3.484375 4.1875l2.09375 4.109375l-1.5625 0l-0.828125 -1.6875q-0.265625 -0.546875 -0.609375 -1.34375l-2.46875 3.03125l-1.78125 0zm9.171875 -3.765625q0 -1.453125 0.421875 -2.953125q0.4375 -1.5 0.96875 -2.390625q0.53125 -0.90625 1.09375 -1.40625q0.578125 -0.515625 1.125 -0.75q0.5625 -0.234375 1.234375 -0.234375q1.3125 0 2.1875 0.984375q0.875 0.96875 0.875 2.8125q0 1.890625 -0.609375 3.75q-0.71875 2.203125 -2.0 3.3125q-0.984375 0.84375 -2.234375 0.84375q-1.296875 0 -2.1875 -1.015625q-0.875 -1.015625 -0.875 -2.953125zm1.359375 0.359375q0 1.0625 0.359375 1.65625q0.46875 0.8125 1.40625 0.8125q0.828125 0 1.5 -0.734375q0.96875 -1.046875 1.453125 -3.0625q0.484375 -2.03125 0.484375 -3.3125q0 -1.234375 -0.46875 -1.78125q-0.46875 -0.546875 -1.25 -0.546875q-0.5625 0 -1.046875 0.296875q-0.484375 0.28125 -0.9375 0.984375q-0.625 1.0 -1.09375 2.96875q-0.40625 1.6875 -0.40625 2.71875zm7.5390625 -0.359375q0 -1.453125 0.421875 -2.953125q0.4375 -1.5 0.96875 -2.390625q0.53125 -0.90625 1.09375 -1.40625q0.578125 -0.515625 1.125 -0.75q0.5625 -0.234375 1.234375 -0.234375q1.3125 0 2.1875 0.984375q0.875 0.96875 0.875 2.8125q0 1.890625 -0.609375 3.75q-0.71875 2.203125 -2.0 3.3125q-0.984375 0.84375 -2.234375 0.84375q-1.296875 0 -2.1875 -1.015625q-0.875 -1.015625 -0.875 -2.953125zm1.359375 0.359375q0 1.0625 0.359375 1.65625q0.46875 0.8125 1.40625 0.8125q0.828125 0 1.5 -0.734375q0.96875 -1.046875 1.453125 -3.0625q0.484375 -2.03125 0.484375 -3.3125q0 -1.234375 -0.46875 -1.78125q-0.46875 -0.546875 -1.25 -0.546875q-0.5625 0 -1.046875 0.296875q-0.484375 0.28125 -0.9375 0.984375q-0.625 1.0 -1.09375 2.96875q-0.40625 1.6875 -0.40625 2.71875zm7.5390625 -0.359375q0 -1.453125 0.421875 -2.953125q0.4375 -1.5 0.96875 -2.390625q0.53125 -0.90625 1.09375 -1.40625q0.578125 -0.515625 1.125 -0.75q0.5625 -0.234375 1.234375 -0.234375q1.3125 0 2.1875 0.984375q0.875 0.96875 0.875 2.8125q0 1.890625 -0.609375 3.75q-0.71875 2.203125 -2.0 3.3125q-0.984375 0.84375 -2.234375 0.84375q-1.296875 0 -2.1875 -1.015625q-0.875 -1.015625 -0.875 -2.953125zm1.359375 0.359375q0 1.0625 0.359375 1.65625q0.46875 0.8125 1.40625 0.8125q0.828125 0 1.5 -0.734375q0.96875 -1.046875 1.453125 -3.0625q0.484375 -2.03125 0.484375 -3.3125q0 -1.234375 -0.46875 -1.78125q-0.46875 -0.546875 -1.25 -0.546875q-0.5625 0 -1.046875 0.296875q-0.484375 0.28125 -0.9375 0.984375q-0.625 1.0 -1.09375 2.96875q-0.40625 1.6875 -0.40625 2.71875zm7.5390625 -0.359375q0 -1.453125 0.421875 -2.953125q0.4375 -1.5 0.96875 -2.390625q0.53125 -0.90625 1.09375 -1.40625q0.578125 -0.515625 1.125 -0.75q0.5625 -0.234375 1.234375 -0.234375q1.3125 0 2.1875 0.984375q0.875 0.96875 0.875 2.8125q0 1.890625 -0.609375 3.75q-0.71875 2.203125 -2.0 3.3125q-0.984375 0.84375 -2.234375 0.84375q-1.296875 0 -2.1875 -1.015625q-0.875 -1.015625 -0.875 -2.953125zm1.359375 0.359375q0 1.0625 0.359375 1.65625q0.46875 0.8125 1.40625 0.8125q0.828125 0 1.5 -0.734375q0.96875 -1.046875 1.453125 -3.0625q0.484375 -2.03125 0.484375 -3.3125q0 -1.234375 -0.46875 -1.78125q-0.46875 -0.546875 -1.25 -0.546875q-0.5625 0 -1.046875 0.296875q-0.484375 0.28125 -0.9375 0.984375q-0.625 1.0 -1.09375 2.96875q-0.40625 1.6875 -0.40625 2.71875zm10.2578125 3.40625l1.8125 -8.65625q-1.171875 0.921875 -3.296875 1.484375l0.265625 -1.28125q1.046875 -0.421875 2.078125 -1.09375q1.03125 -0.6875 1.546875 -1.203125q0.3125 -0.3125 0.59375 -0.75l0.8125 0l-2.390625 11.5l-1.421875 0zm6.1796875 -3.765625q0 -1.453125 0.421875 -2.953125q0.4375 -1.5 0.96875 -2.390625q0.53125 -0.90625 1.09375 -1.40625q0.578125 -0.515625 1.125 -0.75q0.5625 -0.234375 1.234375 -0.234375q1.3125 0 2.1875 0.984375q0.875 0.96875 0.875 2.8125q0 1.890625 -0.609375 3.75q-0.71875 2.203125 -2.0 3.3125q-0.984375 0.84375 -2.234375 0.84375q-1.296875 0 -2.1875 -1.015625q-0.875 -1.015625 -0.875 -2.953125zm1.359375 0.359375q0 1.0625 0.359375 1.65625q0.46875 0.8125 1.40625 0.8125q0.828125 0 1.5 -0.734375q0.96875 -1.046875 1.453125 -3.0625q0.484375 -2.03125 0.484375 -3.3125q0 -1.234375 -0.46875 -1.78125q-0.46875 -0.546875 -1.25 -0.546875q-0.5625 0 -1.046875 0.296875q-0.484375 0.28125 -0.9375 0.984375q-0.625 1.0 -1.09375 2.96875q-0.40625 1.6875 -0.40625 2.71875zm7.3359375 3.40625q0.21875 -1.03125 0.609375 -1.71875q0.390625 -0.6875 1.03125 -1.3125q0.640625 -0.625 2.46875 -2.078125q1.109375 -0.890625 1.515625 -1.3125q0.578125 -0.609375 0.84375 -1.1875q0.1875 -0.40625 0.1875 -0.875q0 -0.78125 -0.5625 -1.328125q-0.5625 -0.5625 -1.375 -0.5625q-0.796875 0 -1.40625 0.5625q-0.59375 0.5625 -0.859375 1.796875l-1.375 -0.203125q0.203125 -1.53125 1.171875 -2.40625q0.984375 -0.875 2.453125 -0.875q0.96875 0 1.765625 0.40625q0.796875 0.40625 1.1875 1.140625q0.40625 0.734375 0.40625 1.515625q0 1.140625 -0.8125 2.1875q-0.5 0.65625 -2.9375 2.59375q-1.046875 0.828125 -1.5625 1.359375q-0.515625 0.53125 -0.765625 1.0l5.125 0l-0.28125 1.296875l-6.828125 0zm12.742203 0l0.625 -2.921875l-4.6718903 0l0.296875 -1.40625l6.4062653 -7.125l1.15625 0l-1.515625 7.28125l1.609375 0l-0.265625 1.25l-1.609375 0l-0.609375 2.921875l-1.421875 0zm0.875 -4.171875l1.0 -4.78125l-4.2656403 4.78125l3.2656403 0z" fill-rule="nonzero"/><path fill="#000000" fill-opacity="0.0" d="m5.6850395 35.559055l114.83464 0l0 38.771656l-114.83464 0z" fill-rule="evenodd"/><path fill="#000000" d="m15.8256645 56.15343q0 -1.453125 0.421875 -2.953125q0.4375 -1.5 0.96875 -2.390625q0.53125 -0.90625 1.09375 -1.40625q0.578125 -0.515625 1.125 -0.75q0.5625 -0.234375 1.234375 -0.234375q1.3125 0 2.1875 0.984375q0.875 0.96875 0.875 2.8125q0 1.890625 -0.609375 3.75q-0.71875 2.203125 -2.0 3.3125q-0.984375 0.84375 -2.234375 0.84375q-1.296875 0 -2.1875 -1.015625q-0.875 -1.015625 -0.875 -2.953125zm1.359375 0.359375q0 1.0625 0.359375 1.65625q0.46875 0.8125 1.40625 0.8125q0.828125 0 1.5 -0.734375q0.96875 -1.046875 1.453125 -3.0625q0.484375 -2.03125 0.484375 -3.3125q0 -1.234375 -0.46875 -1.78125q-0.46875 -0.546875 -1.25 -0.546875q-0.5625 0 -1.046875 0.296875q-0.484375 0.28125 -0.9375 0.984375q-0.625 1.0 -1.09375 2.96875q-0.40625 1.6875 -0.40625 2.71875zm6.3671875 3.40625l3.625 -4.21875l-2.078125 -4.078125l1.5625 0l0.703125 1.46875q0.390625 0.828125 0.703125 1.59375l2.390625 -3.0625l1.734375 0l-3.484375 4.1875l2.09375 4.109375l-1.5625 0l-0.828125 -1.6875q-0.265625 -0.546875 -0.609375 -1.34375l-2.46875 3.03125l-1.78125 0zm9.171875 -3.765625q0 -1.453125 0.421875 -2.953125q0.4375 -1.5 0.96875 -2.390625q0.53125 -0.90625 1.09375 -1.40625q0.578125 -0.515625 1.125 -0.75q0.5625 -0.234375 1.234375 -0.234375q1.3125 0 2.1875 0.984375q0.875 0.96875 0.875 2.8125q0 1.890625 -0.609375 3.75q-0.71875 2.203125 -2.0 3.3125q-0.984375 0.84375 -2.234375 0.84375q-1.296875 0 -2.1875 -1.015625q-0.875 -1.015625 -0.875 -2.953125zm1.359375 0.359375q0 1.0625 0.359375 1.65625q0.46875 0.8125 1.40625 0.8125q0.828125 0 1.5 -0.734375q0.96875 -1.046875 1.453125 -3.0625q0.484375 -2.03125 0.484375 -3.3125q0 -1.234375 -0.46875 -1.78125q-0.46875 -0.546875 -1.25 -0.546875q-0.5625 0 -1.046875 0.296875q-0.484375 0.28125 -0.9375 0.984375q-0.625 1.0 -1.09375 2.96875q-0.40625 1.6875 -0.40625 2.71875zm7.5390625 -0.359375q0 -1.453125 0.421875 -2.953125q0.4375 -1.5 0.96875 -2.390625q0.53125 -0.90625 1.09375 -1.40625q0.578125 -0.515625 1.125 -0.75q0.5625 -0.234375 1.234375 -0.234375q1.3125 0 2.1875 0.984375q0.875 0.96875 0.875 2.8125q0 1.890625 -0.609375 3.75q-0.71875 2.203125 -2.0 3.3125q-0.984375 0.84375 -2.234375 0.84375q-1.296875 0 -2.1875 -1.015625q-0.875 -1.015625 -0.875 -2.953125zm1.359375 0.359375q0 1.0625 0.359375 1.65625q0.46875 0.8125 1.40625 0.8125q0.828125 0 1.5 -0.734375q0.96875 -1.046875 1.453125 -3.0625q0.484375 -2.03125 0.484375 -3.3125q0 -1.234375 -0.46875 -1.78125q-0.46875 -0.546875 -1.25 -0.546875q-0.5625 0 -1.046875 0.296875q-0.484375 0.28125 -0.9375 0.984375q-0.625 1.0 -1.09375 2.96875q-0.40625 1.6875 -0.40625 2.71875zm7.5390625 -0.359375q0 -1.453125 0.421875 -2.953125q0.4375 -1.5 0.96875 -2.390625q0.53125 -0.90625 1.09375 -1.40625q0.578125 -0.515625 1.125 -0.75q0.5625 -0.234375 1.234375 -0.234375q1.3125 0 2.1875 0.984375q0.875 0.96875 0.875 2.8125q0 1.890625 -0.609375 3.75q-0.71875 2.203125 -2.0 3.3125q-0.984375 0.84375 -2.234375 0.84375q-1.296875 0 -2.1875 -1.015625q-0.875 -1.015625 -0.875 -2.953125zm1.359375 0.359375q0 1.0625 0.359375 1.65625q0.46875 0.8125 1.40625 0.8125q0.828125 0 1.5 -0.734375q0.96875 -1.046875 1.453125 -3.0625q0.484375 -2.03125 0.484375 -3.3125q0 -1.234375 -0.46875 -1.78125q-0.46875 -0.546875 -1.25 -0.546875q-0.5625 0 -1.046875 0.296875q-0.484375 0.28125 -0.9375 0.984375q-0.625 1.0 -1.09375 2.96875q-0.40625 1.6875 -0.40625 2.71875zm7.5390625 -0.359375q0 -1.453125 0.421875 -2.953125q0.4375 -1.5 0.96875 -2.390625q0.53125 -0.90625 1.09375 -1.40625q0.578125 -0.515625 1.125 -0.75q0.5625 -0.234375 1.2343712 -0.234375q1.3125 0 2.1875 0.984375q0.875 0.96875 0.875 2.8125q0 1.890625 -0.609375 3.75q-0.71875 2.203125 -2.0 3.3125q-0.9843712 0.84375 -2.2343712 0.84375q-1.296875 0 -2.1875 -1.015625q-0.875 -1.015625 -0.875 -2.953125zm1.359375 0.359375q0 1.0625 0.359375 1.65625q0.46875 0.8125 1.40625 0.8125q0.828125 0 1.4999962 -0.734375q0.96875 -1.046875 1.453125 -3.0625q0.484375 -2.03125 0.484375 -3.3125q0 -1.234375 -0.46875 -1.78125q-0.46875 -0.546875 -1.25 -0.546875q-0.5624962 0 -1.0468712 0.296875q-0.484375 0.28125 -0.9375 0.984375q-0.625 1.0 -1.09375 2.96875q-0.40625 1.6875 -0.40625 2.71875zm10.257809 3.40625l1.8125 -8.65625q-1.171875 0.921875 -3.296875 1.484375l0.265625 -1.28125q1.046875 -0.421875 2.078125 -1.09375q1.03125 -0.6875 1.546875 -1.203125q0.3125 -0.3125 0.59375 -0.75l0.8125 0l-2.390625 11.5l-1.421875 0zm6.1796875 -3.765625q0 -1.453125 0.421875 -2.953125q0.4375 -1.5 0.96875 -2.390625q0.53125 -0.90625 1.09375 -1.40625q0.578125 -0.515625 1.125 -0.75q0.5625 -0.234375 1.234375 -0.234375q1.3125 0 2.1875 0.984375q0.875 0.96875 0.875 2.8125q0 1.890625 -0.609375 3.75q-0.71875 2.203125 -2.0 3.3125q-0.984375 0.84375 -2.234375 0.84375q-1.296875 0 -2.1875 -1.015625q-0.875 -1.015625 -0.875 -2.953125zm1.359375 0.359375q0 1.0625 0.359375 1.65625q0.46875 0.8125 1.40625 0.8125q0.828125 0 1.5 -0.734375q0.96875 -1.046875 1.453125 -3.0625q0.484375 -2.03125 0.484375 -3.3125q0 -1.234375 -0.46875 -1.78125q-0.46875 -0.546875 -1.25 -0.546875q-0.5625 0 -1.046875 0.296875q-0.484375 0.28125 -0.9375 0.984375q-0.625 1.0 -1.09375 2.96875q-0.40625 1.6875 -0.40625 2.71875zm7.3359375 3.40625q0.21875 -1.03125 0.609375 -1.71875q0.390625 -0.6875 1.03125 -1.3125q0.640625 -0.625 2.46875 -2.078125q1.109375 -0.890625 1.515625 -1.3125q0.578125 -0.609375 0.84375 -1.1875q0.1875 -0.40625 0.1875 -0.875q0 -0.78125 -0.5625 -1.328125q-0.5625 -0.5625 -1.375 -0.5625q-0.796875 0 -1.40625 0.5625q-0.59375 0.5625 -0.859375 1.796875l-1.375 -0.203125q0.203125 -1.53125 1.171875 -2.40625q0.984375 -0.875 2.453125 -0.875q0.96875 0 1.765625 0.40625q0.796875 0.40625 1.1875 1.140625q0.40625 0.734375 0.40625 1.515625q0 1.140625 -0.8125 2.1875q-0.5 0.65625 -2.9375 2.59375q-1.046875 0.828125 -1.5625 1.359375q-0.515625 0.53125 -0.765625 1.0l5.125 0l-0.28125 1.296875l-6.828125 0zm12.7421875 0l0.625 -2.921875l-4.671875 0l0.296875 -1.40625l6.40625 -7.125l1.15625 0l-1.515625 7.28125l1.609375 0l-0.265625 1.25l-1.609375 0l-0.609375 2.921875l-1.421875 0zm0.875 -4.171875l1.0 -4.78125l-4.265625 4.78125l3.265625 0z" fill-rule="nonzero"/><path fill="#000000" fill-opacity="0.0" d="m114.53281 8.020997l-0.37795258 229.32283" fill-rule="evenodd"/><path stroke="#000000" stroke-width="3.0" stroke-linejoin="round" stroke-linecap="butt" d="m114.53281 8.020997l-0.37795258 229.32283" fill-rule="evenodd"/><path fill="#000000" fill-opacity="0.0" d="m273.64566 187.85826l74.01575 -0.37794495" fill-rule="evenodd"/><path stroke="#000000" stroke-width="2.0" stroke-linejoin="round" stroke-linecap="butt" d="m281.2256 187.81955l66.43582 -0.3392334" fill-rule="evenodd"/><path fill="#000000" stroke="#000000" stroke-width="2.0" stroke-linecap="butt" d="m274.64566 187.85316c-0.009277344 -1.8170013 1.4561462 -3.2974854 3.2731628 -3.3067627c1.8169861 -0.009277344 3.2974548 1.4561615 3.3067322 3.2731628c0.009307861 1.8169861 -1.4561462 3.29747 -3.2731323 3.3067474c-1.8170166 0.009277344 -3.2974854 -1.4561615 -3.3067627 -3.2731476z" fill-rule="nonzero"/><path fill="#000000" fill-opacity="0.0" d="m347.6614 54.96063l0.3779602 132.37794" fill-rule="evenodd"/><path stroke="#000000" stroke-width="2.0" stroke-linejoin="round" stroke-linecap="butt" d="m347.6614 54.96063l0.3779602 132.37794" fill-rule="evenodd"/><path fill="#000000" fill-opacity="0.0" d="m241.04724 55.33858l106.61417 -0.37795258" fill-rule="evenodd"/><path stroke="#000000" stroke-width="2.0" stroke-linejoin="round" stroke-linecap="butt" d="m253.04716 55.296043l94.61424 -0.3354149" fill-rule="evenodd"/><path fill="#000000" stroke="#000000" stroke-width="2.0" stroke-linecap="butt" d="m253.03546 51.9926l-9.064438 3.335617l9.08786 3.2712708z" fill-rule="evenodd"/><path fill="#000000" fill-opacity="0.0" d="m293.8819 8.020997l-0.3779602 229.32283" fill-rule="evenodd"/><path stroke="#000000" stroke-width="3.0" stroke-linejoin="round" stroke-linecap="butt" d="m293.8819 8.020997l-0.3779602 229.32283" fill-rule="evenodd"/></g></svg>