<svg version="1.1" viewBox="0.0 0.0 388.2729658792651 450.4724409448819" fill="none" stroke="none" stroke-linecap="square" stroke-miterlimit="10" xmlns:xlink="http://www.w3.org/1999/xlink" xmlns="http://www.w3.org/2000/svg"><clipPath id="p.0"><path d="m0 0l388.27298 0l0 450.47244l-388.27298 0l0 -450.47244z" clip-rule="nonzero"/></clipPath><g clip-path="url(#p.0)"><path fill="#000000" fill-opacity="0.0" d="m0 0l388.27298 0l0 450.47244l-388.27298 0z" fill-rule="evenodd"/><path fill="#000000" fill-opacity="0.0" d="m10.362205 7.8293962l185.95276 0l0 132.50394l-185.95276 0z" fill-rule="evenodd"/><path fill="#000000" d="m23.205956 34.749393l-3.6875 -9.890623l1.796875 0l2.890625 7.687498l3.03125 -7.687498l1.671875 0l-3.90625 9.890623l-1.796875 0zm11.546692 0.234375q-1.421875 0 -2.46875 -0.578125q-1.03125 -0.578125 -1.640625 -1.828125q-0.609375 -1.2499981 -0.609375 -2.781248q0 -1.4375 0.546875 -2.671875q0.5625 -1.234375 1.625 -1.859375q1.0625 -0.625 2.546875 -0.625q1.40625 0 2.453125 0.578125q1.046875 0.5625 1.65625 1.8125q0.609375 1.25 0.609375 2.765625q0 1.46875 -0.578125 2.703123q-0.5625 1.234375 -1.609375 1.859375q-1.046875 0.625 -2.53125 0.625zm0 -1.359375q1.328125 0 2.0625 -0.984375q0.75 -0.9999981 0.75 -2.843748q0 -1.828125 -0.75 -2.8125q-0.734375 -1.0 -2.0625 -1.0q-1.328125 0 -2.078125 1.0q-0.734375 0.984375 -0.734375 2.8125q0 1.84375 0.734375 2.843748q0.75 0.984375 2.078125 0.984375zm7.5222473 1.125l0 -9.890623l1.796875 0l0 9.890623l-1.796875 0zm0 -11.687498l0 -1.796875l1.796875 0l0 1.796875l-1.796875 0zm11.736572 11.687498l0 -1.859375q-0.546875 1.046875 -1.375 1.578125q-0.8125 0.515625 -1.921875 0.515625q-1.8125 0 -2.828125 -1.34375q-1.0 -1.34375 -1.0 -3.531248q0 -2.34375 1.125 -3.90625q1.125 -1.5625 3.09375 -1.5625q0.5625 0 1.078125 0.140625q0.53125 0.125 0.9375 0.375q0.40625 0.25 0.890625 0.828125l0 -5.625l1.8125 0l0 14.390623l-1.8125 0zm0 -7.531248q-0.921875 -0.828125 -1.46875 -1.03125q-0.546875 -0.203125 -1.171875 -0.203125q-1.3125 0 -1.953125 1.109375q-0.625 1.09375 -0.625 2.84375q0 1.609375 0.5625 2.546873q0.5625 0.921875 1.734375 0.921875q0.75 0 1.484375 -0.40625q0.734375 -0.421875 1.4375 -1.2343731l0 -4.546875zm11.629471 7.531248l0 -8.546873l-1.390625 0l0 -1.34375l1.390625 0l0 -1.1875q0 -1.21875 0.3125 -1.90625q0.328125 -0.703125 1.03125 -1.15625q0.71875 -0.46875 1.875 -0.46875q0.921875 0 2.0625 0.296875l0 1.421875q-1.21875 -0.375 -1.9375 -0.375q-0.421875 0 -0.765625 0.140625q-0.34375 0.125 -0.5625 0.46875q-0.203125 0.328125 -0.203125 1.390625l0 1.375l2.46875 0l0 1.34375l-2.46875 0l0 8.546873l-1.8125 0zm12.718826 0l0 -1.859375q-0.703125 1.0 -1.609375 1.546875q-0.890625 0.546875 -1.859375 0.546875q-1.25 0 -2.046875 -0.796875q-0.78125 -0.796875 -0.78125 -2.218748l0 -7.109375l1.796875 0l0 6.515625q0 1.0312481 0.171875 1.3593731q0.1875 0.328125 0.515625 0.515625q0.328125 0.171875 0.703125 0.171875q0.65625 0 1.421875 -0.40625q0.78125 -0.40625 1.6875 -1.7499981l0 -6.40625l1.796875 0l0 9.890623l-1.796875 0zm5.390671 0l0 -9.890623l1.796875 0l0 1.859375q0.671875 -1.0 1.578125 -1.53125q0.90625 -0.546875 1.890625 -0.546875q1.25 0 2.03125 0.796875q0.796875 0.796875 0.796875 2.203125l0 7.109373l-1.796875 0l0 -6.515623q0 -1.03125 -0.1875 -1.359375q-0.1875 -0.328125 -0.515625 -0.5q-0.328125 -0.1875 -0.6875 -0.1875q-0.671875 0 -1.453125 0.40625q-0.765625 0.40625 -1.65625 1.75l0 6.406248l-1.796875 0zm18.437546 -0.296875q-1.734375 0.53125 -3.0 0.53125q-1.3125 0 -2.421875 -0.71875q-1.109375 -0.71875 -1.671875 -1.875q-0.546875 -1.1718731 -0.546875 -2.640623q0 -2.1875 1.203125 -3.640625q1.21875 -1.46875 3.75 -1.46875q1.15625 0 2.578125 0.3125l0 1.5q-1.515625 -0.4375 -2.46875 -0.4375q-1.515625 0 -2.28125 1.125q-0.765625 1.125 -0.765625 2.65625q0 1.671875 0.859375 2.703123q0.859375 1.03125 2.234375 1.03125q1.234375 0 2.53125 -0.625l0 1.546875zm6.2902374 1.75l0 1.25q-1.484375 -1.015625 -2.40625 -2.421875q-0.921875 -1.40625 -1.390625 -3.0q-0.46875 -1.5937481 -0.46875 -3.124998q0 -1.53125 0.46875 -3.125q0.46875 -1.59375 1.390625 -3.0q0.921875 -1.40625 2.40625 -2.421875l0 1.25q-1.03125 1.109375 -1.53125 2.171875q-0.484375 1.046875 -0.71875 2.359375q-0.21875 1.3125 -0.21875 2.765625q0 1.453125 0.21875 2.765625q0.234375 1.3124981 0.71875 2.374998q0.5 1.046875 1.53125 2.15625zm1.348175 -14.593748l0 -1.25q1.484375 1.015625 2.40625 2.421875q0.921875 1.40625 1.390625 3.0q0.484375 1.59375 0.484375 3.125q0 1.53125 -0.484375 3.124998q-0.46875 1.59375 -1.390625 3.0q-0.921875 1.40625 -2.40625 2.421875l0 -1.25q1.03125 -1.109375 1.515625 -2.15625q0.5 -1.0625 0.71875 -2.374998q0.234375 -1.328125 0.234375 -2.765625q0 -1.4375 -0.234375 -2.75q-0.21875 -1.328125 -0.71875 -2.375q-0.484375 -1.0625 -1.515625 -2.171875z" fill-rule="nonzero"/><path fill="#000000" d="m19.59658 50.633766l0.4375 0q1.390625 0 1.390625 -1.46875q0 -0.625 -0.140625 -1.28125l-0.171875 -0.796875q-0.171875 -0.765625 -0.171875 -1.53125q0 -0.703125 0.375 -1.34375q0.390625 -0.640625 1.03125 -1.0q0.65625 -0.375 1.859375 -0.453125l0 1.359375l-0.265625 0q-0.484375 0 -0.96875 0.28125q-0.46875 0.28125 -0.46875 0.84375q0 0.203125 0.125 0.859375l0.15625 0.9375q0.09375 0.59375 0.09375 1.421875q0 0.96875 -0.328125 1.609375q-0.3125 0.640625 -1.015625 1.234375q0.703125 0.59375 1.015625 1.234375q0.328125 0.640625 0.328125 1.625q0 0.8125 -0.09375 1.40625l-0.15625 0.9375q-0.125 0.65625 -0.125 0.875q0 0.546875 0.46875 0.828125q0.46875 0.28125 0.96875 0.28125l0.265625 0l0 1.359375q-1.203125 -0.078125 -1.859375 -0.453125q-0.640625 -0.359375 -1.03125 -1.0q-0.375 -0.640625 -0.375 -1.359375q0 -0.75 0.171875 -1.515625l0.171875 -0.796875q0.140625 -0.65625 0.140625 -1.296875q0 -1.453125 -1.390625 -1.453125l-0.4375 0l0 -1.34375z" fill-rule="nonzero"/><path fill="#000000" d="m44.770897 79.54939l0 -9.890625l1.796875 0l0 9.890625l-1.796875 0zm0 -11.6875l0 -1.796875l1.796875 0l0 1.796875l-1.796875 0zm5.3928223 11.6875l0 -9.890625l1.796875 0l0 1.859375q0.671875 -1.0 1.578125 -1.53125q0.90625 -0.546875 1.890625 -0.546875q1.25 0 2.03125 0.796875q0.796875 0.796875 0.796875 2.203125l0 7.109375l-1.796875 0l0 -6.515625q0 -1.03125 -0.1875 -1.359375q-0.1875 -0.328125 -0.515625 -0.5q-0.328125 -0.1875 -0.6875 -0.1875q-0.671875 0 -1.453125 0.40625q-0.765625 0.40625 -1.65625 1.75l0 6.40625l-1.796875 0zm15.984421 0q-0.828125 0.234375 -1.4375 0.234375q-1.328125 0 -2.109375 -0.765625q-0.78125 -0.78125 -0.78125 -2.203125l0 -5.8125l-1.25 0l0 -1.34375l1.25 0l0 -1.796875l1.78125 -0.171875l0 1.96875l2.59375 0l0 1.34375l-2.59375 0l0 5.484375q0 1.046875 0.40625 1.5q0.40625 0.4375 1.28125 0.4375q0.34375 0 0.859375 -0.109375l0 1.234375zm8.474579 0l0 -9.890625l1.796875 0l0 1.859375q0.671875 -1.0 1.578125 -1.53125q0.90625 -0.546875 1.890625 -0.546875q1.25 0 2.03125 0.796875q0.796875 0.796875 0.796875 2.203125l0 7.109375l-1.796875 0l0 -6.515625q0 -1.03125 -0.1875 -1.359375q-0.1875 -0.328125 -0.515625 -0.5q-0.328125 -0.1875 -0.6875 -0.1875q-0.671875 0 -1.453125 0.40625q-0.765625 0.40625 -1.65625 1.75l0 6.40625l-1.796875 0zm16.637375 -3.140625l0 -1.34375l9.890625 0l0 1.34375l-9.890625 0zm0 -3.15625l0 -1.34375l9.890625 0l0 1.34375l-9.890625 0zm21.621628 6.296875l0 -12.140625l-2.125 0l0 -1.125l3.9375 -0.328125l0 13.59375l-1.8125 0zm8.468674 0l0 -1.578125q0.78125 -1.828125 3.171875 -3.984375l1.03125 -0.921875q1.125 -1.015625 1.546875 -1.84375q0.4375 -0.828125 0.4375 -1.71875q0 -1.140625 -0.703125 -1.78125q-0.6875 -0.640625 -1.84375 -0.640625q-0.5 0 -0.96875 0.09375q-0.453125 0.09375 -0.984375 0.3125q-0.515625 0.203125 -1.34375 0.671875l0 -1.578125q1.796875 -0.84375 3.5625 -0.84375q1.9375 0 3.0624924 1.0625q1.125 1.0625 1.125 2.65625q0 1.03125 -0.46875 1.953125q-0.453125 0.921875 -2.2656174 2.46875l-0.6875 0.59375q-0.765625 0.640625 -1.53125 1.5625q-0.765625 0.90625 -0.96875 1.9375l5.8593674 0l0 1.578125l-8.031242 0zm12.140541 -0.09375l0 -1.6875q1.921875 0.765625 3.03125 0.765625q1.28125 0 2.09375 -0.75q0.8125 -0.75 0.8125 -1.9375q0 -1.171875 -0.828125 -2.0q-0.828125 -0.84375 -3.140625 -0.84375l-0.71875 0l0 -1.21875l0.625 0q2.171875 0 2.953125 -0.78125q0.78125 -0.796875 0.78125 -1.859375q0 -0.9375 -0.625 -1.5q-0.609375 -0.5625 -1.84375 -0.5625q-1.328125 0 -2.953125 0.75l0 -1.5625q1.15625 -0.390625 1.796875 -0.453125q0.65625 -0.078125 1.265625 -0.078125q2.140625 0 3.15625 0.859375q1.015625 0.84375 1.015625 2.265625q0 0.78125 -0.296875 1.390625q-0.28125 0.59375 -0.875 1.109375q-0.59375 0.515625 -1.640625 0.875q1.3125 0.3125 1.953125 0.796875q0.640625 0.484375 0.96875 1.21875q0.328125 0.71875 0.328125 1.5625q0 1.578125 -1.078125 2.828125q-1.078125 1.25 -3.625 1.25q-1.25 0 -3.15625 -0.4375zm11.953049 3.015625l0 -0.671875q0.34375 -0.1875 0.5 -0.59375q0.15625 -0.40625 0.15625 -1.453125l0 -0.203125l-0.65625 0l0 -1.796875l1.796875 0l0 1.515625q0 1.171875 -0.203125 1.703125q-0.203125 0.53125 -0.640625 0.953125q-0.4375 0.421875 -0.953125 0.546875zm0 -11.015625l0 -1.796875l1.796875 0l0 1.796875l-1.796875 0z" fill-rule="nonzero"/><path fill="#000000" d="m44.770897 101.949394l0 -9.890625l1.796875 0l0 9.890625l-1.796875 0zm0 -11.6875l0 -1.796875l1.796875 0l0 1.796875l-1.796875 0zm5.3928223 11.6875l0 -9.890625l1.796875 0l0 1.859375q0.671875 -1.0 1.578125 -1.53125q0.90625 -0.546875 1.890625 -0.546875q1.25 0 2.03125 0.796875q0.796875 0.796875 0.796875 2.203125l0 7.109375l-1.796875 0l0 -6.515625q0 -1.03125 -0.1875 -1.359375q-0.1875 -0.328125 -0.515625 -0.5q-0.328125 -0.1875 -0.6875 -0.1875q-0.671875 0 -1.453125 0.40625q-0.765625 0.40625 -1.65625 1.75l0 6.40625l-1.796875 0zm15.984421 0q-0.828125 0.234375 -1.4375 0.234375q-1.328125 0 -2.109375 -0.765625q-0.78125 -0.78125 -0.78125 -2.203125l0 -5.8125l-1.25 0l0 -1.34375l1.25 0l0 -1.796875l1.78125 -0.171875l0 1.96875l2.59375 0l0 1.34375l-2.59375 0l0 5.484375q0 1.046875 0.40625 1.5q0.40625 0.4375 1.28125 0.4375q0.34375 0 0.859375 -0.109375l0 1.234375zm8.474579 0l0 -9.890625l1.796875 0l0 1.859375q0.546875 -0.875 1.390625 -1.46875q0.859375 -0.609375 1.96875 -0.609375q0.65625 0 1.140625 0.21875q0.484375 0.203125 0.875 0.59375q0.390625 0.375 0.703125 1.265625q0.546875 -0.890625 1.375 -1.484375q0.84375 -0.609375 1.9375 -0.609375q1.046875 0 1.890625 0.65625q0.859375 0.65625 0.859375 2.265625l0 7.203125l-1.8125 0l0 -6.921875q0 -0.96875 -0.421875 -1.328125q-0.40625 -0.359375 -0.90625 -0.359375q-0.640625 0 -1.328125 0.40625q-0.6875 0.390625 -1.59375 1.578125l0 6.625l-1.8125 0l0 -6.921875q0 -0.984375 -0.421875 -1.34375q-0.421875 -0.359375 -0.9375 -0.359375q-0.65625 0 -1.3125 0.40625q-0.65625 0.390625 -1.59375 1.59375l0 6.625l-1.796875 0zm22.476562 -3.140625l0 -1.34375l9.890625 0l0 1.34375l-9.890625 0zm0 -3.15625l0 -1.34375l9.890625 0l0 1.34375l-9.890625 0zm23.762253 6.296875l0 -3.8125l-6.0625 0l0 -1.359375l6.0625 -8.3125l1.6875 0l0 8.203125l1.8125 0l0 1.46875l-1.8125 0l0 3.8125l-1.6875 0zm-4.296875 -5.28125l4.421875 0l0 -6.0l-4.421875 6.0zm11.343674 5.328125l0 -1.59375q1.3437424 0.53125 2.5468674 0.53125q1.46875 0 2.15625 -0.859375q0.703125 -0.859375 0.703125 -2.0625q0 -1.390625 -1.015625 -2.21875q-1.015625 -0.828125 -3.171875 -0.828125q-0.484375 0 -0.984375 0.0625l0 -6.5625l6.8125 0l0 1.5625l-5.234375 0l0 3.5625q2.84375 0 4.171875 1.296875q1.328125 1.296875 1.328125 3.203125q0 1.75 -1.203125 2.984375q-1.203125 1.21875 -3.78125 1.21875q-1.03125 0 -2.3281174 -0.296875zm12.734291 -7.03125q0.515625 -0.671875 0.984375 -1.0q0.484375 -0.328125 1.046875 -0.5q0.578125 -0.171875 1.203125 -0.171875q1.15625 0 2.09375 0.546875q0.9375 0.546875 1.421875 1.5q0.5 0.953125 0.5 2.125q0 1.296875 -0.578125 2.4375q-0.5625 1.125 -1.53125 1.765625q-0.953125 0.625 -2.359375 0.625q-2.40625 0 -3.578125 -1.953125q-1.15625 -1.96875 -1.15625 -4.828125q0 -1.890625 0.5625 -3.625q0.5625 -1.75 1.71875 -2.75q1.171875 -1.015625 3.203125 -1.015625q0.640625 0 1.21875 0.078125q0.578125 0.078125 1.8125 0.4375l0 1.5625q-1.90625 -0.734375 -3.140625 -0.734375q-1.796875 0 -2.609375 1.53125q-0.8125 1.515625 -0.8125 3.96875zm5.453125 2.859375q0 -1.609375 -0.75 -2.421875q-0.734375 -0.8125 -1.84375 -0.8125q-0.90625 0 -1.84375 0.671875q-0.9375 0.65625 -0.9375 1.9375q0 1.296875 0.640625 2.515625q0.65625 1.21875 2.203125 1.21875q1.109375 0 1.8125 -0.8125q0.71875 -0.8125 0.71875 -2.296875zm5.1874237 7.046875l0 -0.671875q0.34375 -0.1875 0.5 -0.59375q0.15625 -0.40625 0.15625 -1.453125l0 -0.203125l-0.65625 0l0 -1.796875l1.796875 0l0 1.515625q0 1.171875 -0.203125 1.703125q-0.203125 0.53125 -0.640625 0.953125q-0.4375 0.421875 -0.953125 0.546875zm0 -11.015625l0 -1.796875l1.796875 0l0 1.796875l-1.796875 0z" fill-rule="nonzero"/><path fill="#000000" d="m25.205956 119.17751l-0.453125 0q-1.375 0 -1.375 1.46875q0 0.625 0.140625 1.28125l0.171875 0.796875q0.171875 0.765625 0.171875 1.53125q0 0.703125 -0.390625 1.34375q-0.390625 0.640625 -1.03125 1.0q-0.640625 0.375 -1.84375 0.453125l0 -1.359375l0.265625 0q0.5 0 0.96875 -0.28125q0.46875 -0.28125 0.46875 -0.828125q0 -0.25 -0.125 -0.875l-0.15625 -0.9375q-0.109375 -0.578125 -0.109375 -1.4375q0 -0.9375 0.3125 -1.578125q0.3125 -0.640625 1.03125 -1.25q-0.703125 -0.59375 -1.03125 -1.234375q-0.3125 -0.640625 -0.3125 -1.609375q0 -0.84375 0.109375 -1.421875l0.15625 -0.9375q0.125 -0.625 0.125 -0.875q0 -0.546875 -0.484375 -0.828125q-0.46875 -0.28125 -0.953125 -0.28125l-0.265625 0l0 -1.359375q1.203125 0.078125 1.84375 0.453125q0.640625 0.359375 1.03125 1.0q0.390625 0.640625 0.390625 1.359375q0 0.75 -0.171875 1.515625l-0.171875 0.796875q-0.140625 0.65625 -0.140625 1.296875q0 1.453125 1.375 1.453125l0.453125 0l0 1.34375z" fill-rule="nonzero"/><path fill="#000000" fill-opacity="0.0" d="m196.31496 10.349081l176.25197 0l0 398.64566l-176.25197 0z" fill-rule="evenodd"/><path stroke="#000000" stroke-width="3.0" stroke-linejoin="round" stroke-linecap="butt" d="m196.31496 10.349081l176.25197 0l0 398.64566l-176.25197 0z" fill-rule="evenodd"/><path fill="#b7b7b7" d="m196.31496 294.9475l176.25197 0l0 114.04724l-176.25197 0z" fill-rule="evenodd"/><path stroke="#000000" stroke-width="3.0" stroke-linejoin="round" stroke-linecap="butt" d="m196.31496 294.9475l176.25197 0l0 114.04724l-176.25197 0z" fill-rule="evenodd"/><path fill="#000000" fill-opacity="0.0" d="m196.31496 213.81364l176.25197 0l0 40.56694l-176.25197 0z" fill-rule="evenodd"/><path stroke="#000000" stroke-width="3.0" stroke-linejoin="round" stroke-linecap="butt" d="m196.31496 213.81364l176.25197 0l0 40.56694l-176.25197 0z" fill-rule="evenodd"/><path fill="#000000" d="m273.76138 241.0171l0 -3.8125l-6.0625 0l0 -1.359375l6.0625 -8.3125l1.6875 0l0 8.203125l1.8125 0l0 1.46875l-1.8125 0l0 3.8125l-1.6875 0zm-4.296875 -5.28125l4.421875 0l0 -6.0l-4.421875 6.0zm11.343658 5.328125l0 -1.59375q1.34375 0.53125 2.546875 0.53125q1.46875 0 2.15625 -0.859375q0.703125 -0.859375 0.703125 -2.0625q0 -1.390625 -1.015625 -2.21875q-1.015625 -0.828125 -3.171875 -0.828125q-0.484375 0 -0.984375 0.0625l0 -6.5625l6.8125 0l0 1.5625l-5.234375 0l0 3.5625q2.84375 0 4.171875 1.296875q1.328125 1.296875 1.328125 3.203125q0 1.75 -1.203125 2.984375q-1.203125 1.21875 -3.78125 1.21875q-1.03125 0 -2.328125 -0.296875zm12.734314 -7.03125q0.515625 -0.671875 0.984375 -1.0q0.484375 -0.328125 1.046875 -0.5q0.578125 -0.171875 1.203125 -0.171875q1.15625 0 2.09375 0.546875q0.9375 0.546875 1.421875 1.5q0.5 0.953125 0.5 2.125q0 1.296875 -0.578125 2.4375q-0.5625 1.125 -1.53125 1.765625q-0.953125 0.625 -2.359375 0.625q-2.40625 0 -3.578125 -1.953125q-1.15625 -1.96875 -1.15625 -4.828125q0 -1.890625 0.5625 -3.625q0.5625 -1.75 1.71875 -2.75q1.171875 -1.015625 3.203125 -1.015625q0.640625 0 1.21875 0.078125q0.578125 0.078125 1.8125 0.4375l0 1.5625q-1.90625 -0.734375 -3.140625 -0.734375q-1.796875 0 -2.609375 1.53125q-0.8125 1.515625 -0.8125 3.96875zm5.453125 2.859375q0 -1.609375 -0.75 -2.421875q-0.734375 -0.8125 -1.84375 -0.8125q-0.90625 0 -1.84375 0.671875q-0.9375 0.65625 -0.9375 1.9375q0 1.296875 0.640625 2.515625q0.65625 1.21875 2.203125 1.21875q1.109375 0 1.8125 -0.8125q0.71875 -0.8125 0.71875 -2.296875z" fill-rule="nonzero"/><path fill="#000000" fill-opacity="0.0" d="m196.31496 254.38058l176.25197 0l0 40.566925l-176.25197 0z" fill-rule="evenodd"/><path stroke="#000000" stroke-width="3.0" stroke-linejoin="round" stroke-linecap="butt" d="m196.31496 254.38058l176.25197 0l0 40.566925l-176.25197 0z" fill-rule="evenodd"/><path fill="#000000" d="m271.62076 281.58405l0 -12.140625l-2.125 0l0 -1.125l3.9375 -0.328125l0 13.59375l-1.8125 0zm8.468658 0l0 -1.578125q0.78125 -1.828125 3.171875 -3.984375l1.03125 -0.921875q1.125 -1.015625 1.546875 -1.84375q0.4375 -0.828125 0.4375 -1.71875q0 -1.140625 -0.703125 -1.78125q-0.6875 -0.640625 -1.84375 -0.640625q-0.5 0 -0.96875 0.09375q-0.453125 0.09375 -0.984375 0.3125q-0.515625 0.203125 -1.34375 0.671875l0 -1.578125q1.796875 -0.84375 3.5625 -0.84375q1.9375 0 3.0625 1.0625q1.125 1.0625 1.125 2.65625q0 1.03125 -0.46875 1.953125q-0.453125 0.921875 -2.265625 2.46875l-0.6875 0.59375q-0.765625 0.640625 -1.53125 1.5625q-0.765625 0.90625 -0.96875 1.9375l5.859375 0l0 1.578125l-8.03125 0zm12.140564 -0.09375l0 -1.6875q1.921875 0.765625 3.03125 0.765625q1.28125 0 2.09375 -0.75q0.8125 -0.75 0.8125 -1.9375q0 -1.171875 -0.828125 -2.0q-0.828125 -0.84375 -3.140625 -0.84375l-0.71875 0l0 -1.21875l0.625 0q2.171875 0 2.953125 -0.78125q0.78125 -0.796875 0.78125 -1.859375q0 -0.9375 -0.625 -1.5q-0.609375 -0.5625 -1.84375 -0.5625q-1.328125 0 -2.953125 0.75l0 -1.5625q1.15625 -0.390625 1.796875 -0.453125q0.65625 -0.078125 1.265625 -0.078125q2.140625 0 3.15625 0.859375q1.015625 0.84375 1.015625 2.265625q0 0.78125 -0.296875 1.390625q-0.28125 0.59375 -0.875 1.109375q-0.59375 0.515625 -1.640625 0.875q1.3125 0.3125 1.953125 0.796875q0.640625 0.484375 0.96875 1.21875q0.328125 0.71875 0.328125 1.5625q0 1.578125 -1.078125 2.828125q-1.078125 1.25 -3.625 1.25q-1.25 0 -3.15625 -0.4375z" fill-rule="nonzero"/><path fill="#000000" fill-opacity="0.0" d="m196.31496 408.99475l176.25197 0l0 42.015747l-176.25197 0z" fill-rule="evenodd"/><path fill="#000000" d="m262.424 431.60223l1.75 -0.171875l-0.015625 0.46875q0 0.765625 0.34375 1.421875q0.359375 0.640625 1.171875 1.0q0.828125 0.34375 1.953125 0.34375q1.609375 0 2.453125 -0.703125q0.84375 -0.703125 0.84375 -1.609375q0 -0.625 -0.453125 -1.140625q-0.453125 -0.515625 -2.484375 -1.390625q-1.578125 -0.6875 -2.140625 -1.046875q-0.90625 -0.59375 -1.34375 -1.28125q-0.421875 -0.703125 -0.421875 -1.59375q0 -1.03125 0.5625 -1.859375q0.5625 -0.828125 1.65625 -1.265625q1.09375 -0.4375 2.453125 -0.4375q1.640625 0 2.75 0.546875q1.125 0.546875 1.625 1.453125q0.515625 0.90625 0.515625 1.734375q0 0.09375 -0.015625 0.28125l-1.71875 0.140625q0 -0.578125 -0.109375 -0.890625q-0.171875 -0.5625 -0.5625 -0.9375q-0.375 -0.390625 -1.046875 -0.609375q-0.671875 -0.234375 -1.5 -0.234375q-1.453125 0 -2.265625 0.65625q-0.625 0.5 -0.625 1.328125q0 0.484375 0.25 0.875q0.265625 0.390625 0.921875 0.765625q0.484375 0.265625 2.25 1.046875q1.453125 0.640625 2.0 1.0q0.71875 0.484375 1.109375 1.171875q0.390625 0.6875 0.390625 1.5625q0 1.078125 -0.65625 2.0q-0.65625 0.90625 -1.828125 1.421875q-1.15625 0.5 -2.671875 0.5q-2.265625 0 -3.703125 -0.984375q-1.421875 -1.0 -1.4375 -3.5625zm15.599823 2.96875l-0.265625 1.359375q-0.59375 0.140625 -1.15625 0.140625q-0.984375 0 -1.5625 -0.46875q-0.4375 -0.375 -0.4375 -1.0q0 -0.3125 0.234375 -1.46875l1.171875 -5.625l-1.296875 0l0.265625 -1.265625l1.296875 0l0.5 -2.375l1.890625 -1.140625l-0.734375 3.515625l1.625 0l-0.28125 1.265625l-1.609375 0l-1.125 5.359375q-0.203125 1.015625 -0.203125 1.21875q0 0.28125 0.15625 0.4375q0.171875 0.15625 0.5625 0.15625q0.546875 0 0.96875 -0.109375zm7.855194 0.140625q-0.859375 0.734375 -1.65625 1.078125q-0.78125 0.34375 -1.6875 0.34375q-1.34375 0 -2.171875 -0.78125q-0.8125 -0.796875 -0.8125 -2.03125q0 -0.796875 0.375 -1.421875q0.375 -0.625 0.984375 -1.0q0.609375 -0.390625 1.484375 -0.546875q0.5625 -0.109375 2.109375 -0.171875q1.5625 -0.0625 2.234375 -0.328125q0.1875 -0.671875 0.1875 -1.125q0 -0.578125 -0.421875 -0.90625q-0.5625 -0.453125 -1.671875 -0.453125q-1.03125 0 -1.703125 0.46875q-0.65625 0.453125 -0.953125 1.296875l-1.671875 -0.140625q0.515625 -1.4375 1.609375 -2.203125q1.109375 -0.765625 2.796875 -0.765625q1.796875 0 2.84375 0.859375q0.796875 0.625 0.796875 1.65625q0 0.765625 -0.21875 1.796875l-0.53125 2.40625q-0.265625 1.140625 -0.265625 1.859375q0 0.453125 0.203125 1.3125l-1.671875 0q-0.125 -0.46875 -0.1875 -1.203125zm0.609375 -3.703125q-0.34375 0.140625 -0.75 0.21875q-0.390625 0.0625 -1.3125 0.15625q-1.4375 0.125 -2.03125 0.328125q-0.59375 0.1875 -0.90625 0.625q-0.296875 0.421875 -0.296875 0.9375q0 0.6875 0.484375 1.140625q0.484375 0.4375 1.359375 0.4375q0.828125 0 1.578125 -0.421875q0.75 -0.4375 1.1875 -1.203125q0.4375 -0.78125 0.6875 -2.21875zm9.922577 1.375l1.65625 0.171875q-0.625 1.8125 -1.765625 2.703125q-1.140625 0.875 -2.609375 0.875q-1.578125 0 -2.5625 -1.015625q-0.96875 -1.03125 -0.96875 -2.859375q0 -1.578125 0.625 -3.109375q0.640625 -1.53125 1.796875 -2.328125q1.171875 -0.796875 2.6875 -0.796875q1.546875 0 2.453125 0.875q0.921875 0.875 0.921875 2.328125l-1.625 0.109375q-0.015625 -0.921875 -0.546875 -1.4375q-0.515625 -0.515625 -1.359375 -0.515625q-1.0 0 -1.734375 0.625q-0.71875 0.625 -1.140625 1.90625q-0.40625 1.28125 -0.40625 2.46875q0 1.234375 0.546875 1.859375q0.546875 0.609375 1.34375 0.609375q0.796875 0 1.53125 -0.609375q0.734375 -0.609375 1.15625 -1.859375zm2.671875 3.53125l2.796875 -13.359375l1.640625 0l-1.734375 8.28125l4.8125 -4.59375l2.171875 0l-4.125 3.609375l2.5 6.0625l-1.8125 0l-1.921875 -4.96875l-2.015625 1.734375l-0.671875 3.234375l-1.640625 0z" fill-rule="nonzero"/><path fill="#000000" fill-opacity="0.0" d="m154.83464 213.08923l41.480316 0l0 42.015747l-41.480316 0z" fill-rule="evenodd"/><path fill="#000000" d="m177.53366 240.00923l0 -9.890625l1.796875 0l0 1.859375q0.671875 -1.0 1.578125 -1.53125q0.90625 -0.546875 1.890625 -0.546875q1.25 0 2.03125 0.796875q0.796875 0.796875 0.796875 2.203125l0 7.109375l-1.796875 0l0 -6.515625q0 -1.03125 -0.1875 -1.359375q-0.1875 -0.328125 -0.515625 -0.5q-0.328125 -0.1875 -0.6875 -0.1875q-0.671875 0 -1.453125 0.40625q-0.765625 0.40625 -1.65625 1.75l0 6.40625l-1.796875 0z" fill-rule="nonzero"/><path fill="#000000" fill-opacity="0.0" d="m154.83464 253.65617l41.480316 0l0 42.01573l-41.480316 0z" fill-rule="evenodd"/><path fill="#000000" d="m171.69447 280.57617l0 -9.890625l1.796875 0l0 1.859375q0.546875 -0.875 1.390625 -1.46875q0.859375 -0.609375 1.96875 -0.609375q0.65625 0 1.140625 0.21875q0.484375 0.203125 0.875 0.59375q0.390625 0.375 0.703125 1.265625q0.546875 -0.890625 1.375 -1.484375q0.84375 -0.609375 1.9375 -0.609375q1.046875 0 1.890625 0.65625q0.859375 0.65625 0.859375 2.265625l0 7.203125l-1.8125 0l0 -6.921875q0 -0.96875 -0.421875 -1.328125q-0.40625 -0.359375 -0.90625 -0.359375q-0.640625 0 -1.328125 0.40625q-0.6875 0.390625 -1.59375 1.578125l0 6.625l-1.8125 0l0 -6.921875q0 -0.984375 -0.421875 -1.34375q-0.421875 -0.359375 -0.9375 -0.359375q-0.65625 0 -1.3125 0.40625q-0.65625 0.390625 -1.59375 1.59375l0 6.625l-1.796875 0z" fill-rule="nonzero"/></g></svg>