<svg version="1.1" viewBox="0.0 0.0 875.1653543307086 444.98162729658793" fill="none" stroke="none" stroke-linecap="square" stroke-miterlimit="10" xmlns:xlink="http://www.w3.org/1999/xlink" xmlns="http://www.w3.org/2000/svg"><clipPath id="p.0"><path d="m0 0l875.16534 0l0 444.98163l-875.16534 0l0 -444.98163z" clip-rule="nonzero"/></clipPath><g clip-path="url(#p.0)"><path fill="#000000" fill-opacity="0.0" d="m0 0l875.16534 0l0 444.98163l-875.16534 0z" fill-rule="evenodd"/><path fill="#000000" fill-opacity="0.0" d="m10.661417 35.564304l287.18112 0l0 213.32285l-287.18112 0z" fill-rule="evenodd"/><path fill="#000000" d="m24.723917 60.22118q-1.296875 0 -2.234375 -0.828125q-0.921875 -0.84375 -1.375 -2.265625q-0.4375 -1.421875 -0.4375 -2.984375q0 -1.5625 0.4375 -2.984375q0.453125 -1.421875 1.390625 -2.25q0.9375 -0.84375 2.21875 -0.84375q1.296875 0 2.234375 0.84375q0.9375 0.828125 1.375 2.25q0.4375 1.40625 0.4375 2.984375q0 1.5625 -0.4375 2.96875q-0.4375 1.40625 -1.375 2.265625q-0.921875 0.84375 -2.234375 0.84375zm0 -1.171875q1.265625 0 1.84375 -1.34375q0.578125 -1.359375 0.578125 -3.5625q0 -2.21875 -0.578125 -3.5625q-0.578125 -1.359375 -1.84375 -1.359375q-1.265625 0 -1.84375 1.359375q-0.5625 1.34375 -0.5625 3.5625q0 2.203125 0.5625 3.5625q0.578125 1.34375 1.84375 1.34375zm9.242189 0.875l0 -10.40625l-1.828125 0l0 -0.96875l3.375 -0.296875l0 11.671875l-1.546875 0zm7.6953125 0l0 -1.546875l1.53125 0l0 1.546875l-1.53125 0zm0 -6.9375l0 -1.546875l1.53125 0l0 1.546875l-1.53125 0zm11.65625 6.9375l-3.15625 -8.484375l1.546875 0l2.46875 6.59375l2.59375 -6.59375l1.4375 0l-3.34375 8.484375l-1.546875 0zm9.90625 0.203125q-1.21875 0 -2.109375 -0.5q-0.890625 -0.5 -1.421875 -1.5625q-0.515625 -1.078125 -0.515625 -2.390625q0 -1.234375 0.46875 -2.28125q0.484375 -1.0625 1.390625 -1.59375q0.90625 -0.546875 2.1875 -0.546875q1.2031212 0 2.0937462 0.5q0.90625 0.484375 1.421875 1.5625q0.53125 1.0625 0.53125 2.359375q0 1.25 -0.484375 2.3125q-0.484375 1.0625 -1.390625 1.609375q-0.90625 0.53125 -2.1718712 0.53125zm0 -1.171875q1.1406212 0 1.7656212 -0.84375q0.640625 -0.859375 0.640625 -2.4375q0 -1.578125 -0.640625 -2.421875q-0.625 -0.84375 -1.7656212 -0.84375q-1.140625 0 -1.78125 0.84375q-0.625 0.84375 -0.625 2.421875q0 1.578125 0.625 2.4375q0.640625 0.84375 1.78125 0.84375zm6.453121 0.96875l0 -8.484375l1.53125 0l0 8.484375l-1.53125 0zm0 -10.03125l0 -1.53125l1.53125 0l0 1.53125l-1.53125 0zm10.0625 10.03125l0 -1.59375q-0.46875 0.890625 -1.171875 1.34375q-0.703125 0.453125 -1.65625 0.453125q-1.5625 0 -2.421875 -1.15625q-0.859375 -1.15625 -0.859375 -3.03125q0 -2.015625 0.96875 -3.34375q0.96875 -1.34375 2.640625 -1.34375q0.5 0 0.9375 0.125q0.453125 0.109375 0.796875 0.328125q0.34375 0.203125 0.765625 0.703125l0 -4.828125l1.546875 0l0 12.34375l-1.546875 0zm0 -6.46875q-0.796875 -0.703125 -1.265625 -0.875q-0.453125 -0.171875 -1.0 -0.171875q-1.125 0 -1.671875 0.953125q-0.53125 0.9375 -0.53125 2.421875q0 1.390625 0.46875 2.1875q0.484375 0.796875 1.5 0.796875q0.640625 0 1.265625 -0.34375q0.625 -0.359375 1.234375 -1.0625l0 -3.90625zm9.9765625 6.46875l0 -7.328125l-1.203125 0l0 -1.15625l1.203125 0l0 -1.015625q0 -1.046875 0.265625 -1.640625q0.28125 -0.609375 0.890625 -1.0q0.609375 -0.390625 1.609375 -0.390625q0.78125 0 1.765625 0.25l0 1.21875q-1.046875 -0.3125 -1.671875 -0.3125q-0.359375 0 -0.65625 0.109375q-0.296875 0.109375 -0.484375 0.40625q-0.171875 0.28125 -0.171875 1.1875l0 1.1875l2.125 0l0 1.15625l-2.125 0l0 7.328125l-1.546875 0zm10.8984375 0l0 -1.59375q-0.59375 0.859375 -1.375 1.328125q-0.765625 0.46875 -1.59375 0.46875q-1.078125 0 -1.75 -0.6875q-0.671875 -0.6875 -0.671875 -1.90625l0 -6.09375l1.53125 0l0 5.59375q0 0.875 0.15625 1.15625q0.15625 0.28125 0.4375 0.4375q0.28125 0.15625 0.609375 0.15625q0.5625 0 1.21875 -0.34375q0.671875 -0.359375 1.4375 -1.5l0 -5.5l1.546875 0l0 8.484375l-1.546875 0zm4.6328125 0l0 -8.484375l1.53125 0l0 1.59375q0.59375 -0.859375 1.359375 -1.3125q0.78125 -0.46875 1.625 -0.46875q1.078125 0 1.75 0.6875q0.671875 0.671875 0.671875 1.890625l0 6.09375l-1.546875 0l0 -5.59375q0 -0.890625 -0.15625 -1.171875q-0.15625 -0.28125 -0.4375 -0.421875q-0.28125 -0.15625 -0.59375 -0.15625q-0.578125 0 -1.234375 0.359375q-0.65625 0.34375 -1.4375 1.484375l0 5.5l-1.53125 0zm15.8203125 -0.265625q-1.5 0.46875 -2.578125 0.46875q-1.140625 0 -2.09375 -0.609375q-0.9375 -0.625 -1.421875 -1.625q-0.46875 -1.0 -0.46875 -2.265625q0 -1.875 1.03125 -3.125q1.046875 -1.25 3.21875 -1.25q1.0 0 2.21875 0.265625l0 1.296875q-1.3125 -0.390625 -2.125 -0.390625q-1.296875 0 -1.953125 0.96875q-0.65625 0.96875 -0.65625 2.28125q0 1.4375 0.734375 2.328125q0.734375 0.875 1.921875 0.875q1.046875 0 2.171875 -0.546875l0 1.328125zm5.3828125 1.515625l0 1.0625q-1.265625 -0.859375 -2.0625 -2.078125q-0.78125 -1.203125 -1.1875 -2.5625q-0.40625 -1.375 -0.40625 -2.6875q0 -1.3125 0.40625 -2.671875q0.40625 -1.375 1.1875 -2.578125q0.796875 -1.203125 2.0625 -2.078125l0 1.0625q-0.875 0.953125 -1.296875 1.859375q-0.421875 0.90625 -0.625 2.03125q-0.203125 1.125 -0.203125 2.375q0 1.25 0.203125 2.375q0.203125 1.125 0.625 2.03125q0.421875 0.90625 1.296875 1.859375zm1.15625 -12.53125l0 -1.0625q1.2812576 0.875 2.0625076 2.078125q0.796875 1.203125 1.203125 2.578125q0.40625 1.359375 0.40625 2.671875q0 1.3125 -0.40625 2.6875q-0.40625 1.359375 -1.203125 2.5625q-0.78125 1.21875 -2.0625076 2.078125l0 -1.0625q0.8906326 -0.953125 1.3125076 -1.859375q0.421875 -0.90625 0.609375 -2.03125q0.203125 -1.140625 0.203125 -2.375q0 -1.234375 -0.203125 -2.359375q-0.1875 -1.140625 -0.609375 -2.046875q-0.421875 -0.90625 -1.3125076 -1.859375z" fill-rule="nonzero"/><path fill="#000000" d="m24.723917 79.42118q-1.296875 0 -2.234375 -0.828125q-0.921875 -0.84375 -1.375 -2.265625q-0.4375 -1.421875 -0.4375 -2.984375q0 -1.5625 0.4375 -2.984375q0.453125 -1.421875 1.390625 -2.25q0.9375 -0.84375 2.21875 -0.84375q1.296875 0 2.234375 0.84375q0.9375 0.828125 1.375 2.25q0.4375 1.40625 0.4375 2.984375q0 1.5625 -0.4375 2.96875q-0.4375 1.40625 -1.375 2.265625q-0.921875 0.84375 -2.234375 0.84375zm0 -1.171875q1.265625 0 1.84375 -1.34375q0.578125 -1.359375 0.578125 -3.5625q0 -2.21875 -0.578125 -3.5625q-0.578125 -1.359375 -1.84375 -1.359375q-1.265625 0 -1.84375 1.359375q-0.5625 1.34375 -0.5625 3.5625q0 2.203125 0.5625 3.5625q0.578125 1.34375 1.84375 1.34375zm6.3828125 0.875l0 -1.359375q0.671875 -1.5625 2.718752 -3.421875l0.890625 -0.78125q0.953125 -0.875 1.328125 -1.578125q0.375 -0.71875 0.375 -1.484375q0 -0.96875 -0.59375 -1.515625q-0.59375 -0.5625 -1.59375 -0.5625q-0.4375 0 -0.828125 0.09375q-0.390625 0.078125 -0.84375 0.265625q-0.453125 0.171875 -1.1562519 0.578125l0 -1.359375q1.5312519 -0.734375 3.062502 -0.734375q1.65625 0 2.609375 0.921875q0.96875 0.90625 0.96875 2.28125q0 0.890625 -0.390625 1.6875q-0.390625 0.78125 -1.953125 2.109375l-0.59375 0.5q-0.640625 0.546875 -1.296875 1.34375q-0.65625 0.78125 -0.84375 1.65625l5.03125 0l0 1.359375l-6.890627 0zm10.554689 0l0 -1.546875l1.53125 0l0 1.546875l-1.53125 0zm0 -6.9375l0 -1.546875l1.53125 0l0 1.546875l-1.53125 0zm8.5625 1.34375l0.375 0q1.203125 0 1.203125 -1.265625q0 -0.53125 -0.125 -1.09375l-0.15625 -0.671875q-0.140625 -0.671875 -0.140625 -1.3125q0 -0.609375 0.328125 -1.15625q0.328125 -0.5625 0.875 -0.875q0.5625 -0.3125 1.59375 -0.375l0 1.15625l-0.21875 0q-0.421875 0 -0.828125 0.25q-0.40625 0.234375 -0.40625 0.71875q0 0.1875 0.09375 0.75l0.140625 0.796875q0.078125 0.5 0.078125 1.21875q0 0.828125 -0.28125 1.390625q-0.265625 0.546875 -0.859375 1.046875q0.59375 0.5 0.859375 1.0625q0.28125 0.546875 0.28125 1.390625q0 0.703125 -0.078125 1.203125l-0.140625 0.796875q-0.09375 0.578125 -0.09375 0.765625q0 0.46875 0.390625 0.703125q0.40625 0.25 0.84375 0.25l0.21875 0l0 1.15625q-1.03125 -0.0625 -1.59375 -0.375q-0.546875 -0.3125 -0.875 -0.859375q-0.328125 -0.546875 -0.328125 -1.171875q0 -0.640625 0.140625 -1.3125l0.15625 -0.671875q0.125 -0.5625 0.125 -1.109375q0 -1.25 -1.203125 -1.25l-0.375 0l0 -1.15625z" fill-rule="nonzero"/><path fill="#000000" d="m24.723917 98.621185q-1.296875 0 -2.234375 -0.828125q-0.921875 -0.84375 -1.375 -2.265625q-0.4375 -1.421875 -0.4375 -2.984375q0 -1.5625 0.4375 -2.984375q0.453125 -1.421875 1.390625 -2.25q0.9375 -0.84375 2.21875 -0.84375q1.296875 0 2.234375 0.84375q0.9375 0.828125 1.375 2.25q0.4375 1.40625 0.4375 2.984375q0 1.5625 -0.4375 2.96875q-0.4375 1.40625 -1.375 2.265625q-0.921875 0.84375 -2.234375 0.84375zm0 -1.171875q1.265625 0 1.84375 -1.34375q0.578125 -1.359375 0.578125 -3.5625q0 -2.21875 -0.578125 -3.5625q-0.578125 -1.359375 -1.84375 -1.359375q-1.265625 0 -1.84375 1.359375q-0.5625 1.34375 -0.5625 3.5625q0 2.203125 0.5625 3.5625q0.578125 1.34375 1.84375 1.34375zm6.6796875 0.78125l0 -1.4375q1.6562519 0.65625 2.593752 0.65625q1.109375 0 1.796875 -0.640625q0.703125 -0.640625 0.703125 -1.671875q0 -1.0 -0.71875 -1.71875q-0.703125 -0.71875 -2.6875 -0.71875l-0.609375 0l0 -1.03125l0.53125 -0.015625q1.859375 0 2.53125 -0.671875q0.671875 -0.671875 0.671875 -1.578125q0 -0.8125 -0.53125 -1.296875q-0.53125 -0.484375 -1.59375 -0.484375q-1.140625 0 -2.531252 0.65625l0 -1.34375q1.0000019 -0.34375 1.5468769 -0.40625q0.5625 -0.0625 1.09375 -0.0625q1.828125 0 2.6875 0.734375q0.875 0.734375 0.875 1.953125q0 0.671875 -0.25 1.1875q-0.25 0.515625 -0.765625 0.953125q-0.5 0.4375 -1.390625 0.765625q1.125 0.265625 1.671875 0.6875q0.5625 0.40625 0.84375 1.03125q0.28125 0.625 0.28125 1.34375q0 1.359375 -0.9375 2.4375q-0.921875 1.0625 -3.109375 1.0625q-1.078125 0 -2.703127 -0.390625zm10.257814 0.09375l0 -1.546875l1.53125 0l0 1.546875l-1.53125 0zm0 -6.9375l0 -1.546875l1.53125 0l0 1.546875l-1.53125 0zm30.156246 6.9375l0 -8.484375l1.53125 0l0 8.484375l-1.53125 0zm0 -10.03125l0 -1.53125l1.53125 0l0 1.53125l-1.53125 0zm4.625 10.03125l0 -8.484375l1.53125 0l0 1.59375q0.59375 -0.859375 1.359375 -1.3125q0.78125 -0.46875 1.625 -0.46875q1.078125 0 1.75 0.6875q0.671875 0.671875 0.671875 1.890625l0 6.09375l-1.546875 0l0 -5.59375q0 -0.890625 -0.15625 -1.171875q-0.15625 -0.28125 -0.4375 -0.421875q-0.28125 -0.15625 -0.59375 -0.15625q-0.578125 0 -1.234375 0.359375q-0.65625 0.34375 -1.4375 1.484375l0 5.5l-1.53125 0zm13.7109375 0q-0.71875 0.203125 -1.234375 0.203125q-1.140625 0 -1.8125 -0.65625q-0.671875 -0.671875 -0.671875 -1.890625l0 -4.984375l-1.0625 0l0 -1.15625l1.0625 0l0 -1.546875l1.53125 -0.140625l0 1.6875l2.21875 0l0 1.15625l-2.21875 0l0 4.703125q0 0.890625 0.34375 1.28125q0.34375 0.375 1.09375 0.375q0.3125 0 0.75 -0.09375l0 1.0625zm7.15625 -10.078125l0.359375 1.109375l-2.375 0.515625l0.03125 -0.125q0 -0.3125 -0.234375 -0.515625l2.21875 -0.984375zm-0.421875 3.53125l-0.9375 0.671875l-1.234375 -2.078125q0.15625 -0.015625 0.3125 -0.125q0.171875 -0.125 0.234375 -0.28125l1.625 1.8125zm-3.484375 0.671875l-0.9375 -0.671875l1.609375 -1.8125q0.0625 0.171875 0.21875 0.28125q0.171875 0.109375 0.328125 0.125l-1.21875 2.078125zm-1.734375 -3.09375l0.359375 -1.109375l2.21875 0.984375q-0.21875 0.1875 -0.21875 0.515625l0.015625 0.125l-2.375 -0.515625zm2.421875 -2.59375l1.15625 0l-0.234375 2.40625q-0.140625 -0.09375 -0.34375 -0.09375q-0.1875 0 -0.328125 0.09375l-0.25 -2.40625zm11.0390625 11.5625l0 -8.484375l1.53125 0l0 8.484375l-1.53125 0zm0 -10.03125l0 -1.53125l1.53125 0l0 1.53125l-1.53125 0zm4.625 13.125l0 -11.578125l1.53125 0l0 1.59375q0.484375 -0.890625 1.1875 -1.328125q0.703125 -0.453125 1.65625 -0.453125q1.5625 0 2.421875 1.15625q0.859375 1.15625 0.859375 3.015625q0 1.203125 -0.40625 2.296875q-0.390625 1.09375 -1.234375 1.75q-0.828125 0.65625 -1.890625 0.65625q-0.421875 0 -1.125 -0.140625q-0.6875 -0.125 -1.46875 -1.03125l0 4.0625l-1.53125 0zm1.53125 -5.125q0.796875 0.703125 1.265625 0.890625q0.46875 0.171875 1.0 0.171875q1.140625 0 1.671875 -0.953125q0.546875 -0.953125 0.546875 -2.421875q0 -1.375 -0.484375 -2.171875q-0.46875 -0.8125 -1.484375 -0.8125q-0.640625 0 -1.265625 0.34375q-0.625 0.34375 -1.25 1.046875l0 3.90625zm11.1796875 2.03125l0 -10.40625l-1.828125 0l0 -0.96875l3.375 -0.296875l0 11.671875l-1.546875 0zm11.82032 -2.703125l0 -1.15625l8.484375 0l0 1.15625l-8.484375 0zm0 -2.703125l0 -1.15625l8.484375 0l0 1.15625l-8.484375 0zm15.8984375 5.40625l0 -8.484375l1.53125 0l0 1.59375q0.59375 -0.859375 1.359375 -1.3125q0.78125 -0.46875 1.625 -0.46875q1.078125 0 1.75 0.6875q0.671875 0.671875 0.671875 1.890625l0 6.09375l-1.546875 0l0 -5.59375q0 -0.890625 -0.15625 -1.171875q-0.15625 -0.28125 -0.4375 -0.421875q-0.28125 -0.15625 -0.59375 -0.15625q-0.578125 0 -1.234375 0.359375q-0.65625 0.34375 -1.4375 1.484375l0 5.5l-1.53125 0zm16.148438 -0.28125q-1.546875 0.484375 -2.65625 0.484375q-1.96875 0 -3.109375 -1.328125q-1.125 -1.34375 -1.125 -3.15625q0 -1.203125 0.5 -2.28125q0.5 -1.078125 1.296875 -1.59375q0.8125 -0.53125 1.90625 -0.53125q1.46875 0 2.34375 1.0625q0.875 1.046875 0.875 3.15625l0 0.46875l-5.359375 0q0.125 1.125 0.484375 1.734375q0.359375 0.609375 0.953125 0.953125q0.609375 0.328125 1.53125 0.328125q0.46875 0 0.921875 -0.078125q0.46875 -0.078125 1.4375 -0.4375l0 1.21875zm-5.25 -4.875l3.734375 0q0 -1.28125 -0.5 -1.828125q-0.484375 -0.546875 -1.265625 -0.546875q-0.875 0 -1.375 0.59375q-0.5 0.59375 -0.59375 1.78125zm8.9296875 5.15625l-2.4375 -8.484375l1.515625 0l1.859375 6.5625l2.0 -6.5625l1.546875 0l1.75 6.5625l2.140625 -6.5625l1.3125 0l-2.765625 8.484375l-1.546875 0l-1.796875 -6.578125l-2.03125 6.578125l-1.546875 0zm16.40625 0l0 -8.484375l1.53125 0l0 8.484375l-1.53125 0zm0 -10.03125l0 -1.53125l1.53125 0l0 1.53125l-1.53125 0zm4.625 10.03125l0 -8.484375l1.53125 0l0 1.59375q0.59375 -0.859375 1.359375 -1.3125q0.78125 -0.46875 1.625 -0.46875q1.078125 0 1.75 0.6875q0.671875 0.671875 0.671875 1.890625l0 6.09375l-1.546875 0l0 -5.59375q0 -0.890625 -0.15625 -1.171875q-0.15625 -0.28125 -0.4375 -0.421875q-0.28125 -0.15625 -0.59375 -0.15625q-0.578125 0 -1.234375 0.359375q-0.65625 0.34375 -1.4375 1.484375l0 5.5l-1.53125 0zm13.7109375 0q-0.71875 0.203125 -1.234375 0.203125q-1.140625 0 -1.8125 -0.65625q-0.671875 -0.671875 -0.671875 -1.890625l0 -4.984375l-1.0625 0l0 -1.15625l1.0625 0l0 -1.546875l1.53125 -0.140625l0 1.6875l2.21875 0l0 1.15625l-2.21875 0l0 4.703125q0 0.890625 0.34375 1.28125q0.34375 0.375 1.09375 0.375q0.3125 0 0.75 -0.09375l0 1.0625zm10.34375 1.25l0 1.0625q-1.265625 -0.859375 -2.0625 -2.078125q-0.78125 -1.203125 -1.1875 -2.5625q-0.40625 -1.375 -0.40625 -2.6875q0 -1.3125 0.40625 -2.671875q0.40625 -1.375 1.1875 -2.578125q0.796875 -1.203125 2.0625 -2.078125l0 1.0625q-0.875 0.953125 -1.296875 1.859375q-0.421875 0.90625 -0.625 2.03125q-0.203125 1.125 -0.203125 2.375q0 1.25 0.203125 2.375q0.203125 1.125 0.625 2.03125q0.421875 0.90625 1.296875 1.859375zm4.765625 -1.25l0 -10.40625l-1.828125 0l0 -0.96875l3.375 -0.296875l0 11.671875l-1.546875 0zm7.2578125 0l0 -1.359375q0.671875 -1.5625 2.71875 -3.421875l0.890625 -0.78125q0.953125 -0.875 1.328125 -1.578125q0.375 -0.71875 0.375 -1.484375q0 -0.96875 -0.59375 -1.515625q-0.59375 -0.5625 -1.59375 -0.5625q-0.4375 0 -0.828125 0.09375q-0.390625 0.078125 -0.84375 0.265625q-0.453125 0.171875 -1.15625 0.578125l0 -1.359375q1.53125 -0.734375 3.0625 -0.734375q1.65625 0 2.609375 0.921875q0.96875 0.90625 0.96875 2.28125q0 0.890625 -0.390625 1.6875q-0.390625 0.78125 -1.953125 2.109375l-0.59375 0.5q-0.640625 0.546875 -1.296875 1.34375q-0.65625 0.78125 -0.84375 1.65625l5.03125 0l0 1.359375l-6.890625 0zm10.4140625 -0.09375l0 -1.4375q1.65625 0.65625 2.59375 0.65625q1.109375 0 1.796875 -0.640625q0.703125 -0.640625 0.703125 -1.671875q0 -1.0 -0.71875 -1.71875q-0.703125 -0.71875 -2.6875 -0.71875l-0.609375 0l0 -1.03125l0.53125 -0.015625q1.859375 0 2.53125 -0.671875q0.671875 -0.671875 0.671875 -1.578125q0 -0.8125 -0.53125 -1.296875q-0.53125 -0.484375 -1.59375 -0.484375q-1.140625 0 -2.53125 0.65625l0 -1.34375q1.0 -0.34375 1.546875 -0.40625q0.5625 -0.0625 1.09375 -0.0625q1.828125 0 2.6875 0.734375q0.875 0.734375 0.875 1.953125q0 0.671875 -0.25 1.1875q-0.25 0.515625 -0.765625 0.953125q-0.5 0.4375 -1.390625 0.765625q1.125 0.265625 1.671875 0.6875q0.5625 0.40625 0.84375 1.03125q0.28125 0.625 0.28125 1.34375q0 1.359375 -0.9375 2.4375q-0.921875 1.0625 -3.109375 1.0625q-1.078125 0 -2.703125 -0.390625zm9.0703125 -11.1875l0 -1.0625q1.28125 0.875 2.0625 2.078125q0.796875 1.203125 1.203125 2.578125q0.40625 1.359375 0.40625 2.671875q0 1.3125 -0.40625 2.6875q-0.40625 1.359375 -1.203125 2.5625q-0.78125 1.21875 -2.0625 2.078125l0 -1.0625q0.890625 -0.953125 1.3125 -1.859375q0.421875 -0.90625 0.609375 -2.03125q0.203125 -1.140625 0.203125 -2.375q0 -1.234375 -0.203125 -2.359375q-0.1875 -1.140625 -0.609375 -2.046875q-0.421875 -0.90625 -1.3125 -1.859375zm6.390625 13.796875l0 -0.578125q0.296875 -0.15625 0.421875 -0.515625q0.125 -0.34375 0.125 -1.234375l0 -0.1875l-0.546875 0l0 -1.546875l1.53125 0l0 1.296875q0 1.015625 -0.171875 1.46875q-0.171875 0.453125 -0.546875 0.8125q-0.375 0.375 -0.8125 0.484375zm0 -9.453125l0 -1.546875l1.53125 0l0 1.546875l-1.53125 0z" fill-rule="nonzero"/><path fill="#000000" d="m24.723917 117.82118q-1.296875 0 -2.234375 -0.828125q-0.921875 -0.84375 -1.375 -2.265625q-0.4375 -1.421875 -0.4375 -2.984375q0 -1.5625 0.4375 -2.984375q0.453125 -1.421875 1.390625 -2.25q0.9375 -0.84375 2.21875 -0.84375q1.296875 0 2.234375 0.84375q0.9375 0.828125 1.375 2.25q0.4375 1.40625 0.4375 2.984375q0 1.5625 -0.4375 2.96875q-0.4375 1.40625 -1.375 2.265625q-0.921875 0.84375 -2.234375 0.84375zm0 -1.171875q1.265625 0 1.84375 -1.34375q0.578125 -1.359375 0.578125 -3.5625q0 -2.21875 -0.578125 -3.5625q-0.578125 -1.359375 -1.84375 -1.359375q-1.265625 0 -1.84375 1.359375q-0.5625 1.34375 -0.5625 3.5625q0 2.203125 0.5625 3.5625q0.578125 1.34375 1.84375 1.34375zm11.085939 0.875l0 -3.28125l-5.203127 0l0 -1.15625l5.203127 -7.125l1.4375 0l0 7.03125l1.546875 0l0 1.25l-1.546875 0l0 3.28125l-1.4375 0zm-3.703125 -4.53125l3.796875 0l0 -5.140625l-3.796875 5.140625zm9.5546875 4.53125l0 -1.546875l1.53125 0l0 1.546875l-1.53125 0zm0 -6.9375l0 -1.546875l1.53125 0l0 1.546875l-1.53125 0zm30.156246 6.9375l0 -8.484375l1.53125 0l0 8.484375l-1.53125 0zm0 -10.03125l0 -1.53125l1.53125 0l0 1.53125l-1.53125 0zm4.625 10.03125l0 -8.484375l1.53125 0l0 1.59375q0.59375 -0.859375 1.359375 -1.3125q0.78125 -0.46875 1.625 -0.46875q1.078125 0 1.75 0.6875q0.671875 0.671875 0.671875 1.890625l0 6.09375l-1.546875 0l0 -5.59375q0 -0.890625 -0.15625 -1.171875q-0.15625 -0.28125 -0.4375 -0.421875q-0.28125 -0.15625 -0.59375 -0.15625q-0.578125 0 -1.234375 0.359375q-0.65625 0.34375 -1.4375 1.484375l0 5.5l-1.53125 0zm13.7109375 0q-0.71875 0.203125 -1.234375 0.203125q-1.140625 0 -1.8125 -0.65625q-0.671875 -0.671875 -0.671875 -1.890625l0 -4.984375l-1.0625 0l0 -1.15625l1.0625 0l0 -1.546875l1.53125 -0.140625l0 1.6875l2.21875 0l0 1.15625l-2.21875 0l0 4.703125q0 0.890625 0.34375 1.28125q0.34375 0.375 1.09375 0.375q0.3125 0 0.75 -0.09375l0 1.0625zm7.15625 -10.078125l0.359375 1.109375l-2.375 0.515625l0.03125 -0.125q0 -0.3125 -0.234375 -0.515625l2.21875 -0.984375zm-0.421875 3.53125l-0.9375 0.671875l-1.234375 -2.078125q0.15625 -0.015625 0.3125 -0.125q0.171875 -0.125 0.234375 -0.28125l1.625 1.8125zm-3.484375 0.671875l-0.9375 -0.671875l1.609375 -1.8125q0.0625 0.171875 0.21875 0.28125q0.171875 0.109375 0.328125 0.125l-1.21875 2.078125zm-1.734375 -3.09375l0.359375 -1.109375l2.21875 0.984375q-0.21875 0.1875 -0.21875 0.515625l0.015625 0.125l-2.375 -0.515625zm2.421875 -2.59375l1.15625 0l-0.234375 2.40625q-0.140625 -0.09375 -0.34375 -0.09375q-0.1875 0 -0.328125 0.09375l-0.25 -2.40625zm11.0390625 11.5625l0 -8.484375l1.53125 0l0 8.484375l-1.53125 0zm0 -10.03125l0 -1.53125l1.53125 0l0 1.53125l-1.53125 0zm4.625 13.125l0 -11.578125l1.53125 0l0 1.59375q0.484375 -0.890625 1.1875 -1.328125q0.703125 -0.453125 1.65625 -0.453125q1.5625 0 2.421875 1.15625q0.859375 1.15625 0.859375 3.015625q0 1.203125 -0.40625 2.296875q-0.390625 1.09375 -1.234375 1.75q-0.828125 0.65625 -1.890625 0.65625q-0.421875 0 -1.125 -0.140625q-0.6875 -0.125 -1.46875 -1.03125l0 4.0625l-1.53125 0zm1.53125 -5.125q0.796875 0.703125 1.265625 0.890625q0.46875 0.171875 1.0 0.171875q1.140625 0 1.671875 -0.953125q0.546875 -0.953125 0.546875 -2.421875q0 -1.375 -0.484375 -2.171875q-0.46875 -0.8125 -1.484375 -0.8125q-0.640625 0 -1.265625 0.34375q-0.625 0.34375 -1.25 1.046875l0 3.90625zm8.3203125 2.03125l0 -1.359375q0.671875 -1.5625 2.71875 -3.421875l0.890625 -0.78125q0.953125 -0.875 1.328125 -1.578125q0.375 -0.71875 0.375 -1.484375q0 -0.96875 -0.59375 -1.515625q-0.59375 -0.5625 -1.59375 -0.5625q-0.4375 0 -0.828125 0.09375q-0.390625 0.078125 -0.84375 0.265625q-0.453125 0.171875 -1.15625 0.578125l0 -1.359375q1.53125 -0.734375 3.0625 -0.734375q1.65625 0 2.609375 0.921875q0.96875 0.90625 0.96875 2.28125q0 0.890625 -0.390625 1.6875q-0.390625 0.78125 -1.953125 2.109375l-0.59375 0.5q-0.640625 0.546875 -1.296875 1.34375q-0.65625 0.78125 -0.84375 1.65625l5.03125 0l0 1.359375l-6.890625 0zm14.679695 -2.703125l0 -1.15625l8.484375 0l0 1.15625l-8.484375 0zm0 -2.703125l0 -1.15625l8.484375 0l0 1.15625l-8.484375 0zm15.8984375 5.40625l0 -8.484375l1.53125 0l0 1.59375q0.59375 -0.859375 1.359375 -1.3125q0.78125 -0.46875 1.625 -0.46875q1.078125 0 1.75 0.6875q0.671875 0.671875 0.671875 1.890625l0 6.09375l-1.546875 0l0 -5.59375q0 -0.890625 -0.15625 -1.171875q-0.15625 -0.28125 -0.4375 -0.421875q-0.28125 -0.15625 -0.59375 -0.15625q-0.578125 0 -1.234375 0.359375q-0.65625 0.34375 -1.4375 1.484375l0 5.5l-1.53125 0zm16.148438 -0.28125q-1.546875 0.484375 -2.65625 0.484375q-1.96875 0 -3.109375 -1.328125q-1.125 -1.34375 -1.125 -3.15625q0 -1.203125 0.5 -2.28125q0.5 -1.078125 1.296875 -1.59375q0.8125 -0.53125 1.90625 -0.53125q1.46875 0 2.34375 1.0625q0.875 1.046875 0.875 3.15625l0 0.46875l-5.359375 0q0.125 1.125 0.484375 1.734375q0.359375 0.609375 0.953125 0.953125q0.609375 0.328125 1.53125 0.328125q0.46875 0 0.921875 -0.078125q0.46875 -0.078125 1.4375 -0.4375l0 1.21875zm-5.25 -4.875l3.734375 0q0 -1.28125 -0.5 -1.828125q-0.484375 -0.546875 -1.265625 -0.546875q-0.875 0 -1.375 0.59375q-0.5 0.59375 -0.59375 1.78125zm8.9296875 5.15625l-2.4375 -8.484375l1.515625 0l1.859375 6.5625l2.0 -6.5625l1.546875 0l1.75 6.5625l2.140625 -6.5625l1.3125 0l-2.765625 8.484375l-1.546875 0l-1.796875 -6.578125l-2.03125 6.578125l-1.546875 0zm16.40625 0l0 -8.484375l1.53125 0l0 8.484375l-1.53125 0zm0 -10.03125l0 -1.53125l1.53125 0l0 1.53125l-1.53125 0zm4.625 10.03125l0 -8.484375l1.53125 0l0 1.59375q0.59375 -0.859375 1.359375 -1.3125q0.78125 -0.46875 1.625 -0.46875q1.078125 0 1.75 0.6875q0.671875 0.671875 0.671875 1.890625l0 6.09375l-1.546875 0l0 -5.59375q0 -0.890625 -0.15625 -1.171875q-0.15625 -0.28125 -0.4375 -0.421875q-0.28125 -0.15625 -0.59375 -0.15625q-0.578125 0 -1.234375 0.359375q-0.65625 0.34375 -1.4375 1.484375l0 5.5l-1.53125 0zm13.7109375 0q-0.71875 0.203125 -1.234375 0.203125q-1.140625 0 -1.8125 -0.65625q-0.671875 -0.671875 -0.671875 -1.890625l0 -4.984375l-1.0625 0l0 -1.15625l1.0625 0l0 -1.546875l1.53125 -0.140625l0 1.6875l2.21875 0l0 1.15625l-2.21875 0l0 4.703125q0 0.890625 0.34375 1.28125q0.34375 0.375 1.09375 0.375q0.3125 0 0.75 -0.09375l0 1.0625zm10.34375 1.25l0 1.0625q-1.265625 -0.859375 -2.0625 -2.078125q-0.78125 -1.203125 -1.1875 -2.5625q-0.40625 -1.375 -0.40625 -2.6875q0 -1.3125 0.40625 -2.671875q0.40625 -1.375 1.1875 -2.578125q0.796875 -1.203125 2.0625 -2.078125l0 1.0625q-0.875 0.953125 -1.296875 1.859375q-0.421875 0.90625 -0.625 2.03125q-0.203125 1.125 -0.203125 2.375q0 1.25 0.203125 2.375q0.203125 1.125 0.625 2.03125q0.421875 0.90625 1.296875 1.859375zm6.609375 -1.25l0 -3.28125l-5.203125 0l0 -1.15625l5.203125 -7.125l1.4375 0l0 7.03125l1.546875 0l0 1.25l-1.546875 0l0 3.28125l-1.4375 0zm-3.703125 -4.53125l3.796875 0l0 -5.140625l-3.796875 5.140625zm9.7421875 4.578125l0 -1.375q1.140625 0.453125 2.1875 0.453125q1.25 0 1.84375 -0.734375q0.59375 -0.734375 0.59375 -1.78125q0 -1.1875 -0.875 -1.890625q-0.859375 -0.71875 -2.703125 -0.71875q-0.421875 0 -0.859375 0.0625l0 -5.625l5.859375 0l0 1.34375l-4.5 0l0 3.046875q2.4375 0 3.578125 1.109375q1.140625 1.109375 1.140625 2.75q0 1.5 -1.03125 2.5625q-1.03125 1.046875 -3.234375 1.046875q-0.890625 0 -2.0 -0.25zm10.9140625 -6.046875q0.453125 -0.578125 0.859375 -0.84375q0.40625 -0.28125 0.890625 -0.421875q0.484375 -0.15625 1.03125 -0.15625q0.984375 0 1.78125 0.46875q0.8125 0.46875 1.234375 1.28125q0.421875 0.8125 0.421875 1.828125q0 1.109375 -0.5 2.078125q-0.484375 0.96875 -1.3125 1.515625q-0.8125 0.546875 -2.015625 0.546875q-2.0625 0 -3.0625 -1.671875q-1.0 -1.6875 -1.0 -4.15625q0 -1.625 0.484375 -3.109375q0.484375 -1.5 1.484375 -2.359375q1.0 -0.859375 2.734375 -0.859375q0.546875 0 1.046875 0.078125q0.5 0.0625 1.546875 0.359375l0 1.34375q-1.625 -0.625 -2.6875 -0.625q-1.546875 0 -2.25 1.3125q-0.6875 1.296875 -0.6875 3.390625zm4.671875 2.453125q0 -1.375 -0.640625 -2.0625q-0.625 -0.703125 -1.578125 -0.703125q-0.78125 0 -1.59375 0.578125q-0.796875 0.5625 -0.796875 1.65625q0 1.109375 0.5625 2.15625q0.5625 1.046875 1.875 1.046875q0.953125 0 1.5625 -0.6875q0.609375 -0.703125 0.609375 -1.984375zm3.2734375 -7.734375l0 -1.0625q1.28125 0.875 2.0625 2.078125q0.796875 1.203125 1.203125 2.578125q0.40625 1.359375 0.40625 2.671875q0 1.3125 -0.40625 2.6875q-0.40625 1.359375 -1.203125 2.5625q-0.78125 1.21875 -2.0625 2.078125l0 -1.0625q0.890625 -0.953125 1.3125 -1.859375q0.421875 -0.90625 0.609375 -2.03125q0.203125 -1.140625 0.203125 -2.375q0 -1.234375 -0.203125 -2.359375q-0.1875 -1.140625 -0.609375 -2.046875q-0.421875 -0.90625 -1.3125 -1.859375zm6.390625 13.796875l0 -0.578125q0.296875 -0.15625 0.421875 -0.515625q0.125 -0.34375 0.125 -1.234375l0 -0.1875l-0.546875 0l0 -1.546875l1.53125 0l0 1.296875q0 1.015625 -0.171875 1.46875q-0.171875 0.453125 -0.546875 0.8125q-0.375 0.375 -0.8125 0.484375zm0 -9.453125l0 -1.546875l1.53125 0l0 1.546875l-1.53125 0z" fill-rule="nonzero"/><path fill="#000000" d="m24.723917 137.02118q-1.296875 0 -2.234375 -0.828125q-0.921875 -0.84375 -1.375 -2.265625q-0.4375 -1.421875 -0.4375 -2.984375q0 -1.5625 0.4375 -2.984375q0.453125 -1.421875 1.390625 -2.25q0.9375 -0.84375 2.21875 -0.84375q1.296875 0 2.234375 0.84375q0.9375 0.828125 1.375 2.25q0.4375 1.40625 0.4375 2.984375q0 1.5625 -0.4375 2.96875q-0.4375 1.40625 -1.375 2.265625q-0.921875 0.84375 -2.234375 0.84375zm0 -1.171875q1.265625 0 1.84375 -1.34375q0.578125 -1.359375 0.578125 -3.5625q0 -2.21875 -0.578125 -3.5625q-0.578125 -1.359375 -1.84375 -1.359375q-1.265625 0 -1.84375 1.359375q-0.5625 1.34375 -0.5625 3.5625q0 2.203125 0.5625 3.5625q0.578125 1.34375 1.84375 1.34375zm7.0078125 0.921875l0 -1.375q1.1406269 0.453125 2.187502 0.453125q1.25 0 1.84375 -0.734375q0.59375 -0.734375 0.59375 -1.78125q0 -1.1875 -0.875 -1.890625q-0.859375 -0.71875 -2.703125 -0.71875q-0.421875 0 -0.8593769 0.0625l0 -5.625l5.859377 0l0 1.34375l-4.5 0l0 3.046875q2.4375 0 3.578125 1.109375q1.140625 1.109375 1.140625 2.75q0 1.5 -1.03125 2.5625q-1.03125 1.046875 -3.234375 1.046875q-0.890625 0 -2.000002 -0.25zm9.929689 -0.046875l0 -1.546875l1.53125 0l0 1.546875l-1.53125 0zm0 -6.9375l0 -1.546875l1.53125 0l0 1.546875l-1.53125 0z" fill-rule="nonzero"/><path fill="#000000" d="m24.723917 156.22118q-1.296875 0 -2.234375 -0.828125q-0.921875 -0.84375 -1.375 -2.265625q-0.4375 -1.421875 -0.4375 -2.984375q0 -1.5625 0.4375 -2.984375q0.453125 -1.421875 1.390625 -2.25q0.9375 -0.84375 2.21875 -0.84375q1.296875 0 2.234375 0.84375q0.9375 0.828125 1.375 2.25q0.4375 1.40625 0.4375 2.984375q0 1.5625 -0.4375 2.96875q-0.4375 1.40625 -1.375 2.265625q-0.921875 0.84375 -2.234375 0.84375zm0 -1.171875q1.265625 0 1.84375 -1.34375q0.578125 -1.359375 0.578125 -3.5625q0 -2.21875 -0.578125 -3.5625q-0.578125 -1.359375 -1.84375 -1.359375q-1.265625 0 -1.84375 1.359375q-0.5625 1.34375 -0.5625 3.5625q0 2.203125 0.5625 3.5625q0.578125 1.34375 1.84375 1.34375zm7.8046894 -5.125q0.453125 -0.578125 0.859375 -0.84375q0.40625 -0.28125 0.890625 -0.421875q0.484375 -0.15625 1.03125 -0.15625q0.984375 0 1.78125 0.46875q0.8125 0.46875 1.234375 1.28125q0.421875 0.8125 0.421875 1.828125q0 1.109375 -0.5 2.078125q-0.484375 0.96875 -1.3125 1.515625q-0.8125 0.546875 -2.015625 0.546875q-2.0625 0 -3.062502 -1.671875q-1.0 -1.6875 -1.0 -4.15625q0 -1.625 0.484375 -3.109375q0.484375 -1.5 1.4843769 -2.359375q1.0 -0.859375 2.734375 -0.859375q0.546875 0 1.046875 0.078125q0.5 0.0625 1.546875 0.359375l0 1.34375q-1.625 -0.625 -2.6875 -0.625q-1.546875 0 -2.25 1.3125q-0.6875 1.296875 -0.6875 3.390625zm4.671875 2.453125q0 -1.375 -0.640625 -2.0625q-0.625 -0.703125 -1.578125 -0.703125q-0.78125 0 -1.59375 0.578125q-0.796875 0.5625 -0.796875 1.65625q0 1.109375 0.5625 2.15625q0.5625 1.046875 1.875 1.046875q0.953125 0 1.5625 -0.6875q0.609375 -0.703125 0.609375 -1.984375zm4.4609375 3.546875l0 -1.546875l1.53125 0l0 1.546875l-1.53125 0zm0 -6.9375l0 -1.546875l1.53125 0l0 1.546875l-1.53125 0zm28.703121 9.25l6.453125 -14.65625l1.265625 0l-6.453125 14.65625l-1.265625 0zm7.90625 0l6.453125 -14.65625l1.265625 0l-6.453125 14.65625l-1.265625 0zm14.4375 -2.3125l0 -1.9375l1.9375 0l0 1.9375l-1.9375 0zm5.0625 0l0 -1.9375l1.9375 0l0 1.9375l-1.9375 0zm5.0625 0l0 -1.9375l1.9375 0l0 1.9375l-1.9375 0z" fill-rule="nonzero"/><path fill="#000000" d="m24.723917 175.42116q-1.296875 0 -2.234375 -0.828125q-0.921875 -0.84375 -1.375 -2.265625q-0.4375 -1.421875 -0.4375 -2.984375q0 -1.5625 0.4375 -2.984375q0.453125 -1.421875 1.390625 -2.25q0.9375 -0.84375 2.21875 -0.84375q1.296875 0 2.234375 0.84375q0.9375 0.828125 1.375 2.25q0.4375 1.40625 0.4375 2.984375q0 1.5625 -0.4375 2.96875q-0.4375 1.40625 -1.375 2.265625q-0.921875 0.84375 -2.234375 0.84375zm0 -1.171875q1.265625 0 1.84375 -1.34375q0.578125 -1.359375 0.578125 -3.5625q0 -2.21875 -0.578125 -3.5625q-0.578125 -1.359375 -1.84375 -1.359375q-1.265625 0 -1.84375 1.359375q-0.5625 1.34375 -0.5625 3.5625q0 2.203125 0.5625 3.5625q0.578125 1.34375 1.84375 1.34375zm7.4609394 0.875q0.265625 -1.578125 0.75 -2.59375q0.5 -1.015625 1.375 -2.453125l3.15625 -5.078125l-5.953127 0l0 -1.4375l7.421877 0l0 1.4375q-1.5 2.203125 -2.46875 3.96875q-0.96875 1.75 -1.640625 3.3125q-0.671875 1.546875 -0.859375 2.84375l-1.78125 0zm9.4765625 0l0 -1.546875l1.53125 0l0 1.546875l-1.53125 0zm0 -6.9375l0 -1.546875l1.53125 0l0 1.546875l-1.53125 0z" fill-rule="nonzero"/><path fill="#000000" d="m24.723917 194.62115q-1.296875 0 -2.234375 -0.828125q-0.921875 -0.84375 -1.375 -2.265625q-0.4375 -1.421875 -0.4375 -2.984375q0 -1.5625 0.4375 -2.984375q0.453125 -1.421875 1.390625 -2.25q0.9375 -0.84375 2.21875 -0.84375q1.296875 0 2.234375 0.84375q0.9375 0.828125 1.375 2.25q0.4375 1.40625 0.4375 2.984375q0 1.5625 -0.4375 2.96875q-0.4375 1.40625 -1.375 2.265625q-0.921875 0.84375 -2.234375 0.84375zm0 -1.171875q1.265625 0 1.84375 -1.34375q0.578125 -1.359375 0.578125 -3.5625q0 -2.21875 -0.578125 -3.5625q-0.578125 -1.359375 -1.84375 -1.359375q-1.265625 0 -1.84375 1.359375q-0.5625 1.34375 -0.5625 3.5625q0 2.203125 0.5625 3.5625q0.578125 1.34375 1.84375 1.34375zm8.742189 -5.421875q-1.109375 -0.765625 -1.40625 -1.34375q-0.2968769 -0.59375 -0.2968769 -1.265625q0 -1.28125 0.9375019 -2.109375q0.953125 -0.84375 2.53125 -0.84375q1.4375 0 2.3125 0.703125q0.890625 0.6875 0.890625 1.796875q0 0.765625 -0.453125 1.515625q-0.453125 0.734375 -1.703125 1.546875q1.453125 0.703125 2.03125 1.5q0.59375 0.78125 0.59375 1.796875q0 1.34375 -1.046875 2.328125q-1.046875 0.96875 -2.859375 0.96875q-1.875 0 -2.859375 -0.921875q-0.9687519 -0.9375 -0.9687519 -2.21875q0 -0.921875 0.53125 -1.828125q0.5468769 -0.90625 1.7656269 -1.625zm1.953125 -0.484375q0.765625 -0.515625 1.1875 -1.125q0.4375 -0.609375 0.4375 -1.25q0 -0.671875 -0.546875 -1.109375q-0.53125 -0.4375 -1.421875 -0.4375q-0.90625 0 -1.421875 0.453125q-0.5 0.453125 -0.5 1.046875q0 0.578125 0.40625 1.09375q0.421875 0.5 1.859375 1.328125zm-1.125 1.109375q-1.09375 0.84375 -1.34375 1.40625q-0.25 0.546875 -0.25 1.171875q0 1.015625 0.65625 1.625q0.671875 0.59375 1.671875 0.59375q0.9375 0 1.609375 -0.5q0.671875 -0.5 0.671875 -1.375q0 -0.640625 -0.359375 -1.09375q-0.34375 -0.46875 -1.5625 -1.1875l-1.09375 -0.640625zm7.3671875 5.671875l0 -1.546875l1.53125 0l0 1.546875l-1.53125 0zm0 -6.9375l0 -1.546875l1.53125 0l0 1.546875l-1.53125 0zm35.593746 6.9375l0 -1.59375q-0.46875 0.890625 -1.171875 1.34375q-0.703125 0.453125 -1.65625 0.453125q-1.5625 0 -2.421875 -1.15625q-0.859375 -1.15625 -0.859375 -3.03125q0 -2.015625 0.96875 -3.34375q0.96875 -1.34375 2.640625 -1.34375q0.5 0 0.9375 0.125q0.453125 0.109375 0.796875 0.328125q0.34375 0.203125 0.765625 0.703125l0 -4.828125l1.546875 0l0 12.34375l-1.546875 0zm0 -6.46875q-0.796875 -0.703125 -1.265625 -0.875q-0.453125 -0.171875 -1.0 -0.171875q-1.125 0 -1.671875 0.953125q-0.53125 0.9375 -0.53125 2.421875q0 1.390625 0.46875 2.1875q0.484375 0.796875 1.5 0.796875q0.640625 0 1.265625 -0.34375q0.625 -0.359375 1.234375 -1.0625l0 -3.90625zm10.8515625 6.1875q-1.546875 0.484375 -2.65625 0.484375q-1.96875 0 -3.109375 -1.328125q-1.125 -1.34375 -1.125 -3.15625q0 -1.203125 0.5 -2.28125q0.5 -1.078125 1.296875 -1.59375q0.8125 -0.53125 1.90625 -0.53125q1.46875 0 2.34375 1.0625q0.875 1.046875 0.875 3.15625l0 0.46875l-5.359375 0q0.125 1.125 0.484375 1.734375q0.359375 0.609375 0.953125 0.953125q0.609375 0.328125 1.53125 0.328125q0.46875 0 0.921875 -0.078125q0.46875 -0.078125 1.4375 -0.4375l0 1.21875zm-5.25 -4.875l3.734375 0q0 -1.28125 -0.5 -1.828125q-0.484375 -0.546875 -1.265625 -0.546875q-0.875 0 -1.375 0.59375q-0.5 0.59375 -0.59375 1.78125zm7.9453125 5.15625l0 -12.34375l1.53125 0l0 12.34375l-1.53125 0zm10.84375 -0.28125q-1.546875 0.484375 -2.65625 0.484375q-1.96875 0 -3.109375 -1.328125q-1.125 -1.34375 -1.125 -3.15625q0 -1.203125 0.5 -2.28125q0.5 -1.078125 1.296875 -1.59375q0.8125 -0.53125 1.90625 -0.53125q1.46875 0 2.34375 1.0625q0.875 1.046875 0.875 3.15625l0 0.46875l-5.359375 0q0.125 1.125 0.484375 1.734375q0.359375 0.609375 0.953125 0.953125q0.609375 0.328125 1.53125 0.328125q0.46875 0 0.921875 -0.078125q0.46875 -0.078125 1.4375 -0.4375l0 1.21875zm-5.25 -4.875l3.734375 0q0 -1.28125 -0.5 -1.828125q-0.484375 -0.546875 -1.265625 -0.546875q-0.875 0 -1.375 0.59375q-0.5 0.59375 -0.59375 1.78125zm11.7265625 5.15625q-0.71875 0.203125 -1.234375 0.203125q-1.140625 0 -1.8125 -0.65625q-0.671875 -0.671875 -0.671875 -1.890625l0 -4.984375l-1.0625 0l0 -1.15625l1.0625 0l0 -1.546875l1.53125 -0.140625l0 1.6875l2.21875 0l0 1.15625l-2.21875 0l0 4.703125q0 0.890625 0.34375 1.28125q0.34375 0.375 1.09375 0.375q0.3125 0 0.75 -0.09375l0 1.0625zm8.421875 -0.28125q-1.546875 0.484375 -2.65625 0.484375q-1.96875 0 -3.109375 -1.328125q-1.125 -1.34375 -1.125 -3.15625q0 -1.203125 0.5 -2.28125q0.5 -1.078125 1.296875 -1.59375q0.8125 -0.53125 1.90625 -0.53125q1.46875 0 2.34375 1.0625q0.875 1.046875 0.875 3.15625l0 0.46875l-5.359375 0q0.125 1.125 0.484375 1.734375q0.359375 0.609375 0.953125 0.953125q0.609375 0.328125 1.53125 0.328125q0.46875 0 0.921875 -0.078125q0.46875 -0.078125 1.4375 -0.4375l0 1.21875zm-5.25 -4.875l3.734375 0q0 -1.28125 -0.5 -1.828125q-0.484375 -0.546875 -1.265625 -0.546875q-0.875 0 -1.375 0.59375q-0.5 0.59375 -0.59375 1.78125zm13.0078125 5.15625l0 -8.484375l1.53125 0l0 8.484375l-1.53125 0zm0 -10.03125l0 -1.53125l1.53125 0l0 1.53125l-1.53125 0zm4.6250076 13.125l0 -11.578125l1.53125 0l0 1.59375q0.484375 -0.890625 1.1875 -1.328125q0.703125 -0.453125 1.65625 -0.453125q1.5625 0 2.421875 1.15625q0.859375 1.15625 0.859375 3.015625q0 1.203125 -0.40625 2.296875q-0.390625 1.09375 -1.234375 1.75q-0.828125 0.65625 -1.890625 0.65625q-0.421875 0 -1.125 -0.140625q-0.6875 -0.125 -1.46875 -1.03125l0 4.0625l-1.53125 0zm1.53125 -5.125q0.796875 0.703125 1.265625 0.890625q0.46875 0.171875 1.0 0.171875q1.140625 0 1.671875 -0.953125q0.546875 -0.953125 0.546875 -2.421875q0 -1.375 -0.484375 -2.171875q-0.46875 -0.8125 -1.484375 -0.8125q-0.640625 0 -1.265625 0.34375q-0.625 0.34375 -1.25 1.046875l0 3.90625zm11.1796875 2.03125l0 -10.40625l-1.828125 0l0 -0.96875l3.375 -0.296875l0 11.671875l-1.546875 0zm7.6953125 2.515625l0 -0.578125q0.296875 -0.15625 0.421875 -0.515625q0.125 -0.34375 0.125 -1.234375l0 -0.1875l-0.546875 0l0 -1.546875l1.53125 0l0 1.296875q0 1.015625 -0.171875 1.46875q-0.171875 0.453125 -0.546875 0.8125q-0.375 0.375 -0.8125 0.484375zm0 -9.453125l0 -1.546875l1.53125 0l0 1.546875l-1.53125 0z" fill-rule="nonzero"/><path fill="#000000" d="m24.723917 213.82115q-1.296875 0 -2.234375 -0.828125q-0.921875 -0.84375 -1.375 -2.265625q-0.4375 -1.421875 -0.4375 -2.984375q0 -1.5625 0.4375 -2.984375q0.453125 -1.421875 1.390625 -2.25q0.9375 -0.84375 2.21875 -0.84375q1.296875 0 2.234375 0.84375q0.9375 0.828125 1.375 2.25q0.4375 1.40625 0.4375 2.984375q0 1.5625 -0.4375 2.96875q-0.4375 1.40625 -1.375 2.265625q-0.921875 0.84375 -2.234375 0.84375zm0 -1.171875q1.265625 0 1.84375 -1.34375q0.578125 -1.359375 0.578125 -3.5625q0 -2.21875 -0.578125 -3.5625q-0.578125 -1.359375 -1.84375 -1.359375q-1.265625 0 -1.84375 1.359375q-0.5625 1.34375 -0.5625 3.5625q0 2.203125 0.5625 3.5625q0.578125 1.34375 1.84375 1.34375zm6.8828125 0.796875l0 -1.296875q1.4687519 0.5 2.500002 0.5q0.953125 0 1.625 -0.5q0.671875 -0.5 1.046875 -1.640625q0.375 -1.140625 0.375 -2.484375q-0.515625 0.640625 -0.890625 0.90625q-0.375 0.265625 -0.828125 0.40625q-0.4375 0.140625 -0.9375 0.140625q-0.96875 0 -1.78125 -0.515625q-0.8125019 -0.515625 -1.2656269 -1.34375q-0.453125 -0.828125 -0.453125 -1.84375q0 -1.0625 0.5 -2.046875q0.5 -1.0 1.3125019 -1.53125q0.828125 -0.53125 2.0 -0.53125q2.0625 0 3.046875 1.671875q1.0 1.65625 1.0 3.984375q0 1.765625 -0.59375 3.34375q-0.578125 1.5625 -1.640625 2.359375q-1.046875 0.796875 -2.671875 0.796875q-0.90625 0 -2.343752 -0.375zm0.9375019 -7.9375q0 1.296875 0.59375 2.078125q0.59375 0.78125 1.640625 0.78125q0.84375 0 1.59375 -0.609375q0.765625 -0.625 0.765625 -1.65625q0 -0.890625 -0.34375 -1.734375q-0.328125 -0.84375 -0.84375 -1.1875q-0.515625 -0.359375 -1.234375 -0.359375q-1.03125 0 -1.609375 0.734375q-0.5625 0.71875 -0.5625 1.953125zm9.1171875 8.015625l0 -1.546875l1.53125 0l0 1.546875l-1.53125 0zm0 -6.9375l0 -1.546875l1.53125 0l0 1.546875l-1.53125 0zm35.593746 6.9375l0 -1.59375q-0.46875 0.890625 -1.171875 1.34375q-0.703125 0.453125 -1.65625 0.453125q-1.5625 0 -2.421875 -1.15625q-0.859375 -1.15625 -0.859375 -3.03125q0 -2.015625 0.96875 -3.34375q0.96875 -1.34375 2.640625 -1.34375q0.5 0 0.9375 0.125q0.453125 0.109375 0.796875 0.328125q0.34375 0.203125 0.765625 0.703125l0 -4.828125l1.546875 0l0 12.34375l-1.546875 0zm0 -6.46875q-0.796875 -0.703125 -1.265625 -0.875q-0.453125 -0.171875 -1.0 -0.171875q-1.125 0 -1.671875 0.953125q-0.53125 0.9375 -0.53125 2.421875q0 1.390625 0.46875 2.1875q0.484375 0.796875 1.5 0.796875q0.640625 0 1.265625 -0.34375q0.625 -0.359375 1.234375 -1.0625l0 -3.90625zm10.8515625 6.1875q-1.546875 0.484375 -2.65625 0.484375q-1.96875 0 -3.109375 -1.328125q-1.125 -1.34375 -1.125 -3.15625q0 -1.203125 0.5 -2.28125q0.5 -1.078125 1.296875 -1.59375q0.8125 -0.53125 1.90625 -0.53125q1.46875 0 2.34375 1.0625q0.875 1.046875 0.875 3.15625l0 0.46875l-5.359375 0q0.125 1.125 0.484375 1.734375q0.359375 0.609375 0.953125 0.953125q0.609375 0.328125 1.53125 0.328125q0.46875 0 0.921875 -0.078125q0.46875 -0.078125 1.4375 -0.4375l0 1.21875zm-5.25 -4.875l3.734375 0q0 -1.28125 -0.5 -1.828125q-0.484375 -0.546875 -1.265625 -0.546875q-0.875 0 -1.375 0.59375q-0.5 0.59375 -0.59375 1.78125zm7.9453125 5.15625l0 -12.34375l1.53125 0l0 12.34375l-1.53125 0zm10.84375 -0.28125q-1.546875 0.484375 -2.65625 0.484375q-1.96875 0 -3.109375 -1.328125q-1.125 -1.34375 -1.125 -3.15625q0 -1.203125 0.5 -2.28125q0.5 -1.078125 1.296875 -1.59375q0.8125 -0.53125 1.90625 -0.53125q1.46875 0 2.34375 1.0625q0.875 1.046875 0.875 3.15625l0 0.46875l-5.359375 0q0.125 1.125 0.484375 1.734375q0.359375 0.609375 0.953125 0.953125q0.609375 0.328125 1.53125 0.328125q0.46875 0 0.921875 -0.078125q0.46875 -0.078125 1.4375 -0.4375l0 1.21875zm-5.25 -4.875l3.734375 0q0 -1.28125 -0.5 -1.828125q-0.484375 -0.546875 -1.265625 -0.546875q-0.875 0 -1.375 0.59375q-0.5 0.59375 -0.59375 1.78125zm11.7265625 5.15625q-0.71875 0.203125 -1.234375 0.203125q-1.140625 0 -1.8125 -0.65625q-0.671875 -0.671875 -0.671875 -1.890625l0 -4.984375l-1.0625 0l0 -1.15625l1.0625 0l0 -1.546875l1.53125 -0.140625l0 1.6875l2.21875 0l0 1.15625l-2.21875 0l0 4.703125q0 0.890625 0.34375 1.28125q0.34375 0.375 1.09375 0.375q0.3125 0 0.75 -0.09375l0 1.0625zm8.421875 -0.28125q-1.546875 0.484375 -2.65625 0.484375q-1.96875 0 -3.109375 -1.328125q-1.125 -1.34375 -1.125 -3.15625q0 -1.203125 0.5 -2.28125q0.5 -1.078125 1.296875 -1.59375q0.8125 -0.53125 1.90625 -0.53125q1.46875 0 2.34375 1.0625q0.875 1.046875 0.875 3.15625l0 0.46875l-5.359375 0q0.125 1.125 0.484375 1.734375q0.359375 0.609375 0.953125 0.953125q0.609375 0.328125 1.53125 0.328125q0.46875 0 0.921875 -0.078125q0.46875 -0.078125 1.4375 -0.4375l0 1.21875zm-5.25 -4.875l3.734375 0q0 -1.28125 -0.5 -1.828125q-0.484375 -0.546875 -1.265625 -0.546875q-0.875 0 -1.375 0.59375q-0.5 0.59375 -0.59375 1.78125zm13.0078125 5.15625l0 -8.484375l1.53125 0l0 8.484375l-1.53125 0zm0 -10.03125l0 -1.53125l1.53125 0l0 1.53125l-1.53125 0zm4.6250076 13.125l0 -11.578125l1.53125 0l0 1.59375q0.484375 -0.890625 1.1875 -1.328125q0.703125 -0.453125 1.65625 -0.453125q1.5625 0 2.421875 1.15625q0.859375 1.15625 0.859375 3.015625q0 1.203125 -0.40625 2.296875q-0.390625 1.09375 -1.234375 1.75q-0.828125 0.65625 -1.890625 0.65625q-0.421875 0 -1.125 -0.140625q-0.6875 -0.125 -1.46875 -1.03125l0 4.0625l-1.53125 0zm1.53125 -5.125q0.796875 0.703125 1.265625 0.890625q0.46875 0.171875 1.0 0.171875q1.140625 0 1.671875 -0.953125q0.546875 -0.953125 0.546875 -2.421875q0 -1.375 -0.484375 -2.171875q-0.46875 -0.8125 -1.484375 -0.8125q-0.640625 0 -1.265625 0.34375q-0.625 0.34375 -1.25 1.046875l0 3.90625zm8.3203125 2.03125l0 -1.359375q0.671875 -1.5625 2.71875 -3.421875l0.890625 -0.78125q0.953125 -0.875 1.328125 -1.578125q0.375 -0.71875 0.375 -1.484375q0 -0.96875 -0.59375 -1.515625q-0.59375 -0.5625 -1.59375 -0.5625q-0.4375 0 -0.828125 0.09375q-0.390625 0.078125 -0.84375 0.265625q-0.453125 0.171875 -1.15625 0.578125l0 -1.359375q1.53125 -0.734375 3.0625 -0.734375q1.65625 0 2.609375 0.921875q0.96875 0.90625 0.96875 2.28125q0 0.890625 -0.390625 1.6875q-0.390625 0.78125 -1.953125 2.109375l-0.59375 0.5q-0.640625 0.546875 -1.296875 1.34375q-0.65625 0.78125 -0.84375 1.65625l5.03125 0l0 1.359375l-6.890625 0zm10.5546875 2.515625l0 -0.578125q0.296875 -0.15625 0.421875 -0.515625q0.125 -0.34375 0.125 -1.234375l0 -0.1875l-0.546875 0l0 -1.546875l1.53125 0l0 1.296875q0 1.015625 -0.171875 1.46875q-0.171875 0.453125 -0.546875 0.8125q-0.375 0.375 -0.8125 0.484375zm0 -9.453125l0 -1.546875l1.53125 0l0 1.546875l-1.53125 0z" fill-rule="nonzero"/><path fill="#000000" d="m23.848917 232.72427l0 -10.40625l-1.828125 0l0 -0.96875l3.375 -0.296875l0 11.671875l-1.546875 0zm10.992189 0.296875q-1.296875 0 -2.234375 -0.828125q-0.9218769 -0.84375 -1.3750019 -2.265625q-0.4375 -1.421875 -0.4375 -2.984375q0 -1.5625 0.4375 -2.984375q0.453125 -1.421875 1.3906269 -2.25q0.9375 -0.84375 2.21875 -0.84375q1.296875 0 2.234375 0.84375q0.9375 0.828125 1.375 2.25q0.4375 1.40625 0.4375 2.984375q0 1.5625 -0.4375 2.96875q-0.4375 1.40625 -1.375 2.265625q-0.921875 0.84375 -2.234375 0.84375zm0 -1.171875q1.265625 0 1.84375 -1.34375q0.578125 -1.359375 0.578125 -3.5625q0 -2.21875 -0.578125 -3.5625q-0.578125 -1.359375 -1.84375 -1.359375q-1.265625 0 -1.84375 1.359375q-0.5625 1.34375 -0.5625 3.5625q0 2.203125 0.5625 3.5625q0.578125 1.34375 1.84375 1.34375zm6.8203125 0.875l0 -1.546875l1.53125 0l0 1.546875l-1.53125 0zm0 -6.9375l0 -1.546875l1.53125 0l0 1.546875l-1.53125 0zm13.375 2.5l-0.390625 0q-1.1875 0 -1.1875 1.265625q0 0.53125 0.125 1.09375l0.15625 0.671875q0.140625 0.671875 0.140625 1.3125q0 0.625 -0.328125 1.171875q-0.328125 0.546875 -0.890625 0.859375q-0.546875 0.3125 -1.578125 0.375l0 -1.15625l0.21875 0q0.4375 0 0.828125 -0.25q0.40625 -0.234375 0.40625 -0.703125q0 -0.21875 -0.09375 -0.765625l-0.140625 -0.796875q-0.09375 -0.5 -0.09375 -1.234375q0 -0.796875 0.265625 -1.34375q0.28125 -0.5625 0.890625 -1.078125q-0.609375 -0.515625 -0.890625 -1.0625q-0.265625 -0.546875 -0.265625 -1.375q0 -0.71875 0.09375 -1.21875l0.140625 -0.796875q0.09375 -0.546875 0.09375 -0.765625q0 -0.453125 -0.40625 -0.703125q-0.40625 -0.25 -0.828125 -0.25l-0.21875 0l0 -1.15625q1.03125 0.0625 1.578125 0.375q0.5625 0.3125 0.890625 0.875q0.328125 0.546875 0.328125 1.15625q0 0.640625 -0.140625 1.3125l-0.15625 0.671875q-0.125 0.5625 -0.125 1.109375q0 1.25 1.1875 1.25l0.390625 0l0 1.15625z" fill-rule="nonzero"/><path fill="#000000" fill-opacity="0.0" d="m387.44882 5.5800524l176.25198 0l0 398.64566l-176.25198 0z" fill-rule="evenodd"/><path stroke="#000000" stroke-width="3.0" stroke-linejoin="round" stroke-linecap="butt" d="m387.44882 5.5800524l176.25198 0l0 398.64566l-176.25198 0z" fill-rule="evenodd"/><path fill="#b7b7b7" d="m387.44882 290.17847l176.25198 0l0 114.04724l-176.25198 0z" fill-rule="evenodd"/><path stroke="#000000" stroke-width="3.0" stroke-linejoin="round" stroke-linecap="butt" d="m387.44882 290.17847l176.25198 0l0 114.04724l-176.25198 0z" fill-rule="evenodd"/><path fill="#000000" fill-opacity="0.0" d="m387.44882 209.04462l176.25198 0l0 40.566925l-176.25198 0z" fill-rule="evenodd"/><path stroke="#000000" stroke-width="3.0" stroke-linejoin="round" stroke-linecap="butt" d="m387.44882 209.04462l176.25198 0l0 40.566925l-176.25198 0z" fill-rule="evenodd"/><path fill="#000000" fill-opacity="0.0" d="m387.44882 249.61154l176.25198 0l0 40.566925l-176.25198 0z" fill-rule="evenodd"/><path stroke="#000000" stroke-width="3.0" stroke-linejoin="round" stroke-linecap="butt" d="m387.44882 249.61154l176.25198 0l0 40.566925l-176.25198 0z" fill-rule="evenodd"/><path fill="#000000" fill-opacity="0.0" d="m387.44882 404.2257l176.25198 0l0 42.015747l-176.25198 0z" fill-rule="evenodd"/><path fill="#000000" d="m453.5579 426.83322l1.75 -0.171875l-0.015625 0.46875q0 0.765625 0.34375 1.421875q0.359375 0.640625 1.171875 1.0q0.828125 0.34375 1.953125 0.34375q1.609375 0 2.453125 -0.703125q0.84375 -0.703125 0.84375 -1.609375q0 -0.625 -0.453125 -1.140625q-0.453125 -0.515625 -2.484375 -1.390625q-1.578125 -0.6875 -2.140625 -1.046875q-0.90625 -0.59375 -1.34375 -1.28125q-0.421875 -0.703125 -0.421875 -1.59375q0 -1.03125 0.5625 -1.859375q0.5625 -0.828125 1.65625 -1.265625q1.09375 -0.4375 2.453125 -0.4375q1.640625 0 2.75 0.546875q1.125 0.546875 1.625 1.453125q0.515625 0.90625 0.515625 1.734375q0 0.09375 -0.015625 0.28125l-1.71875 0.140625q0 -0.578125 -0.109375 -0.890625q-0.171875 -0.5625 -0.5625 -0.9375q-0.375 -0.390625 -1.046875 -0.609375q-0.671875 -0.234375 -1.5 -0.234375q-1.453125 0 -2.265625 0.65625q-0.625 0.5 -0.625 1.328125q0 0.484375 0.25 0.875q0.265625 0.390625 0.921875 0.765625q0.484375 0.265625 2.25 1.046875q1.453125 0.640625 2.0 1.0q0.71875 0.484375 1.109375 1.171875q0.390625 0.6875 0.390625 1.5625q0 1.078125 -0.65625 2.0q-0.65625 0.90625 -1.828125 1.421875q-1.15625 0.5 -2.671875 0.5q-2.265625 0 -3.703125 -0.984375q-1.421875 -1.0 -1.4375 -3.5625zm15.599823 2.96875l-0.265625 1.359375q-0.59375 0.140625 -1.15625 0.140625q-0.984375 0 -1.5625 -0.46875q-0.4375 -0.375 -0.4375 -1.0q0 -0.3125 0.234375 -1.46875l1.171875 -5.625l-1.296875 0l0.265625 -1.265625l1.296875 0l0.5 -2.375l1.890625 -1.140625l-0.734375 3.515625l1.625 0l-0.28125 1.265625l-1.609375 0l-1.125 5.359375q-0.203125 1.015625 -0.203125 1.21875q0 0.28125 0.15625 0.4375q0.171875 0.15625 0.5625 0.15625q0.546875 0 0.96875 -0.109375zm7.8551636 0.140625q-0.859375 0.734375 -1.65625 1.078125q-0.78125 0.34375 -1.6875 0.34375q-1.34375 0 -2.171875 -0.78125q-0.8125 -0.796875 -0.8125 -2.03125q0 -0.796875 0.375 -1.421875q0.375 -0.625 0.984375 -1.0q0.609375 -0.390625 1.484375 -0.546875q0.5625 -0.109375 2.109375 -0.171875q1.5625 -0.0625 2.234375 -0.328125q0.1875 -0.671875 0.1875 -1.125q0 -0.578125 -0.421875 -0.90625q-0.5625 -0.453125 -1.671875 -0.453125q-1.03125 0 -1.703125 0.46875q-0.65625 0.453125 -0.953125 1.296875l-1.671875 -0.140625q0.515625 -1.4375 1.609375 -2.203125q1.109375 -0.765625 2.796875 -0.765625q1.796875 0 2.84375 0.859375q0.796875 0.625 0.796875 1.65625q0 0.765625 -0.21875 1.796875l-0.53125 2.40625q-0.265625 1.140625 -0.265625 1.859375q0 0.453125 0.203125 1.3125l-1.671875 0q-0.125 -0.46875 -0.1875 -1.203125zm0.609375 -3.703125q-0.34375 0.140625 -0.75 0.21875q-0.390625 0.0625 -1.3125 0.15625q-1.4375 0.125 -2.03125 0.328125q-0.59375 0.1875 -0.90625 0.625q-0.296875 0.421875 -0.296875 0.9375q0 0.6875 0.484375 1.140625q0.484375 0.4375 1.359375 0.4375q0.828125 0 1.578125 -0.421875q0.75 -0.4375 1.1875 -1.203125q0.4375 -0.78125 0.6875 -2.21875zm9.922607 1.375l1.65625 0.171875q-0.625 1.8125 -1.765625 2.703125q-1.140625 0.875 -2.609375 0.875q-1.578125 0 -2.5625 -1.015625q-0.96875 -1.03125 -0.96875 -2.859375q0 -1.578125 0.625 -3.109375q0.640625 -1.53125 1.796875 -2.328125q1.171875 -0.796875 2.6875 -0.796875q1.546875 0 2.453125 0.875q0.921875 0.875 0.921875 2.328125l-1.625 0.109375q-0.015625 -0.921875 -0.546875 -1.4375q-0.515625 -0.515625 -1.359375 -0.515625q-1.0 0 -1.734375 0.625q-0.71875 0.625 -1.140625 1.90625q-0.40625 1.28125 -0.40625 2.46875q0 1.234375 0.546875 1.859375q0.546875 0.609375 1.34375 0.609375q0.796875 0 1.53125 -0.609375q0.734375 -0.609375 1.15625 -1.859375zm2.671875 3.53125l2.796875 -13.359375l1.640625 0l-1.734375 8.28125l4.8125 -4.59375l2.171875 0l-4.125 3.609375l2.5 6.0625l-1.8125 0l-1.921875 -4.96875l-2.015625 1.734375l-0.671875 3.234375l-1.640625 0z" fill-rule="nonzero"/><path fill="#000000" fill-opacity="0.0" d="m691.82416 5.5800524l176.25195 0l0 398.64566l-176.25195 0z" fill-rule="evenodd"/><path stroke="#000000" stroke-width="3.0" stroke-linejoin="round" stroke-linecap="butt" d="m691.82416 5.5800524l176.25195 0l0 398.64566l-176.25195 0z" fill-rule="evenodd"/><path fill="#cccccc" d="m691.82416 67.68241l176.25195 0l0 40.566933l-176.25195 0z" fill-rule="evenodd"/><path stroke="#000000" stroke-width="3.0" stroke-linejoin="round" stroke-linecap="butt" d="m691.82416 67.68241l176.25195 0l0 40.566933l-176.25195 0z" fill-rule="evenodd"/><path fill="#000000" d="m767.12994 94.88588l0 -12.140625l-2.125 0l0 -1.125l3.9375 -0.328125l0 13.59375l-1.8125 0zm8.468689 0l0 -1.578125q0.78125 -1.828125 3.171875 -3.984375l1.03125 -0.921875q1.125 -1.015625 1.546875 -1.84375q0.4375 -0.828125 0.4375 -1.71875q0 -1.140625 -0.703125 -1.78125q-0.6875 -0.640625 -1.84375 -0.640625q-0.5 0 -0.96875 0.09375q-0.453125 0.09375 -0.984375 0.3125q-0.515625 0.203125 -1.34375 0.671875l0 -1.578125q1.796875 -0.84375 3.5625 -0.84375q1.9375 0 3.0625 1.0625q1.125 1.0625 1.125 2.65625q0 1.03125 -0.46875 1.953125q-0.453125 0.921875 -2.265625 2.46875l-0.6875 0.59375q-0.765625 0.640625 -1.53125 1.5625q-0.765625 0.90625 -0.96875 1.9375l5.859375 0l0 1.578125l-8.03125 0zm12.140503 -0.09375l0 -1.6875q1.921875 0.765625 3.03125 0.765625q1.28125 0 2.09375 -0.75q0.8125 -0.75 0.8125 -1.9375q0 -1.171875 -0.828125 -2.0q-0.828125 -0.84375 -3.140625 -0.84375l-0.71875 0l0 -1.21875l0.625 0q2.171875 0 2.953125 -0.78125q0.78125 -0.796875 0.78125 -1.859375q0 -0.9375 -0.625 -1.5q-0.609375 -0.5625 -1.84375 -0.5625q-1.328125 0 -2.953125 0.75l0 -1.5625q1.15625 -0.390625 1.796875 -0.453125q0.65625 -0.078125 1.265625 -0.078125q2.140625 0 3.15625 0.859375q1.015625 0.84375 1.015625 2.265625q0 0.78125 -0.296875 1.390625q-0.28125 0.59375 -0.875 1.109375q-0.59375 0.515625 -1.640625 0.875q1.3125 0.3125 1.953125 0.796875q0.640625 0.484375 0.96875 1.21875q0.328125 0.71875 0.328125 1.5625q0 1.578125 -1.078125 2.828125q-1.078125 1.25 -3.625 1.25q-1.25 0 -3.15625 -0.4375z" fill-rule="nonzero"/><path fill="#cccccc" d="m691.82416 139.3517l176.25195 0l0 40.56694l-176.25195 0z" fill-rule="evenodd"/><path stroke="#000000" stroke-width="3.0" stroke-linejoin="round" stroke-linecap="butt" d="m691.82416 139.3517l176.25195 0l0 40.56694l-176.25195 0z" fill-rule="evenodd"/><path fill="#000000" d="m769.27057 166.55518l0 -3.8125l-6.0625 0l0 -1.359375l6.0625 -8.3125l1.6875 0l0 8.203125l1.8125 0l0 1.46875l-1.8125 0l0 3.8125l-1.6875 0zm-4.296875 -5.28125l4.421875 0l0 -6.0l-4.421875 6.0zm11.343689 5.328125l0 -1.59375q1.34375 0.53125 2.546875 0.53125q1.46875 0 2.15625 -0.859375q0.703125 -0.859375 0.703125 -2.0625q0 -1.390625 -1.015625 -2.21875q-1.015625 -0.828125 -3.171875 -0.828125q-0.484375 0 -0.984375 0.0625l0 -6.5625l6.8125 0l0 1.5625l-5.234375 0l0 3.5625q2.84375 0 4.171875 1.296875q1.328125 1.296875 1.328125 3.203125q0 1.75 -1.203125 2.984375q-1.203125 1.21875 -3.78125 1.21875q-1.03125 0 -2.328125 -0.296875zm12.734253 -7.03125q0.515625 -0.671875 0.984375 -1.0q0.484375 -0.328125 1.046875 -0.5q0.578125 -0.171875 1.203125 -0.171875q1.15625 0 2.09375 0.546875q0.9375 0.546875 1.421875 1.5q0.5 0.953125 0.5 2.125q0 1.296875 -0.578125 2.4375q-0.5625 1.125 -1.53125 1.765625q-0.953125 0.625 -2.359375 0.625q-2.40625 0 -3.578125 -1.953125q-1.15625 -1.96875 -1.15625 -4.828125q0 -1.890625 0.5625 -3.625q0.5625 -1.75 1.71875 -2.75q1.171875 -1.015625 3.203125 -1.015625q0.640625 0 1.21875 0.078125q0.578125 0.078125 1.8125 0.4375l0 1.5625q-1.90625 -0.734375 -3.140625 -0.734375q-1.796875 0 -2.609375 1.53125q-0.8125 1.515625 -0.8125 3.96875zm5.453125 2.859375q0 -1.609375 -0.75 -2.421875q-0.734375 -0.8125 -1.84375 -0.8125q-0.90625 0 -1.84375 0.671875q-0.9375 0.65625 -0.9375 1.9375q0 1.296875 0.640625 2.515625q0.65625 1.21875 2.203125 1.21875q1.109375 0 1.8125 -0.8125q0.71875 -0.8125 0.71875 -2.296875z" fill-rule="nonzero"/><path fill="#000000" fill-opacity="0.0" d="m691.82416 404.2257l176.25195 0l0 42.015747l-176.25195 0z" fill-rule="evenodd"/><path fill="#000000" d="m758.43134 431.14572l2.796875 -13.359375l1.78125 0l-1.15625 5.546875l6.921875 0l1.15625 -5.546875l1.78125 0l-2.78125 13.359375l-1.796875 0l1.3125 -6.296875l-6.90625 0l-1.328125 6.296875l-1.78125 0zm20.410461 -3.28125l1.609375 0.15625q-0.34375 1.1875 -1.59375 2.265625q-1.234375 1.078125 -2.96875 1.078125q-1.0625 0 -1.96875 -0.5q-0.890625 -0.5 -1.359375 -1.4375q-0.46875 -0.953125 -0.46875 -2.15625q0 -1.59375 0.734375 -3.078125q0.734375 -1.484375 1.890625 -2.203125q1.171875 -0.734375 2.53125 -0.734375q1.734375 0 2.765625 1.078125q1.03125 1.0625 1.03125 2.921875q0 0.71875 -0.125 1.46875l-7.125 0q-0.046875 0.28125 -0.046875 0.5q0 1.359375 0.625 2.078125q0.625 0.71875 1.53125 0.71875q0.84375 0 1.65625 -0.546875q0.828125 -0.5625 1.28125 -1.609375zm-4.78125 -2.40625l5.421875 0q0.015625 -0.25 0.015625 -0.359375q0 -1.234375 -0.625 -1.890625q-0.625 -0.671875 -1.59375 -0.671875q-1.0625 0 -1.9375 0.734375q-0.859375 0.71875 -1.28125 2.1875zm14.578796 4.484375q-0.859375 0.734375 -1.65625 1.078125q-0.78125 0.34375 -1.6875 0.34375q-1.34375 0 -2.171875 -0.78125q-0.8125 -0.796875 -0.8125 -2.03125q0 -0.796875 0.375 -1.421875q0.375 -0.625 0.984375 -1.0q0.609375 -0.390625 1.484375 -0.546875q0.5625 -0.109375 2.109375 -0.171875q1.5625 -0.0625 2.234375 -0.328125q0.1875 -0.671875 0.1875 -1.125q0 -0.578125 -0.421875 -0.90625q-0.5625 -0.453125 -1.671875 -0.453125q-1.03125 0 -1.703125 0.46875q-0.65625 0.453125 -0.953125 1.296875l-1.671875 -0.140625q0.515625 -1.4375 1.609375 -2.203125q1.109375 -0.765625 2.796875 -0.765625q1.796875 0 2.84375 0.859375q0.796875 0.625 0.796875 1.65625q0 0.765625 -0.21875 1.796875l-0.53125 2.40625q-0.265625 1.140625 -0.265625 1.859375q0 0.453125 0.203125 1.3125l-1.671875 0q-0.125 -0.46875 -0.1875 -1.203125zm0.609375 -3.703125q-0.34375 0.140625 -0.75 0.21875q-0.390625 0.0625 -1.3125 0.15625q-1.4375 0.125 -2.03125 0.328125q-0.59375 0.1875 -0.90625 0.625q-0.296875 0.421875 -0.296875 0.9375q0 0.6875 0.484375 1.140625q0.484375 0.4375 1.359375 0.4375q0.828125 0 1.578125 -0.421875q0.75 -0.4375 1.1875 -1.203125q0.4375 -0.78125 0.6875 -2.21875zm2.4382324 8.609375l2.796875 -13.375l1.515625 0l-0.28125 1.34375q0.84375 -0.875 1.515625 -1.21875q0.671875 -0.34375 1.421875 -0.34375q1.375 0 2.28125 1.015625q0.921875 1.0 0.921875 2.875q0 1.515625 -0.5 2.765625q-0.5 1.234375 -1.234375 2.0q-0.71875 0.75 -1.46875 1.109375q-0.75 0.34375 -1.53125 0.34375q-1.75 0 -2.703125 -1.765625l-1.09375 5.25l-1.640625 0zm3.25 -7.65625q0 1.078125 0.15625 1.5q0.234375 0.59375 0.75 0.96875q0.515625 0.359375 1.203125 0.359375q1.421875 0 2.296875 -1.59375q0.875 -1.609375 0.875 -3.28125q0 -1.21875 -0.59375 -1.890625q-0.578125 -0.671875 -1.453125 -0.671875q-0.625 0 -1.171875 0.34375q-0.53125 0.328125 -1.0 0.984375q-0.453125 0.65625 -0.765625 1.609375q-0.296875 0.953125 -0.296875 1.671875z" fill-rule="nonzero"/><path fill="#000000" fill-opacity="0.0" d="m289.71652 208.3202l97.7323 0l0 42.015747l-97.7323 0z" fill-rule="evenodd"/><path fill="#000000" d="m351.31393 235.2402l0 -9.890625l1.796875 0l0 9.890625l-1.796875 0zm0 -11.6875l0 -1.796875l1.796875 0l0 1.796875l-1.796875 0zm5.3928223 15.28125l0 -13.484375l1.796875 0l0 1.859375q0.546875 -1.046875 1.375 -1.5625q0.828125 -0.515625 1.921875 -0.515625q1.84375 0 2.84375 1.34375q1.0 1.34375 1.0 3.515625q0 1.421875 -0.46875 2.703125q-0.46875 1.265625 -1.453125 2.03125q-0.96875 0.75 -2.203125 0.75q-0.5 0 -1.3125 -0.15625q-0.796875 -0.140625 -1.703125 -1.203125l0 4.71875l-1.796875 0zm1.796875 -5.953125q0.921875 0.8125 1.46875 1.03125q0.546875 0.203125 1.171875 0.203125q1.3125 0 1.9375 -1.109375q0.640625 -1.109375 0.640625 -2.828125q0 -1.609375 -0.5625 -2.546875q-0.546875 -0.9375 -1.734375 -0.9375q-0.734375 0 -1.46875 0.40625q-0.734375 0.40625 -1.453125 1.21875l0 4.5625zm13.023376 2.359375l0 -12.140625l-2.125 0l0 -1.125l3.9375 -0.328125l0 13.59375l-1.8125 0z" fill-rule="nonzero"/><path fill="#000000" fill-opacity="0.0" d="m289.71652 248.88715l97.7323 0l0 42.015747l-97.7323 0z" fill-rule="evenodd"/><path fill="#000000" d="m351.31393 275.80713l0 -9.890625l1.796875 0l0 9.890625l-1.796875 0zm0 -11.6875l0 -1.796875l1.796875 0l0 1.796875l-1.796875 0zm5.3928223 15.28125l0 -13.484375l1.796875 0l0 1.859375q0.546875 -1.046875 1.375 -1.5625q0.828125 -0.515625 1.921875 -0.515625q1.84375 0 2.84375 1.34375q1.0 1.34375 1.0 3.515625q0 1.421875 -0.46875 2.703125q-0.46875 1.265625 -1.453125 2.03125q-0.96875 0.75 -2.203125 0.75q-0.5 0 -1.3125 -0.15625q-0.796875 -0.140625 -1.703125 -1.203125l0 4.71875l-1.796875 0zm1.796875 -5.953125q0.921875 0.8125 1.46875 1.03125q0.546875 0.203125 1.171875 0.203125q1.3125 0 1.9375 -1.109375q0.640625 -1.109375 0.640625 -2.828125q0 -1.609375 -0.5625 -2.546875q-0.546875 -0.9375 -1.734375 -0.9375q-0.734375 0 -1.46875 0.40625q-0.734375 0.40625 -1.453125 1.21875l0 4.5625zm9.695251 2.359375l0 -1.578125q0.78125 -1.828125 3.171875 -3.984375l1.03125 -0.921875q1.125 -1.015625 1.546875 -1.84375q0.4375 -0.828125 0.4375 -1.71875q0 -1.140625 -0.703125 -1.78125q-0.6875 -0.640625 -1.84375 -0.640625q-0.5 0 -0.96875 0.09375q-0.453125 0.09375 -0.984375 0.3125q-0.515625 0.203125 -1.34375 0.671875l0 -1.578125q1.796875 -0.84375 3.5625 -0.84375q1.9375 0 3.0625 1.0625q1.125 1.0625 1.125 2.65625q0 1.03125 -0.46875 1.953125q-0.453125 0.921875 -2.265625 2.46875l-0.6875 0.59375q-0.765625 0.640625 -1.53125 1.5625q-0.765625 0.90625 -0.96875 1.9375l5.859375 0l0 1.578125l-8.03125 0z" fill-rule="nonzero"/><path fill="#000000" fill-opacity="0.0" d="m474.7848 229.88715l125.35327 0l0 -141.92126l91.6861 0" fill-rule="evenodd"/><path stroke="#000000" stroke-width="3.0" stroke-linejoin="round" stroke-linecap="butt" d="m486.1548 229.88715l113.98328 0l0 -141.92126l73.6861 0" fill-rule="evenodd"/><path fill="#000000" stroke="#000000" stroke-width="3.0" stroke-linecap="butt" d="m476.2848 229.88715c0 -2.725525 2.2094727 -4.935013 4.9349976 -4.935013c2.725525 0 4.9349976 2.209488 4.9349976 4.935013c0 2.725525 -2.2094727 4.9349976 -4.9349976 4.9349976c-2.725525 0 -4.9349976 -2.2094727 -4.9349976 -4.9349976z" fill-rule="nonzero"/><path fill="#000000" stroke="#000000" stroke-width="3.0" stroke-linecap="butt" d="m673.82416 92.921074l13.614258 -4.9551926l-13.614258 -4.9552z" fill-rule="evenodd"/><path fill="#000000" fill-opacity="0.0" d="m474.7848 266.06036l161.16473 0l0 -106.425186l55.874634 0" fill-rule="evenodd"/><path stroke="#000000" stroke-width="3.0" stroke-linejoin="round" stroke-linecap="butt" d="m486.1548 266.06036l149.79474 0l0 -106.425186l37.874634 0" fill-rule="evenodd"/><path fill="#000000" stroke="#000000" stroke-width="3.0" stroke-linecap="butt" d="m476.2848 266.06036c0 -2.725525 2.2094727 -4.9349976 4.9349976 -4.9349976c2.725525 0 4.9349976 2.2094727 4.9349976 4.9349976c0 2.725525 -2.2094727 4.9349976 -4.9349976 4.9349976c-2.725525 0 -4.9349976 -2.2094727 -4.9349976 -4.9349976z" fill-rule="nonzero"/><path fill="#000000" stroke="#000000" stroke-width="3.0" stroke-linecap="butt" d="m673.82416 164.59036l13.614258 -4.955185l-13.614258 -4.9552z" fill-rule="evenodd"/></g></svg>