<svg version="1.1" viewBox="0.0 0.0 776.5433070866142 455.18372703412075" fill="none" stroke="none" stroke-linecap="square" stroke-miterlimit="10" xmlns:xlink="http://www.w3.org/1999/xlink" xmlns="http://www.w3.org/2000/svg"><clipPath id="p.0"><path d="m0 0l776.54333 0l0 455.18372l-776.54333 0l0 -455.18372z" clip-rule="nonzero"/></clipPath><g clip-path="url(#p.0)"><path fill="#000000" fill-opacity="0.0" d="m0 0l776.54333 0l0 455.18372l-776.54333 0z" fill-rule="evenodd"/><path fill="#000000" fill-opacity="0.0" d="m12.251968 10.349081l268.8819 0l0 124.44094l-268.8819 0z" fill-rule="evenodd"/><path fill="#000000" d="m24.830093 35.989082l-3.421875 -9.187502l1.65625 0l2.6875 7.140627l2.8125 -7.140627l1.546875 0l-3.625 9.187502l-1.65625 0zm10.718658 0.21875q-1.3125 0 -2.28125 -0.53125q-0.96875 -0.546875 -1.546875 -1.703125q-0.5625 -1.15625 -0.5625 -2.578127q0 -1.34375 0.515625 -2.484375q0.515625 -1.140625 1.5 -1.71875q0.984375 -0.59375 2.375 -0.59375q1.3125 0 2.28125 0.53125q0.96875 0.53125 1.53125 1.703125q0.5625 1.15625 0.5625 2.5625q0 1.3593769 -0.53125 2.500002q-0.515625 1.140625 -1.5 1.734375q-0.96875 0.578125 -2.34375 0.578125zm0 -1.265625q1.234375 0 1.921875 -0.921875q0.6875 -0.921875 0.6875 -2.625002q0 -1.703125 -0.6875 -2.625q-0.6875 -0.921875 -1.921875 -0.921875q-1.234375 0 -1.921875 0.921875q-0.6875 0.921875 -0.6875 2.625q0 1.7031269 0.6875 2.625002q0.6875 0.921875 1.921875 0.921875zm6.987686 1.046875l0 -9.187502l1.65625 0l0 9.187502l-1.65625 0zm0 -10.859377l0 -1.65625l1.65625 0l0 1.65625l-1.65625 0zm10.899536 10.859377l0 -1.71875q-0.5 0.953125 -1.265625 1.453125q-0.765625 0.484375 -1.796875 0.484375q-1.6875 0 -2.625 -1.25q-0.9375 -1.25 -0.9375 -3.281252q0 -2.171875 1.046875 -3.625q1.046875 -1.453125 2.875 -1.453125q0.53125 0 1.015625 0.125q0.484375 0.125 0.859375 0.359375q0.375 0.234375 0.828125 0.765625l0 -5.21875l1.671875 0l0 13.359377l-1.671875 0zm0 -7.000002q-0.859375 -0.765625 -1.375 -0.953125q-0.5 -0.1875 -1.078125 -0.1875q-1.21875 0 -1.8125 1.03125q-0.578125 1.015625 -0.578125 2.640625q0 1.4843769 0.515625 2.359377q0.515625 0.859375 1.609375 0.859375q0.703125 0 1.375 -0.375q0.6875 -0.390625 1.34375 -1.140625l0 -4.234377zm10.810837 7.000002l0 -7.937502l-1.3125 0l0 -1.25l1.3125 0l0 -1.09375q0 -1.140625 0.28125 -1.78125q0.296875 -0.65625 0.953125 -1.078125q0.671875 -0.4375 1.75 -0.4375q0.84375 0 1.90625 0.28125l0 1.328125q-1.125 -0.34375 -1.796875 -0.34375q-0.390625 0 -0.71875 0.125q-0.3125 0.109375 -0.515625 0.421875q-0.1875 0.3125 -0.1875 1.296875l0 1.28125l2.296875 0l0 1.25l-2.296875 0l0 7.937502l-1.671875 0zm11.793015 0l0 -1.71875q-0.640625 0.921875 -1.484375 1.4375q-0.828125 0.5 -1.734375 0.5q-1.15625 0 -1.890625 -0.734375q-0.734375 -0.75 -0.734375 -2.078125l0 -6.593752l1.671875 0l0 6.062502q0 0.953125 0.171875 1.265625q0.171875 0.296875 0.46875 0.46875q0.3125 0.15625 0.65625 0.15625q0.609375 0 1.328125 -0.375q0.71875 -0.375 1.546875 -1.625l0 -5.953127l1.671875 0l0 9.187502l-1.671875 0zm5.019562 0l0 -9.187502l1.65625 0l0 1.71875q0.640625 -0.921875 1.484375 -1.421875q0.84375 -0.5 1.75 -0.5q1.15625 0 1.890625 0.75q0.734375 0.734375 0.734375 2.046875l0 6.593752l-1.671875 0l0 -6.062502q0 -0.953125 -0.171875 -1.25q-0.171875 -0.3125 -0.484375 -0.46875q-0.296875 -0.171875 -0.640625 -0.171875q-0.625 0 -1.34375 0.390625q-0.703125 0.375 -1.546875 1.609375l0 5.953127l-1.65625 0zm17.128937 -0.28125q-1.609375 0.5 -2.796875 0.5q-1.21875 0 -2.25 -0.65625q-1.015625 -0.671875 -1.546875 -1.75q-0.515625 -1.09375 -0.515625 -2.453127q0 -2.03125 1.125 -3.390625q1.125 -1.359375 3.484375 -1.359375q1.078125 0 2.390625 0.296875l0 1.390625q-1.40625 -0.40625 -2.296875 -0.40625q-1.40625 0 -2.125 1.046875q-0.703125 1.03125 -0.703125 2.46875q0 1.5468769 0.796875 2.500002q0.8125 0.953125 2.078125 0.953125q1.15625 0 2.359375 -0.578125l0 1.4375zm5.844345 1.640625l0 1.140625q-1.390625 -0.9375 -2.25 -2.25q-0.84375 -1.296875 -1.28125 -2.765625q-0.4375 -1.4843769 -0.4375 -2.921877q0 -1.421875 0.4375 -2.890625q0.4375 -1.484375 1.28125 -2.78125q0.859375 -1.3125 2.25 -2.25l0 1.15625q-0.96875 1.03125 -1.421875 2.015625q-0.453125 0.96875 -0.671875 2.1875q-0.21875 1.21875 -0.21875 2.5625q0 1.359375 0.21875 2.578127q0.21875 1.21875 0.671875 2.203125q0.453125 0.96875 1.421875 2.015625zm1.2444 -13.562502l0 -1.15625q1.375 0.9375 2.234375 2.25q0.859375 1.296875 1.296875 2.78125q0.4375 1.484375 0.4375 2.890625q0 1.421875 -0.4375 2.906252q-0.4375 1.484375 -1.296875 2.796875q-0.859375 1.3125 -2.234375 2.234375l0 -1.140625q0.953125 -1.046875 1.40625 -2.015625q0.46875 -0.984375 0.671875 -2.203125q0.21875 -1.2343769 0.21875 -2.578127q0 -1.328125 -0.21875 -2.546875q-0.203125 -1.234375 -0.671875 -2.203125q-0.453125 -0.984375 -1.40625 -2.015625z" fill-rule="nonzero"/><path fill="#000000" d="m21.470718 50.72658l0.40625 0q1.296875 0 1.296875 -1.359375q0 -0.578125 -0.140625 -1.1875l-0.15625 -0.734375q-0.15625 -0.71875 -0.15625 -1.421875q0 -0.65625 0.359375 -1.25q0.359375 -0.59375 0.953125 -0.9375q0.609375 -0.34375 1.71875 -0.40625l0 1.25l-0.25 0q-0.4375 0 -0.890625 0.265625q-0.4375 0.265625 -0.4375 0.78125q0 0.203125 0.109375 0.8125l0.140625 0.859375q0.09375 0.546875 0.09375 1.328125q0 0.890625 -0.296875 1.5q-0.296875 0.59375 -0.953125 1.125q0.65625 0.5625 0.953125 1.15625q0.296875 0.59375 0.296875 1.5q0 0.765625 -0.09375 1.3125l-0.140625 0.875q-0.109375 0.609375 -0.109375 0.8125q0 0.5 0.4375 0.765625q0.4375 0.265625 0.890625 0.265625l0.25 0l0 1.25q-1.109375 -0.0625 -1.71875 -0.40625q-0.59375 -0.34375 -0.953125 -0.9375q-0.359375 -0.59375 -0.359375 -1.25q0 -0.703125 0.15625 -1.421875l0.15625 -0.734375q0.140625 -0.609375 0.140625 -1.203125q0 -1.359375 -1.296875 -1.359375l-0.40625 0l0 -1.25z" fill-rule="nonzero"/><path fill="#000000" d="m44.85475 77.58908l0 -9.1875l1.65625 0l0 9.1875l-1.65625 0zm0 -10.859375l0 -1.65625l1.65625 0l0 1.65625l-1.65625 0zm5.008911 10.859375l0 -9.1875l1.65625 0l0 1.71875q0.640625 -0.921875 1.484375 -1.421875q0.84375 -0.5 1.75 -0.5q1.15625 0 1.890625 0.75q0.734375 0.734375 0.734375 2.046875l0 6.59375l-1.671875 0l0 -6.0625q0 -0.953125 -0.171875 -1.25q-0.171875 -0.3125 -0.484375 -0.46875q-0.296875 -0.171875 -0.640625 -0.171875q-0.625 0 -1.34375 0.390625q-0.703125 0.375 -1.546875 1.609375l0 5.953125l-1.65625 0zm14.847687 0q-0.78125 0.21875 -1.34375 0.21875q-1.234375 0 -1.96875 -0.71875q-0.71875 -0.71875 -0.71875 -2.03125l0 -5.40625l-1.15625 0l0 -1.25l1.15625 0l0 -1.671875l1.671875 -0.15625l0 1.828125l2.390625 0l0 1.25l-2.390625 0l0 5.09375q0 0.96875 0.359375 1.390625q0.375 0.40625 1.1875 0.40625q0.328125 0 0.8125 -0.109375l0 1.15625zm7.762375 -10.90625l0.375 1.1875l-2.5625 0.5625l0.015625 -0.125q0 -0.34375 -0.234375 -0.5625l2.40625 -1.0625zm-0.46875 3.8125l-1.015625 0.734375l-1.328125 -2.25q0.171875 -0.015625 0.34375 -0.140625q0.171875 -0.125 0.25 -0.296875l1.75 1.953125zm-3.78125 0.734375l-1.015625 -0.734375l1.75 -1.953125q0.078125 0.1875 0.25 0.3125q0.171875 0.109375 0.34375 0.125l-1.328125 2.25zm-1.859375 -3.359375l0.375 -1.1875l2.40625 1.0625q-0.234375 0.203125 -0.234375 0.5625l0.015625 0.125l-2.5625 -0.5625zm2.609375 -2.796875l1.265625 0l-0.265625 2.59375q-0.15625 -0.09375 -0.359375 -0.09375q-0.21875 0 -0.375 0.09375l-0.265625 -2.59375zm11.95874 12.515625l0 -9.1875l1.65625 0l0 9.1875l-1.65625 0zm0 -10.859375l0 -1.65625l1.65625 0l0 1.65625l-1.65625 0zm5.008911 14.203125l0 -12.53125l1.65625 0l0 1.71875q0.515625 -0.953125 1.28125 -1.4375q0.765625 -0.484375 1.796875 -0.484375q1.703125 0 2.625 1.25q0.9375 1.25 0.9375 3.265625q0 1.3125 -0.4375 2.5q-0.421875 1.1875 -1.34375 1.890625q-0.90625 0.703125 -2.046875 0.703125q-0.46875 0 -1.21875 -0.140625q-0.734375 -0.140625 -1.59375 -1.125l0 4.390625l-1.65625 0zm1.65625 -5.53125q0.859375 0.75 1.359375 0.953125q0.515625 0.1875 1.09375 0.1875q1.234375 0 1.8125 -1.03125q0.59375 -1.03125 0.59375 -2.625q0 -1.484375 -0.515625 -2.359375q-0.515625 -0.875 -1.609375 -0.875q-0.703125 0 -1.390625 0.375q-0.671875 0.375 -1.34375 1.140625l0 4.234375zm12.10936 2.1875l0 -11.265625l-1.96875 0l0 -1.046875l3.640625 -0.3125l0 12.625l-1.671875 0zm12.799103 -2.921875l0 -1.25l9.1875 0l0 1.25l-9.1875 0zm0 -2.921875l0 -1.25l9.1875 0l0 1.25l-9.1875 0zm17.220978 5.84375l0 -9.1875l1.65625 0l0 1.71875q0.640625 -0.921875 1.484375 -1.421875q0.84375 -0.5 1.75 -0.5q1.15625 0 1.890625 0.75q0.734375 0.734375 0.734375 2.046875l0 6.59375l-1.671875 0l0 -6.0625q0 -0.953125 -0.171875 -1.25q-0.171875 -0.3125 -0.484375 -0.46875q-0.296875 -0.171875 -0.640625 -0.171875q-0.625 0 -1.34375 0.390625q-0.703125 0.375 -1.546875 1.609375l0 5.953125l-1.65625 0zm17.488312 -0.296875q-1.6875 0.515625 -2.875 0.515625q-2.140625 0 -3.375 -1.4375q-1.21875 -1.453125 -1.21875 -3.421875q0 -1.296875 0.53125 -2.453125q0.546875 -1.171875 1.421875 -1.734375q0.890625 -0.578125 2.0625 -0.578125q1.59375 0 2.53125 1.15625q0.953125 1.140625 0.953125 3.40625l0 0.515625l-5.796875 0q0.140625 1.21875 0.515625 1.875q0.390625 0.65625 1.03125 1.03125q0.65625 0.359375 1.65625 0.359375q0.515625 0 1.015625 -0.078125q0.5 -0.09375 1.546875 -0.46875l0 1.3125zm-5.6875 -5.28125l4.046875 0q0 -1.390625 -0.546875 -1.96875q-0.53125 -0.59375 -1.359375 -0.59375q-0.953125 0 -1.5 0.640625q-0.53125 0.625 -0.640625 1.921875zm9.669632 5.578125l-2.640625 -9.1875l1.640625 0l2.015625 7.109375l2.171875 -7.109375l1.671875 0l1.90625 7.109375l2.296875 -7.109375l1.4375 0l-3.0 9.1875l-1.671875 0l-1.953125 -7.109375l-2.1875 7.109375l-1.6875 0zm17.771683 0l0 -9.1875l1.65625 0l0 9.1875l-1.65625 0zm0 -10.859375l0 -1.65625l1.65625 0l0 1.65625l-1.65625 0zm5.008911 10.859375l0 -9.1875l1.65625 0l0 1.71875q0.640625 -0.921875 1.484375 -1.421875q0.84375 -0.5 1.75 -0.5q1.15625 0 1.890625 0.75q0.734375 0.734375 0.734375 2.046875l0 6.59375l-1.671875 0l0 -6.0625q0 -0.953125 -0.171875 -1.25q-0.171875 -0.3125 -0.484375 -0.46875q-0.296875 -0.171875 -0.640625 -0.171875q-0.625 0 -1.34375 0.390625q-0.703125 0.375 -1.546875 1.609375l0 5.953125l-1.65625 0zm14.847687 0q-0.78125 0.21875 -1.34375 0.21875q-1.234375 0 -1.96875 -0.71875q-0.71875 -0.71875 -0.71875 -2.03125l0 -5.40625l-1.15625 0l0 -1.25l1.15625 0l0 -1.671875l1.671875 -0.15625l0 1.828125l2.390625 0l0 1.25l-2.390625 0l0 5.09375q0 0.96875 0.359375 1.390625q0.375 0.40625 1.1875 0.40625q0.328125 0 0.8125 -0.109375l0 1.15625zm11.213852 1.359375l0 1.140625q-1.390625 -0.9375 -2.25 -2.25q-0.84375 -1.296875 -1.28125 -2.765625q-0.4375 -1.484375 -0.4375 -2.921875q0 -1.421875 0.4375 -2.890625q0.4375 -1.484375 1.28125 -2.78125q0.859375 -1.3125 2.25 -2.25l0 1.15625q-0.96875 1.03125 -1.421875 2.015625q-0.453125 0.96875 -0.671875 2.1875q-0.21875 1.21875 -0.21875 2.5625q0 1.359375 0.21875 2.578125q0.21875 1.21875 0.671875 2.203125q0.453125 0.96875 1.421875 2.015625zm5.15065 -1.359375l0 -11.265625l-1.96875 0l0 -1.046875l3.640625 -0.3125l0 12.625l-1.671875 0zm7.8632507 0l0 -1.46875q0.734375 -1.703125 2.9375 -3.703125l0.96875 -0.859375q1.03125 -0.9375 1.4375 -1.703125q0.40625 -0.765625 0.40625 -1.59375q0 -1.0625 -0.65625 -1.65625q-0.640625 -0.59375 -1.71875 -0.59375q-0.46875 0 -0.890625 0.09375q-0.421875 0.078125 -0.921875 0.28125q-0.484375 0.1875 -1.25 0.625l0 -1.46875q1.671875 -0.78125 3.3125 -0.78125q1.8125 0 2.84375 0.984375q1.046875 0.984375 1.046875 2.46875q0 0.96875 -0.4375 1.828125q-0.421875 0.84375 -2.109375 2.28125l-0.640625 0.546875q-0.703125 0.59375 -1.421875 1.453125q-0.703125 0.84375 -0.890625 1.796875l5.4375 0l0 1.46875l-7.453125 0zm11.285126 -0.09375l0 -1.5625q1.78125 0.71875 2.796875 0.71875q1.203125 0 1.953125 -0.6875q0.765625 -0.703125 0.765625 -1.8125q0 -1.09375 -0.78125 -1.859375q-0.765625 -0.78125 -2.921875 -0.78125l-0.65625 0l0 -1.125l0.578125 -0.015625q2.015625 0 2.734375 -0.734375q0.734375 -0.734375 0.734375 -1.703125q0 -0.875 -0.578125 -1.390625q-0.578125 -0.53125 -1.71875 -0.53125q-1.234375 0 -2.75 0.703125l0 -1.46875q1.078125 -0.359375 1.671875 -0.421875q0.609375 -0.0625 1.1875 -0.0625q1.984375 0 2.921875 0.796875q0.9375 0.78125 0.9375 2.09375q0 0.734375 -0.265625 1.296875q-0.265625 0.546875 -0.828125 1.03125q-0.546875 0.484375 -1.515625 0.828125q1.234375 0.28125 1.828125 0.734375q0.59375 0.453125 0.890625 1.125q0.3125 0.671875 0.3125 1.453125q0 1.46875 -1.015625 2.625q-1.0 1.15625 -3.359375 1.15625q-1.171875 0 -2.921875 -0.40625zm9.816376 -12.109375l0 -1.15625q1.375 0.9375 2.234375 2.25q0.859375 1.296875 1.296875 2.78125q0.4375 1.484375 0.4375 2.890625q0 1.421875 -0.4375 2.90625q-0.4375 1.484375 -1.296875 2.796875q-0.859375 1.3125 -2.234375 2.234375l0 -1.140625q0.953125 -1.046875 1.40625 -2.015625q0.46875 -0.984375 0.671875 -2.203125q0.21875 -1.234375 0.21875 -2.578125q0 -1.328125 -0.21875 -2.546875q-0.203125 -1.234375 -0.671875 -2.203125q-0.453125 -0.984375 -1.40625 -2.015625zm6.916275 14.921875l0 -0.625q0.3125 -0.171875 0.453125 -0.546875q0.140625 -0.375 0.140625 -1.359375l0 -0.1875l-0.59375 0l0 -1.671875l1.671875 0l0 1.40625q0 1.09375 -0.1875 1.578125q-0.1875 0.5 -0.59375 0.890625q-0.40625 0.390625 -0.890625 0.515625zm0 -10.234375l0 -1.671875l1.671875 0l0 1.671875l-1.671875 0z" fill-rule="nonzero"/><path fill="#000000" d="m44.85475 98.38908l0 -9.1875l1.65625 0l0 9.1875l-1.65625 0zm0 -10.859375l0 -1.65625l1.65625 0l0 1.65625l-1.65625 0zm5.008911 10.859375l0 -9.1875l1.65625 0l0 1.71875q0.640625 -0.921875 1.484375 -1.421875q0.84375 -0.5 1.75 -0.5q1.15625 0 1.890625 0.75q0.734375 0.734375 0.734375 2.046875l0 6.59375l-1.671875 0l0 -6.0625q0 -0.953125 -0.171875 -1.25q-0.171875 -0.3125 -0.484375 -0.46875q-0.296875 -0.171875 -0.640625 -0.171875q-0.625 0 -1.34375 0.390625q-0.703125 0.375 -1.546875 1.609375l0 5.953125l-1.65625 0zm14.847687 0q-0.78125 0.21875 -1.34375 0.21875q-1.234375 0 -1.96875 -0.71875q-0.71875 -0.71875 -0.71875 -2.03125l0 -5.40625l-1.15625 0l0 -1.25l1.15625 0l0 -1.671875l1.671875 -0.15625l0 1.828125l2.390625 0l0 1.25l-2.390625 0l0 5.09375q0 0.96875 0.359375 1.390625q0.375 0.40625 1.1875 0.40625q0.328125 0 0.8125 -0.109375l0 1.15625zm7.762375 -10.90625l0.375 1.1875l-2.5625 0.5625l0.015625 -0.125q0 -0.34375 -0.234375 -0.5625l2.40625 -1.0625zm-0.46875 3.8125l-1.015625 0.734375l-1.328125 -2.25q0.171875 -0.015625 0.34375 -0.140625q0.171875 -0.125 0.25 -0.296875l1.75 1.953125zm-3.78125 0.734375l-1.015625 -0.734375l1.75 -1.953125q0.078125 0.1875 0.25 0.3125q0.171875 0.109375 0.34375 0.125l-1.328125 2.25zm-1.859375 -3.359375l0.375 -1.1875l2.40625 1.0625q-0.234375 0.203125 -0.234375 0.5625l0.015625 0.125l-2.5625 -0.5625zm2.609375 -2.796875l1.265625 0l-0.265625 2.59375q-0.15625 -0.09375 -0.359375 -0.09375q-0.21875 0 -0.375 0.09375l-0.265625 -2.59375zm11.95874 12.515625l0 -9.1875l1.65625 0l0 9.1875l-1.65625 0zm0 -10.859375l0 -1.65625l1.65625 0l0 1.65625l-1.65625 0zm5.008911 14.203125l0 -12.53125l1.65625 0l0 1.71875q0.515625 -0.953125 1.28125 -1.4375q0.765625 -0.484375 1.796875 -0.484375q1.703125 0 2.625 1.25q0.9375 1.25 0.9375 3.265625q0 1.3125 -0.4375 2.5q-0.421875 1.1875 -1.34375 1.890625q-0.90625 0.703125 -2.046875 0.703125q-0.46875 0 -1.21875 -0.140625q-0.734375 -0.140625 -1.59375 -1.125l0 4.390625l-1.65625 0zm1.65625 -5.53125q0.859375 0.75 1.359375 0.953125q0.515625 0.1875 1.09375 0.1875q1.234375 0 1.8125 -1.03125q0.59375 -1.03125 0.59375 -2.625q0 -1.484375 -0.515625 -2.359375q-0.515625 -0.875 -1.609375 -0.875q-0.703125 0 -1.390625 0.375q-0.671875 0.375 -1.34375 1.140625l0 4.234375zm9.01561 2.1875l0 -1.46875q0.734375 -1.703125 2.9375 -3.703125l0.96875 -0.859375q1.03125 -0.9375 1.4375 -1.703125q0.40625 -0.765625 0.40625 -1.59375q0 -1.0625 -0.65625 -1.65625q-0.640625 -0.59375 -1.71875 -0.59375q-0.46875 0 -0.890625 0.09375q-0.421875 0.078125 -0.921875 0.28125q-0.484375 0.1875 -1.25 0.625l0 -1.46875q1.671875 -0.78125 3.3125 -0.78125q1.8125 0 2.84375 0.984375q1.046875 0.984375 1.046875 2.46875q0 0.96875 -0.4375 1.828125q-0.421875 0.84375 -2.109375 2.28125l-0.640625 0.546875q-0.703125 0.59375 -1.421875 1.453125q-0.703125 0.84375 -0.890625 1.796875l5.4375 0l0 1.46875l-7.453125 0zm15.892853 -2.921875l0 -1.25l9.1875 0l0 1.25l-9.1875 0zm0 -2.921875l0 -1.25l9.1875 0l0 1.25l-9.1875 0zm17.220978 5.84375l0 -9.1875l1.65625 0l0 1.71875q0.640625 -0.921875 1.484375 -1.421875q0.84375 -0.5 1.75 -0.5q1.15625 0 1.890625 0.75q0.734375 0.734375 0.734375 2.046875l0 6.59375l-1.671875 0l0 -6.0625q0 -0.953125 -0.171875 -1.25q-0.171875 -0.3125 -0.484375 -0.46875q-0.296875 -0.171875 -0.640625 -0.171875q-0.625 0 -1.34375 0.390625q-0.703125 0.375 -1.546875 1.609375l0 5.953125l-1.65625 0zm17.488312 -0.296875q-1.6875 0.515625 -2.875 0.515625q-2.140625 0 -3.375 -1.4375q-1.21875 -1.453125 -1.21875 -3.421875q0 -1.296875 0.53125 -2.453125q0.546875 -1.171875 1.421875 -1.734375q0.890625 -0.578125 2.0625 -0.578125q1.59375 0 2.53125 1.15625q0.953125 1.140625 0.953125 3.40625l0 0.515625l-5.796875 0q0.140625 1.21875 0.515625 1.875q0.390625 0.65625 1.03125 1.03125q0.65625 0.359375 1.65625 0.359375q0.515625 0 1.015625 -0.078125q0.5 -0.09375 1.546875 -0.46875l0 1.3125zm-5.6875 -5.28125l4.046875 0q0 -1.390625 -0.546875 -1.96875q-0.53125 -0.59375 -1.359375 -0.59375q-0.953125 0 -1.5 0.640625q-0.53125 0.625 -0.640625 1.921875zm9.669632 5.578125l-2.640625 -9.1875l1.640625 0l2.015625 7.109375l2.171875 -7.109375l1.671875 0l1.90625 7.109375l2.296875 -7.109375l1.4375 0l-3.0 9.1875l-1.671875 0l-1.953125 -7.109375l-2.1875 7.109375l-1.6875 0zm17.771683 0l0 -9.1875l1.65625 0l0 9.1875l-1.65625 0zm0 -10.859375l0 -1.65625l1.65625 0l0 1.65625l-1.65625 0zm5.008911 10.859375l0 -9.1875l1.65625 0l0 1.71875q0.640625 -0.921875 1.484375 -1.421875q0.84375 -0.5 1.75 -0.5q1.15625 0 1.890625 0.75q0.734375 0.734375 0.734375 2.046875l0 6.59375l-1.671875 0l0 -6.0625q0 -0.953125 -0.171875 -1.25q-0.171875 -0.3125 -0.484375 -0.46875q-0.296875 -0.171875 -0.640625 -0.171875q-0.625 0 -1.34375 0.390625q-0.703125 0.375 -1.546875 1.609375l0 5.953125l-1.65625 0zm14.847687 0q-0.78125 0.21875 -1.34375 0.21875q-1.234375 0 -1.96875 -0.71875q-0.71875 -0.71875 -0.71875 -2.03125l0 -5.40625l-1.15625 0l0 -1.25l1.15625 0l0 -1.671875l1.671875 -0.15625l0 1.828125l2.390625 0l0 1.25l-2.390625 0l0 5.09375q0 0.96875 0.359375 1.390625q0.375 0.40625 1.1875 0.40625q0.328125 0 0.8125 -0.109375l0 1.15625zm11.213852 1.359375l0 1.140625q-1.390625 -0.9375 -2.25 -2.25q-0.84375 -1.296875 -1.28125 -2.765625q-0.4375 -1.484375 -0.4375 -2.921875q0 -1.421875 0.4375 -2.890625q0.4375 -1.484375 1.28125 -2.78125q0.859375 -1.3125 2.25 -2.25l0 1.15625q-0.96875 1.03125 -1.421875 2.015625q-0.453125 0.96875 -0.671875 2.1875q-0.21875 1.21875 -0.21875 2.5625q0 1.359375 0.21875 2.578125q0.21875 1.21875 0.671875 2.203125q0.453125 0.96875 1.421875 2.015625zm7.135025 -1.359375l0 -3.546875l-5.625 0l0 -1.265625l5.625 -7.703125l1.578125 0l0 7.609375l1.671875 0l0 1.359375l-1.671875 0l0 3.546875l-1.578125 0zm-4.0 -4.90625l4.125 0l0 -5.5625l-4.125 5.5625zm10.550751 4.953125l0 -1.484375q1.234375 0.5 2.359375 0.5q1.359375 0 2.0 -0.796875q0.65625 -0.796875 0.65625 -1.921875q0 -1.296875 -0.953125 -2.0625q-0.9375 -0.765625 -2.9375 -0.765625q-0.4375 0 -0.921875 0.046875l0 -6.078125l6.34375 0l0 1.453125l-4.875 0l0 3.296875q2.640625 0 3.875 1.203125q1.25 1.203125 1.25 2.96875q0 1.625 -1.125 2.765625q-1.125 1.140625 -3.515625 1.140625q-0.953125 0 -2.15625 -0.265625zm11.832001 -6.53125q0.46875 -0.625 0.90625 -0.921875q0.453125 -0.3125 0.96875 -0.46875q0.53125 -0.15625 1.125 -0.15625q1.0625 0 1.9375 0.515625q0.875 0.5 1.328125 1.390625q0.46875 0.875 0.46875 1.96875q0 1.1875 -0.546875 2.25q-0.53125 1.046875 -1.421875 1.640625q-0.875 0.578125 -2.1875 0.578125q-2.234375 0 -3.328125 -1.8125q-1.078125 -1.8125 -1.078125 -4.484375q0 -1.75 0.515625 -3.359375q0.53125 -1.625 1.609375 -2.5625q1.09375 -0.9375 2.984375 -0.9375q0.578125 0 1.109375 0.078125q0.546875 0.078125 1.6875 0.390625l0 1.453125q-1.765625 -0.671875 -2.90625 -0.671875q-1.671875 0 -2.421875 1.421875q-0.75 1.40625 -0.75 3.6875zm5.046875 2.65625q0 -1.5 -0.6875 -2.25q-0.6875 -0.765625 -1.703125 -0.765625q-0.859375 0 -1.734375 0.625q-0.859375 0.625 -0.859375 1.796875q0 1.21875 0.59375 2.359375q0.609375 1.125 2.046875 1.125q1.03125 0 1.6875 -0.75q0.65625 -0.765625 0.65625 -2.140625zm3.5507507 -8.375l0 -1.15625q1.375 0.9375 2.234375 2.25q0.859375 1.296875 1.296875 2.78125q0.4375 1.484375 0.4375 2.890625q0 1.421875 -0.4375 2.90625q-0.4375 1.484375 -1.296875 2.796875q-0.859375 1.3125 -2.234375 2.234375l0 -1.140625q0.953125 -1.046875 1.40625 -2.015625q0.46875 -0.984375 0.671875 -2.203125q0.21875 -1.234375 0.21875 -2.578125q0 -1.328125 -0.21875 -2.546875q-0.203125 -1.234375 -0.671875 -2.203125q-0.453125 -0.984375 -1.40625 -2.015625zm6.916275 14.921875l0 -0.625q0.3125 -0.171875 0.453125 -0.546875q0.140625 -0.375 0.140625 -1.359375l0 -0.1875l-0.59375 0l0 -1.671875l1.671875 0l0 1.40625q0 1.09375 -0.1875 1.578125q-0.1875 0.5 -0.59375 0.890625q-0.40625 0.390625 -0.890625 0.515625zm0 -10.234375l0 -1.671875l1.671875 0l0 1.671875l-1.671875 0z" fill-rule="nonzero"/><path fill="#000000" d="m26.689468 114.37658l-0.421875 0q-1.296875 0 -1.296875 1.375q0 0.578125 0.140625 1.1875l0.15625 0.734375q0.171875 0.71875 0.171875 1.421875q0 0.65625 -0.375 1.25q-0.359375 0.59375 -0.953125 0.9375q-0.59375 0.34375 -1.703125 0.40625l0 -1.25l0.234375 0q0.46875 0 0.890625 -0.265625q0.4375 -0.265625 0.4375 -0.765625q0 -0.234375 -0.109375 -0.8125l-0.140625 -0.875q-0.09375 -0.53125 -0.09375 -1.328125q0 -0.875 0.28125 -1.46875q0.296875 -0.59375 0.953125 -1.171875q-0.640625 -0.546875 -0.9375 -1.140625q-0.296875 -0.59375 -0.296875 -1.5q0 -0.765625 0.09375 -1.3125l0.140625 -0.859375q0.109375 -0.59375 0.109375 -0.828125q0 -0.5 -0.4375 -0.765625q-0.4375 -0.265625 -0.890625 -0.265625l-0.234375 0l0 -1.25q1.109375 0.0625 1.703125 0.40625q0.59375 0.34375 0.953125 0.9375q0.375 0.59375 0.375 1.265625q0 0.6875 -0.171875 1.40625l-0.15625 0.734375q-0.140625 0.609375 -0.140625 1.203125q0 1.34375 1.296875 1.34375l0.421875 0l0 1.25z" fill-rule="nonzero"/><path fill="#000000" fill-opacity="0.0" d="m281.13385 10.349081l176.25198 0l0 398.64566l-176.25198 0z" fill-rule="evenodd"/><path stroke="#000000" stroke-width="3.0" stroke-linejoin="round" stroke-linecap="butt" d="m281.13385 10.349081l176.25198 0l0 398.64566l-176.25198 0z" fill-rule="evenodd"/><path fill="#b7b7b7" d="m281.13385 294.9475l176.25198 0l0 114.04724l-176.25198 0z" fill-rule="evenodd"/><path stroke="#000000" stroke-width="3.0" stroke-linejoin="round" stroke-linecap="butt" d="m281.13385 294.9475l176.25198 0l0 114.04724l-176.25198 0z" fill-rule="evenodd"/><path fill="#000000" fill-opacity="0.0" d="m281.13385 213.81364l176.25198 0l0 40.56694l-176.25198 0z" fill-rule="evenodd"/><path stroke="#000000" stroke-width="3.0" stroke-linejoin="round" stroke-linecap="butt" d="m281.13385 213.81364l176.25198 0l0 40.56694l-176.25198 0z" fill-rule="evenodd"/><path fill="#000000" fill-opacity="0.0" d="m281.13385 254.38058l176.25198 0l0 40.566925l-176.25198 0z" fill-rule="evenodd"/><path stroke="#000000" stroke-width="3.0" stroke-linejoin="round" stroke-linecap="butt" d="m281.13385 254.38058l176.25198 0l0 40.566925l-176.25198 0z" fill-rule="evenodd"/><path fill="#000000" fill-opacity="0.0" d="m281.13385 408.99475l176.25198 0l0 42.015747l-176.25198 0z" fill-rule="evenodd"/><path fill="#000000" d="m347.24292 431.60223l1.75 -0.171875l-0.015625 0.46875q0 0.765625 0.34375 1.421875q0.359375 0.640625 1.171875 1.0q0.828125 0.34375 1.953125 0.34375q1.609375 0 2.453125 -0.703125q0.84375 -0.703125 0.84375 -1.609375q0 -0.625 -0.453125 -1.140625q-0.453125 -0.515625 -2.484375 -1.390625q-1.578125 -0.6875 -2.140625 -1.046875q-0.90625 -0.59375 -1.34375 -1.28125q-0.421875 -0.703125 -0.421875 -1.59375q0 -1.03125 0.5625 -1.859375q0.5625 -0.828125 1.65625 -1.265625q1.09375 -0.4375 2.453125 -0.4375q1.640625 0 2.75 0.546875q1.125 0.546875 1.625 1.453125q0.515625 0.90625 0.515625 1.734375q0 0.09375 -0.015625 0.28125l-1.71875 0.140625q0 -0.578125 -0.109375 -0.890625q-0.171875 -0.5625 -0.5625 -0.9375q-0.375 -0.390625 -1.046875 -0.609375q-0.671875 -0.234375 -1.5 -0.234375q-1.453125 0 -2.265625 0.65625q-0.625 0.5 -0.625 1.328125q0 0.484375 0.25 0.875q0.265625 0.390625 0.921875 0.765625q0.484375 0.265625 2.25 1.046875q1.453125 0.640625 2.0 1.0q0.71875 0.484375 1.109375 1.171875q0.390625 0.6875 0.390625 1.5625q0 1.078125 -0.65625 2.0q-0.65625 0.90625 -1.828125 1.421875q-1.15625 0.5 -2.671875 0.5q-2.265625 0 -3.703125 -0.984375q-1.421875 -1.0 -1.4375 -3.5625zm15.599823 2.96875l-0.265625 1.359375q-0.59375 0.140625 -1.15625 0.140625q-0.984375 0 -1.5625 -0.46875q-0.4375 -0.375 -0.4375 -1.0q0 -0.3125 0.234375 -1.46875l1.171875 -5.625l-1.296875 0l0.265625 -1.265625l1.296875 0l0.5 -2.375l1.890625 -1.140625l-0.734375 3.515625l1.625 0l-0.28125 1.265625l-1.609375 0l-1.125 5.359375q-0.203125 1.015625 -0.203125 1.21875q0 0.28125 0.15625 0.4375q0.171875 0.15625 0.5625 0.15625q0.546875 0 0.96875 -0.109375zm7.855194 0.140625q-0.859375 0.734375 -1.65625 1.078125q-0.78125 0.34375 -1.6875 0.34375q-1.34375 0 -2.171875 -0.78125q-0.8125 -0.796875 -0.8125 -2.03125q0 -0.796875 0.375 -1.421875q0.375 -0.625 0.984375 -1.0q0.609375 -0.390625 1.484375 -0.546875q0.5625 -0.109375 2.109375 -0.171875q1.5625 -0.0625 2.234375 -0.328125q0.1875 -0.671875 0.1875 -1.125q0 -0.578125 -0.421875 -0.90625q-0.5625 -0.453125 -1.671875 -0.453125q-1.03125 0 -1.703125 0.46875q-0.65625 0.453125 -0.953125 1.296875l-1.671875 -0.140625q0.515625 -1.4375 1.609375 -2.203125q1.109375 -0.765625 2.796875 -0.765625q1.796875 0 2.84375 0.859375q0.796875 0.625 0.796875 1.65625q0 0.765625 -0.21875 1.796875l-0.53125 2.40625q-0.265625 1.140625 -0.265625 1.859375q0 0.453125 0.203125 1.3125l-1.671875 0q-0.125 -0.46875 -0.1875 -1.203125zm0.609375 -3.703125q-0.34375 0.140625 -0.75 0.21875q-0.390625 0.0625 -1.3125 0.15625q-1.4375 0.125 -2.03125 0.328125q-0.59375 0.1875 -0.90625 0.625q-0.296875 0.421875 -0.296875 0.9375q0 0.6875 0.484375 1.140625q0.484375 0.4375 1.359375 0.4375q0.828125 0 1.578125 -0.421875q0.75 -0.4375 1.1875 -1.203125q0.4375 -0.78125 0.6875 -2.21875zm9.922577 1.375l1.65625 0.171875q-0.625 1.8125 -1.765625 2.703125q-1.140625 0.875 -2.609375 0.875q-1.578125 0 -2.5625 -1.015625q-0.96875 -1.03125 -0.96875 -2.859375q0 -1.578125 0.625 -3.109375q0.640625 -1.53125 1.796875 -2.328125q1.171875 -0.796875 2.6875 -0.796875q1.546875 0 2.453125 0.875q0.921875 0.875 0.921875 2.328125l-1.625 0.109375q-0.015625 -0.921875 -0.546875 -1.4375q-0.515625 -0.515625 -1.359375 -0.515625q-1.0 0 -1.734375 0.625q-0.71875 0.625 -1.140625 1.90625q-0.40625 1.28125 -0.40625 2.46875q0 1.234375 0.546875 1.859375q0.546875 0.609375 1.34375 0.609375q0.796875 0 1.53125 -0.609375q0.734375 -0.609375 1.15625 -1.859375zm2.671875 3.53125l2.796875 -13.359375l1.640625 0l-1.734375 8.28125l4.8125 -4.59375l2.171875 0l-4.125 3.609375l2.5 6.0625l-1.8125 0l-1.921875 -4.96875l-2.015625 1.734375l-0.671875 3.234375l-1.640625 0z" fill-rule="nonzero"/><path fill="#000000" fill-opacity="0.0" d="m585.5092 10.349081l176.25195 0l0 398.64566l-176.25195 0z" fill-rule="evenodd"/><path stroke="#000000" stroke-width="3.0" stroke-linejoin="round" stroke-linecap="butt" d="m585.5092 10.349081l176.25195 0l0 398.64566l-176.25195 0z" fill-rule="evenodd"/><path fill="#cccccc" d="m585.5092 72.45145l176.25195 0l0 40.566925l-176.25195 0z" fill-rule="evenodd"/><path stroke="#000000" stroke-width="3.0" stroke-linejoin="round" stroke-linecap="butt" d="m585.5092 72.45145l176.25195 0l0 40.566925l-176.25195 0z" fill-rule="evenodd"/><path fill="#000000" d="m660.815 99.65491l0 -12.140625l-2.125 0l0 -1.125l3.9375 -0.328125l0 13.59375l-1.8125 0zm8.468628 0l0 -1.578125q0.78125 -1.828125 3.171875 -3.984375l1.03125 -0.921875q1.125 -1.015625 1.546875 -1.84375q0.4375 -0.828125 0.4375 -1.71875q0 -1.140625 -0.703125 -1.78125q-0.6875 -0.640625 -1.84375 -0.640625q-0.5 0 -0.96875 0.09375q-0.453125 0.09375 -0.984375 0.3125q-0.515625 0.203125 -1.34375 0.671875l0 -1.578125q1.796875 -0.84375 3.5625 -0.84375q1.9375 0 3.0625 1.0625q1.125 1.0625 1.125 2.65625q0 1.03125 -0.46875 1.953125q-0.453125 0.921875 -2.265625 2.46875l-0.6875 0.59375q-0.765625 0.640625 -1.53125 1.5625q-0.765625 0.90625 -0.96875 1.9375l5.859375 0l0 1.578125l-8.03125 0zm12.140564 -0.09375l0 -1.6875q1.921875 0.765625 3.03125 0.765625q1.28125 0 2.09375 -0.75q0.8125 -0.75 0.8125 -1.9375q0 -1.171875 -0.828125 -2.0q-0.828125 -0.84375 -3.140625 -0.84375l-0.71875 0l0 -1.21875l0.625 0q2.171875 0 2.953125 -0.78125q0.78125 -0.796875 0.78125 -1.859375q0 -0.9375 -0.625 -1.5q-0.609375 -0.5625 -1.84375 -0.5625q-1.328125 0 -2.953125 0.75l0 -1.5625q1.15625 -0.390625 1.796875 -0.453125q0.65625 -0.078125 1.265625 -0.078125q2.140625 0 3.15625 0.859375q1.015625 0.84375 1.015625 2.265625q0 0.78125 -0.296875 1.390625q-0.28125 0.59375 -0.875 1.109375q-0.59375 0.515625 -1.640625 0.875q1.3125 0.3125 1.953125 0.796875q0.640625 0.484375 0.96875 1.21875q0.328125 0.71875 0.328125 1.5625q0 1.578125 -1.078125 2.828125q-1.078125 1.25 -3.625 1.25q-1.25 0 -3.15625 -0.4375z" fill-rule="nonzero"/><path fill="#cccccc" d="m585.5092 144.12073l176.25195 0l0 40.56694l-176.25195 0z" fill-rule="evenodd"/><path stroke="#000000" stroke-width="3.0" stroke-linejoin="round" stroke-linecap="butt" d="m585.5092 144.12073l176.25195 0l0 40.56694l-176.25195 0z" fill-rule="evenodd"/><path fill="#000000" d="m662.9556 171.3242l0 -3.8125l-6.0625 0l0 -1.359375l6.0625 -8.3125l1.6875 0l0 8.203125l1.8125 0l0 1.46875l-1.8125 0l0 3.8125l-1.6875 0zm-4.296875 -5.28125l4.421875 0l0 -6.0l-4.421875 6.0zm11.343628 5.328125l0 -1.59375q1.34375 0.53125 2.546875 0.53125q1.46875 0 2.15625 -0.859375q0.703125 -0.859375 0.703125 -2.0625q0 -1.390625 -1.015625 -2.21875q-1.015625 -0.828125 -3.171875 -0.828125q-0.484375 0 -0.984375 0.0625l0 -6.5625l6.8125 0l0 1.5625l-5.234375 0l0 3.5625q2.84375 0 4.171875 1.296875q1.328125 1.296875 1.328125 3.203125q0 1.75 -1.203125 2.984375q-1.203125 1.21875 -3.78125 1.21875q-1.03125 0 -2.328125 -0.296875zm12.734314 -7.03125q0.515625 -0.671875 0.984375 -1.0q0.484375 -0.328125 1.046875 -0.5q0.578125 -0.171875 1.203125 -0.171875q1.15625 0 2.09375 0.546875q0.9375 0.546875 1.421875 1.5q0.5 0.953125 0.5 2.125q0 1.296875 -0.578125 2.4375q-0.5625 1.125 -1.53125 1.765625q-0.953125 0.625 -2.359375 0.625q-2.40625 0 -3.578125 -1.953125q-1.15625 -1.96875 -1.15625 -4.828125q0 -1.890625 0.5625 -3.625q0.5625 -1.75 1.71875 -2.75q1.171875 -1.015625 3.203125 -1.015625q0.640625 0 1.21875 0.078125q0.578125 0.078125 1.8125 0.4375l0 1.5625q-1.90625 -0.734375 -3.140625 -0.734375q-1.796875 0 -2.609375 1.53125q-0.8125 1.515625 -0.8125 3.96875zm5.453125 2.859375q0 -1.609375 -0.75 -2.421875q-0.734375 -0.8125 -1.84375 -0.8125q-0.90625 0 -1.84375 0.671875q-0.9375 0.65625 -0.9375 1.9375q0 1.296875 0.640625 2.515625q0.65625 1.21875 2.203125 1.21875q1.109375 0 1.8125 -0.8125q0.71875 -0.8125 0.71875 -2.296875z" fill-rule="nonzero"/><path fill="#000000" fill-opacity="0.0" d="m585.5092 408.99475l176.25195 0l0 42.015747l-176.25195 0z" fill-rule="evenodd"/><path fill="#000000" d="m652.1164 435.91473l2.796875 -13.359375l1.78125 0l-1.15625 5.546875l6.921875 0l1.15625 -5.546875l1.78125 0l-2.78125 13.359375l-1.796875 0l1.3125 -6.296875l-6.90625 0l-1.328125 6.296875l-1.78125 0zm20.4104 -3.28125l1.609375 0.15625q-0.34375 1.1875 -1.59375 2.265625q-1.234375 1.078125 -2.96875 1.078125q-1.0625 0 -1.96875 -0.5q-0.890625 -0.5 -1.359375 -1.4375q-0.46875 -0.953125 -0.46875 -2.15625q0 -1.59375 0.734375 -3.078125q0.734375 -1.484375 1.890625 -2.203125q1.171875 -0.734375 2.53125 -0.734375q1.734375 0 2.765625 1.078125q1.03125 1.0625 1.03125 2.921875q0 0.71875 -0.125 1.46875l-7.125 0q-0.046875 0.28125 -0.046875 0.5q0 1.359375 0.625 2.078125q0.625 0.71875 1.53125 0.71875q0.84375 0 1.65625 -0.546875q0.828125 -0.5625 1.28125 -1.609375zm-4.78125 -2.40625l5.421875 0q0.015625 -0.25 0.015625 -0.359375q0 -1.234375 -0.625 -1.890625q-0.625 -0.671875 -1.59375 -0.671875q-1.0625 0 -1.9375 0.734375q-0.859375 0.71875 -1.28125 2.1875zm14.578857 4.484375q-0.859375 0.734375 -1.65625 1.078125q-0.78125 0.34375 -1.6875 0.34375q-1.34375 0 -2.171875 -0.78125q-0.8125 -0.796875 -0.8125 -2.03125q0 -0.796875 0.375 -1.421875q0.375 -0.625 0.984375 -1.0q0.609375 -0.390625 1.484375 -0.546875q0.5625 -0.109375 2.109375 -0.171875q1.5625 -0.0625 2.234375 -0.328125q0.1875 -0.671875 0.1875 -1.125q0 -0.578125 -0.421875 -0.90625q-0.5625 -0.453125 -1.671875 -0.453125q-1.03125 0 -1.703125 0.46875q-0.65625 0.453125 -0.953125 1.296875l-1.671875 -0.140625q0.515625 -1.4375 1.609375 -2.203125q1.109375 -0.765625 2.796875 -0.765625q1.796875 0 2.84375 0.859375q0.796875 0.625 0.796875 1.65625q0 0.765625 -0.21875 1.796875l-0.53125 2.40625q-0.265625 1.140625 -0.265625 1.859375q0 0.453125 0.203125 1.3125l-1.671875 0q-0.125 -0.46875 -0.1875 -1.203125zm0.609375 -3.703125q-0.34375 0.140625 -0.75 0.21875q-0.390625 0.0625 -1.3125 0.15625q-1.4375 0.125 -2.03125 0.328125q-0.59375 0.1875 -0.90625 0.625q-0.296875 0.421875 -0.296875 0.9375q0 0.6875 0.484375 1.140625q0.484375 0.4375 1.359375 0.4375q0.828125 0 1.578125 -0.421875q0.75 -0.4375 1.1875 -1.203125q0.4375 -0.78125 0.6875 -2.21875zm2.4382324 8.609375l2.796875 -13.375l1.515625 0l-0.28125 1.34375q0.84375 -0.875 1.515625 -1.21875q0.671875 -0.34375 1.421875 -0.34375q1.375 0 2.28125 1.015625q0.921875 1.0 0.921875 2.875q0 1.515625 -0.5 2.765625q-0.5 1.234375 -1.234375 2.0q-0.71875 0.75 -1.46875 1.109375q-0.75 0.34375 -1.53125 0.34375q-1.75 0 -2.703125 -1.765625l-1.09375 5.25l-1.640625 0zm3.25 -7.65625q0 1.078125 0.15625 1.5q0.234375 0.59375 0.75 0.96875q0.515625 0.359375 1.203125 0.359375q1.421875 0 2.296875 -1.59375q0.875 -1.609375 0.875 -3.28125q0 -1.21875 -0.59375 -1.890625q-0.578125 -0.671875 -1.453125 -0.671875q-0.625 0 -1.171875 0.34375q-0.53125 0.328125 -1.0 0.984375q-0.453125 0.65625 -0.765625 1.609375q-0.296875 0.953125 -0.296875 1.671875z" fill-rule="nonzero"/><path fill="#000000" fill-opacity="0.0" d="m183.40158 213.08923l97.73227 0l0 42.015747l-97.73227 0z" fill-rule="evenodd"/><path fill="#000000" d="m244.99898 240.00923l0 -9.890625l1.796875 0l0 9.890625l-1.796875 0zm0 -11.6875l0 -1.796875l1.796875 0l0 1.796875l-1.796875 0zm5.3928223 15.28125l0 -13.484375l1.796875 0l0 1.859375q0.546875 -1.046875 1.375 -1.5625q0.828125 -0.515625 1.921875 -0.515625q1.8437347 0 2.8437347 1.34375q1.0 1.34375 1.0 3.515625q0 1.421875 -0.46875 2.703125q-0.46875 1.265625 -1.453125 2.03125q-0.96875 0.75 -2.2031097 0.75q-0.5 0 -1.3125 -0.15625q-0.796875 -0.140625 -1.703125 -1.203125l0 4.71875l-1.796875 0zm1.796875 -5.953125q0.921875 0.8125 1.46875 1.03125q0.546875 0.203125 1.171875 0.203125q1.3124847 0 1.9374847 -1.109375q0.640625 -1.109375 0.640625 -2.828125q0 -1.609375 -0.5625 -2.546875q-0.546875 -0.9375 -1.7343597 -0.9375q-0.734375 0 -1.46875 0.40625q-0.734375 0.40625 -1.453125 1.21875l0 4.5625zm13.023392 2.359375l0 -12.140625l-2.125 0l0 -1.125l3.9375 -0.328125l0 13.59375l-1.8125 0z" fill-rule="nonzero"/><path fill="#000000" fill-opacity="0.0" d="m183.40158 253.65617l97.73227 0l0 42.01573l-97.73227 0z" fill-rule="evenodd"/><path fill="#000000" d="m244.99898 280.57617l0 -9.890625l1.796875 0l0 9.890625l-1.796875 0zm0 -11.6875l0 -1.796875l1.796875 0l0 1.796875l-1.796875 0zm5.3928223 15.28125l0 -13.484375l1.796875 0l0 1.859375q0.546875 -1.046875 1.375 -1.5625q0.828125 -0.515625 1.921875 -0.515625q1.8437347 0 2.8437347 1.34375q1.0 1.34375 1.0 3.515625q0 1.421875 -0.46875 2.703125q-0.46875 1.265625 -1.453125 2.03125q-0.96875 0.75 -2.2031097 0.75q-0.5 0 -1.3125 -0.15625q-0.796875 -0.140625 -1.703125 -1.203125l0 4.71875l-1.796875 0zm1.796875 -5.953125q0.921875 0.8125 1.46875 1.03125q0.546875 0.203125 1.171875 0.203125q1.3124847 0 1.9374847 -1.109375q0.640625 -1.109375 0.640625 -2.828125q0 -1.609375 -0.5625 -2.546875q-0.546875 -0.9375 -1.7343597 -0.9375q-0.734375 0 -1.46875 0.40625q-0.734375 0.40625 -1.453125 1.21875l0 4.5625zm9.695267 2.359375l0 -1.578125q0.78125 -1.828125 3.171875 -3.984375l1.03125 -0.921875q1.125 -1.015625 1.546875 -1.84375q0.4375 -0.828125 0.4375 -1.71875q0 -1.140625 -0.703125 -1.78125q-0.6875 -0.640625 -1.84375 -0.640625q-0.5 0 -0.96875 0.09375q-0.453125 0.09375 -0.984375 0.3125q-0.515625 0.203125 -1.34375 0.671875l0 -1.578125q1.796875 -0.84375 3.5625 -0.84375q1.9375 0 3.0625 1.0625q1.125 1.0625 1.125 2.65625q0 1.03125 -0.46875 1.953125q-0.453125 0.921875 -2.265625 2.46875l-0.6875 0.59375q-0.765625 0.640625 -1.53125 1.5625q-0.765625 0.90625 -0.96875 1.9375l5.859375 0l0 1.578125l-8.03125 0z" fill-rule="nonzero"/><path fill="#000000" fill-opacity="0.0" d="m368.46982 234.65617l125.35327 0l0 -141.92126l91.68613 0" fill-rule="evenodd"/><path stroke="#000000" stroke-width="3.0" stroke-linejoin="round" stroke-linecap="butt" d="m379.8398 234.65617l113.98328 0l0 -141.92126l73.68613 0" fill-rule="evenodd"/><path fill="#000000" stroke="#000000" stroke-width="3.0" stroke-linecap="butt" d="m369.96982 234.65617c0 -2.725525 2.2094727 -4.935013 4.9349976 -4.935013c2.725525 0 4.9349976 2.209488 4.9349976 4.935013c0 2.725525 -2.2094727 4.9349976 -4.9349976 4.9349976c-2.725525 0 -4.9349976 -2.2094727 -4.9349976 -4.9349976z" fill-rule="nonzero"/><path fill="#000000" stroke="#000000" stroke-width="3.0" stroke-linecap="butt" d="m567.5092 97.69011l13.614258 -4.9552l-13.614258 -4.9552z" fill-rule="evenodd"/><path fill="#000000" fill-opacity="0.0" d="m368.46982 270.8294l161.16476 0l0 -106.4252l55.874634 0" fill-rule="evenodd"/><path stroke="#000000" stroke-width="3.0" stroke-linejoin="round" stroke-linecap="butt" d="m379.8398 270.8294l149.79477 0l0 -106.4252l37.874634 0" fill-rule="evenodd"/><path fill="#000000" stroke="#000000" stroke-width="3.0" stroke-linecap="butt" d="m369.96982 270.8294c0 -2.725525 2.2094727 -4.9349976 4.9349976 -4.9349976c2.725525 0 4.9349976 2.2094727 4.9349976 4.9349976c0 2.725525 -2.2094727 4.9349976 -4.9349976 4.9349976c-2.725525 0 -4.9349976 -2.2094727 -4.9349976 -4.9349976z" fill-rule="nonzero"/><path fill="#000000" stroke="#000000" stroke-width="3.0" stroke-linecap="butt" d="m567.5092 169.35939l13.614258 -4.955185l-13.614258 -4.9552z" fill-rule="evenodd"/></g></svg>