<svg version="1.1" viewBox="0.0 0.0 646.0 281.0" fill="none" stroke="none" stroke-linecap="square" stroke-miterlimit="10" xmlns:xlink="http://www.w3.org/1999/xlink" xmlns="http://www.w3.org/2000/svg"><clipPath id="p.0"><path d="m0 0l646.0 0l0 281.0l-646.0 0l0 -281.0z" clip-rule="nonzero"/></clipPath><g clip-path="url(#p.0)"><path fill="#000000" fill-opacity="0.0" d="m0 0l646.0 0l0 281.0l-646.0 0z" fill-rule="evenodd"/><path fill="#000000" fill-opacity="0.0" d="m0 30.708662l135.14961 0l0 64.62992l-135.14961 0z" fill-rule="evenodd"/><path fill="#000000" d="m10.796875 57.62866l0 -9.890625l1.796875 0l0 9.890625l-1.796875 0zm0 -11.6875l0 -1.796875l1.796875 0l0 1.796875l-1.796875 0zm5.3928223 11.6875l0 -9.890625l1.796875 0l0 1.859375q0.671875 -1.0 1.578125 -1.53125q0.90625 -0.546875 1.890625 -0.546875q1.25 0 2.03125 0.796875q0.796875 0.796875 0.796875 2.203125l0 7.109375l-1.796875 0l0 -6.515625q0 -1.03125 -0.1875 -1.359375q-0.1875 -0.328125 -0.515625 -0.5q-0.328125 -0.1875 -0.6875 -0.1875q-0.671875 0 -1.453125 0.40625q-0.765625 0.40625 -1.65625 1.75l0 6.40625l-1.796875 0zm15.984421 0q-0.828125 0.234375 -1.4375 0.234375q-1.328125 0 -2.109375 -0.765625q-0.78125 -0.78125 -0.78125 -2.203125l0 -5.8125l-1.25 0l0 -1.34375l1.25 0l0 -1.796875l1.78125 -0.171875l0 1.96875l2.59375 0l0 1.34375l-2.59375 0l0 5.484375q0 1.046875 0.40625 1.5q0.40625 0.4375 1.28125 0.4375q0.34375 0 0.859375 -0.109375l0 1.234375zm8.474579 0l0 -9.890625l1.796875 0l0 1.859375q0.671875 -1.0 1.578125 -1.53125q0.90625 -0.546875 1.890625 -0.546875q1.25 0 2.03125 0.796875q0.796875 0.796875 0.796875 2.203125l0 7.109375l-1.796875 0l0 -6.515625q0 -1.03125 -0.1875 -1.359375q-0.1875 -0.328125 -0.515625 -0.5q-0.328125 -0.1875 -0.6875 -0.1875q-0.671875 0 -1.453125 0.40625q-0.765625 0.40625 -1.65625 1.75l0 6.40625l-1.796875 0zm11.828171 2.921875l0 -0.671875q0.34375 -0.1875 0.5 -0.59375q0.15625 -0.40625 0.15625 -1.453125l0 -0.203125l-0.65625 0l0 -1.796875l1.796875 0l0 1.515625q0 1.171875 -0.203125 1.703125q-0.203125 0.53125 -0.640625 0.953125q-0.4375 0.421875 -0.953125 0.546875zm0 -11.015625l0 -1.796875l1.796875 0l0 1.796875l-1.796875 0z" fill-rule="nonzero"/><path fill="#000000" d="m10.796875 80.028656l0 -9.890625l1.796875 0l0 9.890625l-1.796875 0zm0 -11.6875l0 -1.796875l1.796875 0l0 1.796875l-1.796875 0zm5.3928223 11.6875l0 -9.890625l1.796875 0l0 1.859375q0.671875 -1.0 1.578125 -1.53125q0.90625 -0.546875 1.890625 -0.546875q1.25 0 2.03125 0.796875q0.796875 0.796875 0.796875 2.203125l0 7.109375l-1.796875 0l0 -6.515625q0 -1.03125 -0.1875 -1.359375q-0.1875 -0.328125 -0.515625 -0.5q-0.328125 -0.1875 -0.6875 -0.1875q-0.671875 0 -1.453125 0.40625q-0.765625 0.40625 -1.65625 1.75l0 6.40625l-1.796875 0zm15.984421 0q-0.828125 0.234375 -1.4375 0.234375q-1.328125 0 -2.109375 -0.765625q-0.78125 -0.78125 -0.78125 -2.203125l0 -5.8125l-1.25 0l0 -1.34375l1.25 0l0 -1.796875l1.78125 -0.171875l0 1.96875l2.59375 0l0 1.34375l-2.59375 0l0 5.484375q0 1.046875 0.40625 1.5q0.40625 0.4375 1.28125 0.4375q0.34375 0 0.859375 -0.109375l0 1.234375zm8.352875 -11.734375l0.40625 1.28125l-2.75 0.59375l0.015625 -0.140625q0 -0.359375 -0.265625 -0.609375l2.59375 -1.125zm-0.5 4.09375l-1.09375 0.796875l-1.421875 -2.4375q0.171875 -0.015625 0.359375 -0.140625q0.1875 -0.140625 0.265625 -0.3125l1.890625 2.09375zm-4.0625 0.796875l-1.09375 -0.796875l1.875 -2.09375q0.078125 0.1875 0.265625 0.3125q0.203125 0.125 0.375 0.140625l-1.421875 2.4375zm-2.015625 -3.609375l0.421875 -1.28125l2.59375 1.125q-0.265625 0.234375 -0.265625 0.609375l0.015625 0.140625l-2.765625 -0.59375zm2.828125 -3.03125l1.34375 0l-0.28125 2.8125q-0.15625 -0.109375 -0.390625 -0.109375q-0.234375 0 -0.390625 0.109375l-0.28125 -2.8125zm12.862778 13.484375l0 -9.890625l1.796875 0l0 9.890625l-1.796875 0zm0 -11.6875l0 -1.796875l1.796875 0l0 1.796875l-1.796875 0zm5.3928223 15.28125l0 -13.484375l1.796875 0l0 1.859375q0.546875 -1.046875 1.375 -1.5625q0.828125 -0.515625 1.921875 -0.515625q1.84375 0 2.84375 1.34375q1.0 1.34375 1.0 3.515625q0 1.421875 -0.46875 2.703125q-0.46875 1.265625 -1.453125 2.03125q-0.96875 0.75 -2.203125 0.75q-0.5 0 -1.3125 -0.15625q-0.796875 -0.140625 -1.703125 -1.203125l0 4.71875l-1.796875 0zm1.796875 -5.953125q0.921875 0.8125 1.46875 1.03125q0.546875 0.203125 1.171875 0.203125q1.3125 0 1.9375 -1.109375q0.640625 -1.109375 0.640625 -2.828125q0 -1.609375 -0.5625 -2.546875q-0.546875 -0.9375 -1.734375 -0.9375q-0.734375 0 -1.46875 0.40625q-0.734375 0.40625 -1.453125 1.21875l0 4.5625zm15.004471 -0.78125l0 -1.34375l9.890625 0l0 1.34375l-9.890625 0zm0 -3.15625l0 -1.34375l9.890625 0l0 1.34375l-9.890625 0zm26.418503 6.296875l-0.671875 -0.796875q-1.5 1.140625 -3.484375 1.140625q-1.328125 0 -2.453125 -0.53125q-1.125 -0.546875 -1.765625 -1.578125q-0.625 -1.046875 -0.625 -2.25q0 -1.265625 0.71875 -2.421875q0.734375 -1.171875 2.578125 -1.796875q-0.921875 -1.65625 -0.921875 -2.75q0 -0.75 0.421875 -1.40625q0.4375 -0.65625 1.1875 -1.03125q0.75 -0.390625 1.65625 -0.390625q1.328125 0 2.171875 0.796875q0.84375 0.78125 0.84375 1.921875q0 2.015625 -2.953125 3.515625q1.34375 2.40625 3.15625 4.484375q0.328125 -0.484375 0.484375 -0.890625q0.15625 -0.421875 0.25 -1.109375q0.09375 -0.6875 0.09375 -1.421875l-0.015625 -0.65625l1.796875 0q0 2.984375 -1.796875 5.15625q0.828125 1.046875 1.875 2.015625l-2.546875 0zm-1.453125 -1.84375q-1.265625 -1.546875 -2.015625 -2.65625q-0.734375 -1.125 -1.625 -2.671875q-1.234375 0.5 -1.671875 1.203125q-0.4375 0.703125 -0.4375 1.515625q0 0.875 0.453125 1.71875q0.46875 0.84375 1.203125 1.28125q0.734375 0.4375 1.671875 0.4375q1.265625 0 2.421875 -0.828125zm-2.5 -6.875q1.921875 -0.875 1.921875 -2.34375q0 -0.609375 -0.375 -1.0q-0.375 -0.40625 -1.03125 -0.40625q-0.734375 0 -1.0625 0.453125q-0.3125 0.453125 -0.3125 0.953125q0 0.9375 0.859375 2.34375zm9.086487 8.71875l0 -9.890625l1.796875 0l0 1.859375q0.671875 -1.0 1.578125 -1.53125q0.90625 -0.546875 1.890625 -0.546875q1.25 0 2.03125 0.796875q0.796875 0.796875 0.796875 2.203125l0 7.109375l-1.796875 0l0 -6.515625q0 -1.03125 -0.1875 -1.359375q-0.1875 -0.328125 -0.515625 -0.5q-0.328125 -0.1875 -0.6875 -0.1875q-0.671875 0 -1.453125 0.40625q-0.765625 0.40625 -1.65625 1.75l0 6.40625l-1.796875 0zm11.828171 2.921875l0 -0.671875q0.34375 -0.1875 0.5 -0.59375q0.15625 -0.40625 0.15625 -1.453125l0 -0.203125l-0.65625 0l0 -1.796875l1.796875 0l0 1.515625q0 1.171875 -0.203125 1.703125q-0.203125 0.53125 -0.640625 0.953125q-0.4375 0.421875 -0.953125 0.546875zm0 -11.015625l0 -1.796875l1.796875 0l0 1.796875l-1.796875 0z" fill-rule="nonzero"/><path fill="#000000" fill-opacity="0.0" d="m0 0l122.83465 0l0 42.015747l-122.83465 0z" fill-rule="evenodd"/><path fill="#000000" d="m9.203125 26.919998l0 -2.4375l7.015625 -8.65625l-6.21875 0l0 -2.265625l9.765625 0l0 2.09375l-7.3125 9.015625l7.59375 0l0 2.25l-10.84375 0zm18.130356 -3.078125l2.546875 0.421875q-0.484375 1.40625 -1.546875 2.140625q-1.0625 0.734375 -2.65625 0.734375q-2.515625 0 -3.734375 -1.65625q-0.953125 -1.3125 -0.953125 -3.328125q0 -2.40625 1.25 -3.765625q1.265625 -1.359375 3.1875 -1.359375q2.15625 0 3.40625 1.421875q1.25 1.421875 1.1875 4.375l-6.40625 0q0.03125 1.140625 0.609375 1.78125q0.59375 0.625 1.484375 0.625q0.59375 0 1.0 -0.328125q0.421875 -0.328125 0.625 -1.0625zm0.15625 -2.59375q-0.03125 -1.109375 -0.578125 -1.6875q-0.546875 -0.578125 -1.328125 -0.578125q-0.84375 0 -1.390625 0.609375q-0.546875 0.609375 -0.53125 1.65625l3.828125 0zm4.625717 -5.3125l0 -2.375l2.5625 0l0 2.375l-2.5625 0zm0 10.984375l0 -9.671875l2.5625 0l0 9.671875l-2.5625 0zm4.948929 0.640625l2.921875 0.359375q0.0625 0.5 0.328125 0.6875q0.375 0.28125 1.15625 0.28125q1.0 0 1.5 -0.296875q0.328125 -0.203125 0.515625 -0.65625q0.109375 -0.3125 0.109375 -1.171875l0 -1.40625q-1.140625 1.5625 -2.890625 1.5625q-1.953125 0 -3.09375 -1.65625q-0.890625 -1.296875 -0.890625 -3.234375q0 -2.4375 1.171875 -3.71875q1.171875 -1.28125 2.90625 -1.28125q1.796875 0 2.96875 1.578125l0 -1.359375l2.390625 0l0 8.671875q0 1.71875 -0.28125 2.5625q-0.28125 0.84375 -0.796875 1.328125q-0.5 0.484375 -1.359375 0.75q-0.84375 0.28125 -2.15625 0.28125q-2.453125 0 -3.484375 -0.84375q-1.03125 -0.84375 -1.03125 -2.125q0 -0.140625 0.015625 -0.3125zm2.28125 -5.671875q0 1.53125 0.59375 2.25q0.59375 0.71875 1.46875 0.71875q0.9375 0 1.578125 -0.734375q0.65625 -0.734375 0.65625 -2.171875q0 -1.515625 -0.625 -2.234375q-0.609375 -0.734375 -1.5625 -0.734375q-0.921875 0 -1.515625 0.71875q-0.59375 0.71875 -0.59375 2.1875zm14.942856 1.953125l2.546875 0.421875q-0.484375 1.40625 -1.546875 2.140625q-1.0625 0.734375 -2.65625 0.734375q-2.515625 0 -3.734375 -1.65625q-0.953125 -1.3125 -0.953125 -3.328125q0 -2.40625 1.25 -3.765625q1.265625 -1.359375 3.1875 -1.359375q2.15625 0 3.40625 1.421875q1.25 1.421875 1.1875 4.375l-6.40625 0q0.03125 1.140625 0.609375 1.78125q0.59375 0.625 1.484375 0.625q0.59375 0 1.0 -0.328125q0.421875 -0.328125 0.625 -1.0625zm0.15625 -2.59375q-0.03125 -1.109375 -0.578125 -1.6875q-0.546875 -0.578125 -1.328125 -0.578125q-0.84375 0 -1.390625 0.609375q-0.546875 0.609375 -0.53125 1.65625l3.828125 0zm7.078842 5.671875l-2.5625 0l0 -9.671875l2.375 0l0 1.375q0.609375 -0.984375 1.09375 -1.28125q0.484375 -0.3125 1.109375 -0.3125q0.875 0 1.6875 0.484375l-0.796875 2.234375q-0.640625 -0.421875 -1.203125 -0.421875q-0.53125 0 -0.90625 0.296875q-0.375 0.296875 -0.59375 1.078125q-0.203125 0.765625 -0.203125 3.234375l0 2.984375zm5.291519 -7.109375l0 -2.5625l2.5625 0l0 2.5625l-2.5625 0zm0 7.109375l0 -2.5625l2.5625 0l0 2.5625l-2.5625 0z" fill-rule="nonzero"/><path fill="#000000" fill-opacity="0.0" d="m507.03937 30.708662l135.1496 0l0 64.62992l-135.1496 0z" fill-rule="evenodd"/><path fill="#000000" d="m517.83624 57.62866l0 -9.890625l1.796875 0l0 9.890625l-1.796875 0zm0 -11.6875l0 -1.796875l1.796875 0l0 1.796875l-1.796875 0zm5.3928223 11.6875l0 -9.890625l1.796875 0l0 1.859375q0.671875 -1.0 1.578125 -1.53125q0.90625 -0.546875 1.890625 -0.546875q1.25 0 2.03125 0.796875q0.796875 0.796875 0.796875 2.203125l0 7.109375l-1.796875 0l0 -6.515625q0 -1.03125 -0.1875 -1.359375q-0.1875 -0.328125 -0.515625 -0.5q-0.328125 -0.1875 -0.6875 -0.1875q-0.671875 0 -1.453125 0.40625q-0.765625 0.40625 -1.65625 1.75l0 6.40625l-1.796875 0zm15.984436 0q-0.828125 0.234375 -1.4375 0.234375q-1.328125 0 -2.109375 -0.765625q-0.78125 -0.78125 -0.78125 -2.203125l0 -5.8125l-1.25 0l0 -1.34375l1.25 0l0 -1.796875l1.78125 -0.171875l0 1.96875l2.59375 0l0 1.34375l-2.59375 0l0 5.484375q0 1.046875 0.40625 1.5q0.40625 0.4375 1.28125 0.4375q0.34375 0 0.859375 -0.109375l0 1.234375zm8.474548 0l0 -9.890625l1.796875 0l0 1.859375q0.671875 -1.0 1.578125 -1.53125q0.90625 -0.546875 1.890625 -0.546875q1.25 0 2.03125 0.796875q0.796875 0.796875 0.796875 2.203125l0 7.109375l-1.796875 0l0 -6.515625q0 -1.03125 -0.1875 -1.359375q-0.1875 -0.328125 -0.515625 -0.5q-0.328125 -0.1875 -0.6875 -0.1875q-0.671875 0 -1.453125 0.40625q-0.765625 0.40625 -1.65625 1.75l0 6.40625l-1.796875 0zm11.828186 2.921875l0 -0.671875q0.34375 -0.1875 0.5 -0.59375q0.15625 -0.40625 0.15625 -1.453125l0 -0.203125l-0.65625 0l0 -1.796875l1.796875 0l0 1.515625q0 1.171875 -0.203125 1.703125q-0.203125 0.53125 -0.640625 0.953125q-0.4375 0.421875 -0.953125 0.546875zm0 -11.015625l0 -1.796875l1.796875 0l0 1.796875l-1.796875 0z" fill-rule="nonzero"/><path fill="#000000" d="m517.83624 80.028656l0 -9.890625l1.796875 0l0 9.890625l-1.796875 0zm0 -11.6875l0 -1.796875l1.796875 0l0 1.796875l-1.796875 0zm5.3928223 11.6875l0 -9.890625l1.796875 0l0 1.859375q0.671875 -1.0 1.578125 -1.53125q0.90625 -0.546875 1.890625 -0.546875q1.25 0 2.03125 0.796875q0.796875 0.796875 0.796875 2.203125l0 7.109375l-1.796875 0l0 -6.515625q0 -1.03125 -0.1875 -1.359375q-0.1875 -0.328125 -0.515625 -0.5q-0.328125 -0.1875 -0.6875 -0.1875q-0.671875 0 -1.453125 0.40625q-0.765625 0.40625 -1.65625 1.75l0 6.40625l-1.796875 0zm15.984436 0q-0.828125 0.234375 -1.4375 0.234375q-1.328125 0 -2.109375 -0.765625q-0.78125 -0.78125 -0.78125 -2.203125l0 -5.8125l-1.25 0l0 -1.34375l1.25 0l0 -1.796875l1.78125 -0.171875l0 1.96875l2.59375 0l0 1.34375l-2.59375 0l0 5.484375q0 1.046875 0.40625 1.5q0.40625 0.4375 1.28125 0.4375q0.34375 0 0.859375 -0.109375l0 1.234375zm10.446594 0l-0.671875 -0.796875q-1.5 1.140625 -3.484375 1.140625q-1.328125 0 -2.453125 -0.53125q-1.125 -0.546875 -1.765625 -1.578125q-0.625 -1.046875 -0.625 -2.25q0 -1.265625 0.71875 -2.421875q0.734375 -1.171875 2.578125 -1.796875q-0.921875 -1.65625 -0.921875 -2.75q0 -0.75 0.421875 -1.40625q0.4375 -0.65625 1.1875 -1.03125q0.75 -0.390625 1.65625 -0.390625q1.328125 0 2.171875 0.796875q0.84375 0.78125 0.84375 1.921875q0 2.015625 -2.953125 3.515625q1.34375 2.40625 3.15625 4.484375q0.328125 -0.484375 0.484375 -0.890625q0.15625 -0.421875 0.25 -1.109375q0.09375 -0.6875 0.09375 -1.421875l-0.015625 -0.65625l1.796875 0q0 2.984375 -1.796875 5.15625q0.828125 1.046875 1.875 2.015625l-2.546875 0zm-1.453125 -1.84375q-1.265625 -1.546875 -2.015625 -2.65625q-0.734375 -1.125 -1.625 -2.671875q-1.234375 0.5 -1.671875 1.203125q-0.4375 0.703125 -0.4375 1.515625q0 0.875 0.453125 1.71875q0.46875 0.84375 1.203125 1.28125q0.734375 0.4375 1.671875 0.4375q1.265625 0 2.421875 -0.828125zm-2.5 -6.875q1.921875 -0.875 1.921875 -2.34375q0 -0.609375 -0.375 -1.0q-0.375 -0.40625 -1.03125 -0.40625q-0.734375 0 -1.0625 0.453125q-0.3125 0.453125 -0.3125 0.953125q0 0.9375 0.859375 2.34375zm14.989441 8.71875l0 -9.890625l1.796875 0l0 1.859375q0.5 -1.0 1.3125 -1.53125q0.828125 -0.546875 1.78125 -0.546875q0.265625 0 0.578125 0.046875l0 1.671875q-0.453125 -0.15625 -0.828125 -0.15625q-0.84375 0 -1.5625 0.515625q-0.71875 0.5 -1.28125 1.515625l0 6.515625l-1.796875 0zm7.633789 0l0 -9.890625l1.796875 0l0 1.859375q0.671875 -1.0 1.578125 -1.53125q0.90625 -0.546875 1.890625 -0.546875q1.25 0 2.03125 0.796875q0.796875 0.796875 0.796875 2.203125l0 7.109375l-1.796875 0l0 -6.515625q0 -1.03125 -0.1875 -1.359375q-0.1875 -0.328125 -0.515625 -0.5q-0.328125 -0.1875 -0.6875 -0.1875q-0.671875 0 -1.453125 0.40625q-0.765625 0.40625 -1.65625 1.75l0 6.40625l-1.796875 0zm16.63739 -3.140625l0 -1.34375l9.890625 0l0 1.34375l-9.890625 0zm0 -3.15625l0 -1.34375l9.890625 0l0 1.34375l-9.890625 0zm18.543457 6.296875l0 -9.890625l1.796875 0l0 1.859375q0.671875 -1.0 1.578125 -1.53125q0.90625 -0.546875 1.890625 -0.546875q1.25 0 2.03125 0.796875q0.796875 0.796875 0.796875 2.203125l0 7.109375l-1.796875 0l0 -6.515625q0 -1.03125 -0.1875 -1.359375q-0.1875 -0.328125 -0.515625 -0.5q-0.328125 -0.1875 -0.6875 -0.1875q-0.671875 0 -1.453125 0.40625q-0.765625 0.40625 -1.65625 1.75l0 6.40625l-1.796875 0zm11.828186 2.921875l0 -0.671875q0.34375 -0.1875 0.5 -0.59375q0.15625 -0.40625 0.15625 -1.453125l0 -0.203125l-0.65625 0l0 -1.796875l1.796875 0l0 1.515625q0 1.171875 -0.203125 1.703125q-0.203125 0.53125 -0.640625 0.953125q-0.4375 0.421875 -0.953125 0.546875zm0 -11.015625l0 -1.796875l1.796875 0l0 1.796875l-1.796875 0z" fill-rule="nonzero"/><path fill="#000000" fill-opacity="0.0" d="m507.03937 0l135.1496 0l0 42.015747l-135.1496 0z" fill-rule="evenodd"/><path fill="#000000" d="m517.39874 26.919998l0 -13.359375l5.6875 0q2.140625 0 3.109375 0.359375q0.96875 0.359375 1.546875 1.28125q0.578125 0.921875 0.578125 2.109375q0 1.5 -0.890625 2.484375q-0.875 0.96875 -2.625 1.234375q0.875 0.5 1.4375 1.125q0.578125 0.609375 1.53125 2.15625l1.640625 2.609375l-3.234375 0l-1.9375 -2.90625q-1.046875 -1.5625 -1.4375 -1.96875q-0.375 -0.40625 -0.8125 -0.546875q-0.421875 -0.15625 -1.34375 -0.15625l-0.546875 0l0 5.578125l-2.703125 0zm2.703125 -7.703125l2.0 0q1.9375 0 2.421875 -0.15625q0.484375 -0.171875 0.75 -0.578125q0.28125 -0.40625 0.28125 -1.0q0 -0.671875 -0.359375 -1.078125q-0.359375 -0.421875 -1.015625 -0.53125q-0.328125 -0.046875 -1.96875 -0.046875l-2.109375 0l0 3.390625zm16.347961 4.625l2.546875 0.421875q-0.484375 1.40625 -1.546875 2.140625q-1.0625 0.734375 -2.65625 0.734375q-2.515625 0 -3.734375 -1.65625q-0.953125 -1.3125 -0.953125 -3.328125q0 -2.40625 1.25 -3.765625q1.265625 -1.359375 3.1875 -1.359375q2.15625 0 3.40625 1.421875q1.25 1.421875 1.1875 4.375l-6.40625 0q0.03125 1.140625 0.609375 1.78125q0.59375 0.625 1.484375 0.625q0.59375 0 1.0 -0.328125q0.421875 -0.328125 0.625 -1.0625zm0.15625 -2.59375q-0.03125 -1.109375 -0.578125 -1.6875q-0.546875 -0.578125 -1.328125 -0.578125q-0.84375 0 -1.390625 0.609375q-0.546875 0.609375 -0.53125 1.65625l3.828125 0zm3.5007324 -4.0l1.421875 0l0 -0.734375q0 -1.21875 0.25 -1.8125q0.265625 -0.609375 0.953125 -0.984375q0.703125 -0.375 1.78125 -0.375q1.09375 0 2.140625 0.328125l-0.359375 1.78125q-0.609375 -0.140625 -1.171875 -0.140625q-0.546875 0 -0.796875 0.265625q-0.234375 0.25 -0.234375 0.984375l0 0.6875l1.90625 0l0 2.015625l-1.90625 0l0 7.65625l-2.5625 0l0 -7.65625l-1.421875 0l0 -2.015625zm12.9313965 6.59375l2.546875 0.421875q-0.484375 1.40625 -1.546875 2.140625q-1.0625 0.734375 -2.65625 0.734375q-2.515625 0 -3.734375 -1.65625q-0.953125 -1.3125 -0.953125 -3.328125q0 -2.40625 1.25 -3.765625q1.265625 -1.359375 3.1875 -1.359375q2.15625 0 3.40625 1.421875q1.25 1.421875 1.1875 4.375l-6.40625 0q0.03125 1.140625 0.609375 1.78125q0.59375 0.625 1.484375 0.625q0.59375 0 1.0 -0.328125q0.421875 -0.328125 0.625 -1.0625zm0.15625 -2.59375q-0.03125 -1.109375 -0.578125 -1.6875q-0.546875 -0.578125 -1.328125 -0.578125q-0.84375 0 -1.390625 0.609375q-0.546875 0.609375 -0.53125 1.65625l3.828125 0zm7.0788574 5.671875l-2.5625 0l0 -9.671875l2.375 0l0 1.375q0.609375 -0.984375 1.09375 -1.28125q0.484375 -0.3125 1.109375 -0.3125q0.875 0 1.6875 0.484375l-0.796875 2.234375q-0.640625 -0.421875 -1.203125 -0.421875q-0.53125 0 -0.90625 0.296875q-0.375 0.296875 -0.59375 1.078125q-0.203125 0.765625 -0.203125 3.234375l0 2.984375zm10.400879 -3.078125l2.546875 0.421875q-0.484375 1.40625 -1.546875 2.140625q-1.0625 0.734375 -2.65625 0.734375q-2.515625 0 -3.734375 -1.65625q-0.953125 -1.3125 -0.953125 -3.328125q0 -2.40625 1.25 -3.765625q1.265625 -1.359375 3.1875 -1.359375q2.15625 0 3.40625 1.421875q1.25 1.421875 1.1875 4.375l-6.40625 0q0.03125 1.140625 0.609375 1.78125q0.59375 0.625 1.484375 0.625q0.59375 0 1.0 -0.328125q0.421875 -0.328125 0.625 -1.0625zm0.15625 -2.59375q-0.03125 -1.109375 -0.578125 -1.6875q-0.546875 -0.578125 -1.328125 -0.578125q-0.84375 0 -1.390625 0.609375q-0.546875 0.609375 -0.53125 1.65625l3.828125 0zm13.422607 5.671875l-2.5625 0l0 -4.9375q0 -1.5625 -0.171875 -2.015625q-0.15625 -0.46875 -0.53125 -0.71875q-0.359375 -0.265625 -0.875 -0.265625q-0.671875 0 -1.203125 0.375q-0.53125 0.359375 -0.734375 0.96875q-0.1875 0.59375 -0.1875 2.21875l0 4.375l-2.546875 0l0 -9.671875l2.375 0l0 1.421875q1.265625 -1.640625 3.1875 -1.640625q0.84375 0 1.546875 0.3125q0.703125 0.296875 1.0625 0.78125q0.359375 0.46875 0.5 1.078125q0.140625 0.59375 0.140625 1.703125l0 6.015625zm1.5678711 0l0 -2.0l3.625 -4.15625q0.890625 -1.015625 1.3125 -1.453125q-0.4375 0.03125 -1.171875 0.046875l-3.40625 0.015625l0 -2.125l7.984375 0l0 1.8125l-3.6875 4.265625l-1.3125 1.40625q1.078125 -0.0625 1.328125 -0.0625l3.96875 0l0 2.25l-8.640625 0zm10.84375 -7.109375l0 -2.5625l2.5625 0l0 2.5625l-2.5625 0zm0 7.109375l0 -2.5625l2.5625 0l0 2.5625l-2.5625 0z" fill-rule="nonzero"/><path fill="#d9d9d9" d="m12.3149605 155.28084l122.834656 0l0 42.015747l-122.834656 0z" fill-rule="evenodd"/><path stroke="#000000" stroke-width="2.0" stroke-linejoin="round" stroke-linecap="butt" d="m12.3149605 155.28084l122.834656 0l0 42.015747l-122.834656 0z" fill-rule="evenodd"/><path fill="#000000" d="m47.68701 182.00558q-0.859375 0.734375 -1.65625 1.078125q-0.78125 0.34375 -1.6875 0.34375q-1.34375 0 -2.171875 -0.78125q-0.8125 -0.796875 -0.8125 -2.03125q0 -0.796875 0.375 -1.421875q0.375 -0.625 0.984375 -1.0q0.609375 -0.390625 1.484375 -0.546875q0.5625 -0.109375 2.109375 -0.171875q1.5625 -0.0625 2.234375 -0.328125q0.1875 -0.671875 0.1875 -1.125q0 -0.578125 -0.421875 -0.90625q-0.5625 -0.453125 -1.671875 -0.453125q-1.03125 0 -1.703125 0.46875q-0.65625 0.453125 -0.953125 1.296875l-1.671875 -0.140625q0.515625 -1.4375 1.609375 -2.203125q1.109375 -0.765625 2.796875 -0.765625q1.796875 0 2.84375 0.859375q0.796875 0.625 0.796875 1.65625q0 0.765625 -0.21875 1.796875l-0.53125 2.40625q-0.265625 1.140625 -0.265625 1.859375q0 0.453125 0.203125 1.3125l-1.671875 0q-0.125 -0.46875 -0.1875 -1.203125zm0.609375 -3.703125q-0.34375 0.140625 -0.75 0.21875q-0.390625 0.0625 -1.3125 0.15625q-1.4375 0.125 -2.03125 0.328125q-0.59375 0.1875 -0.90625 0.625q-0.296875 0.421875 -0.296875 0.9375q0 0.6875 0.484375 1.140625q0.484375 0.4375 1.359375 0.4375q0.828125 0 1.578125 -0.421875q0.75 -0.4375 1.1875 -1.203125q0.4375 -0.78125 0.6875 -2.21875zm9.766342 3.5q-1.40625 1.625 -2.953125 1.625q-1.375 0 -2.296875 -1.015625q-0.90625 -1.015625 -0.90625 -2.953125q0 -1.765625 0.71875 -3.21875q0.734375 -1.46875 1.8125 -2.1875q1.09375 -0.734375 2.1875 -0.734375q1.796875 0 2.71875 1.734375l1.09375 -5.203125l1.640625 0l-2.78125 13.359375l-1.53125 0l0.296875 -1.40625zm-4.515625 -2.640625q0 1.0 0.203125 1.59375q0.203125 0.578125 0.671875 0.96875q0.484375 0.375 1.171875 0.375q1.109375 0 2.03125 -1.15625q1.21875 -1.546875 1.21875 -3.828125q0 -1.140625 -0.609375 -1.78125q-0.59375 -0.65625 -1.515625 -0.65625q-0.59375 0 -1.078125 0.265625q-0.484375 0.265625 -0.96875 0.90625q-0.46875 0.625 -0.796875 1.59375q-0.328125 0.96875 -0.328125 1.71875zm14.891342 2.640625q-1.40625 1.625 -2.953125 1.625q-1.375 0 -2.296875 -1.015625q-0.90625 -1.015625 -0.90625 -2.953125q0 -1.765625 0.71875 -3.21875q0.734375 -1.46875 1.8125 -2.1875q1.09375 -0.734375 2.1875 -0.734375q1.796875 0 2.71875 1.734375l1.09375 -5.203125l1.640625 0l-2.78125 13.359375l-1.53125 0l0.296875 -1.40625zm-4.515625 -2.640625q0 1.0 0.203125 1.59375q0.203125 0.578125 0.671875 0.96875q0.484375 0.375 1.171875 0.375q1.109375 0 2.03125 -1.15625q1.21875 -1.546875 1.21875 -3.828125q0 -1.140625 -0.609375 -1.78125q-0.59375 -0.65625 -1.515625 -0.65625q-0.59375 0 -1.078125 0.265625q-0.484375 0.265625 -0.96875 0.90625q-0.46875 0.625 -0.796875 1.59375q-0.328125 0.96875 -0.328125 1.71875zm8.375717 4.046875l2.015625 -9.671875l1.453125 0l-0.40625 1.96875q0.75 -1.109375 1.4531326 -1.640625q0.71875 -0.546875 1.46875 -0.546875q0.5 0 1.21875 0.359375l-0.671875 1.53125q-0.4375 -0.3125 -0.9375 -0.3125q-0.875 0 -1.7812576 0.96875q-0.90625 0.953125 -1.4375 3.46875l-0.8125 3.875l-1.5625 0zm13.306435 -3.28125l1.609375 0.15625q-0.34375 1.1875 -1.59375 2.265625q-1.234375 1.078125 -2.96875 1.078125q-1.0625 0 -1.96875 -0.5q-0.890625 -0.5 -1.359375 -1.4375q-0.46875 -0.953125 -0.46875 -2.15625q0 -1.59375 0.734375 -3.078125q0.734375 -1.484375 1.890625 -2.203125q1.171875 -0.734375 2.53125 -0.734375q1.734375 0 2.765625 1.078125q1.03125 1.0625 1.03125 2.921875q0 0.71875 -0.125 1.46875l-7.125 0q-0.046875 0.28125 -0.046875 0.5q0 1.359375 0.625 2.078125q0.625 0.71875 1.53125 0.71875q0.84375 0 1.65625 -0.546875q0.828125 -0.5625 1.28125 -1.609375zm-4.78125 -2.40625l5.421875 0q0.015625 -0.25 0.015625 -0.359375q0 -1.234375 -0.625 -1.890625q-0.625 -0.671875 -1.59375 -0.671875q-1.0625 0 -1.9375 0.734375q-0.859375 0.71875 -1.28125 2.1875zm8.219467 2.375l1.640625 -0.09375q0 0.703125 0.21875 1.21875q0.21875 0.5 0.796875 0.8125q0.59375 0.3125 1.375 0.3125q1.09375 0 1.640625 -0.4375q0.546875 -0.4375 0.546875 -1.015625q0 -0.4375 -0.328125 -0.8125q-0.328125 -0.390625 -1.640625 -0.953125q-1.3125 -0.5625 -1.671875 -0.78125q-0.609375 -0.375 -0.921875 -0.875q-0.3125 -0.515625 -0.3125 -1.171875q0 -1.140625 0.90625 -1.953125q0.921875 -0.828125 2.5625 -0.828125q1.828125 0 2.765625 0.84375q0.953125 0.84375 1.0 2.21875l-1.609375 0.109375q-0.046875 -0.875 -0.625 -1.390625q-0.578125 -0.515625 -1.65625 -0.515625q-0.84375 0 -1.328125 0.40625q-0.46875 0.390625 -0.46875 0.84375q0 0.453125 0.40625 0.796875q0.28125 0.234375 1.421875 0.734375q1.890625 0.8125 2.375 1.28125q0.78125 0.765625 0.78125 1.84375q0 0.71875 -0.4375 1.421875q-0.4375 0.6875 -1.34375 1.109375q-0.90625 0.40625 -2.140625 0.40625q-1.671875 0 -2.84375 -0.828125q-1.1875 -0.828125 -1.109375 -2.703125zm9.328125 0l1.640625 -0.09375q0 0.703125 0.21875 1.21875q0.21875 0.5 0.796875 0.8125q0.59375 0.3125 1.375 0.3125q1.09375 0 1.640625 -0.4375q0.546875 -0.4375 0.546875 -1.015625q0 -0.4375 -0.328125 -0.8125q-0.328125 -0.390625 -1.640625 -0.953125q-1.3125 -0.5625 -1.671875 -0.78125q-0.609375 -0.375 -0.921875 -0.875q-0.3125 -0.515625 -0.3125 -1.171875q0 -1.140625 0.90625 -1.953125q0.921875 -0.828125 2.5625 -0.828125q1.828125 0 2.765625 0.84375q0.953125 0.84375 1.0 2.21875l-1.609375 0.109375q-0.046875 -0.875 -0.625 -1.390625q-0.578125 -0.515625 -1.65625 -0.515625q-0.84375 0 -1.328125 0.40625q-0.46875 0.390625 -0.46875 0.84375q0 0.453125 0.40625 0.796875q0.28125 0.234375 1.421875 0.734375q1.890625 0.8125 2.375 1.28125q0.78125 0.765625 0.78125 1.84375q0 0.71875 -0.4375 1.421875q-0.4375 0.6875 -1.34375 1.109375q-0.90625 0.40625 -2.140625 0.40625q-1.671875 0 -2.84375 -0.828125q-1.1875 -0.828125 -1.109375 -2.703125z" fill-rule="nonzero"/><path fill="#d9d9d9" d="m300.76254 228.32283l122.834625 0l0 42.015762l-122.834625 0z" fill-rule="evenodd"/><path stroke="#000000" stroke-width="2.0" stroke-linejoin="round" stroke-linecap="butt" d="m300.76254 228.32283l122.834625 0l0 42.015762l-122.834625 0z" fill-rule="evenodd"/><path fill="#d9d9d9" d="m515.0541 153.14174l122.834656 0l0 42.015747l-122.834656 0z" fill-rule="evenodd"/><path stroke="#000000" stroke-width="2.0" stroke-linejoin="round" stroke-linecap="butt" d="m515.0541 153.14174l122.834656 0l0 42.015747l-122.834656 0z" fill-rule="evenodd"/><path fill="#000000" d="m550.42615 179.86649q-0.859375 0.734375 -1.65625 1.078125q-0.78125 0.34375 -1.6875 0.34375q-1.34375 0 -2.171875 -0.78125q-0.8125 -0.796875 -0.8125 -2.03125q0 -0.796875 0.375 -1.421875q0.375 -0.625 0.984375 -1.0q0.609375 -0.390625 1.484375 -0.546875q0.5625 -0.109375 2.109375 -0.171875q1.5625 -0.0625 2.234375 -0.328125q0.1875 -0.671875 0.1875 -1.125q0 -0.578125 -0.421875 -0.90625q-0.5625 -0.453125 -1.671875 -0.453125q-1.03125 0 -1.703125 0.46875q-0.65625 0.453125 -0.953125 1.296875l-1.671875 -0.140625q0.515625 -1.4375 1.609375 -2.203125q1.109375 -0.765625 2.796875 -0.765625q1.796875 0 2.84375 0.859375q0.796875 0.625 0.796875 1.65625q0 0.765625 -0.21875 1.796875l-0.53125 2.40625q-0.265625 1.140625 -0.265625 1.859375q0 0.453125 0.203125 1.3125l-1.671875 0q-0.125 -0.46875 -0.1875 -1.203125zm0.609375 -3.703125q-0.34375 0.140625 -0.75 0.21875q-0.390625 0.0625 -1.3125 0.15625q-1.4375 0.125 -2.03125 0.328125q-0.59375 0.1875 -0.90625 0.625q-0.296875 0.421875 -0.296875 0.9375q0 0.6875 0.484375 1.140625q0.484375 0.4375 1.359375 0.4375q0.828125 0 1.578125 -0.421875q0.75 -0.4375 1.1875 -1.203125q0.4375 -0.78125 0.6875 -2.21875zm9.766357 3.5q-1.40625 1.625 -2.953125 1.625q-1.375 0 -2.296875 -1.015625q-0.90625 -1.015625 -0.90625 -2.953125q0 -1.765625 0.71875 -3.21875q0.734375 -1.46875 1.8125 -2.1875q1.09375 -0.734375 2.1875 -0.734375q1.796875 0 2.71875 1.734375l1.09375 -5.203125l1.640625 0l-2.78125 13.359375l-1.53125 0l0.296875 -1.40625zm-4.515625 -2.640625q0 1.0 0.203125 1.59375q0.203125 0.578125 0.671875 0.96875q0.484375 0.375 1.171875 0.375q1.109375 0 2.03125 -1.15625q1.21875 -1.546875 1.21875 -3.828125q0 -1.140625 -0.609375 -1.78125q-0.59375 -0.65625 -1.515625 -0.65625q-0.59375 0 -1.078125 0.265625q-0.484375 0.265625 -0.96875 0.90625q-0.46875 0.625 -0.796875 1.59375q-0.328125 0.96875 -0.328125 1.71875zm14.891357 2.640625q-1.40625 1.625 -2.953125 1.625q-1.375 0 -2.296875 -1.015625q-0.90625 -1.015625 -0.90625 -2.953125q0 -1.765625 0.71875 -3.21875q0.734375 -1.46875 1.8125 -2.1875q1.09375 -0.734375 2.1875 -0.734375q1.796875 0 2.71875 1.734375l1.09375 -5.203125l1.640625 0l-2.78125 13.359375l-1.53125 0l0.296875 -1.40625zm-4.515625 -2.640625q0 1.0 0.203125 1.59375q0.203125 0.578125 0.671875 0.96875q0.484375 0.375 1.171875 0.375q1.109375 0 2.03125 -1.15625q1.21875 -1.546875 1.21875 -3.828125q0 -1.140625 -0.609375 -1.78125q-0.59375 -0.65625 -1.515625 -0.65625q-0.59375 0 -1.078125 0.265625q-0.484375 0.265625 -0.96875 0.90625q-0.46875 0.625 -0.796875 1.59375q-0.328125 0.96875 -0.328125 1.71875zm8.375671 4.046875l2.015625 -9.671875l1.453125 0l-0.40625 1.96875q0.75 -1.109375 1.453125 -1.640625q0.71875 -0.546875 1.46875 -0.546875q0.5 0 1.21875 0.359375l-0.671875 1.53125q-0.4375 -0.3125 -0.9375 -0.3125q-0.875 0 -1.78125 0.96875q-0.90625 0.953125 -1.4375 3.46875l-0.8125 3.875l-1.5625 0zm13.3064575 -3.28125l1.609375 0.15625q-0.34375 1.1875 -1.59375 2.265625q-1.234375 1.078125 -2.96875 1.078125q-1.0625 0 -1.96875 -0.5q-0.890625 -0.5 -1.359375 -1.4375q-0.46875 -0.953125 -0.46875 -2.15625q0 -1.59375 0.734375 -3.078125q0.734375 -1.484375 1.890625 -2.203125q1.171875 -0.734375 2.53125 -0.734375q1.734375 0 2.765625 1.078125q1.03125 1.0625 1.03125 2.921875q0 0.71875 -0.125 1.46875l-7.125 0q-0.046875 0.28125 -0.046875 0.5q0 1.359375 0.625 2.078125q0.625 0.71875 1.53125 0.71875q0.84375 0 1.65625 -0.546875q0.828125 -0.5625 1.28125 -1.609375zm-4.78125 -2.40625l5.421875 0q0.015625 -0.25 0.015625 -0.359375q0 -1.234375 -0.625 -1.890625q-0.625 -0.671875 -1.59375 -0.671875q-1.0625 0 -1.9375 0.734375q-0.859375 0.71875 -1.28125 2.1875zm8.219482 2.375l1.640625 -0.09375q0 0.703125 0.21875 1.21875q0.21875 0.5 0.796875 0.8125q0.59375 0.3125 1.375 0.3125q1.09375 0 1.640625 -0.4375q0.546875 -0.4375 0.546875 -1.015625q0 -0.4375 -0.328125 -0.8125q-0.328125 -0.390625 -1.640625 -0.953125q-1.3125 -0.5625 -1.671875 -0.78125q-0.609375 -0.375 -0.921875 -0.875q-0.3125 -0.515625 -0.3125 -1.171875q0 -1.140625 0.90625 -1.953125q0.921875 -0.828125 2.5625 -0.828125q1.828125 0 2.765625 0.84375q0.953125 0.84375 1.0 2.21875l-1.609375 0.109375q-0.046875 -0.875 -0.625 -1.390625q-0.578125 -0.515625 -1.65625 -0.515625q-0.84375 0 -1.328125 0.40625q-0.46875 0.390625 -0.46875 0.84375q0 0.453125 0.40625 0.796875q0.28125 0.234375 1.421875 0.734375q1.890625 0.8125 2.375 1.28125q0.78125 0.765625 0.78125 1.84375q0 0.71875 -0.4375 1.421875q-0.4375 0.6875 -1.34375 1.109375q-0.90625 0.40625 -2.140625 0.40625q-1.671875 0 -2.84375 -0.828125q-1.1875 -0.828125 -1.109375 -2.703125zm9.328125 0l1.640625 -0.09375q0 0.703125 0.21875 1.21875q0.21875 0.5 0.796875 0.8125q0.59375 0.3125 1.375 0.3125q1.09375 0 1.640625 -0.4375q0.546875 -0.4375 0.546875 -1.015625q0 -0.4375 -0.328125 -0.8125q-0.328125 -0.390625 -1.640625 -0.953125q-1.3125 -0.5625 -1.671875 -0.78125q-0.609375 -0.375 -0.921875 -0.875q-0.3125 -0.515625 -0.3125 -1.171875q0 -1.140625 0.90625 -1.953125q0.921875 -0.828125 2.5625 -0.828125q1.828125 0 2.765625 0.84375q0.953125 0.84375 1.0 2.21875l-1.609375 0.109375q-0.046875 -0.875 -0.625 -1.390625q-0.578125 -0.515625 -1.65625 -0.515625q-0.84375 0 -1.328125 0.40625q-0.46875 0.390625 -0.46875 0.84375q0 0.453125 0.40625 0.796875q0.28125 0.234375 1.421875 0.734375q1.890625 0.8125 2.375 1.28125q0.78125 0.765625 0.78125 1.84375q0 0.71875 -0.4375 1.421875q-0.4375 0.6875 -1.34375 1.109375q-0.90625 0.40625 -2.140625 0.40625q-1.671875 0 -2.84375 -0.828125q-1.1875 -0.828125 -1.109375 -2.703125z" fill-rule="nonzero"/><path fill="#000000" fill-opacity="0.0" d="m217.23885 227.74016l87.33858 0l0 42.015762l-87.33858 0z" fill-rule="evenodd"/><path fill="#000000" d="m233.37947 253.45703q-0.859375 0.734375 -1.65625 1.078125q-0.78125 0.34375 -1.6875 0.34375q-1.34375 0 -2.171875 -0.78125q-0.8125 -0.796875 -0.8125 -2.03125q0 -0.796875 0.375 -1.421875q0.375 -0.625 0.984375 -1.0q0.609375 -0.390625 1.484375 -0.546875q0.5625 -0.109375 2.109375 -0.171875q1.5625 -0.0625 2.234375 -0.328125q0.1875 -0.671875 0.1875 -1.125q0 -0.578125 -0.421875 -0.90625q-0.5625 -0.453125 -1.671875 -0.453125q-1.03125 0 -1.703125 0.46875q-0.65625 0.453125 -0.953125 1.296875l-1.671875 -0.140625q0.515625 -1.4375 1.609375 -2.203125q1.109375 -0.765625 2.796875 -0.765625q1.796875 0 2.84375 0.859375q0.796875 0.625 0.796875 1.65625q0 0.765625 -0.21875 1.796875l-0.53125 2.40625q-0.265625 1.140625 -0.265625 1.859375q0 0.453125 0.203125 1.3125l-1.671875 0q-0.125 -0.46875 -0.1875 -1.203125zm0.609375 -3.703125q-0.34375 0.140625 -0.75 0.21875q-0.390625 0.0625 -1.3125 0.15625q-1.4375 0.125 -2.03125 0.328125q-0.59375 0.1875 -0.90625 0.625q-0.296875 0.421875 -0.296875 0.9375q0 0.6875 0.484375 1.140625q0.484375 0.4375 1.359375 0.4375q0.828125 0 1.578125 -0.421875q0.75 -0.4375 1.1875 -1.203125q0.4375 -0.78125 0.6875 -2.21875zm9.766342 3.5q-1.40625 1.625 -2.953125 1.625q-1.375 0 -2.296875 -1.015625q-0.90625 -1.015625 -0.90625 -2.953125q0 -1.765625 0.71875 -3.21875q0.734375 -1.46875 1.8125 -2.1875q1.09375 -0.734375 2.1875 -0.734375q1.796875 0 2.71875 1.734375l1.09375 -5.203125l1.640625 0l-2.78125 13.359375l-1.53125 0l0.296875 -1.40625zm-4.515625 -2.640625q0 1.0 0.203125 1.59375q0.203125 0.578125 0.671875 0.96875q0.484375 0.375 1.171875 0.375q1.109375 0 2.03125 -1.15625q1.21875 -1.546875 1.21875 -3.828125q0 -1.140625 -0.609375 -1.78125q-0.59375 -0.65625 -1.515625 -0.65625q-0.59375 0 -1.078125 0.265625q-0.484375 0.265625 -0.96875 0.90625q-0.46875 0.625 -0.796875 1.59375q-0.328125 0.96875 -0.328125 1.71875zm14.891342 2.640625q-1.40625 1.625 -2.953125 1.625q-1.375 0 -2.296875 -1.015625q-0.90625 -1.015625 -0.90625 -2.953125q0 -1.765625 0.71875 -3.21875q0.734375 -1.46875 1.8125 -2.1875q1.09375 -0.734375 2.1875 -0.734375q1.796875 0 2.71875 1.734375l1.0937347 -5.203125l1.640625 0l-2.7812347 13.359375l-1.53125 0l0.296875 -1.40625zm-4.515625 -2.640625q0 1.0 0.203125 1.59375q0.203125 0.578125 0.671875 0.96875q0.484375 0.375 1.171875 0.375q1.109375 0 2.03125 -1.15625q1.21875 -1.546875 1.21875 -3.828125q0 -1.140625 -0.609375 -1.78125q-0.59375 -0.65625 -1.515625 -0.65625q-0.59375 0 -1.078125 0.265625q-0.484375 0.265625 -0.96875 0.90625q-0.46875 0.625 -0.796875 1.59375q-0.328125 0.96875 -0.328125 1.71875zm8.375717 4.046875l2.015625 -9.671875l1.453125 0l-0.40625 1.96875q0.75 -1.109375 1.453125 -1.640625q0.71875 -0.546875 1.46875 -0.546875q0.5 0 1.21875 0.359375l-0.671875 1.53125q-0.4375 -0.3125 -0.9375 -0.3125q-0.875 0 -1.78125 0.96875q-0.90625 0.953125 -1.4375 3.46875l-0.8125 3.875l-1.5625 0zm13.306427 -3.28125l1.609375 0.15625q-0.34375 1.1875 -1.59375 2.265625q-1.234375 1.078125 -2.96875 1.078125q-1.0625 0 -1.96875 -0.5q-0.890625 -0.5 -1.359375 -1.4375q-0.46875 -0.953125 -0.46875 -2.15625q0 -1.59375 0.734375 -3.078125q0.734375 -1.484375 1.890625 -2.203125q1.171875 -0.734375 2.53125 -0.734375q1.734375 0 2.765625 1.078125q1.03125 1.0625 1.03125 2.921875q0 0.71875 -0.125 1.46875l-7.125 0q-0.046875 0.28125 -0.046875 0.5q0 1.359375 0.625 2.078125q0.625 0.71875 1.53125 0.71875q0.84375 0 1.65625 -0.546875q0.828125 -0.5625 1.28125 -1.609375zm-4.78125 -2.40625l5.421875 0q0.015625 -0.25 0.015625 -0.359375q0 -1.234375 -0.625 -1.890625q-0.625 -0.671875 -1.59375 -0.671875q-1.0625 0 -1.9375 0.734375q-0.859375 0.71875 -1.28125 2.1875zm8.219452 2.375l1.640625 -0.09375q0 0.703125 0.21875 1.21875q0.21875 0.5 0.796875 0.8125q0.59375 0.3125 1.375 0.3125q1.09375 0 1.640625 -0.4375q0.546875 -0.4375 0.546875 -1.015625q0 -0.4375 -0.328125 -0.8125q-0.328125 -0.390625 -1.640625 -0.953125q-1.3125 -0.5625 -1.671875 -0.78125q-0.609375 -0.375 -0.921875 -0.875q-0.3125 -0.515625 -0.3125 -1.171875q0 -1.140625 0.90625 -1.953125q0.921875 -0.828125 2.5625 -0.828125q1.828125 0 2.765625 0.84375q0.953125 0.84375 1.0 2.21875l-1.609375 0.109375q-0.046875 -0.875 -0.625 -1.390625q-0.578125 -0.515625 -1.65625 -0.515625q-0.84375 0 -1.328125 0.40625q-0.46875 0.390625 -0.46875 0.84375q0 0.453125 0.40625 0.796875q0.28125 0.234375 1.421875 0.734375q1.890625 0.8125 2.375 1.28125q0.78125 0.765625 0.78125 1.84375q0 0.71875 -0.4375 1.421875q-0.4375 0.6875 -1.34375 1.109375q-0.90625 0.40625 -2.140625 0.40625q-1.671875 0 -2.84375 -0.828125q-1.1875 -0.828125 -1.109375 -2.703125zm9.328125 0l1.640625 -0.09375q0 0.703125 0.21875 1.21875q0.21875 0.5 0.796875 0.8125q0.59375 0.3125 1.375 0.3125q1.09375 0 1.640625 -0.4375q0.546875 -0.4375 0.546875 -1.015625q0 -0.4375 -0.328125 -0.8125q-0.328125 -0.390625 -1.640625 -0.953125q-1.3125 -0.5625 -1.671875 -0.78125q-0.609375 -0.375 -0.921875 -0.875q-0.3125 -0.515625 -0.3125 -1.171875q0 -1.140625 0.90625 -1.953125q0.921875 -0.828125 2.5625 -0.828125q1.828125 0 2.765625 0.84375q0.953125 0.84375 1.0 2.21875l-1.609375 0.109375q-0.046875 -0.875 -0.625 -1.390625q-0.578125 -0.515625 -1.65625 -0.515625q-0.84375 0 -1.328125 0.40625q-0.46875 0.390625 -0.46875 0.84375q0 0.453125 0.40625 0.796875q0.28125 0.234375 1.421875 0.734375q1.890625 0.8125 2.375 1.28125q0.78125 0.765625 0.78125 1.84375q0 0.71875 -0.4375 1.421875q-0.4375 0.6875 -1.34375 1.109375q-0.90625 0.40625 -2.140625 0.40625q-1.671875 0 -2.84375 -0.828125q-1.1875 -0.828125 -1.109375 -2.703125z" fill-rule="nonzero"/><path fill="#000000" fill-opacity="0.0" d="m114.9895 176.47769l55.27559 -0.47244263" fill-rule="evenodd"/><path stroke="#000000" stroke-width="2.0" stroke-linejoin="round" stroke-linecap="butt" d="m122.56923 176.41292l47.69586 -0.40766907" fill-rule="evenodd"/><path fill="#000000" stroke="#000000" stroke-width="2.0" stroke-linecap="butt" d="m115.98946 176.46915c-0.015525818 -1.8169556 1.444809 -3.302475 3.2617645 -3.3180084c1.8169479 -0.0155181885 3.3024673 1.4448242 3.3179932 3.2617645c0.015533447 1.8169556 -1.444809 3.302475 -3.261757 3.3180084c-1.8169556 0.0155181885 -3.3024673 -1.4448242 -3.3180008 -3.2617645z" fill-rule="nonzero"/><path fill="#000000" fill-opacity="0.0" d="m170.26509 175.80315l-0.1889801 73.70079" fill-rule="evenodd"/><path stroke="#000000" stroke-width="2.0" stroke-linejoin="round" stroke-linecap="butt" d="m170.26509 175.80315l-0.1889801 73.70079" fill-rule="evenodd"/><path fill="#000000" fill-opacity="0.0" d="m221.60367 248.55905l-51.02362 0.94488525" fill-rule="evenodd"/><path stroke="#000000" stroke-width="2.0" stroke-linejoin="round" stroke-linecap="butt" d="m209.60573 248.78123l-39.02568 0.722702" fill-rule="evenodd"/><path fill="#000000" stroke="#000000" stroke-width="2.0" stroke-linecap="butt" d="m209.6669 252.08414l9.0134735 -3.4709473l-9.135803 -3.134842z" fill-rule="evenodd"/><path fill="#000000" fill-opacity="0.0" d="m533.38055 173.91339l-55.275574 0.47244263" fill-rule="evenodd"/><path stroke="#000000" stroke-width="2.0" stroke-linejoin="round" stroke-linecap="butt" d="m525.80084 173.97816l-47.69586 0.40766907" fill-rule="evenodd"/><path fill="#000000" stroke="#000000" stroke-width="2.0" stroke-linecap="butt" d="m532.3806 173.92194c0.01550293 1.8169403 -1.4448242 3.3024597 -3.2617798 3.3179932c-1.8169556 0.015533447 -3.3024292 -1.444809 -3.3179932 -3.2617645c-0.01550293 -1.8169403 1.4448242 -3.3024597 3.2617798 -3.3179932c1.8169556 -0.015533447 3.3024902 1.444809 3.3179932 3.2617645z" fill-rule="nonzero"/><path fill="#000000" fill-opacity="0.0" d="m478.29398 173.91339l-0.18899536 73.700775" fill-rule="evenodd"/><path stroke="#000000" stroke-width="2.0" stroke-linejoin="round" stroke-linecap="butt" d="m478.29398 173.91339l-0.18899536 73.700775" fill-rule="evenodd"/><path fill="#000000" fill-opacity="0.0" d="m427.08136 248.55905l51.02362 -0.94488525" fill-rule="evenodd"/><path stroke="#000000" stroke-width="2.0" stroke-linejoin="round" stroke-linecap="butt" d="m439.0793 248.33688l39.025665 -0.7227173" fill-rule="evenodd"/><path fill="#000000" stroke="#000000" stroke-width="2.0" stroke-linecap="butt" d="m439.01813 245.03397l-9.013458 3.4709473l9.135803 3.1348572z" fill-rule="evenodd"/><path fill="#000000" fill-opacity="0.0" d="m345.18896 195.15749l33.984253 0l0 42.015747l-33.984253 0z" fill-rule="evenodd"/><path fill="#000000" d="m355.98584 222.07748l0 -9.890625l1.796875 0l0 1.859375q0.671875 -1.0 1.578125 -1.53125q0.90625 -0.546875 1.890625 -0.546875q1.25 0 2.03125 0.796875q0.796875 0.796875 0.796875 2.203125l0 7.109375l-1.796875 0l0 -6.515625q0 -1.03125 -0.1875 -1.359375q-0.1875 -0.328125 -0.515625 -0.5q-0.328125 -0.1875 -0.6875 -0.1875q-0.671875 0 -1.453125 0.40625q-0.765625 0.40625 -1.65625 1.75l0 6.40625l-1.796875 0z" fill-rule="nonzero"/><path fill="#000000" fill-opacity="0.0" d="m53.244095 118.49869l40.97638 0l0 42.015747l-40.97638 0z" fill-rule="evenodd"/><path fill="#000000" d="m64.04097 145.41869l0 -9.890625l1.796875 0l0 9.890625l-1.796875 0zm0 -11.6875l0 -1.796875l1.796875 0l0 1.796875l-1.796875 0zm5.3928223 15.28125l0 -13.484375l1.796875 0l0 1.859375q0.546875 -1.046875 1.375 -1.5625q0.828125 -0.515625 1.921875 -0.515625q1.84375 0 2.84375 1.34375q1.0 1.34375 1.0 3.515625q0 1.421875 -0.46875 2.703125q-0.46875 1.265625 -1.453125 2.03125q-0.96875 0.75 -2.203125 0.75q-0.5 0 -1.3125 -0.15625q-0.796875 -0.140625 -1.703125 -1.203125l0 4.71875l-1.796875 0zm1.796875 -5.953125q0.921875 0.8125 1.46875 1.03125q0.546875 0.203125 1.171875 0.203125q1.3125 0 1.9375 -1.109375q0.640625 -1.109375 0.640625 -2.828125q0 -1.609375 -0.5625 -2.546875q-0.546875 -0.9375 -1.734375 -0.9375q-0.734375 0 -1.46875 0.40625q-0.734375 0.40625 -1.453125 1.21875l0 4.5625z" fill-rule="nonzero"/><path fill="#000000" fill-opacity="0.0" d="m554.126 118.49869l40.97638 0l0 42.015747l-40.97638 0z" fill-rule="evenodd"/><path fill="#000000" d="m564.92285 145.41869l0 -9.890625l1.796875 0l0 1.859375q0.5 -1.0 1.3125 -1.53125q0.828125 -0.546875 1.78125 -0.546875q0.265625 0 0.578125 0.046875l0 1.671875q-0.453125 -0.15625 -0.828125 -0.15625q-0.84375 0 -1.5625 0.515625q-0.71875 0.5 -1.28125 1.515625l0 6.515625l-1.796875 0zm7.633789 0l0 -9.890625l1.796875 0l0 1.859375q0.671875 -1.0 1.578125 -1.53125q0.90625 -0.546875 1.890625 -0.546875q1.25 0 2.03125 0.796875q0.796875 0.796875 0.796875 2.203125l0 7.109375l-1.796875 0l0 -6.515625q0 -1.03125 -0.1875 -1.359375q-0.1875 -0.328125 -0.515625 -0.5q-0.328125 -0.1875 -0.6875 -0.1875q-0.671875 0 -1.453125 0.40625q-0.765625 0.40625 -1.65625 1.75l0 6.40625l-1.796875 0z" fill-rule="nonzero"/></g></svg>