<svg version="1.1" viewBox="0.0 0.0 655.0 380.0" fill="none" stroke="none" stroke-linecap="square" stroke-miterlimit="10" xmlns:xlink="http://www.w3.org/1999/xlink" xmlns="http://www.w3.org/2000/svg"><clipPath id="p.0"><path d="m0 0l655.0 0l0 380.0l-655.0 0l0 -380.0z" clip-rule="nonzero"/></clipPath><g clip-path="url(#p.0)"><path fill="#000000" fill-opacity="0.0" d="m0 0l655.0 0l0 380.0l-655.0 0z" fill-rule="evenodd"/><path fill="#d9d9d9" d="m8.829396 22.677166l221.44882 0l0 100.85039l-221.44882 0z" fill-rule="evenodd"/><path stroke="#000000" stroke-width="2.0" stroke-linejoin="round" stroke-linecap="butt" d="m8.829396 22.677166l221.44882 0l0 100.85039l-221.44882 0z" fill-rule="evenodd"/><path fill="#ffffff" d="m23.902887 36.811024l91.40157 0l0 32.031498l-91.40157 0z" fill-rule="evenodd"/><path stroke="#000000" stroke-width="2.0" stroke-linejoin="round" stroke-linecap="butt" d="m23.902887 36.811024l91.40157 0l0 32.031498l-91.40157 0z" fill-rule="evenodd"/><path fill="#000000" d="m34.44976 58.68677l0 -8.484375l1.53125 0l0 1.59375q0.46875 -0.75 1.203125 -1.265625q0.734375 -0.515625 1.6875 -0.515625q0.5625 0 0.96875 0.1875q0.421875 0.171875 0.75 0.5q0.34375 0.328125 0.609375 1.09375q0.46875 -0.765625 1.1875 -1.28125q0.71875 -0.515625 1.65625 -0.515625q0.90625 0 1.625 0.5625q0.734375 0.5625 0.734375 1.953125l0 6.171875l-1.546875 0l0 -5.9375q0 -0.84375 -0.359375 -1.140625q-0.359375 -0.3125 -0.796875 -0.3125q-0.546875 0 -1.140625 0.34375q-0.578125 0.34375 -1.359375 1.359375l0 5.6875l-1.546875 0l0 -5.9375q0 -0.84375 -0.359375 -1.140625q-0.359375 -0.3125 -0.8125 -0.3125q-0.5625 0 -1.125 0.34375q-0.5625 0.328125 -1.375 1.359375l0 5.6875l-1.53125 0zm14.0625 1.15625l0 -1.15625l6.65625 0l0 1.15625l-6.65625 0zm8.5625 -1.453125l0 -1.421875q1.5 0.75 2.625 0.75q0.65625 0 1.09375 -0.359375q0.4375 -0.359375 0.4375 -0.890625q0 -0.34375 -0.21875 -0.65625q-0.21875 -0.328125 -1.0 -0.65625l-0.90625 -0.375q-1.03125 -0.4375 -1.515625 -1.0q-0.46875 -0.5625 -0.46875 -1.390625q0 -1.015625 0.734375 -1.6875q0.75 -0.6875 2.203125 -0.6875q0.703125 0 1.75 0.1875l0.328125 0.0625l0 1.28125q-1.296875 -0.375 -2.0625 -0.375q-0.734375 0 -1.109375 0.328125q-0.359375 0.3125 -0.359375 0.75q0 0.34375 0.25 0.609375q0.234375 0.28125 0.875 0.5625l0.734375 0.3125q1.5 0.625 1.90625 1.25q0.40625 0.609375 0.40625 1.34375q0 0.6875 -0.390625 1.28125q-0.375 0.59375 -1.109375 0.9375q-0.734375 0.34375 -1.640625 0.34375q-1.0625 0 -2.5625 -0.5zm8.46875 0.296875l0 -8.484375l1.53125 0l0 8.484375l-1.53125 0zm0 -10.03125l0 -1.53125l1.53125 0l0 1.53125l-1.53125 0zm4.046875 10.03125l0 -1.15625l5.25 -6.171875l-5.015625 0l0 -1.15625l6.90625 0l0 1.15625l-5.25 6.171875l5.359375 0l0 1.15625l-7.25 0zm15.96875 -0.28125q-1.546875 0.484375 -2.65625 0.484375q-1.96875 0 -3.109375 -1.328125q-1.125 -1.34375 -1.125 -3.15625q0 -1.203125 0.5 -2.28125q0.5 -1.078125 1.296875 -1.59375q0.8125 -0.53125 1.90625 -0.53125q1.46875 0 2.34375 1.0625q0.875 1.046875 0.875 3.15625l0 0.46875l-5.359375 0q0.125 1.125 0.484375 1.734375q0.359375 0.609375 0.953125 0.953125q0.609375 0.328125 1.53125 0.328125q0.46875 0 0.921875 -0.078125q0.46875 -0.078125 1.4375 -0.4375l0 1.21875zm-5.25 -4.875l3.734375 0q0 -1.28125 -0.5 -1.828125q-0.484375 -0.546875 -1.265625 -0.546875q-0.875 0 -1.375 0.59375q-0.5 0.59375 -0.59375 1.78125z" fill-rule="nonzero"/><path fill="#ffffff" d="m23.902887 68.84252l91.40157 0l0 32.031494l-91.40157 0z" fill-rule="evenodd"/><path stroke="#000000" stroke-width="2.0" stroke-linejoin="round" stroke-linecap="butt" d="m23.902887 68.84252l91.40157 0l0 32.031494l-91.40157 0z" fill-rule="evenodd"/><path fill="#000000" d="m34.44976 90.71827l0 -8.484375l1.53125 0l0 1.59375q0.46875 -0.75 1.203125 -1.265625q0.734375 -0.515625 1.6875 -0.515625q0.5625 0 0.96875 0.1875q0.421875 0.171875 0.75 0.5q0.34375 0.328125 0.609375 1.09375q0.46875 -0.765625 1.1875 -1.28125q0.71875 -0.515625 1.65625 -0.515625q0.90625 0 1.625 0.5625q0.734375 0.5625 0.734375 1.953125l0 6.171875l-1.546875 0l0 -5.9375q0 -0.84375 -0.359375 -1.140625q-0.359375 -0.3125 -0.796875 -0.3125q-0.546875 0 -1.140625 0.34375q-0.578125 0.34375 -1.359375 1.359375l0 5.6875l-1.546875 0l0 -5.9375q0 -0.84375 -0.359375 -1.140625q-0.359375 -0.3125 -0.8125 -0.3125q-0.5625 0 -1.125 0.34375q-0.5625 0.328125 -1.375 1.359375l0 5.6875l-1.53125 0zm14.0625 1.15625l0 -1.15625l6.65625 0l0 1.15625l-6.65625 0zm14.3125 -1.15625l0 -1.59375q-0.46875 0.890625 -1.171875 1.34375q-0.703125 0.453125 -1.65625 0.453125q-1.5625 0 -2.421875 -1.15625q-0.859375 -1.15625 -0.859375 -3.03125q0 -2.015625 0.96875 -3.34375q0.96875 -1.34375 2.640625 -1.34375q0.5 0 0.9375 0.125q0.453125 0.109375 0.796875 0.328125q0.34375 0.203125 0.765625 0.703125l0 -4.828125l1.546875 0l0 12.34375l-1.546875 0zm0 -6.46875q-0.796875 -0.703125 -1.265625 -0.875q-0.453125 -0.171875 -1.0 -0.171875q-1.125 0 -1.671875 0.953125q-0.53125 0.9375 -0.53125 2.421875q0 1.390625 0.46875 2.1875q0.484375 0.796875 1.5 0.796875q0.640625 0 1.265625 -0.34375q0.625 -0.359375 1.234375 -1.0625l0 -3.90625zm9.0078125 5.390625q-0.6875 0.625 -1.359375 0.953125q-0.671875 0.328125 -1.3125 0.328125q-0.890625 0 -1.671875 -0.59375q-0.765625 -0.609375 -0.765625 -1.75q0 -1.25 1.078125 -2.0625q1.078125 -0.8125 3.4375 -0.8125l0.359375 0l0 -1.03125q0 -0.609375 -0.171875 -0.875q-0.15625 -0.28125 -0.5 -0.4375q-0.34375 -0.15625 -0.859375 -0.15625q-1.203125 0 -2.609375 0.75l0 -1.28125q1.546875 -0.625 2.921875 -0.625q0.75 0 1.375 0.234375q0.640625 0.234375 1.015625 0.75q0.375 0.515625 0.375 1.640625l0 3.84375q0 0.640625 0.09375 0.875q0.109375 0.21875 0.28125 0.34375q0.1875 0.109375 0.4375 0.109375q0.09375 0 0.296875 -0.03125l0.109375 0.84375q-0.53125 0.265625 -1.15625 0.265625q-0.421875 0 -0.8125 -0.28125q-0.390625 -0.28125 -0.5625 -1.0zm-0.234375 -0.84375l0 -2.1875l-0.484375 -0.015625q-1.21875 0 -2.046875 0.46875q-0.8125 0.46875 -0.8125 1.265625q0 0.5625 0.40625 0.953125q0.40625 0.375 0.9375 0.375q0.484375 0 0.984375 -0.21875q0.5 -0.21875 1.015625 -0.640625zm8.4765625 1.921875q-0.71875 0.203125 -1.234375 0.203125q-1.140625 0 -1.8125 -0.65625q-0.671875 -0.671875 -0.671875 -1.890625l0 -4.984375l-1.0625 0l0 -1.15625l1.0625 0l0 -1.546875l1.53125 -0.140625l0 1.6875l2.21875 0l0 1.15625l-2.21875 0l0 4.703125q0 0.890625 0.34375 1.28125q0.34375 0.375 1.09375 0.375q0.3125 0 0.75 -0.09375l0 1.0625zm6.578125 -1.078125q-0.6875 0.625 -1.359375 0.953125q-0.671875 0.328125 -1.3125 0.328125q-0.890625 0 -1.671875 -0.59375q-0.765625 -0.609375 -0.765625 -1.75q0 -1.25 1.078125 -2.0625q1.078125 -0.8125 3.4375 -0.8125l0.359375 0l0 -1.03125q0 -0.609375 -0.171875 -0.875q-0.15625 -0.28125 -0.5 -0.4375q-0.34375 -0.15625 -0.859375 -0.15625q-1.203125 0 -2.609375 0.75l0 -1.28125q1.546875 -0.625 2.921875 -0.625q0.75 0 1.375 0.234375q0.640625 0.234375 1.015625 0.75q0.375 0.515625 0.375 1.640625l0 3.84375q0 0.640625 0.09375 0.875q0.109375 0.21875 0.28125 0.34375q0.1875 0.109375 0.4375 0.109375q0.09375 0 0.296875 -0.03125l0.109375 0.84375q-0.53125 0.265625 -1.15625 0.265625q-0.421875 0 -0.8125 -0.28125q-0.390625 -0.28125 -0.5625 -1.0zm-0.234375 -0.84375l0 -2.1875l-0.484375 -0.015625q-1.21875 0 -2.046875 0.46875q-0.8125 0.46875 -0.8125 1.265625q0 0.5625 0.40625 0.953125q0.40625 0.375 0.9375 0.375q0.484375 0 0.984375 -0.21875q0.5 -0.21875 1.015625 -0.640625z" fill-rule="nonzero"/><path fill="#ffffff" d="m115.30446 36.811024l91.40158 0l0 32.031498l-91.40158 0z" fill-rule="evenodd"/><path stroke="#000000" stroke-width="2.0" stroke-linejoin="round" stroke-linecap="butt" d="m115.30446 36.811024l91.40158 0l0 32.031498l-91.40158 0z" fill-rule="evenodd"/><path fill="#000000" d="m157.89978 58.733646l0 -1.375q1.140625 0.453125 2.1875 0.453125q1.25 0 1.84375 -0.734375q0.59375 -0.734375 0.59375 -1.78125q0 -1.1875 -0.875 -1.890625q-0.859375 -0.71875 -2.703125 -0.71875q-0.421875 0 -0.859375 0.0625l0 -5.625l5.859375 0l0 1.34375l-4.5 0l0 3.046875q2.4375 0 3.578125 1.109375q1.140625 1.109375 1.140625 2.75q0 1.5 -1.03125 2.5625q-1.03125 1.046875 -3.234375 1.046875q-0.890625 0 -2.0 -0.25z" fill-rule="nonzero"/><path fill="#ffffff" d="m115.30446 68.84252l91.40158 0l0 32.031494l-91.40158 0z" fill-rule="evenodd"/><path stroke="#000000" stroke-width="2.0" stroke-linejoin="round" stroke-linecap="butt" d="m115.30446 68.84252l91.40158 0l0 32.031494l-91.40158 0z" fill-rule="evenodd"/><path fill="#000000" fill-opacity="0.0" d="m115.30446 123.52756l114.99213 0l0 35.55905l-114.99213 0z" fill-rule="evenodd"/><path fill="#000000" d="m132.28883 145.32756l0 -9.625l2.484375 0q1.640625 0 2.3125 0.625q0.6875 0.625 0.6875 1.484375q0 0.703125 -0.46875 1.40625q-0.453125 0.6875 -1.515625 1.09375q0.9375 0.28125 1.390625 0.65625q0.46875 0.359375 0.71875 0.875q0.25 0.515625 0.25 1.078125q0 0.671875 -0.34375 1.25q-0.34375 0.578125 -0.90625 0.875q-0.5625 0.28125 -1.78125 0.28125l-2.828125 0zm1.34375 -1.015625l0.28125 0q1.453125 0 1.875 -0.15625q0.4375 -0.171875 0.671875 -0.53125q0.25 -0.375 0.25 -0.828125q0 -0.84375 -0.765625 -1.421875q-0.765625 -0.578125 -1.921875 -0.578125l-0.390625 0l0 3.515625zm0 -4.390625l0.4375 0q1.1875 0 1.734375 -0.5q0.5625 -0.515625 0.5625 -1.296875q0 -0.6875 -0.5 -1.046875q-0.484375 -0.359375 -1.703125 -0.359375l-0.53125 0l0 3.203125zm6.353775 5.40625l0 -7.0625l1.28125 0l0 7.0625l-1.28125 0zm0 -8.34375l0 -1.28125l1.28125 0l0 1.28125l-1.28125 0zm3.8839111 10.6875l0.140625 -1.109375q1.125 0.53125 2.203125 0.53125q1.21875 0 1.6875 -0.625q0.46875 -0.625 0.46875 -1.671875l0 -1.109375q-0.28125 0.578125 -0.875 1.03125q-0.578125 0.453125 -1.4375 0.453125q-1.453125 0 -2.125 -1.046875q-0.65625 -1.046875 -0.65625 -2.375q0 -1.015625 0.390625 -1.890625q0.390625 -0.875 1.078125 -1.3125q0.703125 -0.4375 1.59375 -0.4375q0.390625 0 0.734375 0.09375q0.34375 0.078125 0.640625 0.265625q0.296875 0.1875 0.65625 0.59375l0 -0.796875l1.296875 0l0 5.140625q0 2.234375 -0.375 3.0625q-0.375 0.828125 -1.171875 1.203125q-0.796875 0.390625 -1.90625 0.390625q-0.34375 0 -0.765625 -0.046875q-0.40625 -0.03125 -0.734375 -0.09375q-0.328125 -0.0625 -0.84375 -0.25zm4.5 -4.796875l0 -2.921875q-0.421875 -0.453125 -0.875 -0.671875q-0.453125 -0.21875 -0.96875 -0.21875q-0.84375 0 -1.359375 0.6875q-0.515625 0.6875 -0.515625 2.0q0 1.015625 0.375 1.65625q0.390625 0.640625 1.25 0.640625q0.5625 0 1.078125 -0.296875q0.53125 -0.296875 1.015625 -0.875zm3.7480621 2.453125l0 -9.625l3.1875 0q1.859375 0 2.8125 0.53125q0.96875 0.53125 1.5 1.5625q0.546875 1.03125 0.546875 2.484375q0 1.375 -0.5 2.53125q-0.5 1.140625 -1.515625 1.828125q-1.0 0.6875 -2.8125 0.6875l-3.21875 0zm1.359375 -1.015625l1.75 0q1.375 0 2.046875 -0.4375q0.6875 -0.4375 1.0625 -1.375q0.390625 -0.9375 0.390625 -2.078125q0 -1.015625 -0.34375 -1.84375q-0.328125 -0.84375 -1.078125 -1.34375q-0.734375 -0.515625 -2.703125 -0.515625l-1.125 0l0 7.59375zm12.295578 0.125q-0.5625 0.515625 -1.125 0.78125q-0.5625 0.265625 -1.09375 0.265625q-0.75 0 -1.390625 -0.484375q-0.640625 -0.5 -0.640625 -1.453125q0 -1.03125 0.890625 -1.703125q0.90625 -0.6875 2.875 -0.6875l0.296875 0l0 -0.859375q0 -0.5 -0.140625 -0.734375q-0.125 -0.234375 -0.421875 -0.359375q-0.28125 -0.140625 -0.71875 -0.140625q-1.0 0 -2.171875 0.625l0 -1.0625q1.296875 -0.515625 2.4375 -0.515625q0.625 0 1.140625 0.203125q0.53125 0.1875 0.84375 0.625q0.3125 0.421875 0.3125 1.359375l0 3.203125q0 0.53125 0.078125 0.71875q0.09375 0.1875 0.25 0.28125q0.15625 0.09375 0.359375 0.09375q0.078125 0 0.234375 -0.015625l0.09375 0.703125q-0.4375 0.203125 -0.953125 0.203125q-0.359375 0 -0.6875 -0.21875q-0.328125 -0.234375 -0.46875 -0.828125zm-0.1875 -0.703125l0 -1.828125l-0.40625 -0.015625q-1.015625 0 -1.703125 0.390625q-0.671875 0.390625 -0.671875 1.0625q0 0.46875 0.328125 0.78125q0.34375 0.3125 0.796875 0.3125q0.390625 0 0.8125 -0.171875q0.421875 -0.1875 0.84375 -0.53125zm7.0635376 1.59375q-0.59375 0.15625 -1.03125 0.15625q-0.953125 0 -1.515625 -0.546875q-0.5625 -0.546875 -0.5625 -1.5625l0 -4.15625l-0.875 0l0 -0.953125l0.875 0l0 -1.28125l1.28125 -0.125l0 1.40625l1.859375 0l0 0.953125l-1.859375 0l0 3.921875q0 0.75 0.28125 1.078125q0.296875 0.3125 0.921875 0.3125q0.25 0 0.625 -0.09375l0 0.890625zm5.469406 -0.890625q-0.5625 0.515625 -1.125 0.78125q-0.5625 0.265625 -1.09375 0.265625q-0.75 0 -1.390625 -0.484375q-0.640625 -0.5 -0.640625 -1.453125q0 -1.03125 0.890625 -1.703125q0.90625 -0.6875 2.875 -0.6875l0.296875 0l0 -0.859375q0 -0.5 -0.140625 -0.734375q-0.125 -0.234375 -0.421875 -0.359375q-0.28125 -0.140625 -0.71875 -0.140625q-1.0 0 -2.171875 0.625l0 -1.0625q1.296875 -0.515625 2.4375 -0.515625q0.625 0 1.140625 0.203125q0.53125 0.1875 0.84375 0.625q0.3125 0.421875 0.3125 1.359375l0 3.203125q0 0.53125 0.078125 0.71875q0.09375 0.1875 0.25 0.28125q0.15625 0.09375 0.359375 0.09375q0.078125 0 0.234375 -0.015625l0.09375 0.703125q-0.4375 0.203125 -0.953125 0.203125q-0.359375 0 -0.6875 -0.21875q-0.328125 -0.234375 -0.46875 -0.828125zm-0.1875 -0.703125l0 -1.828125l-0.40625 -0.015625q-1.015625 0 -1.703125 0.390625q-0.671875 0.390625 -0.671875 1.0625q0 0.46875 0.328125 0.78125q0.34375 0.3125 0.796875 0.3125q0.390625 0 0.8125 -0.171875q0.421875 -0.1875 0.84375 -0.53125zm12.65564 1.59375l0 -1.328125q-0.390625 0.75 -0.984375 1.125q-0.578125 0.359375 -1.359375 0.359375q-1.3125 0 -2.03125 -0.953125q-0.71875 -0.953125 -0.71875 -2.515625q0 -1.671875 0.8125 -2.78125q0.8125 -1.125 2.203125 -1.125q0.40625 0 0.78125 0.09375q0.375 0.09375 0.65625 0.28125q0.296875 0.171875 0.640625 0.578125l0 -4.015625l1.296875 0l0 10.28125l-1.296875 0zm0 -5.375q-0.65625 -0.59375 -1.046875 -0.734375q-0.390625 -0.15625 -0.828125 -0.15625q-0.9375 0 -1.390625 0.796875q-0.453125 0.78125 -0.453125 2.03125q0 1.140625 0.390625 1.8125q0.40625 0.65625 1.25 0.65625q0.53125 0 1.046875 -0.28125q0.53125 -0.296875 1.03125 -0.875l0 -3.25zm7.4980316 4.484375q-0.5625 0.515625 -1.125 0.78125q-0.5625 0.265625 -1.09375 0.265625q-0.75 0 -1.390625 -0.484375q-0.640625 -0.5 -0.640625 -1.453125q0 -1.03125 0.890625 -1.703125q0.90625 -0.6875 2.875 -0.6875l0.296875 0l0 -0.859375q0 -0.5 -0.140625 -0.734375q-0.125 -0.234375 -0.421875 -0.359375q-0.28125 -0.140625 -0.71875 -0.140625q-1.0 0 -2.171875 0.625l0 -1.0625q1.296875 -0.515625 2.4375 -0.515625q0.625 0 1.140625 0.203125q0.53125 0.1875 0.84375 0.625q0.3125 0.421875 0.3125 1.359375l0 3.203125q0 0.53125 0.078125 0.71875q0.09375 0.1875 0.25 0.28125q0.15625 0.09375 0.359375 0.09375q0.078125 0 0.234375 -0.015625l0.09375 0.703125q-0.4375 0.203125 -0.953125 0.203125q-0.359375 0 -0.6875 -0.21875q-0.328125 -0.234375 -0.46875 -0.828125zm-0.1875 -0.703125l0 -1.828125l-0.40625 -0.015625q-1.015625 0 -1.703125 0.390625q-0.671875 0.390625 -0.671875 1.0625q0 0.46875 0.328125 0.78125q0.34375 0.3125 0.796875 0.3125q0.390625 0 0.8125 -0.171875q0.421875 -0.1875 0.84375 -0.53125zm7.0635376 1.59375q-0.59375 0.15625 -1.03125 0.15625q-0.953125 0 -1.515625 -0.546875q-0.5625 -0.546875 -0.5625 -1.5625l0 -4.15625l-0.875 0l0 -0.953125l0.875 0l0 -1.28125l1.28125 -0.125l0 1.40625l1.859375 0l0 0.953125l-1.859375 0l0 3.921875q0 0.75 0.28125 1.078125q0.296875 0.3125 0.921875 0.3125q0.25 0 0.625 -0.09375l0 0.890625zm5.469406 -0.890625q-0.5625 0.515625 -1.125 0.78125q-0.5625 0.265625 -1.09375 0.265625q-0.75 0 -1.390625 -0.484375q-0.640625 -0.5 -0.640625 -1.453125q0 -1.03125 0.890625 -1.703125q0.90625 -0.6875 2.875 -0.6875l0.296875 0l0 -0.859375q0 -0.5 -0.140625 -0.734375q-0.125 -0.234375 -0.421875 -0.359375q-0.28125 -0.140625 -0.71875 -0.140625q-1.0 0 -2.171875 0.625l0 -1.0625q1.296875 -0.515625 2.4375 -0.515625q0.625 0 1.140625 0.203125q0.53125 0.1875 0.84375 0.625q0.3125 0.421875 0.3125 1.359375l0 3.203125q0 0.53125 0.078125 0.71875q0.09375 0.1875 0.25 0.28125q0.15625 0.09375 0.359375 0.09375q0.078125 0 0.234375 -0.015625l0.09375 0.703125q-0.4375 0.203125 -0.953125 0.203125q-0.359375 0 -0.6875 -0.21875q-0.328125 -0.234375 -0.46875 -0.828125zm-0.1875 -0.703125l0 -1.828125l-0.40625 -0.015625q-1.015625 0 -1.703125 0.390625q-0.671875 0.390625 -0.671875 1.0625q0 0.46875 0.328125 0.78125q0.34375 0.3125 0.796875 0.3125q0.390625 0 0.8125 -0.171875q0.421875 -0.1875 0.84375 -0.53125zm6.1104126 1.59375l0 -8.671875l-1.515625 0l0 -0.796875l2.8125 -0.25l0 9.71875l-1.296875 0z" fill-rule="nonzero"/><path fill="#ffffff" d="m482.22046 8.220472l32.125977 0l0 32.031494l-32.125977 0z" fill-rule="evenodd"/><path stroke="#000000" stroke-width="2.0" stroke-linejoin="round" stroke-linecap="butt" d="m482.22046 8.220472l32.125977 0l0 32.031494l-32.125977 0z" fill-rule="evenodd"/><path fill="#000000" d="m497.41238 30.09622l0 -10.40625l-1.828125 0l0 -0.96875l3.375 -0.296875l0 11.671875l-1.546875 0z" fill-rule="nonzero"/><path fill="#ffffff" d="m514.34644 8.220472l32.125977 0l0 32.031494l-32.125977 0z" fill-rule="evenodd"/><path stroke="#000000" stroke-width="2.0" stroke-linejoin="round" stroke-linecap="butt" d="m514.34644 8.220472l32.125977 0l0 32.031494l-32.125977 0z" fill-rule="evenodd"/><path fill="#000000" d="m526.67896 30.09622l0 -1.359375q0.671875 -1.5625 2.71875 -3.421875l0.890625 -0.78125q0.953125 -0.875 1.328125 -1.578125q0.375 -0.71875 0.375 -1.484375q0 -0.96875 -0.59375 -1.515625q-0.59375 -0.5625 -1.59375 -0.5625q-0.4375 0 -0.828125 0.09375q-0.390625 0.078125 -0.84375 0.265625q-0.453125 0.171875 -1.15625 0.578125l0 -1.359375q1.53125 -0.734375 3.0625 -0.734375q1.65625 0 2.609375 0.921875q0.96875 0.90625 0.96875 2.28125q0 0.890625 -0.390625 1.6875q-0.390625 0.78125 -1.953125 2.109375l-0.59375 0.5q-0.640625 0.546875 -1.296875 1.34375q-0.65625 0.78125 -0.84375 1.65625l5.03125 0l0 1.359375l-6.890625 0z" fill-rule="nonzero"/><path fill="#ffffff" d="m546.4724 8.220472l32.126038 0l0 32.031494l-32.126038 0z" fill-rule="evenodd"/><path stroke="#000000" stroke-width="2.0" stroke-linejoin="round" stroke-linecap="butt" d="m546.4724 8.220472l32.126038 0l0 32.031494l-32.126038 0z" fill-rule="evenodd"/><path fill="#000000" d="m559.10187 30.00247l0 -1.4375q1.65625 0.65625 2.59375 0.65625q1.109375 0 1.796875 -0.640625q0.703125 -0.640625 0.703125 -1.671875q0 -1.0 -0.71875 -1.71875q-0.703125 -0.71875 -2.6875 -0.71875l-0.609375 0l0 -1.03125l0.53125 -0.015625q1.859375 0 2.53125 -0.671875q0.671875 -0.671875 0.671875 -1.578125q0 -0.8125 -0.53125 -1.296875q-0.53125 -0.484375 -1.59375 -0.484375q-1.140625 0 -2.53125 0.65625l0 -1.34375q1.0 -0.34375 1.546875 -0.40625q0.5625 -0.0625 1.09375 -0.0625q1.828125 0 2.6875 0.734375q0.875 0.734375 0.875 1.953125q0 0.671875 -0.25 1.1875q-0.25 0.515625 -0.765625 0.953125q-0.5 0.4375 -1.390625 0.765625q1.125 0.265625 1.671875 0.6875q0.5625 0.40625 0.84375 1.03125q0.28125 0.625 0.28125 1.34375q0 1.359375 -0.9375 2.4375q-0.921875 1.0625 -3.109375 1.0625q-1.078125 0 -2.703125 -0.390625z" fill-rule="nonzero"/><path fill="#ffffff" d="m578.59845 8.220472l32.125977 0l0 32.031494l-32.125977 0z" fill-rule="evenodd"/><path stroke="#000000" stroke-width="2.0" stroke-linejoin="round" stroke-linecap="butt" d="m578.59845 8.220472l32.125977 0l0 32.031494l-32.125977 0z" fill-rule="evenodd"/><path fill="#000000" d="m595.6341 30.09622l0 -3.28125l-5.203125 0l0 -1.15625l5.203125 -7.125l1.4375 0l0 7.03125l1.546875 0l0 1.25l-1.546875 0l0 3.28125l-1.4375 0zm-3.703125 -4.53125l3.796875 0l0 -5.140625l-3.796875 5.140625z" fill-rule="nonzero"/><path fill="#ffffff" d="m610.7244 8.220472l32.125977 0l0 32.031494l-32.125977 0z" fill-rule="evenodd"/><path stroke="#000000" stroke-width="2.0" stroke-linejoin="round" stroke-linecap="butt" d="m610.7244 8.220472l32.125977 0l0 32.031494l-32.125977 0z" fill-rule="evenodd"/><path fill="#000000" d="m623.68195 30.143095l0 -1.375q1.140625 0.453125 2.1875 0.453125q1.25 0 1.84375 -0.734375q0.59375 -0.734375 0.59375 -1.78125q0 -1.1875 -0.875 -1.890625q-0.859375 -0.71875 -2.703125 -0.71875q-0.421875 0 -0.859375 0.0625l0 -5.625l5.859375 0l0 1.34375l-4.5 0l0 3.046875q2.4375 0 3.578125 1.109375q1.140625 1.109375 1.140625 2.75q0 1.5 -1.03125 2.5625q-1.03125 1.046875 -3.234375 1.046875q-0.890625 0 -2.0 -0.25z" fill-rule="nonzero"/><path fill="#000000" fill-opacity="0.0" d="m158.0 83.98425l162.11023 0l0 -59.74803l162.11023 0" fill-rule="evenodd"/><path stroke="#000000" stroke-width="2.0" stroke-linejoin="round" stroke-linecap="butt" d="m165.58 83.98425l154.53023 0l0 -59.74803l150.11023 0" fill-rule="evenodd"/><path fill="#000000" stroke="#000000" stroke-width="2.0" stroke-linecap="butt" d="m159.0 83.98425c0 -1.8170166 1.4729767 -3.290001 3.2899933 -3.290001c1.8170166 0 3.2900085 1.4729843 3.2900085 3.290001c0 1.8170166 -1.472992 3.290001 -3.2900085 3.290001c-1.8170166 0 -3.2899933 -1.4729843 -3.2899933 -3.290001z" fill-rule="nonzero"/><path fill="#000000" stroke="#000000" stroke-width="2.0" stroke-linecap="butt" d="m470.22046 27.539686l9.076202 -3.303465l-9.076202 -3.303465z" fill-rule="evenodd"/><path fill="#d9d9d9" d="m8.829396 196.17323l221.44882 0l0 100.85039l-221.44882 0z" fill-rule="evenodd"/><path stroke="#000000" stroke-width="2.0" stroke-linejoin="round" stroke-linecap="butt" d="m8.829396 196.17323l221.44882 0l0 100.85039l-221.44882 0z" fill-rule="evenodd"/><path fill="#ffffff" d="m23.902887 210.30708l91.40157 0l0 32.031494l-91.40157 0z" fill-rule="evenodd"/><path stroke="#000000" stroke-width="2.0" stroke-linejoin="round" stroke-linecap="butt" d="m23.902887 210.30708l91.40157 0l0 32.031494l-91.40157 0z" fill-rule="evenodd"/><path fill="#000000" d="m34.44976 232.18283l0 -8.484375l1.53125 0l0 1.59375q0.46875 -0.75 1.203125 -1.265625q0.734375 -0.515625 1.6875 -0.515625q0.5625 0 0.96875 0.1875q0.421875 0.171875 0.75 0.5q0.34375 0.328125 0.609375 1.09375q0.46875 -0.765625 1.1875 -1.28125q0.71875 -0.515625 1.65625 -0.515625q0.90625 0 1.625 0.5625q0.734375 0.5625 0.734375 1.953125l0 6.171875l-1.546875 0l0 -5.9375q0 -0.84375 -0.359375 -1.140625q-0.359375 -0.3125 -0.796875 -0.3125q-0.546875 0 -1.140625 0.34375q-0.578125 0.34375 -1.359375 1.359375l0 5.6875l-1.546875 0l0 -5.9375q0 -0.84375 -0.359375 -1.140625q-0.359375 -0.3125 -0.8125 -0.3125q-0.5625 0 -1.125 0.34375q-0.5625 0.328125 -1.375 1.359375l0 5.6875l-1.53125 0zm14.0625 1.15625l0 -1.15625l6.65625 0l0 1.15625l-6.65625 0zm8.5625 -1.453125l0 -1.421875q1.5 0.75 2.625 0.75q0.65625 0 1.09375 -0.359375q0.4375 -0.359375 0.4375 -0.890625q0 -0.34375 -0.21875 -0.65625q-0.21875 -0.328125 -1.0 -0.65625l-0.90625 -0.375q-1.03125 -0.4375 -1.515625 -1.0q-0.46875 -0.5625 -0.46875 -1.390625q0 -1.015625 0.734375 -1.6875q0.75 -0.6875 2.203125 -0.6875q0.703125 0 1.75 0.1875l0.328125 0.0625l0 1.28125q-1.296875 -0.375 -2.0625 -0.375q-0.734375 0 -1.109375 0.328125q-0.359375 0.3125 -0.359375 0.75q0 0.34375 0.25 0.609375q0.234375 0.28125 0.875 0.5625l0.734375 0.3125q1.5 0.625 1.90625 1.25q0.40625 0.609375 0.40625 1.34375q0 0.6875 -0.390625 1.28125q-0.375 0.59375 -1.109375 0.9375q-0.734375 0.34375 -1.640625 0.34375q-1.0625 0 -2.5625 -0.5zm8.46875 0.296875l0 -8.484375l1.53125 0l0 8.484375l-1.53125 0zm0 -10.03125l0 -1.53125l1.53125 0l0 1.53125l-1.53125 0zm4.046875 10.03125l0 -1.15625l5.25 -6.171875l-5.015625 0l0 -1.15625l6.90625 0l0 1.15625l-5.25 6.171875l5.359375 0l0 1.15625l-7.25 0zm15.96875 -0.28125q-1.546875 0.484375 -2.65625 0.484375q-1.96875 0 -3.109375 -1.328125q-1.125 -1.34375 -1.125 -3.15625q0 -1.203125 0.5 -2.28125q0.5 -1.078125 1.296875 -1.59375q0.8125 -0.53125 1.90625 -0.53125q1.46875 0 2.34375 1.0625q0.875 1.046875 0.875 3.15625l0 0.46875l-5.359375 0q0.125 1.125 0.484375 1.734375q0.359375 0.609375 0.953125 0.953125q0.609375 0.328125 1.53125 0.328125q0.46875 0 0.921875 -0.078125q0.46875 -0.078125 1.4375 -0.4375l0 1.21875zm-5.25 -4.875l3.734375 0q0 -1.28125 -0.5 -1.828125q-0.484375 -0.546875 -1.265625 -0.546875q-0.875 0 -1.375 0.59375q-0.5 0.59375 -0.59375 1.78125z" fill-rule="nonzero"/><path fill="#ffffff" d="m23.902887 242.33858l91.40157 0l0 32.03151l-91.40157 0z" fill-rule="evenodd"/><path stroke="#000000" stroke-width="2.0" stroke-linejoin="round" stroke-linecap="butt" d="m23.902887 242.33858l91.40157 0l0 32.03151l-91.40157 0z" fill-rule="evenodd"/><path fill="#000000" d="m34.44976 264.21432l0 -8.484375l1.53125 0l0 1.59375q0.46875 -0.75 1.203125 -1.265625q0.734375 -0.515625 1.6875 -0.515625q0.5625 0 0.96875 0.1875q0.421875 0.171875 0.75 0.5q0.34375 0.328125 0.609375 1.09375q0.46875 -0.765625 1.1875 -1.28125q0.71875 -0.515625 1.65625 -0.515625q0.90625 0 1.625 0.5625q0.734375 0.5625 0.734375 1.953125l0 6.171875l-1.546875 0l0 -5.9375q0 -0.84375 -0.359375 -1.140625q-0.359375 -0.3125 -0.796875 -0.3125q-0.546875 0 -1.140625 0.34375q-0.578125 0.34375 -1.359375 1.359375l0 5.6875l-1.546875 0l0 -5.9375q0 -0.84375 -0.359375 -1.140625q-0.359375 -0.3125 -0.8125 -0.3125q-0.5625 0 -1.125 0.34375q-0.5625 0.328125 -1.375 1.359375l0 5.6875l-1.53125 0zm14.0625 1.15625l0 -1.15625l6.65625 0l0 1.15625l-6.65625 0zm14.3125 -1.15625l0 -1.59375q-0.46875 0.890625 -1.171875 1.34375q-0.703125 0.453125 -1.65625 0.453125q-1.5625 0 -2.421875 -1.15625q-0.859375 -1.15625 -0.859375 -3.03125q0 -2.015625 0.96875 -3.34375q0.96875 -1.34375 2.640625 -1.34375q0.5 0 0.9375 0.125q0.453125 0.109375 0.796875 0.328125q0.34375 0.203125 0.765625 0.703125l0 -4.828125l1.546875 0l0 12.34375l-1.546875 0zm0 -6.46875q-0.796875 -0.703125 -1.265625 -0.875q-0.453125 -0.171875 -1.0 -0.171875q-1.125 0 -1.671875 0.953125q-0.53125 0.9375 -0.53125 2.421875q0 1.390625 0.46875 2.1875q0.484375 0.796875 1.5 0.796875q0.640625 0 1.265625 -0.34375q0.625 -0.359375 1.234375 -1.0625l0 -3.90625zm9.0078125 5.390625q-0.6875 0.625 -1.359375 0.953125q-0.671875 0.328125 -1.3125 0.328125q-0.890625 0 -1.671875 -0.59375q-0.765625 -0.609375 -0.765625 -1.75q0 -1.25 1.078125 -2.0625q1.078125 -0.8125 3.4375 -0.8125l0.359375 0l0 -1.03125q0 -0.609375 -0.171875 -0.875q-0.15625 -0.28125 -0.5 -0.4375q-0.34375 -0.15625 -0.859375 -0.15625q-1.203125 0 -2.609375 0.75l0 -1.28125q1.546875 -0.625 2.921875 -0.625q0.75 0 1.375 0.234375q0.640625 0.234375 1.015625 0.75q0.375 0.515625 0.375 1.640625l0 3.84375q0 0.640625 0.09375 0.875q0.109375 0.21875 0.28125 0.34375q0.1875 0.109375 0.4375 0.109375q0.09375 0 0.296875 -0.03125l0.109375 0.84375q-0.53125 0.265625 -1.15625 0.265625q-0.421875 0 -0.8125 -0.28125q-0.390625 -0.28125 -0.5625 -1.0zm-0.234375 -0.84375l0 -2.1875l-0.484375 -0.015625q-1.21875 0 -2.046875 0.46875q-0.8125 0.46875 -0.8125 1.265625q0 0.5625 0.40625 0.953125q0.40625 0.375 0.9375 0.375q0.484375 0 0.984375 -0.21875q0.5 -0.21875 1.015625 -0.640625zm8.4765625 1.921875q-0.71875 0.203125 -1.234375 0.203125q-1.140625 0 -1.8125 -0.65625q-0.671875 -0.671875 -0.671875 -1.890625l0 -4.984375l-1.0625 0l0 -1.15625l1.0625 0l0 -1.546875l1.53125 -0.140625l0 1.6875l2.21875 0l0 1.15625l-2.21875 0l0 4.703125q0 0.890625 0.34375 1.28125q0.34375 0.375 1.09375 0.375q0.3125 0 0.75 -0.09375l0 1.0625zm6.578125 -1.078125q-0.6875 0.625 -1.359375 0.953125q-0.671875 0.328125 -1.3125 0.328125q-0.890625 0 -1.671875 -0.59375q-0.765625 -0.609375 -0.765625 -1.75q0 -1.25 1.078125 -2.0625q1.078125 -0.8125 3.4375 -0.8125l0.359375 0l0 -1.03125q0 -0.609375 -0.171875 -0.875q-0.15625 -0.28125 -0.5 -0.4375q-0.34375 -0.15625 -0.859375 -0.15625q-1.203125 0 -2.609375 0.75l0 -1.28125q1.546875 -0.625 2.921875 -0.625q0.75 0 1.375 0.234375q0.640625 0.234375 1.015625 0.75q0.375 0.515625 0.375 1.640625l0 3.84375q0 0.640625 0.09375 0.875q0.109375 0.21875 0.28125 0.34375q0.1875 0.109375 0.4375 0.109375q0.09375 0 0.296875 -0.03125l0.109375 0.84375q-0.53125 0.265625 -1.15625 0.265625q-0.421875 0 -0.8125 -0.28125q-0.390625 -0.28125 -0.5625 -1.0zm-0.234375 -0.84375l0 -2.1875l-0.484375 -0.015625q-1.21875 0 -2.046875 0.46875q-0.8125 0.46875 -0.8125 1.265625q0 0.5625 0.40625 0.953125q0.40625 0.375 0.9375 0.375q0.484375 0 0.984375 -0.21875q0.5 -0.21875 1.015625 -0.640625z" fill-rule="nonzero"/><path fill="#ffffff" d="m115.30446 210.30708l91.40158 0l0 32.031494l-91.40158 0z" fill-rule="evenodd"/><path stroke="#000000" stroke-width="2.0" stroke-linejoin="round" stroke-linecap="butt" d="m115.30446 210.30708l91.40158 0l0 32.031494l-91.40158 0z" fill-rule="evenodd"/><path fill="#000000" d="m157.89978 232.2297l0 -1.375q1.140625 0.453125 2.1875 0.453125q1.25 0 1.84375 -0.734375q0.59375 -0.734375 0.59375 -1.78125q0 -1.1875 -0.875 -1.890625q-0.859375 -0.71875 -2.703125 -0.71875q-0.421875 0 -0.859375 0.0625l0 -5.625l5.859375 0l0 1.34375l-4.5 0l0 3.046875q2.4375 0 3.578125 1.109375q1.140625 1.109375 1.140625 2.75q0 1.5 -1.03125 2.5625q-1.03125 1.046875 -3.234375 1.046875q-0.890625 0 -2.0 -0.25z" fill-rule="nonzero"/><path fill="#ffffff" d="m115.30446 242.33858l91.40158 0l0 32.03151l-91.40158 0z" fill-rule="evenodd"/><path stroke="#000000" stroke-width="2.0" stroke-linejoin="round" stroke-linecap="butt" d="m115.30446 242.33858l91.40158 0l0 32.03151l-91.40158 0z" fill-rule="evenodd"/><path fill="#000000" fill-opacity="0.0" d="m115.28609 297.02362l114.99213 0l0 35.55905l-114.99213 0z" fill-rule="evenodd"/><path fill="#000000" d="m132.27046 318.8236l0 -9.625l2.484375 0q1.640625 0 2.3125 0.625q0.6875 0.625 0.6875 1.484375q0 0.703125 -0.46875 1.40625q-0.453125 0.6875 -1.515625 1.09375q0.9375 0.28125 1.390625 0.65625q0.46875 0.359375 0.71875 0.875q0.25 0.515625 0.25 1.078125q0 0.671875 -0.34375 1.25q-0.34375 0.578125 -0.90625 0.875q-0.5625 0.28125 -1.78125 0.28125l-2.828125 0zm1.34375 -1.015625l0.28125 0q1.453125 0 1.875 -0.15625q0.4375 -0.171875 0.671875 -0.53125q0.25 -0.375 0.25 -0.828125q0 -0.84375 -0.765625 -1.421875q-0.765625 -0.578125 -1.921875 -0.578125l-0.390625 0l0 3.515625zm0 -4.390625l0.4375 0q1.1875 0 1.734375 -0.5q0.5625 -0.515625 0.5625 -1.296875q0 -0.6875 -0.5 -1.046875q-0.484375 -0.359375 -1.703125 -0.359375l-0.53125 0l0 3.203125zm6.353775 5.40625l0 -7.0625l1.28125 0l0 7.0625l-1.28125 0zm0 -8.34375l0 -1.28125l1.28125 0l0 1.28125l-1.28125 0zm3.8839111 10.6875l0.140625 -1.109375q1.125 0.53125 2.203125 0.53125q1.21875 0 1.6875 -0.625q0.46875 -0.625 0.46875 -1.671875l0 -1.109375q-0.28125 0.578125 -0.875 1.03125q-0.578125 0.453125 -1.4375 0.453125q-1.453125 0 -2.125 -1.046875q-0.65625 -1.046875 -0.65625 -2.375q0 -1.015625 0.390625 -1.890625q0.390625 -0.875 1.078125 -1.3125q0.703125 -0.4375 1.59375 -0.4375q0.390625 0 0.734375 0.09375q0.34375 0.078125 0.640625 0.265625q0.296875 0.1875 0.65625 0.59375l0 -0.796875l1.296875 0l0 5.140625q0 2.234375 -0.375 3.0625q-0.375 0.828125 -1.171875 1.203125q-0.796875 0.390625 -1.90625 0.390625q-0.34375 0 -0.765625 -0.046875q-0.40625 -0.03125 -0.734375 -0.09375q-0.328125 -0.0625 -0.84375 -0.25zm4.5 -4.796875l0 -2.921875q-0.421875 -0.453125 -0.875 -0.671875q-0.453125 -0.21875 -0.96875 -0.21875q-0.84375 0 -1.359375 0.6875q-0.515625 0.6875 -0.515625 2.0q0 1.015625 0.375 1.65625q0.390625 0.640625 1.25 0.640625q0.5625 0 1.078125 -0.296875q0.53125 -0.296875 1.015625 -0.875zm3.7480621 2.453125l0 -9.625l3.1875 0q1.859375 0 2.8125 0.53125q0.96875 0.53125 1.5 1.5625q0.546875 1.03125 0.546875 2.484375q0 1.375 -0.5 2.53125q-0.5 1.140625 -1.515625 1.828125q-1.0 0.6875 -2.8125 0.6875l-3.21875 0zm1.359375 -1.015625l1.75 0q1.375 0 2.046875 -0.4375q0.6875 -0.4375 1.0625 -1.375q0.390625 -0.9375 0.390625 -2.078125q0 -1.015625 -0.34375 -1.84375q-0.328125 -0.84375 -1.078125 -1.34375q-0.734375 -0.515625 -2.703125 -0.515625l-1.125 0l0 7.59375zm12.295578 0.125q-0.5625 0.515625 -1.125 0.78125q-0.5625 0.265625 -1.09375 0.265625q-0.75 0 -1.390625 -0.484375q-0.640625 -0.5 -0.640625 -1.453125q0 -1.03125 0.890625 -1.703125q0.90625 -0.6875 2.875 -0.6875l0.296875 0l0 -0.859375q0 -0.5 -0.140625 -0.734375q-0.125 -0.234375 -0.421875 -0.359375q-0.28125 -0.140625 -0.71875 -0.140625q-1.0 0 -2.171875 0.625l0 -1.0625q1.296875 -0.515625 2.4375 -0.515625q0.625 0 1.140625 0.203125q0.53125 0.1875 0.84375 0.625q0.3125 0.421875 0.3125 1.359375l0 3.203125q0 0.53125 0.078125 0.71875q0.09375 0.1875 0.25 0.28125q0.15625 0.09375 0.359375 0.09375q0.078125 0 0.234375 -0.015625l0.09375 0.703125q-0.4375 0.203125 -0.953125 0.203125q-0.359375 0 -0.6875 -0.21875q-0.328125 -0.234375 -0.46875 -0.828125zm-0.1875 -0.703125l0 -1.828125l-0.40625 -0.015625q-1.015625 0 -1.703125 0.390625q-0.671875 0.390625 -0.671875 1.0625q0 0.46875 0.328125 0.78125q0.34375 0.3125 0.796875 0.3125q0.390625 0 0.8125 -0.171875q0.421875 -0.1875 0.84375 -0.53125zm7.0635376 1.59375q-0.59375 0.15625 -1.03125 0.15625q-0.953125 0 -1.515625 -0.546875q-0.5625 -0.546875 -0.5625 -1.5625l0 -4.15625l-0.875 0l0 -0.953125l0.875 0l0 -1.28125l1.28125 -0.125l0 1.40625l1.859375 0l0 0.953125l-1.859375 0l0 3.921875q0 0.75 0.28125 1.078125q0.296875 0.3125 0.921875 0.3125q0.25 0 0.625 -0.09375l0 0.890625zm5.469406 -0.890625q-0.5625 0.515625 -1.125 0.78125q-0.5625 0.265625 -1.09375 0.265625q-0.75 0 -1.390625 -0.484375q-0.640625 -0.5 -0.640625 -1.453125q0 -1.03125 0.890625 -1.703125q0.90625 -0.6875 2.875 -0.6875l0.296875 0l0 -0.859375q0 -0.5 -0.140625 -0.734375q-0.125 -0.234375 -0.421875 -0.359375q-0.28125 -0.140625 -0.71875 -0.140625q-1.0 0 -2.171875 0.625l0 -1.0625q1.296875 -0.515625 2.4375 -0.515625q0.625 0 1.140625 0.203125q0.53125 0.1875 0.84375 0.625q0.3125 0.421875 0.3125 1.359375l0 3.203125q0 0.53125 0.078125 0.71875q0.09375 0.1875 0.25 0.28125q0.15625 0.09375 0.359375 0.09375q0.078125 0 0.234375 -0.015625l0.09375 0.703125q-0.4375 0.203125 -0.953125 0.203125q-0.359375 0 -0.6875 -0.21875q-0.328125 -0.234375 -0.46875 -0.828125zm-0.1875 -0.703125l0 -1.828125l-0.40625 -0.015625q-1.015625 0 -1.703125 0.390625q-0.671875 0.390625 -0.671875 1.0625q0 0.46875 0.328125 0.78125q0.34375 0.3125 0.796875 0.3125q0.390625 0 0.8125 -0.171875q0.421875 -0.1875 0.84375 -0.53125zm12.65564 1.59375l0 -1.328125q-0.390625 0.75 -0.984375 1.125q-0.578125 0.359375 -1.359375 0.359375q-1.3125 0 -2.03125 -0.953125q-0.71875 -0.953125 -0.71875 -2.515625q0 -1.671875 0.8125 -2.78125q0.8125 -1.125 2.203125 -1.125q0.40625 0 0.78125 0.09375q0.375 0.09375 0.65625 0.28125q0.296875 0.171875 0.640625 0.578125l0 -4.015625l1.296875 0l0 10.28125l-1.296875 0zm0 -5.375q-0.65625 -0.59375 -1.046875 -0.734375q-0.390625 -0.15625 -0.828125 -0.15625q-0.9375 0 -1.390625 0.796875q-0.453125 0.78125 -0.453125 2.03125q0 1.140625 0.390625 1.8125q0.40625 0.65625 1.25 0.65625q0.53125 0 1.046875 -0.28125q0.53125 -0.296875 1.03125 -0.875l0 -3.25zm7.4980316 4.484375q-0.5625 0.515625 -1.125 0.78125q-0.5625 0.265625 -1.09375 0.265625q-0.75 0 -1.390625 -0.484375q-0.640625 -0.5 -0.640625 -1.453125q0 -1.03125 0.890625 -1.703125q0.90625 -0.6875 2.875 -0.6875l0.296875 0l0 -0.859375q0 -0.5 -0.140625 -0.734375q-0.125 -0.234375 -0.421875 -0.359375q-0.28125 -0.140625 -0.71875 -0.140625q-1.0 0 -2.171875 0.625l0 -1.0625q1.296875 -0.515625 2.4375 -0.515625q0.625 0 1.140625 0.203125q0.53125 0.1875 0.84375 0.625q0.3125 0.421875 0.3125 1.359375l0 3.203125q0 0.53125 0.078125 0.71875q0.09375 0.1875 0.25 0.28125q0.15625 0.09375 0.359375 0.09375q0.078125 0 0.234375 -0.015625l0.09375 0.703125q-0.4375 0.203125 -0.953125 0.203125q-0.359375 0 -0.6875 -0.21875q-0.328125 -0.234375 -0.46875 -0.828125zm-0.1875 -0.703125l0 -1.828125l-0.40625 -0.015625q-1.015625 0 -1.703125 0.390625q-0.671875 0.390625 -0.671875 1.0625q0 0.46875 0.328125 0.78125q0.34375 0.3125 0.796875 0.3125q0.390625 0 0.8125 -0.171875q0.421875 -0.1875 0.84375 -0.53125zm7.0635376 1.59375q-0.59375 0.15625 -1.03125 0.15625q-0.953125 0 -1.515625 -0.546875q-0.5625 -0.546875 -0.5625 -1.5625l0 -4.15625l-0.875 0l0 -0.953125l0.875 0l0 -1.28125l1.28125 -0.125l0 1.40625l1.859375 0l0 0.953125l-1.859375 0l0 3.921875q0 0.75 0.28125 1.078125q0.296875 0.3125 0.921875 0.3125q0.25 0 0.625 -0.09375l0 0.890625zm5.469406 -0.890625q-0.5625 0.515625 -1.125 0.78125q-0.5625 0.265625 -1.09375 0.265625q-0.75 0 -1.390625 -0.484375q-0.640625 -0.5 -0.640625 -1.453125q0 -1.03125 0.890625 -1.703125q0.90625 -0.6875 2.875 -0.6875l0.296875 0l0 -0.859375q0 -0.5 -0.140625 -0.734375q-0.125 -0.234375 -0.421875 -0.359375q-0.28125 -0.140625 -0.71875 -0.140625q-1.0 0 -2.171875 0.625l0 -1.0625q1.296875 -0.515625 2.4375 -0.515625q0.625 0 1.140625 0.203125q0.53125 0.1875 0.84375 0.625q0.3125 0.421875 0.3125 1.359375l0 3.203125q0 0.53125 0.078125 0.71875q0.09375 0.1875 0.25 0.28125q0.15625 0.09375 0.359375 0.09375q0.078125 0 0.234375 -0.015625l0.09375 0.703125q-0.4375 0.203125 -0.953125 0.203125q-0.359375 0 -0.6875 -0.21875q-0.328125 -0.234375 -0.46875 -0.828125zm-0.1875 -0.703125l0 -1.828125l-0.40625 -0.015625q-1.015625 0 -1.703125 0.390625q-0.671875 0.390625 -0.671875 1.0625q0 0.46875 0.328125 0.78125q0.34375 0.3125 0.796875 0.3125q0.390625 0 0.8125 -0.171875q0.421875 -0.1875 0.84375 -0.53125zm3.7354126 1.59375l0 -1.125q0.5625 -1.3125 2.265625 -2.84375l0.734375 -0.671875q0.796875 -0.71875 1.109375 -1.3125q0.3125 -0.59375 0.3125 -1.21875q0 -0.8125 -0.5 -1.265625q-0.5 -0.46875 -1.328125 -0.46875q-0.359375 0 -0.6875 0.078125q-0.328125 0.0625 -0.703125 0.21875q-0.375 0.140625 -0.96875 0.46875l0 -1.125q1.28125 -0.609375 2.546875 -0.609375q1.390625 0 2.1875 0.765625q0.8125 0.765625 0.8125 1.90625q0 0.734375 -0.328125 1.390625q-0.328125 0.65625 -1.625 1.765625l-0.5 0.421875q-0.546875 0.453125 -1.09375 1.109375q-0.53125 0.65625 -0.6875 1.390625l4.1875 0l0 1.125l-5.734375 0z" fill-rule="nonzero"/><path fill="#000000" fill-opacity="0.0" d="m158.0 258.99213l162.11023 0l0 -46.803146l162.11023 0" fill-rule="evenodd"/><path stroke="#000000" stroke-width="2.0" stroke-linejoin="round" stroke-linecap="butt" d="m165.58 258.99213l154.53023 0l0 -46.803146l150.11023 0" fill-rule="evenodd"/><path fill="#000000" stroke="#000000" stroke-width="2.0" stroke-linecap="butt" d="m159.0 258.99213c0 -1.8170166 1.4729767 -3.2899933 3.2899933 -3.2899933c1.8170166 0 3.2900085 1.4729767 3.2900085 3.2899933c0 1.8170166 -1.472992 3.2900085 -3.2900085 3.2900085c-1.8170166 0 -3.2899933 -1.472992 -3.2899933 -3.2900085z" fill-rule="nonzero"/><path fill="#000000" stroke="#000000" stroke-width="2.0" stroke-linecap="butt" d="m470.22046 215.49245l9.076202 -3.3034668l-9.076202 -3.3034668z" fill-rule="evenodd"/><path fill="#000000" fill-opacity="0.0" d="m296.66666 7.6666665l-0.3779297 361.32285" fill-rule="evenodd"/><path stroke="#000000" stroke-width="3.0" stroke-linejoin="round" stroke-linecap="butt" stroke-dasharray="24.0,9.0" d="m296.66666 7.6666665l-0.3779297 361.32285" fill-rule="evenodd"/><path fill="#000000" fill-opacity="0.0" d="m8.829396 332.58267l88.661415 0l0 42.015747l-88.661415 0z" fill-rule="evenodd"/><path fill="#000000" fill-opacity="0.0" d="m17.829397 342.61368l46.658844 0l0 21.45285l-46.658844 0l0 -21.45285z" fill-rule="nonzero"/><path fill="#000000" d="m18.673147 355.2058l1.65625 -0.140625q0.125 1.0 0.546875 1.640625q0.4375 0.640625 1.34375 1.046875q0.921875 0.390625 2.0625 0.390625q1.0 0 1.78125 -0.296875q0.78125 -0.296875 1.15625 -0.8125q0.375 -0.53125 0.375 -1.15625q0 -0.625 -0.375 -1.09375q-0.359375 -0.46875 -1.1875 -0.796875q-0.546875 -0.203125 -2.390625 -0.640625q-1.828125 -0.453125 -2.5625 -0.84375q-0.96875 -0.5 -1.4375 -1.234375q-0.46875 -0.75 -0.46875 -1.671875q0 -1.0 0.578125 -1.875q0.578125 -0.890625 1.671875 -1.34375q1.109375 -0.453125 2.453125 -0.453125q1.484375 0 2.609375 0.484375q1.140625 0.46875 1.75 1.40625q0.609375 0.921875 0.65625 2.09375l-1.6875 0.125q-0.140625 -1.265625 -0.9375 -1.90625q-0.78125 -0.65625 -2.3125 -0.65625q-1.609375 0 -2.34375 0.59375q-0.734375 0.59375 -0.734375 1.421875q0 0.71875 0.53125 1.171875q0.5 0.46875 2.65625 0.96875q2.15625 0.484375 2.953125 0.84375q1.171875 0.53125 1.71875 1.359375q0.5625 0.828125 0.5625 1.90625q0 1.0625 -0.609375 2.015625q-0.609375 0.9375 -1.75 1.46875q-1.140625 0.515625 -2.578125 0.515625q-1.8125 0 -3.046875 -0.53125q-1.21875 -0.53125 -1.921875 -1.59375q-0.6875 -1.0625 -0.71875 -2.40625zm16.412321 2.828125l0.234375 1.453125q-0.6875 0.140625 -1.234375 0.140625q-0.890625 0 -1.390625 -0.28125q-0.484375 -0.28125 -0.6875 -0.734375q-0.2031231 -0.46875 -0.2031231 -1.9375l0 -5.578125l-1.203125 0l0 -1.265625l1.203125 0l0 -2.390625l1.6249981 -0.984375l0 3.375l1.65625 0l0 1.265625l-1.65625 0l0 5.671875q0 0.6875 0.078125 0.890625q0.09375 0.203125 0.28125 0.328125q0.203125 0.109375 0.578125 0.109375q0.265625 0 0.71875 -0.0625zm7.917679 0.28125q-0.921875 0.765625 -1.765625 1.09375q-0.828125 0.3125 -1.796875 0.3125q-1.59375 0 -2.453125 -0.78125q-0.859375 -0.78125 -0.859375 -1.984375q0 -0.71875 0.328125 -1.296875q0.328125 -0.59375 0.84375 -0.9375q0.53125 -0.359375 1.1875 -0.546875q0.46875 -0.125 1.453125 -0.25q1.984375 -0.234375 2.921875 -0.5625q0.015625 -0.34375 0.015625 -0.421875q0 -1.0 -0.46875 -1.421875q-0.625 -0.546875 -1.875 -0.546875q-1.15625 0 -1.703125 0.40625q-0.546875 0.40625 -0.8125 1.421875l-1.609375 -0.21875q0.21875 -1.015625 0.71875 -1.640625q0.5 -0.640625 1.453125 -0.984375q0.953125 -0.34375 2.1875 -0.34375q1.25 0 2.015625 0.296875q0.78125 0.28125 1.140625 0.734375q0.375 0.4375 0.515625 1.109375q0.078125 0.421875 0.078125 1.515625l0 2.1875q0 2.28125 0.109375 2.890625q0.109375 0.59375 0.40625 1.15625l-1.703125 0q-0.265625 -0.515625 -0.328125 -1.1875zm-0.140625 -3.671875q-0.890625 0.375 -2.671875 0.625q-1.015625 0.140625 -1.4375 0.328125q-0.421875 0.1875 -0.65625 0.53125q-0.21875 0.34375 -0.21875 0.78125q0 0.65625 0.5 1.09375q0.5 0.4375 1.453125 0.4375q0.9375 0 1.671875 -0.40625q0.75 -0.421875 1.09375 -1.140625q0.265625 -0.5625 0.265625 -1.640625l0 -0.609375zm10.516342 1.3125l1.609375 0.21875q-0.265625 1.65625 -1.359375 2.609375q-1.078125 0.9375 -2.671875 0.9375q-1.984375 0 -3.1875 -1.296875q-1.203125 -1.296875 -1.203125 -3.71875q0 -1.578125 0.515625 -2.75q0.515625 -1.171875 1.578125 -1.75q1.0625 -0.59375 2.3125 -0.59375q1.578125 0 2.578125 0.796875q1.0 0.796875 1.28125 2.265625l-1.59375 0.234375q-0.234375 -0.96875 -0.8125 -1.453125q-0.578125 -0.5 -1.390625 -0.5q-1.234375 0 -2.015625 0.890625q-0.78125 0.890625 -0.78125 2.8125q0 1.953125 0.75 2.84375q0.75 0.875 1.953125 0.875q0.96875 0 1.609375 -0.59375q0.65625 -0.59375 0.828125 -1.828125zm3.015625 3.546875l0 -13.359375l1.640625 0l0 7.625l3.890625 -3.9375l2.1093788 0l-3.6875038 3.59375l4.062504 6.078125l-2.0156288 0l-3.203125 -4.953125l-1.15625 1.125l0 3.828125l-1.640625 0z" fill-rule="nonzero"/><path fill="#000000" fill-opacity="0.0" d="m64.48824 342.61368l0 0l0 21.45285l0 0l0 -21.45285z" fill-rule="nonzero"/><path fill="#000000" d="m17.829397 360.716l46.658844 0l0 1.6799927l-46.658844 0l0 -1.6799927z" fill-rule="nonzero"/><path fill="#000000" fill-opacity="0.0" d="m310.88715 332.58267l88.66141 0l0 42.015747l-88.66141 0z" fill-rule="evenodd"/><path fill="#000000" fill-opacity="0.0" d="m319.88715 342.61368l44.600098 0l0 21.45285l-44.600098 0l0 -21.45285z" fill-rule="nonzero"/><path fill="#000000" d="m321.38715 359.5027l0 -13.359375l1.765625 0l0 5.484375l6.9375 0l0 -5.484375l1.765625 0l0 13.359375l-1.765625 0l0 -6.296875l-6.9375 0l0 6.296875l-1.765625 0zm19.832306 -3.109375l1.6875 0.203125q-0.40625 1.484375 -1.484375 2.3125q-1.078125 0.8125 -2.765625 0.8125q-2.125 0 -3.375 -1.296875q-1.234375 -1.3125 -1.234375 -3.671875q0 -2.453125 1.25 -3.796875q1.265625 -1.34375 3.265625 -1.34375q1.9375 0 3.15625 1.328125q1.234375 1.3125 1.234375 3.703125q0 0.15625 0 0.4375l-7.21875 0q0.09375 1.59375 0.90625 2.453125q0.8125 0.84375 2.015625 0.84375q0.90625 0 1.546875 -0.46875q0.640625 -0.484375 1.015625 -1.515625zm-5.390625 -2.65625l5.40625 0q-0.109375 -1.21875 -0.625 -1.828125q-0.78125 -0.953125 -2.03125 -0.953125q-1.125 0 -1.90625 0.765625q-0.765625 0.75 -0.84375 2.015625zm15.453857 4.578125q-0.921875 0.765625 -1.765625 1.09375q-0.828125 0.3125 -1.796875 0.3125q-1.59375 0 -2.453125 -0.78125q-0.859375 -0.78125 -0.859375 -1.984375q0 -0.71875 0.328125 -1.296875q0.328125 -0.59375 0.84375 -0.9375q0.53125 -0.359375 1.1875 -0.546875q0.46875 -0.125 1.453125 -0.25q1.984375 -0.234375 2.921875 -0.5625q0.015625 -0.34375 0.015625 -0.421875q0 -1.0 -0.46875 -1.421875q-0.625 -0.546875 -1.875 -0.546875q-1.15625 0 -1.703125 0.40625q-0.546875 0.40625 -0.8125 1.421875l-1.609375 -0.21875q0.21875 -1.015625 0.71875 -1.640625q0.5 -0.640625 1.453125 -0.984375q0.953125 -0.34375 2.1875 -0.34375q1.25 0 2.015625 0.296875q0.78125 0.28125 1.140625 0.734375q0.375 0.4375 0.515625 1.109375q0.078125 0.421875 0.078125 1.515625l0 2.1875q0 2.28125 0.109375 2.890625q0.109375 0.59375 0.40625 1.15625l-1.703125 0q-0.265625 -0.515625 -0.328125 -1.1875zm-0.140625 -3.671875q-0.890625 0.375 -2.671875 0.625q-1.015625 0.140625 -1.4375 0.328125q-0.421875 0.1875 -0.65625 0.53125q-0.21875 0.34375 -0.21875 0.78125q0 0.65625 0.5 1.09375q0.5 0.4375 1.453125 0.4375q0.9375 0 1.671875 -0.40625q0.75 -0.421875 1.09375 -1.140625q0.265625 -0.5625 0.265625 -1.640625l0 -0.609375zm4.203827 8.5625l0 -13.375l1.484375 0l0 1.25q0.53125 -0.734375 1.1875 -1.09375q0.671875 -0.375 1.625 -0.375q1.234375 0 2.171875 0.640625q0.953125 0.625 1.4375 1.796875q0.484375 1.15625 0.484375 2.546875q0 1.484375 -0.53125 2.671875q-0.53125 1.1875 -1.546875 1.828125q-1.015625 0.625 -2.140625 0.625q-0.8125 0 -1.46875 -0.34375q-0.65625 -0.34375 -1.0625 -0.875l0 4.703125l-1.640625 0zm1.484375 -8.484375q0 1.859375 0.75 2.765625q0.765625 0.890625 1.828125 0.890625q1.09375 0 1.875 -0.921875q0.78125 -0.9375 0.78125 -2.875q0 -1.84375 -0.765625 -2.765625q-0.75 -0.921875 -1.8125 -0.921875q-1.046875 0 -1.859375 0.984375q-0.796875 0.96875 -0.796875 2.84375z" fill-rule="nonzero"/><path fill="#000000" fill-opacity="0.0" d="m364.48724 342.61368l0 0l0 21.45285l0 0l0 -21.45285z" fill-rule="nonzero"/><path fill="#000000" d="m319.88715 360.716l44.600098 0l0 1.6799927l-44.600098 0l0 -1.6799927z" fill-rule="nonzero"/><path fill="#ffffff" d="m482.22046 196.17323l32.125977 0l0 32.031494l-32.125977 0z" fill-rule="evenodd"/><path stroke="#000000" stroke-width="2.0" stroke-linejoin="round" stroke-linecap="butt" d="m482.22046 196.17323l32.125977 0l0 32.031494l-32.125977 0z" fill-rule="evenodd"/><path fill="#000000" d="m497.41238 218.04898l0 -10.40625l-1.828125 0l0 -0.96875l3.375 -0.296875l0 11.671875l-1.546875 0z" fill-rule="nonzero"/><path fill="#ffffff" d="m514.34644 196.17323l32.125977 0l0 32.031494l-32.125977 0z" fill-rule="evenodd"/><path stroke="#000000" stroke-width="2.0" stroke-linejoin="round" stroke-linecap="butt" d="m514.34644 196.17323l32.125977 0l0 32.031494l-32.125977 0z" fill-rule="evenodd"/><path fill="#000000" d="m526.67896 218.04898l0 -1.359375q0.671875 -1.5625 2.71875 -3.421875l0.890625 -0.78125q0.953125 -0.875 1.328125 -1.578125q0.375 -0.71875 0.375 -1.484375q0 -0.96875 -0.59375 -1.515625q-0.59375 -0.5625 -1.59375 -0.5625q-0.4375 0 -0.828125 0.09375q-0.390625 0.078125 -0.84375 0.265625q-0.453125 0.171875 -1.15625 0.578125l0 -1.359375q1.53125 -0.734375 3.0625 -0.734375q1.65625 0 2.609375 0.921875q0.96875 0.90625 0.96875 2.28125q0 0.890625 -0.390625 1.6875q-0.390625 0.78125 -1.953125 2.109375l-0.59375 0.5q-0.640625 0.546875 -1.296875 1.34375q-0.65625 0.78125 -0.84375 1.65625l5.03125 0l0 1.359375l-6.890625 0z" fill-rule="nonzero"/><path fill="#ffffff" d="m546.4724 196.17323l32.126038 0l0 32.031494l-32.126038 0z" fill-rule="evenodd"/><path stroke="#000000" stroke-width="2.0" stroke-linejoin="round" stroke-linecap="butt" d="m546.4724 196.17323l32.126038 0l0 32.031494l-32.126038 0z" fill-rule="evenodd"/><path fill="#000000" d="m559.10187 217.95523l0 -1.4375q1.65625 0.65625 2.59375 0.65625q1.109375 0 1.796875 -0.640625q0.703125 -0.640625 0.703125 -1.671875q0 -1.0 -0.71875 -1.71875q-0.703125 -0.71875 -2.6875 -0.71875l-0.609375 0l0 -1.03125l0.53125 -0.015625q1.859375 0 2.53125 -0.671875q0.671875 -0.671875 0.671875 -1.578125q0 -0.8125 -0.53125 -1.296875q-0.53125 -0.484375 -1.59375 -0.484375q-1.140625 0 -2.53125 0.65625l0 -1.34375q1.0 -0.34375 1.546875 -0.40625q0.5625 -0.0625 1.09375 -0.0625q1.828125 0 2.6875 0.734375q0.875 0.734375 0.875 1.953125q0 0.671875 -0.25 1.1875q-0.25 0.515625 -0.765625 0.953125q-0.5 0.4375 -1.390625 0.765625q1.125 0.265625 1.671875 0.6875q0.5625 0.40625 0.84375 1.03125q0.28125 0.625 0.28125 1.34375q0 1.359375 -0.9375 2.4375q-0.921875 1.0625 -3.109375 1.0625q-1.078125 0 -2.703125 -0.390625z" fill-rule="nonzero"/><path fill="#ffffff" d="m578.59845 196.17323l32.125977 0l0 32.031494l-32.125977 0z" fill-rule="evenodd"/><path stroke="#000000" stroke-width="2.0" stroke-linejoin="round" stroke-linecap="butt" d="m578.59845 196.17323l32.125977 0l0 32.031494l-32.125977 0z" fill-rule="evenodd"/><path fill="#000000" d="m595.6341 218.04898l0 -3.28125l-5.203125 0l0 -1.15625l5.203125 -7.125l1.4375 0l0 7.03125l1.546875 0l0 1.25l-1.546875 0l0 3.28125l-1.4375 0zm-3.703125 -4.53125l3.796875 0l0 -5.140625l-3.796875 5.140625z" fill-rule="nonzero"/><path fill="#ffffff" d="m610.7244 196.17323l32.125977 0l0 32.031494l-32.125977 0z" fill-rule="evenodd"/><path stroke="#000000" stroke-width="2.0" stroke-linejoin="round" stroke-linecap="butt" d="m610.7244 196.17323l32.125977 0l0 32.031494l-32.125977 0z" fill-rule="evenodd"/><path fill="#000000" d="m623.68195 218.09586l0 -1.375q1.140625 0.453125 2.1875 0.453125q1.25 0 1.84375 -0.734375q0.59375 -0.734375 0.59375 -1.78125q0 -1.1875 -0.875 -1.890625q-0.859375 -0.71875 -2.703125 -0.71875q-0.421875 0 -0.859375 0.0625l0 -5.625l5.859375 0l0 1.34375l-4.5 0l0 3.046875q2.4375 0 3.578125 1.109375q1.140625 1.109375 1.140625 2.75q0 1.5 -1.03125 2.5625q-1.03125 1.046875 -3.234375 1.046875q-0.890625 0 -2.0 -0.25z" fill-rule="nonzero"/></g></svg>