<svg version="1.1" viewBox="0.0 0.0 483.4776902887139 330.43569553805776" fill="none" stroke="none" stroke-linecap="square" stroke-miterlimit="10" xmlns:xlink="http://www.w3.org/1999/xlink" xmlns="http://www.w3.org/2000/svg"><clipPath id="p.0"><path d="m0 0l483.4777 0l0 330.4357l-483.4777 0l0 -330.4357z" clip-rule="nonzero"/></clipPath><g clip-path="url(#p.0)"><path fill="#ffffff" d="m0 0l483.4777 0l0 330.4357l-483.4777 0z" fill-rule="evenodd"/><path fill="#000000" fill-opacity="0.0" d="m13.918635 52.82677l457.16534 0l0 263.9055l-457.16534 0z" fill-rule="evenodd"/><path stroke="#000000" stroke-width="2.0" stroke-linejoin="round" stroke-linecap="butt" d="m13.918635 52.82677l457.16534 0l0 263.9055l-457.16534 0z" fill-rule="evenodd"/><path fill="#000000" fill-opacity="0.0" d="m6.0918636 6.5118113l211.9685 0l0 43.05512l-211.9685 0z" fill-rule="evenodd"/><path fill="#000000" d="m21.607489 34.194935q-0.78125 0 -1.296875 -0.3125q-0.515625 -0.3125 -0.828125 -0.828125q-0.3125 -0.5 -0.4375 -1.15625q-0.125 -0.671875 -0.125 -1.359375l0 -0.359375q0 -0.671875 0.125 -1.328125q0.125 -0.65625 0.453125 -1.171875q0.296875 -0.515625 0.8125 -0.828125q0.515625 -0.3125 1.296875 -0.3125q0.515625 0 0.953125 0.171875q0.453125 0.171875 0.765625 0.484375q0.3125 0.296875 0.484375 0.703125q0.171875 0.40625 0.171875 0.859375l2.34375 0q0.015625 -0.9375 -0.34375 -1.71875q-0.34375 -0.78125 -0.96875 -1.34375q-0.625 -0.546875 -1.5 -0.859375q-0.859375 -0.3125 -1.875 -0.3125q-1.296875 0 -2.28125 0.453125q-0.96875 0.4375 -1.625 1.21875q-0.65625 0.765625 -0.984375 1.796875q-0.328125 1.03125 -0.328125 2.1875l0 0.359375q0 1.171875 0.328125 2.203125q0.34375 1.015625 1.0 1.796875q0.640625 0.765625 1.609375 1.21875q0.984375 0.453125 2.28125 0.453125q0.9375 0 1.78125 -0.296875q0.859375 -0.3125 1.515625 -0.859375q0.640625 -0.515625 1.015625 -1.234375q0.390625 -0.734375 0.375 -1.5625l-2.34375 0q0 0.4375 -0.1875 0.796875q-0.1875 0.34375 -0.515625 0.609375q-0.328125 0.25 -0.765625 0.390625q-0.4375 0.140625 -0.90625 0.140625zm8.37709 -14.203125l0 2.078125l3.562498 0l0 11.859375l-3.562498 0l0 2.0625l9.484373 0l0 -2.0625l-3.40625 0l0 -13.9375l-6.078123 0zm19.517714 16.0l2.53125 0l0 -0.171875q-0.203125 -0.4375 -0.3125 -1.046875q-0.109375 -0.609375 -0.109375 -1.375l0 -5.015625q0 -0.953125 -0.359375 -1.6875q-0.34375 -0.734375 -0.96875 -1.21875q-0.625 -0.46875 -1.484375 -0.703125q-0.859375 -0.25 -1.84375 -0.25q-1.109375 0 -1.96875 0.28125q-0.859375 0.28125 -1.4375 0.765625q-0.609375 0.484375 -0.921875 1.109375q-0.3125 0.625 -0.328125 1.296875l2.5 0q0 -0.3125 0.125 -0.59375q0.125 -0.296875 0.375 -0.5q0.25 -0.21875 0.625 -0.34375q0.375 -0.125 0.890625 -0.125q0.5625 0 0.984375 0.140625q0.4375 0.140625 0.75 0.40625q0.28125 0.265625 0.421875 0.625q0.15625 0.34375 0.15625 0.78125l0 0.765625l-1.8125 0q-1.21875 0 -2.1875 0.234375q-0.953125 0.21875 -1.609375 0.65625q-0.71875 0.46875 -1.09375 1.1875q-0.359375 0.703125 -0.359375 1.640625q0 0.71875 0.28125 1.34375q0.296875 0.609375 0.8125 1.046875q0.515625 0.453125 1.234375 0.703125q0.71875 0.25 1.59375 0.25q0.546875 0 1.015625 -0.109375q0.46875 -0.09375 0.875 -0.28125q0.40625 -0.171875 0.734375 -0.421875q0.328125 -0.25 0.59375 -0.515625q0.046875 0.328125 0.109375 0.625q0.078125 0.296875 0.1875 0.5zm-3.03125 -1.796875q-0.484375 0 -0.84375 -0.109375q-0.34375 -0.125 -0.578125 -0.328125q-0.25 -0.21875 -0.375 -0.515625q-0.125 -0.296875 -0.125 -0.640625q0 -0.40625 0.15625 -0.734375q0.15625 -0.34375 0.46875 -0.578125q0.34375 -0.28125 0.9375 -0.4375q0.59375 -0.15625 1.40625 -0.15625l1.609375 0l0 2.09375q-0.140625 0.265625 -0.390625 0.515625q-0.25 0.25 -0.59375 0.453125q-0.34375 0.1875 -0.765625 0.3125q-0.421875 0.125 -0.90625 0.125zm16.00209 -1.25q0 0.265625 -0.125 0.5q-0.125 0.21875 -0.359375 0.40625q-0.296875 0.21875 -0.78125 0.359375q-0.484375 0.140625 -1.125 0.140625q-0.484375 0 -0.953125 -0.09375q-0.46875 -0.109375 -0.828125 -0.34375q-0.375 -0.21875 -0.625 -0.578125q-0.234375 -0.359375 -0.265625 -0.875l-2.421875 0q0 0.703125 0.328125 1.375q0.34375 0.671875 0.984375 1.203125q0.640625 0.53125 1.578125 0.859375q0.9375 0.3125 2.15625 0.3125q1.09375 0 1.984375 -0.25q0.90625 -0.25 1.546875 -0.703125q0.6406288 -0.4375 0.9843788 -1.0625q0.34375 -0.625 0.34375 -1.375q0 -0.78125 -0.328125 -1.34375q-0.328125 -0.5625 -0.9375038 -0.96875q-0.59375 -0.40625 -1.453125 -0.671875q-0.859375 -0.265625 -1.890625 -0.453125q-0.734375 -0.125 -1.21875 -0.28125q-0.484375 -0.15625 -0.75 -0.34375q-0.296875 -0.1875 -0.421875 -0.421875q-0.109375 -0.234375 -0.109375 -0.515625q0 -0.28125 0.140625 -0.53125q0.140625 -0.265625 0.40625 -0.453125q0.265625 -0.203125 0.6875 -0.328125q0.421875 -0.125 0.984375 -0.125q0.625 0 1.078125 0.171875q0.453125 0.15625 0.75 0.421875q0.25 0.234375 0.375 0.53125q0.140625 0.28125 0.140625 0.59375l2.4843788 0q0 -0.765625 -0.34375 -1.421875q-0.328125 -0.65625 -0.9375038 -1.140625q-0.625 -0.46875 -1.53125 -0.734375q-0.890625 -0.28125 -2.015625 -0.28125q-1.046875 0 -1.90625 0.265625q-0.859375 0.265625 -1.46875 0.734375q-0.609375 0.46875 -0.9375 1.09375q-0.328125 0.609375 -0.328125 1.296875q0 0.71875 0.3125 1.265625q0.328125 0.546875 0.90625 0.9375q0.578125 0.421875 1.390625 0.71875q0.8125 0.28125 1.78125 0.484375q0.78125 0.140625 1.296875 0.3125q0.53125 0.15625 0.859375 0.34375q0.296875 0.21875 0.421875 0.453125q0.140625 0.21875 0.140625 0.515625zm12.798969 0q0 0.265625 -0.125 0.5q-0.125 0.21875 -0.359375 0.40625q-0.296875 0.21875 -0.78125 0.359375q-0.484375 0.140625 -1.125 0.140625q-0.484375 0 -0.953125 -0.09375q-0.46875 -0.109375 -0.828125 -0.34375q-0.375 -0.21875 -0.625 -0.578125q-0.234375 -0.359375 -0.265625 -0.875l-2.421875 0q0 0.703125 0.328125 1.375q0.34375 0.671875 0.984375 1.203125q0.640625 0.53125 1.578125 0.859375q0.9375 0.3125 2.15625 0.3125q1.09375 0 1.984375 -0.25q0.90625 -0.25 1.546875 -0.703125q0.640625 -0.4375 0.984375 -1.0625q0.34375 -0.625 0.34375 -1.375q0 -0.78125 -0.328125 -1.34375q-0.328125 -0.5625 -0.9375 -0.96875q-0.59375 -0.40625 -1.453125 -0.671875q-0.859375 -0.265625 -1.890625 -0.453125q-0.734375 -0.125 -1.21875 -0.28125q-0.484375 -0.15625 -0.75 -0.34375q-0.296875 -0.1875 -0.421875 -0.421875q-0.109375 -0.234375 -0.109375 -0.515625q0 -0.28125 0.140625 -0.53125q0.140625 -0.265625 0.40625 -0.453125q0.265625 -0.203125 0.6875 -0.328125q0.421875 -0.125 0.984375 -0.125q0.625 0 1.078125 0.171875q0.453125 0.15625 0.75 0.421875q0.25 0.234375 0.375 0.53125q0.140625 0.28125 0.140625 0.59375l2.484375 0q0 -0.765625 -0.34375 -1.421875q-0.328125 -0.65625 -0.9375 -1.140625q-0.625 -0.46875 -1.53125 -0.734375q-0.890625 -0.28125 -2.015625 -0.28125q-1.046875 0 -1.90625 0.265625q-0.859375 0.265625 -1.46875 0.734375q-0.609375 0.46875 -0.9375 1.09375q-0.328125 0.609375 -0.328125 1.296875q0 0.71875 0.3125 1.265625q0.328125 0.546875 0.90625 0.9375q0.578125 0.421875 1.390625 0.71875q0.8125 0.28125 1.78125 0.484375q0.78125 0.140625 1.296875 0.3125q0.53125 0.15625 0.859375 0.34375q0.296875 0.21875 0.421875 0.453125q0.140625 0.21875 0.140625 0.515625zm20.84793 -2.734375l2.578125 0q1.140625 0 2.109375 -0.328125q0.96875 -0.34375 1.65625 -0.953125q0.703125 -0.609375 1.078125 -1.453125q0.390625 -0.84375 0.390625 -1.90625q0 -1.078125 -0.390625 -1.953125q-0.375 -0.875 -1.078125 -1.5q-0.6875 -0.609375 -1.65625 -0.9375q-0.96875 -0.34375 -2.109375 -0.34375l-5.078125 0l0 15.15625l2.5 0l0 -5.78125zm0 -2.046875l0 -5.296875l2.578125 0q0.640625 0.015625 1.140625 0.21875q0.5 0.1875 0.859375 0.5625q0.359375 0.359375 0.53125 0.859375q0.1875 0.484375 0.1875 1.09375q0 0.546875 -0.1875 1.015625q-0.171875 0.46875 -0.53125 0.8125q-0.359375 0.34375 -0.859375 0.546875q-0.5 0.1875 -1.140625 0.1875l-2.578125 0zm12.673965 -1.84375l0 -6.328125l-2.5 0l0 16.0l2.5 0l0 -8.15625q0.171875 -0.265625 0.40625 -0.484375q0.234375 -0.21875 0.5 -0.375q0.328125 -0.203125 0.71875 -0.296875q0.390625 -0.109375 0.828125 -0.109375q0.5625 0 0.984375 0.15625q0.4375 0.140625 0.75 0.453125q0.28125 0.296875 0.4375 0.765625q0.15625 0.46875 0.15625 1.09375l0 6.953125l2.484375 0l0 -6.9375q0 -1.203125 -0.296875 -2.0625q-0.28125 -0.859375 -0.796875 -1.40625q-0.515625 -0.546875 -1.25 -0.796875q-0.734375 -0.265625 -1.625 -0.265625q-0.640625 0 -1.203125 0.1875q-0.5625 0.171875 -1.03125 0.515625q-0.3125 0.203125 -0.578125 0.484375q-0.265625 0.28125 -0.484375 0.609375zm9.84584 3.9375l0 0.21875q0 1.234375 0.34375 2.28125q0.359375 1.03125 1.046875 1.8125q0.65625 0.765625 1.640625 1.203125q0.984375 0.4375 2.21875 0.4375q1.234375 0 2.203125 -0.4375q0.96875 -0.4375 1.640625 -1.203125q0.6562424 -0.78125 1.0156174 -1.8125q0.359375 -1.046875 0.359375 -2.28125l0 -0.21875q0 -1.234375 -0.359375 -2.28125q-0.359375 -1.046875 -1.0156174 -1.8125q-0.671875 -0.78125 -1.65625 -1.203125q-0.96875 -0.4375 -2.203125 -0.4375q-1.25 0 -2.21875 0.4375q-0.96875 0.421875 -1.625 1.203125q-0.6875 0.765625 -1.046875 1.8125q-0.34375 1.046875 -0.34375 2.28125zm2.484375 0.21875l0 -0.21875q0 -0.75 0.15625 -1.421875q0.171875 -0.671875 0.515625 -1.1875q0.328125 -0.515625 0.84375 -0.8125q0.515625 -0.296875 1.234375 -0.296875q0.71875 0 1.234375 0.296875q0.515625 0.296875 0.859375 0.8125q0.3125 0.515625 0.484375 1.1875q0.171875 0.671875 0.171875 1.421875l0 0.21875q0 0.75 -0.171875 1.4375q-0.15625 0.671875 -0.484375 1.1875q-0.34375 0.5 -0.859375 0.796875q-0.515625 0.296875 -1.21875 0.296875q-0.71875 0 -1.25 -0.296875q-0.515625 -0.296875 -0.84375 -0.796875q-0.34375 -0.515625 -0.515625 -1.1875q-0.15625 -0.6875 -0.15625 -1.4375zm10.767708 5.515625l2.5 0l0 -8.046875q0.15625 -0.28125 0.375 -0.515625q0.21875 -0.234375 0.46875 -0.40625q0.328125 -0.21875 0.71875 -0.328125q0.40625 -0.125 0.859375 -0.125q0.546875 0 0.96875 0.125q0.4375 0.109375 0.734375 0.390625q0.3125 0.28125 0.46875 0.75q0.15625 0.46875 0.15625 1.171875l0 6.984375l2.484375 0l0 -7.03125q0 -1.1875 -0.28125 -2.015625q-0.28125 -0.84375 -0.796875 -1.390625q-0.5 -0.53125 -1.21875 -0.78125q-0.71875 -0.25 -1.59375 -0.25q-0.65625 0 -1.25 0.1875q-0.59375 0.1875 -1.09375 0.53125q-0.3125 0.203125 -0.59375 0.484375q-0.265625 0.28125 -0.5 0.59375l-0.15625 -1.59375l-2.25 0l0 11.265625zm18.06459 0.203125q1.640625 0 2.796875 -0.640625q1.171875 -0.640625 1.734375 -1.453125l-1.328125 -1.296875q-0.53125 0.671875 -1.328125 1.03125q-0.796875 0.359375 -1.734375 0.359375q-0.671875 0 -1.25 -0.234375q-0.5625 -0.234375 -0.96875 -0.640625q-0.421875 -0.40625 -0.671875 -0.90625q-0.234375 -0.5 -0.34375 -1.234375l0 -0.046875l7.8125 0l0 -1.078125q0 -1.203125 -0.328125 -2.21875q-0.328125 -1.03125 -0.953125 -1.765625q-0.640625 -0.734375 -1.578125 -1.140625q-0.9375 -0.40625 -2.15625 -0.40625q-1.09375 0 -2.0625 0.40625q-0.953125 0.40625 -1.6875 1.171875q-0.71875 0.75 -1.140625 1.828125q-0.421875 1.078125 -0.421875 2.390625l0 0.4375q0 1.15625 0.40625 2.15625q0.40625 0.984375 1.140625 1.71875q0.734375 0.734375 1.765625 1.15625q1.046875 0.40625 2.296875 0.40625zm-0.296875 -9.65625q0.625 0 1.09375 0.21875q0.46875 0.203125 0.78125 0.5625q0.328125 0.359375 0.5 0.84375q0.1875 0.484375 0.1875 0.96875l0 0.171875l-5.3125 0q0.125 -0.640625 0.359375 -1.15625q0.234375 -0.515625 0.59375 -0.875q0.359375 -0.359375 0.8125 -0.546875q0.453125 -0.1875 0.984375 -0.1875zm17.736465 3.9375l0 -0.21875q0 -0.96875 -0.171875 -1.8125q-0.171875 -0.859375 -0.5 -1.5625q-0.25 -0.5 -0.578125 -0.921875q-0.328125 -0.421875 -0.75 -0.703125q-0.484375 -0.359375 -1.09375 -0.546875q-0.609375 -0.1875 -1.34375 -0.1875q-0.546875 0 -1.03125 0.109375q-0.46875 0.109375 -0.859375 0.328125q-0.296875 0.15625 -0.5625 0.375q-0.265625 0.21875 -0.484375 0.484375l0 -5.828125l-2.484375 0l0 16.0l2.25 0l0.109375 -1.234375q0.1875 0.234375 0.390625 0.4375q0.203125 0.1875 0.4375 0.34375q0.453125 0.328125 1.015625 0.484375q0.5625 0.171875 1.25 0.171875q0.671875 0 1.25 -0.171875q0.578125 -0.171875 1.046875 -0.484375q0.578125 -0.375 0.984375 -0.953125q0.421875 -0.59375 0.671875 -1.3125q0.21875 -0.609375 0.328125 -1.3125q0.125 -0.703125 0.125 -1.484375zm-2.484375 -0.21875l0 0.21875q0 0.46875 -0.0625 0.90625q-0.046875 0.4375 -0.140625 0.8125q-0.125 0.5 -0.359375 0.90625q-0.234375 0.390625 -0.609375 0.65625q-0.265625 0.1875 -0.609375 0.296875q-0.34375 0.109375 -0.765625 0.109375q-0.46875 0 -0.859375 -0.125q-0.375 -0.125 -0.671875 -0.328125q-0.25 -0.203125 -0.453125 -0.453125q-0.203125 -0.25 -0.359375 -0.5625l0 -4.671875q0.125 -0.265625 0.296875 -0.5q0.171875 -0.234375 0.390625 -0.421875q0.3125 -0.25 0.71875 -0.390625q0.40625 -0.140625 0.90625 -0.140625q0.421875 0 0.75 0.09375q0.34375 0.09375 0.59375 0.28125q0.40625 0.265625 0.640625 0.65625q0.234375 0.390625 0.375 0.875q0.109375 0.390625 0.15625 0.84375q0.0625 0.453125 0.0625 0.9375zm4.9239655 0l0 0.21875q0 1.234375 0.34375 2.28125q0.359375 1.03125 1.046875 1.8125q0.65625 0.765625 1.640625 1.203125q0.984375 0.4375 2.21875 0.4375q1.234375 0 2.203125 -0.4375q0.96875 -0.4375 1.640625 -1.203125q0.65625 -0.78125 1.015625 -1.8125q0.359375 -1.046875 0.359375 -2.28125l0 -0.21875q0 -1.234375 -0.359375 -2.28125q-0.359375 -1.046875 -1.015625 -1.8125q-0.671875 -0.78125 -1.65625 -1.203125q-0.96875 -0.4375 -2.203125 -0.4375q-1.25 0 -2.21875 0.4375q-0.96875 0.421875 -1.625 1.203125q-0.6875 0.765625 -1.046875 1.8125q-0.34375 1.046875 -0.34375 2.28125zm2.484375 0.21875l0 -0.21875q0 -0.75 0.15625 -1.421875q0.171875 -0.671875 0.515625 -1.1875q0.328125 -0.515625 0.84375 -0.8125q0.515625 -0.296875 1.234375 -0.296875q0.71875 0 1.234375 0.296875q0.515625 0.296875 0.859375 0.8125q0.3125 0.515625 0.484375 1.1875q0.171875 0.671875 0.171875 1.421875l0 0.21875q0 0.75 -0.171875 1.4375q-0.15625 0.671875 -0.484375 1.1875q-0.34375 0.5 -0.859375 0.796875q-0.515625 0.296875 -1.21875 0.296875q-0.71875 0 -1.25 -0.296875q-0.515625 -0.296875 -0.84375 -0.796875q-0.34375 -0.515625 -0.515625 -1.1875q-0.15625 -0.6875 -0.15625 -1.4375zm10.31459 -0.21875l0 0.21875q0 1.234375 0.34375 2.28125q0.359375 1.03125 1.046875 1.8125q0.65625 0.765625 1.640625 1.203125q0.984375 0.4375 2.21875 0.4375q1.234375 0 2.203125 -0.4375q0.96875 -0.4375 1.640625 -1.203125q0.65625 -0.78125 1.015625 -1.8125q0.359375 -1.046875 0.359375 -2.28125l0 -0.21875q0 -1.234375 -0.359375 -2.28125q-0.359375 -1.046875 -1.015625 -1.8125q-0.671875 -0.78125 -1.65625 -1.203125q-0.96875 -0.4375 -2.203125 -0.4375q-1.25 0 -2.21875 0.4375q-0.96875 0.421875 -1.625 1.203125q-0.6875 0.765625 -1.046875 1.8125q-0.34375 1.046875 -0.34375 2.28125zm2.484375 0.21875l0 -0.21875q0 -0.75 0.15625 -1.421875q0.171875 -0.671875 0.515625 -1.1875q0.328125 -0.515625 0.84375 -0.8125q0.515625 -0.296875 1.234375 -0.296875q0.71875 0 1.234375 0.296875q0.515625 0.296875 0.859375 0.8125q0.3125 0.515625 0.484375 1.1875q0.171875 0.671875 0.171875 1.421875l0 0.21875q0 0.75 -0.171875 1.4375q-0.15625 0.671875 -0.484375 1.1875q-0.34375 0.5 -0.859375 0.796875q-0.515625 0.296875 -1.21875 0.296875q-0.71875 0 -1.25 -0.296875q-0.515625 -0.296875 -0.84375 -0.796875q-0.34375 -0.515625 -0.515625 -1.1875q-0.15625 -0.6875 -0.15625 -1.4375zm14.642715 0.609375l3.59375 4.90625l3.078125 0l-5.015625 -6.578125l4.390625 -4.6875l-3.0 0l-3.359375 3.53125l-1.03125 1.15625l0 -9.421875l-2.5 0l0 16.0l2.5 0l0 -3.625l1.34375 -1.28125z" fill-rule="nonzero"/><path fill="#efefef" d="m38.097115 173.2126l110.173225 0l0 37.795273l-110.173225 0z" fill-rule="evenodd"/><path stroke="#000000" stroke-width="2.0" stroke-linejoin="round" stroke-linecap="butt" d="m38.097115 173.2126l110.173225 0l0 37.795273l-110.173225 0z" fill-rule="evenodd"/><path fill="#000000" d="m48.628365 199.03023l0 -13.359375l9.015625 0l0 1.578125l-7.25 0l0 4.140625l6.265625 0l0 1.578125l-6.265625 0l0 6.0625l-1.765625 0zm11.083481 0l0 -9.671875l1.46875 0l0 1.46875q0.5625 -1.03125 1.03125 -1.359375q0.484375 -0.328125 1.0625 -0.328125q0.828125 0 1.6875 0.53125l-0.5625 1.515625q-0.609375 -0.359375 -1.203125 -0.359375q-0.546875 0 -0.96875 0.328125q-0.421875 0.328125 -0.609375 0.890625q-0.28125 0.875 -0.28125 1.921875l0 5.0625l-1.625 0zm12.540802 -1.1875q-0.921875 0.765625 -1.765625 1.09375q-0.828125 0.3125 -1.796875 0.3125q-1.59375 0 -2.453125 -0.78125q-0.859375 -0.78125 -0.859375 -1.984375q0 -0.71875 0.328125 -1.296875q0.328125 -0.59375 0.84375 -0.9375q0.53125 -0.359375 1.1875 -0.546875q0.46875 -0.125 1.453125 -0.25q1.984375 -0.234375 2.921875 -0.5625q0.015625 -0.34375 0.015625 -0.421875q0 -1.0 -0.46875 -1.421875q-0.625 -0.546875 -1.875 -0.546875q-1.15625 0 -1.703125 0.40625q-0.546875 0.40625 -0.8125 1.421875l-1.609375 -0.21875q0.21875 -1.015625 0.71875 -1.640625q0.5 -0.640625 1.453125 -0.984375q0.953125 -0.34375 2.1875 -0.34375q1.25 0 2.015625 0.296875q0.78125 0.28125 1.140625 0.734375q0.375 0.4375 0.515625 1.109375q0.078125 0.421875 0.078125 1.515625l0 2.1875q0 2.28125 0.109375 2.890625q0.109375 0.59375 0.40625 1.15625l-1.703125 0q-0.265625 -0.515625 -0.328125 -1.1875zm-0.140625 -3.671875q-0.890625 0.375 -2.671875 0.625q-1.015625 0.140625 -1.4375 0.328125q-0.421875 0.1875 -0.65625 0.53125q-0.21875 0.34375 -0.21875 0.78125q0 0.65625 0.5 1.09375q0.5 0.4375 1.453125 0.4375q0.9375 0 1.671875 -0.40625q0.75 -0.421875 1.09375 -1.140625q0.265625 -0.5625 0.265625 -1.640625l0 -0.609375zm4.203842 4.859375l0 -9.671875l1.46875 0l0 1.375q1.0625 -1.59375 3.078125 -1.59375q0.875 0 1.609375 0.3125q0.734375 0.3125 1.09375 0.828125q0.375 0.5 0.515625 1.203125q0.09375 0.453125 0.09375 1.59375l0 5.953125l-1.640625 0l0 -5.890625q0 -1.0 -0.203125 -1.484375q-0.1875 -0.5 -0.671875 -0.796875q-0.484375 -0.296875 -1.140625 -0.296875q-1.046875 0 -1.8125 0.671875q-0.75 0.65625 -0.75 2.515625l0 5.28125l-1.640625 0zm9.500717 0l0 -1.328125l6.15625 -7.078125q-1.046875 0.0625 -1.84375 0.0625l-3.9375 0l0 -1.328125l7.90625 0l0 1.078125l-5.25 6.140625l-1.0 1.125q1.09375 -0.078125 2.0625 -0.078125l4.46875 0l0 1.40625l-8.5625 0z" fill-rule="nonzero"/><path fill="#efefef" d="m258.44357 173.2126l187.1496 0l0 37.795273l-187.1496 0z" fill-rule="evenodd"/><path stroke="#000000" stroke-width="2.0" stroke-linejoin="round" stroke-linecap="butt" d="m258.44357 173.2126l187.1496 0l0 37.795273l-187.1496 0z" fill-rule="evenodd"/><path fill="#000000" d="m272.11545 196.87398l0 -3.671875l-3.640625 0l0 -1.515625l3.640625 0l0 -3.640625l1.546875 0l0 3.640625l3.640625 0l0 1.515625l-3.640625 0l0 3.671875l-1.546875 0zm12.2543335 2.15625l0 -3.203125l-5.796875 0l0 -1.5l6.09375 -8.65625l1.34375 0l0 8.65625l1.796875 0l0 1.5l-1.796875 0l0 3.203125l-1.640625 0zm0 -4.703125l0 -6.015625l-4.1875 6.015625l4.1875 0zm5.360077 1.609375l1.578125 -0.140625q0.203125 1.109375 0.765625 1.609375q0.5625 0.5 1.453125 0.5q0.75 0 1.3125 -0.34375q0.578125 -0.34375 0.9375 -0.921875q0.375 -0.578125 0.609375 -1.5625q0.25 -0.984375 0.25 -2.0q0 -0.109375 0 -0.328125q-0.5 0.78125 -1.359375 1.265625q-0.84375 0.484375 -1.828125 0.484375q-1.671875 0 -2.8125 -1.203125q-1.140625 -1.203125 -1.140625 -3.171875q0 -2.03125 1.1875 -3.265625q1.203125 -1.234375 3.0 -1.234375q1.3125 0 2.390625 0.703125q1.078125 0.703125 1.640625 2.0q0.5625 1.296875 0.5625 3.75q0 2.5625 -0.5625 4.078125q-0.5625 1.515625 -1.65625 2.3125q-1.09375 0.796875 -2.578125 0.796875q-1.5625 0 -2.5625 -0.875q-0.984375 -0.875 -1.1875 -2.453125zm6.71875 -5.890625q0 -1.40625 -0.75 -2.234375q-0.75 -0.828125 -1.8125 -0.828125q-1.09375 0 -1.90625 0.890625q-0.8125 0.890625 -0.8125 2.3125q0 1.28125 0.765625 2.078125q0.78125 0.796875 1.90625 0.796875q1.140625 0 1.875 -0.796875q0.734375 -0.796875 0.734375 -2.21875zm8.840271 5.890625l1.578125 -0.140625q0.203125 1.109375 0.765625 1.609375q0.5625 0.5 1.453125 0.5q0.75 0 1.3125 -0.34375q0.578125 -0.34375 0.9375 -0.921875q0.375 -0.578125 0.609375 -1.5625q0.25 -0.984375 0.25 -2.0q0 -0.109375 0 -0.328125q-0.5 0.78125 -1.359375 1.265625q-0.84375 0.484375 -1.828125 0.484375q-1.671875 0 -2.8125 -1.203125q-1.140625 -1.203125 -1.140625 -3.171875q0 -2.03125 1.1875 -3.265625q1.203125 -1.234375 3.0 -1.234375q1.3125 0 2.390625 0.703125q1.078125 0.703125 1.640625 2.0q0.5625 1.296875 0.5625 3.75q0 2.5625 -0.5625 4.078125q-0.5625 1.515625 -1.65625 2.3125q-1.09375 0.796875 -2.578125 0.796875q-1.5625 0 -2.5625 -0.875q-0.984375 -0.875 -1.1875 -2.453125zm6.71875 -5.890625q0 -1.40625 -0.75 -2.234375q-0.75 -0.828125 -1.8125 -0.828125q-1.09375 0 -1.90625 0.890625q-0.8125 0.890625 -0.8125 2.3125q0 1.28125 0.765625 2.078125q0.78125 0.796875 1.90625 0.796875q1.140625 0 1.875 -0.796875q0.734375 -0.796875 0.734375 -2.21875zm9.594482 8.984375l-1.640625 0l0 -10.453125q-0.59375 0.5625 -1.5625 1.140625q-0.953125 0.5625 -1.71875 0.84375l0 -1.59375q1.375 -0.640625 2.40625 -1.5625q1.03125 -0.921875 1.453125 -1.78125l1.0625 0l0 13.40625zm8.990295 0l-1.640625 0l0 -10.453125q-0.59375 0.5625 -1.5625 1.140625q-0.953125 0.5625 -1.71875 0.84375l0 -1.59375q1.375 -0.640625 2.40625 -1.5625q1.03125 -0.921875 1.453125 -1.78125l1.0625 0l0 13.40625zm15.559021 0l-1.640625 0l0 -10.453125q-0.59375 0.5625 -1.5625 1.140625q-0.953125 0.5625 -1.71875 0.84375l0 -1.59375q1.375 -0.640625 2.40625 -1.5625q1.03125 -0.921875 1.453125 -1.78125l1.0625 0l0 13.40625zm12.813202 -1.578125l0 1.578125l-8.828125 0q-0.015625 -0.59375 0.1875 -1.140625q0.34375 -0.90625 1.078125 -1.78125q0.75 -0.875 2.15625 -2.015625q2.171875 -1.78125 2.9375 -2.828125q0.765625 -1.046875 0.765625 -1.96875q0 -0.984375 -0.703125 -1.640625q-0.6875 -0.671875 -1.8125 -0.671875q-1.1875 0 -1.90625 0.71875q-0.703125 0.703125 -0.703125 1.953125l-1.6875 -0.171875q0.171875 -1.890625 1.296875 -2.875q1.140625 -0.984375 3.03125 -0.984375q1.921875 0 3.046875 1.0625q1.125 1.0625 1.125 2.640625q0 0.796875 -0.328125 1.578125q-0.328125 0.78125 -1.09375 1.640625q-0.75 0.84375 -2.53125 2.34375q-1.46875 1.234375 -1.890625 1.6875q-0.421875 0.4375 -0.6875 0.875l6.546875 0zm1.7663574 -1.953125l1.640625 -0.21875q0.28125 1.40625 0.953125 2.015625q0.6875 0.609375 1.65625 0.609375q1.15625 0 1.953125 -0.796875q0.796875 -0.796875 0.796875 -1.984375q0 -1.125 -0.734375 -1.859375q-0.734375 -0.734375 -1.875 -0.734375q-0.46875 0 -1.15625 0.171875l0.1875 -1.4375q0.15625 0.015625 0.265625 0.015625q1.046875 0 1.875 -0.546875q0.84375 -0.546875 0.84375 -1.671875q0 -0.90625 -0.609375 -1.5q-0.609375 -0.59375 -1.578125 -0.59375q-0.953125 0 -1.59375 0.609375q-0.640625 0.59375 -0.8125 1.796875l-1.640625 -0.296875q0.296875 -1.640625 1.359375 -2.546875q1.0625 -0.90625 2.65625 -0.90625q1.09375 0 2.0 0.46875q0.921875 0.46875 1.40625 1.28125q0.5 0.8125 0.5 1.71875q0 0.859375 -0.46875 1.578125q-0.46875 0.703125 -1.375 1.125q1.1875 0.28125 1.84375 1.140625q0.65625 0.859375 0.65625 2.15625q0 1.734375 -1.28125 2.953125q-1.265625 1.21875 -3.21875 1.21875q-1.765625 0 -2.921875 -1.046875q-1.15625 -1.046875 -1.328125 -2.71875zm15.625702 3.53125l0 -3.203125l-5.796875 0l0 -1.5l6.09375 -8.65625l1.34375 0l0 8.65625l1.796875 0l0 1.5l-1.796875 0l0 3.203125l-1.640625 0zm0 -4.703125l0 -6.015625l-4.1875 6.015625l4.1875 0zm5.1257324 1.203125l1.71875 -0.140625q0.1875 1.25 0.875 1.890625q0.703125 0.625 1.6875 0.625q1.1875 0 2.0 -0.890625q0.828125 -0.890625 0.828125 -2.359375q0 -1.40625 -0.796875 -2.21875q-0.78125 -0.8125 -2.0625 -0.8125q-0.78125 0 -1.421875 0.359375q-0.640625 0.359375 -1.0 0.9375l-1.546875 -0.203125l1.296875 -6.859375l6.640625 0l0 1.5625l-5.328125 0l-0.71875 3.59375q1.203125 -0.84375 2.515625 -0.84375q1.75 0 2.953125 1.21875q1.203125 1.203125 1.203125 3.109375q0 1.8125 -1.046875 3.140625q-1.296875 1.625 -3.515625 1.625q-1.8125 0 -2.96875 -1.015625q-1.15625 -1.03125 -1.3125 -2.71875zm18.875702 -6.578125l-1.625 0.125q-0.21875 -0.96875 -0.625 -1.40625q-0.65625 -0.703125 -1.640625 -0.703125q-0.78125 0 -1.375 0.4375q-0.765625 0.5625 -1.21875 1.65625q-0.453125 1.078125 -0.46875 3.078125q0.59375 -0.890625 1.453125 -1.328125q0.859375 -0.4375 1.796875 -0.4375q1.640625 0 2.78125 1.203125q1.15625 1.203125 1.15625 3.109375q0 1.265625 -0.546875 2.34375q-0.53125 1.078125 -1.484375 1.65625q-0.9375 0.578125 -2.140625 0.578125q-2.0625 0 -3.359375 -1.5q-1.28125 -1.515625 -1.28125 -4.984375q0 -3.875 1.421875 -5.625q1.25 -1.53125 3.375 -1.53125q1.5625 0 2.5625 0.890625q1.015625 0.875 1.21875 2.4375zm-6.6875 5.75q0 0.84375 0.359375 1.625q0.359375 0.765625 1.0 1.171875q0.640625 0.40625 1.359375 0.40625q1.03125 0 1.78125 -0.828125q0.75 -0.84375 0.75 -2.28125q0 -1.390625 -0.734375 -2.1875q-0.734375 -0.796875 -1.859375 -0.796875q-1.109375 0 -1.890625 0.796875q-0.765625 0.796875 -0.765625 2.09375zm8.672607 -7.28125l0 -1.578125l8.640625 0l0 1.28125q-1.28125 1.359375 -2.53125 3.609375q-1.25 2.25 -1.9375 4.625q-0.484375 1.671875 -0.625 3.671875l-1.6875 0q0.03125 -1.578125 0.625 -3.8125q0.59375 -2.234375 1.6875 -4.296875q1.109375 -2.078125 2.359375 -3.5l-6.53125 0zm12.781952 4.375q-1.015625 -0.375 -1.515625 -1.0625q-0.484375 -0.703125 -0.484375 -1.671875q0 -1.453125 1.046875 -2.4375q1.046875 -1.0 2.78125 -1.0q1.75 0 2.8125 1.015625q1.078125 1.015625 1.078125 2.46875q0 0.9375 -0.5 1.625q-0.484375 0.6875 -1.46875 1.0625q1.21875 0.390625 1.859375 1.28125q0.65625 0.890625 0.65625 2.140625q0 1.703125 -1.21875 2.875q-1.21875 1.171875 -3.1875 1.171875q-1.984375 0 -3.203125 -1.171875q-1.203125 -1.171875 -1.203125 -2.921875q0 -1.3125 0.65625 -2.1875q0.671875 -0.875 1.890625 -1.1875zm-0.328125 -2.78125q0 0.9375 0.609375 1.546875q0.609375 0.59375 1.59375 0.59375q0.9375 0 1.546875 -0.59375q0.609375 -0.59375 0.609375 -1.453125q0 -0.90625 -0.625 -1.515625q-0.625 -0.625 -1.5625 -0.625q-0.9375 0 -1.5625 0.609375q-0.609375 0.59375 -0.609375 1.4375zm-0.53125 6.15625q0 0.703125 0.328125 1.359375q0.34375 0.65625 1.0 1.015625q0.65625 0.359375 1.40625 0.359375q1.171875 0 1.9375 -0.75q0.765625 -0.75 0.765625 -1.921875q0 -1.1875 -0.796875 -1.953125q-0.78125 -0.78125 -1.953125 -0.78125q-1.15625 0 -1.921875 0.765625q-0.765625 0.765625 -0.765625 1.90625zm8.953857 0.765625l1.578125 -0.140625q0.203125 1.109375 0.765625 1.609375q0.5625 0.5 1.453125 0.5q0.75 0 1.3125 -0.34375q0.578125 -0.34375 0.9375 -0.921875q0.375 -0.578125 0.609375 -1.5625q0.25 -0.984375 0.25 -2.0q0 -0.109375 0 -0.328125q-0.5 0.78125 -1.359375 1.265625q-0.84375 0.484375 -1.828125 0.484375q-1.671875 0 -2.8125 -1.203125q-1.140625 -1.203125 -1.140625 -3.171875q0 -2.03125 1.1875 -3.265625q1.203125 -1.234375 3.0 -1.234375q1.3125 0 2.390625 0.703125q1.078125 0.703125 1.640625 2.0q0.5625 1.296875 0.5625 3.75q0 2.5625 -0.5625 4.078125q-0.5625 1.515625 -1.65625 2.3125q-1.09375 0.796875 -2.578125 0.796875q-1.5625 0 -2.5625 -0.875q-0.984375 -0.875 -1.1875 -2.453125zm6.71875 -5.890625q0 -1.40625 -0.75 -2.234375q-0.75 -0.828125 -1.8125 -0.828125q-1.09375 0 -1.90625 0.890625q-0.8125 0.890625 -0.8125 2.3125q0 1.28125 0.765625 2.078125q0.78125 0.796875 1.90625 0.796875q1.140625 0 1.875 -0.796875q0.734375 -0.796875 0.734375 -2.21875z" fill-rule="nonzero"/><path fill="#efefef" d="m148.27034 173.2126l110.17323 0l0 37.795273l-110.17323 0z" fill-rule="evenodd"/><path stroke="#000000" stroke-width="2.0" stroke-linejoin="round" stroke-linecap="butt" d="m148.27034 173.2126l110.17323 0l0 37.795273l-110.17323 0z" fill-rule="evenodd"/><path fill="#000000" d="m158.11409 194.73335l1.65625 -0.140625q0.125 1.0 0.546875 1.640625q0.4375 0.640625 1.34375 1.046875q0.921875 0.390625 2.0625 0.390625q1.0 0 1.78125 -0.296875q0.78125 -0.296875 1.15625 -0.8125q0.375 -0.53125 0.375 -1.15625q0 -0.625 -0.375 -1.09375q-0.359375 -0.46875 -1.1875 -0.796875q-0.546875 -0.203125 -2.390625 -0.640625q-1.828125 -0.453125 -2.5625 -0.84375q-0.96875 -0.5 -1.4375 -1.234375q-0.46875 -0.75 -0.46875 -1.671875q0 -1.0 0.578125 -1.875q0.578125 -0.890625 1.671875 -1.34375q1.109375 -0.453125 2.453125 -0.453125q1.484375 0 2.609375 0.484375q1.140625 0.46875 1.75 1.40625q0.609375 0.921875 0.65625 2.09375l-1.6875 0.125q-0.140625 -1.265625 -0.9375 -1.90625q-0.78125 -0.65625 -2.3125 -0.65625q-1.609375 0 -2.34375 0.59375q-0.734375 0.59375 -0.734375 1.421875q0 0.71875 0.53125 1.171875q0.5 0.46875 2.65625 0.96875q2.15625 0.484375 2.953125 0.84375q1.171875 0.53125 1.71875 1.359375q0.5625 0.828125 0.5625 1.90625q0 1.0625 -0.609375 2.015625q-0.609375 0.9375 -1.75 1.46875q-1.140625 0.515625 -2.578125 0.515625q-1.8125 0 -3.046875 -0.53125q-1.21875 -0.53125 -1.921875 -1.59375q-0.6875 -1.0625 -0.71875 -2.40625zm19.146698 0.75l1.609375 0.21875q-0.265625 1.65625 -1.359375 2.609375q-1.078125 0.9375 -2.671875 0.9375q-1.984375 0 -3.1875 -1.296875q-1.203125 -1.296875 -1.203125 -3.71875q0 -1.578125 0.515625 -2.75q0.515625 -1.171875 1.578125 -1.75q1.0625 -0.59375 2.3125 -0.59375q1.578125 0 2.578125 0.796875q1.0 0.796875 1.28125 2.265625l-1.59375 0.234375q-0.234375 -0.96875 -0.8125 -1.453125q-0.578125 -0.5 -1.390625 -0.5q-1.234375 0 -2.015625 0.890625q-0.78125 0.890625 -0.78125 2.8125q0 1.953125 0.75 2.84375q0.75 0.875 1.953125 0.875q0.96875 0 1.609375 -0.59375q0.65625 -0.59375 0.828125 -1.828125zm3.015625 3.546875l0 -13.359375l1.640625 0l0 4.796875q1.140625 -1.328125 2.890625 -1.328125q1.078125 0 1.859375 0.421875q0.796875 0.421875 1.140625 1.171875q0.34375 0.75 0.34375 2.171875l0 6.125l-1.640625 0l0 -6.125q0 -1.234375 -0.53125 -1.796875q-0.53125 -0.5625 -1.515625 -0.5625q-0.71875 0 -1.359375 0.390625q-0.640625 0.375 -0.921875 1.015625q-0.265625 0.640625 -0.265625 1.78125l0 5.296875l-1.640625 0zm10.375717 0l0 -9.671875l1.46875 0l0 1.375q1.0625 -1.59375 3.078125 -1.59375q0.875 0 1.609375 0.3125q0.734375 0.3125 1.09375 0.828125q0.375 0.5 0.515625 1.203125q0.09375 0.453125 0.09375 1.59375l0 5.953125l-1.640625 0l0 -5.890625q0 -1.0 -0.203125 -1.484375q-0.1875 -0.5 -0.671875 -0.796875q-0.484375 -0.296875 -1.140625 -0.296875q-1.046875 0 -1.8125 0.671875q-0.75 0.65625 -0.75 2.515625l0 5.28125l-1.640625 0zm17.000717 -3.109375l1.6875 0.203125q-0.40625 1.484375 -1.484375 2.3125q-1.078125 0.8125 -2.765625 0.8125q-2.125 0 -3.375 -1.296875q-1.234375 -1.3125 -1.234375 -3.671875q0 -2.453125 1.25 -3.796875q1.265625 -1.34375 3.265625 -1.34375q1.9375 0 3.15625 1.328125q1.234375 1.3125 1.234375 3.703125q0 0.15625 0 0.4375l-7.21875 0q0.09375 1.59375 0.90625 2.453125q0.8125 0.84375 2.015625 0.84375q0.90625 0 1.546875 -0.46875q0.640625 -0.484375 1.015625 -1.515625zm-5.390625 -2.65625l5.40625 0q-0.109375 -1.21875 -0.625 -1.828125q-0.78125 -0.953125 -2.03125 -0.953125q-1.125 0 -1.90625 0.765625q-0.765625 0.75 -0.84375 2.015625zm9.141342 -5.703125l0 -1.890625l1.640625 0l0 1.890625l-1.640625 0zm0 11.46875l0 -9.671875l1.640625 0l0 9.671875l-1.640625 0zm10.410446 0l0 -1.21875q-0.90625 1.4375 -2.703125 1.4375q-1.15625 0 -2.125 -0.640625q-0.96875 -0.640625 -1.5 -1.78125q-0.53125 -1.140625 -0.53125 -2.625q0 -1.453125 0.484375 -2.625q0.484375 -1.1875 1.4375 -1.8125q0.96875 -0.625 2.171875 -0.625q0.875 0 1.546875 0.375q0.6875 0.359375 1.109375 0.953125l0 -4.796875l1.640625 0l0 13.359375l-1.53125 0zm-5.171875 -4.828125q0 1.859375 0.78125 2.78125q0.78125 0.921875 1.84375 0.921875q1.078125 0 1.828125 -0.875q0.75 -0.890625 0.75 -2.6875q0 -1.984375 -0.765625 -2.90625q-0.765625 -0.9375 -1.890625 -0.9375q-1.078125 0 -1.8125 0.890625q-0.734375 0.890625 -0.734375 2.8125zm15.906967 1.71875l1.6875 0.203125q-0.40625 1.484375 -1.484375 2.3125q-1.078125 0.8125 -2.765625 0.8125q-2.125 0 -3.375 -1.296875q-1.234375 -1.3125 -1.234375 -3.671875q0 -2.453125 1.25 -3.796875q1.265625 -1.34375 3.265625 -1.34375q1.9375 0 3.15625 1.328125q1.234375 1.3125 1.234375 3.703125q0 0.15625 0 0.4375l-7.21875 0q0.09375 1.59375 0.90625 2.453125q0.8125 0.84375 2.015625 0.84375q0.90625 0 1.546875 -0.46875q0.640625 -0.484375 1.015625 -1.515625zm-5.390625 -2.65625l5.40625 0q-0.109375 -1.21875 -0.625 -1.828125q-0.78125 -0.953125 -2.03125 -0.953125q-1.125 0 -1.90625 0.765625q-0.765625 0.75 -0.84375 2.015625zm9.125717 5.765625l0 -9.671875l1.46875 0l0 1.46875q0.5625 -1.03125 1.03125 -1.359375q0.484375 -0.328125 1.0625 -0.328125q0.828125 0 1.6875 0.53125l-0.5625 1.515625q-0.609375 -0.359375 -1.203125 -0.359375q-0.546875 0 -0.96875 0.328125q-0.421875 0.328125 -0.609375 0.890625q-0.28125 0.875 -0.28125 1.921875l0 5.0625l-1.625 0z" fill-rule="nonzero"/><path fill="#efefef" d="m38.097115 135.41733l110.173225 0l0 37.795273l-110.173225 0z" fill-rule="evenodd"/><path stroke="#000000" stroke-width="2.0" stroke-linejoin="round" stroke-linecap="butt" d="m38.097115 135.41733l110.173225 0l0 37.795273l-110.173225 0z" fill-rule="evenodd"/><path fill="#000000" d="m48.597115 161.23495l0 -13.359375l1.765625 0l0 5.484375l6.9375 0l0 -5.484375l1.765625 0l0 13.359375l-1.765625 0l0 -6.296875l-6.9375 0l0 6.296875l-1.765625 0zm19.519821 -1.1875q-0.921875 0.765625 -1.765625 1.09375q-0.828125 0.3125 -1.796875 0.3125q-1.59375 0 -2.453125 -0.78125q-0.859375 -0.78125 -0.859375 -1.984375q0 -0.71875 0.328125 -1.296875q0.328125 -0.59375 0.84375 -0.9375q0.53125 -0.359375 1.1875 -0.546875q0.46875 -0.125 1.453125 -0.25q1.984375 -0.234375 2.921875 -0.5625q0.015625 -0.34375 0.015625 -0.421875q0 -1.0 -0.46875 -1.421875q-0.625 -0.546875 -1.875 -0.546875q-1.15625 0 -1.703125 0.40625q-0.546875 0.40625 -0.8125 1.421875l-1.609375 -0.21875q0.21875 -1.015625 0.71875 -1.640625q0.5 -0.640625 1.453125 -0.984375q0.953125 -0.34375 2.1875 -0.34375q1.25 0 2.015625 0.296875q0.78125 0.28125 1.140625 0.734375q0.375 0.4375 0.515625 1.109375q0.078125 0.421875 0.078125 1.515625l0 2.1875q0 2.28125 0.109375 2.890625q0.109375 0.59375 0.40625 1.15625l-1.703125 0q-0.265625 -0.515625 -0.328125 -1.1875zm-0.140625 -3.671875q-0.890625 0.375 -2.671875 0.625q-1.015625 0.140625 -1.4375 0.328125q-0.421875 0.1875 -0.65625 0.53125q-0.21875 0.34375 -0.21875 0.78125q0 0.65625 0.5 1.09375q0.5 0.4375 1.453125 0.4375q0.9375 0 1.671875 -0.40625q0.75 -0.421875 1.09375 -1.140625q0.265625 -0.5625 0.265625 -1.640625l0 -0.609375zm4.203842 4.859375l0 -9.671875l1.46875 0l0 1.375q1.0625 -1.59375 3.078125 -1.59375q0.875 0 1.609375 0.3125q0.734375 0.3125 1.09375 0.828125q0.375 0.5 0.515625 1.203125q0.09375 0.453125 0.09375 1.59375l0 5.953125l-1.640625 0l0 -5.890625q0 -1.0 -0.203125 -1.484375q-0.1875 -0.5 -0.671875 -0.796875q-0.484375 -0.296875 -1.140625 -0.296875q-1.046875 0 -1.8125 0.671875q-0.75 0.65625 -0.75 2.515625l0 5.28125l-1.640625 0zm9.719467 -2.890625l1.625 -0.25q0.125 0.96875 0.75 1.5q0.625 0.515625 1.75 0.515625q1.125 0 1.671875 -0.453125q0.546875 -0.46875 0.546875 -1.09375q0 -0.546875 -0.484375 -0.875q-0.328125 -0.21875 -1.671875 -0.546875q-1.8125 -0.46875 -2.515625 -0.796875q-0.6875 -0.328125 -1.046875 -0.90625q-0.359375 -0.59375 -0.359375 -1.3125q0 -0.640625 0.296875 -1.1875q0.296875 -0.5625 0.8125 -0.921875q0.375 -0.28125 1.03125 -0.46875q0.671875 -0.203125 1.421875 -0.203125q1.140625 0 2.0 0.328125q0.859375 0.328125 1.265625 0.890625q0.421875 0.5625 0.578125 1.5l-1.609375 0.21875q-0.109375 -0.75 -0.640625 -1.171875q-0.515625 -0.421875 -1.46875 -0.421875q-1.140625 0 -1.625 0.375q-0.46875 0.375 -0.46875 0.875q0 0.3125 0.1875 0.578125q0.203125 0.265625 0.640625 0.4375q0.234375 0.09375 1.4375 0.421875q1.75 0.453125 2.4375 0.75q0.6875 0.296875 1.078125 0.859375q0.390625 0.5625 0.390625 1.40625q0 0.828125 -0.484375 1.546875q-0.46875 0.71875 -1.375 1.125q-0.90625 0.390625 -2.046875 0.390625q-1.875 0 -2.875 -0.78125q-0.984375 -0.78125 -1.25 -2.328125z" fill-rule="nonzero"/><path fill="#efefef" d="m258.44357 135.41733l187.1496 0l0 37.795273l-187.1496 0z" fill-rule="evenodd"/><path stroke="#000000" stroke-width="2.0" stroke-linejoin="round" stroke-linecap="butt" d="m258.44357 135.41733l187.1496 0l0 37.795273l-187.1496 0z" fill-rule="evenodd"/><path fill="#000000" d="m272.11545 159.0787l0 -3.671875l-3.640625 0l0 -1.515625l3.640625 0l0 -3.640625l1.546875 0l0 3.640625l3.640625 0l0 1.515625l-3.640625 0l0 3.671875l-1.546875 0zm12.2543335 2.15625l0 -3.203125l-5.796875 0l0 -1.5l6.09375 -8.65625l1.34375 0l0 8.65625l1.796875 0l0 1.5l-1.796875 0l0 3.203125l-1.640625 0zm0 -4.703125l0 -6.015625l-4.1875 6.015625l4.1875 0zm5.360077 1.609375l1.578125 -0.140625q0.203125 1.109375 0.765625 1.609375q0.5625 0.5 1.453125 0.5q0.75 0 1.3125 -0.34375q0.578125 -0.34375 0.9375 -0.921875q0.375 -0.578125 0.609375 -1.5625q0.25 -0.984375 0.25 -2.0q0 -0.109375 0 -0.328125q-0.5 0.78125 -1.359375 1.265625q-0.84375 0.484375 -1.828125 0.484375q-1.671875 0 -2.8125 -1.203125q-1.140625 -1.203125 -1.140625 -3.171875q0 -2.03125 1.1875 -3.265625q1.203125 -1.234375 3.0 -1.234375q1.3125 0 2.390625 0.703125q1.078125 0.703125 1.640625 2.0q0.5625 1.296875 0.5625 3.75q0 2.5625 -0.5625 4.078125q-0.5625 1.515625 -1.65625 2.3125q-1.09375 0.796875 -2.578125 0.796875q-1.5625 0 -2.5625 -0.875q-0.984375 -0.875 -1.1875 -2.453125zm6.71875 -5.890625q0 -1.40625 -0.75 -2.234375q-0.75 -0.828125 -1.8125 -0.828125q-1.09375 0 -1.90625 0.890625q-0.8125 0.890625 -0.8125 2.3125q0 1.28125 0.765625 2.078125q0.78125 0.796875 1.90625 0.796875q1.140625 0 1.875 -0.796875q0.734375 -0.796875 0.734375 -2.21875zm8.840271 5.890625l1.578125 -0.140625q0.203125 1.109375 0.765625 1.609375q0.5625 0.5 1.453125 0.5q0.75 0 1.3125 -0.34375q0.578125 -0.34375 0.9375 -0.921875q0.375 -0.578125 0.609375 -1.5625q0.25 -0.984375 0.25 -2.0q0 -0.109375 0 -0.328125q-0.5 0.78125 -1.359375 1.265625q-0.84375 0.484375 -1.828125 0.484375q-1.671875 0 -2.8125 -1.203125q-1.140625 -1.203125 -1.140625 -3.171875q0 -2.03125 1.1875 -3.265625q1.203125 -1.234375 3.0 -1.234375q1.3125 0 2.390625 0.703125q1.078125 0.703125 1.640625 2.0q0.5625 1.296875 0.5625 3.75q0 2.5625 -0.5625 4.078125q-0.5625 1.515625 -1.65625 2.3125q-1.09375 0.796875 -2.578125 0.796875q-1.5625 0 -2.5625 -0.875q-0.984375 -0.875 -1.1875 -2.453125zm6.71875 -5.890625q0 -1.40625 -0.75 -2.234375q-0.75 -0.828125 -1.8125 -0.828125q-1.09375 0 -1.90625 0.890625q-0.8125 0.890625 -0.8125 2.3125q0 1.28125 0.765625 2.078125q0.78125 0.796875 1.90625 0.796875q1.140625 0 1.875 -0.796875q0.734375 -0.796875 0.734375 -2.21875zm9.594482 8.984375l-1.640625 0l0 -10.453125q-0.59375 0.5625 -1.5625 1.140625q-0.953125 0.5625 -1.71875 0.84375l0 -1.59375q1.375 -0.640625 2.40625 -1.5625q1.03125 -0.921875 1.453125 -1.78125l1.0625 0l0 13.40625zm8.990295 0l-1.640625 0l0 -10.453125q-0.59375 0.5625 -1.5625 1.140625q-0.953125 0.5625 -1.71875 0.84375l0 -1.59375q1.375 -0.640625 2.40625 -1.5625q1.03125 -0.921875 1.453125 -1.78125l1.0625 0l0 13.40625zm9.621521 -3.09375l1.578125 -0.140625q0.203125 1.109375 0.765625 1.609375q0.5625 0.5 1.453125 0.5q0.75 0 1.3125 -0.34375q0.578125 -0.34375 0.9375 -0.921875q0.375 -0.578125 0.609375 -1.5625q0.25 -0.984375 0.25 -2.0q0 -0.109375 0 -0.328125q-0.5 0.78125 -1.359375 1.265625q-0.84375 0.484375 -1.828125 0.484375q-1.671875 0 -2.8125 -1.203125q-1.140625 -1.203125 -1.140625 -3.171875q0 -2.03125 1.1875 -3.265625q1.203125 -1.234375 3.0 -1.234375q1.3125 0 2.390625 0.703125q1.078125 0.703125 1.640625 2.0q0.5625 1.296875 0.5625 3.75q0 2.5625 -0.5625 4.078125q-0.5625 1.515625 -1.65625 2.3125q-1.09375 0.796875 -2.578125 0.796875q-1.5625 0 -2.5625 -0.875q-0.984375 -0.875 -1.1875 -2.453125zm6.71875 -5.890625q0 -1.40625 -0.75 -2.234375q-0.75 -0.828125 -1.8125 -0.828125q-1.09375 0 -1.90625 0.890625q-0.8125 0.890625 -0.8125 2.3125q0 1.28125 0.765625 2.078125q0.78125 0.796875 1.90625 0.796875q1.140625 0 1.875 -0.796875q0.734375 -0.796875 0.734375 -2.21875zm3.656952 5.890625l1.578125 -0.140625q0.203125 1.109375 0.765625 1.609375q0.5625 0.5 1.453125 0.5q0.75 0 1.3125 -0.34375q0.578125 -0.34375 0.9375 -0.921875q0.375 -0.578125 0.609375 -1.5625q0.25 -0.984375 0.25 -2.0q0 -0.109375 0 -0.328125q-0.5 0.78125 -1.359375 1.265625q-0.84375 0.484375 -1.828125 0.484375q-1.671875 0 -2.8125 -1.203125q-1.140625 -1.203125 -1.140625 -3.171875q0 -2.03125 1.1875 -3.265625q1.203125 -1.234375 3.0 -1.234375q1.3125 0 2.390625 0.703125q1.078125 0.703125 1.640625 2.0q0.5625 1.296875 0.5625 3.75q0 2.5625 -0.5625 4.078125q-0.5625 1.515625 -1.65625 2.3125q-1.09375 0.796875 -2.578125 0.796875q-1.5625 0 -2.5625 -0.875q-0.984375 -0.875 -1.1875 -2.453125zm6.71875 -5.890625q0 -1.40625 -0.75 -2.234375q-0.75 -0.828125 -1.8125 -0.828125q-1.09375 0 -1.90625 0.890625q-0.8125 0.890625 -0.8125 2.3125q0 1.28125 0.765625 2.078125q0.78125 0.796875 1.90625 0.796875q1.140625 0 1.875 -0.796875q0.734375 -0.796875 0.734375 -2.21875zm3.5319824 -2.625l0 -1.578125l8.640625 0l0 1.28125q-1.28125 1.359375 -2.53125 3.609375q-1.25 2.25 -1.9375 4.625q-0.484375 1.671875 -0.625 3.671875l-1.6875 0q0.03125 -1.578125 0.625 -3.8125q0.59375 -2.234375 1.6875 -4.296875q1.109375 -2.078125 2.359375 -3.5l-6.53125 0zm10.375702 0l0 -1.578125l8.640625 0l0 1.28125q-1.28125 1.359375 -2.53125 3.609375q-1.25 2.25 -1.9375 4.625q-0.484375 1.671875 -0.625 3.671875l-1.6875 0q0.03125 -1.578125 0.625 -3.8125q0.59375 -2.234375 1.6875 -4.296875q1.109375 -2.078125 2.359375 -3.5l-6.53125 0zm10.266357 8.109375l1.71875 -0.140625q0.1875 1.25 0.875 1.890625q0.703125 0.625 1.6875 0.625q1.1875 0 2.0 -0.890625q0.828125 -0.890625 0.828125 -2.359375q0 -1.40625 -0.796875 -2.21875q-0.78125 -0.8125 -2.0625 -0.8125q-0.78125 0 -1.421875 0.359375q-0.640625 0.359375 -1.0 0.9375l-1.546875 -0.203125l1.296875 -6.859375l6.640625 0l0 1.5625l-5.328125 0l-0.71875 3.59375q1.203125 -0.84375 2.515625 -0.84375q1.75 0 2.953125 1.21875q1.203125 1.203125 1.203125 3.109375q0 1.8125 -1.046875 3.140625q-1.296875 1.625 -3.515625 1.625q-1.8125 0 -2.96875 -1.015625q-1.15625 -1.03125 -1.3125 -2.71875zm10.375702 0l1.71875 -0.140625q0.1875 1.25 0.875 1.890625q0.703125 0.625 1.6875 0.625q1.1875 0 2.0 -0.890625q0.828125 -0.890625 0.828125 -2.359375q0 -1.40625 -0.796875 -2.21875q-0.78125 -0.8125 -2.0625 -0.8125q-0.78125 0 -1.421875 0.359375q-0.640625 0.359375 -1.0 0.9375l-1.546875 -0.203125l1.296875 -6.859375l6.640625 0l0 1.5625l-5.328125 0l-0.71875 3.59375q1.203125 -0.84375 2.515625 -0.84375q1.75 0 2.953125 1.21875q1.203125 1.203125 1.203125 3.109375q0 1.8125 -1.046875 3.140625q-1.296875 1.625 -3.515625 1.625q-1.8125 0 -2.96875 -1.015625q-1.15625 -1.03125 -1.3125 -2.71875zm10.375732 -0.03125l1.640625 -0.21875q0.28125 1.40625 0.953125 2.015625q0.6875 0.609375 1.65625 0.609375q1.15625 0 1.953125 -0.796875q0.796875 -0.796875 0.796875 -1.984375q0 -1.125 -0.734375 -1.859375q-0.734375 -0.734375 -1.875 -0.734375q-0.46875 0 -1.15625 0.171875l0.1875 -1.4375q0.15625 0.015625 0.265625 0.015625q1.046875 0 1.875 -0.546875q0.84375 -0.546875 0.84375 -1.671875q0 -0.90625 -0.609375 -1.5q-0.609375 -0.59375 -1.578125 -0.59375q-0.953125 0 -1.59375 0.609375q-0.640625 0.59375 -0.8125 1.796875l-1.640625 -0.296875q0.296875 -1.640625 1.359375 -2.546875q1.0625 -0.90625 2.65625 -0.90625q1.09375 0 2.0 0.46875q0.921875 0.46875 1.40625 1.28125q0.5 0.8125 0.5 1.71875q0 0.859375 -0.46875 1.578125q-0.46875 0.703125 -1.375 1.125q1.1875 0.28125 1.84375 1.140625q0.65625 0.859375 0.65625 2.15625q0 1.734375 -1.28125 2.953125q-1.265625 1.21875 -3.21875 1.21875q-1.765625 0 -2.921875 -1.046875q-1.15625 -1.046875 -1.328125 -2.71875zm10.375702 0l1.640625 -0.21875q0.28125 1.40625 0.953125 2.015625q0.6875 0.609375 1.65625 0.609375q1.15625 0 1.953125 -0.796875q0.796875 -0.796875 0.796875 -1.984375q0 -1.125 -0.734375 -1.859375q-0.734375 -0.734375 -1.875 -0.734375q-0.46875 0 -1.15625 0.171875l0.1875 -1.4375q0.15625 0.015625 0.265625 0.015625q1.046875 0 1.875 -0.546875q0.84375 -0.546875 0.84375 -1.671875q0 -0.90625 -0.609375 -1.5q-0.609375 -0.59375 -1.578125 -0.59375q-0.953125 0 -1.59375 0.609375q-0.640625 0.59375 -0.8125 1.796875l-1.640625 -0.296875q0.296875 -1.640625 1.359375 -2.546875q1.0625 -0.90625 2.65625 -0.90625q1.09375 0 2.0 0.46875q0.921875 0.46875 1.40625 1.28125q0.5 0.8125 0.5 1.71875q0 0.859375 -0.46875 1.578125q-0.46875 0.703125 -1.375 1.125q1.1875 0.28125 1.84375 1.140625q0.65625 0.859375 0.65625 2.15625q0 1.734375 -1.28125 2.953125q-1.265625 1.21875 -3.21875 1.21875q-1.765625 0 -2.921875 -1.046875q-1.15625 -1.046875 -1.328125 -2.71875zm18.985107 1.953125l0 1.578125l-8.828125 0q-0.015625 -0.59375 0.1875 -1.140625q0.34375 -0.90625 1.078125 -1.78125q0.75 -0.875 2.15625 -2.015625q2.171875 -1.78125 2.9375 -2.828125q0.765625 -1.046875 0.765625 -1.96875q0 -0.984375 -0.703125 -1.640625q-0.6875 -0.671875 -1.8125 -0.671875q-1.1875 0 -1.90625 0.71875q-0.703125 0.703125 -0.703125 1.953125l-1.6875 -0.171875q0.171875 -1.890625 1.296875 -2.875q1.140625 -0.984375 3.03125 -0.984375q1.921875 0 3.046875 1.0625q1.125 1.0625 1.125 2.640625q0 0.796875 -0.328125 1.578125q-0.328125 0.78125 -1.09375 1.640625q-0.75 0.84375 -2.53125 2.34375q-1.46875 1.234375 -1.890625 1.6875q-0.421875 0.4375 -0.6875 0.875l6.546875 0z" fill-rule="nonzero"/><path fill="#efefef" d="m148.27034 135.41733l110.17323 0l0 37.795273l-110.17323 0z" fill-rule="evenodd"/><path stroke="#000000" stroke-width="2.0" stroke-linejoin="round" stroke-linecap="butt" d="m148.27034 135.41733l110.17323 0l0 37.795273l-110.17323 0z" fill-rule="evenodd"/><path fill="#000000" d="m158.66096 161.23495l0 -13.359375l2.65625 0l3.15625 9.453125q0.4375 1.328125 0.640625 1.984375q0.234375 -0.734375 0.703125 -2.140625l3.203125 -9.296875l2.375 0l0 13.359375l-1.703125 0l0 -11.171875l-3.875 11.171875l-1.59375 0l-3.859375 -11.375l0 11.375l-1.703125 0zm21.712677 0l0 -1.421875q-1.125 1.640625 -3.0625 1.640625q-0.859375 0 -1.609375 -0.328125q-0.734375 -0.328125 -1.09375 -0.828125q-0.359375 -0.5 -0.5 -1.21875q-0.109375 -0.46875 -0.109375 -1.53125l0 -5.984375l1.640625 0l0 5.359375q0 1.28125 0.109375 1.734375q0.15625 0.640625 0.65625 1.015625q0.5 0.375 1.234375 0.375q0.734375 0 1.375 -0.375q0.65625 -0.390625 0.921875 -1.03125q0.265625 -0.65625 0.265625 -1.890625l0 -5.1875l1.640625 0l0 9.671875l-1.46875 0zm10.672592 -3.109375l1.6875 0.203125q-0.40625 1.484375 -1.484375 2.3125q-1.078125 0.8125 -2.765625 0.8125q-2.125 0 -3.375 -1.296875q-1.234375 -1.3125 -1.234375 -3.671875q0 -2.453125 1.25 -3.796875q1.265625 -1.34375 3.265625 -1.34375q1.9375 0 3.15625 1.328125q1.234375 1.3125 1.234375 3.703125q0 0.15625 0 0.4375l-7.21875 0q0.09375 1.59375 0.90625 2.453125q0.8125 0.84375 2.015625 0.84375q0.90625 0 1.546875 -0.46875q0.640625 -0.484375 1.015625 -1.515625zm-5.390625 -2.65625l5.40625 0q-0.109375 -1.21875 -0.625 -1.828125q-0.78125 -0.953125 -2.03125 -0.953125q-1.125 0 -1.90625 0.765625q-0.765625 0.75 -0.84375 2.015625zm9.094467 5.765625l0 -13.359375l1.640625 0l0 13.359375l-1.640625 0zm4.144821 0l0 -13.359375l1.640625 0l0 13.359375l-1.640625 0zm10.816696 -3.109375l1.6875 0.203125q-0.40625 1.484375 -1.484375 2.3125q-1.078125 0.8125 -2.765625 0.8125q-2.125 0 -3.375 -1.296875q-1.234375 -1.3125 -1.234375 -3.671875q0 -2.453125 1.25 -3.796875q1.265625 -1.34375 3.265625 -1.34375q1.9375 0 3.15625 1.328125q1.234375 1.3125 1.234375 3.703125q0 0.15625 0 0.4375l-7.21875 0q0.09375 1.59375 0.90625 2.453125q0.8125 0.84375 2.015625 0.84375q0.90625 0 1.546875 -0.46875q0.640625 -0.484375 1.015625 -1.515625zm-5.390625 -2.65625l5.40625 0q-0.109375 -1.21875 -0.625 -1.828125q-0.78125 -0.953125 -2.03125 -0.953125q-1.125 0 -1.90625 0.765625q-0.765625 0.75 -0.84375 2.015625zm9.125717 5.765625l0 -9.671875l1.46875 0l0 1.46875q0.5625 -1.03125 1.03125 -1.359375q0.484375 -0.328125 1.0625 -0.328125q0.828125 0 1.6875 0.53125l-0.5625 1.515625q-0.609375 -0.359375 -1.203125 -0.359375q-0.546875 0 -0.96875 0.328125q-0.421875 0.328125 -0.609375 0.890625q-0.28125 0.875 -0.28125 1.921875l0 5.0625l-1.625 0z" fill-rule="nonzero"/><path fill="#efefef" d="m38.097115 97.62205l110.173225 0l0 37.79528l-110.173225 0z" fill-rule="evenodd"/><path stroke="#000000" stroke-width="2.0" stroke-linejoin="round" stroke-linecap="butt" d="m38.097115 97.62205l110.173225 0l0 37.79528l-110.173225 0z" fill-rule="evenodd"/><path fill="#000000" d="m58.065865 118.75218l1.765625 0.453125q-0.5625 2.171875 -2.0 3.328125q-1.4375 1.140625 -3.53125 1.140625q-2.15625 0 -3.515625 -0.875q-1.34375 -0.890625 -2.0625 -2.546875q-0.703125 -1.671875 -0.703125 -3.59375q0 -2.078125 0.796875 -3.625q0.796875 -1.5625 2.265625 -2.359375q1.484375 -0.8125 3.25 -0.8125q2.0 0 3.359375 1.015625q1.375 1.015625 1.90625 2.875l-1.734375 0.40625q-0.46875 -1.453125 -1.359375 -2.109375q-0.875 -0.671875 -2.203125 -0.671875q-1.546875 0 -2.578125 0.734375q-1.03125 0.734375 -1.453125 1.984375q-0.421875 1.234375 -0.421875 2.5625q0 1.703125 0.5 2.96875q0.5 1.265625 1.546875 1.90625q1.046875 0.625 2.265625 0.625q1.484375 0 2.515625 -0.859375q1.03125 -0.859375 1.390625 -2.546875zm10.051071 3.5q-0.921875 0.765625 -1.765625 1.09375q-0.828125 0.3125 -1.796875 0.3125q-1.59375 0 -2.453125 -0.78125q-0.859375 -0.78125 -0.859375 -1.984375q0 -0.71875 0.328125 -1.296875q0.328125 -0.59375 0.84375 -0.9375q0.53125 -0.359375 1.1875 -0.546875q0.46875 -0.125 1.453125 -0.25q1.984375 -0.234375 2.921875 -0.5625q0.015625 -0.34375 0.015625 -0.421875q0 -1.0 -0.46875 -1.421875q-0.625 -0.546875 -1.875 -0.546875q-1.15625 0 -1.703125 0.40625q-0.546875 0.40625 -0.8125 1.421875l-1.609375 -0.21875q0.21875 -1.015625 0.71875 -1.640625q0.5 -0.640625 1.453125 -0.984375q0.953125 -0.34375 2.1875 -0.34375q1.25 0 2.015625 0.296875q0.78125 0.28125 1.140625 0.734375q0.375 0.4375 0.515625 1.109375q0.078125 0.421875 0.078125 1.515625l0 2.1875q0 2.28125 0.109375 2.890625q0.109375 0.59375 0.40625 1.15625l-1.703125 0q-0.265625 -0.515625 -0.328125 -1.1875zm-0.140625 -3.671875q-0.890625 0.375 -2.671875 0.625q-1.015625 0.140625 -1.4375 0.328125q-0.421875 0.1875 -0.65625 0.53125q-0.21875 0.34375 -0.21875 0.78125q0 0.65625 0.5 1.09375q0.5 0.4375 1.453125 0.4375q0.9375 0 1.671875 -0.40625q0.75 -0.421875 1.09375 -1.140625q0.265625 -0.5625 0.265625 -1.640625l0 -0.609375zm4.188217 4.859375l0 -9.671875l1.46875 0l0 1.46875q0.5625 -1.03125 1.03125 -1.359375q0.484375 -0.328125 1.0625 -0.328125q0.828125 0 1.6875 0.53125l-0.5625 1.515625q-0.609375 -0.359375 -1.203125 -0.359375q-0.546875 0 -0.96875 0.328125q-0.421875 0.328125 -0.609375 0.890625q-0.28125 0.875 -0.28125 1.921875l0 5.0625l-1.625 0zm6.228302 -11.46875l0 -1.890625l1.640625 0l0 1.890625l-1.640625 0zm0 11.46875l0 -9.671875l1.640625 0l0 9.671875l-1.640625 0zm4.144821 0l0 -9.671875l1.46875 0l0 1.375q1.0625 -1.59375 3.078125 -1.59375q0.875 0 1.609375 0.3125q0.734375 0.3125 1.09375 0.828125q0.375 0.5 0.515625 1.203125q0.09375 0.453125 0.09375 1.59375l0 5.953125l-1.640625 0l0 -5.890625q0 -1.0 -0.203125 -1.484375q-0.1875 -0.5 -0.671875 -0.796875q-0.484375 -0.296875 -1.140625 -0.296875q-1.046875 0 -1.8125 0.671875q-0.75 0.65625 -0.75 2.515625l0 5.28125l-1.640625 0zm16.688217 -1.1875q-0.921875 0.765625 -1.765625 1.09375q-0.828125 0.3125 -1.796875 0.3125q-1.59375 0 -2.453125 -0.78125q-0.859375 -0.78125 -0.859375 -1.984375q0 -0.71875 0.328125 -1.296875q0.328125 -0.59375 0.84375 -0.9375q0.53125 -0.359375 1.1875 -0.546875q0.46875 -0.125 1.453125 -0.25q1.984375 -0.234375 2.921875 -0.5625q0.015625 -0.34375 0.015625 -0.421875q0 -1.0 -0.46875 -1.421875q-0.625 -0.546875 -1.875 -0.546875q-1.15625 0 -1.703125 0.40625q-0.546875 0.40625 -0.8125 1.421875l-1.609375 -0.21875q0.21875 -1.015625 0.71875 -1.640625q0.5 -0.640625 1.453125 -0.984375q0.953125 -0.34375 2.1875 -0.34375q1.25 0 2.015625 0.296875q0.78125 0.28125 1.140625 0.734375q0.375 0.4375 0.515625 1.109375q0.078125 0.421875 0.078125 1.515625l0 2.1875q0 2.28125 0.109375 2.890625q0.109375 0.59375 0.40625 1.15625l-1.703125 0q-0.265625 -0.515625 -0.328125 -1.1875zm-0.140625 -3.671875q-0.890625 0.375 -2.671875 0.625q-1.015625 0.140625 -1.4375 0.328125q-0.421875 0.1875 -0.65625 0.53125q-0.21875 0.34375 -0.21875 0.78125q0 0.65625 0.5 1.09375q0.5 0.4375 1.453125 0.4375q0.9375 0 1.671875 -0.40625q0.75 -0.421875 1.09375 -1.140625q0.265625 -0.5625 0.265625 -1.640625l0 -0.609375z" fill-rule="nonzero"/><path fill="#efefef" d="m258.44357 97.62205l187.1496 0l0 37.79528l-187.1496 0z" fill-rule="evenodd"/><path stroke="#000000" stroke-width="2.0" stroke-linejoin="round" stroke-linecap="butt" d="m258.44357 97.62205l187.1496 0l0 37.79528l-187.1496 0z" fill-rule="evenodd"/><path fill="#000000" d="m272.11545 121.28343l0 -3.671875l-3.640625 0l0 -1.515625l3.640625 0l0 -3.640625l1.546875 0l0 3.640625l3.640625 0l0 1.515625l-3.640625 0l0 3.671875l-1.546875 0zm12.2543335 2.15625l0 -3.203125l-5.796875 0l0 -1.5l6.09375 -8.65625l1.34375 0l0 8.65625l1.796875 0l0 1.5l-1.796875 0l0 3.203125l-1.640625 0zm0 -4.703125l0 -6.015625l-4.1875 6.015625l4.1875 0zm5.360077 1.609375l1.578125 -0.140625q0.203125 1.109375 0.765625 1.609375q0.5625 0.5 1.453125 0.5q0.75 0 1.3125 -0.34375q0.578125 -0.34375 0.9375 -0.921875q0.375 -0.578125 0.609375 -1.5625q0.25 -0.984375 0.25 -2.0q0 -0.109375 0 -0.328125q-0.5 0.78125 -1.359375 1.265625q-0.84375 0.484375 -1.828125 0.484375q-1.671875 0 -2.8125 -1.203125q-1.140625 -1.203125 -1.140625 -3.171875q0 -2.03125 1.1875 -3.265625q1.203125 -1.234375 3.0 -1.234375q1.3125 0 2.390625 0.703125q1.078125 0.703125 1.640625 2.0q0.5625 1.296875 0.5625 3.75q0 2.5625 -0.5625 4.078125q-0.5625 1.515625 -1.65625 2.3125q-1.09375 0.796875 -2.578125 0.796875q-1.5625 0 -2.5625 -0.875q-0.984375 -0.875 -1.1875 -2.453125zm6.71875 -5.890625q0 -1.40625 -0.75 -2.234375q-0.75 -0.828125 -1.8125 -0.828125q-1.09375 0 -1.90625 0.890625q-0.8125 0.890625 -0.8125 2.3125q0 1.28125 0.765625 2.078125q0.78125 0.796875 1.90625 0.796875q1.140625 0 1.875 -0.796875q0.734375 -0.796875 0.734375 -2.21875zm8.840271 5.890625l1.578125 -0.140625q0.203125 1.109375 0.765625 1.609375q0.5625 0.5 1.453125 0.5q0.75 0 1.3125 -0.34375q0.578125 -0.34375 0.9375 -0.921875q0.375 -0.578125 0.609375 -1.5625q0.25 -0.984375 0.25 -2.0q0 -0.109375 0 -0.328125q-0.5 0.78125 -1.359375 1.265625q-0.84375 0.484375 -1.828125 0.484375q-1.671875 0 -2.8125 -1.203125q-1.140625 -1.203125 -1.140625 -3.171875q0 -2.03125 1.1875 -3.265625q1.203125 -1.234375 3.0 -1.234375q1.3125 0 2.390625 0.703125q1.078125 0.703125 1.640625 2.0q0.5625 1.296875 0.5625 3.75q0 2.5625 -0.5625 4.078125q-0.5625 1.515625 -1.65625 2.3125q-1.09375 0.796875 -2.578125 0.796875q-1.5625 0 -2.5625 -0.875q-0.984375 -0.875 -1.1875 -2.453125zm6.71875 -5.890625q0 -1.40625 -0.75 -2.234375q-0.75 -0.828125 -1.8125 -0.828125q-1.09375 0 -1.90625 0.890625q-0.8125 0.890625 -0.8125 2.3125q0 1.28125 0.765625 2.078125q0.78125 0.796875 1.90625 0.796875q1.140625 0 1.875 -0.796875q0.734375 -0.796875 0.734375 -2.21875zm9.594482 8.984375l-1.640625 0l0 -10.453125q-0.59375 0.5625 -1.5625 1.140625q-0.953125 0.5625 -1.71875 0.84375l0 -1.59375q1.375 -0.640625 2.40625 -1.5625q1.03125 -0.921875 1.453125 -1.78125l1.0625 0l0 13.40625zm8.990295 0l-1.640625 0l0 -10.453125q-0.59375 0.5625 -1.5625 1.140625q-0.953125 0.5625 -1.71875 0.84375l0 -1.59375q1.375 -0.640625 2.40625 -1.5625q1.03125 -0.921875 1.453125 -1.78125l1.0625 0l0 13.40625zm9.621521 -3.09375l1.578125 -0.140625q0.203125 1.109375 0.765625 1.609375q0.5625 0.5 1.453125 0.5q0.75 0 1.3125 -0.34375q0.578125 -0.34375 0.9375 -0.921875q0.375 -0.578125 0.609375 -1.5625q0.25 -0.984375 0.25 -2.0q0 -0.109375 0 -0.328125q-0.5 0.78125 -1.359375 1.265625q-0.84375 0.484375 -1.828125 0.484375q-1.671875 0 -2.8125 -1.203125q-1.140625 -1.203125 -1.140625 -3.171875q0 -2.03125 1.1875 -3.265625q1.203125 -1.234375 3.0 -1.234375q1.3125 0 2.390625 0.703125q1.078125 0.703125 1.640625 2.0q0.5625 1.296875 0.5625 3.75q0 2.5625 -0.5625 4.078125q-0.5625 1.515625 -1.65625 2.3125q-1.09375 0.796875 -2.578125 0.796875q-1.5625 0 -2.5625 -0.875q-0.984375 -0.875 -1.1875 -2.453125zm6.71875 -5.890625q0 -1.40625 -0.75 -2.234375q-0.75 -0.828125 -1.8125 -0.828125q-1.09375 0 -1.90625 0.890625q-0.8125 0.890625 -0.8125 2.3125q0 1.28125 0.765625 2.078125q0.78125 0.796875 1.90625 0.796875q1.140625 0 1.875 -0.796875q0.734375 -0.796875 0.734375 -2.21875zm5.938202 1.75q-1.015625 -0.375 -1.515625 -1.0625q-0.484375 -0.703125 -0.484375 -1.671875q0 -1.453125 1.046875 -2.4375q1.046875 -1.0 2.78125 -1.0q1.75 0 2.8125 1.015625q1.078125 1.015625 1.078125 2.46875q0 0.9375 -0.5 1.625q-0.484375 0.6875 -1.46875 1.0625q1.21875 0.390625 1.859375 1.28125q0.65625 0.890625 0.65625 2.140625q0 1.703125 -1.21875 2.875q-1.21875 1.171875 -3.1875 1.171875q-1.984375 0 -3.203125 -1.171875q-1.203125 -1.171875 -1.203125 -2.921875q0 -1.3125 0.65625 -2.1875q0.671875 -0.875 1.890625 -1.1875zm-0.328125 -2.78125q0 0.9375 0.609375 1.546875q0.609375 0.59375 1.59375 0.59375q0.9375 0 1.546875 -0.59375q0.609375 -0.59375 0.609375 -1.453125q0 -0.90625 -0.625 -1.515625q-0.625 -0.625 -1.5625 -0.625q-0.9375 0 -1.5625 0.609375q-0.609375 0.59375 -0.609375 1.4375zm-0.53125 6.15625q0 0.703125 0.328125 1.359375q0.34375 0.65625 1.0 1.015625q0.65625 0.359375 1.40625 0.359375q1.171875 0 1.9375 -0.75q0.765625 -0.75 0.765625 -1.921875q0 -1.1875 -0.796875 -1.953125q-0.78125 -0.78125 -1.953125 -0.78125q-1.15625 0 -1.921875 0.765625q-0.765625 0.765625 -0.765625 1.90625zm8.828857 -7.75l0 -1.578125l8.640625 0l0 1.28125q-1.28125 1.359375 -2.53125 3.609375q-1.25 2.25 -1.9375 4.625q-0.484375 1.671875 -0.625 3.671875l-1.6875 0q0.03125 -1.578125 0.625 -3.8125q0.59375 -2.234375 1.6875 -4.296875q1.109375 -2.078125 2.359375 -3.5l-6.53125 0zm18.766327 1.53125l-1.625 0.125q-0.21875 -0.96875 -0.625 -1.40625q-0.65625 -0.703125 -1.640625 -0.703125q-0.78125 0 -1.375 0.4375q-0.765625 0.5625 -1.21875 1.65625q-0.453125 1.078125 -0.46875 3.078125q0.59375 -0.890625 1.453125 -1.328125q0.859375 -0.4375 1.796875 -0.4375q1.640625 0 2.78125 1.203125q1.15625 1.203125 1.15625 3.109375q0 1.265625 -0.546875 2.34375q-0.53125 1.078125 -1.484375 1.65625q-0.9375 0.578125 -2.140625 0.578125q-2.0625 0 -3.359375 -1.5q-1.28125 -1.515625 -1.28125 -4.984375q0 -3.875 1.421875 -5.625q1.25 -1.53125 3.375 -1.53125q1.5625 0 2.5625 0.890625q1.015625 0.875 1.21875 2.4375zm-6.6875 5.75q0 0.84375 0.359375 1.625q0.359375 0.765625 1.0 1.171875q0.640625 0.40625 1.359375 0.40625q1.03125 0 1.78125 -0.828125q0.75 -0.84375 0.75 -2.28125q0 -1.390625 -0.734375 -2.1875q-0.734375 -0.796875 -1.859375 -0.796875q-1.109375 0 -1.890625 0.796875q-0.765625 0.796875 -0.765625 2.09375zm8.563232 0.828125l1.71875 -0.140625q0.1875 1.25 0.875 1.890625q0.703125 0.625 1.6875 0.625q1.1875 0 2.0 -0.890625q0.828125 -0.890625 0.828125 -2.359375q0 -1.40625 -0.796875 -2.21875q-0.78125 -0.8125 -2.0625 -0.8125q-0.78125 0 -1.421875 0.359375q-0.640625 0.359375 -1.0 0.9375l-1.546875 -0.203125l1.296875 -6.859375l6.640625 0l0 1.5625l-5.328125 0l-0.71875 3.59375q1.203125 -0.84375 2.515625 -0.84375q1.75 0 2.953125 1.21875q1.203125 1.203125 1.203125 3.109375q0 1.8125 -1.046875 3.140625q-1.296875 1.625 -3.515625 1.625q-1.8125 0 -2.96875 -1.015625q-1.15625 -1.03125 -1.3125 -2.71875zm15.625702 3.5l0 -3.203125l-5.796875 0l0 -1.5l6.09375 -8.65625l1.34375 0l0 8.65625l1.796875 0l0 1.5l-1.796875 0l0 3.203125l-1.640625 0zm0 -4.703125l0 -6.015625l-4.1875 6.015625l4.1875 0zm5.1257324 1.171875l1.640625 -0.21875q0.28125 1.40625 0.953125 2.015625q0.6875 0.609375 1.65625 0.609375q1.15625 0 1.953125 -0.796875q0.796875 -0.796875 0.796875 -1.984375q0 -1.125 -0.734375 -1.859375q-0.734375 -0.734375 -1.875 -0.734375q-0.46875 0 -1.15625 0.171875l0.1875 -1.4375q0.15625 0.015625 0.265625 0.015625q1.046875 0 1.875 -0.546875q0.84375 -0.546875 0.84375 -1.671875q0 -0.90625 -0.609375 -1.5q-0.609375 -0.59375 -1.578125 -0.59375q-0.953125 0 -1.59375 0.609375q-0.640625 0.59375 -0.8125 1.796875l-1.640625 -0.296875q0.296875 -1.640625 1.359375 -2.546875q1.0625 -0.90625 2.65625 -0.90625q1.09375 0 2.0 0.46875q0.921875 0.46875 1.40625 1.28125q0.5 0.8125 0.5 1.71875q0 0.859375 -0.46875 1.578125q-0.46875 0.703125 -1.375 1.125q1.1875 0.28125 1.84375 1.140625q0.65625 0.859375 0.65625 2.15625q0 1.734375 -1.28125 2.953125q-1.265625 1.21875 -3.21875 1.21875q-1.765625 0 -2.921875 -1.046875q-1.15625 -1.046875 -1.328125 -2.71875zm18.985077 1.953125l0 1.578125l-8.828125 0q-0.015625 -0.59375 0.1875 -1.140625q0.34375 -0.90625 1.078125 -1.78125q0.75 -0.875 2.15625 -2.015625q2.171875 -1.78125 2.9375 -2.828125q0.765625 -1.046875 0.765625 -1.96875q0 -0.984375 -0.703125 -1.640625q-0.6875 -0.671875 -1.8125 -0.671875q-1.1875 0 -1.90625 0.71875q-0.703125 0.703125 -0.703125 1.953125l-1.6875 -0.171875q0.171875 -1.890625 1.296875 -2.875q1.140625 -0.984375 3.03125 -0.984375q1.921875 0 3.046875 1.0625q1.125 1.0625 1.125 2.640625q0 0.796875 -0.328125 1.578125q-0.328125 0.78125 -1.09375 1.640625q-0.75 0.84375 -2.53125 2.34375q-1.46875 1.234375 -1.890625 1.6875q-0.421875 0.4375 -0.6875 0.875l6.546875 0zm7.9382324 1.578125l-1.640625 0l0 -10.453125q-0.59375 0.5625 -1.5625 1.140625q-0.953125 0.5625 -1.71875 0.84375l0 -1.59375q1.375 -0.640625 2.40625 -1.5625q1.03125 -0.921875 1.453125 -1.78125l1.0625 0l0 13.40625z" fill-rule="nonzero"/><path fill="#efefef" d="m148.27034 97.62205l110.17323 0l0 37.79528l-110.17323 0z" fill-rule="evenodd"/><path stroke="#000000" stroke-width="2.0" stroke-linejoin="round" stroke-linecap="butt" d="m148.27034 97.62205l110.17323 0l0 37.79528l-110.17323 0z" fill-rule="evenodd"/><path fill="#000000" d="m158.77034 123.43968l0 -13.359375l1.765625 0l0 5.484375l6.9375 0l0 -5.484375l1.765625 0l0 13.359375l-1.765625 0l0 -6.296875l-6.9375 0l0 6.296875l-1.765625 0zm19.535446 0l0 -1.421875q-1.125 1.640625 -3.0625 1.640625q-0.859375 0 -1.609375 -0.328125q-0.734375 -0.328125 -1.09375 -0.828125q-0.359375 -0.5 -0.5 -1.21875q-0.109375 -0.46875 -0.109375 -1.53125l0 -5.984375l1.640625 0l0 5.359375q0 1.28125 0.109375 1.734375q0.15625 0.640625 0.65625 1.015625q0.5 0.375 1.234375 0.375q0.734375 0 1.375 -0.375q0.65625 -0.390625 0.921875 -1.03125q0.265625 -0.65625 0.265625 -1.890625l0 -5.1875l1.640625 0l0 9.671875l-1.46875 0zm5.547592 0l-1.515625 0l0 -13.359375l1.640625 0l0 4.765625q1.046875 -1.296875 2.65625 -1.296875q0.890625 0 1.6875 0.359375q0.796875 0.359375 1.3125 1.015625q0.515625 0.640625 0.796875 1.5625q0.296875 0.921875 0.296875 1.96875q0 2.484375 -1.234375 3.84375q-1.21875 1.359375 -2.953125 1.359375q-1.703125 0 -2.6875 -1.4375l0 1.21875zm-0.015625 -4.90625q0 1.734375 0.484375 2.515625q0.765625 1.265625 2.09375 1.265625q1.078125 0 1.859375 -0.9375q0.78125 -0.9375 0.78125 -2.78125q0 -1.890625 -0.75 -2.796875q-0.75 -0.90625 -1.828125 -0.90625q-1.0625 0 -1.859375 0.9375q-0.78125 0.9375 -0.78125 2.703125zm15.516342 1.796875l1.6875 0.203125q-0.40625 1.484375 -1.484375 2.3125q-1.078125 0.8125 -2.765625 0.8125q-2.125 0 -3.375 -1.296875q-1.234375 -1.3125 -1.234375 -3.671875q0 -2.453125 1.25 -3.796875q1.265625 -1.34375 3.265625 -1.34375q1.9375 0 3.15625 1.328125q1.234375 1.3125 1.234375 3.703125q0 0.15625 0 0.4375l-7.21875 0q0.09375 1.59375 0.90625 2.453125q0.8125 0.84375 2.015625 0.84375q0.90625 0 1.546875 -0.46875q0.640625 -0.484375 1.015625 -1.515625zm-5.390625 -2.65625l5.40625 0q-0.109375 -1.21875 -0.625 -1.828125q-0.78125 -0.953125 -2.03125 -0.953125q-1.125 0 -1.90625 0.765625q-0.765625 0.75 -0.84375 2.015625zm9.125717 5.765625l0 -9.671875l1.46875 0l0 1.46875q0.5625 -1.03125 1.03125 -1.359375q0.484375 -0.328125 1.0625 -0.328125q0.828125 0 1.6875 0.53125l-0.5625 1.515625q-0.609375 -0.359375 -1.203125 -0.359375q-0.546875 0 -0.96875 0.328125q-0.421875 0.328125 -0.609375 0.890625q-0.28125 0.875 -0.28125 1.921875l0 5.0625l-1.625 0z" fill-rule="nonzero"/><path fill="#000000" fill-opacity="0.0" d="m34.48294 59.82677l340.7244 0l0 37.795277l-340.7244 0z" fill-rule="evenodd"/><path fill="#000000" d="m50.217316 81.8899q0 0.203125 -0.09375 0.375q-0.078125 0.171875 -0.265625 0.3125q-0.21875 0.171875 -0.578125 0.28125q-0.359375 0.09375 -0.84375 0.09375q-0.359375 0 -0.71875 -0.078125q-0.34375 -0.078125 -0.625 -0.25q-0.28125 -0.15625 -0.46875 -0.421875q-0.171875 -0.28125 -0.203125 -0.671875l-1.8125 0q0 0.53125 0.25 1.046875q0.25 0.5 0.734375 0.890625q0.484375 0.390625 1.1875 0.640625q0.703125 0.25 1.625 0.25q0.8125 0 1.484375 -0.1875q0.671875 -0.203125 1.15625 -0.53125q0.484375 -0.34375 0.734375 -0.8125q0.265625 -0.46875 0.265625 -1.03125q0 -0.578125 -0.25 -1.0q-0.25 -0.421875 -0.703125 -0.734375q-0.453125 -0.296875 -1.09375 -0.5q-0.640625 -0.203125 -1.40625 -0.34375q-0.5625 -0.09375 -0.921875 -0.203125q-0.359375 -0.125 -0.5625 -0.265625q-0.21875 -0.125 -0.3125 -0.296875q-0.078125 -0.1875 -0.078125 -0.40625q0 -0.203125 0.09375 -0.390625q0.109375 -0.203125 0.3125 -0.34375q0.203125 -0.15625 0.515625 -0.234375q0.3125 -0.09375 0.734375 -0.09375q0.46875 0 0.8125 0.125q0.34375 0.109375 0.5625 0.3125q0.1875 0.171875 0.28125 0.390625q0.09375 0.21875 0.09375 0.453125l1.875 0q0 -0.578125 -0.25 -1.0625q-0.25 -0.5 -0.71875 -0.859375q-0.46875 -0.359375 -1.140625 -0.5625q-0.671875 -0.203125 -1.515625 -0.203125q-0.78125 0 -1.4375 0.203125q-0.640625 0.203125 -1.09375 0.546875q-0.453125 0.359375 -0.703125 0.828125q-0.25 0.453125 -0.25 0.96875q0 0.546875 0.234375 0.953125q0.25 0.40625 0.6875 0.703125q0.4375 0.3125 1.03125 0.53125q0.609375 0.21875 1.34375 0.359375q0.59375 0.109375 0.984375 0.234375q0.390625 0.125 0.625 0.265625q0.234375 0.15625 0.328125 0.328125q0.09375 0.171875 0.09375 0.390625zm7.8359375 -8.21875l-1.875 0l0 2.0625l-2.046875 0l0 1.390625l2.046875 0l0 4.15625q0 0.8125 0.203125 1.390625q0.21875 0.578125 0.609375 0.953125q0.375 0.375 0.90625 0.5625q0.546875 0.171875 1.1875 0.171875q0.34375 0 0.703125 -0.046875q0.359375 -0.03125 0.6875 -0.09375q0.328125 -0.0625 0.609375 -0.15625q0.28125 -0.09375 0.484375 -0.21875l-0.203125 -1.28125q-0.140625 0.03125 -0.34375 0.078125q-0.203125 0.03125 -0.4375 0.0625q-0.25 0.046875 -0.515625 0.078125q-0.25 0.015625 -0.484375 0.015625q-0.34375 0 -0.625 -0.078125q-0.28125 -0.078125 -0.484375 -0.265625q-0.203125 -0.1875 -0.3125 -0.5q-0.109375 -0.3125 -0.109375 -0.78125l0 -4.046875l3.171875 0l0 -1.390625l-3.171875 0l0 -2.0625zm5.6015625 6.21875l0 0.171875q0 0.90625 0.234375 1.703125q0.234375 0.78125 0.65625 1.34375q0.4375 0.578125 1.046875 0.90625q0.625 0.328125 1.390625 0.328125q0.734375 0 1.296875 -0.265625q0.5625 -0.28125 0.96875 -0.78125l0.09375 0.890625l1.6875 0l0 -12.0l-1.859375 0l0 4.328125q-0.40625 -0.453125 -0.9375 -0.6875q-0.53125 -0.25 -1.234375 -0.25q-0.78125 0 -1.40625 0.3125q-0.609375 0.3125 -1.046875 0.890625q-0.4375 0.5625 -0.671875 1.359375q-0.21875 0.796875 -0.21875 1.75zm1.859375 0.171875l0 -0.171875q0 -0.5625 0.109375 -1.0625q0.109375 -0.515625 0.359375 -0.890625q0.21875 -0.390625 0.59375 -0.609375q0.375 -0.21875 0.890625 -0.21875q0.625 0 1.03125 0.28125q0.421875 0.28125 0.671875 0.75l0 3.625q-0.25 0.484375 -0.671875 0.765625q-0.40625 0.265625 -1.046875 0.265625q-0.515625 0 -0.890625 -0.203125q-0.359375 -0.21875 -0.59375 -0.609375q-0.234375 -0.359375 -0.34375 -0.859375q-0.109375 -0.5 -0.109375 -1.0625zm10.5546875 3.0q0 0.53125 0.34375 0.90625q0.359375 0.375 1.0 0.375q0.640625 0 1.0 -0.359375q0.359375 -0.375 0.359375 -0.921875q0 -0.546875 -0.359375 -0.921875q-0.359375 -0.390625 -1.0 -0.390625q-0.65625 0 -1.0 0.390625q-0.34375 0.375 -0.34375 0.921875zm0 -6.625q0 0.53125 0.34375 0.90625q0.359375 0.375 1.0 0.375q0.640625 0 1.0 -0.359375q0.359375 -0.375 0.359375 -0.921875q0 -0.546875 -0.359375 -0.921875q-0.359375 -0.390625 -1.0 -0.390625q-0.65625 0 -1.0 0.390625q-0.34375 0.375 -0.34375 0.921875zm9.6015625 6.625q0 0.53125 0.34375 0.90625q0.359375 0.375 1.0 0.375q0.640625 0 1.0 -0.359375q0.359375 -0.375 0.359375 -0.921875q0 -0.546875 -0.359375 -0.921875q-0.359375 -0.390625 -1.0 -0.390625q-0.65625 0 -1.0 0.390625q-0.34375 0.375 -0.34375 0.921875zm0 -6.625q0 0.53125 0.34375 0.90625q0.359375 0.375 1.0 0.375q0.640625 0 1.0 -0.359375q0.359375 -0.375 0.359375 -0.921875q0 -0.546875 -0.359375 -0.921875q-0.359375 -0.390625 -1.0 -0.390625q-0.65625 0 -1.0 0.390625q-0.34375 0.375 -0.34375 0.921875zm9.8046875 7.75l1.640625 0l3.3125 -8.453125l-1.9375 0l-2.0625 6.125l-0.125 0.5625l-0.125 -0.5625l-2.09375 -6.125l-1.9375 0l3.328125 8.453125zm10.7734375 0.15625q1.234375 0 2.109375 -0.484375q0.875 -0.484375 1.296875 -1.09375l-1.0 -0.96875q-0.390625 0.5 -1.0 0.765625q-0.59375 0.265625 -1.296875 0.265625q-0.5 0 -0.9375 -0.171875q-0.421875 -0.171875 -0.734375 -0.484375q-0.3125 -0.296875 -0.5 -0.671875q-0.171875 -0.375 -0.25 -0.921875l0 -0.046875l5.859375 0l0 -0.796875q0 -0.90625 -0.25 -1.671875q-0.234375 -0.765625 -0.71875 -1.328125q-0.46875 -0.546875 -1.171875 -0.84375q-0.703125 -0.3125 -1.625 -0.3125q-0.8125 0 -1.546875 0.3125q-0.71875 0.296875 -1.265625 0.875q-0.546875 0.5625 -0.859375 1.375q-0.3125 0.796875 -0.3125 1.796875l0 0.3125q0 0.875 0.296875 1.625q0.3125 0.734375 0.859375 1.28125q0.5625 0.5625 1.328125 0.875q0.78125 0.3125 1.71875 0.3125zm-0.21875 -7.25q0.46875 0 0.8125 0.15625q0.359375 0.15625 0.59375 0.421875q0.25 0.28125 0.375 0.640625q0.140625 0.359375 0.140625 0.734375l0 0.125l-3.984375 0q0.09375 -0.484375 0.265625 -0.859375q0.1875 -0.390625 0.453125 -0.671875q0.265625 -0.265625 0.59375 -0.40625q0.34375 -0.140625 0.75 -0.140625zm9.5546875 5.75q-0.578125 0 -0.96875 -0.234375q-0.390625 -0.234375 -0.625 -0.625q-0.234375 -0.375 -0.328125 -0.875q-0.09375 -0.5 -0.09375 -1.015625l0 -0.265625q0 -0.515625 0.09375 -1.0q0.09375 -0.5 0.34375 -0.875q0.21875 -0.390625 0.609375 -0.625q0.390625 -0.234375 0.96875 -0.234375q0.390625 0 0.71875 0.140625q0.328125 0.125 0.578125 0.34375q0.234375 0.234375 0.359375 0.546875q0.125 0.296875 0.125 0.640625l1.765625 0q0 -0.703125 -0.265625 -1.28125q-0.25 -0.59375 -0.71875 -1.015625q-0.46875 -0.421875 -1.125 -0.65625q-0.65625 -0.234375 -1.421875 -0.234375q-0.96875 0 -1.703125 0.34375q-0.71875 0.328125 -1.21875 0.90625q-0.484375 0.578125 -0.734375 1.359375q-0.25 0.765625 -0.25 1.640625l0 0.265625q0 0.875 0.25 1.65625q0.25 0.765625 0.75 1.34375q0.484375 0.578125 1.203125 0.921875q0.734375 0.34375 1.71875 0.34375q0.703125 0 1.328125 -0.234375q0.640625 -0.234375 1.140625 -0.640625q0.484375 -0.390625 0.765625 -0.9375q0.28125 -0.546875 0.28125 -1.15625l-1.765625 0q0 0.3125 -0.140625 0.578125q-0.140625 0.265625 -0.390625 0.46875q-0.25 0.1875 -0.578125 0.296875q-0.3125 0.109375 -0.671875 0.109375zm9.6796875 -9.171875l-1.875 0l0 2.0625l-2.046875 0l0 1.390625l2.046875 0l0 4.15625q0 0.8125 0.203125 1.390625q0.21875 0.578125 0.609375 0.953125q0.375 0.375 0.90625 0.5625q0.546875 0.171875 1.1875 0.171875q0.34375 0 0.703125 -0.046875q0.359375 -0.03125 0.6875 -0.09375q0.328125 -0.0625 0.609375 -0.15625q0.28125 -0.09375 0.484375 -0.21875l-0.203125 -1.28125q-0.140625 0.03125 -0.34375 0.078125q-0.203125 0.03125 -0.4375 0.0625q-0.25 0.046875 -0.515625 0.078125q-0.25 0.015625 -0.484375 0.015625q-0.34375 0 -0.625 -0.078125q-0.28125 -0.078125 -0.484375 -0.265625q-0.203125 -0.1875 -0.3125 -0.5q-0.109375 -0.3125 -0.109375 -0.78125l0 -4.046875l3.171875 0l0 -1.390625l-3.171875 0l0 -2.0625zm5.5078125 6.203125l0 0.171875q0 0.921875 0.265625 1.703125q0.265625 0.78125 0.765625 1.359375q0.5 0.578125 1.234375 0.921875q0.734375 0.328125 1.671875 0.328125q0.921875 0 1.640625 -0.328125q0.734375 -0.34375 1.234375 -0.921875q0.5 -0.578125 0.765625 -1.359375q0.265625 -0.78125 0.265625 -1.703125l0 -0.171875q0 -0.921875 -0.265625 -1.703125q-0.265625 -0.78125 -0.765625 -1.359375q-0.5 -0.578125 -1.234375 -0.90625q-0.734375 -0.328125 -1.65625 -0.328125q-0.9375 0 -1.671875 0.328125q-0.71875 0.328125 -1.21875 0.90625q-0.5 0.578125 -0.765625 1.359375q-0.265625 0.78125 -0.265625 1.703125zm1.859375 0.171875l0 -0.171875q0 -0.546875 0.125 -1.046875q0.125 -0.515625 0.375 -0.90625q0.25 -0.375 0.640625 -0.59375q0.390625 -0.234375 0.921875 -0.234375q0.53125 0 0.921875 0.234375q0.390625 0.21875 0.640625 0.59375q0.25 0.390625 0.375 0.90625q0.125 0.5 0.125 1.046875l0 0.171875q0 0.5625 -0.125 1.078125q-0.125 0.5 -0.375 0.890625q-0.25 0.375 -0.640625 0.609375q-0.390625 0.21875 -0.90625 0.21875q-0.546875 0 -0.9375 -0.21875q-0.390625 -0.234375 -0.640625 -0.609375q-0.25 -0.390625 -0.375 -0.890625q-0.125 -0.515625 -0.125 -1.078125zm13.9296875 -4.46875q-0.875 0 -1.609375 0.40625q-0.71875 0.40625 -1.234375 1.109375l0 -0.1875l-0.078125 -1.171875l-1.75 0l0 8.453125l1.859375 0l0 -5.21875q0.15625 -0.375 0.375 -0.65625q0.21875 -0.296875 0.53125 -0.484375q0.28125 -0.203125 0.65625 -0.296875q0.375 -0.09375 0.84375 -0.09375q0.421875 0 0.828125 0.046875q0.421875 0.046875 0.859375 0.140625l0.265625 -1.84375q-0.25 -0.078125 -0.671875 -0.140625q-0.421875 -0.0625 -0.875 -0.0625zm10.6015625 7.3125l0 -1.875l-4.5 -1.609375l-0.46875 -0.15625l0.46875 -0.171875l4.5 -1.625l0 -1.875l-6.796875 2.90625l0 1.5l6.796875 2.90625zm9.3984375 -3.8125l0 -1.515625l-4.703125 0l0 -3.203125l5.453125 0l0 -1.546875l-7.34375 0l0 11.375l7.375 0l0 -1.546875l-5.484375 0l0 -3.5625l4.703125 0zm2.9609375 5.109375l1.859375 0l0 -6.03125q0.125 -0.21875 0.28125 -0.390625q0.171875 -0.1875 0.359375 -0.3125q0.25 -0.15625 0.546875 -0.25q0.296875 -0.09375 0.640625 -0.09375q0.40625 0 0.71875 0.09375q0.328125 0.09375 0.5625 0.296875q0.21875 0.21875 0.328125 0.578125q0.125 0.34375 0.125 0.859375l0 5.25l1.875 0l0 -5.28125q0 -0.890625 -0.21875 -1.515625q-0.203125 -0.625 -0.59375 -1.03125q-0.375 -0.40625 -0.921875 -0.59375q-0.53125 -0.1875 -1.1875 -0.1875q-0.484375 0 -0.9375 0.140625q-0.4375 0.140625 -0.8125 0.390625q-0.234375 0.171875 -0.453125 0.375q-0.203125 0.203125 -0.375 0.453125l-0.109375 -1.203125l-1.6875 0l0 8.453125zm13.3515625 -10.515625l-1.875 0l0 2.0625l-2.046875 0l0 1.390625l2.046875 0l0 4.15625q0 0.8125 0.203125 1.390625q0.21875 0.578125 0.609375 0.953125q0.375 0.375 0.90625 0.5625q0.546875 0.171875 1.1875 0.171875q0.34375 0 0.703125 -0.046875q0.359375 -0.03125 0.6875 -0.09375q0.328125 -0.0625 0.609375 -0.15625q0.28125 -0.09375 0.484375 -0.21875l-0.203125 -1.28125q-0.140625 0.03125 -0.34375 0.078125q-0.203125 0.03125 -0.4375 0.0625q-0.25 0.046875 -0.515625 0.078125q-0.25 0.015625 -0.484375 0.015625q-0.34375 0 -0.625 -0.078125q-0.28125 -0.078125 -0.484375 -0.265625q-0.203125 -0.1875 -0.3125 -0.5q-0.109375 -0.3125 -0.109375 -0.78125l0 -4.046875l3.171875 0l0 -1.390625l-3.171875 0l0 -2.0625zm11.6953125 1.90625q-0.875 0 -1.609375 0.40625q-0.71875 0.40625 -1.234375 1.109375l0 -0.1875l-0.078125 -1.171875l-1.75 0l0 8.453125l1.859375 0l0 -5.21875q0.15625 -0.375 0.375 -0.65625q0.21875 -0.296875 0.53125 -0.484375q0.28125 -0.203125 0.65625 -0.296875q0.375 -0.09375 0.84375 -0.09375q0.421875 0 0.828125 0.046875q0.421875 0.046875 0.859375 0.140625l0.265625 -1.84375q-0.25 -0.078125 -0.671875 -0.140625q-0.421875 -0.0625 -0.875 -0.0625zm4.8203125 12.03125q0.609375 0 1.0625 -0.21875q0.46875 -0.21875 0.8125 -0.53125q0.328125 -0.3125 0.546875 -0.6875q0.234375 -0.375 0.375 -0.703125l4.296875 -9.734375l-2.078125 0l-2.03125 5.1875l-0.359375 0.90625l-0.28125 -0.9375l-2.109375 -5.15625l-2.046875 0l3.59375 8.078125l-0.53125 1.015625q-0.078125 0.171875 -0.1875 0.328125q-0.09375 0.15625 -0.25 0.359375q-0.15625 0.203125 -0.375 0.359375q-0.21875 0.15625 -0.5 0.15625q-0.125 0 -0.328125 -0.015625q-0.1875 0 -0.34375 -0.015625l-0.265625 1.46875q0.234375 0.046875 0.46875 0.09375q0.25 0.046875 0.53125 0.046875zm8.6328125 -4.71875l6.984375 -2.90625l0 -1.515625l-6.984375 -2.890625l0 1.84375l4.734375 1.640625l0.46875 0.15625l-0.484375 0.140625l-4.71875 1.671875l0 1.859375zm20.171875 -7.15625l-1.625 0l0 8.453125l1.71875 0l0 -6.5q0.046875 -0.109375 0.09375 -0.203125q0.0625 -0.09375 0.140625 -0.171875q0.109375 -0.09375 0.25 -0.140625q0.140625 -0.0625 0.328125 -0.0625q0.171875 0 0.3125 0.046875q0.140625 0.046875 0.234375 0.15625q0.109375 0.09375 0.15625 0.28125q0.046875 0.171875 0.046875 0.421875l0 6.171875l1.6875 0l0 -6.28125q0 -0.078125 0 -0.109375q0 -0.046875 0 -0.078125q0.03125 -0.140625 0.09375 -0.234375q0.0625 -0.109375 0.15625 -0.1875q0.109375 -0.09375 0.234375 -0.140625q0.140625 -0.046875 0.3125 -0.046875q0.171875 0 0.3125 0.046875q0.15625 0.046875 0.25 0.15625q0.109375 0.109375 0.15625 0.28125q0.0625 0.171875 0.0625 0.421875l0 6.171875l1.71875 0l0 -6.15625q0 -0.65625 -0.140625 -1.125q-0.140625 -0.484375 -0.390625 -0.78125q-0.25 -0.28125 -0.59375 -0.40625q-0.328125 -0.140625 -0.734375 -0.140625q-0.3125 0 -0.578125 0.078125q-0.265625 0.078125 -0.46875 0.21875q-0.171875 0.109375 -0.3125 0.265625q-0.140625 0.15625 -0.25 0.328125q-0.078125 -0.1875 -0.1875 -0.34375q-0.109375 -0.15625 -0.25 -0.265625q-0.171875 -0.140625 -0.421875 -0.203125q-0.25 -0.078125 -0.5625 -0.078125q-0.609375 0 -1.03125 0.296875q-0.421875 0.28125 -0.671875 0.78125l-0.046875 -0.921875zm15.6484375 9.9375l0 -1.484375l-7.140625 0l0 1.484375l7.140625 0zm6.4296875 -1.328125q1.234375 0 2.109375 -0.484375q0.875 -0.484375 1.296875 -1.09375l-1.0 -0.96875q-0.390625 0.5 -1.0 0.765625q-0.59375 0.265625 -1.296875 0.265625q-0.5 0 -0.9375 -0.171875q-0.421875 -0.171875 -0.734375 -0.484375q-0.3125 -0.296875 -0.5 -0.671875q-0.171875 -0.375 -0.25 -0.921875l0 -0.046875l5.859375 0l0 -0.796875q0 -0.90625 -0.25 -1.671875q-0.234375 -0.765625 -0.71875 -1.328125q-0.46875 -0.546875 -1.171875 -0.84375q-0.703125 -0.3125 -1.625 -0.3125q-0.8125 0 -1.546875 0.3125q-0.71875 0.296875 -1.265625 0.875q-0.546875 0.5625 -0.859375 1.375q-0.3125 0.796875 -0.3125 1.796875l0 0.3125q0 0.875 0.296875 1.625q0.3125 0.734375 0.859375 1.28125q0.5625 0.5625 1.328125 0.875q0.78125 0.3125 1.71875 0.3125zm-0.21875 -7.25q0.46875 0 0.8125 0.15625q0.359375 0.15625 0.59375 0.421875q0.25 0.28125 0.375 0.640625q0.140625 0.359375 0.140625 0.734375l0 0.125l-3.984375 0q0.09375 -0.484375 0.265625 -0.859375q0.1875 -0.390625 0.453125 -0.671875q0.265625 -0.265625 0.59375 -0.40625q0.34375 -0.140625 0.75 -0.140625zm5.8828125 7.09375l1.859375 0l0 -6.03125q0.125 -0.21875 0.28125 -0.390625q0.171875 -0.1875 0.359375 -0.3125q0.25 -0.15625 0.546875 -0.25q0.296875 -0.09375 0.640625 -0.09375q0.40625 0 0.71875 0.09375q0.328125 0.09375 0.5625 0.296875q0.21875 0.21875 0.328125 0.578125q0.125 0.34375 0.125 0.859375l0 5.25l1.875 0l0 -5.28125q0 -0.890625 -0.21875 -1.515625q-0.203125 -0.625 -0.59375 -1.03125q-0.375 -0.40625 -0.921875 -0.59375q-0.53125 -0.1875 -1.1875 -0.1875q-0.484375 0 -0.9375 0.140625q-0.4375 0.140625 -0.8125 0.390625q-0.234375 0.171875 -0.453125 0.375q-0.203125 0.203125 -0.375 0.453125l-0.109375 -1.203125l-1.6875 0l0 8.453125zm13.3515625 -10.515625l-1.875 0l0 2.0625l-2.046875 0l0 1.390625l2.046875 0l0 4.15625q0 0.8125 0.203125 1.390625q0.21875 0.578125 0.609375 0.953125q0.375 0.375 0.90625 0.5625q0.546875 0.171875 1.1875 0.171875q0.34375 0 0.703125 -0.046875q0.359375 -0.03125 0.6875 -0.09375q0.328125 -0.0625 0.609375 -0.15625q0.28125 -0.09375 0.484375 -0.21875l-0.203125 -1.28125q-0.140625 0.03125 -0.34375 0.078125q-0.203125 0.03125 -0.4375 0.0625q-0.25 0.046875 -0.515625 0.078125q-0.25 0.015625 -0.484375 0.015625q-0.34375 0 -0.625 -0.078125q-0.28125 -0.078125 -0.484375 -0.265625q-0.203125 -0.1875 -0.3125 -0.5q-0.109375 -0.3125 -0.109375 -0.78125l0 -4.046875l3.171875 0l0 -1.390625l-3.171875 0l0 -2.0625zm11.6953125 1.90625q-0.875 0 -1.609375 0.40625q-0.71875 0.40625 -1.234375 1.109375l0 -0.1875l-0.078125 -1.171875l-1.75 0l0 8.453125l1.859375 0l0 -5.21875q0.15625 -0.375 0.375 -0.65625q0.21875 -0.296875 0.53125 -0.484375q0.28125 -0.203125 0.65625 -0.296875q0.375 -0.09375 0.84375 -0.09375q0.421875 0 0.828125 0.046875q0.421875 0.046875 0.859375 0.140625l0.265625 -1.84375q-0.25 -0.078125 -0.671875 -0.140625q-0.421875 -0.0625 -0.875 -0.0625zm4.1796875 0.15625l0 1.546875l2.609375 0l0 5.359375l-2.609375 0l0 1.546875l6.96875 0l0 -1.546875l-2.484375 0l0 -6.90625l-4.484375 0zm2.4375 -2.1875q0 0.296875 0.140625 0.515625q0.140625 0.21875 0.421875 0.3125q0.28125 0.078125 0.5 0.03125q0.234375 -0.046875 0.390625 -0.1875q0.328125 -0.09375 0.5 -0.34375q0.171875 -0.25 0.125 -0.59375q-0.046875 -0.34375 -0.3125 -0.546875q-0.25 -0.21875 -0.671875 -0.21875q-0.25 0 -0.453125 0.078125q-0.203125 0.0625 -0.34375 0.203125q-0.140625 0.140625 -0.21875 0.328125q-0.078125 0.1875 -0.078125 0.421875zm10.6796875 10.796875q1.234375 0 2.109375 -0.484375q0.875 -0.484375 1.296875 -1.09375l-1.0 -0.96875q-0.390625 0.5 -1.0 0.765625q-0.59375 0.265625 -1.296875 0.265625q-0.5 0 -0.9375 -0.171875q-0.421875 -0.171875 -0.734375 -0.484375q-0.3125 -0.296875 -0.5 -0.671875q-0.171875 -0.375 -0.25 -0.921875l0 -0.046875l5.859375 0l0 -0.796875q0 -0.90625 -0.25 -1.671875q-0.234375 -0.765625 -0.71875 -1.328125q-0.46875 -0.546875 -1.171875 -0.84375q-0.703125 -0.3125 -1.625 -0.3125q-0.8125 0 -1.546875 0.3125q-0.71875 0.296875 -1.265625 0.875q-0.546875 0.5625 -0.859375 1.375q-0.3125 0.796875 -0.3125 1.796875l0 0.3125q0 0.875 0.296875 1.625q0.3125 0.734375 0.859375 1.28125q0.5625 0.5625 1.328125 0.875q0.78125 0.3125 1.71875 0.3125zm-0.21875 -7.25q0.46875 0 0.8125 0.15625q0.359375 0.15625 0.59375 0.421875q0.25 0.28125 0.375 0.640625q0.140625 0.359375 0.140625 0.734375l0 0.125l-3.984375 0q0.09375 -0.484375 0.265625 -0.859375q0.1875 -0.390625 0.453125 -0.671875q0.265625 -0.265625 0.59375 -0.40625q0.34375 -0.140625 0.75 -0.140625zm11.3984375 4.796875q0 0.203125 -0.09375 0.375q-0.078125 0.171875 -0.265625 0.3125q-0.21875 0.171875 -0.578125 0.28125q-0.359375 0.09375 -0.84375 0.09375q-0.359375 0 -0.71875 -0.078125q-0.34375 -0.078125 -0.625 -0.25q-0.28125 -0.15625 -0.46875 -0.421875q-0.171875 -0.28125 -0.203125 -0.671875l-1.8125 0q0 0.53125 0.25 1.046875q0.25 0.5 0.734375 0.890625q0.484375 0.390625 1.1875 0.640625q0.703125 0.25 1.625 0.25q0.8125 0 1.484375 -0.1875q0.671875 -0.203125 1.15625 -0.53125q0.484375 -0.34375 0.734375 -0.8125q0.265625 -0.46875 0.265625 -1.03125q0 -0.578125 -0.25 -1.0q-0.25 -0.421875 -0.703125 -0.734375q-0.453125 -0.296875 -1.09375 -0.5q-0.640625 -0.203125 -1.40625 -0.34375q-0.5625 -0.09375 -0.921875 -0.203125q-0.359375 -0.125 -0.5625 -0.265625q-0.21875 -0.125 -0.3125 -0.296875q-0.078125 -0.1875 -0.078125 -0.40625q0 -0.203125 0.09375 -0.390625q0.109375 -0.203125 0.3125 -0.34375q0.203125 -0.15625 0.515625 -0.234375q0.3125 -0.09375 0.734375 -0.09375q0.46875 0 0.8125 0.125q0.34375 0.109375 0.5625 0.3125q0.1875 0.171875 0.28125 0.390625q0.09375 0.21875 0.09375 0.453125l1.875 0q0 -0.578125 -0.25 -1.0625q-0.25 -0.5 -0.71875 -0.859375q-0.46875 -0.359375 -1.140625 -0.5625q-0.671875 -0.203125 -1.515625 -0.203125q-0.78125 0 -1.4375 0.203125q-0.640625 0.203125 -1.09375 0.546875q-0.453125 0.359375 -0.703125 0.828125q-0.25 0.453125 -0.25 0.96875q0 0.546875 0.234375 0.953125q0.25 0.40625 0.6875 0.703125q0.4375 0.3125 1.03125 0.53125q0.609375 0.21875 1.34375 0.359375q0.59375 0.109375 0.984375 0.234375q0.390625 0.125 0.625 0.265625q0.234375 0.15625 0.328125 0.328125q0.09375 0.171875 0.09375 0.390625zm6.7890625 -5.453125q0 0.53125 0.34375 0.90625q0.359375 0.375 1.0 0.375q0.640625 0 1.0 -0.359375q0.359375 -0.375 0.359375 -0.921875q0 -0.546875 -0.359375 -0.921875q-0.359375 -0.390625 -1.0 -0.390625q-0.65625 0 -1.0 0.390625q-0.34375 0.375 -0.34375 0.921875zm2.1875 7.5l0 -1.578125l-1.828125 0l0 1.65625q0 0.78125 -0.1875 1.390625q-0.1875 0.625 -0.515625 1.171875l1.046875 0.5625q0.671875 -0.609375 1.078125 -1.484375q0.40625 -0.859375 0.40625 -1.71875z" fill-rule="nonzero"/><path fill="#efefef" d="m38.097115 211.00787l110.173225 0l0 37.795273l-110.173225 0z" fill-rule="evenodd"/><path stroke="#000000" stroke-width="2.0" stroke-linejoin="round" stroke-linecap="butt" d="m38.097115 211.00787l110.173225 0l0 37.795273l-110.173225 0z" fill-rule="evenodd"/><path fill="#000000" d="m49.26899 236.82552l0 -1.875l1.875 0l0 1.875l-1.875 0zm6.234375 0l0 -1.875l1.859375 0l0 1.875l-1.859375 0zm6.203125 0l0 -1.875l1.875 0l0 1.875l-1.875 0z" fill-rule="nonzero"/><path fill="#efefef" d="m258.44357 211.00787l187.1496 0l0 37.795273l-187.1496 0z" fill-rule="evenodd"/><path stroke="#000000" stroke-width="2.0" stroke-linejoin="round" stroke-linecap="butt" d="m258.44357 211.00787l187.1496 0l0 37.795273l-187.1496 0z" fill-rule="evenodd"/><path fill="#000000" d="m269.61545 236.82552l0 -1.875l1.875 0l0 1.875l-1.875 0zm6.234375 0l0 -1.875l1.859375 0l0 1.875l-1.859375 0zm6.203125 0l0 -1.875l1.875 0l0 1.875l-1.875 0z" fill-rule="nonzero"/><path fill="#efefef" d="m148.27034 211.00787l110.17323 0l0 37.795273l-110.17323 0z" fill-rule="evenodd"/><path stroke="#000000" stroke-width="2.0" stroke-linejoin="round" stroke-linecap="butt" d="m148.27034 211.00787l110.17323 0l0 37.795273l-110.17323 0z" fill-rule="evenodd"/><path fill="#000000" d="m159.44221 236.82552l0 -1.875l1.875 0l0 1.875l-1.875 0zm6.234375 0l0 -1.875l1.859375 0l0 1.875l-1.859375 0zm6.203125 0l0 -1.875l1.875 0l0 1.875l-1.875 0z" fill-rule="nonzero"/></g></svg>