<svg version="1.1" viewBox="0.0 0.0 362.501312335958 135.501312335958" fill="none" stroke="none" stroke-linecap="square" stroke-miterlimit="10" xmlns:xlink="http://www.w3.org/1999/xlink" xmlns="http://www.w3.org/2000/svg"><clipPath id="p.0"><path d="m0 0l362.5013 0l0 135.50131l-362.5013 0l0 -135.50131z" clip-rule="nonzero"/></clipPath><g clip-path="url(#p.0)"><path fill="#000000" fill-opacity="0.0" d="m0 0l362.5013 0l0 135.50131l-362.5013 0z" fill-rule="evenodd"/><path fill="#000000" fill-opacity="0.0" d="m9.0026245 34.464565l196.59842 0l0 89.51181l-196.59842 0z" fill-rule="evenodd"/><path stroke="#000000" stroke-width="2.0" stroke-linejoin="round" stroke-linecap="butt" d="m9.0026245 34.464565l196.59842 0l0 89.51181l-196.59842 0z" fill-rule="evenodd"/><path fill="#000000" fill-opacity="0.0" d="m0 0l145.88977 0l0 38.771652l-145.88977 0z" fill-rule="evenodd"/><path fill="#000000" d="m9.78125 24.14125l0 -1.625q1.390625 0.640625 2.03125 0.78125q0.640625 0.125 1.1875 0.125q1.0 0 1.5625 -0.546875q0.578125 -0.546875 0.578125 -1.296875q0 -0.578125 -0.296875 -1.0625q-0.296875 -0.46875 -1.515625 -1.15625l-0.796875 -0.46875q-1.59375 -0.90625 -2.140625 -1.65625q-0.546875 -0.75 -0.546875 -1.65625q0 -0.828125 0.4375 -1.546875q0.4375 -0.71875 1.15625 -1.125q0.734375 -0.40625 1.84375 -0.40625q1.34375 0 2.828125 0.453125l0 1.5q-1.296875 -0.515625 -1.78125 -0.609375q-0.46875 -0.109375 -0.953125 -0.109375q-1.0 0 -1.484375 0.53125q-0.46875 0.515625 -0.46875 1.0625q0 0.375 0.21875 0.765625q0.234375 0.375 0.609375 0.65625q0.390625 0.28125 1.0625 0.65625l0.828125 0.46875q1.609375 0.921875 2.140625 1.671875q0.546875 0.765625 0.546875 1.765625q0 1.34375 -1.03125 2.34375q-1.03125 1.0 -3.03125 1.0q-0.609375 0 -1.1875 -0.09375q-0.578125 -0.078125 -1.796875 -0.421875zm13.1640625 0.21875q-0.71875 0.203125 -1.234375 0.203125q-1.140625 0 -1.8125 -0.65625q-0.671875 -0.671875 -0.671875 -1.890625l0 -4.984375l-1.0625 0l0 -1.15625l1.0625 0l0 -1.546875l1.53125 -0.140625l0 1.6875l2.21875 0l0 1.15625l-2.21875 0l0 4.703125q0 0.890625 0.34375 1.28125q0.34375 0.375 1.09375 0.375q0.3125 0 0.75 -0.09375l0 1.0625zm2.203125 0l0 -8.484375l1.53125 0l0 1.59375q0.4375 -0.859375 1.140625 -1.3125q0.703125 -0.46875 1.515625 -0.46875q0.234375 0 0.5 0.03125l0 1.4375q-0.390625 -0.125 -0.703125 -0.125q-0.734375 0 -1.34375 0.4375q-0.609375 0.421875 -1.109375 1.296875l0 5.59375l-1.53125 0zm6.546875 0l0 -8.484375l1.53125 0l0 8.484375l-1.53125 0zm0 -10.03125l0 -1.53125l1.53125 0l0 1.53125l-1.53125 0zm4.625 10.03125l0 -8.484375l1.53125 0l0 1.59375q0.59375 -0.859375 1.359375 -1.3125q0.78125 -0.46875 1.625 -0.46875q1.078125 0 1.75 0.6875q0.671875 0.671875 0.671875 1.890625l0 6.09375l-1.546875 0l0 -5.59375q0 -0.890625 -0.15625 -1.171875q-0.15625 -0.28125 -0.4375 -0.421875q-0.28125 -0.15625 -0.59375 -0.15625q-0.578125 0 -1.234375 0.359375q-0.65625 0.34375 -1.4375 1.484375l0 5.5l-1.53125 0zm9.9609375 2.828125l0.171875 -1.34375q1.34375 0.640625 2.640625 0.640625q1.46875 0 2.03125 -0.75q0.5625 -0.75 0.5625 -2.015625l0 -1.34375q-0.328125 0.703125 -1.046875 1.25q-0.703125 0.53125 -1.734375 0.53125q-1.734375 0 -2.53125 -1.25q-0.796875 -1.25 -0.796875 -2.84375q0 -1.21875 0.46875 -2.265625q0.46875 -1.046875 1.296875 -1.578125q0.828125 -0.53125 1.90625 -0.53125q0.46875 0 0.875 0.109375q0.421875 0.109375 0.765625 0.328125q0.359375 0.21875 0.796875 0.71875l0 -0.96875l1.546875 0l0 6.171875q0 2.703125 -0.453125 3.6875q-0.4375 1.0 -1.40625 1.453125q-0.953125 0.453125 -2.265625 0.453125q-0.4375 0 -0.9375 -0.046875q-0.484375 -0.046875 -0.875 -0.125q-0.390625 -0.078125 -1.015625 -0.28125zm5.40625 -5.765625l0 -3.53125q-0.5 -0.53125 -1.0625 -0.78125q-0.546875 -0.265625 -1.140625 -0.265625q-1.03125 0 -1.65625 0.828125q-0.609375 0.8125 -0.609375 2.375q0 1.234375 0.453125 2.0q0.46875 0.765625 1.5 0.765625q0.671875 0 1.296875 -0.34375q0.640625 -0.359375 1.21875 -1.046875z" fill-rule="nonzero"/><path fill="#efefef" d="m76.826775 49.165356l108.472435 0l0 30.929134l-108.472435 0z" fill-rule="evenodd"/><path stroke="#000000" stroke-width="2.0" stroke-linejoin="round" stroke-linecap="butt" d="m76.826775 49.165356l108.472435 0l0 30.929134l-108.472435 0z" fill-rule="evenodd"/><path fill="#efefef" d="m76.826775 80.08662l108.472435 0l0 30.92913l-108.472435 0z" fill-rule="evenodd"/><path stroke="#000000" stroke-width="2.0" stroke-linejoin="round" stroke-linecap="butt" d="m76.826775 80.08662l108.472435 0l0 30.92913l-108.472435 0z" fill-rule="evenodd"/><path fill="#000000" d="m127.28565 98.37993l1.4062424 -0.1875q0.25 1.203125 0.828125 1.734375q0.578125 0.515625 1.421875 0.515625q0.984375 0 1.671875 -0.6875q0.6875 -0.6875 0.6875 -1.703125q0 -0.96875 -0.640625 -1.59375q-0.625 -0.625 -1.609375 -0.625q-0.390625 0 -0.984375 0.15625l0.15625 -1.234375q0.140625 0.015625 0.21875 0.015625q0.90625 0 1.625 -0.46875q0.71875 -0.46875 0.71875 -1.453125q0 -0.765625 -0.53125 -1.265625q-0.515625 -0.515625 -1.34375 -0.515625q-0.828125 0 -1.375 0.515625q-0.546875 0.515625 -0.703125 1.546875l-1.4062424 -0.25q0.265625 -1.421875 1.1718674 -2.1875q0.921875 -0.78125 2.28125 -0.78125q0.9375 0 1.71875 0.40625q0.796875 0.390625 1.203125 1.09375q0.421875 0.6875 0.421875 1.46875q0 0.75 -0.40625 1.359375q-0.390625 0.609375 -1.171875 0.96875q1.015625 0.234375 1.578125 0.96875q0.5625 0.734375 0.5625 1.84375q0 1.5 -1.09375 2.546875q-1.09375 1.046875 -2.765625 1.046875q-1.5 0 -2.5 -0.890625q-0.9999924 -0.90625 -1.1406174 -2.34375z" fill-rule="nonzero"/><path fill="#000000" fill-opacity="0.0" d="m9.015748 48.295277l67.81103 0l0 30.929134l-67.81103 0z" fill-rule="evenodd"/><path fill="#000000" d="m19.562624 69.61984l0 -8.484375l1.53125 0l0 1.59375q0.46875 -0.75 1.203125 -1.265625q0.734375 -0.515625 1.6875 -0.515625q0.5625 0 0.96875 0.1875q0.421875 0.171875 0.75 0.5q0.34375 0.328125 0.609375 1.09375q0.46875 -0.765625 1.1875 -1.28125q0.71875 -0.515625 1.65625 -0.515625q0.90625 0 1.625 0.5625q0.734375 0.5625 0.734375 1.953125l0 6.171875l-1.546875 0l0 -5.9375q0 -0.84375 -0.359375 -1.140625q-0.359375 -0.3125 -0.796875 -0.3125q-0.546875 0 -1.140625 0.34375q-0.578125 0.34375 -1.359375 1.359375l0 5.6875l-1.546875 0l0 -5.9375q0 -0.84375 -0.359375 -1.140625q-0.359375 -0.3125 -0.8125 -0.3125q-0.5625 0 -1.125 0.34375q-0.5625 0.328125 -1.375 1.359375l0 5.6875l-1.53125 0zm14.062498 1.15625l0 -1.15625l6.65625 0l0 1.15625l-6.65625 0zm8.875 1.9375l0 -11.578125l1.53125 0l0 1.59375q0.484375 -0.890625 1.1875 -1.328125q0.703125 -0.453125 1.65625 -0.453125q1.5625 0 2.421875 1.15625q0.859375 1.15625 0.859375 3.015625q0 1.203125 -0.40625 2.296875q-0.390625 1.09375 -1.234375 1.75q-0.828125 0.65625 -1.890625 0.65625q-0.421875 0 -1.125 -0.140625q-0.6875 -0.125 -1.46875 -1.03125l0 4.0625l-1.53125 0zm1.53125 -5.125q0.796875 0.703125 1.265625 0.890625q0.46875 0.171875 1.0 0.171875q1.140625 0 1.671875 -0.953125q0.546875 -0.953125 0.546875 -2.421875q0 -1.375 -0.484375 -2.171875q-0.46875 -0.8125 -1.484375 -0.8125q-0.640625 0 -1.265625 0.34375q-0.625 0.34375 -1.25 1.046875l0 3.90625zm12.3203125 2.03125q-0.71875 0.203125 -1.234375 0.203125q-1.140625 0 -1.8125 -0.65625q-0.671875 -0.671875 -0.671875 -1.890625l0 -4.984375l-1.0625 0l0 -1.15625l1.0625 0l0 -1.546875l1.53125 -0.140625l0 1.6875l2.21875 0l0 1.15625l-2.21875 0l0 4.703125q0 0.890625 0.34375 1.28125q0.34375 0.375 1.09375 0.375q0.3125 0 0.75 -0.09375l0 1.0625zm2.203125 0l0 -8.484375l1.53125 0l0 1.59375q0.4375 -0.859375 1.140625 -1.3125q0.703125 -0.46875 1.515625 -0.46875q0.234375 0 0.5 0.03125l0 1.4375q-0.390625 -0.125 -0.703125 -0.125q-0.734375 0 -1.34375 0.4375q-0.609375 0.421875 -1.109375 1.296875l0 5.59375l-1.53125 0z" fill-rule="nonzero"/><path fill="#000000" fill-opacity="0.0" d="m9.0026245 79.21654l67.81103 0l0 30.92913l-67.81103 0z" fill-rule="evenodd"/><path fill="#000000" d="m19.5495 100.5411l0 -8.484375l1.53125 0l0 1.59375q0.46875 -0.75 1.203125 -1.265625q0.734375 -0.515625 1.6875 -0.515625q0.5625 0 0.96875 0.1875q0.421875 0.171875 0.75 0.5q0.34375 0.328125 0.609375 1.09375q0.46875 -0.765625 1.1875 -1.28125q0.71875 -0.515625 1.65625 -0.515625q0.90625 0 1.625 0.5625q0.734375 0.5625 0.734375 1.953125l0 6.171875l-1.546875 0l0 -5.9375q0 -0.84375 -0.359375 -1.140625q-0.359375 -0.3125 -0.796875 -0.3125q-0.546875 0 -1.140625 0.34375q-0.578125 0.34375 -1.359375 1.359375l0 5.6875l-1.546875 0l0 -5.9375q0 -0.84375 -0.359375 -1.140625q-0.359375 -0.3125 -0.8125 -0.3125q-0.5625 0 -1.125 0.34375q-0.5625 0.328125 -1.375 1.359375l0 5.6875l-1.53125 0zm14.0625 1.15625l0 -1.15625l6.65625 0l0 1.15625l-6.65625 0zm8.875 -1.15625l0 -12.34375l1.53125 0l0 12.34375l-1.53125 0zm10.84375 -0.28125q-1.546875 0.484375 -2.65625 0.484375q-1.96875 0 -3.109375 -1.328125q-1.125 -1.34375 -1.125 -3.15625q0 -1.203125 0.5 -2.28125q0.5 -1.078125 1.296875 -1.59375q0.8125 -0.53125 1.90625 -0.53125q1.46875 0 2.34375 1.0625q0.875 1.046875 0.875 3.15625l0 0.46875l-5.359375 0q0.125 1.125 0.484375 1.734375q0.359375 0.609375 0.953125 0.953125q0.609375 0.328125 1.53125 0.328125q0.46875 0 0.921875 -0.078125q0.46875 -0.078125 1.4375 -0.4375l0 1.21875zm-5.25 -4.875l3.734375 0q0 -1.28125 -0.5 -1.828125q-0.484375 -0.546875 -1.265625 -0.546875q-0.875 0 -1.375 0.59375q-0.5 0.59375 -0.59375 1.78125zm7.9453125 5.15625l0 -8.484375l1.53125 0l0 1.59375q0.59375 -0.859375 1.359375 -1.3125q0.78125 -0.46875 1.625 -0.46875q1.078125 0 1.75 0.6875q0.671875 0.671875 0.671875 1.890625l0 6.09375l-1.546875 0l0 -5.59375q0 -0.890625 -0.15625 -1.171875q-0.15625 -0.28125 -0.4375 -0.421875q-0.28125 -0.15625 -0.59375 -0.15625q-0.578125 0 -1.234375 0.359375q-0.65625 0.34375 -1.4375 1.484375l0 5.5l-1.53125 0z" fill-rule="nonzero"/><path fill="#efefef" d="m260.71652 51.175854l30.992126 0l0 30.929134l-30.992126 0z" fill-rule="evenodd"/><path stroke="#000000" stroke-width="2.0" stroke-linejoin="round" stroke-linecap="butt" d="m260.71652 51.175854l30.992126 0l0 30.929134l-30.992126 0z" fill-rule="evenodd"/><path fill="#000000" d="m270.8454 72.50042l4.40625 -11.453125l1.640625 0l4.6875 11.453125l-1.734375 0l-1.328125 -3.46875l-4.796875 0l-1.25 3.46875l-1.625 0zm3.3125 -4.703125l3.890625 0l-1.203125 -3.171875q-0.546875 -1.453125 -0.8125 -2.375q-0.21875 1.09375 -0.609375 2.1875l-1.265625 3.359375z" fill-rule="nonzero"/><path fill="#efefef" d="m291.70865 51.175854l30.992126 0l0 30.929134l-30.992126 0z" fill-rule="evenodd"/><path stroke="#000000" stroke-width="2.0" stroke-linejoin="round" stroke-linecap="butt" d="m291.70865 51.175854l30.992126 0l0 30.929134l-30.992126 0z" fill-rule="evenodd"/><path fill="#000000" d="m303.04065 72.50042l0 -11.453125l4.296875 0q1.3125 0 2.109375 0.34375q0.796875 0.34375 1.234375 1.078125q0.453125 0.71875 0.453125 1.5q0 0.734375 -0.40625 1.390625q-0.390625 0.640625 -1.1875 1.046875q1.03125 0.296875 1.59375 1.03125q0.5625 0.734375 0.5625 1.734375q0 0.8125 -0.34375 1.5q-0.34375 0.6875 -0.84375 1.0625q-0.5 0.375 -1.25 0.578125q-0.75 0.1875 -1.84375 0.1875l-4.375 0zm1.515625 -6.640625l2.484375 0q1.0 0 1.4375 -0.140625q0.578125 -0.171875 0.875 -0.5625q0.296875 -0.40625 0.296875 -1.0q0 -0.578125 -0.28125 -1.0q-0.265625 -0.4375 -0.78125 -0.59375q-0.5 -0.171875 -1.734375 -0.171875l-2.296875 0l0 3.46875zm0 5.28125l2.859375 0q0.734375 0 1.03125 -0.046875q0.515625 -0.09375 0.859375 -0.3125q0.359375 -0.21875 0.578125 -0.640625q0.234375 -0.421875 0.234375 -0.96875q0 -0.640625 -0.328125 -1.109375q-0.328125 -0.46875 -0.90625 -0.65625q-0.578125 -0.203125 -1.671875 -0.203125l-2.65625 0l0 3.9375z" fill-rule="nonzero"/><path fill="#efefef" d="m322.70078 51.175854l30.992126 0l0 30.929134l-30.992126 0z" fill-rule="evenodd"/><path stroke="#000000" stroke-width="2.0" stroke-linejoin="round" stroke-linecap="butt" d="m322.70078 51.175854l30.992126 0l0 30.929134l-30.992126 0z" fill-rule="evenodd"/><path fill="#000000" d="m341.82574 68.484795l1.515625 0.375q-0.46875 1.875 -1.71875 2.859375q-1.234375 0.984375 -3.015625 0.984375q-1.859375 0 -3.015625 -0.75q-1.15625 -0.765625 -1.765625 -2.1875q-0.609375 -1.4375 -0.609375 -3.078125q0 -1.796875 0.6875 -3.125q0.6875 -1.328125 1.9375 -2.015625q1.265625 -0.703125 2.78125 -0.703125q1.71875 0 2.890625 0.875q1.171875 0.875 1.640625 2.46875l-1.5 0.34375q-0.390625 -1.25 -1.15625 -1.8125q-0.75 -0.578125 -1.90625 -0.578125q-1.3125 0 -2.203125 0.640625q-0.890625 0.625 -1.25 1.703125q-0.359375 1.0625 -0.359375 2.1875q0 1.46875 0.421875 2.5625q0.4375 1.078125 1.328125 1.625q0.90625 0.53125 1.953125 0.53125q1.265625 0 2.140625 -0.734375q0.890625 -0.734375 1.203125 -2.171875z" fill-rule="nonzero"/><path fill="#000000" fill-opacity="0.0" d="m126.88976 66.81365l133.82675 -0.34645844" fill-rule="evenodd"/><path stroke="#000000" stroke-width="2.0" stroke-linejoin="round" stroke-linecap="butt" d="m134.46974 66.79402l119.392654 -0.30908966" fill-rule="evenodd"/><path fill="#000000" stroke="#000000" stroke-width="2.0" stroke-linecap="butt" d="m127.88976 66.81106c-0.0047073364 -1.817009 1.4644547 -3.2938004 3.2814713 -3.2985039c1.8170013 -0.0047035217 3.2937927 1.4644585 3.2985077 3.2814674c0.004699707 1.8170166 -1.4644623 3.293808 -3.281479 3.2985077c-1.8170013 0.0047073364 -3.2938004 -1.4644623 -3.2985 -3.2814713z" fill-rule="nonzero"/><path fill="#000000" stroke="#000000" stroke-width="2.0" stroke-linecap="butt" d="m253.86238 66.48494l-2.243332 2.254982l6.173706 -2.2651596l-6.1853485 -2.233162z" fill-rule="evenodd"/></g></svg>